<?xml version="1.0" encoding="UTF-8" standalone="no"?>
<svg
   xmlns:dc="http://purl.org/dc/elements/1.1/"
   xmlns:cc="http://creativecommons.org/ns#"
   xmlns:rdf="http://www.w3.org/1999/02/22-rdf-syntax-ns#"
   xmlns:svg="http://www.w3.org/2000/svg"
   xmlns="http://www.w3.org/2000/svg"
   xmlns:sodipodi="http://sodipodi.sourceforge.net/DTD/sodipodi-0.dtd"
   xmlns:inkscape="http://www.inkscape.org/namespaces/inkscape"
   height="64"
   width="64"
   version="1.1"
   id="svg37"
   sodipodi:docname="folder-html.svg"
   inkscape:version="0.92.2 5c3e80d, 2017-08-06">
  <metadata
     id="metadata41">
    <rdf:RDF>
      <cc:Work
         rdf:about="">
        <dc:format>image/svg+xml</dc:format>
        <dc:type
           rdf:resource="http://purl.org/dc/dcmitype/StillImage" />
        <dc:title></dc:title>
      </cc:Work>
    </rdf:RDF>
  </metadata>
  <sodipodi:namedview
     pagecolor="#ffffff"
     bordercolor="#666666"
     borderopacity="1"
     objecttolerance="10"
     gridtolerance="10"
     guidetolerance="10"
     inkscape:pageopacity="0"
     inkscape:pageshadow="2"
     inkscape:window-width="1366"
     inkscape:window-height="748"
     id="namedview39"
     showgrid="true"
     showguides="true"
     inkscape:guide-bbox="true"
     inkscape:zoom="22.627416"
     inkscape:cx="32.82936"
     inkscape:cy="22.951889"
     inkscape:window-x="0"
     inkscape:window-y="20"
     inkscape:window-maximized="1"
     inkscape:current-layer="svg37">
    <inkscape:grid
       type="xygrid"
       id="grid4518"
       empspacing="2" />
    <sodipodi:guide
       position="32,25"
       orientation="0,1"
       id="guide4522"
       inkscape:locked="false" />
    <sodipodi:guide
       position="32,25"
       orientation="1,0"
       id="guide4524"
       inkscape:locked="false" />
    <sodipodi:guide
       position="20,25"
       orientation="1,0"
       id="guide4526"
       inkscape:locked="false" />
    <sodipodi:guide
       position="44,25"
       orientation="1,0"
       id="guide4530"
       inkscape:locked="false" />
    <sodipodi:guide
       position="32,15"
       orientation="0,1"
       id="guide4532"
       inkscape:locked="false" />
    <sodipodi:guide
       position="-2,35"
       orientation="0,1"
       id="guide4534"
       inkscape:locked="false" />
  </sodipodi:namedview>
  <defs
     id="defs7">
    <linearGradient
       id="linearGradient4538-3"
       x1="416.57"
       gradientUnits="userSpaceOnUse"
       y1="530.85"
       gradientTransform="translate(0,-5e-6)"
       x2="416.57"
       y2="547.63">
      <stop
         stop-color="#c8e6fc"
         offset="0"
         id="stop2" />
      <stop
         stop-color="#aad5f7"
         offset="1"
         id="stop4" />
    </linearGradient>
    <linearGradient
       id="linearGradient4538-3-6"
       y2="553.46002"
       gradientUnits="userSpaceOnUse"
       x2="416.57001"
       gradientTransform="translate(0,-5e-6)"
       y1="515.79999"
       x1="416.57001">
      <stop
         stop-color="#c8e6fc"
         offset="0"
         id="stop2-3" />
      <stop
         stop-color="#b4daf9"
         offset="1"
         id="stop4-6" />
    </linearGradient>
    <linearGradient
       id="folderGradient"
       x1="416.57001"
       gradientUnits="userSpaceOnUse"
       y1="515.79999"
       gradientTransform="translate(-384.57,-483.8)"
       x2="416.57001"
       y2="553.46002">
      <stop
         stop-color="#9ac5f1"
         offset="0"
         id="stop2-3-3" />
      <stop
         stop-color="#77abea"
         offset="1"
         id="stop4-6-6" />
    </linearGradient>
  </defs>
  <path
     d="m 5,12 c -1.1046,0 -2,0.89542 -2,2 v 6 h 19 l 4,-4 h 5 L 27,12 H 10 Z"
     id="path8"
     inkscape:connector-curvature="0"
     style="fill:#8bb9e8" />
  <path
     d="m 26,16 -4,4 H 3 c 0,-1.2e-4 10e-4,26.061 0,38 H 61 V 18 a 2,2 0 0 0 -2,-2 z"
     id="path10"
     inkscape:connector-curvature="0"
     style="fill:url(#folderGradient)" />
  <path
     d="m 5,12 c -1.1046,0 -2,0.89543 -2,2 v 1 c -2.3e-6,1.7724 0,5 0,5 h 1 v -6 a 1,1 0 0 1 1,-1 h 21.486 l 3.0215,3 h 1.492 l -4,-4 h -17 z"
     id="path12"
     inkscape:connector-curvature="0"
     style="fill:#7ca3d5" />
  <path
     d="m 26,16 -4,4 H 3 c 0,-1.2e-4 10e-4,26.061 0,38 H 61 V 18 c 0,-1.1046 -0.89543,-2 -2,-2 z m 0.52539,1 h 32.475 a 1,1 0 0 1 1,1 v 39 h -56 V 21 h 18.514 z"
     id="path14"
     inkscape:connector-curvature="0"
     style="fill:#7ca3d5" />
  <path
     d="m 4,21 h 18.514 l 3.4856,-5 -5,4 z"
     id="path16"
     inkscape:connector-curvature="0"
     style="fill:#648bbe;fill-opacity:1" />
  <path
     d="m 26.525,17 -4.0117,4 H 4.0003 v 1 h 19 l 4,-4 h 33 c 0,-0.55228 -0.44772,-1 -1,-1 z"
     id="path20"
     inkscape:connector-curvature="0"
     style="fill:#ffffff;fill-opacity:0.23529412" />
  <path
     style="color:#000000;fill:#7ca3d5;fill-opacity:1"
     id="path26"
     d="m 32,29 c -0.34625,0 -0.694263,0.02848 -1.03125,0.0625 -0.673975,0.06804 -1.310479,0.180791 -1.9375,0.375 -3.135107,0.971045 -5.622705,3.458643 -6.59375,6.59375 -0.194209,0.627021 -0.306963,1.263525 -0.375,1.9375 C 22.02848,38.305737 22,38.65375 22,39 c 0,0.34625 0.02848,0.694263 0.0625,1.03125 0.06804,0.673975 0.180791,1.310479 0.375,1.9375 0.971045,3.135107 3.458643,5.622705 6.59375,6.59375 0.627021,0.194209 1.263525,0.306963 1.9375,0.375 C 31.305737,48.97152 31.65375,49 32,49 c 0.34625,0 0.694263,-0.02848 1.03125,-0.0625 0.673975,-0.06804 1.310479,-0.180791 1.9375,-0.375 0.626259,-0.194787 1.245727,-0.47336 1.8125,-0.78125 2.267461,-1.228711 4.004414,-3.304414 4.78125,-5.8125 0.194209,-0.627021 0.306963,-1.263525 0.375,-1.9375 C 41.97152,39.694263 42,39.34625 42,39 42,38.654822 41.97164,38.304921 41.9375,37.96875 41.86946,37.294775 41.756709,36.658271 41.5625,36.03125 41.174082,34.777207 40.532637,33.612012 39.71875,32.625 39.514956,32.378059 39.288706,32.163706 39.0625,31.9375 38.15875,31.03375 37.103437,30.285938 35.90625,29.78125 35.607154,29.654743 35.28188,29.534893 34.96875,29.4375 34.341729,29.243291 33.705225,29.130537 33.03125,29.0625 32.694263,29.028481 32.34625,29 32,29 Z m 0,1 c 1.513307,0 2.935817,0.371409 4.1875,1.03125 0.03308,0.01744 0.06092,0.04466 0.09375,0.0625 0.02534,0.03353 0.01799,0.06921 0.0625,0.09375 0.0327,0.0182 0.06295,0.0462 0.09375,0.0625 0.0527,0.0291 0.10465,0.07405 0.09375,0.125 -0.0145,0.0745 -0.1366,0.07044 -0.1875,0.125 0.007,0.10542 -0.0353,0.08537 -0.0625,0.15625 0.0164,0.0455 0.0553,0.03925 0.0625,0.09375 -0.009,0.0582 -0.08435,0.06503 -0.0625,0.125 0.0982,0.0764 0.18853,0.0127 0.28125,0 0.20362,-0.0255 0.37455,0.0043 0.5,-0.09375 -0.01325,-0.07778 0.06106,-0.1 0.09375,-0.15625 0.06637,0.04653 0.122459,0.107991 0.1875,0.15625 -0.0382,0.0164 -0.1217,0.0407 -0.15625,0.0625 -0.0509,0.0345 -0.06677,0.08684 -0.125,0.125 -0.0418,0.0291 -0.14386,0.125 -0.1875,0.125 -0.0527,0 -0.14932,-0.04395 -0.1875,-0.03125 -0.0546,0.0164 -0.03205,0.10319 -0.09375,0.125 -0.11999,0.0436 -0.33319,-0.1174 -0.375,0.0625 0.0509,0.1036 0.2216,0.06867 0.3125,0.125 0.0564,0.0364 0.14171,0.21945 0.15625,0.28125 0.0145,0.0509 0.0218,0.22673 0,0.28125 -0.0564,0.1454 -0.20775,0.12864 -0.375,0.125 -0.0455,0 -0.08315,0.004 -0.125,0 -0.28179,-0.0182 -0.56023,-0.10798 -0.6875,0.09375 0.009,0.15449 0.0346,0.2405 0,0.375 -0.0254,0.0981 -0.13046,0.16457 -0.125,0.25 0.002,0.0436 0.08285,0.12751 0.09375,0.1875 0.007,0.0327 -0.0146,0.09597 0,0.125 0.0473,0.0891 0.16637,-0.0145 0.25,0 0.08,0.0127 0.15625,0.12969 0.15625,0.21875 0,0.0636 -0.0225,0.1882 -0.0625,0.25 -0.08,0.11995 -0.22921,0.09081 -0.34375,0.15625 -0.0945,0.0545 -0.13114,0.18673 -0.1875,0.28125 -0.06,0.10178 -0.11742,0.13585 -0.09375,0.28125 -0.0818,0.16176 -0.17468,0.26559 -0.34375,0.34375 -0.0491,0.0218 -0.1108,0.06105 -0.15625,0.09375 -0.0364,0.0254 -0.07405,0.06676 -0.125,0.125 -0.0636,0.0709 -0.15296,0.10172 -0.1875,0.15625 -0.0255,0.0418 -0.004,0.13116 -0.03125,0.1875 -0.04,0.0764 -0.10535,0.14241 -0.15625,0.21875 -0.0236,0.0364 -0.06835,0.07766 -0.09375,0.125 -0.0582,0.10542 -0.13591,0.18856 -0.125,0.28125 0.009,0.0891 0.11955,0.10934 0.125,0.1875 0.005,0.0436 -0.03305,0.07773 -0.03125,0.125 0.002,0.0691 0.02585,0.10172 0.03125,0.15625 0.0127,0.1345 -0.06835,0.18855 -0.09375,0.28125 -0.0127,0.0436 0.0109,0.09047 0,0.125 -0.0218,0.0673 -0.12318,0.10753 -0.125,0.1875 -0.002,0.0564 0.08835,0.10757 0.09375,0.1875 0.004,0.0545 -0.04215,0.10536 -0.03125,0.15625 0.02,0.0982 0.2049,0.23616 0.28125,0.3125 0.10363,0.10361 0.20456,0.17219 0.25,0.28125 0.0382,0.0927 0.05415,0.24343 0.125,0.3125 0.0527,0.0509 0.15149,0.07233 0.21875,0.125 0.0636,0.0491 0.15148,0.07226 0.21875,0.125 0.1109,0.0873 0.26114,0.26273 0.4375,0.25 0.0927,-0.007 0.17762,-0.0444 0.28125,-0.0625 0.10726,-0.0182 0.23467,-0.0734 0.34375,-0.0625 0.0836,0.009 0.16274,0.068 0.25,0.0625 0.0909,-0.005 0.20888,-0.04835 0.3125,-0.09375 0.17999,-0.0782 0.45696,-0.22567 0.71875,-0.1875 0.19998,0.0291 0.20376,0.25469 0.34375,0.34375 0.15998,0.0145 0.27899,-0.0309 0.40625,0 0.0964,0.0236 0.20966,0.20492 0.21875,0.28125 0.009,0.0782 -0.0516,0.13843 -0.0625,0.1875 -0.0254,0.10542 -0.0444,0.24525 -0.0625,0.3125 -0.0145,0.0527 -0.03305,0.10354 -0.03125,0.15625 0,0.0473 0.07586,0.15695 0.125,0.21875 0.06,0.0764 0.14603,0.13514 0.21875,0.21875 0.13272,0.15267 0.18853,0.36074 0.28125,0.5625 0.0236,0.0509 -0.0218,0.06137 0,0.125 -0.04,0.30536 -0.14377,0.50568 -0.34375,0.84375 -0.0945,0.10905 -0.18932,0.23869 -0.1875,0.375 -0.007,0.32716 0.1708,0.49624 0.15625,0.8125 -0.0327,0.42531 0.0016,0.49156 -0.03125,0.71875 0.14363,0.0727 0.07305,0.28664 0.03125,0.4375 -0.0618,0.17993 -0.12171,0.22379 -0.15625,0.34375 C 38.35581,45.251 38.418288,45.25908 38.5,45.25 36.862545,46.95242 34.548632,48 32,48 c -1.192999,0 -2.33313,-0.234709 -3.375,-0.65625 -0.0035,-0.0014 0.0035,-0.02983 0,-0.03125 0.0945,-0.04 0.27467,0.0702 0.34375,-0.0625 0.0346,-0.0636 -0.0455,-0.18638 0,-0.25 0.0327,-0.0436 0.24524,-0.08285 0.3125,-0.09375 0.0964,-0.0164 0.19546,0.0033 0.25,-0.03125 0.06,-0.0382 0.13591,-0.13731 0.125,-0.25 -0.005,-0.0527 -0.05205,-0.07776 -0.09375,-0.125 -0.0345,-0.04 -0.0077,-0.08863 -0.03125,-0.125 -0.0436,-0.0636 -0.10682,-0.09474 -0.125,-0.1875 0.1309,-0.0254 0.31093,0.14649 0.5,0.09375 0.0891,-0.0255 0.23943,-0.19765 0.28125,-0.28125 0.0127,-0.0255 -0.0145,-0.1253 0,-0.15625 0.0164,-0.0345 0.057,-0.0444 0.0625,-0.0625 0.0127,-0.0491 -0.0109,-0.06295 0,-0.09375 0.0327,-0.0927 0.13295,-0.1515 0.1875,-0.21875 0.0418,-0.0509 0.08677,-0.10354 0.125,-0.15625 0.0436,-0.0564 0.06475,-0.07585 0.09375,-0.125 0.0273,-0.1654 -0.1025,-0.2921 -0.0625,-0.4375 0.0436,-0.16358 0.27934,-0.26923 0.4375,-0.34375 0.0545,-0.0255 0.1108,-0.07745 0.15625,-0.09375 0.10908,-0.0382 0.24194,-0.0262 0.34375,-0.0625 0.1709,-0.0618 0.22886,-0.24995 0.3125,-0.40625 0.04,-0.0727 0.08645,-0.13479 0.09375,-0.1875 0.007,-0.0473 -0.009,-0.10169 0,-0.15625 0.009,-0.0545 0.01675,-0.09627 0.03125,-0.15625 0.02,-0.0782 0.03125,-0.22526 0.03125,-0.3125 0,-0.0727 -0.02945,-0.09082 -0.03125,-0.15625 -0.0127,-0.23628 0.069,-0.24596 0.15625,-0.375 0.0436,-0.0636 0.06295,-0.17332 0.09375,-0.21875 0.14726,-0.21811 0.39318,-0.32546 0.375,-0.65625 -0.007,-0.10906 -0.04504,-0.34046 -0.125,-0.375 -0.0455,-0.02 -0.15148,-0.0059 -0.21875,-0.03125 -0.21453,-0.08 -0.37014,-0.32558 -0.59375,-0.34375 -0.0473,-0.002 -0.07226,0.002 -0.125,0 -0.0873,-0.002 -0.18308,-0.08285 -0.28125,-0.09375 -0.0618,-0.007 -0.18239,0.0182 -0.21875,0 -0.0564,-0.0273 -0.04835,-0.12535 -0.09375,-0.15625 -0.0364,-0.0255 -0.0999,-0.0425 -0.15625,-0.0625 -0.0891,-0.0345 -0.14637,-0.0552 -0.25,-0.0625 -0.0327,-0.002 -0.11992,0.005 -0.15625,0 -0.0564,-0.009 -0.10353,-0.06105 -0.15625,-0.09375 -0.0654,-0.04 -0.09773,-0.06864 -0.125,-0.125 0.06,-0.1963 -0.1475,-0.22925 -0.1875,-0.34375 -0.0182,-0.0527 0.0182,-0.14024 0,-0.1875 -0.0236,-0.0673 -0.0817,-0.09992 -0.15625,-0.15625 -0.1309,-0.10179 -0.25024,-0.19513 -0.4375,-0.21875 -0.0836,-0.009 -0.18126,0.007 -0.28125,0 -0.10544,-0.007 -0.23251,-0.06539 -0.3125,-0.15625 C 28.64235,39.12965 28.62976,39.0418 28.5625,39 28.4989,38.96 28.38738,38.94795 28.34375,38.90625 28.32375,38.88805 28.3307,38.8542 28.3125,38.8125 28.2798,38.747 28.21,38.73618 28.25,38.65625 c -0.0727,-0.0364 -0.04683,0.04585 -0.125,0.03125 -0.0709,-0.1 -0.12127,-0.1559 -0.28125,-0.125 -0.0727,0.0145 -0.1333,0.12319 -0.21875,0.125 -0.0709,0.002 -0.12603,-0.11228 -0.21875,-0.125 -0.0709,-0.009 -0.16966,0.0734 -0.21875,0.0625 -0.0782,-0.0145 -0.08539,-0.10891 -0.15625,-0.15625 -0.0527,-0.0346 -0.15841,-0.12681 -0.1875,-0.125 -0.0909,0.002 -0.15581,0.19225 -0.28125,0.125 -0.0618,-0.0782 0.10401,-0.08359 0.03125,-0.15625 -0.0545,-0.0545 -0.08134,0.0022 -0.125,0.03125 -0.0509,0.0345 -0.0999,0.07385 -0.15625,0.09375 -0.12545,0.0473 -0.21433,0.04295 -0.3125,0.09375 -0.0909,0.0473 -0.10353,0.12605 -0.15625,0.21875 -0.0418,0.0764 -0.12387,0.18386 -0.1875,0.1875 -0.0764,0.005 -0.14966,-0.09593 -0.21875,-0.125 -0.20907,-0.0909 -0.32729,0.0607 -0.5,0.0625 -0.15999,0.002 -0.38227,-0.25538 -0.375,-0.40625 0.005,-0.0927 0.0516,-0.22925 0.0625,-0.34375 0.009,-0.0909 0.09205,-0.16639 0.09375,-0.25 0.002,-0.11087 -0.17728,-0.20602 -0.25,-0.21875 -0.1709,-0.0309 -0.39922,0.0764 -0.59375,0 -0.0364,-0.0618 0.07195,-0.09626 0.09375,-0.15625 0.0127,-0.0345 -0.0127,-0.05555 0,-0.09375 0.0218,-0.0582 0.09774,-0.09445 0.125,-0.15625 0.02,-0.0473 0.01125,-0.12933 0.03125,-0.1875 0.0236,-0.0655 0.08825,-0.10899 0.09375,-0.15625 0.007,-0.0618 -0.04475,-0.14751 -0.09375,-0.1875 -0.1509,0.009 -0.25648,0.0229 -0.34375,0.0625 -0.19634,0.0891 -0.14558,0.34446 -0.34375,0.40625 -0.0673,0.0218 -0.17364,0.0498 -0.25,0.0625 0.129313,-0.654274 0.330953,-1.280046 0.59375,-1.875 0.0691,0.0127 0.12751,0.057 0.1875,0.0625 0.16726,0.0127 0.17432,-0.1148 0.3125,-0.1875 0.14181,0.02 0.21467,-0.0145 0.34375,0 0.0873,0.009 0.21217,0.11955 0.28125,0.125 0.0582,0.002 0.07045,-0.0716 0.125,-0.0625 0.0545,0.009 0.14716,0.12206 0.15625,0.1875 0.009,0.0818 -0.05495,0.15912 -0.03125,0.25 0.0855,0.0873 0.25319,0.13661 0.375,0.1875 0.08,-0.0655 0.0127,-0.21798 0,-0.3125 -0.002,-0.0418 0.005,-0.08676 0,-0.125 C 25.52225,35.4346 25.5,35.36884 25.5,35.3125 c 0,-0.25991 0.20047,-0.36696 0.375,-0.46875 0.0745,-0.0436 0.1533,-0.12353 0.21875,-0.15625 0.0927,-0.0455 0.14239,-0.05015 0.21875,-0.09375 0.13816,-0.0782 0.26773,-0.16093 0.375,-0.25 0.0491,-0.11813 -0.005,-0.25868 0,-0.375 0.0491,-0.0309 0.07233,0.005 0.125,0 0.0836,-0.0182 0.10897,-0.14025 0.15625,-0.1875 0.0273,-0.0273 0.12349,-0.0353 0.15625,-0.0625 0.0836,-0.0655 0.0835,-0.15841 0.15625,-0.1875 0.0255,-0.009 0.08495,-0.02035 0.125,-0.03125 0.0546,-0.0145 0.13149,-0.06295 0.21875,-0.09375 0.0564,-0.02 0.19693,-0.0095 0.21875,-0.03125 0.0273,-0.0273 -0.007,-0.14569 0,-0.1875 0.0436,-0.20538 0.34763,-0.21217 0.53125,-0.28125 0.12726,-0.0491 0.26444,-0.15227 0.40625,-0.125 -0.0273,0.0981 -0.14864,0.06934 -0.125,0.1875 0.0309,0.1654 0.22307,-0.0389 0.28125,-0.0625 0.1109,-0.0473 0.3233,-0.07226 0.46875,-0.125 0.12726,-0.0454 0.33873,-0.13403 0.21875,-0.28125 -0.1,-0.007 -0.13149,0.08864 -0.21875,0.125 -0.06,0.009 -0.07413,-0.02765 -0.125,-0.03125 -0.0491,-0.002 -0.07586,0.04035 -0.125,0.03125 -0.0491,-0.009 -0.11773,-0.09809 -0.125,-0.15625 -0.02,-0.15267 0.15695,-0.19981 0.21875,-0.3125 -0.0418,-0.13814 -0.2274,-0.008 -0.34375,-0.0625 0.0127,-0.0818 0.0599,-0.17113 0.15625,-0.1875 0.0782,-0.0127 0.26523,0.0247 0.3125,0.0625 0.0273,0.0236 -0.01046,0.08675 0.03125,0.125 0.0473,0.0418 0.12569,0.009 0.1875,0 0.0218,-0.1036 -0.14318,-0.05775 -0.125,-0.125 0.12362,-0.08 0.3491,-0.0425 0.5,-0.0625 0.0873,-0.0127 0.17182,-0.08317 0.25,-0.125 0.0727,-0.0418 0.14239,-0.10036 0.21875,-0.03125 0.0218,0.0745 -0.05205,0.11808 -0.09375,0.15625 -0.13999,0.12359 -0.26592,0.26267 -0.375,0.40625 0.0673,0.0655 0.16853,0.01855 0.28125,0.03125 0.0436,0.005 0.11079,0.02405 0.15625,0.03125 0.0546,0.009 0.11261,-0.009 0.15625,0 0.0764,0.0182 0.0799,0.125 0.15625,0.125 0.12363,0 0.13345,-0.10389 0.0625,-0.1875 0.0218,-0.0855 0.06225,-0.15876 0.03125,-0.21875 -0.0564,-0.11269 -0.27034,0.01854 -0.28125,-0.125 -0.007,-0.0909 0.09226,-0.11842 0.125,-0.1875 -0.0145,-0.17448 0.14318,-0.18562 0.125,-0.34375 -0.009,-0.0655 -0.07953,-0.06326 -0.125,-0.125 -0.0236,-0.0327 -0.0353,-0.10137 -0.0625,-0.125 -0.0945,-0.08 -0.27034,-0.06606 -0.28125,-0.21875 -0.005,-0.0909 0.0127,-0.15186 0,-0.25 -0.0127,-0.0927 -0.10754,-0.35682 -0.1875,-0.375 -0.10181,-0.0218 -0.15944,0.16241 -0.28125,0.21875 -0.0654,0.0309 -0.18274,0.04405 -0.25,0.03125 -0.0436,-0.009 -0.11954,-0.04145 -0.125,-0.125 C 29.46425,30.4206 29.47984,30.4035 29.5,30.375 29.5047,30.3683 29.4951,30.35081 29.5,30.34375 30.290994,30.116421 31.135895,30 32,30 Z m -3.71875,0.8125 c -0.08872,0.284111 -0.345531,0.446303 -0.6875,0.4375 -0.0836,0.08 -0.04835,0.23287 -0.09375,0.34375 -0.0382,0.0927 -0.15729,0.16353 -0.25,0.15625 -0.0673,-0.005 -0.1875,-0.09264 -0.1875,-0.15625 0,-0.05213 0.05041,-0.111023 0.0625,-0.15625 0.368045,-0.23797 0.753877,-0.441922 1.15625,-0.625 z m 7.65625,0.3125 c -0.0335,0.006 -0.06425,0.01395 -0.09375,0.03125 -0.0691,0.0418 -0.07226,0.10501 -0.125,0.125 -0.0745,0.0273 -0.17659,0.02655 -0.1875,0.09375 -0.009,0.0564 0.0644,0.07412 0.0625,0.125 -0.0273,0.0673 -0.07915,0.0744 -0.09375,0.15625 0.0927,0.15086 0.32297,0.0016 0.4375,-0.03125 0.0509,-0.0145 0.09773,0.0084 0.125,-0.03125 0.0309,-0.0491 0.0076,-0.14968 0.03125,-0.21875 0.0255,-0.0764 0.10285,-0.05776 0.09375,-0.125 -0.007,-0.0673 -0.13728,-0.1359 -0.25,-0.125 z m -9.90625,1.15625 c 0.06666,0.08046 0.122461,0.197346 0,0.25 -0.0182,0.009 -0.23762,0.04035 -0.28125,0.03125 -0.01354,-0.0019 -0.0191,-0.02281 -0.03125,-0.03125 0.09557,-0.09283 0.212893,-0.161456 0.3125,-0.25 z m 0.25,0.3125 c 0.0436,0.002 0.07406,0.09015 0.125,0.09375 0.0491,0.004 0.12711,-0.04035 0.15625,-0.03125 0.0764,0.02 0.10401,0.1624 0.03125,0.21875 -0.06,0.007 -0.08143,-0.0716 -0.125,-0.0625 -0.12363,0.0218 -0.15728,0.25727 -0.25,0.25 -0.0873,-0.009 -0.15163,-0.18638 -0.0625,-0.25 0.002,-0.0546 -0.03495,-0.07045 -0.03125,-0.125 0.0273,-0.0345 0.08349,-0.09915 0.15625,-0.09375 z m -0.40625,0.0625 c 0.0255,0 0.02215,-0.0109 0.03125,0 -0.0127,0.0963 -0.05053,0.11081 -0.125,0.15625 -0.12908,0.0782 -0.20818,0.17653 -0.25,0.34375 -0.0127,0.0491 -0.15694,0.20021 -0.21875,0.1875 -0.14363,-0.0309 0.06105,-0.30195 0.09375,-0.34375 0.0364,-0.0455 0.08323,-0.07405 0.125,-0.125 0.0418,-0.0509 0.05385,-0.15842 0.09375,-0.1875 0.0436,-0.0309 0.17365,-0.03495 0.25,-0.03125 z m 12.3125,0.25 c 0.14362,-0.009 0.2158,0.16275 0.28125,0.25 0.0545,0.0709 0.2234,0.16967 0.3125,0.21875 0.0509,0.0273 0.09989,0.06835 0.15625,0.09375 0.05908,0.02635 0.148975,0.0609 0.21875,0.125 0.06977,0.0641 0.12227,0.16059 0.125,0.21875 0.002,0.0582 -0.04035,0.10172 -0.03125,0.15625 0.06298,0.01025 0.09565,-0.05385 0.125,-0.125 0.235639,0.336128 0.436319,0.694842 0.625,1.0625 -0.03828,0.02371 -0.05475,0.04691 -0.0625,0.09375 -0.0182,0.10178 0.05895,0.23183 -0.09375,0.25 -0.0963,0.0127 -0.21104,-0.09596 -0.34375,-0.125 -0.0545,-0.0127 -0.14387,0.0145 -0.1875,0 -0.1,-0.0345 -0.07079,-0.15877 -0.15625,-0.21875 -0.0491,-0.0346 -0.17182,-0.08475 -0.25,-0.09375 -0.0491,-0.005 -0.07414,0.007 -0.125,0 -0.0618,-0.007 -0.16785,-3.5e-4 -0.21875,-0.03125 -0.0491,-0.0309 -0.17477,-0.08316 -0.1875,-0.125 -0.02,-0.0673 0.15262,-0.1624 0.15625,-0.21875 0.004,-0.0436 -0.0534,-0.05957 -0.0625,-0.125 -0.007,-0.04 0.009,-0.09954 0,-0.125 -0.0127,-0.0473 -0.08173,-0.09195 -0.15625,-0.09375 -0.0655,0 -0.13114,0.03125 -0.1875,0.03125 -0.08,0.002 -0.24376,-0.04035 -0.34375,-0.03125 -0.06,0.005 -0.09989,0.02765 -0.15625,0.03125 -0.15817,0.0127 -0.25137,-0.009 -0.375,0 -0.0891,0.005 -0.26012,0.05565 -0.34375,0.09375 -0.0418,0.02 -0.07045,0.06655 -0.125,0.09375 -0.0254,0.0127 -0.06095,0.01675 -0.09375,0.03125 -0.0509,0.0236 -0.13841,0.08105 -0.1875,0.09375 -0.0709,0.0182 -0.15217,-0.005 -0.28125,0 -0.0927,0.005 -0.24818,-0.01416 -0.25,-0.125 -0.002,-0.16903 0.30877,-0.09596 0.46875,-0.125 0.06,-0.0127 0.0835,-0.08323 0.15625,-0.125 0.0346,-0.02 0.06105,-0.0407 0.09375,-0.0625 0.0545,-0.0382 0.14716,-0.11262 0.15625,-0.15625 0.007,-0.04 -0.03675,-0.09597 -0.03125,-0.125 0.007,-0.0382 0.07592,-0.07593 0.125,-0.125 0.0764,-0.0764 0.12421,-0.16968 0.21875,-0.21875 0.0636,-0.0345 0.18966,-0.04295 0.21875,-0.09375 0.007,-0.0582 -0.002,-0.07226 0,-0.125 0.04,-0.0364 0.0298,-0.0553 0.0625,-0.0625 0.0982,-0.0218 0.19797,0.03675 0.3125,0.03125 0.0491,-0.002 0.10353,0.0036 0.15625,-0.03125 0.0436,-0.0291 0.08136,-0.07195 0.125,-0.09375 0.0473,-0.0255 0.09801,-0.09015 0.15625,-0.09375 z M 26.71875,33 c 0.02406,-0.0038 0.06463,0.0027 0.09375,0 0.0418,-0.002 0.07955,0 0.125,0 0.0455,0 0.10682,-0.0182 0.125,0 -0.0291,0.11996 -0.31171,0.07495 -0.40625,0.03125 C 26.65875,33.0085 26.69469,33.00384 26.71875,33 Z M 26.375,33.21875 c 0.0309,0 0.06105,-0.0127 0.09375,0 -0.0836,0.0709 -0.1983,0.11081 -0.34375,0.15625 -0.0691,0.0218 -0.17477,0.04505 -0.1875,-0.03125 -0.0146,-0.0945 0.06316,-0.08475 0.125,-0.09375 0.08,-0.009 0.21978,-0.02945 0.3125,-0.03125 z m 11.84375,0 c -0.06,0.02 -0.0891,0.1399 0,0.15625 0.0418,-0.0254 0.04225,-0.0799 0.03125,-0.15625 -0.0236,-0.0254 -0.01315,-0.007 -0.03125,0 z m -0.03125,0.25 c -0.0291,0.009 -0.06295,-0.0016 -0.09375,0.03125 0.002,0.10178 0.02,0.16094 0,0.25 0.0582,0.11269 0.18967,0.04505 0.21875,-0.03125 0.0346,-0.18903 -0.03774,-0.27363 -0.125,-0.25 z m 0.78125,0.5 c -0.08,-0.004 -0.14023,0.0247 -0.1875,0.0625 0.0673,0.10906 0.19285,0.12898 0.34375,0.15625 0.0545,-0.04 0.0371,-0.14968 0.0625,-0.21875 -0.0655,0 -0.10751,0.004 -0.1875,0 z m -15.875,3.84375 c 0.06386,0.08137 0.132895,0.176267 0.21875,0.21875 0.0455,0.0236 0.09807,0.01855 0.15625,0.03125 0.0473,0.009 0.07957,0.048 0.125,0.0625 0.0964,0.0327 0.23615,0.028 0.3125,0.0625 0.11636,0.0509 0.18125,0.25433 0.28125,0.3125 0.005,0.0582 -0.0182,0.11263 0,0.15625 0.0473,0.0636 0.14238,0.08324 0.21875,0.125 0.0927,0.0509 0.13149,0.17876 0.21875,0.21875 0.0309,0.0127 0.07766,-0.0145 0.125,0 0.11999,0.0364 0.14637,0.21839 0.25,0.1875 0.0673,-0.02 0.08285,-0.12207 0.09375,-0.1875 0.0455,-0.0491 0.08529,-0.125 0.15625,-0.125 0.11271,-0.002 0.14568,0.13914 0.1875,0.25 0.0236,0.0618 0.07745,0.12207 0.09375,0.1875 0.0273,0.11269 0.0236,0.43275 0,0.5 -0.0291,0.0836 -0.14966,0.12787 -0.21875,0.21875 -0.0327,0.0436 -0.06835,0.09596 -0.09375,0.125 -0.0436,0.0545 -0.09223,0.07596 -0.125,0.125 -0.0182,0.0273 -0.01495,0.08684 -0.03125,0.125 -0.0546,0.11632 -0.13923,0.20379 -0.09375,0.34375 0.0182,0.0564 0.09375,0.12026 0.09375,0.1875 0,0.08 -0.17477,0.10026 -0.1875,0.1875 -0.009,0.0636 0.07385,0.19582 0.09375,0.28125 0.0145,0.0636 0.11807,0.11444 0.15625,0.15625 0.0636,0.0709 0.12932,0.15912 0.1875,0.25 0.11453,0.1763 0.16855,0.38983 0.28125,0.5625 0.06,0.0891 0.17875,0.15549 0.21875,0.25 0.02,0.0473 -0.0182,0.14389 0,0.1875 0.0654,0.14723 0.38399,0.3023 0.53125,0.375 0.0691,0.0346 0.12388,0.05735 0.1875,0.09375 0.0964,0.0546 0.29467,0.16458 0.34375,0.25 0.0436,0.0764 0.07195,0.25323 0.09375,0.375 0.0273,0.15995 -0.007,0.29607 0,0.46875 0.005,0.0945 0.03125,0.15548 0.03125,0.25 0,0.0327 0.002,0.09227 0,0.125 -0.002,0.11269 0.009,0.22925 0,0.34375 -0.005,0.0618 -0.004,0.13479 0,0.1875 0.005,0.0564 0.0589,0.07594 0.0625,0.125 0.004,0.0527 -0.068,0.11445 -0.0625,0.15625 0.0127,0.11451 0.13443,0.20708 0.15625,0.3125 0.0182,0.0836 0.04215,0.27503 0.03125,0.375 -0.007,0.0527 -0.02395,0.12934 -0.03125,0.1875 -0.005,0.0455 0.007,0.08323 0,0.125 C 24.664537,44.961964 23,42.18145 23,39 c 0,-0.407876 0.04119,-0.794005 0.09375,-1.1875 z m 3.4375,0.90625 c 0.0873,-0.04 0.0709,0.11409 0,0.125 -0.0673,0.009 -0.0654,-0.09405 0,-0.125 z"
     inkscape:connector-curvature="0" />
</svg>
