<?xml version="1.0" encoding="UTF-8" standalone="no"?>
<svg
   xmlns:dc="http://purl.org/dc/elements/1.1/"
   xmlns:cc="http://creativecommons.org/ns#"
   xmlns:rdf="http://www.w3.org/1999/02/22-rdf-syntax-ns#"
   xmlns:svg="http://www.w3.org/2000/svg"
   xmlns="http://www.w3.org/2000/svg"
   xmlns:sodipodi="http://sodipodi.sourceforge.net/DTD/sodipodi-0.dtd"
   xmlns:inkscape="http://www.inkscape.org/namespaces/inkscape"
   height="64"
   width="64"
   version="1.1"
   id="svg37"
   sodipodi:docname="folder-disk.svg"
   inkscape:version="0.92.2 5c3e80d, 2017-08-06">
  <metadata
     id="metadata41">
    <rdf:RDF>
      <cc:Work
         rdf:about="">
        <dc:format>image/svg+xml</dc:format>
        <dc:type
           rdf:resource="http://purl.org/dc/dcmitype/StillImage" />
        <dc:title></dc:title>
      </cc:Work>
    </rdf:RDF>
  </metadata>
  <sodipodi:namedview
     pagecolor="#ffffff"
     bordercolor="#666666"
     borderopacity="1"
     objecttolerance="10"
     gridtolerance="10"
     guidetolerance="10"
     inkscape:pageopacity="0"
     inkscape:pageshadow="2"
     inkscape:window-width="1366"
     inkscape:window-height="748"
     id="namedview39"
     showgrid="true"
     showguides="false"
     inkscape:guide-bbox="true"
     inkscape:zoom="22.627417"
     inkscape:cx="22.900307"
     inkscape:cy="25.462747"
     inkscape:window-x="0"
     inkscape:window-y="20"
     inkscape:window-maximized="1"
     inkscape:current-layer="svg37">
    <inkscape:grid
       type="xygrid"
       id="grid4518"
       empspacing="2" />
    <sodipodi:guide
       position="32,25"
       orientation="0,1"
       id="guide4522"
       inkscape:locked="false" />
    <sodipodi:guide
       position="32,25"
       orientation="1,0"
       id="guide4524"
       inkscape:locked="false" />
    <sodipodi:guide
       position="20,25"
       orientation="1,0"
       id="guide4526"
       inkscape:locked="false" />
    <sodipodi:guide
       position="44,25"
       orientation="1,0"
       id="guide4530"
       inkscape:locked="false" />
    <sodipodi:guide
       position="32,15"
       orientation="0,1"
       id="guide4532"
       inkscape:locked="false" />
    <sodipodi:guide
       position="32,35"
       orientation="0,1"
       id="guide4534"
       inkscape:locked="false" />
  </sodipodi:namedview>
  <defs
     id="defs7">
    <linearGradient
       id="linearGradient4538-3"
       x1="416.57"
       gradientUnits="userSpaceOnUse"
       y1="530.85"
       gradientTransform="translate(0,-5e-6)"
       x2="416.57"
       y2="547.63">
      <stop
         stop-color="#c8e6fc"
         offset="0"
         id="stop2" />
      <stop
         stop-color="#aad5f7"
         offset="1"
         id="stop4" />
    </linearGradient>
    <linearGradient
       id="linearGradient4538-3-6"
       y2="553.46002"
       gradientUnits="userSpaceOnUse"
       x2="416.57001"
       gradientTransform="translate(0,-5e-6)"
       y1="515.79999"
       x1="416.57001">
      <stop
         stop-color="#c8e6fc"
         offset="0"
         id="stop2-3" />
      <stop
         stop-color="#b4daf9"
         offset="1"
         id="stop4-6" />
    </linearGradient>
    <linearGradient
       id="folderGradient"
       x1="416.57001"
       gradientUnits="userSpaceOnUse"
       y1="515.79999"
       gradientTransform="translate(-10e-7,-10e-6)"
       x2="416.57001"
       y2="553.46002">
      <stop
         stop-color="#9ac5f1"
         offset="0"
         id="stop2-3-3" />
      <stop
         stop-color="#77abea"
         offset="1"
         id="stop4-6-6" />
    </linearGradient>
  </defs>
  <g
     transform="translate(-384.57,-483.8)"
     id="g33">
    <g
       id="g23">
      <g
         transform="translate(0,5e-6)"
         id="g21">
        <path
           d="m 389.57,495.8 c -1.1046,0 -2,0.89542 -2,2 v 6 h 19 l 4,-4 h 5 l -4,-4 h -17 z"
           id="path8"
           inkscape:connector-curvature="0"
           style="fill:#8bb9e8" />
        <path
           d="m 410.57,499.8 -4,4 h -19 c 0,-1.2e-4 0.001,26.06099 0,37.99999 h 58 v -40 a 2,2 0 0 0 -2,-2 z"
           id="path10"
           inkscape:connector-curvature="0"
           style="fill:url(#folderGradient)" />
        <path
           d="m 389.57,495.8 c -1.1046,0 -2,0.89542 -2,2 v 1 c 0,1.7724 0,5 0,5 h 1 v -6 a 1,1 0 0 1 1,-1 h 21.486 l 3.0215,3 h 1.492 l -4,-4 h -17 z"
           id="path12"
           inkscape:connector-curvature="0"
           style="fill:#7ca3d5" />
        <path
           d="m 410.57,499.8 -4,4 h -19 c 0,-1.2e-4 0.001,26.06099 0,37.99999 h 58 v -40 c 0,-1.1046 -0.89543,-2 -2,-2 z m 0.52539,1 h 32.475 a 1,1 0 0 1 1,1 v 38.99999 h -56 v -36 h 18.514 z"
           id="path14"
           inkscape:connector-curvature="0"
           style="fill:#7ca3d5" />
        <path
           d="m 388.57,504.8 h 18.514 l 3.4856,-5 -5,4 z"
           id="path16"
           inkscape:connector-curvature="0"
           style="fill:#648bbe;fill-opacity:1" />
        <path
           d="m 411.095,500.8 -4.0117,4 h -18.513 v 1 h 19 l 4,-4 h 33 c 0,-0.55228 -0.44772,-1 -1,-1 z"
           id="path20"
           inkscape:connector-curvature="0"
           style="fill:#ffffff;fill-opacity:0.23529412" />
      </g>
    </g>
  </g>
  <path
     style="opacity:1;vector-effect:none;fill:#7ca3d5;fill-opacity:1;fill-rule:nonzero;stroke:none;stroke-width:1;stroke-linecap:round;stroke-linejoin:round;stroke-miterlimit:4;stroke-dasharray:none;stroke-dashoffset:0;stroke-opacity:1;paint-order:normal"
     d="m 32.175781,27.001953 c -3.242931,-0.0472 -6.366875,1.22027 -8.660156,3.513672 C 21.267943,32.766969 20.00622,35.818707 20.007812,39 h -0.0059 c 0.0042,0.13682 0.01068,0.273559 0.01953,0.410156 0.0046,0.239229 0.01629,0.478269 0.03516,0.716797 0.01876,0.163851 0.0409,0.327297 0.06641,0.490235 0.02897,0.233424 0.06479,0.465946 0.107422,0.697265 0.03727,0.171452 0.0783,0.342066 0.123047,0.511719 0.04822,0.213679 0.102271,0.425999 0.162109,0.636719 0.0571,0.177181 0.118314,0.35301 0.183594,0.527343 0.06929,0.206427 0.144189,0.41093 0.224609,0.613282 0.0683,0.156458 0.139931,0.311441 0.214844,0.464843 0.09371,0.208534 0.19336,0.414347 0.298828,0.617188 0.0853,0.15099 0.173862,0.300114 0.265625,0.447265 0.112405,0.195339 0.23029,0.387472 0.353516,0.576172 0.119296,0.171166 0.243036,0.339193 0.371093,0.503907 0.106705,0.147669 0.21676,0.292889 0.330078,0.435547 0.156056,0.183202 0.317588,0.361668 0.484376,0.535156 0.08944,0.101797 0.1806,0.202072 0.273437,0.300781 l 0.0039,-0.0039 c 2.248948,2.251501 5.300124,3.517497 8.482422,3.519531 6.627417,0 12,-5.372583 12,-12 v -0.5 c 0,-0.277 -0.223,-0.5 -0.5,-0.5 -0.277,0 -0.5,0.223 -0.5,0.5 V 39 c 0,6.075132 -4.924868,11 -11,11 -2.952035,-7.88e-4 -5.779869,-1.188084 -7.847656,-3.294922 -0.04337,-0.04585 -0.08634,-0.09208 -0.128906,-0.138672 -0.171049,-0.181838 -0.335858,-0.369447 -0.494141,-0.5625 -0.1086,-0.132286 -0.214097,-0.267088 -0.316406,-0.404297 -0.11537,-0.152667 -0.226736,-0.308319 -0.333985,-0.466797 -0.09795,-0.146151 -0.192377,-0.294631 -0.283203,-0.445312 -0.100743,-0.164751 -0.197131,-0.332127 -0.289062,-0.501953 -0.08041,-0.151825 -0.157256,-0.305513 -0.230469,-0.460938 -0.08413,-0.175594 -0.163587,-0.353391 -0.238281,-0.533203 -0.06348,-0.155509 -0.123394,-0.312451 -0.179688,-0.470703 -0.06912,-0.190905 -0.132952,-0.383687 -0.191406,-0.578125 -0.04502,-0.15337 -0.0867,-0.307703 -0.125,-0.46289 -0.05126,-0.200497 -0.09685,-0.4024 -0.136719,-0.605469 -0.02944,-0.156318 -0.05549,-0.313256 -0.07813,-0.470703 -0.0304,-0.202395 -0.05515,-0.405599 -0.07422,-0.609375 -0.0199,-0.213097 -0.03358,-0.42673 -0.04102,-0.640625 -0.0044,-0.0911 -0.0076,-0.182255 -0.0098,-0.273438 -0.02195,-2.944373 1.137448,-5.774637 3.21875,-7.857422 4.295577,-4.29466 11.259111,-4.29466 15.554688,0 l 0.353515,0.353516 c 0.195869,0.195868 0.511163,0.195868 0.707032,0 0.195868,-0.195869 0.195868,-0.511162 0,-0.707031 L 40.484375,30.515625 C 38.277243,28.308359 35.296893,27.04798 32.175781,27.001953 Z m 13.478516,0.15625 c -0.212719,0.01457 -0.399201,0.147445 -0.482422,0.34375 L 37.75,42.021484 C 37.667413,42.007353 37.583787,42.000166 37.5,42 36.671573,42 36,42.671573 36,43.5 c 0,0.828427 0.671573,1.5 1.5,1.5 0.828427,0 1.5,-0.671573 1.5,-1.5 -5.8e-5,-0.343413 -0.117951,-0.676409 -0.333984,-0.943359 L 46.1875,28 c 0.04748,-0.08472 0.07237,-0.180227 0.07227,-0.277344 -8.43e-4,-0.312152 -0.254254,-0.564689 -0.566407,-0.564453 -0.01302,-4.49e-4 -0.02605,-4.49e-4 -0.03906,0 z M 32,35 c -2.209139,0 -4,1.790861 -4,4 0,2.209139 1.790861,4 4,4 2.209139,0 4,-1.790861 4,-4 0,-2.209139 -1.790861,-4 -4,-4 z m 0,1 c 1.656854,0 3,1.343146 3,3 0,1.656854 -1.343146,3 -3,3 -1.656854,0 -3,-1.343146 -3,-3 0,-1.656854 1.343146,-3 3,-3 z m 0,2 c -0.552285,0 -1,0.447715 -1,1 0,0.552285 0.447715,1 1,1 0.552285,0 1,-0.447715 1,-1 0,-0.552285 -0.447715,-1 -1,-1 z"
     id="path844"
     inkscape:connector-curvature="0"
     sodipodi:nodetypes="ccccccccccccccccccccccssssscccccccccccccccccccccccccccccssccccccsssssssssssssss" />
</svg>
