<?xml version="1.0" encoding="UTF-8" standalone="no"?>
<svg
   xmlns:dc="http://purl.org/dc/elements/1.1/"
   xmlns:cc="http://creativecommons.org/ns#"
   xmlns:rdf="http://www.w3.org/1999/02/22-rdf-syntax-ns#"
   xmlns:svg="http://www.w3.org/2000/svg"
   xmlns="http://www.w3.org/2000/svg"
   xmlns:sodipodi="http://sodipodi.sourceforge.net/DTD/sodipodi-0.dtd"
   xmlns:inkscape="http://www.inkscape.org/namespaces/inkscape"
   height="64"
   width="64"
   version="1.1"
   id="svg41"
   sodipodi:docname="folder-games.svg"
   inkscape:version="0.92.2 5c3e80d, 2017-08-06">
  <metadata
     id="metadata45">
    <rdf:RDF>
      <cc:Work
         rdf:about="">
        <dc:format>image/svg+xml</dc:format>
        <dc:type
           rdf:resource="http://purl.org/dc/dcmitype/StillImage" />
        <dc:title></dc:title>
      </cc:Work>
    </rdf:RDF>
  </metadata>
  <sodipodi:namedview
     pagecolor="#ffffff"
     bordercolor="#666666"
     borderopacity="1"
     objecttolerance="10"
     gridtolerance="10"
     guidetolerance="10"
     inkscape:pageopacity="0"
     inkscape:pageshadow="2"
     inkscape:window-width="1366"
     inkscape:window-height="748"
     id="namedview43"
     showgrid="true"
     inkscape:zoom="31.999999"
     inkscape:cx="28.862042"
     inkscape:cy="31.121699"
     inkscape:current-layer="svg41"
     inkscape:window-x="0"
     inkscape:window-y="20"
     inkscape:window-maximized="1"
     showguides="false">
    <inkscape:grid
       type="xygrid"
       id="grid4528" />
  </sodipodi:namedview>
  <defs
     id="defs7">
    <linearGradient
       id="linearGradient4538-3"
       x1="416.57"
       gradientUnits="userSpaceOnUse"
       y1="530.85"
       gradientTransform="translate(0,-5e-6)"
       x2="416.57"
       y2="547.63">
      <stop
         stop-color="#c8e6fc"
         offset="0"
         id="stop2" />
      <stop
         stop-color="#aad5f7"
         offset="1"
         id="stop4" />
    </linearGradient>
    <linearGradient
       id="linearGradient4538-3-6"
       y2="553.46002"
       gradientUnits="userSpaceOnUse"
       x2="416.57001"
       gradientTransform="translate(0,-5e-6)"
       y1="515.79999"
       x1="416.57001">
      <stop
         stop-color="#c8e6fc"
         offset="0"
         id="stop2-8" />
      <stop
         stop-color="#b4daf9"
         offset="1"
         id="stop4-9" />
    </linearGradient>
    <linearGradient
       id="folderGradient"
       x1="416.57001"
       gradientUnits="userSpaceOnUse"
       y1="515.79999"
       gradientTransform="translate(-10e-7,-10e-6)"
       x2="416.57001"
       y2="553.46002">
      <stop
         stop-color="#9ac5f1"
         offset="0"
         id="stop2-3" />
      <stop
         stop-color="#77abea"
         offset="1"
         id="stop4-6" />
    </linearGradient>
  </defs>
  <g
     transform="translate(-384.57,-483.8)"
     id="g39">
    <g
       id="g23">
      <g
         transform="translate(0,5e-6)"
         id="g21">
        <path
           d="m 389.57,495.8 c -1.1046,0 -2,0.89542 -2,2 v 6 h 19 l 4,-4 h 5 l -4,-4 h -17 z"
           id="path8"
           inkscape:connector-curvature="0"
           style="fill:#8bb9e8" />
        <path
           d="m 410.57,499.8 -4,4 h -19 c 0,-1.2e-4 0.001,26.06099 0,37.99999 h 58 v -40 a 2,2 0 0 0 -2,-2 z"
           id="path10"
           inkscape:connector-curvature="0"
           style="fill:url(#folderGradient)" />
        <path
           d="m 389.57,495.8 c -1.1046,0 -2,0.89542 -2,2 v 1 c 0,1.7724 0,5 0,5 h 1 v -6 a 1,1 0 0 1 1,-1 h 21.486 l 3.0215,3 h 1.492 l -4,-4 h -17 z"
           id="path12"
           inkscape:connector-curvature="0"
           style="fill:#7ca3d5" />
        <path
           d="m 410.57,499.8 -4,4 h -19 c 0,-1.2e-4 0.001,26.06099 0,37.99999 h 58 v -40 c 0,-1.1046 -0.89543,-2 -2,-2 z m 0.52539,1 h 32.475 a 1,1 0 0 1 1,1 v 38.99999 h -56 v -36 h 18.514 z"
           id="path14"
           inkscape:connector-curvature="0"
           style="fill:#7ca3d5" />
        <path
           d="m 388.57,504.8 h 18.514 l 3.4856,-5 -5,4 z"
           id="path16"
           inkscape:connector-curvature="0"
           style="fill:#648bbe;fill-opacity:1" />
        <path
           d="m 411.095,500.8 -4.0117,4 h -18.513 v 1 h 19 l 4,-4 h 33 c 0,-0.55228 -0.44772,-1 -1,-1 z"
           id="path20"
           inkscape:connector-curvature="0"
           style="fill:#ffffff;fill-opacity:0.23529412" />
      </g>
    </g>
  </g>
  <path
     style="opacity:1;fill:#7ca3d5;fill-opacity:1;stroke:none;stroke-width:0.5244047;stroke-linecap:round;stroke-linejoin:round;stroke-miterlimit:4;stroke-dasharray:none;stroke-dashoffset:0;stroke-opacity:1;paint-order:fill markers stroke"
     d="m 25,26 c -0.55401,0 -1,0.44599 -1,1 v 23 c 0,0.55401 0.44599,1 1,1 h 12 c 0.831,0 1.580797,-0.334703 2.123047,-0.876953 C 39.665297,49.580787 40,48.831 40,48 V 27 c 0,-0.55401 -0.44599,-1 -1,-1 z m 0,1 h 14 v 21 c 0,0.554 -0.222484,1.054506 -0.583984,1.416016 C 38.054506,49.777516 37.554,50 37,50 H 25 Z m 1,1 V 40 H 38 V 28 Z m 1,1 H 37 V 39 H 27 Z m 1,13 v 2 h -2 v 2 h 2 v 2 h 2 v -2 h 2 v -2 h -2 v -2 z m 8,1 c -0.552285,0 -1,0.447715 -1,1 0,0.552285 0.447715,1 1,1 0.552285,0 1,-0.447715 1,-1 0,-0.552285 -0.447715,-1 -1,-1 z m -2,3 c -0.552285,0 -1,0.447715 -1,1 0,0.552285 0.447715,1 1,1 0.552285,0 1,-0.447715 1,-1 0,-0.552285 -0.447715,-1 -1,-1 z"
     id="rect4592"
     inkscape:connector-curvature="0"
     sodipodi:nodetypes="ssssscssssccscscccccccccccccccccccccccccssssssssss" />
</svg>
