<?xml version="1.0" encoding="UTF-8" standalone="no"?>
<svg
   xmlns:dc="http://purl.org/dc/elements/1.1/"
   xmlns:cc="http://creativecommons.org/ns#"
   xmlns:rdf="http://www.w3.org/1999/02/22-rdf-syntax-ns#"
   xmlns:svg="http://www.w3.org/2000/svg"
   xmlns="http://www.w3.org/2000/svg"
   xmlns:sodipodi="http://sodipodi.sourceforge.net/DTD/sodipodi-0.dtd"
   xmlns:inkscape="http://www.inkscape.org/namespaces/inkscape"
   height="64"
   width="64"
   version="1.1"
   id="svg35"
   sodipodi:docname="folder-remote-backup.svg"
   inkscape:version="0.92.2 5c3e80d, 2017-08-06">
  <metadata
     id="metadata39">
    <rdf:RDF>
      <cc:Work
         rdf:about="">
        <dc:format>image/svg+xml</dc:format>
        <dc:type
           rdf:resource="http://purl.org/dc/dcmitype/StillImage" />
        <dc:title></dc:title>
      </cc:Work>
    </rdf:RDF>
  </metadata>
  <sodipodi:namedview
     pagecolor="#ffffff"
     bordercolor="#666666"
     borderopacity="1"
     objecttolerance="10"
     gridtolerance="10"
     guidetolerance="10"
     inkscape:pageopacity="0"
     inkscape:pageshadow="2"
     inkscape:window-width="1366"
     inkscape:window-height="748"
     id="namedview37"
     showgrid="true"
     inkscape:zoom="16.30765"
     inkscape:cx="24.000192"
     inkscape:cy="26.760942"
     inkscape:current-layer="svg35"
     inkscape:window-x="0"
     inkscape:window-y="20"
     inkscape:window-maximized="1">
    <inkscape:grid
       type="xygrid"
       id="grid835" />
  </sodipodi:namedview>
  <defs
     id="defs7">
    <linearGradient
       id="linearGradient4538-3"
       y2="547.63"
       gradientUnits="userSpaceOnUse"
       x2="416.57"
       gradientTransform="translate(0,-5e-6)"
       y1="530.85"
       x1="416.57">
      <stop
         stop-color="#c8e6fc"
         offset="0"
         id="stop2" />
      <stop
         stop-color="#aad5f7"
         offset="1"
         id="stop4" />
    </linearGradient>
    <linearGradient
       id="linearGradient4538-3-6"
       y2="553.46002"
       gradientUnits="userSpaceOnUse"
       x2="416.57001"
       gradientTransform="translate(0,-5e-6)"
       y1="515.79999"
       x1="416.57001">
      <stop
         stop-color="#c8e6fc"
         offset="0"
         id="stop2-1" />
      <stop
         stop-color="#b4daf9"
         offset="1"
         id="stop4-2" />
    </linearGradient>
    <linearGradient
       id="folderGradient"
       x1="416.57001"
       gradientUnits="userSpaceOnUse"
       y1="515.79999"
       gradientTransform="translate(-10e-7,-10e-6)"
       x2="416.57001"
       y2="553.46002">
      <stop
         stop-color="#9ac5f1"
         offset="0"
         id="stop2-3" />
      <stop
         stop-color="#77abea"
         offset="1"
         id="stop4-6" />
    </linearGradient>
  </defs>
  <g
     transform="translate(-384.57,-483.8)"
     id="g23">
    <g
       transform="translate(0,5e-6)"
       id="g21">
      <path
         d="m 389.57,495.8 c -1.1046,0 -2,0.89542 -2,2 v 6 h 19 l 4,-4 h 5 l -4,-4 h -17 z"
         id="path8"
         inkscape:connector-curvature="0"
         style="fill:#8bb9e8" />
      <path
         d="m 410.57,499.8 -4,4 h -19 c 0,-1.2e-4 0.001,26.06099 0,37.99999 h 58 v -40 a 2,2 0 0 0 -2,-2 z"
         id="path10"
         inkscape:connector-curvature="0"
         style="fill:url(#folderGradient)" />
      <path
         d="m 389.57,495.8 c -1.1046,0 -2,0.89542 -2,2 v 1 c 0,1.7724 0,5 0,5 h 1 v -6 a 1,1 0 0 1 1,-1 h 21.486 l 3.0215,3 h 1.492 l -4,-4 h -17 z"
         id="path12"
         inkscape:connector-curvature="0"
         style="fill:#7ca3d5" />
      <path
         d="m 410.57,499.8 -4,4 h -19 c 0,-1.2e-4 0.001,26.06099 0,37.99999 h 58 v -40 c 0,-1.1046 -0.89543,-2 -2,-2 z m 0.52539,1 h 32.475 a 1,1 0 0 1 1,1 v 38.99999 h -56 v -36 h 18.514 z"
         id="path14"
         inkscape:connector-curvature="0"
         style="fill:#7ca3d5" />
      <path
         d="m 388.57,504.8 h 18.514 l 3.4856,-5 -5,4 z"
         id="path16"
         inkscape:connector-curvature="0"
         style="fill:#648bbe;fill-opacity:1" />
      <path
         d="m 411.095,500.8 -4.0117,4 h -18.513 v 1 h 19 l 4,-4 h 33 c 0,-0.55228 -0.44772,-1 -1,-1 z"
         id="path20"
         inkscape:connector-curvature="0"
         style="fill:#ffffff;fill-opacity:0.23529412" />
    </g>
  </g>
  <path
     style="fill:#7ca3d5;fill-opacity:1"
     d="M 24 29 C 23.446 29 23 29.446 23 30 L 23 39 L 23 40 L 23 41 L 19.5 41 C 19.223 41 19 41.223 19 41.5 C 19 41.777 19.223 42 19.5 42 L 44.5 42 C 44.777 42 45 41.777 45 41.5 C 45 41.223 44.777 41 44.5 41 L 41 41 L 41 30 C 41 29.446 40.554 29 40 29 L 24 29 z M 24 30 L 40 30 L 40 39 L 24 39 L 24 30 z M 33.90625 31.667969 A 0.50005 0.50005 0 0 0 33.601562 32.560547 C 34.170313 33.019257 34.533203 33.717591 34.533203 34.507812 C 34.533203 35.894509 33.4199 37.007812 32.033203 37.007812 C 30.646507 37.007812 29.533203 35.894509 29.533203 34.507812 C 29.533203 33.725181 29.889808 33.033179 30.449219 32.574219 A 0.50028347 0.50028347 0 1 0 29.814453 31.800781 C 29.032624 32.442221 28.533203 33.420145 28.533203 34.507812 C 28.533203 36.434916 30.1061 38.007812 32.033203 38.007812 C 33.960307 38.007812 35.533203 36.434916 35.533203 34.507812 C 35.533203 33.409635 35.025399 32.424333 34.230469 31.783203 A 0.50005 0.50005 0 0 0 33.90625 31.667969 z M 24 40 L 40 40 L 40 41 L 24 41 L 24 40 z M 32.5 43 C 32.223 43 32 43.223 32 43.5 L 32 47 L 15.5 47 C 15.223 47 15 47.223 15 47.5 C 15 47.777 15.223 48 15.5 48 L 32.5 48 L 48.5 48 C 48.777 48 49 47.777 49 47.5 C 49 47.223 48.777 47 48.5 47 L 33 47 L 33 43.5 C 33 43.223 32.777 43 32.5 43 z "
     id="rect21" />
</svg>
