<?xml version="1.0" encoding="UTF-8" standalone="no"?>
<svg
   xmlns:dc="http://purl.org/dc/elements/1.1/"
   xmlns:cc="http://creativecommons.org/ns#"
   xmlns:rdf="http://www.w3.org/1999/02/22-rdf-syntax-ns#"
   xmlns:svg="http://www.w3.org/2000/svg"
   xmlns="http://www.w3.org/2000/svg"
   xmlns:sodipodi="http://sodipodi.sourceforge.net/DTD/sodipodi-0.dtd"
   xmlns:inkscape="http://www.inkscape.org/namespaces/inkscape"
   height="64"
   width="64"
   version="1.1"
   id="svg37"
   sodipodi:docname="folder-mail.svg"
   inkscape:version="0.92.1 unknown">
  <metadata
     id="metadata41">
    <rdf:RDF>
      <cc:Work
         rdf:about="">
        <dc:format>image/svg+xml</dc:format>
        <dc:type
           rdf:resource="http://purl.org/dc/dcmitype/StillImage" />
        <dc:title></dc:title>
      </cc:Work>
    </rdf:RDF>
  </metadata>
  <sodipodi:namedview
     pagecolor="#ffffff"
     bordercolor="#666666"
     borderopacity="1"
     objecttolerance="10"
     gridtolerance="10"
     guidetolerance="10"
     inkscape:pageopacity="0"
     inkscape:pageshadow="2"
     inkscape:window-width="1366"
     inkscape:window-height="706"
     id="namedview39"
     showgrid="true"
     showguides="true"
     inkscape:guide-bbox="true"
     inkscape:zoom="11.313708"
     inkscape:cx="31.645186"
     inkscape:cy="31.378971"
     inkscape:window-x="0"
     inkscape:window-y="22"
     inkscape:window-maximized="1"
     inkscape:current-layer="svg37">
    <inkscape:grid
       type="xygrid"
       id="grid4518"
       empspacing="2" />
    <sodipodi:guide
       position="32,25"
       orientation="0,1"
       id="guide4522"
       inkscape:locked="false" />
    <sodipodi:guide
       position="32,25"
       orientation="1,0"
       id="guide4524"
       inkscape:locked="false" />
    <sodipodi:guide
       position="20,25"
       orientation="1,0"
       id="guide4526"
       inkscape:locked="false" />
    <sodipodi:guide
       position="44,25"
       orientation="1,0"
       id="guide4530"
       inkscape:locked="false" />
    <sodipodi:guide
       position="32,15"
       orientation="0,1"
       id="guide4532"
       inkscape:locked="false" />
    <sodipodi:guide
       position="-2,35"
       orientation="0,1"
       id="guide4534"
       inkscape:locked="false" />
  </sodipodi:namedview>
  <defs
     id="defs7">
    <linearGradient
       id="linearGradient4538-3"
       x1="416.57"
       gradientUnits="userSpaceOnUse"
       y1="530.85"
       gradientTransform="translate(0,-5e-6)"
       x2="416.57"
       y2="547.63">
      <stop
         stop-color="#c8e6fc"
         offset="0"
         id="stop2" />
      <stop
         stop-color="#aad5f7"
         offset="1"
         id="stop4" />
    </linearGradient>
    <linearGradient
       id="linearGradient4538-3-6"
       y2="553.46002"
       gradientUnits="userSpaceOnUse"
       x2="416.57001"
       gradientTransform="translate(0,-5e-6)"
       y1="515.79999"
       x1="416.57001">
      <stop
         stop-color="#c8e6fc"
         offset="0"
         id="stop2-3" />
      <stop
         stop-color="#b4daf9"
         offset="1"
         id="stop4-6" />
    </linearGradient>
    <linearGradient
       id="folderGradient"
       x1="416.57001"
       gradientUnits="userSpaceOnUse"
       y1="515.79999"
       gradientTransform="translate(-10e-7,-10e-6)"
       x2="416.57001"
       y2="553.46002">
      <stop
         stop-color="#9ac5f1"
         offset="0"
         id="stop2-3-3" />
      <stop
         stop-color="#77abea"
         offset="1"
         id="stop4-6-6" />
    </linearGradient>
  </defs>
  <g
     transform="translate(-384.57,-483.8)"
     id="g23">
    <g
       transform="translate(0,5e-6)"
       id="g21">
      <path
         d="m 389.57,495.8 c -1.1046,0 -2,0.89542 -2,2 v 6 h 19 l 4,-4 h 5 l -4,-4 h -17 z"
         id="path8"
         inkscape:connector-curvature="0"
         style="fill:#8bb9e8" />
      <path
         d="m 410.57,499.8 -4,4 h -19 c 0,-1.2e-4 0.001,26.06099 0,37.99999 h 58 v -40 a 2,2 0 0 0 -2,-2 z"
         id="path10"
         inkscape:connector-curvature="0"
         style="fill:url(#folderGradient)" />
      <path
         d="m 389.57,495.8 c -1.1046,0 -2,0.89542 -2,2 v 1 c 0,1.7724 0,5 0,5 h 1 v -6 a 1,1 0 0 1 1,-1 h 21.486 l 3.0215,3 h 1.492 l -4,-4 h -17 z"
         id="path12"
         inkscape:connector-curvature="0"
         style="fill:#7ca3d5" />
      <path
         d="m 410.57,499.8 -4,4 h -19 c 0,-1.2e-4 0.001,26.06099 0,37.99999 h 58 v -40 c 0,-1.1046 -0.89543,-2 -2,-2 z m 0.52539,1 h 32.475 a 1,1 0 0 1 1,1 v 38.99999 h -56 v -36 h 18.514 z"
         id="path14"
         inkscape:connector-curvature="0"
         style="fill:#7ca3d5" />
      <path
         d="m 388.57,504.8 h 18.514 l 3.4856,-5 -5,4 z"
         id="path16"
         inkscape:connector-curvature="0"
         style="fill:#648bbe;fill-opacity:1" />
      <path
         d="m 411.095,500.8 -4.0117,4 h -18.513 v 1 h 19 l 4,-4 h 33 c 0,-0.55228 -0.44772,-1 -1,-1 z"
         id="path20"
         inkscape:connector-curvature="0"
         style="fill:#ffffff;fill-opacity:0.23529412" />
    </g>
  </g>
  <path
     style="fill:#7ca3d5;fill-opacity:1"
     d="M 21.4375,30 C 21.195125,30 21,30.195125 21,30.4375 V 30.5 30.5625 31 v 16 0.5 0.0625 c 0,0.242375 0.195308,0.44692 0.4375,0.4375 H 22 42 42.5625 C 42.804875,48 43,47.804875 43,47.5625 V 47.4375 47 45 31 30.5625 30.4375 C 43,30.195125 42.804875,30 42.5625,30 H 42.4375 42 22 21.5 Z M 22,31 h 0.04883 L 29.02344,37.976562 22,44 Z m 1.462891,0 H 40.537109 L 32,39.537109 Z m 18.488281,0 H 42 v 13 l -7.023438,-6.023438 z m -12.222656,7.679688 2.269531,2.267578 2.269531,-2.267578 7.267578,6.267578 0.462891,0.46289 v 1.585938 H 22 v -1.587891 l 0.460938,-0.460937 z"
     id="path90"
     inkscape:connector-curvature="0"
     sodipodi:nodetypes="sscccccssccsscccccssccccscccccccccccccccccccccccc" />
</svg>
