<?xml version="1.0" encoding="UTF-8" standalone="no"?>
<svg
   xmlns:dc="http://purl.org/dc/elements/1.1/"
   xmlns:cc="http://creativecommons.org/ns#"
   xmlns:rdf="http://www.w3.org/1999/02/22-rdf-syntax-ns#"
   xmlns:svg="http://www.w3.org/2000/svg"
   xmlns="http://www.w3.org/2000/svg"
   xmlns:sodipodi="http://sodipodi.sourceforge.net/DTD/sodipodi-0.dtd"
   xmlns:inkscape="http://www.inkscape.org/namespaces/inkscape"
   height="64"
   width="64"
   version="1.1"
   id="svg29"
   sodipodi:docname="folder-tapes.svg"
   inkscape:version="0.92.2 5c3e80d, 2017-08-06">
  <metadata
     id="metadata33">
    <rdf:RDF>
      <cc:Work
         rdf:about="">
        <dc:format>image/svg+xml</dc:format>
        <dc:type
           rdf:resource="http://purl.org/dc/dcmitype/StillImage" />
        <dc:title></dc:title>
      </cc:Work>
    </rdf:RDF>
  </metadata>
  <sodipodi:namedview
     pagecolor="#ffffff"
     bordercolor="#666666"
     borderopacity="1"
     objecttolerance="10"
     gridtolerance="10"
     guidetolerance="10"
     inkscape:pageopacity="0"
     inkscape:pageshadow="2"
     inkscape:window-width="1366"
     inkscape:window-height="748"
     id="namedview31"
     showgrid="true"
     inkscape:zoom="8"
     inkscape:cx="29.165994"
     inkscape:cy="28.616946"
     inkscape:current-layer="svg29"
     inkscape:window-x="0"
     inkscape:window-y="20"
     inkscape:window-maximized="1">
    <inkscape:grid
       type="xygrid"
       id="grid832" />
  </sodipodi:namedview>
  <defs
     id="defs7">
    <linearGradient
       id="linearGradient4538-3"
       y2="547.63"
       gradientUnits="userSpaceOnUse"
       x2="416.57"
       gradientTransform="translate(0,-5e-6)"
       y1="530.85"
       x1="416.57">
      <stop
         stop-color="#c8e6fc"
         offset="0"
         id="stop2" />
      <stop
         stop-color="#aad5f7"
         offset="1"
         id="stop4" />
    </linearGradient>
    <linearGradient
       id="linearGradient4538-3-6"
       y2="553.46002"
       gradientUnits="userSpaceOnUse"
       x2="416.57001"
       gradientTransform="translate(0,-5e-6)"
       y1="515.79999"
       x1="416.57001">
      <stop
         stop-color="#c8e6fc"
         offset="0"
         id="stop2-6" />
      <stop
         stop-color="#b4daf9"
         offset="1"
         id="stop4-2" />
    </linearGradient>
    <linearGradient
       id="folderGradient"
       x1="416.57001"
       gradientUnits="userSpaceOnUse"
       y1="515.79999"
       gradientTransform="translate(-10e-7,-10e-6)"
       x2="416.57001"
       y2="553.46002">
      <stop
         stop-color="#9ac5f1"
         offset="0"
         id="stop2-3" />
      <stop
         stop-color="#77abea"
         offset="1"
         id="stop4-6" />
    </linearGradient>
  </defs>
  <g
     transform="translate(-384.57,-483.8)"
     id="g23">
    <g
       transform="translate(0,5e-6)"
       id="g21">
      <path
         d="m 389.57,495.8 c -1.1046,0 -2,0.89542 -2,2 v 6 h 19 l 4,-4 h 5 l -4,-4 h -17 z"
         id="path8"
         inkscape:connector-curvature="0"
         style="fill:#8bb9e8" />
      <path
         d="m 410.57,499.8 -4,4 h -19 c 0,-1.2e-4 0.001,26.06099 0,37.99999 h 58 v -40 a 2,2 0 0 0 -2,-2 z"
         id="path10"
         inkscape:connector-curvature="0"
         style="fill:url(#folderGradient)" />
      <path
         d="m 389.57,495.8 c -1.1046,0 -2,0.89542 -2,2 v 1 c 0,1.7724 0,5 0,5 h 1 v -6 a 1,1 0 0 1 1,-1 h 21.486 l 3.0215,3 h 1.492 l -4,-4 h -17 z"
         id="path12"
         inkscape:connector-curvature="0"
         style="fill:#7ca3d5" />
      <path
         d="m 410.57,499.8 -4,4 h -19 c 0,-1.2e-4 0.001,26.06099 0,37.99999 h 58 v -40 c 0,-1.1046 -0.89543,-2 -2,-2 z m 0.52539,1 h 32.475 a 1,1 0 0 1 1,1 v 38.99999 h -56 v -36 h 18.514 z"
         id="path14"
         inkscape:connector-curvature="0"
         style="fill:#7ca3d5" />
      <path
         d="m 388.57,504.8 h 18.514 l 3.4856,-5 -5,4 z"
         id="path16"
         inkscape:connector-curvature="0"
         style="fill:#648bbe;fill-opacity:1" />
      <path
         d="m 411.095,500.8 -4.0117,4 h -18.513 v 1 h 19 l 4,-4 h 33 c 0,-0.55228 -0.44772,-1 -1,-1 z"
         id="path20"
         inkscape:connector-curvature="0"
         style="fill:#ffffff;fill-opacity:0.23529412" />
    </g>
  </g>
  <path
     style="opacity:1;vector-effect:none;fill:#7ca3d5;fill-opacity:1;fill-rule:nonzero;stroke:none;stroke-width:1;stroke-linecap:round;stroke-linejoin:round;stroke-miterlimit:4;stroke-dasharray:none;stroke-dashoffset:0;stroke-opacity:1;paint-order:normal"
     d="m 21.5,29 c -0.277,0 -0.5,0.223 -0.5,0.5 0,0.277 0.223,0.5 0.5,0.5 h 6.923828 l 2.308594,4 H 22 c -0.554,0 -1,0.446 -1,1 v 10 c 0,0.554 0.446,1 1,1 h 17 c 0.554,0 1,-0.446 1,-1 v -4 l 5,5 h 0.5 c 0.276142,0 0.5,-0.223858 0.5,-0.5 v -11 C 46,34.223858 45.776142,34 45.5,34 H 45 l -5,5 v -4 c 0,-0.554 -0.446,-1 -1,-1 H 31.886719 L 29,29 Z M 22,35 H 39 V 45 H 22 Z m 23,0.447266 v 9.105468 L 40.447266,40 Z"
     id="rect834"
     inkscape:connector-curvature="0" />
</svg>
