<?xml version="1.0" encoding="UTF-8" standalone="no"?>
<svg
   xmlns:dc="http://purl.org/dc/elements/1.1/"
   xmlns:cc="http://creativecommons.org/ns#"
   xmlns:rdf="http://www.w3.org/1999/02/22-rdf-syntax-ns#"
   xmlns:svg="http://www.w3.org/2000/svg"
   xmlns="http://www.w3.org/2000/svg"
   xmlns:sodipodi="http://sodipodi.sourceforge.net/DTD/sodipodi-0.dtd"
   xmlns:inkscape="http://www.inkscape.org/namespaces/inkscape"
   height="64"
   width="64"
   version="1.1"
   id="svg29"
   sodipodi:docname="folder-publicshare.svg"
   inkscape:version="0.92.2 5c3e80d, 2017-08-06">
  <metadata
     id="metadata33">
    <rdf:RDF>
      <cc:Work
         rdf:about="">
        <dc:format>image/svg+xml</dc:format>
        <dc:type
           rdf:resource="http://purl.org/dc/dcmitype/StillImage" />
        <dc:title></dc:title>
      </cc:Work>
    </rdf:RDF>
  </metadata>
  <sodipodi:namedview
     pagecolor="#ffffff"
     bordercolor="#666666"
     borderopacity="1"
     objecttolerance="10"
     gridtolerance="10"
     guidetolerance="10"
     inkscape:pageopacity="0"
     inkscape:pageshadow="2"
     inkscape:window-width="1366"
     inkscape:window-height="748"
     id="namedview31"
     showgrid="false"
     inkscape:zoom="8.153825"
     inkscape:cx="19.439784"
     inkscape:cy="26.936333"
     inkscape:current-layer="svg29"
     inkscape:window-x="0"
     inkscape:window-y="20"
     inkscape:window-maximized="1"
     showguides="false" />
  <defs
     id="defs7">
    <linearGradient
       id="linearGradient4538-3"
       y2="547.63"
       gradientUnits="userSpaceOnUse"
       x2="416.57"
       gradientTransform="translate(0,-5e-6)"
       y1="530.85"
       x1="416.57">
      <stop
         stop-color="#c8e6fc"
         offset="0"
         id="stop2" />
      <stop
         stop-color="#aad5f7"
         offset="1"
         id="stop4" />
    </linearGradient>
    <linearGradient
       id="linearGradient4538-3-6"
       y2="553.46002"
       gradientUnits="userSpaceOnUse"
       x2="416.57001"
       gradientTransform="translate(0,-5e-6)"
       y1="515.79999"
       x1="416.57001">
      <stop
         stop-color="#c8e6fc"
         offset="0"
         id="stop2-1" />
      <stop
         stop-color="#b4daf9"
         offset="1"
         id="stop4-2" />
    </linearGradient>
    <linearGradient
       id="folderGradient"
       x1="416.57001"
       gradientUnits="userSpaceOnUse"
       y1="515.79999"
       gradientTransform="translate(-384.57,-483.8)"
       x2="416.57001"
       y2="553.46002">
      <stop
         stop-color="#9ac5f1"
         offset="0"
         id="stop2-3" />
      <stop
         stop-color="#77abea"
         offset="1"
         id="stop4-6" />
    </linearGradient>
  </defs>
  <path
     d="m 5,12 c -1.1046,0 -2,0.89542 -2,2 v 6 h 19 l 4,-4 h 5 L 27,12 H 10 Z"
     id="path8"
     inkscape:connector-curvature="0"
     style="fill:#8bb9e8" />
  <path
     d="m 26,16 -4,4 H 3 c 0,-1.2e-4 10e-4,26.061 0,38 H 61 V 18 a 2,2 0 0 0 -2,-2 z"
     id="path10"
     inkscape:connector-curvature="0"
     style="fill:url(#folderGradient)" />
  <path
     d="m 5,12 c -1.1046,0 -2,0.89543 -2,2 v 1 c -2.3e-6,1.7724 0,5 0,5 h 1 v -6 a 1,1 0 0 1 1,-1 h 21.486 l 3.0215,3 h 1.492 l -4,-4 h -17 z"
     id="path12"
     inkscape:connector-curvature="0"
     style="fill:#7ca3d5" />
  <path
     d="m 26,16 -4,4 H 3 c 0,-1.2e-4 10e-4,26.061 0,38 H 61 V 18 c 0,-1.1046 -0.89543,-2 -2,-2 z m 0.52539,1 h 32.475 a 1,1 0 0 1 1,1 v 39 h -56 V 21 h 18.514 z"
     id="path14"
     inkscape:connector-curvature="0"
     style="fill:#7ca3d5" />
  <path
     d="m 4,21 h 18.514 l 3.4856,-5 -5,4 z"
     id="path16"
     inkscape:connector-curvature="0"
     style="fill:#648bbe;fill-opacity:1" />
  <path
     d="m 26.525,17 -4.0117,4 H 4.0003 v 1 h 19 l 4,-4 h 33 c 0,-0.55228 -0.44772,-1 -1,-1 z"
     id="path20"
     inkscape:connector-curvature="0"
     style="fill:#ffffff;fill-opacity:0.23529412" />
  <path
     inkscape:connector-curvature="0"
     style="fill:#7ca3d5;fill-opacity:1"
     d="m 22.890625,27.476562 a 0.50005,0.50005 0 0 0 -0.222656,0.06641 c -0.956102,0.541595 -1.737652,1.286317 -2.261719,2.224609 -1.514772,2.712058 -0.508329,6.275688 2.046875,9.503906 C 21.312673,40.515889 20.613281,42.171218 20.613281,44 v 4 h 14 v -0.871094 c 2.539568,0.701166 4.968701,0.886193 7.035157,0.525391 2.248567,-0.392599 4.096654,-1.44621 5.070312,-3.189453 0.986223,-1.76574 0.899482,-3.921874 0.02344,-6.070313 -0.876047,-2.148439 -2.538051,-4.324852 -4.791016,-6.253906 a 0.50005,0.50005 0 0 0 -0.31836,-0.125 0.50005,0.50005 0 0 0 -0.332031,0.884766 c 2.154466,1.844715 3.718046,3.915089 4.515625,5.871093 0.79758,1.956005 0.835001,3.762538 0.0293,5.205078 -0.795441,1.424163 -2.324563,2.334424 -4.369141,2.691407 -1.947263,0.339991 -4.342029,0.15249 -6.863281,-0.578125 V 44 c 0,-3.878 -3.122,-7 -7,-7 -1.686044,0 -3.227803,0.590337 -4.433593,1.576172 -2.357899,-3.014272 -3.127462,-6.123358 -1.900391,-8.320313 0.428143,-0.766549 1.061579,-1.377706 1.880859,-1.841797 a 0.50005,0.50005 0 0 0 -0.269531,-0.9375 z M 27.613281,28 c -2.216,0 -4,1.784 -4,4 0,2.216 1.784,4 4,4 2.216,0 4,-1.784 4,-4 0,-2.216 -1.784,-4 -4,-4 z m 0,1 c 1.662,0 3,1.338 3,3 0,1.662 -1.338,3 -3,3 -1.662,0 -3,-1.338 -3,-3 0,-1.662 1.338,-3 3,-3 z m 9,0 c -1.662,0 -3,1.338 -3,3 0,1.662 1.338,3 3,3 1.662,0 3,-1.338 3,-3 0,-1.662 -1.338,-3 -3,-3 z m 0,1 c 1.108,0 2,0.892 2,2 0,1.108 -0.892,2 -2,2 -1.108,0 -2,-0.892 -2,-2 0,-1.108 0.892,-2 2,-2 z m 0,6 c -1.108,0 -2.107078,0.446942 -2.830078,1.169922 l 0.707031,0.707031 C 35.032234,37.334953 35.782281,37 36.613281,37 c 1.662,0 3,1.338 3,3 v 3 h -3 v 1 h 4 v -4 c 0,-2.216 -1.784,-4 -4,-4 z m -9,2 c 3.324,0 6,2.676 6,6 v 2.259766 a 0.50005,0.50005 0 0 0 0,0.388672 V 47 h -12 v -3 c 0,-3.324 2.676,-6 6,-6 z"
     id="path21" />
</svg>
