<?xml version="1.0" encoding="UTF-8" standalone="no"?>
<svg
   xmlns:dc="http://purl.org/dc/elements/1.1/"
   xmlns:cc="http://creativecommons.org/ns#"
   xmlns:rdf="http://www.w3.org/1999/02/22-rdf-syntax-ns#"
   xmlns:svg="http://www.w3.org/2000/svg"
   xmlns="http://www.w3.org/2000/svg"
   xmlns:sodipodi="http://sodipodi.sourceforge.net/DTD/sodipodi-0.dtd"
   xmlns:inkscape="http://www.inkscape.org/namespaces/inkscape"
   id="theFolder"
   height="64"
   width="64"
   version="1.1"
   sodipodi:docname="network-server.svg"
   inkscape:version="0.92.2 5c3e80d, 2017-08-06">
  <metadata
     id="metadata26">
    <rdf:RDF>
      <cc:Work
         rdf:about="">
        <dc:format>image/svg+xml</dc:format>
        <dc:type
           rdf:resource="http://purl.org/dc/dcmitype/StillImage" />
        <dc:title></dc:title>
      </cc:Work>
    </rdf:RDF>
  </metadata>
  <sodipodi:namedview
     pagecolor="#ffffff"
     bordercolor="#666666"
     borderopacity="1"
     objecttolerance="10"
     gridtolerance="10"
     guidetolerance="10"
     inkscape:pageopacity="0"
     inkscape:pageshadow="2"
     inkscape:window-width="1366"
     inkscape:window-height="748"
     id="namedview24"
     showgrid="true"
     inkscape:zoom="5.2149125"
     inkscape:cx="34.657411"
     inkscape:cy="35.394255"
     inkscape:window-x="0"
     inkscape:window-y="20"
     inkscape:window-maximized="1"
     inkscape:current-layer="theFolder"
     showguides="false"
     inkscape:guide-bbox="true">
    <inkscape:grid
       type="xygrid"
       id="grid825" />
    <sodipodi:guide
       position="32,28"
       orientation="1,0"
       id="guide982"
       inkscape:locked="false"
       inkscape:label=""
       inkscape:color="rgb(0,0,255)" />
    <sodipodi:guide
       position="16,28"
       orientation="1,0"
       id="guide984"
       inkscape:locked="false"
       inkscape:label=""
       inkscape:color="rgb(0,0,255)" />
    <sodipodi:guide
       position="48,28"
       orientation="1,0"
       id="guide986"
       inkscape:locked="false"
       inkscape:label=""
       inkscape:color="rgb(0,0,255)" />
  </sodipodi:namedview>
  <defs
     id="folderDefs">
    <linearGradient
       id="folderGradient"
       x1="416.57"
       gradientUnits="userSpaceOnUse"
       y1="515.8"
       gradientTransform="translate(-384.57,-483.8)"
       x2="416.57"
       y2="553.46">
      <stop
         stop-color="#9ac5f1"
         offset="0"
         id="stop2" />
      <stop
         stop-color="#77abea"
         offset="1"
         id="stop4" />
    </linearGradient>
  </defs>
  <g
     id="originalFolder">
    <path
       d="m 5,12 c -1.1046,0 -2,0.89542 -2,2 v 6 h 19 l 4,-4 h 5 L 27,12 H 10 Z"
       id="path8"
       inkscape:connector-curvature="0"
       style="fill:#8bb9e8" />
    <path
       d="m 26,16 -4,4 H 3 c 0,-1.2e-4 10e-4,26.061 0,38 H 61 V 18 a 2,2 0 0 0 -2,-2 z"
       id="path10"
       inkscape:connector-curvature="0"
       style="fill:url(#folderGradient)" />
    <g
       id="g18">
      <path
         d="m 5,12 c -1.1046,0 -2,0.89543 -2,2 v 1 c -2.3e-6,1.7724 0,5 0,5 h 1 v -6 a 1,1 0 0 1 1,-1 h 21.486 l 3.0215,3 h 1.492 l -4,-4 h -17 z"
         id="path12"
         inkscape:connector-curvature="0"
         style="fill:#7ca3d5" />
      <path
         d="m 26,16 -4,4 H 3 c 0,-1.2e-4 10e-4,26.061 0,38 H 61 V 18 c 0,-1.1046 -0.89543,-2 -2,-2 z m 0.52539,1 h 32.475 a 1,1 0 0 1 1,1 v 39 h -56 V 21 h 18.514 z"
         id="path14"
         inkscape:connector-curvature="0"
         style="fill:#7ca3d5" />
      <path
         d="m 4,21 h 18.514 l 3.4856,-5 -5,4 z"
         id="path16"
         inkscape:connector-curvature="0"
         style="fill:#648bbe;fill-opacity:1" />
      <path
         d="m 26.525,17 -4.0117,4 H 4.0003 v 1 h 19 l 4,-4 h 33 c 0,-0.55228 -0.44772,-1 -1,-1 z"
         id="path20"
         inkscape:connector-curvature="0"
         style="fill:#ffffff;fill-opacity:0.23529412" />
    </g>
  </g>
  <path
     style="opacity:1;vector-effect:none;fill:#7ca3d5;fill-opacity:1;fill-rule:nonzero;stroke:none;stroke-width:4.47213602;stroke-linecap:round;stroke-linejoin:round;stroke-miterlimit:1.41421402;stroke-dasharray:none;stroke-dashoffset:0;stroke-opacity:1;paint-order:normal"
     d="M 23 27 C 22.446 27 22 27.446 22 28 L 22 33 C 22 33.554 22.446 34 23 34 L 41 34 C 41.554 34 42 33.554 42 33 L 42 28 C 42 27.446 41.554 27 41 27 L 23 27 z M 23 28 L 41 28 L 41 33 L 23 33 L 23 28 z M 24.5 29 C 24.223 29 24 29.223 24 29.5 L 24 31.5 C 24 31.777 24.223 32 24.5 32 C 24.777 32 25 31.777 25 31.5 L 25 29.5 C 25 29.223 24.777 29 24.5 29 z M 26.5 29 C 26.223 29 26 29.223 26 29.5 L 26 31.5 C 26 31.777 26.223 32 26.5 32 C 26.777 32 27 31.777 27 31.5 L 27 29.5 C 27 29.223 26.777 29 26.5 29 z M 28.5 29 C 28.223 29 28 29.223 28 29.5 L 28 31.5 C 28 31.777 28.223 32 28.5 32 C 28.777 32 29 31.777 29 31.5 L 29 29.5 C 29 29.223 28.777 29 28.5 29 z M 35.5 29 C 35.223 29 35 29.223 35 29.5 C 35 29.777 35.223 30 35.5 30 C 35.777 30 36 29.777 36 29.5 C 36 29.223 35.777 29 35.5 29 z M 37.5 29 C 37.223 29 37 29.223 37 29.5 C 37 29.777 37.223 30 37.5 30 C 37.777 30 38 29.777 38 29.5 C 38 29.223 37.777 29 37.5 29 z M 39.5 29 C 39.223 29 39 29.223 39 29.5 C 39 29.777 39.223 30 39.5 30 C 39.777 30 40 29.777 40 29.5 C 40 29.223 39.777 29 39.5 29 z M 23 35 C 22.446 35 22 35.446 22 36 L 22 41 C 22 41.554 22.446 42 23 42 L 41 42 C 41.554 42 42 41.554 42 41 L 42 36 C 42 35.446 41.554 35 41 35 L 23 35 z M 23 36 L 41 36 L 41 41 L 23 41 L 23 36 z M 24.5 37 C 24.223 37 24 37.223 24 37.5 L 24 39.5 C 24 39.777 24.223 40 24.5 40 C 24.777 40 25 39.777 25 39.5 L 25 37.5 C 25 37.223 24.777 37 24.5 37 z M 26.5 37 C 26.223 37 26 37.223 26 37.5 L 26 39.5 C 26 39.777 26.223 40 26.5 40 C 26.777 40 27 39.777 27 39.5 L 27 37.5 C 27 37.223 26.777 37 26.5 37 z M 28.5 37 C 28.223 37 28 37.223 28 37.5 L 28 39.5 C 28 39.777 28.223 40 28.5 40 C 28.777 40 29 39.777 29 39.5 L 29 37.5 C 29 37.223 28.777 37 28.5 37 z M 35.5 37 C 35.223 37 35 37.223 35 37.5 C 35 37.777 35.223 38 35.5 38 C 35.777 38 36 37.777 36 37.5 C 36 37.223 35.777 37 35.5 37 z M 37.5 37 C 37.223 37 37 37.223 37 37.5 C 37 37.777 37.223 38 37.5 38 C 37.777 38 38 37.777 38 37.5 C 38 37.223 37.777 37 37.5 37 z M 39.5 37 C 39.223 37 39 37.223 39 37.5 C 39 37.777 39.223 38 39.5 38 C 39.777 38 40 37.777 40 37.5 C 40 37.223 39.777 37 39.5 37 z M 23 43 C 22.446 43 22 43.446 22 44 L 22 49 C 22 49.554 22.446 50 23 50 L 41 50 C 41.554 50 42 49.554 42 49 L 42 44 C 42 43.446 41.554 43 41 43 L 23 43 z M 23 44 L 41 44 L 41 49 L 23 49 L 23 44 z M 24.5 45 C 24.223 45 24 45.223 24 45.5 L 24 47.5 C 24 47.777 24.223 48 24.5 48 C 24.777 48 25 47.777 25 47.5 L 25 45.5 C 25 45.223 24.777 45 24.5 45 z M 26.5 45 C 26.223 45 26 45.223 26 45.5 L 26 47.5 C 26 47.777 26.223 48 26.5 48 C 26.777 48 27 47.777 27 47.5 L 27 45.5 C 27 45.223 26.777 45 26.5 45 z M 28.5 45 C 28.223 45 28 45.223 28 45.5 L 28 47.5 C 28 47.777 28.223 48 28.5 48 C 28.777 48 29 47.777 29 47.5 L 29 45.5 C 29 45.223 28.777 45 28.5 45 z M 35.5 45 C 35.223 45 35 45.223 35 45.5 C 35 45.777 35.223 46 35.5 46 C 35.777 46 36 45.777 36 45.5 C 36 45.223 35.777 45 35.5 45 z M 37.5 45 C 37.223 45 37 45.223 37 45.5 C 37 45.777 37.223 46 37.5 46 C 37.777 46 38 45.777 38 45.5 C 38 45.223 37.777 45 37.5 45 z M 39.5 45 C 39.223 45 39 45.223 39 45.5 C 39 45.777 39.223 46 39.5 46 C 39.777 46 40 45.777 40 45.5 C 40 45.223 39.777 45 39.5 45 z "
     id="rect938" />
</svg>
