<svg xmlns="http://www.w3.org/2000/svg" xmlns:xlink="http://www.w3.org/1999/xlink" width="48" height="48">
  <defs id="acyl-settings">
    <linearGradient id="acyl-gradient" x1="0%" x2="0%" y1="0%" y2="100%">
      <stop offset="100%" style="stop-color:#A0A0A0;stop-opacity:1.000000"/>
    </linearGradient>
    <g id="acyl-filter">
  </g>
    <g id="acyl-drawing">
      <path d="m 46,2.5788023 -16.619565,9.5652177 -0.05978,-3.19837 -11.836956,6.845109 0.05978,3.198369 -2.361413,1.375 0,0.478261 -0.6875,-0.747282 -0.23913,-0.298913 -0.328805,0.179347 -11.1494561,6.366848 -0.5081522,0.298913 0.388587,0.44837 1.763587,1.883152 L 2.5679348,30.01902 2,30.347824 2.4483696,30.766302 14.793478,43.051628 15.0625,43.32065 l 0.119565,-0.05978 0,0.23913 L 46,25.714672 46,2.5788023 z m -31.923913,18.4429347 1.105978,1.225544 0,19.847826 L 3.5842391,30.557063 5.4076087,29.480976 5.9157609,29.182063 5.5271739,28.733694 3.7934783,26.880433 14.076087,21.021737 z" id="path-main"/>
    </g>
  </defs>
  <g id="acyl-visual">
    <use id="visible1" style="fill:url(#acyl-gradient)" xlink:href="#acyl-drawing"/>
  </g>
</svg>
