<?xml version="1.0" encoding="UTF-8" standalone="no"?>
<svg
   xmlns:dc="http://purl.org/dc/elements/1.1/"
   xmlns:cc="http://creativecommons.org/ns#"
   xmlns:rdf="http://www.w3.org/1999/02/22-rdf-syntax-ns#"
   xmlns:svg="http://www.w3.org/2000/svg"
   xmlns="http://www.w3.org/2000/svg"
   xmlns:xlink="http://www.w3.org/1999/xlink"
   xmlns:sodipodi="http://sodipodi.sourceforge.net/DTD/sodipodi-0.dtd"
   xmlns:inkscape="http://www.inkscape.org/namespaces/inkscape"
   height="64"
   width="64"
   version="1.1"
   id="svg47"
   sodipodi:docname="drive-harddisk-root.svg"
   inkscape:version="0.92.4 (5da689c313, 2019-01-14)">
  <metadata
     id="metadata51">
    <rdf:RDF>
      <cc:Work
         rdf:about="">
        <dc:format>image/svg+xml</dc:format>
        <dc:type
           rdf:resource="http://purl.org/dc/dcmitype/StillImage" />
        <dc:title></dc:title>
      </cc:Work>
    </rdf:RDF>
  </metadata>
  <sodipodi:namedview
     pagecolor="#ffffff"
     bordercolor="#666666"
     borderopacity="1"
     objecttolerance="10"
     gridtolerance="10"
     guidetolerance="10"
     inkscape:pageopacity="0"
     inkscape:pageshadow="2"
     inkscape:window-width="1066"
     inkscape:window-height="480"
     id="namedview49"
     showgrid="false"
     inkscape:zoom="3.6875"
     inkscape:cx="4.3389831"
     inkscape:cy="32"
     inkscape:window-x="0"
     inkscape:window-y="25"
     inkscape:window-maximized="0"
     inkscape:current-layer="svg47" />
  <defs
     id="defs7">
    <linearGradient
       id="b"
       gradientUnits="userSpaceOnUse"
       x1="386.571"
       x2="386.571"
       y1="549.798"
       y2="497.798"
       gradientTransform="translate(-376.571,-491.798)">
      <stop
         offset="0"
         stop-color="#7f8c8d"
         id="stop2" />
      <stop
         offset="1"
         stop-color="#afb0b3"
         id="stop4" />
    </linearGradient>
    <linearGradient
       inkscape:collect="always"
       xlink:href="#a"
       id="linearGradient858"
       gradientUnits="userSpaceOnUse"
       x1="400.571"
       y1="511.798"
       x2="420.571"
       y2="531.798"
       gradientTransform="translate(-376.571,-491.798)" />
    <linearGradient
       inkscape:collect="always"
       xlink:href="#a"
       id="linearGradient860"
       gradientUnits="userSpaceOnUse"
       x1="16"
       y1="16"
       x2="44"
       y2="44" />
  </defs>
  <linearGradient
     id="e"
     gradientUnits="userSpaceOnUse"
     x1="20"
     x2="20"
     y1="40"
     y2="16">
    <stop
       offset="0"
       stop-color="#3e3e3e"
       id="stop9" />
    <stop
       offset="1"
       stop-color="#5c5c5c"
       id="stop11" />
  </linearGradient>
  <linearGradient
     id="d"
     gradientUnits="userSpaceOnUse"
     x1="16"
     x2="44"
     xlink:href="#a"
     y1="16"
     y2="44" />
  <linearGradient
     id="c"
     gradientUnits="userSpaceOnUse"
     x1="12"
     x2="12"
     y1="48"
     y2="10">
    <stop
       offset="0"
       stop-color="#eef1f2"
       id="stop15" />
    <stop
       offset="1"
       stop-color="#f9fafb"
       id="stop17" />
  </linearGradient>
  <linearGradient
     id="a"
     gradientUnits="userSpaceOnUse"
     x1="400.571"
     x2="420.571"
     y1="511.798"
     y2="531.798">
    <stop
       offset="0"
       stop-color="#292c2f"
       id="stop20" />
    <stop
       offset="1"
       stop-opacity="0"
       id="stop22" />
  </linearGradient>
  <path
     d="M 20.596,6 A 10.573,10.573 0 0 0 10,16.596 V 58 H 54 V 16.596 C 54,10.726 49.274,6 43.404,6 Z"
     id="path25"
     style="fill:url(#b)"
     inkscape:connector-curvature="0" />
  <path
     d="m 47,52 h 7 v 6 h -7 z m -37,0 h 7 v 6 h -7 z"
     id="path27"
     inkscape:connector-curvature="0"
     style="opacity:0.2;fill:#292c2f" />
  <path
     d="m 10,52 h 7 v 6 h -1 z m 37,0 h 7 v 6 h -7 z"
     id="path29"
     inkscape:connector-curvature="0"
     style="opacity:0.2;fill:#292c2f" />
  <path
     d="m 16,52 h 32 v 6 H 16 Z"
     id="path31"
     inkscape:connector-curvature="0"
     style="fill:#292c2e" />
  <path
     d="m 20,54 h 14 v 2 H 20 Z m 16,0 h 8 v 2 h -8 z"
     id="path33"
     inkscape:connector-curvature="0"
     style="fill:#f6b44d" />
  <path
     d="M 14,42 30,58 H 54 V 19.272 l -6.636,-6.636 z"
     id="path35"
     style="opacity:0.2;fill:url(#linearGradient858)"
     inkscape:connector-curvature="0" />
  <path
     d="m 23,10 a 9,9 0 0 0 -9,9 v 8.535 A 6,6 0 0 1 16,32 6,6 0 0 1 14,36.463 V 42 l 6,6 h 24 l 6,-6 V 36.465 A 6,6 0 0 1 48,32 6,6 0 0 1 50,27.537 V 19 a 9,9 0 0 0 -9,-9 z"
     id="path37"
     style="fill:url(#c)"
     inkscape:connector-curvature="0" />
  <path
     d="m 10,57 h 44 v 1 H 10 Z"
     id="path39"
     inkscape:connector-curvature="0"
     style="opacity:0.4;fill:#292c2f" />
  <path
     d="M 36,16 20,40 32,52 H 44 L 32,40 44,38 50,44 V 30 Z"
     id="path41"
     style="opacity:0.2;fill:url(#linearGradient860)"
     inkscape:connector-curvature="0" />
  <path
     d="m 32,40 12,12 h 6 v -8 l -6,-6 z"
     id="path43"
     style="fill:url(#d)"
     inkscape:connector-curvature="0" />
  <path
     d="m 32,38 h 12 v 2 H 32 Z M 32,16 20,40 h 4 L 36,16 Z"
     id="path45"
     style="fill:url(#e)"
     inkscape:connector-curvature="0" />
</svg>
