<?xml version="1.0" encoding="UTF-8" standalone="no"?>
<svg
   xmlns:dc="http://purl.org/dc/elements/1.1/"
   xmlns:cc="http://creativecommons.org/ns#"
   xmlns:rdf="http://www.w3.org/1999/02/22-rdf-syntax-ns#"
   xmlns:svg="http://www.w3.org/2000/svg"
   xmlns="http://www.w3.org/2000/svg"
   xmlns:xlink="http://www.w3.org/1999/xlink"
   xmlns:sodipodi="http://sodipodi.sourceforge.net/DTD/sodipodi-0.dtd"
   xmlns:inkscape="http://www.inkscape.org/namespaces/inkscape"
   height="64"
   width="64"
   version="1.1"
   id="svg46"
   sodipodi:docname="drive-multidisk.svg"
   inkscape:version="0.92.4 (5da689c313, 2019-01-14)">
  <metadata
     id="metadata52">
    <rdf:RDF>
      <cc:Work
         rdf:about="">
        <dc:format>image/svg+xml</dc:format>
        <dc:type
           rdf:resource="http://purl.org/dc/dcmitype/StillImage" />
        <dc:title></dc:title>
      </cc:Work>
    </rdf:RDF>
  </metadata>
  <defs
     id="defs50" />
  <sodipodi:namedview
     pagecolor="#ffffff"
     bordercolor="#666666"
     borderopacity="1"
     objecttolerance="10"
     gridtolerance="10"
     guidetolerance="10"
     inkscape:pageopacity="0"
     inkscape:pageshadow="2"
     inkscape:window-width="1066"
     inkscape:window-height="480"
     id="namedview48"
     showgrid="false"
     inkscape:zoom="3.6875"
     inkscape:cx="4.3389831"
     inkscape:cy="32"
     inkscape:window-x="0"
     inkscape:window-y="25"
     inkscape:window-maximized="0"
     inkscape:current-layer="svg46" />
  <linearGradient
     id="c"
     gradientUnits="userSpaceOnUse"
     x1="10"
     x2="10"
     xlink:href="#a"
     y1="50"
     y2="6" />
  <linearGradient
     id="d"
     gradientUnits="userSpaceOnUse"
     x1="10"
     x2="10"
     xlink:href="#a"
     y1="42"
     y2="6" />
  <linearGradient
     id="b"
     gradientUnits="userSpaceOnUse"
     x1="386.571"
     x2="386.571"
     xlink:href="#a"
     y1="549.798"
     y2="497.798"
     gradientTransform="translate(-376.571,-491.798)" />
  <linearGradient
     id="f"
     gradientUnits="userSpaceOnUse"
     x1="14"
     x2="14"
     y1="35"
     y2="7">
    <stop
       offset="0"
       stop-color="#edf1f3"
       id="stop5" />
    <stop
       offset="1"
       stop-color="#f9fafb"
       id="stop7" />
  </linearGradient>
  <linearGradient
     id="a"
     gradientUnits="userSpaceOnUse"
     x1="386.571"
     x2="386.571"
     y1="549.798"
     y2="497.798">
    <stop
       offset="0"
       stop-color="#7f8c8d"
       id="stop10" />
    <stop
       offset="1"
       stop-color="#afb0b3"
       id="stop12" />
  </linearGradient>
  <linearGradient
     id="e"
     gradientUnits="userSpaceOnUse"
     x1="24"
     x2="42"
     y1="18"
     y2="36">
    <stop
       offset="0"
       stop-color="#292c2f"
       id="stop15" />
    <stop
       offset="1"
       stop-opacity="0"
       id="stop17" />
  </linearGradient>
  <path
     d="M 16.736,6 A 6.722,6.722 0 0 0 10,12.736 V 58 H 54 V 12.736 A 6.722,6.722 0 0 0 47.264,6 Z"
     id="path20"
     style="fill:url(#b)"
     inkscape:connector-curvature="0" />
  <path
     d="m 10,57 h 44 v 1 H 10 Z"
     id="path22"
     inkscape:connector-curvature="0"
     style="opacity:0.4;fill:#292c2f" />
  <path
     d="m 10,44 v 6 h 44 v -6 z"
     id="path24"
     style="fill:url(#c)"
     inkscape:connector-curvature="0" />
  <path
     d="m 10,36 v 6 h 44 v -6 z"
     id="path26"
     style="fill:url(#d)"
     inkscape:connector-curvature="0" />
  <path
     d="m 47,36 h 7 v 6 h -7 z m -37,0 h 7 v 6 h -7 z m 37,8 h 7 v 6 h -7 z m -37,0 h 7 v 6 h -7 z m 37,8 h 7 v 6 h -7 z m -37,0 h 7 v 6 h -7 z"
     id="path28"
     inkscape:connector-curvature="0"
     style="opacity:0.2;fill:#292c2f" />
  <g
     id="g36"
     style="stroke-width:1.85699999">
    <path
       d="m 10,36 h 7 v 6 h -1 z m 37,0 h 7 v 6 h -7 z m -37,8 h 7 v 6 h -1 z m 37,0 h 7 v 6 h -7 z m -37,8 h 7 v 6 h -1 z m 37,0 h 7 v 6 h -7 z"
       id="path30"
       inkscape:connector-curvature="0"
       style="opacity:0.2;fill:#292c2f" />
    <path
       d="m 16,36 h 32 v 6 H 16 Z m 0,8 h 32 v 6 H 16 Z m 0,8 h 32 v 6 H 16 Z"
       id="path32"
       inkscape:connector-curvature="0"
       style="fill:#292c2e" />
    <path
       d="m 20,38 h 14 v 2 H 20 Z m 16,0 h 8 v 2 h -8 z m -16,8 h 14 v 2 H 20 Z m 16,0 h 8 v 2 h -8 z m -16,8 h 14 v 2 H 20 Z m 16,0 h 8 v 2 h -8 z"
       id="path34"
       inkscape:connector-curvature="0"
       style="fill:#f6b44d" />
  </g>
  <path
     d="m 11,42 h 42 v 2 H 11 Z m 0,8 h 42 v 2 H 11 Z"
     id="path38"
     inkscape:connector-curvature="0"
     style="opacity:0.6;fill:#252c33" />
  <path
     d="m 14,30 6,6 H 54 V 15.519 L 48.481,10 Z"
     id="path40"
     style="opacity:0.2;fill:url(#e)"
     inkscape:connector-curvature="0" />
  <path
     d="m 20,8 a 6,6 0 0 0 -6,6 v 4.541 A 4,4 0 0 1 16,22 4,4 0 0 1 14,25.459 V 30 l 4,4 h 28 l 4,-4 V 25.459 A 4,4 0 0 1 48,22 4,4 0 0 1 50,18.541 V 14 A 6,6 0 0 0 44,8 Z"
     id="path42"
     style="fill:url(#f)"
     inkscape:connector-curvature="0" />
  <path
     d="m 11,42 h 4 v 2 h -4 z m 38,0 h 4 v 2 h -4 z m 0,8 h 4 v 2 h -4 z m -38,0 h 4 v 2 h -4 z"
     id="path44"
     inkscape:connector-curvature="0"
     style="fill:#232629" />
</svg>
