<svg xmlns="http://www.w3.org/2000/svg" viewBox="0 0 16 16">
  <style
     type="text/css"
     id="current-color-scheme">
        .ColorScheme-Text {
            color:#eff0f1;
        }
    </style>
  <path
     style="fill:currentColor;fill-opacity:1"
     d="M 6 2 C 4.338 2 3 3.338 3 5 L 3 8 L 3 11 L 3 14 L 6 14 L 10 14 L 13 14 L 13 11 L 13 8 L 13 5 C 13 3.338 11.662 2 10 2 L 6 2 z M 6 3 L 10 3 A 2 2 0 0 1 11.748047 4.0332031 A 1 1 0 0 0 12 6 L 11 7 L 5 7 L 4 6 A 1 1 0 0 0 4.25 4.0332031 A 2 2 0 0 1 6 3 z M 4 8 L 8 8 L 8 9 L 4 9 L 4 8 z M 10 8 L 12 8 L 12 9 L 10 9 L 10 8 z M 4 10 L 8 10 L 8 11 L 4 11 L 4 10 z M 10 10 L 12 10 L 12 11 L 10 11 L 10 10 z M 4 12 L 8 12 L 8 13 L 4 13 L 4 12 z M 10 12 L 12 12 L 12 13 L 10 13 L 10 12 z "
     class="ColorScheme-Text"/>
</svg>
