<svg xmlns="http://www.w3.org/2000/svg" xmlns:xlink="http://www.w3.org/1999/xlink" width="48" height="48">
  <defs id="acyl-settings">
    <linearGradient id="acyl-gradient" x1="0%" x2="0%" y1="0%" y2="100%">
      <stop offset="100%" style="stop-color:#A0A0A0;stop-opacity:1.000000"/>
    </linearGradient>
    <g id="acyl-filter">
  </g>
    <g id="acyl-drawing">
      <path id="path-main" d="M 13.09375 4.59375 C 12.693018 4.59375 12.40625 4.8950423 12.40625 5.28125 L 12.40625 41.90625 C 12.40625 42.292462 12.693018 42.59375 13.09375 42.59375 L 23.875 42.59375 L 36.40625 30.78125 L 36.40625 16.78125 L 23.5 4.59375 L 13.09375 4.59375 z M 25.53125 4.59375 L 36.40625 14.84375 L 36.40625 5.28125 C 36.40625 4.8950423 36.056977 4.59375 35.65625 4.59375 L 25.53125 4.59375 z M 24.5625 13.8125 C 26.581258 13.801517 28.594577 13.834637 28.6875 13.96875 C 28.873346 14.236975 27.75 23.4375 27.75 23.4375 C 27.75 23.4375 32.901397 22.487708 33.125 22.875 C 33.348603 23.262292 25.627691 35.39665 24.5625 35.40625 C 23.49731 35.415898 15.397118 23.282547 15.65625 22.875 C 15.908374 22.478475 21.34375 23.34375 21.34375 23.34375 C 21.34375 23.34375 20.324584 14.149115 20.46875 13.96875 C 20.540833 13.878567 22.543742 13.823483 24.5625 13.8125 z M 36.40625 32.6875 L 25.90625 42.59375 L 35.65625 42.59375 C 36.056987 42.59375 36.40625 42.292462 36.40625 41.90625 L 36.40625 32.6875 z "/>
    </g>
  </defs>
  <g id="acyl-visual">
    <use id="visible1" style="fill:url(#acyl-gradient)" xlink:href="#acyl-drawing"/>
  </g>
</svg>
