<svg xmlns="http://www.w3.org/2000/svg" xmlns:xlink="http://www.w3.org/1999/xlink" width="48" height="48">
  <defs id="acyl-settings">
    <linearGradient id="acyl-gradient" x1="0%" x2="0%" y1="0%" y2="100%">
      <stop offset="100%" style="stop-color:#A0A0A0;stop-opacity:1.000000"/>
    </linearGradient>
    <g id="acyl-filter">
  </g>
    <g id="acyl-drawing">
      <path id="path-main" d="M 13.09375 4.59375 C 12.693018 4.59375 12.40625 4.8950423 12.40625 5.28125 L 12.40625 41.90625 C 12.40625 42.292462 12.693018 42.59375 13.09375 42.59375 L 23.875 42.59375 L 36.40625 30.78125 L 36.40625 16.78125 L 23.5 4.59375 L 13.09375 4.59375 z M 25.53125 4.59375 L 36.40625 14.84375 L 36.40625 5.28125 C 36.40625 4.8950423 36.056977 4.59375 35.65625 4.59375 L 25.53125 4.59375 z M 30.9375 16.09375 L 33.09375 18.28125 L 30.9375 20.1875 L 30.09375 20.28125 L 26.15625 24.28125 L 31.46875 29.59375 C 31.862844 29.989876 31.862844 30.635125 31.46875 31.03125 L 30.6875 31.8125 C 30.293407 32.208625 29.675344 32.208624 29.28125 31.8125 L 23.96875 26.46875 L 23.21875 27.1875 C 23.718927 27.970309 23.766315 28.890317 23.25 29.40625 L 19.9375 32.71875 C 19.305512 33.350273 18.08372 33.176833 17.21875 32.3125 L 16.90625 31.96875 C 16.04128 31.104418 15.836762 29.912773 16.46875 29.28125 L 19.8125 25.96875 C 20.350402 25.431248 21.288575 25.469814 22.09375 26.03125 L 22.8125 25.3125 L 20.8125 23.3125 C 19.920159 23.956953 18.773086 23.777231 17.96875 22.96875 L 16.78125 21.78125 C 15.896557 20.891998 15.885962 19.464271 16.75 18.5625 C 17.509675 19.375152 18.315359 20.140927 19.09375 20.9375 L 20.03125 20.9375 L 20.65625 20.3125 L 20.65625 19.375 L 18.28125 17 C 19.178397 16.13151 20.615309 16.173248 21.5 17.0625 L 22.65625 18.21875 C 23.460585 19.027232 23.641148 20.19681 23 21.09375 L 25 23.09375 L 28.90625 19.15625 L 29.1875 18.125 L 30.9375 16.09375 z M 36.40625 32.6875 L 25.90625 42.59375 L 35.65625 42.59375 C 36.056987 42.59375 36.40625 42.292462 36.40625 41.90625 L 36.40625 32.6875 z "/>
    </g>
  </defs>
  <g id="acyl-visual">
    <use id="visible1" style="fill:url(#acyl-gradient)" xlink:href="#acyl-drawing"/>
  </g>
</svg>
