<svg xmlns="http://www.w3.org/2000/svg" xmlns:xlink="http://www.w3.org/1999/xlink" width="48" height="48">
  <defs id="acyl-settings">
    <linearGradient id="acyl-gradient" x1="0%" x2="0%" y1="0%" y2="100%">
      <stop offset="100%" style="stop-color:#A0A0A0;stop-opacity:1.000000"/>
    </linearGradient>
    <g id="acyl-filter">
  </g>
    <g id="acyl-drawing">
      <path id="path-main" d="M 13.09375 4.59375 C 12.693018 4.59375 12.40625 4.8950423 12.40625 5.28125 L 12.40625 41.90625 C 12.40625 42.292462 12.693018 42.59375 13.09375 42.59375 L 23.875 42.59375 L 36.40625 30.78125 L 36.40625 16.78125 L 23.5 4.59375 L 13.09375 4.59375 z M 25.53125 4.59375 L 36.40625 14.84375 L 36.40625 5.28125 C 36.40625 4.8950423 36.056977 4.59375 35.65625 4.59375 L 25.53125 4.59375 z M 20.25 11.21875 C 20.627139 11.155946 21.098465 11.33266 21.25 11.8125 C 21.553069 12.772181 21.25 13.8875 26.25 15.6875 C 31.25 17.4875 31.345352 24.28534 28.9375 28.09375 C 31.866757 18.85322 23.917629 15.96786 22.90625 16.8125 L 27.28125 30.28125 C 28.42701 33.778604 25.05497 35.1875 22.84375 35.1875 C 20.63253 35.1875 18.0285 34.204853 17.9375 31.8125 C 17.846502 29.420147 21.904035 27.859056 24.9375 28.625 L 19.75 12.09375 C 19.589911 11.583875 19.872861 11.281554 20.25 11.21875 z M 36.40625 32.6875 L 25.90625 42.59375 L 35.65625 42.59375 C 36.056987 42.59375 36.40625 42.292462 36.40625 41.90625 L 36.40625 32.6875 z "/>
    </g>
  </defs>
  <g id="acyl-visual">
    <use id="visible1" style="fill:url(#acyl-gradient)" xlink:href="#acyl-drawing"/>
  </g>
</svg>
