<svg xmlns="http://www.w3.org/2000/svg" xmlns:xlink="http://www.w3.org/1999/xlink" width="48" height="48">
  <defs id="acyl-settings">
    <linearGradient id="acyl-gradient" x1="0%" x2="0%" y1="0%" y2="100%">
      <stop offset="100%" style="stop-color:#A0A0A0;stop-opacity:1.000000"/>
    </linearGradient>
    <g id="acyl-filter">
  </g>
    <g id="acyl-drawing">
      <path d="M 13.1074 4.59961 C 12.7067 4.59961 12.4004 4.90676 12.4004 5.29297 L 12.4004 41.9062 C 12.4004 42.2925 12.7067 42.5996 13.1074 42.5996 L 23.8613 42.5996 L 36.4004 30.7793 L 36.4004 16.7676 L 23.4941 4.59961 L 13.1074 4.59961 z M 25.5312 4.59961 L 36.4004 14.8477 L 36.4004 5.29297 C 36.4004 4.90676 36.0648 4.59961 35.6641 4.59961 L 25.5312 4.59961 z M 18.5 14.5508 L 20.1836 15.0098 L 20.2051 14.9902 L 20.2441 15.0293 L 24.4336 16.1738 L 24.0391 17.6191 L 22.3809 17.166 L 26.1426 20.9277 L 24.8887 22.1836 L 21.1211 18.416 L 21.5801 20.0762 L 20.1348 20.4746 L 18.9727 16.2656 L 18.9512 16.2441 L 18.9629 16.2305 L 18.5 14.5508 z M 27.9551 21.4492 C 28.609 21.4492 29.2632 21.6968 29.7578 22.1914 C 30.747 23.1807 30.747 24.8077 29.7578 25.7969 C 28.7685 26.7862 27.1436 26.7862 26.1543 25.7969 C 25.6597 25.3024 25.4102 24.6481 25.4102 23.9941 C 25.4102 23.3401 25.6597 22.6861 26.1543 22.1914 C 26.6489 21.6968 27.3012 21.4492 27.9551 21.4492 z M 27.9551 22.9395 C 27.6877 22.9395 27.421 23.0439 27.2129 23.252 C 27.0048 23.4601 26.9004 23.7271 26.9004 23.9941 C 26.9004 24.2612 27.0048 24.5263 27.2129 24.7344 C 27.6292 25.1505 28.283 25.1505 28.6992 24.7344 C 29.1155 24.3182 29.1155 23.6683 28.6992 23.252 C 28.4911 23.0439 28.2224 22.9395 27.9551 22.9395 z M 24.8887 25.8066 L 26.1445 27.0605 L 22.3789 30.8262 L 24.0371 30.3691 L 24.4355 31.8145 L 20.2285 32.9766 L 20.207 32.998 L 20.1934 32.9844 L 18.5137 33.4492 L 18.5117 33.4492 L 18.9727 31.7656 L 18.9512 31.7461 L 18.9902 31.707 L 20.1367 27.5156 L 21.582 27.9102 L 21.127 29.5684 L 24.8887 25.8066 z M 36.4004 32.6992 L 25.9004 42.5996 L 35.6641 42.5996 C 36.0648 42.5996 36.4004 42.2925 36.4004 41.9062 L 36.4004 32.6992 z " id="path-main"/>
    </g>
  </defs>
  <g id="acyl-visual">
    <use id="visible1" style="fill:url(#acyl-gradient)" xlink:href="#acyl-drawing"/>
  </g>
</svg>
