<svg xmlns="http://www.w3.org/2000/svg" xmlns:xlink="http://www.w3.org/1999/xlink" width="48" height="48">
  <defs id="acyl-settings">
    <linearGradient id="acyl-gradient" x1="0%" x2="0%" y1="0%" y2="100%">
      <stop offset="100%" style="stop-color:#A0A0A0;stop-opacity:1.000000"/>
    </linearGradient>
    <g id="acyl-filter">
  </g>
    <g id="acyl-drawing">
      <path id="path-main" d="M 13.09375 4.59375 C 12.693018 4.59375 12.40625 4.8950423 12.40625 5.28125 L 12.40625 41.90625 C 12.40625 42.292462 12.693018 42.59375 13.09375 42.59375 L 23.875 42.59375 L 36.40625 30.78125 L 36.40625 16.78125 L 23.5 4.59375 L 13.09375 4.59375 z M 25.53125 4.59375 L 36.40625 14.84375 L 36.40625 5.28125 C 36.40625 4.8950423 36.056977 4.59375 35.65625 4.59375 L 25.53125 4.59375 z M 24.1875 14.34375 C 25.159996 14.343168 26.275392 19.585102 27.0625 20.15625 C 27.849608 20.727398 33.198928 20.137781 33.5 21.0625 C 33.801072 21.987219 29.143714 24.668671 28.84375 25.59375 C 28.543786 26.518829 30.723924 31.42791 29.9375 32 C 29.151076 32.57209 25.191246 28.968168 24.21875 28.96875 C 23.246254 28.969332 19.255858 32.571148 18.46875 32 C 17.681642 31.428852 19.863572 26.549719 19.5625 25.625 C 19.261428 24.700281 14.606286 22.018829 14.90625 21.09375 C 15.206214 20.168671 20.557326 20.72834 21.34375 20.15625 C 22.130174 19.58416 23.215004 14.344332 24.1875 14.34375 z M 36.40625 32.6875 L 25.90625 42.59375 L 35.65625 42.59375 C 36.056987 42.59375 36.40625 42.292462 36.40625 41.90625 L 36.40625 32.6875 z "/>
    </g>
  </defs>
  <g id="acyl-visual">
    <use id="visible1" style="fill:url(#acyl-gradient)" xlink:href="#acyl-drawing"/>
  </g>
</svg>
