<svg xmlns="http://www.w3.org/2000/svg" width="16" height="16"><path d="M2.004 0A1.975 1.975 0 0 0 .586.586 2.008 2.008 0 0 0 0 2.004V14a2.002 2.002 0 0 0 4.004 0v-4H12v4c0 1.102.895 2 2 2s2-.898 2-2V2.004A1.999 1.999 0 0 0 14 0zm1.5 2.004h1c.277 0 .5.219.5.496V4H6.5c.281 0 .504.227.504.5v1a.497.497 0 0 1-.149.352.486.486 0 0 1-.355.144H5.004V7.5a.486.486 0 0 1-.145.355.486.486 0 0 1-.355.145h-1a.49.49 0 0 1-.356-.148.51.51 0 0 1-.144-.352V5.996h-1.5a.493.493 0 0 1-.5-.496v-1c0-.277.226-.5.5-.5h1.5V2.5c0-.133.055-.262.148-.355a.474.474 0 0 1 .352-.141zm7.996 0h1c.277 0 .504.219.504.496v1a.502.502 0 0 1-.504.5h-1a.5.5 0 0 1-.496-.5v-1c0-.277.223-.5.496-.5zM9.5 4h1c.281 0 .504.227.504.5v1a.497.497 0 0 1-.149.352.486.486 0 0 1-.355.144h-.996a.498.498 0 0 1-.5-.496v-1c0-.277.223-.5.5-.5zm4 0h1.004a.5.5 0 0 1 .496.5v1a.497.497 0 0 1-.496.496H13.5a.497.497 0 0 1-.496-.496v-1c0-.277.223-.5.496-.5zm-2 2h1c.277 0 .504.227.504.5v1a.506.506 0 0 1-.149.355A.486.486 0 0 1 12.5 8h-1a.481.481 0 0 1-.352-.148.478.478 0 0 1-.144-.352v-1c0-.273.223-.504.496-.504zm0 0" fill="#f5f5f5"/></svg>