<svg xmlns="http://www.w3.org/2000/svg" width="16" height="16"><path d="M14.18 0c-1.059-.035-2.055.984-2.703 1.441a10.762 10.762 0 0 0-2.758-.37c-.961-.008-1.922.117-2.852.37C5.004 1.035 4.152-.023 3.184.023c-.547 1.438-.2 2.497-.098 2.758-.645.727-.746 1.66-.746 2.797 0 3.992 2.062 4.887 4.308 5.149-.285.257-.46.718-.55 1.39-.578.27-1.692.992-2.594-.597 0 0-.145-1.16-1.16-1.235 0 0-2.203.07-1.285.719 0 0 1.265.129 1.726 1.332 0 0 .477 2.027 3.29 1.398 0 .23.062 2.235.062 2.235l5.58.031s.056-1.77.056-2.258c0-.969-.707-2.699-1.07-3.023 2.254-.254 4.461-1.14 4.461-5.14 0-1.141-.074-2.067-.719-2.798.102-.261.45-1.32-.101-2.758 0 0-.055-.015-.164-.023z" fill="#f5f5f5"/></svg>