<svg xmlns="http://www.w3.org/2000/svg" width="16" height="16"><g fill="#f5f5f5"><path d="M0 15.004V13l8-8 8 8v2.004L14 14 8 8l-6 6zm0 0"/><path d="M14.664 7.145a1 1 0 0 0-.957.71 5.989 5.989 0 0 1-4.562 4.032 5.983 5.983 0 0 1-5.739-2.028 1 1 0 0 0-1.738.278 1.01 1.01 0 0 0 .203 1.008 8.009 8.009 0 0 0 7.652 2.707 8.003 8.003 0 0 0 6.086-5.375.987.987 0 0 0-.129-.907.998.998 0 0 0-.816-.422zm0 0"/><path d="M8 1a4 4 0 0 0-4 4c0 2.21 1.793 4 4 3.996A3.998 3.998 0 1 0 8 1zm0 2c1.105.004 2 .898 2 2 0 1.105-.898 2-2 2a2.001 2.001 0 0 1-1.996-2.004A2.002 2.002 0 0 1 8 3zm0 0"/></g></svg>