<svg xmlns="http://www.w3.org/2000/svg" width="16" height="16"><g fill="#f5f5f5"><path d="M0 12c.008-.262.117-.516.3-.703L2.47 9.18c.23-.246.785-.293 1.008-.157.086 0 1.136.63 1.289.868.617.945-.34 1.828-1.172 1.543l-.352-.207-1.601 1.57c-.637.531-1.692.098-1.637-.793zM11.621.117c.383-.09.777-.117 1.168-.078l-1.36 2.305a.973.973 0 0 0 .355 1.348l.876.507a.997.997 0 0 0 .754.11.999.999 0 0 0 .606-.461l1.355-2.305c.227.316.395.672.5 1.047a3.472 3.472 0 0 1-2.496 4.234c-.383.09-.777.121-1.172.082l-.805 1.114L7.996 8s1.52-2.578 1.625-2.598a3.443 3.443 0 0 1-.5-1.054 3.496 3.496 0 0 1 .367-2.637 3.48 3.48 0 0 1 2.13-1.598zM3.598.72c-.223.05-.442.125-.649.219-.023.625.082 1.445-.16 1.656-.242.21-1.039.035-1.656-.031a3.71 3.71 0 0 0-.313.75c.48.394 1.14.835 1.157 1.156.015.32-.63.804-1.059 1.25.098.258.246.492.402.718.606-.125 1.364-.375 1.625-.187.266.188.266 1.008.34 1.625.254.074.512.105.781.125.282-.555.567-1.32.875-1.402.317-.094.961.453 1.497.777.214-.156.414-.332.593-.531-.254-.574-.718-1.293-.593-1.594.128-.3.976-.469 1.562-.688 0-.074.031-.144.031-.218 0-.192-.035-.38-.062-.563-.606-.16-1.469-.238-1.625-.531-.153-.285.246-1.059.437-1.656-.199-.18-.418-.336-.652-.469-.5.375-1.086.996-1.406.938-.317-.06-.664-.82-1-1.344-.04.008-.082-.008-.125 0zm.625 1.875a1.688 1.688 0 1 1-.001 3.376 1.688 1.688 0 0 1 0-3.376zm0 0"/><path d="M2.996 9h9.988l.008 6.063c0 .492-.472.937-.996.937H4.004c-.55 0-1-.445-1-.996zm0 0"/><path d="M15.96 11.977a1.065 1.065 0 0 0-.3-.704L13.496 9.16c-.234-.246-.785-.297-1.012-.16-.078 0-1.132.633-1.285.867-.62.945.34 1.828 1.172 1.543l.348-.21 1.601 1.573c.64.528 1.696.094 1.64-.796zm0 0"/></g></svg>