<svg xmlns="http://www.w3.org/2000/svg" width="16" height="16"><defs><filter id="a" color-interpolation-filters="sRGB"><feBlend in2="BackgroundImage" mode="multiply"/></filter></defs><g stroke-width="1.25"><path d="M3.553 0h9.29c.857 0 1.617.693 1.549 1.548l-1.033 12.904c-2.58 2.064-7.742 2.064-10.322 0L2.004 1.548C1.936.693 2.696-.001 3.553-.001z" fill="#898989" enable-background="new"/><path d="M3.553 0c-.857 0-1.617.693-1.549 1.548l1.033 12.904c2.58 2.064 7.742 2.064 10.322 0l1.033-12.904C14.46.693 13.7-.001 12.843-.001zm0 1.032h9.29c.286 0 .541.231.516.516l-1.032 11.871c-2.58 2.065-5.677 2.065-8.258 0L3.037 1.548c-.025-.285.23-.516.516-.516z" fill-opacity=".5" enable-background="new"/><g transform="matrix(.25807 0 0 .25807 -57.997 -57.03)" fill="none" stroke-width="5" filter="url(#a)"><g opacity=".35"><path d="M270.5 228.978l-4 44" stroke="#000"/><path d="M266.5 228.978l-4 44" stroke="#fff"/></g><g opacity=".35"><path d="M242.5 228.978l4 44" stroke="#000"/><path d="M246.5 228.978l4 44" stroke="#fff"/></g></g></g></svg>