<svg xmlns="http://www.w3.org/2000/svg" width="16" height="21"><path d="M2.004.336h11.992c1.106 0 2.086.879 2 1.965L14.66 18.699c-3.328 2.621-9.992 2.621-13.32 0L.004 2.301c-.086-1.086.894-1.965 2-1.965zm0 0" fill="#898989"/><path d="M2.004.336c-1.106 0-2.086.879-2 1.965L1.34 18.699c3.328 2.621 9.992 2.621 13.32 0l1.336-16.398c.086-1.086-.894-1.965-2-1.965zm0 1.312h11.992c.367 0 .7.293.664.653l-1.332 15.086c-3.328 2.62-7.328 2.62-10.656 0L1.34 2.3c-.035-.36.297-.653.664-.653zm0 0" fill-opacity=".5"/><path d="M6.176 13.742l-2.328.766-.953-4.04 1.578-.28L4.27 5.66l3.46-2.726 2.997.52-.622 4.323 2.614 1.989-.696 3.632-2.171-.312-1.446 4.117-2.172-.312zm0 0" fill="#ededed"/><path d="M4.635 10.222l-.044-2.4m-1.234-.313l2.166-.393 1.827.205m.234-1.647L5.004 4m2.39 5.722l-1.63-.242" transform="matrix(1.33242 0 0 1.3116 0 .335)" fill="none" stroke-width=".866" stroke="#898989"/></svg>