<svg xmlns="http://www.w3.org/2000/svg" height="48" width="48">
    <path d="M35.413 4.5H11.706C8.837 4.5 6.5 6.995 6.5 10.058V46.5h29.794c2.869 0 5.206-2.495 5.206-5.558v-30.22" fill="#757575" fill-opacity=".05" stroke="#757575" stroke-width="1.2" stroke-linecap="round" stroke-linejoin="round"/>
      <g
     transform="matrix(1.3 0 0 1.3 9.8 11.7)"
     id="g2522">     <path d="M2.75 3.438v15.124h16.5V3.438zm1.375 2.75h13.75v11H4.125zm3.848 1.375l2.355 3.742-2.879 4.508h1.63l2.066-3.32 2.062 3.32h1.555c.015-.016.035-.028.05-.04l-2.828-4.468 2.336-3.742h-1.668l-1.511 2.554-1.512-2.555zm0 0" fill="#7F8080"/>
    </g>
</svg>
