<svg xmlns="http://www.w3.org/2000/svg" height="48" width="48">
    <path d="M35.413 4.5H11.706C8.837 4.5 6.5 6.995 6.5 10.058V46.5h29.794c2.869 0 5.206-2.495 5.206-5.558v-30.22" fill="#757575" fill-opacity=".05" stroke="#757575" stroke-width="1.2" stroke-linecap="round" stroke-linejoin="round"/>
      <g
     transform="matrix(1.3 0 0 1.3 9.8 11.7)"
     id="g2522">     <path d="M2.75 2.75v1.375h16.5V2.75zM8.617 5.5l.028.668 4.714 6.207-5.109 6.113v.762h11v-3.816h-.785c0 .761.207 1.234-.465 1.691-.734.504-1.703.598-2.555.598h-4.05l3.93-5.348-3.93-6.113h2.308c1.64 0 3.969-.145 4.617 1.77.114.323.117.945.145 1.288h.785V5.5zM2.75 6.875V8.25h5.5V6.875zm0 2.75V11h6.875V9.625zm0 4.125v1.375h6.875V13.75zm0 2.75v1.375h5.5V16.5zm0 0" fill="#19C5FE"/>
    </g>
</svg>
