<svg xmlns="http://www.w3.org/2000/svg" height="48" width="48">
    <path d="M35.413 4.5H11.706C8.837 4.5 6.5 6.995 6.5 10.058V46.5h29.794c2.869 0 5.206-2.495 5.206-5.558v-30.22" fill="#757575" fill-opacity=".05" stroke="#757575" stroke-width="1.2" stroke-linecap="round" stroke-linejoin="round"/>
      <g
     transform="matrix(1.3 0 0 1.3 9.8 11.7)"
     id="g2522">     <path d="M2.75 2.75v1.375H11V2.75zm0 4.125V8.25h16.5V6.875zm0 4.125v1.375h6.875V11zM11 11v8.25h8.25V11zm1.375 1.375h5.5v5.5h-5.5zM2.75 13.75v1.375h6.875V13.75zm0 4.125v1.375h6.875v-1.375zm0 0" fill="#19C5FE"/>
    </g>
</svg>
