<svg xmlns="http://www.w3.org/2000/svg" height="48" width="48">
    <path d="M35.413 4.5H11.706C8.837 4.5 6.5 6.995 6.5 10.058V46.5h29.794c2.869 0 5.206-2.495 5.206-5.558v-30.22" fill="#757575" fill-opacity=".05" stroke="#757575" stroke-width="1.2" stroke-linecap="round" stroke-linejoin="round"/>
      <g
     transform="matrix(1.3 0 0 1.3 9.8 11.7)"
     id="g2522">     <path d="M2.75 2.75v11h4.125V4.125H11v2.75h4.125V2.75zm1.375 1.375H5.5V5.5H4.125zm8.25 0h1.375V5.5h-1.375zm-8.25 2.75H5.5v2.75H4.125zM8.25 8.25v8.25L11 19.25V16.5h8.25V8.25zm1.375 1.375h8.25v5.5h-8.25zM4.125 11H5.5v1.375H4.125zm0 0" fill="#7F8080"/>
    </g>
</svg>
