<svg xmlns="http://www.w3.org/2000/svg" height="48" width="48">
    <path d="M35.413 4.5H11.706C8.837 4.5 6.5 6.995 6.5 10.058V46.5h29.794c2.869 0 5.206-2.495 5.206-5.558v-30.22" fill="#757575" fill-opacity=".05" stroke="#757575" stroke-width="1.2" stroke-linecap="round" stroke-linejoin="round"/>
      <g
     transform="matrix(1.3 0 0 1.3 9.8 11.7)"
     id="g2522">     <path d="M11 2.75C9.527 8 5.5 11.102 5.5 14c0 2.898 2.46 5.25 5.5 5.25s5.5-2.352 5.5-5.25S12.473 8 11 2.75m3.781 8.57c.606.774.93 1.715.934 2.68 0 2.484-2.11 4.5-4.715 4.5a4.849 4.849 0 0 1-2.8-.887c.402.09.816.137 1.23.137 3.035 0 5.5-2.352 5.5-5.25a5.218 5.218 0 0 0-.149-1.18" fill="#19FEFE"/>
    </g>
</svg>
