<svg xmlns="http://www.w3.org/2000/svg" height="48" width="48">
    <path d="M35.413 4.5H11.706C8.837 4.5 6.5 6.995 6.5 10.058V46.5h29.794c2.869 0 5.206-2.495 5.206-5.558v-30.22" fill="#757575" fill-opacity=".05" stroke="#757575" stroke-width="1.2" stroke-linecap="round" stroke-linejoin="round"/>
      <g
     transform="matrix(1.3 0 0 1.3 9.8 11.7)"
     id="g2522">     <path d="M5.5 19.25a1.372 1.372 0 0 1-1.375-1.375V4.125c0-.762.613-1.375 1.375-1.375h11c.762 0 1.375.613 1.375 1.375v13.75c0 .762-.613 1.375-1.375 1.375zm0-1.375h11V4.125h-11zm1.375-2.75V13.75h8.25v1.375zm0-2.75V11h8.25v1.375zm0-2.75V8.25h8.25v1.375zm0-2.75V5.5h8.25v1.375zm0 0" fill="#1952FE"/>
    </g>
</svg>
