<svg xmlns="http://www.w3.org/2000/svg" height="48" width="48">
    <path d="M35.413 4.5H11.706C8.837 4.5 6.5 6.995 6.5 10.058V46.5h29.794c2.869 0 5.206-2.495 5.206-5.558v-30.22" fill="#757575" fill-opacity=".05" stroke="#757575" stroke-width="1.2" stroke-linecap="round" stroke-linejoin="round"/>
      <g
     transform="matrix(1.3 0 0 1.3 9.8 11.7)"
     id="g2522">     <path d="M16.5 5.902L11.402 11l5.098 5.098.488-.485L21.598 11zm0 0" fill="#FE8C19"/>
    <path d="M5.5 2.75v16.5h4.813a.689.689 0 0 0 .687-.688v-11a.689.689 0 0 0-.688-.687H6.876V2.75zm1.375 5.5h2.75v9.625h-2.75zm-4.813-5.5a.689.689 0 0 0-.687.688v3.437H0V8.25h1.375v11H2.75v-11h1.375V6.875H2.75v-2.75h1.375V2.75zm0 0" fill="#7F8080"/>
    </g>
</svg>
