<svg xmlns="http://www.w3.org/2000/svg" height="48" width="48">
    <path d="M35.413 4.5H11.706C8.837 4.5 6.5 6.995 6.5 10.058V46.5h29.794c2.869 0 5.206-2.495 5.206-5.558v-30.22" fill="#757575" fill-opacity=".05" stroke="#757575" stroke-width="1.2" stroke-linecap="round" stroke-linejoin="round"/>
      <g
     transform="matrix(1.3 0 0 1.3 9.8 11.7)"
     id="g2522">     <path d="M10.95 2.75C6.394 2.75 2.7 3.98 2.7 5.5v11c0 1.52 3.695 2.75 8.25 2.75 4.558 0 8.25-1.23 8.25-2.75v-11c0-1.52-3.692-2.75-8.25-2.75m0 1.375c3.796 0 6.874.617 6.874 1.375s-3.078 1.375-6.875 1.375S4.074 6.258 4.074 5.5s3.078-1.375 6.875-1.375m-6.875 2.89c1.528.77 4.11 1.235 6.875 1.235 2.77 0 5.348-.465 6.875-1.234V11c0 .758-3.078 1.375-6.875 1.375S4.074 11.758 4.074 11zm0 5.5c1.528.77 4.11 1.235 6.875 1.235 2.77 0 5.348-.465 6.875-1.234V16.5c0 .758-3.078 1.375-6.875 1.375s-6.875-.617-6.875-1.375zm0 0" fill="#FE1919"/>
    </g>
</svg>
