<svg xmlns="http://www.w3.org/2000/svg" height="48" width="48">
    <path d="M35.413 4.5H11.706C8.837 4.5 6.5 6.995 6.5 10.058V46.5h29.794c2.869 0 5.206-2.495 5.206-5.558v-30.22" fill="#757575" fill-opacity=".05" stroke="#757575" stroke-width="1.2" stroke-linecap="round" stroke-linejoin="round"/>
      <g
     transform="matrix(1.3 0 0 1.3 9.8 11.7)"
     id="g2522">     <path d="M4.125 2.75c-.762 0-1.375.613-1.375 1.375v13.75c0 .762.613 1.375 1.375 1.375h13.75c.762 0 1.375-.613 1.375-1.375V4.125c0-.762-.613-1.375-1.375-1.375zm0 1.375h13.75v13.75H4.125zM5.5 5.5v1.375h2.75V5.5zm4.125 0v1.375h2.75V5.5zm4.125 0v1.375h2.75V5.5zM5.5 8.246v1.375h2.75V8.246zm4.125 0v1.375h2.75V8.246zm4.125 0v1.375h2.75V8.246zm-8.25 2.75v1.375h2.75v-1.375zm4.125 0v1.375h2.75v-1.375zm4.125 0v1.375h2.75v-1.375zM5.5 13.742v1.375h2.75v-1.375zm4.125 0v1.375h2.75v-1.375zm4.125 0v1.375h2.75v-1.375zm0 0" fill="#19FEC5"/>
    </g>
</svg>
