<svg xmlns="http://www.w3.org/2000/svg" height="48" width="48">
    <path d="M35.413 4.5H11.706C8.837 4.5 6.5 6.995 6.5 10.058V46.5h29.794c2.869 0 5.206-2.495 5.206-5.558v-30.22" fill="#757575" fill-opacity=".05" stroke="#757575" stroke-width="1.2" stroke-linecap="round" stroke-linejoin="round"/>
      <g
     transform="matrix(1.3 0 0 1.3 9.8 11.7)"
     id="g2522">     <path d="M2.75 2.75v16.5h16.5V2.75zm1.375 1.375h2.629c.078.219.121.453.121.688a2.066 2.066 0 0 1-2.063 2.062c-.234 0-.468-.043-.687-.121zm4.05 0h9.696v13.75H4.121v-1.078l1.824-1.785 1.934-1.93.777.574 1.516 1.469 3.574-3.297 5.5 5.352-1.375-3.43-4.125-4.125-3.574 3.578L7.972 11l-3.85 3.852V8.18a3.438 3.438 0 0 0 4.125-3.367 3.703 3.703 0 0 0-.075-.688" fill="#19FEC5"/>
    </g>
</svg>
