<svg xmlns="http://www.w3.org/2000/svg" height="48" width="48">
    <path d="M35.413 4.5H11.706C8.837 4.5 6.5 6.995 6.5 10.058V46.5h29.794c2.869 0 5.206-2.495 5.206-5.558v-30.22" fill="#757575" fill-opacity=".05" stroke="#757575" stroke-width="1.2" stroke-linecap="round" stroke-linejoin="round"/>
      <g
     transform="matrix(1.3 0 0 1.3 9.8 11.7)"
     id="g2522">     <path d="M10.953 16.113L5.79 10.95l5.164-5.16 1.723 1.719-3.446 3.441 1.723 1.723 5.164-5.164-4.5-4.5a.95.95 0 0 0-1.332 0l-7.273 7.277a.936.936 0 0 0 0 1.332l7.273 7.274a.943.943 0 0 0 1.332 0l7.274-7.274a.936.936 0 0 0 0-1.332L17.836 9.23zm0 0" fill="#FEC519"/>
    </g>
</svg>
