<svg xmlns="http://www.w3.org/2000/svg" height="48" width="48">
    <path d="M35.413 4.5H11.706C8.837 4.5 6.5 6.995 6.5 10.058V46.5h29.794c2.869 0 5.206-2.495 5.206-5.558v-30.22" fill="#757575" fill-opacity=".05" stroke="#757575" stroke-width="1.2" stroke-linecap="round" stroke-linejoin="round"/>
      <g
     transform="matrix(1.3 0 0 1.3 9.8 11.7)"
     id="g2522">     <g fill="#FEC519">
        <path d="M2.75 4.125V19.25h16.5V4.125zM4.125 5.5h13.75v12.375H4.125zM16.5 2.75h1.375v1.375H16.5zm-12.375 0H5.5v1.375H4.125zm2.75 0H8.25v1.375H6.875zm6.875 0h1.375v1.375H13.75zm0 0"/>
        <path d="M5.5 6.875h11V8.25h-11zm0 2.75H11V11H5.5zm8.25 5.5h2.75V16.5h-2.75zm-8.25-2.75h8.25v1.375H5.5zm0 0"/>
    </g>
    </g>
</svg>
