<svg xmlns="http://www.w3.org/2000/svg" height="48" width="48">
    <path d="M35.413 4.5H11.706C8.837 4.5 6.5 6.995 6.5 10.058V46.5h29.794c2.869 0 5.206-2.495 5.206-5.558v-30.22" fill="#757575" fill-opacity=".05" stroke="#757575" stroke-width="1.2" stroke-linecap="round" stroke-linejoin="round"/>
      <g
     transform="matrix(1.3 0 0 1.3 9.8 11.7)"
     id="g2522">     <path d="M2.75 2.75v1.375h16.5V2.75zm.688 2.75a.684.684 0 0 0-.688.688c0 .382.305.687.688.687a.684.684 0 0 0 .687-.688.684.684 0 0 0-.688-.687m2.063 0v1.375h12.375V5.5zm0 2.75v1.375H11V8.25zm-2.063 4.125a.684.684 0 0 0-.687.688c0 .382.305.687.688.687a.684.684 0 0 0 .687-.688.684.684 0 0 0-.688-.687m2.063 0v1.375h12.375v-1.375zm0 2.75V16.5h11v-1.375zm-2.75 2.75v1.375h16.5v-1.375zm0 0" fill="#7F8080"/>
    </g>
</svg>
