<svg xmlns="http://www.w3.org/2000/svg" height="48" width="48">
    <path d="M35.413 4.5H11.706C8.837 4.5 6.5 6.995 6.5 10.058V46.5h29.794c2.869 0 5.206-2.495 5.206-5.558v-30.22" fill="#757575" fill-opacity=".05" stroke="#757575" stroke-width="1.2" stroke-linecap="round" stroke-linejoin="round"/>
      <g
     transform="matrix(1.3 0 0 1.3 9.8 11.7)"
     id="g2522">     <path d="M11.672 13.969l-1.906-1.883.023-.024a13.095 13.095 0 0 0 2.781-4.898h2.2v-1.5H9.52v-1.5h-1.5v1.5H2.766V7.16h8.382a11.853 11.853 0 0 1-2.378 4.02 11.73 11.73 0 0 1-1.735-2.512h-1.5a13 13 0 0 0 2.238 3.418l-3.82 3.77 1.067 1.062 3.75-3.75 2.332 2.332zm4.223-3.801h-1.5l-3.375 9h1.5l.84-2.25h3.562l.851 2.25h1.5zm-1.965 5.25l1.215-3.246 1.214 3.246zm0 0" fill="#7F8080"/>
    </g>
</svg>
