<svg xmlns="http://www.w3.org/2000/svg" height="48" width="48">
    <path d="M35.413 4.5H11.706C8.837 4.5 6.5 6.995 6.5 10.058V46.5h29.794c2.869 0 5.206-2.495 5.206-5.558v-30.22" fill="#757575" fill-opacity=".05" stroke="#757575" stroke-width="1.2" stroke-linecap="round" stroke-linejoin="round"/>
      <g
     transform="matrix(1.3 0 0 1.3 9.8 11.7)"
     id="g2522">     <path d="M12.5 2.75L8.172 18.89l1.332.36 4.324-16.14zM7.266 5.5l-4.07 4.324-.446.48.445.473 4.047 4.348.985-.953-3.606-3.867L8.25 6.457zm7.468 0l-.984.957 3.629 3.844-3.606 3.867.985.957 4.047-4.348.445-.476-.445-.477zm0 0" fill="#FF19C5"/>
    </g>
</svg>
