<svg xmlns="http://www.w3.org/2000/svg" height="48" width="48">
    <path d="M35.413 4.5H11.706C8.837 4.5 6.5 6.995 6.5 10.058V46.5h29.794c2.869 0 5.206-2.495 5.206-5.558v-30.22" fill="#757575" fill-opacity=".05" stroke="#757575" stroke-width="1.2" stroke-linecap="round" stroke-linejoin="round"/>
      <g
     transform="matrix(1.3 0 0 1.3 9.8 11.7)"
     id="g2522">     <path d="M2.527 2.844v16.5h16.5v-16.5zm1.375 1.375h13.75v13.75H3.902zm1.375 2.75v2.75h2.75v-2.75zm8.25 0v2.75h2.75v-2.75zm-5.5 5.5v1.375h5.5v-1.375zm5.5 1.375v1.375h1.375v-1.375zm1.375 1.375v1.375h1.375v-1.375zm-6.875-1.375H6.652v1.375h1.375zm-1.375 1.375H5.277v1.375h1.375zm0 0" fill="#FE1919"/>
    </g>
</svg>
