<svg xmlns="http://www.w3.org/2000/svg" height="48" width="48">
    <path d="M35.413 4.5H11.706C8.837 4.5 6.5 6.995 6.5 10.058V46.5h29.794c2.869 0 5.206-2.495 5.206-5.558v-30.22" fill="#757575" fill-opacity=".05" stroke="#757575" stroke-width="1.2" stroke-linecap="round" stroke-linejoin="round"/>
      <g
     transform="matrix(1.3 0 0 1.3 9.8 11.7)"
     id="g2522">     <path d="M2.75 2.75v16.5h16.5V2.75zm4.125 1.375h8.25v5.5h-8.25zM4.125 5.5H5.5v1.375H4.125zm12.375 0h1.375v1.375H16.5zM4.125 10.313H5.5v1.374H4.125zm12.375 0h1.375v1.374H16.5zm-9.625 2.062h8.25v5.5h-8.25zm-2.75 2.75H5.5V16.5H4.125zm12.375 0h1.375V16.5H16.5zm0 0" fill="#198CFE"/>
    </g>
</svg>
