<?xml version="1.0" encoding="UTF-8" standalone="no"?>
<svg
   xmlns:dc="http://purl.org/dc/elements/1.1/"
   xmlns:cc="http://creativecommons.org/ns#"
   xmlns:rdf="http://www.w3.org/1999/02/22-rdf-syntax-ns#"
   xmlns:svg="http://www.w3.org/2000/svg"
   xmlns="http://www.w3.org/2000/svg"
   xmlns:xlink="http://www.w3.org/1999/xlink"
   xmlns:sodipodi="http://sodipodi.sourceforge.net/DTD/sodipodi-0.dtd"
   xmlns:inkscape="http://www.inkscape.org/namespaces/inkscape"
   width="64"
   version="1.1"
   viewBox="0 0 64 64"
   height="64"
   id="svg2"
   inkscape:version="0.92.4 (5da689c313, 2019-01-14)"
   sodipodi:docname="android-package-archive.svg">
  <sodipodi:namedview
     pagecolor="#ffffff"
     bordercolor="#666666"
     borderopacity="1"
     objecttolerance="10"
     gridtolerance="10"
     guidetolerance="10"
     inkscape:pageopacity="0"
     inkscape:pageshadow="2"
     inkscape:window-width="1366"
     inkscape:window-height="707"
     id="namedview33"
     showgrid="true"
     inkscape:object-nodes="true"
     inkscape:zoom="2.7566116"
     inkscape:cx="32"
     inkscape:cy="32"
     inkscape:window-x="0"
     inkscape:window-y="0"
     inkscape:window-maximized="1"
     inkscape:current-layer="svg2"
     inkscape:snap-bbox="true"
     inkscape:bbox-nodes="true">
    <inkscape:grid
       type="xygrid"
       id="grid4162" />
  </sodipodi:namedview>
  <defs
     id="defs4">
    <linearGradient
       id="linearGradient4300-2">
      <stop
         id="stop4302-4"
         style="stop-color:#3a539b" />
      <stop
         id="stop4304-1"
         style="stop-color:#3f5aa9"
         offset="1" />
    </linearGradient>
    <linearGradient
       inkscape:collect="always"
       id="linearGradient6251">
      <stop
         style="stop-color:#ffffff;stop-opacity:0"
         offset="0"
         id="stop6253" />
      <stop
         style="stop-color:#ffffff;stop-opacity:0.2"
         offset="1"
         id="stop6255" />
    </linearGradient>
    <linearGradient
       inkscape:collect="always"
       xlink:href="#linearGradient6251"
       id="linearGradient7145-0"
       gradientUnits="userSpaceOnUse"
       gradientTransform="translate(-58,-335.3622)"
       x1="58"
       y1="392.36221"
       x2="58"
       y2="336.36221" />
    <linearGradient
       inkscape:collect="always"
       xlink:href="#linearGradient6251"
       id="linearGradient832"
       gradientUnits="userSpaceOnUse"
       gradientTransform="matrix(1,0,0,0.84587337,-46.999997,-272.73454)"
       x1="58"
       y1="393.95328"
       x2="58"
       y2="324.65894" />
  </defs>
  <metadata
     id="metadata84">
    <rdf:RDF>
      <cc:Work
         rdf:about="">
        <dc:format>image/svg+xml</dc:format>
        <dc:type
           rdf:resource="http://purl.org/dc/dcmitype/StillImage" />
        <dc:title></dc:title>
      </cc:Work>
    </rdf:RDF>
  </metadata>
  <path
     style="color:#000000;clip-rule:nonzero;display:inline;overflow:visible;visibility:visible;opacity:1;isolation:auto;mix-blend-mode:normal;color-interpolation:sRGB;color-interpolation-filters:linearRGB;solid-color:#000000;solid-opacity:1;fill:#9bd916;fill-opacity:1;fill-rule:nonzero;stroke:none;stroke-width:1;stroke-linecap:butt;stroke-linejoin:miter;stroke-miterlimit:4;stroke-dasharray:none;stroke-dashoffset:0;stroke-opacity:1;marker:none;color-rendering:auto;image-rendering:auto;shape-rendering:auto;text-rendering:auto;enable-background:accumulate"
     d="m 13.083984,11 c -0.842518,0 -1.644779,0.169553 -2.373046,0.476562 C 9.982669,11.783573 9.32711,12.227578 8.777344,12.777344 8.227578,13.32711 7.783572,13.982668 7.476562,14.710938 7.169553,15.439206 7,16.241466 7,17.083984 v 37.832032 c 0,0.842518 0.169553,1.644778 0.476562,2.373046 0.307011,0.728269 0.751016,1.383828 1.300782,1.933594 0.549766,0.549766 1.205325,0.993772 1.933594,1.300782 C 11.439205,60.830447 12.241466,61 13.083984,61 H 50.91602 c 0.84251,0 1.64477,-0.169553 2.37304,-0.476562 0.72827,-0.30701 1.38383,-0.751016 1.9336,-1.300782 0.54976,-0.549766 0.99377,-1.205324 1.30078,-1.933594 C 56.83045,56.560795 57,55.758534 57,54.916016 V 17.083984 C 57,16.241466 56.83045,15.439205 56.52344,14.710938 56.21643,13.982669 55.77242,13.32711 55.22266,12.777344 54.67289,12.227578 54.01733,11.783573 53.28906,11.476562 52.56079,11.169553 51.75853,11 50.91602,11 Z"
     id="path859"
     inkscape:connector-curvature="0" />
  <path
     style="color:#000000;clip-rule:nonzero;display:inline;overflow:visible;visibility:visible;opacity:0.75;isolation:auto;mix-blend-mode:normal;color-interpolation:sRGB;color-interpolation-filters:linearRGB;solid-color:#000000;solid-opacity:1;fill:#ffffff;fill-opacity:1;fill-rule:nonzero;stroke-width:2;stroke-linecap:square;stroke-linejoin:miter;stroke-miterlimit:4;stroke-dasharray:none;stroke-dashoffset:0;stroke-opacity:1;color-rendering:auto;image-rendering:auto;shape-rendering:auto;text-rendering:auto;enable-background:accumulate"
     d="m 22,39 c -2.98896,7.5e-4 -5.84891,1.21778 -7.92188,3.37109 l -2.7246,-2.72461 c -0.0942,-0.0974 -0.2239,-0.15234 -0.35938,-0.15234 -0.4494,9e-5 -0.67059,0.54683 -0.34766,0.85937 l 2.76954,2.76954 C 11.85252,45.07416 11.00038,47.49972 11,50 l 0,7 22,0 0,-7 c -0.004,-2.4983 -0.85795,-4.92089 -2.42188,-6.86914 l 2.77735,-2.77735 c 0.32293,-0.31254 0.10175,-0.85928 -0.34766,-0.85937 -0.13548,0 -0.26516,0.055 -0.35937,0.15234 L 29.91602,42.3789 C 27.8458,40.22417 24.98808,39.00438 22,39 Z m 0,1 c 5.52285,0 10,4.47715 10,10 l 0,6 -20,0 0,-6 c 0,-5.52285 4.47715,-10 10,-10 z m -4.5,5 C 16.67157,45 16,45.67157 16,46.5 16,47.32843 16.67157,48 17.5,48 18.32843,48 19,47.32843 19,46.5 19,45.67157 18.32843,45 17.5,45 Z m 9,0 C 25.67157,45 25,45.67157 25,46.5 25,47.32843 25.67157,48 26.5,48 27.32843,48 28,47.32843 28,46.5 28,45.67157 27.32843,45 26.5,45 Z"
     id="path5845"
     inkscape:connector-curvature="0"
     sodipodi:nodetypes="ccccccccccccccccsccccsssssssssss" />
  <path
     style="opacity:0.75;fill:#ffffff;fill-opacity:1"
     d="M 40 12 L 40 14 L 42 14 L 42 12 L 40 12 z M 42 14 L 42 16 L 44 16 L 44 14 L 42 14 z M 42 16 L 40 16 L 40 18 L 42 18 L 42 16 z M 42 18 L 42 20 L 44 20 L 44 18 L 42 18 z M 42 20 L 40 20 L 40 22 L 42 22 L 42 20 z M 42 22 L 42 24 L 44 24 L 44 22 L 42 22 z M 42 24 L 40 24 L 40 26 L 42 26 L 42 24 z M 40 27 L 40 31 L 41 31 L 41 35 L 43 35 L 43 31 L 44 31 L 44 27 L 40 27 z M 41 28 L 43 28 L 43 30 L 41 30 L 41 28 z "
     id="rect4173-3" />
  <path
     style="color:#000000;clip-rule:nonzero;display:inline;overflow:visible;visibility:visible;opacity:0.5;isolation:auto;mix-blend-mode:normal;color-interpolation:sRGB;color-interpolation-filters:linearRGB;solid-color:#000000;solid-opacity:1;fill:#ffffff;fill-opacity:1;fill-rule:nonzero;stroke:none;stroke-width:1;stroke-linecap:butt;stroke-linejoin:miter;stroke-miterlimit:4;stroke-dasharray:none;stroke-dashoffset:0;stroke-opacity:1;marker:none;color-rendering:auto;image-rendering:auto;shape-rendering:auto;text-rendering:auto;enable-background:accumulate"
     d="m 13.083984,11 c -0.842518,0 -1.644778,0.169553 -2.373046,0.476562 C 9.982669,11.783573 9.32711,12.227578 8.777344,12.777344 8.227578,13.32711 7.783572,13.982668 7.476562,14.710938 7.169553,15.439206 7,16.241466 7,17.083984 v 1.013672 c 0,-0.842518 0.169553,-1.644779 0.476562,-2.373047 0.30701,-0.728269 0.751016,-1.383827 1.300782,-1.933593 0.549766,-0.549766 1.205325,-0.993772 1.933594,-1.300782 0.728268,-0.307009 1.530528,-0.476562 2.373046,-0.476562 H 50.91602 c 0.84251,0 1.64477,0.169553 2.37304,0.476562 0.72827,0.30701 1.38383,0.751016 1.9336,1.300782 0.54976,0.549766 0.99377,1.205324 1.30078,1.933593 C 56.83045,16.452877 57,17.255138 57,18.097656 V 17.083984 C 57,16.241466 56.83045,15.439205 56.52344,14.710938 56.21643,13.982668 55.77242,13.32711 55.22266,12.777344 54.67289,12.227578 54.01733,11.783573 53.28906,11.476562 52.56079,11.169554 51.75853,11 50.91602,11 Z"
     id="path824-2-6"
     inkscape:connector-curvature="0" />
  <path
     style="color:#000000;clip-rule:nonzero;display:inline;overflow:visible;visibility:visible;opacity:0.25;isolation:auto;mix-blend-mode:normal;color-interpolation:sRGB;color-interpolation-filters:linearRGB;solid-color:#000000;solid-opacity:1;fill:#000000;fill-opacity:1;fill-rule:nonzero;stroke:none;stroke-width:1;stroke-linecap:butt;stroke-linejoin:miter;stroke-miterlimit:4;stroke-dasharray:none;stroke-dashoffset:0;stroke-opacity:1;marker:none;color-rendering:auto;image-rendering:auto;shape-rendering:auto;text-rendering:auto;enable-background:accumulate"
     d="m 57,54.029297 c 0,0.842518 -0.16955,1.644779 -0.47656,2.373047 -0.30701,0.728269 -0.75102,1.383828 -1.30078,1.933594 -0.54977,0.549766 -1.20533,0.993771 -1.9336,1.300781 -0.72827,0.307009 -1.53053,0.476562 -2.37304,0.476562 H 13.083984 c -0.842518,0 -1.644779,-0.169553 -2.373046,-0.476562 C 9.982668,59.329709 9.32711,58.885703 8.777344,58.335938 8.227578,57.786172 7.783572,57.130613 7.476562,56.402344 7.169553,55.674076 7,54.871815 7,54.029297 v 0.886719 c 0,0.842518 0.169553,1.644778 0.476562,2.373046 0.30701,0.728269 0.751016,1.383828 1.300782,1.933594 0.549766,0.549766 1.205324,0.993772 1.933594,1.300782 C 11.439205,60.830447 12.241466,61 13.083984,61 H 50.91602 c 0.84251,0 1.64477,-0.169553 2.37304,-0.476562 0.72827,-0.30701 1.38383,-0.751016 1.9336,-1.300782 0.54976,-0.549766 0.99377,-1.205324 1.30078,-1.933594 C 56.83045,56.560795 57,55.758534 57,54.916016 Z"
     id="path947"
     inkscape:connector-curvature="0" />
  <path
     style="color:#000000;clip-rule:nonzero;display:inline;overflow:visible;visibility:visible;opacity:0.55199998;isolation:auto;mix-blend-mode:normal;color-interpolation:sRGB;color-interpolation-filters:linearRGB;solid-color:#000000;solid-opacity:1;fill:url(#linearGradient832);fill-opacity:1;fill-rule:nonzero;stroke:none;stroke-width:1;stroke-linecap:butt;stroke-linejoin:miter;stroke-miterlimit:4;stroke-dasharray:none;stroke-dashoffset:0;stroke-opacity:1;marker:none;color-rendering:auto;image-rendering:auto;shape-rendering:auto;text-rendering:auto;enable-background:accumulate"
     d="m 13.083984,11 c -0.842518,0 -1.644778,0.169553 -2.373046,0.476562 C 9.982669,11.783572 9.32711,12.227578 8.777344,12.777344 8.227578,13.32711 7.783572,13.982669 7.476562,14.710938 7.169553,15.439206 7,16.241466 7,17.083984 v 37.832032 c 0,0.842518 0.169553,1.644778 0.476562,2.373046 0.30701,0.728269 0.751016,1.383828 1.300782,1.933594 0.549766,0.549766 1.205325,0.993772 1.933594,1.300782 C 11.439206,60.830447 12.241466,61 13.083984,61 H 50.91602 c 0.84251,0 1.64477,-0.169553 2.37304,-0.476562 0.72827,-0.30701 1.38383,-0.751016 1.9336,-1.300782 0.54976,-0.549766 0.99377,-1.205325 1.30078,-1.933594 C 56.83045,56.560794 57,55.758534 57,54.916016 V 17.083984 C 57,16.241466 56.83045,15.439206 56.52344,14.710938 56.21643,13.982669 55.77242,13.32711 55.22266,12.777344 54.67289,12.227578 54.01733,11.783572 53.28906,11.476562 52.56079,11.169553 51.75853,11 50.91602,11 Z"
     id="path824"
     inkscape:connector-curvature="0" />
</svg>
