<?xml version="1.0" encoding="UTF-8" standalone="no"?>
<svg
   xmlns:dc="http://purl.org/dc/elements/1.1/"
   xmlns:cc="http://creativecommons.org/ns#"
   xmlns:rdf="http://www.w3.org/1999/02/22-rdf-syntax-ns#"
   xmlns:svg="http://www.w3.org/2000/svg"
   xmlns="http://www.w3.org/2000/svg"
   xmlns:xlink="http://www.w3.org/1999/xlink"
   xmlns:sodipodi="http://sodipodi.sourceforge.net/DTD/sodipodi-0.dtd"
   xmlns:inkscape="http://www.inkscape.org/namespaces/inkscape"
   width="64"
   height="64"
   version="1.1"
   id="svg35"
   sodipodi:docname="application-x-designer.svg"
   inkscape:version="0.92.4 (5da689c313, 2019-01-14)">
  <metadata
     id="metadata39">
    <rdf:RDF>
      <cc:Work
         rdf:about="">
        <dc:format>image/svg+xml</dc:format>
        <dc:type
           rdf:resource="http://purl.org/dc/dcmitype/StillImage" />
        <dc:title></dc:title>
      </cc:Work>
    </rdf:RDF>
  </metadata>
  <sodipodi:namedview
     pagecolor="#ffffff"
     bordercolor="#666666"
     borderopacity="1"
     objecttolerance="10"
     gridtolerance="10"
     guidetolerance="10"
     inkscape:pageopacity="0"
     inkscape:pageshadow="2"
     inkscape:window-width="848"
     inkscape:window-height="480"
     id="namedview37"
     showgrid="false"
     inkscape:zoom="3.6875"
     inkscape:cx="3.9322034"
     inkscape:cy="32"
     inkscape:window-x="0"
     inkscape:window-y="25"
     inkscape:window-maximized="0"
     inkscape:current-layer="svg35" />
  <defs
     id="defs13">
    <linearGradient
       xlink:href="#a"
       id="b"
       gradientUnits="userSpaceOnUse"
       x1="0"
       y1="60.774"
       x2="0"
       y2="2.345" />
    <linearGradient
       id="a"
       y1="392.36"
       y2="336.36"
       x2="0"
       gradientUnits="userSpaceOnUse"
       gradientTransform="translate(254 -254)">
      <stop
         stop-color="#fff"
         stop-opacity="0"
         id="stop3" />
      <stop
         offset="1"
         stop-color="#fff"
         stop-opacity=".2"
         id="stop5" />
    </linearGradient>
    <linearGradient
       id="c"
       y1="17.475"
       y2="31"
       x1="41.616"
       x2="54"
       gradientUnits="userSpaceOnUse">
      <stop
         stop-color="#060606"
         id="stop8" />
      <stop
         offset="1"
         stop-opacity="0"
         id="stop10" />
    </linearGradient>
  </defs>
  <path
     d="M 40,3 H 15 c -2.77,0 -5,2.23 -5,5 v 48 c 0,2.77 2.23,5 5,5 h 34 c 2.77,0 5,-2.23 5,-5 V 17 Z"
     id="path15"
     inkscape:connector-curvature="0"
     style="fill:#47cffb" />
  <g
     style="color:#000000;opacity:0.4;isolation:auto;mix-blend-mode:normal;solid-color:#000000;solid-opacity:1;stroke-width:34.13000107"
     id="g23">
    <path
       d="m 32.806,21.14 a 0.917,0.917 0 0 1 -0.92,0.914 c -0.51,0 -0.92,-0.41 -0.92,-0.914 v -2.253 a 0.92,0.92 0 0 1 0.92,-0.917 c 0.51,0 0.92,0.41 0.92,0.917 z m -0.141,15.934 c 0,0.416 -0.34,0.753 -0.759,0.753 h -0.04 a 0.756,0.756 0 0 1 -0.76,-0.753 v -2.435 c 0,-0.416 0.34,-0.756 0.76,-0.756 h 0.04 c 0.42,0 0.76,0.337 0.76,0.756 z"
       style="overflow:visible;isolation:auto;mix-blend-mode:normal;solid-color:#000000;solid-opacity:1"
       overflow="visible"
       id="path17"
       inkscape:connector-curvature="0" />
    <path
       d="m 41.458,44.243 c 0.305,-0.313 0.404,-0.794 0.208,-1.216 l -7.618,-16.15 c -0.006,-0.044 -0.006,-0.09 -0.006,-0.138 0,-0.158 0.059,-0.304 0.153,-0.418 a 3.728,3.728 0 0 0 1.494,-2.986 c 0,-2.069 -1.685,-3.742 -3.765,-3.745 a 3.732,3.732 0 0 0 -3.768,3.745 c 0,1.219 0.583,2.303 1.491,2.986 a 0.642,0.642 0 0 1 0.156,0.418 c 0,0.047 0,0.094 -0.006,0.138 l -7.618,16.15 c -0.197,0.42 -0.1,0.903 0.208,1.216 l -1.202,2.441 1.9,-2.057 a 1.1,1.1 0 0 0 1.27,-0.592 l 7.264,-15.394 a 0.363,0.363 0 0 1 0.287,-0.138 h 0.036 c 0.117,0 0.22,0.056 0.284,0.138 l 7.263,15.394 c 0.226,0.487 0.768,0.724 1.269,0.592 l 1.899,2.057 z M 31.924,25.488 a 2.1535,2.1535 0 1 1 0,-4.307 c 1.195,0 2.162,0.964 2.162,2.154 0,1.19 -0.967,2.153 -2.162,2.153"
       style="overflow:visible;isolation:auto;mix-blend-mode:normal;solid-color:#000000;solid-opacity:1"
       overflow="visible"
       id="path19"
       inkscape:connector-curvature="0" />
    <path
       d="m 40.175,35.928 c 0,0.272 -0.22,0.492 -0.495,0.492 H 24.09 a 0.494,0.494 0 0 1 -0.496,-0.492 v -0.003 c 0,-0.272 0.223,-0.492 0.495,-0.492 h 15.59 a 0.496,0.496 0 0 1 0.496,0.495"
       style="overflow:visible;isolation:auto;mix-blend-mode:normal;solid-color:#000000;solid-opacity:1"
       overflow="visible"
       id="path21"
       inkscape:connector-curvature="0" />
  </g>
  <path
     d="M 40,3 H 15 c -2.77,0 -5,2.23 -5,5 v 48 c 0,2.77 2.23,5 5,5 h 34 c 2.77,0 5,-2.23 5,-5 V 17 Z"
     id="path25"
     style="fill:url(#b)"
     inkscape:connector-curvature="0" />
  <path
     d="M 40,3 H 15 C 12.23,3 10,5.23 10,8 V 9.014 A 5.005,5.005 0 0 1 11.46,5.474 4.989,4.989 0 0 1 15,4.015 H 40 V 4 Z"
     id="path27"
     inkscape:connector-curvature="0"
     style="opacity:0.5;fill:#ffffff" />
  <path
     d="M 54,54.86 A 5.004,5.004 0 0 1 52.54,58.398 4.989,4.989 0 0 1 49,59.86 H 15 A 5.005,5.005 0 0 1 11.46,58.4 4.989,4.989 0 0 1 10,54.86 V 56 c 0,2.77 2.23,5 5,5 h 34 c 2.77,0 5,-2.23 5,-5 z"
     id="path29"
     inkscape:connector-curvature="0"
     style="opacity:0.25;fill-opacity:0.99199997" />
  <path
     d="M 40,3 V 14.535 A 2.456,2.456 0 0 0 42.465,17 H 54 Z"
     id="path31"
     inkscape:connector-curvature="0"
     style="opacity:0.4;fill-rule:evenodd" />
  <path
     d="M 40.73,16.283 54,31 V 17 H 42.465 c -0.68,0 -1.29,-0.276 -1.735,-0.717 z"
     id="path33"
     style="opacity:0.20100002;fill:url(#c);fill-rule:evenodd"
     inkscape:connector-curvature="0" />
</svg>
