<?xml version="1.0" encoding="UTF-8" standalone="no"?>
<svg
   xmlns:dc="http://purl.org/dc/elements/1.1/"
   xmlns:cc="http://creativecommons.org/ns#"
   xmlns:rdf="http://www.w3.org/1999/02/22-rdf-syntax-ns#"
   xmlns:svg="http://www.w3.org/2000/svg"
   xmlns="http://www.w3.org/2000/svg"
   xmlns:xlink="http://www.w3.org/1999/xlink"
   xmlns:sodipodi="http://sodipodi.sourceforge.net/DTD/sodipodi-0.dtd"
   xmlns:inkscape="http://www.inkscape.org/namespaces/inkscape"
   width="64"
   height="64"
   version="1.1"
   id="svg33"
   sodipodi:docname="application-vnd.appimage.svg"
   inkscape:version="0.92.4 (5da689c313, 2019-01-14)">
  <metadata
     id="metadata37">
    <rdf:RDF>
      <cc:Work
         rdf:about="">
        <dc:format>image/svg+xml</dc:format>
        <dc:type
           rdf:resource="http://purl.org/dc/dcmitype/StillImage" />
        <dc:title></dc:title>
      </cc:Work>
    </rdf:RDF>
  </metadata>
  <sodipodi:namedview
     pagecolor="#ffffff"
     bordercolor="#666666"
     borderopacity="1"
     objecttolerance="10"
     gridtolerance="10"
     guidetolerance="10"
     inkscape:pageopacity="0"
     inkscape:pageshadow="2"
     inkscape:window-width="848"
     inkscape:window-height="480"
     id="namedview35"
     showgrid="false"
     inkscape:zoom="3.6875"
     inkscape:cx="3.9322034"
     inkscape:cy="32"
     inkscape:window-x="0"
     inkscape:window-y="25"
     inkscape:window-maximized="0"
     inkscape:current-layer="svg33" />
  <defs
     id="defs13">
    <linearGradient
       xlink:href="#a"
       id="b"
       gradientUnits="userSpaceOnUse"
       x1="0"
       y1="60.774"
       x2="0"
       y2="2.345" />
    <linearGradient
       id="a"
       y1="392.36"
       y2="336.36"
       x2="0"
       gradientUnits="userSpaceOnUse"
       gradientTransform="translate(254 -254)">
      <stop
         stop-color="#fff"
         stop-opacity="0"
         id="stop3" />
      <stop
         offset="1"
         stop-color="#fff"
         stop-opacity=".2"
         id="stop5" />
    </linearGradient>
    <linearGradient
       id="c"
       y1="17.475"
       y2="31"
       x1="41.616"
       x2="54"
       gradientUnits="userSpaceOnUse">
      <stop
         stop-color="#060606"
         id="stop8" />
      <stop
         offset="1"
         stop-opacity="0"
         id="stop10" />
    </linearGradient>
  </defs>
  <path
     d="M 40,3 H 15 c -2.77,0 -5,2.23 -5,5 v 48 c 0,2.77 2.23,5 5,5 h 34 c 2.77,0 5,-2.23 5,-5 V 17 Z"
     id="path15"
     inkscape:connector-curvature="0"
     style="fill:#38a5ea" />
  <path
     d="M 40,3 H 15 c -2.77,0 -5,2.23 -5,5 v 48 c 0,2.77 2.23,5 5,5 h 34 c 2.77,0 5,-2.23 5,-5 V 17 Z"
     id="path17"
     style="fill:url(#b)"
     inkscape:connector-curvature="0" />
  <path
     d="M 40,3 H 15 C 12.23,3 10,5.23 10,8 V 9.014 A 5.005,5.005 0 0 1 11.46,5.474 4.989,4.989 0 0 1 15,4.015 H 40 V 4 Z"
     id="path19"
     inkscape:connector-curvature="0"
     style="opacity:0.5;fill:#ffffff" />
  <path
     d="M 54,54.86 A 5.004,5.004 0 0 1 52.54,58.398 4.989,4.989 0 0 1 49,59.86 H 15 A 5.005,5.005 0 0 1 11.46,58.4 4.989,4.989 0 0 1 10,54.86 V 56 c 0,2.77 2.23,5 5,5 h 34 c 2.77,0 5,-2.23 5,-5 z"
     id="path21"
     inkscape:connector-curvature="0"
     style="opacity:0.25;fill-opacity:0.99199997" />
  <path
     d="M 40,3 V 14.535 A 2.456,2.456 0 0 0 42.465,17 H 54 Z"
     id="path23"
     inkscape:connector-curvature="0"
     style="opacity:0.5;fill:#ffffff;fill-rule:evenodd" />
  <g
     transform="matrix(1.83334,0,0,1.83333,2.667,3.667)"
     id="g29">
    <rect
       width="11.7"
       height="11.7"
       rx="0.67000002"
       ry="0.67000002"
       x="10.15"
       y="10.15"
       id="rect25"
       style="fill:none;stroke:#ffffff;stroke-width:0.30000001;stroke-linecap:round;stroke-linejoin:round;stroke-opacity:0.75" />
    <path
       d="m 15.1,11.21 v 1.8 h -0.956 l 1.856,2.1 1.856,-2.1 H 16.9 v -1.8 z m 0.572,4.2 c -0.052,0 -0.084,0.088 -0.084,0.197 v 0.684 a 1.87,1.87 0 0 0 -0.582,0.244 l -0.487,-0.488 c -0.077,-0.076 -0.16,-0.111 -0.197,-0.075 l -0.46,0.46 c -0.036,0.036 -10e-4,0.12 0.076,0.196 l 0.487,0.488 a 1.87,1.87 0 0 0 -0.244,0.581 h -0.684 c -0.109,0 -0.197,0.033 -0.197,0.085 v 0.656 c 0,0.052 0.088,0.084 0.197,0.084 h 0.684 c 0.048,0.21 0.133,0.406 0.244,0.582 l -0.487,0.487 c -0.077,0.077 -0.112,0.16 -0.075,0.197 l 0.459,0.46 c 0.037,0.036 0.12,10e-4 0.197,-0.076 l 0.487,-0.487 c 0.176,0.11 0.373,0.196 0.582,0.244 v 0.684 c 0,0.108 0.032,0.197 0.084,0.197 h 0.656 c 0.052,0 0.085,-0.089 0.085,-0.197 v -0.684 a 1.87,1.87 0 0 0 0.58,-0.244 l 0.488,0.487 c 0.077,0.077 0.16,0.112 0.197,0.075 l 0.46,-0.46 c 0.036,-0.036 10e-4,-0.12 -0.075,-0.196 l -0.488,-0.487 a 1.87,1.87 0 0 0 0.244,-0.582 h 0.684 c 0.109,0 0.197,-0.032 0.197,-0.084 v -0.656 c 0,-0.052 -0.088,-0.085 -0.197,-0.085 h -0.684 a 1.87,1.87 0 0 0 -0.244,-0.581 l 0.487,-0.488 c 0.077,-0.076 0.112,-0.16 0.075,-0.196 l -0.459,-0.46 c -0.037,-0.036 -0.12,-10e-4 -0.197,0.075 l -0.487,0.488 a 1.87,1.87 0 0 0 -0.582,-0.244 v -0.684 c 0,-0.109 -0.032,-0.197 -0.084,-0.197 z M 16,17.275 c 0.459,0 0.834,0.376 0.834,0.835 A 0.837,0.837 0 0 1 16,18.944 0.837,0.837 0 0 1 15.166,18.11 c 0,-0.459 0.375,-0.835 0.834,-0.835 z"
       style="overflow:visible;fill:#ffffff;fill-opacity:0.75;marker:none"
       overflow="visible"
       id="path27"
       inkscape:connector-curvature="0" />
  </g>
  <path
     d="M 40.73,16.283 54,31 V 17 H 42.465 c -0.68,0 -1.29,-0.276 -1.735,-0.717 z"
     id="path31"
     style="opacity:0.1;fill:url(#c);fill-rule:evenodd"
     inkscape:connector-curvature="0" />
</svg>
