<?xml version="1.0" encoding="UTF-8" standalone="no"?>
<svg
   xmlns:dc="http://purl.org/dc/elements/1.1/"
   xmlns:cc="http://creativecommons.org/ns#"
   xmlns:rdf="http://www.w3.org/1999/02/22-rdf-syntax-ns#"
   xmlns:svg="http://www.w3.org/2000/svg"
   xmlns="http://www.w3.org/2000/svg"
   xmlns:xlink="http://www.w3.org/1999/xlink"
   xmlns:sodipodi="http://sodipodi.sourceforge.net/DTD/sodipodi-0.dtd"
   xmlns:inkscape="http://www.inkscape.org/namespaces/inkscape"
   width="64"
   version="1.1"
   viewBox="0 0 64 64"
   height="64"
   id="svg2"
   inkscape:version="0.92.4 (5da689c313, 2019-01-14)"
   sodipodi:docname="application-x-jar.svg">
  <sodipodi:namedview
     pagecolor="#ffffff"
     bordercolor="#666666"
     borderopacity="1"
     objecttolerance="10"
     gridtolerance="10"
     guidetolerance="10"
     inkscape:pageopacity="0"
     inkscape:pageshadow="2"
     inkscape:window-width="1366"
     inkscape:window-height="707"
     id="namedview24"
     showgrid="false"
     inkscape:zoom="5.5132232"
     inkscape:cx="69.323481"
     inkscape:cy="32"
     inkscape:window-x="0"
     inkscape:window-y="0"
     inkscape:window-maximized="1"
     inkscape:current-layer="svg2"
     inkscape:snap-bbox="true"
     inkscape:bbox-nodes="true">
    <inkscape:grid
       type="xygrid"
       id="grid4209" />
  </sodipodi:namedview>
  <defs
     id="defs4">
    <linearGradient
       inkscape:collect="always"
       id="linearGradient6251">
      <stop
         style="stop-color:#ffffff;stop-opacity:0"
         offset="0"
         id="stop6253" />
      <stop
         style="stop-color:#ffffff;stop-opacity:0.2"
         offset="1"
         id="stop6255" />
    </linearGradient>
    <linearGradient
       inkscape:collect="always"
       xlink:href="#linearGradient6251"
       id="linearGradient832"
       gradientUnits="userSpaceOnUse"
       gradientTransform="matrix(1,0,0,0.84587337,-46.999997,-272.73457)"
       x1="58"
       y1="393.95328"
       x2="58"
       y2="324.65894" />
  </defs>
  <metadata
     id="metadata84">
    <rdf:RDF>
      <cc:Work
         rdf:about="">
        <dc:format>image/svg+xml</dc:format>
        <dc:type
           rdf:resource="http://purl.org/dc/dcmitype/StillImage" />
        <dc:title></dc:title>
      </cc:Work>
    </rdf:RDF>
  </metadata>
  <path
     style="color:#000000;clip-rule:nonzero;display:inline;overflow:visible;visibility:visible;opacity:1;isolation:auto;mix-blend-mode:normal;color-interpolation:sRGB;color-interpolation-filters:linearRGB;solid-color:#000000;solid-opacity:1;fill:#ff8b23;fill-opacity:1;fill-rule:nonzero;stroke:none;stroke-width:1;stroke-linecap:butt;stroke-linejoin:miter;stroke-miterlimit:4;stroke-dasharray:none;stroke-dashoffset:0;stroke-opacity:1;marker:none;color-rendering:auto;image-rendering:auto;shape-rendering:auto;text-rendering:auto;enable-background:accumulate"
     d="m 13.083984,10.999992 c -0.842518,0 -1.644779,0.169553 -2.373046,0.476562 C 9.982669,11.783565 9.32711,12.22757 8.777344,12.777336 8.227578,13.327102 7.783572,13.98266 7.476562,14.71093 7.169553,15.439198 7,16.241458 7,17.083976 v 37.832032 c 0,0.842518 0.169553,1.644778 0.476562,2.373046 0.307011,0.728269 0.751016,1.383828 1.300782,1.933594 0.549766,0.549766 1.205325,0.993772 1.933594,1.300782 0.728267,0.307009 1.530528,0.476562 2.373046,0.476562 H 50.91602 c 0.84251,0 1.64477,-0.169553 2.37304,-0.476562 0.72827,-0.30701 1.38383,-0.751016 1.9336,-1.300782 0.54976,-0.549766 0.99377,-1.205324 1.30078,-1.933594 C 56.83045,56.560787 57,55.758526 57,54.916008 V 17.083976 c 0,-0.842518 -0.16955,-1.644779 -0.47656,-2.373046 -0.30701,-0.728269 -0.75102,-1.383828 -1.30078,-1.933594 -0.54977,-0.549766 -1.20533,-0.993771 -1.9336,-1.300782 -0.72827,-0.307009 -1.53053,-0.476562 -2.37304,-0.476562 z"
     id="path859"
     inkscape:connector-curvature="0" />
  <path
     inkscape:export-ydpi="96"
     inkscape:export-xdpi="96"
     style="opacity:0.4;fill:#000000;fill-opacity:1"
     id="path4238"
     d="m 19.999999,35 0,6 1,0 0,-6 -1,0 z m 4,2 0,3 1,0 0,-3 -1,0 z m -8,1 0,4 1,0 0,-4 -1,0 z m -3,5 0,7 c 0,3.324 2.676,6 6,6 l -5,0 0,1 14,0 0,-1 -5,0 c 2.62066,0 4.83109,-1.66713 5.65234,-4 l 1.84766,0 c 1.385,0 2.5,-1.115 2.5,-2.5 l 0,-2 c 0,-1.385 -1.115,-2.5 -2.5,-2.5 l -1.5,0 0,-2 -16,0 z m 1,1 14,0 0,1 0,1 0,4 c 0,2.77 -2.23,5 -5,5 l -4,0 c -2.77,0 -5,-2.23 -5,-5 l 0,-6 z m 15,2 1.5,0 0.17187,0 c 0.73579,0 1.32813,0.59234 1.32813,1.32812 l 0,2.34375 c 0,0.73579 -0.59234,1.32813 -1.32813,1.32813 l -0.17187,0 -1.58984,0 c 0.0543,-0.32565 0.0898,-0.65846 0.0898,-1 l 0,-4 z"
     inkscape:connector-curvature="0" />
  <path
     inkscape:connector-curvature="0"
     style="opacity:0.4;fill:#000000;fill-opacity:1"
     d="m 40,12 0,2 2,0 0,-2 -2,0 z m 2,2 0,2 2,0 0,-2 -2,0 z m 0,2 -2,0 0,2 2,0 0,-2 z m 0,2 0,2 2,0 0,-2 -2,0 z m 0,2 -2,0 0,2 2,0 0,-2 z m 0,2 0,2 2,0 0,-2 -2,0 z m 0,2 -2,0 0,2 2,0 0,-2 z m -2,3 0,4 1,0 0,4 2,0 0,-4 1,0 0,-4 -4,0 z m 1,1 2,0 0,2 -2,0 0,-2 z"
     id="rect4173-3-3" />
  <path
     style="color:#000000;clip-rule:nonzero;display:inline;overflow:visible;visibility:visible;opacity:0.55199998;isolation:auto;mix-blend-mode:normal;color-interpolation:sRGB;color-interpolation-filters:linearRGB;solid-color:#000000;solid-opacity:1;fill:url(#linearGradient832);fill-opacity:1;fill-rule:nonzero;stroke:none;stroke-width:1;stroke-linecap:butt;stroke-linejoin:miter;stroke-miterlimit:4;stroke-dasharray:none;stroke-dashoffset:0;stroke-opacity:1;marker:none;color-rendering:auto;image-rendering:auto;shape-rendering:auto;text-rendering:auto;enable-background:accumulate"
     d="m 13.083984,10.999992 c -0.842518,0 -1.644778,0.169553 -2.373046,0.476562 C 9.982669,11.783564 9.32711,12.22757 8.777344,12.777336 8.227578,13.327102 7.783572,13.982661 7.476562,14.71093 7.169553,15.439198 7,16.241458 7,17.083976 v 37.832032 c 0,0.842518 0.169553,1.644778 0.476562,2.373046 0.30701,0.728269 0.751016,1.383828 1.300782,1.933594 0.549766,0.549766 1.205325,0.993772 1.933594,1.300782 0.728268,0.307009 1.530528,0.476562 2.373046,0.476562 H 50.91602 c 0.84251,0 1.64477,-0.169553 2.37304,-0.476562 0.72827,-0.30701 1.38383,-0.751016 1.9336,-1.300782 0.54976,-0.549766 0.99377,-1.205325 1.30078,-1.933594 C 56.83045,56.560786 57,55.758526 57,54.916008 V 17.083976 c 0,-0.842518 -0.16955,-1.644778 -0.47656,-2.373046 -0.30701,-0.728269 -0.75102,-1.383828 -1.30078,-1.933594 -0.54977,-0.549766 -1.20533,-0.993772 -1.9336,-1.300782 -0.72827,-0.307009 -1.53053,-0.476562 -2.37304,-0.476562 z"
     id="path824"
     inkscape:connector-curvature="0" />
  <path
     style="color:#000000;clip-rule:nonzero;display:inline;overflow:visible;visibility:visible;opacity:0.5;isolation:auto;mix-blend-mode:normal;color-interpolation:sRGB;color-interpolation-filters:linearRGB;solid-color:#000000;solid-opacity:1;fill:#ffffff;fill-opacity:1;fill-rule:nonzero;stroke:none;stroke-width:1;stroke-linecap:butt;stroke-linejoin:miter;stroke-miterlimit:4;stroke-dasharray:none;stroke-dashoffset:0;stroke-opacity:1;marker:none;color-rendering:auto;image-rendering:auto;shape-rendering:auto;text-rendering:auto;enable-background:accumulate"
     d="m 13.083984,10.999992 c -0.842518,0 -1.644778,0.169553 -2.373046,0.476562 C 9.982669,11.783565 9.32711,12.22757 8.777344,12.777336 8.227578,13.327102 7.783572,13.98266 7.476562,14.71093 7.169553,15.439198 7,16.241458 7,17.083976 v 1.013672 c 0,-0.842518 0.169553,-1.644779 0.476562,-2.373047 0.30701,-0.728269 0.751016,-1.383827 1.300782,-1.933593 0.549766,-0.549766 1.205325,-0.993772 1.933594,-1.300782 0.728268,-0.307009 1.530528,-0.476562 2.373046,-0.476562 H 50.91602 c 0.84251,0 1.64477,0.169553 2.37304,0.476562 0.72827,0.30701 1.38383,0.751016 1.9336,1.300782 0.54976,0.549766 0.99377,1.205324 1.30078,1.933593 C 56.83045,16.452869 57,17.25513 57,18.097648 v -1.013672 c 0,-0.842518 -0.16955,-1.644779 -0.47656,-2.373046 -0.30701,-0.72827 -0.75102,-1.383828 -1.30078,-1.933594 -0.54977,-0.549766 -1.20533,-0.993771 -1.9336,-1.300782 -0.72827,-0.307008 -1.53053,-0.476562 -2.37304,-0.476562 z"
     id="path824-2-6"
     inkscape:connector-curvature="0" />
  <path
     style="color:#000000;clip-rule:nonzero;display:inline;overflow:visible;visibility:visible;opacity:0.25;isolation:auto;mix-blend-mode:normal;color-interpolation:sRGB;color-interpolation-filters:linearRGB;solid-color:#000000;solid-opacity:1;fill:#000000;fill-opacity:1;fill-rule:nonzero;stroke:none;stroke-width:1;stroke-linecap:butt;stroke-linejoin:miter;stroke-miterlimit:4;stroke-dasharray:none;stroke-dashoffset:0;stroke-opacity:1;marker:none;color-rendering:auto;image-rendering:auto;shape-rendering:auto;text-rendering:auto;enable-background:accumulate"
     d="m 57,54.029289 c 0,0.842518 -0.16955,1.644779 -0.47656,2.373047 -0.30701,0.728269 -0.75102,1.383828 -1.30078,1.933594 -0.54977,0.549766 -1.20533,0.993771 -1.9336,1.300781 -0.72827,0.307009 -1.53053,0.476562 -2.37304,0.476562 H 13.083984 c -0.842518,0 -1.644779,-0.169553 -2.373046,-0.476562 C 9.982668,59.329701 9.32711,58.885695 8.777344,58.33593 8.227578,57.786164 7.783572,57.130605 7.476562,56.402336 7.169553,55.674068 7,54.871807 7,54.029289 v 0.886719 c 0,0.842518 0.169553,1.644778 0.476562,2.373046 0.30701,0.728269 0.751016,1.383828 1.300782,1.933594 0.549766,0.549766 1.205324,0.993772 1.933594,1.300782 0.728267,0.307009 1.530528,0.476562 2.373046,0.476562 H 50.91602 c 0.84251,0 1.64477,-0.169553 2.37304,-0.476562 0.72827,-0.30701 1.38383,-0.751016 1.9336,-1.300782 0.54976,-0.549766 0.99377,-1.205324 1.30078,-1.933594 C 56.83045,56.560787 57,55.758526 57,54.916008 Z"
     id="path947"
     inkscape:connector-curvature="0" />
</svg>
