<?xml version="1.0" encoding="UTF-8" standalone="no"?>
<svg
   xmlns:dc="http://purl.org/dc/elements/1.1/"
   xmlns:cc="http://creativecommons.org/ns#"
   xmlns:rdf="http://www.w3.org/1999/02/22-rdf-syntax-ns#"
   xmlns:svg="http://www.w3.org/2000/svg"
   xmlns="http://www.w3.org/2000/svg"
   xmlns:xlink="http://www.w3.org/1999/xlink"
   xmlns:sodipodi="http://sodipodi.sourceforge.net/DTD/sodipodi-0.dtd"
   xmlns:inkscape="http://www.inkscape.org/namespaces/inkscape"
   width="64"
   version="1.1"
   viewBox="0 0 64 64"
   height="64"
   id="svg2"
   inkscape:version="0.92.4 (5da689c313, 2019-01-14)"
   sodipodi:docname="application-x-tarz.svg">
  <sodipodi:namedview
     pagecolor="#ffffff"
     bordercolor="#666666"
     borderopacity="1"
     objecttolerance="10"
     gridtolerance="10"
     guidetolerance="10"
     inkscape:pageopacity="0"
     inkscape:pageshadow="2"
     inkscape:window-width="1366"
     inkscape:window-height="707"
     id="namedview24"
     showgrid="false"
     inkscape:zoom="7.796875"
     inkscape:cx="32"
     inkscape:cy="32"
     inkscape:window-x="0"
     inkscape:window-y="0"
     inkscape:window-maximized="1"
     inkscape:current-layer="svg2" />
  <defs
     id="defs4">
    <linearGradient
       inkscape:collect="always"
       id="linearGradient6251">
      <stop
         style="stop-color:#ffffff;stop-opacity:0"
         offset="0"
         id="stop6253" />
      <stop
         style="stop-color:#ffffff;stop-opacity:0.2"
         offset="1"
         id="stop6255" />
    </linearGradient>
    <linearGradient
       inkscape:collect="always"
       xlink:href="#linearGradient6251"
       id="linearGradient832"
       gradientUnits="userSpaceOnUse"
       gradientTransform="matrix(1,0,0,0.84587337,-46.999997,-272.73456)"
       x1="58"
       y1="393.95328"
       x2="58"
       y2="324.65894" />
  </defs>
  <metadata
     id="metadata84">
    <rdf:RDF>
      <cc:Work
         rdf:about="">
        <dc:format>image/svg+xml</dc:format>
        <dc:type
           rdf:resource="http://purl.org/dc/dcmitype/StillImage" />
        <dc:title></dc:title>
      </cc:Work>
    </rdf:RDF>
  </metadata>
  <path
     style="color:#000000;clip-rule:nonzero;display:inline;overflow:visible;visibility:visible;opacity:1;isolation:auto;mix-blend-mode:normal;color-interpolation:sRGB;color-interpolation-filters:linearRGB;solid-color:#000000;solid-opacity:1;fill:#e5210e;fill-opacity:1;fill-rule:nonzero;stroke:none;stroke-width:1;stroke-linecap:butt;stroke-linejoin:miter;stroke-miterlimit:4;stroke-dasharray:none;stroke-dashoffset:0;stroke-opacity:1;marker:none;color-rendering:auto;image-rendering:auto;shape-rendering:auto;text-rendering:auto;enable-background:accumulate"
     d="m 13.083984,11 c -0.842518,0 -1.644779,0.169553 -2.373046,0.476562 C 9.982669,11.783573 9.32711,12.227578 8.777344,12.777344 8.227578,13.32711 7.783572,13.982668 7.476562,14.710938 7.169553,15.439206 7,16.241466 7,17.083984 v 37.832032 c 0,0.842518 0.169553,1.644778 0.476562,2.373046 0.307011,0.728269 0.751016,1.383828 1.300782,1.933594 0.549766,0.549766 1.205325,0.993772 1.933594,1.300782 C 11.439205,60.830447 12.241466,61 13.083984,61 H 50.91602 c 0.84251,0 1.64477,-0.169553 2.37304,-0.476562 0.72827,-0.30701 1.38383,-0.751016 1.9336,-1.300782 0.54976,-0.549766 0.99377,-1.205324 1.30078,-1.933594 C 56.83045,56.560795 57,55.758534 57,54.916016 V 17.083984 C 57,16.241466 56.83045,15.439205 56.52344,14.710938 56.21643,13.982669 55.77242,13.32711 55.22266,12.777344 54.67289,12.227578 54.01733,11.783573 53.28906,11.476562 52.56079,11.169553 51.75853,11 50.91602,11 Z"
     id="path859"
     inkscape:connector-curvature="0" />
  <path
     inkscape:connector-curvature="0"
     style="opacity:0.75;fill:#ffffff;fill-opacity:1"
     d="m 30,12 v 2 h 2 v -2 z m 2,2 v 2 h 2 v -2 z m 0,2 h -2 v 2 h 2 z m 0,2 v 2 h 2 v -2 z m 0,2 h -2 v 2 h 2 z m 0,2 v 2 h 2 v -2 z m 0,2 h -2 v 2 h 2 z m -2,3 v 4 h 1 v 4 h 2 v -4 h 1 v -4 z m 1,1 h 2 v 2 h -2 z"
     id="rect4173-3-3-7" />
  <path
     style="color:#000000;clip-rule:nonzero;display:inline;overflow:visible;visibility:visible;opacity:0.55199998;isolation:auto;mix-blend-mode:normal;color-interpolation:sRGB;color-interpolation-filters:linearRGB;solid-color:#000000;solid-opacity:1;fill:url(#linearGradient832);fill-opacity:1;fill-rule:nonzero;stroke:none;stroke-width:1;stroke-linecap:butt;stroke-linejoin:miter;stroke-miterlimit:4;stroke-dasharray:none;stroke-dashoffset:0;stroke-opacity:1;marker:none;color-rendering:auto;image-rendering:auto;shape-rendering:auto;text-rendering:auto;enable-background:accumulate"
     d="m 13.083984,11 c -0.842518,0 -1.644778,0.169553 -2.373046,0.476562 C 9.982669,11.783572 9.32711,12.227578 8.777344,12.777344 8.227578,13.32711 7.783572,13.982669 7.476562,14.710938 7.169553,15.439206 7,16.241466 7,17.083984 v 37.832032 c 0,0.842518 0.169553,1.644778 0.476562,2.373046 0.30701,0.728269 0.751016,1.383828 1.300782,1.933594 0.549766,0.549766 1.205325,0.993772 1.933594,1.300782 C 11.439206,60.830447 12.241466,61 13.083984,61 H 50.91602 c 0.84251,0 1.64477,-0.169553 2.37304,-0.476562 0.72827,-0.30701 1.38383,-0.751016 1.9336,-1.300782 0.54976,-0.549766 0.99377,-1.205325 1.30078,-1.933594 C 56.83045,56.560794 57,55.758534 57,54.916016 V 17.083984 C 57,16.241466 56.83045,15.439206 56.52344,14.710938 56.21643,13.982669 55.77242,13.32711 55.22266,12.777344 54.67289,12.227578 54.01733,11.783572 53.28906,11.476562 52.56079,11.169553 51.75853,11 50.91602,11 Z"
     id="path824"
     inkscape:connector-curvature="0" />
  <path
     style="color:#000000;clip-rule:nonzero;display:inline;overflow:visible;visibility:visible;opacity:0.5;isolation:auto;mix-blend-mode:normal;color-interpolation:sRGB;color-interpolation-filters:linearRGB;solid-color:#000000;solid-opacity:1;fill:#ffffff;fill-opacity:1;fill-rule:nonzero;stroke:none;stroke-width:1;stroke-linecap:butt;stroke-linejoin:miter;stroke-miterlimit:4;stroke-dasharray:none;stroke-dashoffset:0;stroke-opacity:1;marker:none;color-rendering:auto;image-rendering:auto;shape-rendering:auto;text-rendering:auto;enable-background:accumulate"
     d="m 13.083984,11 c -0.842518,0 -1.644778,0.169553 -2.373046,0.476562 C 9.982669,11.783573 9.32711,12.227578 8.777344,12.777344 8.227578,13.32711 7.783572,13.982668 7.476562,14.710938 7.169553,15.439206 7,16.241466 7,17.083984 v 1.013672 c 0,-0.842518 0.169553,-1.644779 0.476562,-2.373047 0.30701,-0.728269 0.751016,-1.383827 1.300782,-1.933593 0.549766,-0.549766 1.205325,-0.993772 1.933594,-1.300782 0.728268,-0.307009 1.530528,-0.476562 2.373046,-0.476562 H 50.91602 c 0.84251,0 1.64477,0.169553 2.37304,0.476562 0.72827,0.30701 1.38383,0.751016 1.9336,1.300782 0.54976,0.549766 0.99377,1.205324 1.30078,1.933593 C 56.83045,16.452877 57,17.255138 57,18.097656 V 17.083984 C 57,16.241466 56.83045,15.439205 56.52344,14.710938 56.21643,13.982668 55.77242,13.32711 55.22266,12.777344 54.67289,12.227578 54.01733,11.783573 53.28906,11.476562 52.56079,11.169554 51.75853,11 50.91602,11 Z"
     id="path824-2-6"
     inkscape:connector-curvature="0" />
  <path
     style="color:#000000;clip-rule:nonzero;display:inline;overflow:visible;visibility:visible;opacity:0.25;isolation:auto;mix-blend-mode:normal;color-interpolation:sRGB;color-interpolation-filters:linearRGB;solid-color:#000000;solid-opacity:1;fill:#000000;fill-opacity:1;fill-rule:nonzero;stroke:none;stroke-width:1;stroke-linecap:butt;stroke-linejoin:miter;stroke-miterlimit:4;stroke-dasharray:none;stroke-dashoffset:0;stroke-opacity:1;marker:none;color-rendering:auto;image-rendering:auto;shape-rendering:auto;text-rendering:auto;enable-background:accumulate"
     d="m 57,54.029297 c 0,0.842518 -0.16955,1.644779 -0.47656,2.373047 -0.30701,0.728269 -0.75102,1.383828 -1.30078,1.933594 -0.54977,0.549766 -1.20533,0.993771 -1.9336,1.300781 -0.72827,0.307009 -1.53053,0.476562 -2.37304,0.476562 H 13.083984 c -0.842518,0 -1.644779,-0.169553 -2.373046,-0.476562 C 9.982668,59.329709 9.32711,58.885703 8.777344,58.335938 8.227578,57.786172 7.783572,57.130613 7.476562,56.402344 7.169553,55.674076 7,54.871815 7,54.029297 v 0.886719 c 0,0.842518 0.169553,1.644778 0.476562,2.373046 0.30701,0.728269 0.751016,1.383828 1.300782,1.933594 0.549766,0.549766 1.205324,0.993772 1.933594,1.300782 C 11.439205,60.830447 12.241466,61 13.083984,61 H 50.91602 c 0.84251,0 1.64477,-0.169553 2.37304,-0.476562 0.72827,-0.30701 1.38383,-0.751016 1.9336,-1.300782 0.54976,-0.549766 0.99377,-1.205324 1.30078,-1.933594 C 56.83045,56.560795 57,55.758534 57,54.916016 Z"
     id="path947"
     inkscape:connector-curvature="0" />
</svg>
