<?xml version="1.0" encoding="UTF-8" standalone="no"?>
<svg
   xmlns:dc="http://purl.org/dc/elements/1.1/"
   xmlns:cc="http://creativecommons.org/ns#"
   xmlns:rdf="http://www.w3.org/1999/02/22-rdf-syntax-ns#"
   xmlns:svg="http://www.w3.org/2000/svg"
   xmlns="http://www.w3.org/2000/svg"
   xmlns:xlink="http://www.w3.org/1999/xlink"
   xmlns:sodipodi="http://sodipodi.sourceforge.net/DTD/sodipodi-0.dtd"
   xmlns:inkscape="http://www.inkscape.org/namespaces/inkscape"
   width="64"
   height="64"
   version="1.1"
   id="svg31"
   sodipodi:docname="application-x-m4.svg"
   inkscape:version="0.92.4 (5da689c313, 2019-01-14)">
  <metadata
     id="metadata35">
    <rdf:RDF>
      <cc:Work
         rdf:about="">
        <dc:format>image/svg+xml</dc:format>
        <dc:type
           rdf:resource="http://purl.org/dc/dcmitype/StillImage" />
        <dc:title></dc:title>
      </cc:Work>
    </rdf:RDF>
  </metadata>
  <sodipodi:namedview
     pagecolor="#ffffff"
     bordercolor="#666666"
     borderopacity="1"
     objecttolerance="10"
     gridtolerance="10"
     guidetolerance="10"
     inkscape:pageopacity="0"
     inkscape:pageshadow="2"
     inkscape:window-width="848"
     inkscape:window-height="480"
     id="namedview33"
     showgrid="false"
     inkscape:zoom="3.6875"
     inkscape:cx="3.9322034"
     inkscape:cy="32"
     inkscape:window-x="0"
     inkscape:window-y="25"
     inkscape:window-maximized="0"
     inkscape:current-layer="svg31" />
  <defs
     id="defs13">
    <linearGradient
       xlink:href="#a"
       id="b"
       gradientUnits="userSpaceOnUse"
       x1="0"
       y1="60.774"
       x2="0"
       y2="2.345" />
    <linearGradient
       id="a"
       y1="392.36"
       y2="336.36"
       x2="0"
       gradientUnits="userSpaceOnUse"
       gradientTransform="translate(254 -254)">
      <stop
         stop-color="#fff"
         stop-opacity="0"
         id="stop3" />
      <stop
         offset="1"
         stop-color="#fff"
         stop-opacity=".2"
         id="stop5" />
    </linearGradient>
    <linearGradient
       id="c"
       y1="17.475"
       y2="31"
       x1="41.616"
       x2="54"
       gradientUnits="userSpaceOnUse">
      <stop
         stop-color="#060606"
         id="stop8" />
      <stop
         offset="1"
         stop-opacity="0"
         id="stop10" />
    </linearGradient>
  </defs>
  <path
     d="M 40,3 H 15 c -2.77,0 -5,2.23 -5,5 v 48 c 0,2.77 2.23,5 5,5 h 34 c 2.77,0 5,-2.23 5,-5 V 17 Z"
     id="path15"
     inkscape:connector-curvature="0"
     style="fill:#d2d6d9" />
  <g
     style="color:#000000;isolation:auto;mix-blend-mode:normal;solid-color:#000000;solid-opacity:1;fill:#4b5560"
     id="g19">
    <path
       d="m 35.883,29.17 c 0.035,-0.284 0.062,-0.572 0.062,-0.865 0,-0.293 -0.027,-0.581 -0.062,-0.865 l 1.876,-1.468 a 0.442,0.442 0 0 0 0.106,-0.568 L 36.091,22.33 A 0.439,0.439 0 0 0 35.55,22.139 l -2.209,0.891 a 6.744,6.744 0 0 0 -1.499,-0.874 l -0.333,-2.351 a 0.457,0.457 0 0 0 -0.444,-0.373 h -3.548 a 0.447,0.447 0 0 0 -0.439,0.373 l -0.333,2.351 a 6.556,6.556 0 0 0 -1.499,0.874 l -2.209,-0.891 c -0.2,-0.075 -0.43,0 -0.541,0.191 l -1.774,3.074 a 0.445,0.445 0 0 0 0.106,0.568 L 22.7,27.44 a 7.057,7.057 0 0 0 -0.062,0.865 c 0,0.293 0.027,0.581 0.062,0.865 l -1.872,1.468 a 0.442,0.442 0 0 0 -0.106,0.568 l 1.774,3.074 c 0.111,0.191 0.342,0.271 0.541,0.191 l 2.209,-0.891 c 0.457,0.35 0.958,0.648 1.499,0.874 l 0.333,2.351 a 0.448,0.448 0 0 0 0.439,0.373 h 3.548 a 0.447,0.447 0 0 0 0.439,-0.373 l 0.333,-2.351 a 6.556,6.556 0 0 0 1.499,-0.874 l 2.209,0.891 c 0.2,0.075 0.43,0 0.541,-0.191 l 1.774,-3.074 a 0.445,0.445 0 0 0 -0.106,-0.568 z m -6.591,2.24 a 3.103,3.103 0 0 1 -3.105,-3.105 3.103,3.103 0 0 1 3.105,-3.105 3.103,3.103 0 0 1 3.105,3.105 3.103,3.103 0 0 1 -3.105,3.105 M 40.96,44.841 c 0.122,-0.17 0.241,-0.346 0.343,-0.534 0.103,-0.188 0.187,-0.383 0.263,-0.578 l 1.721,-0.285 a 0.325,0.325 0 0 0 0.268,-0.328 L 43.493,40.519 A 0.32,0.32 0 0 0 43.212,40.207 L 41.48,40.005 a 4.96,4.96 0 0 0 -0.657,-1.087 l 0.611,-1.627 A 0.335,0.335 0 0 0 41.28,36.896 L 39,35.652 a 0.328,0.328 0 0 0 -0.413,0.085 l -1.038,1.394 a 4.816,4.816 0 0 0 -1.27,0.036 l -1.107,-1.348 a 0.325,0.325 0 0 0 -0.415,-0.067 l -2.218,1.353 a 0.326,0.326 0 0 0 -0.131,0.402 l 0.688,1.6 c -0.122,0.17 -0.241,0.346 -0.343,0.534 a 4.897,4.897 0 0 0 -0.263,0.578 l -1.718,0.287 a 0.325,0.325 0 0 0 -0.268,0.328 l 0.062,2.597 a 0.32,0.32 0 0 0 0.281,0.312 l 1.732,0.202 c 0.171,0.385 0.389,0.752 0.657,1.087 l -0.611,1.627 a 0.327,0.327 0 0 0 0.152,0.393 l 2.28,1.244 a 0.328,0.328 0 0 0 0.413,-0.085 l 1.038,-1.394 c 0.427,0.044 0.852,0.032 1.27,-0.036 l 1.107,1.348 a 0.325,0.325 0 0 0 0.415,0.067 l 2.218,-1.353 a 0.326,0.326 0 0 0 0.131,-0.402 z m -5.02,-0.872 a 2.271,2.271 0 0 1 -0.906,-3.084 2.271,2.271 0 0 1 3.084,-0.906 2.271,2.271 0 0 1 0.906,3.084 2.271,2.271 0 0 1 -3.084,0.906"
       style="overflow:visible;isolation:auto;mix-blend-mode:normal;solid-color:#000000;solid-opacity:1"
       overflow="visible"
       id="path17"
       inkscape:connector-curvature="0" />
  </g>
  <path
     d="M 40,3 H 15 c -2.77,0 -5,2.23 -5,5 v 48 c 0,2.77 2.23,5 5,5 h 34 c 2.77,0 5,-2.23 5,-5 V 17 Z"
     id="path21"
     style="fill:url(#b)"
     inkscape:connector-curvature="0" />
  <path
     d="M 40,3 H 15 C 12.23,3 10,5.23 10,8 V 9.014 A 5.005,5.005 0 0 1 11.46,5.474 4.989,4.989 0 0 1 15,4.015 H 40 V 4 Z"
     id="path23"
     inkscape:connector-curvature="0"
     style="opacity:0.5;fill:#ffffff" />
  <path
     d="M 54,54.86 A 5.004,5.004 0 0 1 52.54,58.398 4.989,4.989 0 0 1 49,59.86 H 15 A 5.005,5.005 0 0 1 11.46,58.4 4.989,4.989 0 0 1 10,54.86 V 56 c 0,2.77 2.23,5 5,5 h 34 c 2.77,0 5,-2.23 5,-5 z"
     id="path25"
     inkscape:connector-curvature="0"
     style="opacity:0.25;fill-opacity:0.99199997" />
  <path
     d="M 40,3 V 14.535 A 2.456,2.456 0 0 0 42.465,17 H 54 Z"
     id="path27"
     inkscape:connector-curvature="0"
     style="fill:#5e6b78;fill-rule:evenodd" />
  <path
     d="M 40.73,16.283 54,31 V 17 H 42.465 c -0.68,0 -1.29,-0.276 -1.735,-0.717 z"
     id="path29"
     style="opacity:0.2;fill:url(#c);fill-rule:evenodd"
     inkscape:connector-curvature="0" />
</svg>
