<?xml version="1.0" encoding="UTF-8" standalone="no"?>
<svg
   xmlns:dc="http://purl.org/dc/elements/1.1/"
   xmlns:cc="http://creativecommons.org/ns#"
   xmlns:rdf="http://www.w3.org/1999/02/22-rdf-syntax-ns#"
   xmlns:svg="http://www.w3.org/2000/svg"
   xmlns="http://www.w3.org/2000/svg"
   xmlns:xlink="http://www.w3.org/1999/xlink"
   xmlns:sodipodi="http://sodipodi.sourceforge.net/DTD/sodipodi-0.dtd"
   xmlns:inkscape="http://www.inkscape.org/namespaces/inkscape"
   width="64"
   height="64"
   version="1.1"
   id="svg31"
   sodipodi:docname="application-x-krita.svg"
   inkscape:version="0.92.4 (5da689c313, 2019-01-14)">
  <metadata
     id="metadata35">
    <rdf:RDF>
      <cc:Work
         rdf:about="">
        <dc:format>image/svg+xml</dc:format>
        <dc:type
           rdf:resource="http://purl.org/dc/dcmitype/StillImage" />
        <dc:title></dc:title>
      </cc:Work>
    </rdf:RDF>
  </metadata>
  <sodipodi:namedview
     pagecolor="#ffffff"
     bordercolor="#666666"
     borderopacity="1"
     objecttolerance="10"
     gridtolerance="10"
     guidetolerance="10"
     inkscape:pageopacity="0"
     inkscape:pageshadow="2"
     inkscape:window-width="848"
     inkscape:window-height="480"
     id="namedview33"
     showgrid="false"
     inkscape:zoom="3.6875"
     inkscape:cx="3.9322034"
     inkscape:cy="32"
     inkscape:window-x="0"
     inkscape:window-y="25"
     inkscape:window-maximized="0"
     inkscape:current-layer="svg31" />
  <defs
     id="defs13">
    <linearGradient
       id="a"
       y1="392.36"
       y2="320.48"
       x2="0"
       gradientUnits="userSpaceOnUse"
       gradientTransform="matrix(1 0 0 .84587 -34 -272.73)">
      <stop
         stop-color="#fff"
         stop-opacity="0"
         id="stop2" />
      <stop
         offset="1"
         stop-color="#fff"
         stop-opacity=".2"
         id="stop4" />
    </linearGradient>
    <linearGradient
       xlink:href="#a"
       id="b"
       gradientUnits="userSpaceOnUse"
       x1="-75"
       y1="59"
       x2="-75"
       y2="-1"
       gradientTransform="translate(40)" />
    <linearGradient
       gradientTransform="translate(6,8)"
       id="c"
       y1="17.475"
       y2="31"
       x1="41.616"
       x2="54"
       gradientUnits="userSpaceOnUse">
      <stop
         stop-color="#060606"
         id="stop8" />
      <stop
         offset="1"
         stop-opacity="0"
         id="stop10" />
    </linearGradient>
  </defs>
  <path
     d="M 46,11 H 9 c -2.77,0 -5,2.23 -5,5 v 40 c 0,2.77 2.23,5 5,5 h 46 c 2.77,0 5,-2.23 5,-5 V 25 Z"
     id="path15"
     inkscape:connector-curvature="0"
     style="fill:#fc7676" />
  <path
     d="m 16.928,20.527 c -0.061,-0.005 -0.106,0.007 -0.137,0.037 -0.968,0.968 16.932,17.9 16.932,17.9 l 4.959,4.719 c -0.142,4.217 3.768,3.856 4.85,5.748 0.474,0.83 -0.458,1.891 -1.322,1.949 1.716,0.566 3.735,-2.696 3.041,-4.557 -0.829,-2.221 -1.836,-2.852 -3.414,-3.525 -0.652,-0.278 -1.768,-0.101 -2.428,-0.342 l -4.596,-5.08 c 0,0 -16,-16.686 -17.885,-16.85"
     id="path17"
     inkscape:connector-curvature="0"
     style="opacity:0.6" />
  <path
     d="m 23.365,38.764 c 0.083,1.719 1.17,6.732 6.57,10.386 4.548,3.077 12.867,1.966 12.733,0.218 -1.83,-2.273 -4.891,-0.853 -4.931,-6.295 -1.78,0.013 -3.695,-0.266 -3.624,0.483 0.299,3.138 -4.676,0.875 -6.605,-2.326 -3.443,-5.215 -4.143,-4.453 -4.142,-2.466 m 7.664,2.364 c -0.295,0 -0.532,0.097 -0.645,0.291 -0.224,0.389 0.139,1.02 0.814,1.41 0.675,0.39 1.404,0.391 1.629,0.002 0.224,-0.389 -0.141,-1.02 -0.816,-1.41 -0.338,-0.195 -0.982,0.002 -0.982,-0.293"
     id="path19"
     inkscape:connector-curvature="0"
     style="opacity:0.6" />
  <path
     d="M 46,11 H 9 c -2.77,0 -5,2.23 -5,5 v 40 c 0,2.77 2.23,5 5,5 h 46 c 2.77,0 5,-2.23 5,-5 V 25 Z"
     id="path21"
     style="fill:url(#b)"
     inkscape:connector-curvature="0" />
  <path
     d="m 60,54.986 a 5.005,5.005 0 0 1 -1.46,3.54 4.989,4.989 0 0 1 -3.54,1.46 H 9 A 5.005,5.005 0 0 1 5.46,58.526 4.989,4.989 0 0 1 4,54.985 V 56 c 0,2.77 2.23,5 5,5 h 46 c 2.77,0 5,-2.23 5,-5 z"
     id="path23"
     inkscape:connector-curvature="0"
     style="opacity:0.25" />
  <path
     d="M 46,11 H 9 c -2.77,0 -5,2.23 -5,5 v 1.14 A 5.005,5.005 0 0 1 5.46,13.602 4.989,4.989 0 0 1 9,12.14 h 37 z"
     id="path25"
     inkscape:connector-curvature="0"
     style="opacity:0.3;fill:#ffffff" />
  <path
     d="M 46.73,24.283 60,39 V 25 H 48.465 c -0.68,0 -1.29,-0.276 -1.735,-0.717 z"
     id="path27"
     style="opacity:0.1;fill:url(#c);fill-rule:evenodd"
     inkscape:connector-curvature="0" />
  <path
     d="M 46,11 V 22.535 A 2.456,2.456 0 0 0 48.465,25 H 60 Z"
     id="path29"
     inkscape:connector-curvature="0"
     style="opacity:0.6;fill-rule:evenodd" />
</svg>
