<?xml version="1.0" encoding="UTF-8" standalone="no"?>
<svg
   xmlns:dc="http://purl.org/dc/elements/1.1/"
   xmlns:cc="http://creativecommons.org/ns#"
   xmlns:rdf="http://www.w3.org/1999/02/22-rdf-syntax-ns#"
   xmlns:svg="http://www.w3.org/2000/svg"
   xmlns="http://www.w3.org/2000/svg"
   xmlns:xlink="http://www.w3.org/1999/xlink"
   xmlns:sodipodi="http://sodipodi.sourceforge.net/DTD/sodipodi-0.dtd"
   xmlns:inkscape="http://www.inkscape.org/namespaces/inkscape"
   width="64"
   height="64"
   version="1.1"
   id="svg29"
   sodipodi:docname="application-dicom.svg"
   inkscape:version="0.92.4 (5da689c313, 2019-01-14)">
  <metadata
     id="metadata33">
    <rdf:RDF>
      <cc:Work
         rdf:about="">
        <dc:format>image/svg+xml</dc:format>
        <dc:type
           rdf:resource="http://purl.org/dc/dcmitype/StillImage" />
        <dc:title></dc:title>
      </cc:Work>
    </rdf:RDF>
  </metadata>
  <sodipodi:namedview
     pagecolor="#ffffff"
     bordercolor="#666666"
     borderopacity="1"
     objecttolerance="10"
     gridtolerance="10"
     guidetolerance="10"
     inkscape:pageopacity="0"
     inkscape:pageshadow="2"
     inkscape:window-width="848"
     inkscape:window-height="480"
     id="namedview31"
     showgrid="false"
     inkscape:zoom="3.6875"
     inkscape:cx="3.9322034"
     inkscape:cy="32"
     inkscape:window-x="0"
     inkscape:window-y="25"
     inkscape:window-maximized="0"
     inkscape:current-layer="svg29" />
  <defs
     id="defs13">
    <linearGradient
       xlink:href="#a"
       id="b"
       gradientUnits="userSpaceOnUse"
       x1="0"
       y1="60.774"
       x2="0"
       y2="2.345" />
    <linearGradient
       id="a"
       y1="392.36"
       y2="336.36"
       x2="0"
       gradientUnits="userSpaceOnUse"
       gradientTransform="translate(254 -254)">
      <stop
         stop-color="#fff"
         stop-opacity="0"
         id="stop3" />
      <stop
         offset="1"
         stop-color="#fff"
         stop-opacity=".2"
         id="stop5" />
    </linearGradient>
    <linearGradient
       id="c"
       y1="17.475"
       y2="31"
       x1="41.616"
       x2="54"
       gradientUnits="userSpaceOnUse">
      <stop
         stop-color="#060606"
         id="stop8" />
      <stop
         offset="1"
         stop-opacity="0"
         id="stop10" />
    </linearGradient>
  </defs>
  <path
     d="M 40,3 H 15 c -2.77,0 -5,2.23 -5,5 v 48 c 0,2.77 2.23,5 5,5 h 34 c 2.77,0 5,-2.23 5,-5 V 17 Z"
     id="path15"
     inkscape:connector-curvature="0"
     style="fill:#555555" />
  <path
     d="m 30.3,20 c -1.254,0 -2.889,0.693 -4.384,1.857 -0.897,0.377 -1.527,1.249 -1.527,2.263 0,0.318 0.061,0.628 0.179,0.917 -1.55,0.294 -2.724,1.629 -2.724,3.23 0,0.333 0.051,0.661 0.152,0.978 -0.639,0.617 -1,1.454 -1,2.339 0,0.692 0.22,1.334 0.595,1.865 a 3.212,3.212 0 0 0 -0.595,1.868 c 0,1.197 0.667,2.293 1.724,2.871 a 3.695,3.695 0 0 0 -0.027,0.446 c 0,1.614 1.078,3.041 2.64,3.527 a 3.797,3.797 0 0 0 3.27,1.838 3.804,3.804 0 0 0 3.393,-2.057 3.804,3.804 0 0 0 3.393,2.057 3.8,3.8 0 0 0 3.272,-1.838 c 1.563,-0.486 2.638,-1.913 2.638,-3.527 0,-0.149 -0.009,-0.298 -0.027,-0.446 a 3.283,3.283 0 0 0 1.724,-2.871 c 0,-0.676 -0.204,-1.318 -0.593,-1.868 0.374,-0.53 0.593,-1.173 0.593,-1.865 0,-0.885 -0.361,-1.723 -1,-2.339 0.101,-0.317 0.152,-0.645 0.152,-0.978 0,-1.6 -1.174,-2.936 -2.724,-3.23 a 2.42,2.42 0 0 0 0.179,-0.917 c 0,-1.014 -0.63,-1.886 -1.527,-2.263 C 36.581,20.693 34.947,20 33.692,20 A 2.11,2.11 0 0 0 31.995,20.85 2.108,2.108 0 0 0 30.298,20 m 0,0.778 c 0.716,0 1.299,0.57 1.299,1.27 v 5.03 A 2.113,2.113 0 0 0 30.298,26.634 0.393,0.393 0 0 0 29.9,27.023 c 0,0.215 0.178,0.389 0.398,0.389 0.716,0 1.299,0.57 1.299,1.27 v 9.344 a 3.792,3.792 0 0 0 -2.01,-1.31 0.4,0.4 0 0 0 -0.488,0.275 0.39,0.39 0 0 0 0.281,0.477 c 1.306,0.343 2.217,1.505 2.217,2.826 0,1.615 -1.344,2.929 -2.995,2.929 a 2.998,2.998 0 0 1 -2.65,-1.569 0.398,0.398 0 0 0 -0.25,-0.194 c -1.305,-0.343 -2.215,-1.504 -2.215,-2.824 0,-0.197 0.02,-0.396 0.06,-0.589 A 0.387,0.387 0 0 0 23.319,37.614 2.514,2.514 0 0 1 21.79,35.318 c 0,-0.451 0.119,-0.882 0.347,-1.264 a 3.394,3.394 0 0 0 2.223,0.824 c 0.22,0 0.398,-0.174 0.398,-0.389 A 0.393,0.393 0 0 0 24.36,34.1 c -1.418,0 -2.57,-1.129 -2.57,-2.515 0,-0.746 0.337,-1.45 0.924,-1.929 a 0.382,0.382 0 0 0 0.113,-0.444 2.44,2.44 0 0 1 -0.189,-0.944 c 0,-1.386 1.152,-2.513 2.57,-2.513 1.418,0 2.572,1.127 2.572,2.513 0,0.215 0.178,0.389 0.398,0.389 0.22,0 0.398,-0.174 0.398,-0.389 0,-1.744 -1.395,-3.174 -3.151,-3.283 a 1.65,1.65 0 0 1 -0.242,-0.864 c 0,-0.693 0.43,-1.288 1.043,-1.546 a 0.34,0.34 0 0 0 0.068,-0.029 c 0.19,-0.071 0.395,-0.109 0.61,-0.109 0.666,0 1.261,0.364 1.552,0.949 a 0.4,0.4 0 0 0 0.53,0.179 0.383,0.383 0 0 0 0.183,-0.519 2.524,2.524 0 0 0 -1.685,-1.319 c 1.015,-0.605 2.01,-0.949 2.812,-0.949 m 3.393,0 c 0.798,0 1.797,0.344 2.812,0.949 a 2.527,2.527 0 0 0 -1.685,1.319 0.384,0.384 0 0 0 0.183,0.519 0.402,0.402 0 0 0 0.532,-0.179 1.714,1.714 0 0 1 1.55,-0.949 1.732,1.732 0 0 1 0.68,0.138 1.684,1.684 0 0 1 1.043,1.546 c 0,0.307 -0.085,0.604 -0.244,0.864 -1.756,0.109 -3.149,1.539 -3.149,3.283 0,0.215 0.178,0.389 0.398,0.389 0.22,0 0.398,-0.174 0.398,-0.389 0,-1.386 1.152,-2.513 2.57,-2.513 1.418,0 2.572,1.127 2.572,2.513 0,0.324 -0.064,0.641 -0.189,0.944 a 0.383,0.383 0 0 0 0.113,0.444 c 0.587,0.48 0.924,1.183 0.924,1.929 0,1.386 -1.154,2.515 -2.572,2.515 a 0.393,0.393 0 0 0 -0.398,0.389 c 0,0.215 0.178,0.389 0.398,0.389 0.852,0 1.629,-0.312 2.223,-0.824 0.228,0.382 0.349,0.813 0.349,1.264 0,0.991 -0.6,1.892 -1.529,2.296 a 0.387,0.387 0 0 0 -0.228,0.433 c 0.04,0.193 0.06,0.392 0.06,0.589 0,1.32 -0.912,2.48 -2.217,2.824 a 0.398,0.398 0 0 0 -0.248,0.194 3,3 0 0 1 -2.652,1.569 c -1.652,0 -2.995,-1.314 -2.995,-2.929 0,-0.109 -0.006,-0.219 -0.016,-0.326 a 0.352,0.352 0 0 0 0.016,-0.103 V 27.024 c 0,-0.7 0.583,-1.27 1.299,-1.27 0.22,0 0.398,-0.174 0.398,-0.389 a 0.393,0.393 0 0 0 -0.398,-0.389 c -0.49,0 -0.941,0.167 -1.299,0.444 v -3.373 c 0,-0.7 0.583,-1.27 1.299,-1.27 m 5.938,6.686 a 0.393,0.393 0 0 0 -0.398,0.389 c 0,1.386 -1.152,2.513 -2.57,2.513 A 2.579,2.579 0 0 1 34.82,29.612 0.407,0.407 0 0 0 34.256,29.606 0.381,0.381 0 0 0 34.25,30.155 c 0.551,0.55 1.264,0.887 2.036,0.969 0.183,1.183 1.23,2.093 2.49,2.093 0.22,0 0.398,-0.174 0.398,-0.389 a 0.393,0.393 0 0 0 -0.398,-0.389 1.718,1.718 0 0 1 -1.683,-1.325 c 1.65,-0.211 2.929,-1.592 2.929,-3.262 a 0.393,0.393 0 0 0 -0.398,-0.389 m -14.42,0.416 a 0.392,0.392 0 0 0 -0.398,0.387 c 0,1.67 1.279,3.054 2.929,3.264 a 1.716,1.716 0 0 1 -1.683,1.323 0.393,0.393 0 0 0 -0.398,0.389 c 0,0.215 0.178,0.389 0.398,0.389 1.26,0 2.308,-0.91 2.49,-2.093 a 3.366,3.366 0 0 0 2.036,-0.967 0.384,0.384 0 0 0 -0.006,-0.551 0.403,0.403 0 0 0 -0.562,0.006 2.58,2.58 0 0 1 -1.837,0.755 c -1.418,0 -2.572,-1.129 -2.572,-2.515 a 0.392,0.392 0 0 0 -0.398,-0.387 m 8.483,5.804 a 0.393,0.393 0 0 0 -0.398,0.389 c 0,0.215 0.178,0.389 0.398,0.389 1.418,0 2.572,1.129 2.572,2.515 0,0.089 -0.006,0.177 -0.016,0.265 -1.234,0.489 -2.106,1.673 -2.106,3.052 0,0.215 0.178,0.389 0.398,0.389 0.22,0 0.398,-0.174 0.398,-0.389 0,-1.386 1.154,-2.515 2.572,-2.515 0.22,0 0.398,-0.174 0.398,-0.389 A 0.393,0.393 0 0 0 37.504,37 c -0.153,0 -0.305,0.011 -0.452,0.031 l 0.002,-0.055 c 0,-1.815 -1.511,-3.293 -3.368,-3.293 m -4.664,0.829 c -1.856,0 -3.368,1.478 -3.368,3.293 l 0.002,0.055 a 3.55,3.55 0 0 0 -0.452,-0.031 0.393,0.393 0 0 0 -0.398,0.389 c 0,0.215 0.178,0.389 0.398,0.389 1.418,0 2.572,1.129 2.572,2.515 0,0.215 0.178,0.389 0.398,0.389 0.22,0 0.398,-0.174 0.398,-0.389 0,-1.379 -0.872,-2.564 -2.106,-3.052 A 2.6,2.6 0 0 1 26.45,37.805 c 0,-1.386 1.154,-2.515 2.572,-2.515 0.22,0 0.398,-0.174 0.398,-0.389 a 0.393,0.393 0 0 0 -0.398,-0.389"
     style="color:#000000;overflow:visible;opacity:0.75;isolation:auto;mix-blend-mode:normal;solid-color:#000000;solid-opacity:1;fill:#e0e0e0"
     overflow="visible"
     id="path17"
     inkscape:connector-curvature="0" />
  <path
     d="M 40,3 H 15 c -2.77,0 -5,2.23 -5,5 v 48 c 0,2.77 2.23,5 5,5 h 34 c 2.77,0 5,-2.23 5,-5 V 17 Z"
     id="path19"
     style="fill:url(#b)"
     inkscape:connector-curvature="0" />
  <path
     d="M 40,3 H 15 C 12.23,3 10,5.23 10,8 V 9.014 A 5.005,5.005 0 0 1 11.46,5.474 4.989,4.989 0 0 1 15,4.015 H 40 V 4 Z"
     id="path21"
     inkscape:connector-curvature="0"
     style="opacity:0.5;fill:#ffffff" />
  <path
     d="M 54,54.86 A 5.004,5.004 0 0 1 52.54,58.398 4.989,4.989 0 0 1 49,59.86 H 15 A 5.005,5.005 0 0 1 11.46,58.4 4.989,4.989 0 0 1 10,54.86 V 56 c 0,2.77 2.23,5 5,5 h 34 c 2.77,0 5,-2.23 5,-5 z"
     id="path23"
     inkscape:connector-curvature="0"
     style="opacity:0.25;fill-opacity:0.99199997" />
  <path
     d="M 40,3 V 14.535 A 2.456,2.456 0 0 0 42.465,17 H 54 Z"
     id="path25"
     inkscape:connector-curvature="0"
     style="opacity:0.5;fill:#ffffff;fill-rule:evenodd" />
  <path
     d="M 40.73,16.283 54,31 V 17 H 42.465 c -0.68,0 -1.29,-0.276 -1.735,-0.717 z"
     id="path27"
     style="opacity:0.1;fill:url(#c);fill-rule:evenodd"
     inkscape:connector-curvature="0" />
</svg>
