<?xml version="1.0" encoding="UTF-8" standalone="no"?>
<svg
   xmlns:dc="http://purl.org/dc/elements/1.1/"
   xmlns:cc="http://creativecommons.org/ns#"
   xmlns:rdf="http://www.w3.org/1999/02/22-rdf-syntax-ns#"
   xmlns:svg="http://www.w3.org/2000/svg"
   xmlns="http://www.w3.org/2000/svg"
   xmlns:xlink="http://www.w3.org/1999/xlink"
   xmlns:sodipodi="http://sodipodi.sourceforge.net/DTD/sodipodi-0.dtd"
   xmlns:inkscape="http://www.inkscape.org/namespaces/inkscape"
   width="64"
   viewBox="0 0 64 64"
   height="64"
   version="1.1"
   id="svg28"
   sodipodi:docname="application-pdf.svg"
   inkscape:version="0.92.4 (5da689c313, 2019-01-14)">
  <metadata
     id="metadata32">
    <rdf:RDF>
      <cc:Work
         rdf:about="">
        <dc:format>image/svg+xml</dc:format>
        <dc:type
           rdf:resource="http://purl.org/dc/dcmitype/StillImage" />
        <dc:title></dc:title>
      </cc:Work>
    </rdf:RDF>
  </metadata>
  <sodipodi:namedview
     pagecolor="#ffffff"
     bordercolor="#666666"
     borderopacity="1"
     objecttolerance="10"
     gridtolerance="10"
     guidetolerance="10"
     inkscape:pageopacity="0"
     inkscape:pageshadow="2"
     inkscape:window-width="1366"
     inkscape:window-height="711"
     id="namedview30"
     showgrid="false"
     inkscape:zoom="7.890625"
     inkscape:cx="32"
     inkscape:cy="32"
     inkscape:window-x="0"
     inkscape:window-y="25"
     inkscape:window-maximized="1"
     inkscape:current-layer="svg28" />
  <defs
     id="defs8">
    <linearGradient
       id="a"
       y1="392.36"
       y2="336.36"
       x2="0"
       gradientUnits="userSpaceOnUse"
       gradientTransform="translate(-14,-332.36)">
      <stop
         stop-color="#ffffff"
         stop-opacity="0"
         id="stop2" />
      <stop
         offset="1"
         stop-color="#ffffff"
         stop-opacity=".15"
         id="stop4" />
    </linearGradient>
    <path
       color-rendering="auto"
       color-interpolation-filters="linearRGB"
       shape-rendering="auto"
       image-rendering="auto"
       text-rendering="auto"
       id="b"
       color-interpolation="sRGB"
       color="#000000"
       d="m10 3v58h44v-58h-14z" />
    <linearGradient
       inkscape:collect="always"
       xlink:href="#a"
       id="linearGradient865"
       x1="-50"
       y1="61"
       x2="-50"
       y2="3"
       gradientUnits="userSpaceOnUse"
       gradientTransform="translate(60)" />
  </defs>
  <path
     style="opacity:1;fill:#da2c2c;fill-opacity:1;fill-rule:nonzero;stroke:none;stroke-width:2;stroke-linejoin:miter;stroke-miterlimit:4;stroke-dasharray:none;stroke-opacity:1"
     d="M 10,3 V 9.7832031 54.216797 61 H 16.7832 28.14648 47.2168 C 50.97474,61 54,57.974739 54,54.216797 V 9.7832031 C 54,6.0252605 50.97474,3 47.2168,3 H 28.14648 16.7832 Z"
     id="rect839"
     inkscape:connector-curvature="0" />
  <path
     d="m 26.301,17.981 c -0.363,0.013 -0.752,0.11 -1.179,0.293 -3.813,1.629 -1,5.371 3.856,8.793 0.029,-0.656 0.047,-1.298 0.04,-1.913 -4.147,-2.838 -5.763,-5.656 -3.768,-6.321 2.139,-0.885 3.718,1.737 3.768,6.321 0.26,0.177 0.521,0.351 0.794,0.53 -0.101,-4.172 -1.016,-7.444 -3.151,-7.685 -0.114,-0.013 -0.239,-0.02 -0.36,-0.016 m 3.511,7.701 -0.497,-0.788 -0.631,0.544 -0.132,0.828 0.832,1.569 0.418,-0.201 c 2.797,1.864 6.138,3.581 9.273,4.76 l 0.931,0.542 1.287,0.031 c 1.186,-0.703 0.479,-0.962 4.789,-1.495 l -4.856,0.369 c -3.746,-1.45 -7.94,-3.887 -11.417,-6.159 m 9.343,6.692 c 0.562,0.045 4.52,-0.647 6.264,-0.815 0.667,-0.087 3.31,-0.277 3.444,1.67 0.456,-1.061 -0.23,-2.066 -1.71,-2.381 -2.287,-0.512 -6.693,1.103 -7.998,1.526 m 2.526,-0.492 c -0.68,0.244 -1.828,0.219 -2.562,0.517 1.041,0.533 6.371,1.947 8.528,1.542 0.345,-0.054 1.289,-0.316 1.325,-1.076 -1.728,1.201 -6.498,0.358 -7.291,-0.982 m 1.421,0.022 c -0.559,-0.179 -3.444,0.709 -4.02,0.49 -3.547,1.182 -7.432,2.883 -10.591,4.698 l -0.915,0.181 -0.707,1.262 -0.949,1.235 1.07,1.065 0.837,-1.374 c 3.699,-2.218 11.01,-5.83 15.277,-7.56 m -15.277,7.56 c -0.452,0.271 -0.884,0.539 -1.293,0.799 -0.474,1.345 -1.84,4.302 -2.778,4.211 0,0 -0.172,0.143 -0.446,0.371 1.441,0.828 3.335,-1.76 4.518,-5.381 m -4.072,5.01 c -2.488,-1.468 1.599,-3.621 2.778,-4.211 0.266,-0.759 0.517,-1.582 0.754,-2.46 -3.715,2.312 -6.04,4.709 -4.796,6.293 0.3,0.383 0.539,0.659 0.816,0.748 m 3.979,-7.04 c 0.385,-0.239 0.79,-0.474 1.204,-0.712 0.732,-2.952 1.217,-6.347 1.318,-9.458 -0.282,-0.188 -0.557,-0.378 -0.826,-0.568 -0.157,3.502 -0.808,7.457 -1.694,10.738"
     id="path16"
     inkscape:connector-curvature="0"
     style="color:#000000;opacity:0.8;color-interpolation:sRGB;color-interpolation-filters:linearRGB;fill:#ffffff;color-rendering:auto;image-rendering:auto;shape-rendering:auto;text-rendering:auto" />
  <rect
     width="1"
     x="16"
     y="4"
     fill="#ffffff"
     height="56"
     fill-opacity=".252"
     id="rect22" />
  <rect
     color-interpolation-filters="linearRGB"
     x="17"
     y="4"
     fill-opacity=".083"
     color="#000000"
     image-rendering="auto"
     color-rendering="auto"
     width="1"
     color-interpolation="sRGB"
     text-rendering="auto"
     height="56"
     shape-rendering="auto"
     id="rect24" />
  <path
     style="opacity:1;fill:url(#linearGradient865);fill-opacity:1;fill-rule:nonzero;stroke:none;stroke-width:2;stroke-linejoin:miter;stroke-miterlimit:4;stroke-dasharray:none;stroke-opacity:1"
     d="M 10,3 V 9.783203 54.216797 61 H 16.7832 28.14648 47.2168 C 50.97474,61 54,57.974739 54,54.216797 V 9.783203 C 54,6.02526 50.97474,3 47.2168,3 H 28.14648 16.7832 Z"
     id="rect839-3"
     inkscape:connector-curvature="0" />
  <path
     style="opacity:0.25;fill:#000000;fill-opacity:1;fill-rule:nonzero;stroke:none;stroke-width:2;stroke-linejoin:miter;stroke-miterlimit:4;stroke-dasharray:none;stroke-opacity:1"
     d="m 54,53.202941 c 0,3.757942 -3.02526,6.783203 -6.7832,6.783203 H 28.146484 16.783203 10 v 1.013672 H 16.783203 28.146484 47.2168 c 3.75794,0 6.7832,-3.025261 6.7832,-6.783203 z"
     id="rect839-6"
     inkscape:connector-curvature="0" />
  <path
     style="opacity:0.5;fill:#ffffff;fill-opacity:1;fill-rule:nonzero;stroke:none;stroke-width:2;stroke-linejoin:miter;stroke-miterlimit:4;stroke-dasharray:none;stroke-opacity:1"
     d="M 10,3 V 4.0136719 H 16.783203 28.146484 47.2168 c 3.75794,0 6.7832,3.0252592 6.7832,6.7832031 V 9.783203 C 54,6.0252605 50.97474,3 47.2168,3 H 28.146484 16.783203 Z"
     id="path891"
     inkscape:connector-curvature="0" />
</svg>
