<?xml version="1.0" encoding="UTF-8" standalone="no"?>
<svg
   xmlns:dc="http://purl.org/dc/elements/1.1/"
   xmlns:cc="http://creativecommons.org/ns#"
   xmlns:rdf="http://www.w3.org/1999/02/22-rdf-syntax-ns#"
   xmlns:svg="http://www.w3.org/2000/svg"
   xmlns="http://www.w3.org/2000/svg"
   xmlns:xlink="http://www.w3.org/1999/xlink"
   xmlns:sodipodi="http://sodipodi.sourceforge.net/DTD/sodipodi-0.dtd"
   xmlns:inkscape="http://www.inkscape.org/namespaces/inkscape"
   width="64"
   viewBox="0 0 64 64"
   height="64"
   version="1.1"
   id="svg25"
   sodipodi:docname="audio-x-flac.svg"
   inkscape:version="0.92.4 (5da689c313, 2019-01-14)">
  <metadata
     id="metadata29">
    <rdf:RDF>
      <cc:Work
         rdf:about="">
        <dc:format>image/svg+xml</dc:format>
        <dc:type
           rdf:resource="http://purl.org/dc/dcmitype/StillImage" />
        <dc:title></dc:title>
      </cc:Work>
    </rdf:RDF>
  </metadata>
  <sodipodi:namedview
     pagecolor="#ffffff"
     bordercolor="#666666"
     borderopacity="1"
     objecttolerance="10"
     gridtolerance="10"
     guidetolerance="10"
     inkscape:pageopacity="0"
     inkscape:pageshadow="2"
     inkscape:window-width="1366"
     inkscape:window-height="711"
     id="namedview27"
     showgrid="false"
     inkscape:zoom="1.3921165"
     inkscape:cx="32"
     inkscape:cy="32"
     inkscape:window-x="0"
     inkscape:window-y="25"
     inkscape:window-maximized="1"
     inkscape:current-layer="svg25" />
  <defs
     id="defs7">
    <linearGradient
       id="a"
       y1="392.36"
       y2="336.36"
       gradientUnits="userSpaceOnUse"
       x2="0"
       gradientTransform="translate(-66,-332.36)">
      <stop
         stop-color="#ffffff"
         stop-opacity="0"
         id="stop2" />
      <stop
         offset="1"
         stop-color="#ffffff"
         stop-opacity=".2"
         id="stop4" />
    </linearGradient>
    <linearGradient
       id="a-3"
       y1="392.35999"
       y2="336.35999"
       gradientUnits="userSpaceOnUse"
       x2="0"
       gradientTransform="translate(-6,-332.36)">
      <stop
         stop-color="#ffffff"
         stop-opacity="0"
         id="stop2-6" />
      <stop
         offset="1"
         stop-color="#ffffff"
         stop-opacity=".2"
         id="stop4-7" />
    </linearGradient>
    <linearGradient
       inkscape:collect="always"
       xlink:href="#a"
       id="linearGradient985"
       gradientUnits="userSpaceOnUse"
       gradientTransform="translate(-6,-332.36)"
       y1="392.36"
       x2="0"
       y2="336.36" />
  </defs>
  <circle
     style="color:#000000;color-interpolation:sRGB;color-interpolation-filters:linearRGB;fill:#9adfee;color-rendering:auto;image-rendering:auto;shape-rendering:auto;text-rendering:auto"
     id="circle9"
     r="24"
     cy="36"
     cx="37" />
  <path
     style="opacity:1;fill:#35bedc;fill-opacity:1;fill-rule:nonzero;stroke:none;stroke-width:2;stroke-linejoin:miter;stroke-miterlimit:4;stroke-dasharray:none;stroke-opacity:1"
     d="M 11.7832,11 C 8.02526,11 5,14.025262 5,17.783203 V 54.216797 C 5,57.974738 8.02526,61 11.7832,61 H 25.54102 36.17188 55 V 41 H 50.9043 C 48.1873,41 46,38.812703 46,36.095703 v -0.191406 c 0,-2.717 2.1873,-4.902344 4.9043,-4.902344 H 55 v -20 L 37.5625,11 H 26.77344 Z"
     id="path957"
     inkscape:connector-curvature="0" />
  <path
     d="m 21,25 v 16.05 c -0.635,-0.648 -1.517,-1.053 -2.5,-1.053 -1.939,0 -3.5,1.561 -3.5,3.5 0,1.939 1.561,3.5 3.5,3.5 1.905,0 3.437,-1.509 3.49,-3.4 H 22 v -13.6 h 14 v 8.05 c -0.635,-0.648 -1.517,-1.053 -2.5,-1.053 -1.939,0 -3.5,1.561 -3.5,3.5 0,1.939 1.561,3.5 3.5,3.5 1.939,0 3.5,-1.561 3.5,-3.5 v -15.5 H 22 Z m 1,2 h 14 v 2 H 22 Z"
     id="path17"
     inkscape:connector-curvature="0"
     style="color:#000000;opacity:0.75;color-interpolation:sRGB;color-interpolation-filters:linearRGB;fill:#ffffff;color-rendering:auto;image-rendering:auto;shape-rendering:auto;text-rendering:auto" />
  <path
     style="color:#000000;color-interpolation:sRGB;color-interpolation-filters:linearRGB;fill:url(#linearGradient985);color-rendering:auto;image-rendering:auto;shape-rendering:auto;text-rendering:auto"
     d="M 11.77344,11 C 10.83776,11.0014 9.94775,11.188225 9.13867,11.529297 8.32659,11.871633 7.59545,12.36744 6.98242,12.980469 6.36939,13.593498 5.87359,14.32464 5.53125,15.136719 5.18891,15.948798 5,16.841765 5,17.78125 v 36.433594 c 0,0.939485 0.18891,1.832452 0.53125,2.644531 0.34234,0.812079 0.83814,1.543221 1.45117,2.15625 0.61303,0.613029 1.34417,1.108836 2.15625,1.451172 0.81208,0.342336 1.70505,0.53125 2.64453,0.53125 H 25.541016 36.171875 55 v -9.15625 A 24,24 0 0 0 61,36 24,24 0 0 0 55,20.169922 V 11 Z"
     id="path979"
     inkscape:connector-curvature="0" />
  <path
     style="opacity:0.25;fill:#000000;fill-opacity:1;fill-rule:nonzero;stroke:none;stroke-width:2;stroke-linejoin:miter;stroke-miterlimit:4;stroke-dasharray:none;stroke-opacity:1"
     d="M 55,59.857422 H 36.171875 25.541016 11.783203 c -0.939485,0 -1.832452,-0.188914 -2.644531,-0.53125 C 8.326593,58.983836 7.595451,58.488029 6.982422,57.875 6.369393,57.261971 5.873586,56.530829 5.53125,55.71875 5.188914,54.906671 5,54.013704 5,53.074219 v 1.142578 C 5,57.974738 8.025263,61 11.783203,61 H 25.541016 36.171875 55 Z"
     id="path1034"
     inkscape:connector-curvature="0" />
  <path
     style="opacity:0.5;fill:#ffffff;fill-opacity:1;fill-rule:nonzero;stroke:none;stroke-width:2;stroke-linejoin:miter;stroke-miterlimit:4;stroke-dasharray:none;stroke-opacity:1"
     d="M 11.783203,10.910486 C 8.025263,10.910486 5,13.935748 5,17.693689 v 1.142578 c 0,-0.939485 0.188914,-1.832452 0.53125,-2.644531 0.342336,-0.812079 0.838143,-1.543221 1.451172,-2.15625 0.613029,-0.613029 1.344171,-1.108836 2.15625,-1.451172 0.812078,-0.342336 1.705046,-0.53125 2.644531,-0.53125 H 26.773438 37.5625 L 55,12.055017 v -1.142578 l -17.4375,-0.002 H 26.773438 Z"
     id="path957-3"
     inkscape:connector-curvature="0" />
</svg>
