<?xml version="1.0" encoding="UTF-8" standalone="no"?>
<svg
   xmlns:dc="http://purl.org/dc/elements/1.1/"
   xmlns:cc="http://creativecommons.org/ns#"
   xmlns:rdf="http://www.w3.org/1999/02/22-rdf-syntax-ns#"
   xmlns:svg="http://www.w3.org/2000/svg"
   xmlns="http://www.w3.org/2000/svg"
   xmlns:xlink="http://www.w3.org/1999/xlink"
   xmlns:sodipodi="http://sodipodi.sourceforge.net/DTD/sodipodi-0.dtd"
   xmlns:inkscape="http://www.inkscape.org/namespaces/inkscape"
   width="64"
   height="64"
   version="1.1"
   id="svg22"
   sodipodi:docname="image-gif.svg"
   inkscape:version="0.92.4 (5da689c313, 2019-01-14)">
  <metadata
     id="metadata26">
    <rdf:RDF>
      <cc:Work
         rdf:about="">
        <dc:format>image/svg+xml</dc:format>
        <dc:type
           rdf:resource="http://purl.org/dc/dcmitype/StillImage" />
        <dc:title></dc:title>
      </cc:Work>
    </rdf:RDF>
  </metadata>
  <sodipodi:namedview
     pagecolor="#ffffff"
     bordercolor="#666666"
     borderopacity="1"
     objecttolerance="10"
     gridtolerance="10"
     guidetolerance="10"
     inkscape:pageopacity="0"
     inkscape:pageshadow="2"
     inkscape:window-width="848"
     inkscape:window-height="480"
     id="namedview24"
     showgrid="false"
     inkscape:zoom="3.6875"
     inkscape:cx="3.9322034"
     inkscape:cy="32"
     inkscape:window-x="0"
     inkscape:window-y="25"
     inkscape:window-maximized="0"
     inkscape:current-layer="svg22" />
  <defs
     id="defs8">
    <linearGradient
       xlink:href="#a"
       id="b"
       gradientUnits="userSpaceOnUse"
       x1="-75"
       y1="59"
       x2="-75"
       y2="-1"
       gradientTransform="translate(40)" />
    <linearGradient
       id="a"
       y1="392.36"
       y2="320.48"
       x2="0"
       gradientUnits="userSpaceOnUse"
       gradientTransform="matrix(1 0 0 .84587 -34 -272.73)">
      <stop
         stop-color="#fff"
         stop-opacity="0"
         id="stop3" />
      <stop
         offset="1"
         stop-color="#fff"
         stop-opacity=".2"
         id="stop5" />
    </linearGradient>
  </defs>
  <path
     d="m 9,11 c -2.77,0 -5,2.23 -5,5 v 40 c 0,2.77 2.23,5 5,5 h 46 c 2.77,0 5,-2.23 5,-5 V 16 c 0,-2.77 -2.23,-5 -5,-5 H 18 Z"
     id="path10"
     inkscape:connector-curvature="0"
     style="fill:#59cfd3" />
  <path
     d="m 9,11 c -2.77,0 -5,2.23 -5,5 v 40 c 0,2.77 2.23,5 5,5 h 46 c 2.77,0 5,-2.23 5,-5 V 16 c 0,-2.77 -2.23,-5 -5,-5 H 18 Z"
     id="path12"
     style="fill:url(#b)"
     inkscape:connector-curvature="0" />
  <path
     d="m 60,54.986 a 5.004,5.004 0 0 1 -1.46,3.54 4.989,4.989 0 0 1 -3.54,1.46 H 9 A 5.005,5.005 0 0 1 5.46,58.526 4.989,4.989 0 0 1 4,54.985 V 56 c 0,2.77 2.23,5 5,5 h 46 c 2.77,0 5,-2.23 5,-5 z"
     id="path14"
     inkscape:connector-curvature="0"
     style="opacity:0.25" />
  <path
     d="m 21.05,21.344 v 1.828 h 1 V 21.344 Z M 18.257,22.5 17.55,23.207 18.843,24.5 19.55,23.793 Z m 6.586,0 -1.293,1.293 0.707,0.707 1.293,-1.293 z M 21.499,24 a 2.5,2.5 0 1 0 0,5 2.5,2.5 0 0 0 0,-5 m 0,1 A 1.5005001,1.5005001 0 1 1 21.498,28.001 1.5005001,1.5005001 0 0 1 21.499,25 m -5.105,1 v 1 h 1.828 v -1 z m 8.484,0 v 1 h 1.828 v -1 z m 14.12,5 -2,2 H 36.99 l -8.592,8.58 v 0.02 l -4.6,-4.6 -9,9 h 1.406 l 6.119,-6.082 1.409,-1.404 1.564,1.418 3.102,3.068 4,-4 2.951,-2.936 3.648,-3.462 3.637,3.515 7.957,7.883 h 1.406 z m -20.16,-2.5 -1.293,1.293 0.707,0.707 1.293,-1.293 z m 5.414,0 -0.707,0.707 1.293,1.293 0.707,-0.707 z m -3.207,1.328 v 1.828 h 1 v -1.828 z"
     id="path16"
     inkscape:connector-curvature="0"
     style="color:#4d4d4d;opacity:0.75;fill:#ffffff;fill-rule:evenodd" />
  <path
     d="m 8,13 c -1.108,0 -2,0.892 -2,2 v 2 h 4 v -4 z m 4,0 v 4 h 4 v -4 z m 6,0 v 4 h 4 v -4 z m 6,0 v 4 h 4 v -4 z m 6,0 v 4 h 4 v -4 z m 6,0 v 4 h 4 v -4 z m 6,0 v 4 h 4 v -4 z m 6,0 v 4 h 4 v -4 z m 6,0 v 4 h 4 v -2 c 0,-1.108 -0.892,-2 -2,-2 z M 6,55 v 2 c 0,1.108 0.892,2 2,2 h 2 v -4 z m 6,0 v 4 h 4 v -4 z m 6,0 v 4 h 4 v -4 z m 6,0 v 4 h 4 v -4 z m 6,0 v 4 h 4 v -4 z m 6,0 v 4 h 4 v -4 z m 6,0 v 4 h 4 v -4 z m 6,0 v 4 h 4 v -4 z m 6,0 v 4 h 2 c 1.108,0 2,-0.892 2,-2 v -2 z"
     id="path18"
     inkscape:connector-curvature="0"
     style="color:#000000;opacity:0.5;fill:#ffffff;fill-rule:evenodd" />
  <path
     d="M 60,17.046 A 5.004,5.004 0 0 0 58.54,13.506 4.989,4.989 0 0 0 55,12.046 H 9 A 5.005,5.005 0 0 0 5.46,13.506 4.989,4.989 0 0 0 4,17.047 v -1.014 c 0,-2.77 2.23,-5 5,-5 h 46 c 2.77,0 5,2.23 5,5 z"
     id="path20"
     inkscape:connector-curvature="0"
     style="opacity:0.3;fill:#ffffff" />
</svg>
