<?xml version="1.0" encoding="UTF-8" standalone="no"?>
<svg
   xmlns:dc="http://purl.org/dc/elements/1.1/"
   xmlns:cc="http://creativecommons.org/ns#"
   xmlns:rdf="http://www.w3.org/1999/02/22-rdf-syntax-ns#"
   xmlns:svg="http://www.w3.org/2000/svg"
   xmlns="http://www.w3.org/2000/svg"
   xmlns:xlink="http://www.w3.org/1999/xlink"
   xmlns:sodipodi="http://sodipodi.sourceforge.net/DTD/sodipodi-0.dtd"
   xmlns:inkscape="http://www.inkscape.org/namespaces/inkscape"
   width="64"
   height="64"
   version="1.1"
   id="svg33"
   sodipodi:docname="text-x-go.svg"
   inkscape:version="0.92.4 (5da689c313, 2019-01-14)">
  <metadata
     id="metadata37">
    <rdf:RDF>
      <cc:Work
         rdf:about="">
        <dc:format>image/svg+xml</dc:format>
        <dc:type
           rdf:resource="http://purl.org/dc/dcmitype/StillImage" />
        <dc:title></dc:title>
      </cc:Work>
    </rdf:RDF>
  </metadata>
  <sodipodi:namedview
     pagecolor="#ffffff"
     bordercolor="#666666"
     borderopacity="1"
     objecttolerance="10"
     gridtolerance="10"
     guidetolerance="10"
     inkscape:pageopacity="0"
     inkscape:pageshadow="2"
     inkscape:window-width="848"
     inkscape:window-height="480"
     id="namedview35"
     showgrid="false"
     inkscape:zoom="3.6875"
     inkscape:cx="3.9322034"
     inkscape:cy="32"
     inkscape:window-x="0"
     inkscape:window-y="25"
     inkscape:window-maximized="0"
     inkscape:current-layer="svg33" />
  <defs
     id="defs19">
    <linearGradient
       xlink:href="#a"
       id="c"
       gradientUnits="userSpaceOnUse"
       x1="10"
       y1="61"
       x2="10"
       y2="3"
       gradientTransform="translate(-40)" />
    <linearGradient
       id="a"
       y1="3"
       y2="61"
       x2="0"
       gradientUnits="userSpaceOnUse"
       gradientTransform="matrix(1 0 0 -1 0 64)">
      <stop
         stop-color="#5e6b78"
         id="stop3" />
      <stop
         offset="1"
         stop-color="#768492"
         id="stop5" />
    </linearGradient>
    <linearGradient
       xlink:href="#b"
       id="d"
       x1="40"
       y1="3"
       x2="40"
       y2="17"
       gradientUnits="userSpaceOnUse"
       gradientTransform="translate(-40)" />
    <linearGradient
       id="b"
       y1="61"
       y2="47"
       x2="0"
       gradientUnits="userSpaceOnUse"
       gradientTransform="matrix(1 0 0 -1 0 64)">
      <stop
         stop-color="#dedede"
         id="stop9" />
      <stop
         offset="1"
         stop-color="#fbfbfb"
         id="stop11" />
    </linearGradient>
    <linearGradient
       id="e"
       y1="17.475"
       y2="31"
       x1="41.616"
       x2="54"
       gradientUnits="userSpaceOnUse">
      <stop
         stop-color="#060606"
         id="stop14" />
      <stop
         offset="1"
         stop-opacity="0"
         id="stop16" />
    </linearGradient>
  </defs>
  <path
     d="M 40,3 H 15 c -2.77,0 -5,2.23 -5,5 v 48 c 0,2.77 2.23,5 5,5 h 34 c 2.77,0 5,-2.23 5,-5 V 17 Z"
     id="path21"
     style="fill:url(#c)"
     inkscape:connector-curvature="0" />
  <path
     d="M 40,3 H 15 C 12.23,3 10,5.23 10,8 V 9.014 A 5.005,5.005 0 0 1 11.46,5.474 4.989,4.989 0 0 1 15,4.015 H 40 V 4 Z"
     id="path23"
     inkscape:connector-curvature="0"
     style="opacity:0.5;fill:#ffffff" />
  <path
     d="M 54,54.86 A 5.004,5.004 0 0 1 52.54,58.398 4.989,4.989 0 0 1 49,59.86 H 15 A 5.005,5.005 0 0 1 11.46,58.4 4.989,4.989 0 0 1 10,54.86 V 56 c 0,2.77 2.23,5 5,5 h 34 c 2.77,0 5,-2.23 5,-5 z"
     id="path25"
     inkscape:connector-curvature="0"
     style="opacity:0.25;fill-opacity:0.99199997" />
  <path
     d="M 40,3 V 14.535 A 2.456,2.456 0 0 0 42.465,17 H 54 Z"
     id="path27"
     style="fill:url(#d);fill-rule:evenodd"
     inkscape:connector-curvature="0" />
  <path
     d="M 40.73,16.283 54,31 V 17 H 42.465 c -0.68,0 -1.29,-0.276 -1.735,-0.717 z"
     id="path29"
     style="opacity:0.2;fill:url(#e);fill-rule:evenodd"
     inkscape:connector-curvature="0" />
  <path
     d="M 26.5,21 A 5.5,5.5 0 0 0 21,26.5 5.5,5.5 0 0 0 21.014,26.756 3,3 0 0 0 21,27 3,3 0 0 0 21.342,28.387 5.5,5.5 0 0 0 26.5,32 5.5,5.5 0 0 0 32,26.5 5.5,5.5 0 0 0 26.5,21 M 32,26.5 A 5.5,5.5 0 0 0 32.014,26.756 3,3 0 0 0 32,27 3,3 0 0 0 32.342,28.387 5.5,5.5 0 0 0 37.5,32 5.5,5.5 0 0 0 43,26.5 5.5,5.5 0 0 0 37.5,21 5.5,5.5 0 0 0 32,26.5 M 26.5,22 A 4.5,4.5 0 0 1 31,26.5 4.5,4.5 0 0 1 26.5,31 4.5,4.5 0 0 1 23.646,29.977 3,3 0 0 0 24,30 3,3 0 0 0 27,27 3,3 0 0 0 24,24 3,3 0 0 0 22.527,24.39 4.5,4.5 0 0 1 26.5,22 m 11,0 A 4.5,4.5 0 0 1 42,26.5 4.5,4.5 0 0 1 37.5,31 4.5,4.5 0 0 1 34.646,29.977 3,3 0 0 0 35,30 3,3 0 0 0 38,27 3,3 0 0 0 35,24 3,3 0 0 0 33.527,24.39 4.5,4.5 0 0 1 37.5,22 m 3.086,12.871 C 38.501,35.584 35.34,35.999 32,36 29.24,35.999 26.574,35.714 24.545,35.2 l -0.67,0.738 c 0.928,0.282 1.997,0.505 3.125,0.679 V 40 a 3,3 0 0 0 3,3 3,3 0 0 0 2.5,-1.346 A 3,3 0 0 0 35,43 3,3 0 0 0 38,40 v -3.543 c 1.24,-0.237 2.37,-0.551 3.3,-0.932 z M 37,36.631 V 40 a 2,2 0 0 1 -2,2 2,2 0 0 1 -2,-2 v -3.02 a 32.628,32.628 0 0 0 4,-0.349 m -9,0.129 c 1.28,0.151 2.622,0.239 4,0.24 v 3 a 2,2 0 0 1 -2,2 2,2 0 0 1 -2,-2 z"
     id="path31"
     inkscape:connector-curvature="0"
     style="color:#4d4d4d;fill:#fbfbfb" />
</svg>
