<?xml version="1.0" encoding="UTF-8" standalone="no"?>
<svg
   xmlns:dc="http://purl.org/dc/elements/1.1/"
   xmlns:cc="http://creativecommons.org/ns#"
   xmlns:rdf="http://www.w3.org/1999/02/22-rdf-syntax-ns#"
   xmlns:svg="http://www.w3.org/2000/svg"
   xmlns="http://www.w3.org/2000/svg"
   xmlns:xlink="http://www.w3.org/1999/xlink"
   xmlns:sodipodi="http://sodipodi.sourceforge.net/DTD/sodipodi-0.dtd"
   xmlns:inkscape="http://www.inkscape.org/namespaces/inkscape"
   width="64"
   viewBox="0 0 64 64"
   height="64"
   version="1.1"
   id="svg32"
   sodipodi:docname="video-x-wmv.svg"
   inkscape:version="0.92.4 (5da689c313, 2019-01-14)">
  <metadata
     id="metadata36">
    <rdf:RDF>
      <cc:Work
         rdf:about="">
        <dc:format>image/svg+xml</dc:format>
        <dc:type
           rdf:resource="http://purl.org/dc/dcmitype/StillImage" />
        <dc:title></dc:title>
      </cc:Work>
    </rdf:RDF>
  </metadata>
  <sodipodi:namedview
     pagecolor="#ffffff"
     bordercolor="#666666"
     borderopacity="1"
     objecttolerance="10"
     gridtolerance="10"
     guidetolerance="10"
     inkscape:pageopacity="0"
     inkscape:pageshadow="2"
     inkscape:window-width="1366"
     inkscape:window-height="707"
     id="namedview34"
     showgrid="false"
     inkscape:zoom="7.796875"
     inkscape:cx="32"
     inkscape:cy="32"
     inkscape:window-x="0"
     inkscape:window-y="0"
     inkscape:window-maximized="1"
     inkscape:current-layer="svg32" />
  <defs
     id="defs8">
    <linearGradient
       id="a"
       y1="392.36"
       y2="324.66"
       gradientUnits="userSpaceOnUse"
       x2="0"
       gradientTransform="matrix(1,0,0,0.84587,-1,-272.73)">
      <stop
         stop-color="#ffffff"
         stop-opacity="0"
         id="stop2" />
      <stop
         offset="1"
         stop-color="#ffffff"
         stop-opacity=".2"
         id="stop4" />
    </linearGradient>
    <path
       color-rendering="auto"
       color-interpolation-filters="linearRGB"
       shape-rendering="auto"
       image-rendering="auto"
       text-rendering="auto"
       id="b"
       color-interpolation="sRGB"
       color="#000000"
       d="m3 17v44h58v-44h-18.455z" />
    <linearGradient
       inkscape:collect="always"
       xlink:href="#a-3"
       id="linearGradient853"
       x1="-64.934792"
       y1="61.362762"
       x2="-64.934792"
       y2="1.604558"
       gradientUnits="userSpaceOnUse"
       gradientTransform="translate(60,-0.10220443)" />
    <linearGradient
       id="a-3"
       y1="392.35999"
       y2="324.66"
       gradientUnits="userSpaceOnUse"
       x2="0"
       gradientTransform="matrix(1,0,0,0.84587,-1,-272.73)">
      <stop
         stop-color="#ffffff"
         stop-opacity="0"
         id="stop2-6" />
      <stop
         offset="1"
         stop-color="#ffffff"
         stop-opacity=".2"
         id="stop4-7" />
    </linearGradient>
  </defs>
  <rect
     style="opacity:1;fill:#35bedc;fill-opacity:1;fill-rule:nonzero;stroke:none;stroke-width:2;stroke-linejoin:miter;stroke-miterlimit:4;stroke-dasharray:none;stroke-opacity:1"
     id="rect843-3"
     width="58"
     height="44"
     x="3"
     y="16.897791"
     ry="4.8143134" />
  <path
     style="opacity:0.75;fill:#ffffff"
     inkscape:connector-curvature="0"
     id="path18-5"
     d="m 32,27.897819 a 11,11 0 0 0 -11,11 11,11 0 0 0 11,11 11,11 0 0 0 11,-11 11,11 0 0 0 -11,-11 m 0.14453,0.95117 a 10,10 0 0 1 10,10 10,10 0 0 1 -10,10 10,10 0 0 1 -10,-10 10,10 0 0 1 10,-10" />
  <path
     d="m 38.38,38.859799 -10,5.538 v -11 z"
     id="path20-3"
     inkscape:connector-curvature="0"
     style="color:#000000;opacity:0.75;color-interpolation:sRGB;color-interpolation-filters:linearRGB;fill:#ffffff;color-rendering:auto;image-rendering:auto;shape-rendering:auto;text-rendering:auto" />
  <path
     d="m 55.2,20.897799 v 3.6 h 3.6 v -3.6 z m 0,5.4 v 3.6 h 3.6 v -3.6 z m 0,5.4 v 3.6 h 3.6 v -3.6 z m 0,5.4 v 3.6 h 3.6 v -3.6 z m 0,5.4 v 3.6 h 3.6 v -3.6 z m 0,5.4 v 3.6 h 3.6 v -3.6 z m 0,5.4 v 3.6 h 3.6 v -3.6 z"
     id="path22-5"
     inkscape:connector-curvature="0"
     style="color:#000000;opacity:0.75;color-interpolation:sRGB;color-interpolation-filters:linearRGB;fill:#ffffff;stroke-width:0.89999998;color-rendering:auto;image-rendering:auto;shape-rendering:auto;text-rendering:auto" />
  <path
     d="m 5.2,20.897799 v 3.6 h 3.6 v -3.6 z m 0,5.4 v 3.6 h 3.6 v -3.6 z m 0,5.4 v 3.6 h 3.6 v -3.6 z m 0,5.4 v 3.6 h 3.6 v -3.6 z m 0,5.4 v 3.6 h 3.6 v -3.6 z m 0,5.4 v 3.6 h 3.6 v -3.6 z m 0,5.4 v 3.6 h 3.6 v -3.6 z"
     id="path24-6"
     inkscape:connector-curvature="0"
     style="color:#000000;opacity:0.75;color-interpolation:sRGB;color-interpolation-filters:linearRGB;fill:#ffffff;stroke-width:0.89999998;color-rendering:auto;image-rendering:auto;shape-rendering:auto;text-rendering:auto" />
  <path
     style="opacity:0.35;fill:#000000;fill-opacity:1;fill-rule:nonzero;stroke:none;stroke-width:2;stroke-linejoin:miter;stroke-miterlimit:4;stroke-dasharray:none;stroke-opacity:1"
     d="m 61,54.929049 c 0,0.666782 -0.133981,1.30059 -0.376953,1.876953 -0.242973,0.576364 -0.594203,1.096157 -1.029297,1.53125 -0.435094,0.435094 -0.954886,0.786325 -1.53125,1.029297 -0.576364,0.242972 -1.210171,0.376953 -1.876953,0.376953 H 7.814453 c -0.666782,0 -1.300589,-0.133981 -1.876953,-0.376953 C 5.361136,59.123577 4.841344,58.772346 4.40625,58.337252 3.971156,57.902159 3.619926,57.382366 3.376953,56.806002 3.133981,56.229639 3,55.595831 3,54.929049 v 1.154297 c 0,2.66713 2.147323,4.814453 4.814453,4.814453 H 56.185547 C 58.852677,60.897799 61,58.750476 61,56.083346 Z"
     id="path915"
     inkscape:connector-curvature="0" />
  <path
     style="opacity:0.4;fill:#ffffff;fill-opacity:1;fill-rule:nonzero;stroke:none;stroke-width:2;stroke-linejoin:miter;stroke-miterlimit:4;stroke-dasharray:none;stroke-opacity:1"
     d="M 7.814453,16.897799 C 5.147323,16.897799 3,19.045122 3,21.712252 V 22.61069 C 3,21.943907 3.133981,21.308147 3.376953,20.731783 3.619926,20.15542 3.971156,19.63758 4.40625,19.202487 4.841344,18.767393 5.361136,18.416162 5.9375,18.17319 6.513864,17.930217 7.147671,17.796237 7.814453,17.796237 h 48.371094 c 0.666782,0 1.300589,0.13398 1.876953,0.376953 0.576364,0.242972 1.096156,0.594203 1.53125,1.029297 0.435094,0.435093 0.786324,0.952933 1.029297,1.529296 C 60.866019,21.308147 61,21.943907 61,22.61069 v -0.898438 c 0,-2.66713 -2.147323,-4.814453 -4.814453,-4.814453 z"
     id="rect843-3-5"
     inkscape:connector-curvature="0" />
  <rect
     style="opacity:1;fill:url(#linearGradient853);fill-opacity:1;fill-rule:nonzero;stroke:none;stroke-width:2;stroke-linejoin:miter;stroke-miterlimit:4;stroke-dasharray:none;stroke-opacity:1"
     id="rect843"
     width="58"
     height="44"
     x="3"
     y="16.897791"
     ry="4.8143134" />
</svg>
