#define desk_toggled_width 11
#define desk_toggled_height 11
static unsigned char desk_toggled_bits[] = {
   0x00, 0x00, 0xde, 0x03, 0xde, 0x03, 0xde, 0x03, 0xde, 0x03, 0x00, 0x00,
   0xde, 0x03, 0xde, 0x03, 0xde, 0x03, 0xde, 0x03, 0x00, 0x00 };
