#define shade_pressed_width 11
#define shade_pressed_height 11
static unsigned char shade_pressed_bits[] = {
   0xff, 0x07, 0xff, 0x07, 0x00, 0x00, 0x00, 0x00, 0x00, 0x00, 0x00, 0x00,
   0x00, 0x00, 0x00, 0x00, 0x00, 0x00, 0x00, 0x00, 0x00, 0x00 };
