#define shade_hover_width 11
#define shade_hover_height 11
static unsigned char shade_hover_bits[] = {
   0xff, 0x07, 0xff, 0x07, 0xff, 0x07, 0x00, 0x00, 0x00, 0x00, 0x00, 0x00,
   0x00, 0x00, 0x00, 0x00, 0x00, 0x00, 0x00, 0x00, 0x00, 0x00 };
