<?xml version="1.0" encoding="UTF-8" standalone="no"?>
<svg
   width="32"
   height="16"
   viewBox="0 0 32 16"
   id="svg4140"
   version="1.1"
   inkscape:version="1.1.1 (3bf5ae0d25, 2021-09-20)"
   sodipodi:docname="switch-off.svg"
   xmlns:inkscape="http://www.inkscape.org/namespaces/inkscape"
   xmlns:sodipodi="http://sodipodi.sourceforge.net/DTD/sodipodi-0.dtd"
   xmlns="http://www.w3.org/2000/svg"
   xmlns:svg="http://www.w3.org/2000/svg"
   xmlns:rdf="http://www.w3.org/1999/02/22-rdf-syntax-ns#"
   xmlns:cc="http://creativecommons.org/ns#"
   xmlns:dc="http://purl.org/dc/elements/1.1/">
  <defs
     id="defs4142" />
  <sodipodi:namedview
     id="base"
     pagecolor="#ffffff"
     bordercolor="#666666"
     borderopacity="1.0"
     inkscape:pageopacity="0.0"
     inkscape:pageshadow="2"
     inkscape:zoom="15.839192"
     inkscape:cx="-19.382302"
     inkscape:cy="1.0732871"
     inkscape:document-units="px"
     inkscape:current-layer="layer1"
     showgrid="false"
     units="px"
     inkscape:window-width="1920"
     inkscape:window-height="993"
     inkscape:window-x="0"
     inkscape:window-y="0"
     inkscape:window-maximized="1"
     inkscape:document-rotation="0"
     inkscape:pagecheckerboard="0">
    <inkscape:grid
       type="xygrid"
       id="grid4688" />
  </sodipodi:namedview>
  <metadata
     id="metadata4145">
    <rdf:RDF>
      <cc:Work
         rdf:about="">
        <dc:format>image/svg+xml</dc:format>
        <dc:type
           rdf:resource="http://purl.org/dc/dcmitype/StillImage" />
      </cc:Work>
    </rdf:RDF>
  </metadata>
  <g
     inkscape:label="Layer 1"
     inkscape:groupmode="layer"
     id="layer1"
     transform="translate(0,-1036.3622)">
    <rect
       style="opacity:1;fill:#ffffff;stroke-width:0.34885"
       id="rect946-3"
       width="12"
       height="12"
       x="2"
       y="1038.3622"
       rx="6"
       ry="6" />
    <path
       id="path1229"
       style="fill:#ffffff;stroke-width:2.31179;stroke-opacity:0.5"
       d="m 7.9999999,1036.3622 c -4.4319997,0 -7.99999975,3.568 -7.99999975,8 0,4.432 3.56800005,8 7.99999975,8 H 24 c 4.432,0 8,-3.568 8,-8 0,-4.432 -3.568,-8 -8,-8 z m 0.5,1 H 23.5 c 0.129844,0 0.258534,0 0.386719,0.01 0.128184,0.01 0.256442,0.013 0.382812,0.025 0.12637,0.012 0.250599,0.027 0.375,0.045 0.124402,0.018 0.248816,0.039 0.371094,0.062 0.122278,0.023 0.243282,0.048 0.363281,0.076 0.12,0.029 0.237902,0.062 0.355469,0.096 0.117567,0.034 0.234631,0.07 0.349609,0.1093 0.114979,0.039 0.227608,0.081 0.339844,0.125 0.112236,0.044 0.224645,0.09 0.333984,0.1387 0.10934,0.049 0.215979,0.1005 0.322266,0.1543 0.106287,0.054 0.211373,0.1096 0.314453,0.168 0.103081,0.058 0.204969,0.1188 0.304688,0.1816 0.09972,0.063 0.196765,0.1283 0.292969,0.1953 0.0962,0.067 0.19067,0.1358 0.283203,0.2071 0.09253,0.071 0.18473,0.1454 0.273437,0.2207 0.08871,0.075 0.175039,0.1513 0.259766,0.2304 0.08473,0.079 0.167455,0.1614 0.248047,0.2442 0.08059,0.083 0.158073,0.1675 0.234375,0.2539 0.0763,0.086 0.150798,0.1739 0.222656,0.2636 0.07186,0.09 0.141726,0.1804 0.208984,0.2735 0.06726,0.093 0.132808,0.1889 0.195313,0.2851 0.0625,0.096 0.122091,0.1938 0.179687,0.293 0.0576,0.099 0.11153,0.1987 0.164063,0.3008 0.05253,0.102 0.103076,0.2058 0.15039,0.3105 0.04731,0.1048 0.09282,0.2111 0.134766,0.3184 0.04194,0.1073 0.08077,0.2164 0.117187,0.3262 0.03641,0.1097 0.07083,0.22 0.101563,0.332 0.03073,0.112 0.05714,0.2257 0.08203,0.3398 0.0249,0.1142 0.0475,0.2296 0.06641,0.3457 0.0189,0.1162 0.03412,0.2337 0.04688,0.3516 0.01276,0.118 0.02284,0.2358 0.0293,0.3555 0.0064,0.1196 0.0098,0.2401 0.0098,0.3613 0,0.1212 -0.0033,0.2417 -0.0098,0.3613 -0.0065,0.1197 -0.01654,0.2376 -0.0293,0.3555 -0.01276,0.1179 -0.02797,0.2355 -0.04688,0.3516 -0.0189,0.1161 -0.04151,0.2315 -0.06641,0.3457 -0.0249,0.1141 -0.0513,0.2278 -0.08203,0.3398 -0.03073,0.112 -0.06515,0.2223 -0.101563,0.332 -0.03641,0.1098 -0.07525,0.2189 -0.117187,0.3262 -0.04194,0.1073 -0.08745,0.2136 -0.134766,0.3184 -0.04731,0.1047 -0.09786,0.2065 -0.15039,0.3086 -0.05253,0.102 -0.106467,0.2035 -0.164063,0.3027 -0.0576,0.099 -0.117183,0.1968 -0.179687,0.293 -0.0625,0.096 -0.128054,0.1921 -0.195313,0.2851 -0.06726,0.093 -0.137127,0.1837 -0.208984,0.2735 -0.07186,0.09 -0.146354,0.1773 -0.222656,0.2636 -0.0763,0.086 -0.153784,0.1711 -0.234375,0.2539 -0.08059,0.083 -0.163321,0.1651 -0.248047,0.2442 -0.08473,0.079 -0.171059,0.1552 -0.259766,0.2304 -0.08871,0.075 -0.180905,0.1495 -0.273437,0.2208 -0.09253,0.071 -0.187,0.1399 -0.283203,0.207 -0.0962,0.067 -0.19325,0.1325 -0.292969,0.1953 -0.09972,0.063 -0.201607,0.1233 -0.304688,0.1816 -0.10308,0.058 -0.208166,0.1142 -0.314453,0.168 -0.106287,0.054 -0.212926,0.1053 -0.322266,0.1543 -0.109339,0.049 -0.221748,0.094 -0.333984,0.1387 -0.112236,0.044 -0.224865,0.086 -0.339844,0.125 -0.114978,0.039 -0.232042,0.075 -0.349609,0.1093 -0.117567,0.034 -0.235469,0.067 -0.355469,0.096 -0.119999,0.029 -0.241003,0.053 -0.363281,0.076 -0.122278,0.023 -0.246692,0.045 -0.371094,0.062 -0.124401,0.018 -0.24863,0.033 -0.375,0.045 -0.12637,0.012 -0.254628,0.019 -0.382812,0.025 -0.12814,0.01 -0.25683,0.01 -0.386674,0.01 H 8.5000449 c -0.129843,0 -0.258534,0 -0.386718,-0.01 -0.128185,-0.01 -0.256443,-0.014 -0.382813,-0.025 -0.12637,-0.012 -0.250599,-0.027 -0.375,-0.045 -0.124401,-0.018 -0.248816,-0.039 -0.371094,-0.062 -0.122277,-0.023 -0.243281,-0.048 -0.3632809,-0.076 -0.1199996,-0.029 -0.2379023,-0.062 -0.3554688,-0.096 -0.1175665,-0.034 -0.2346306,-0.07 -0.3496094,-0.1093 -0.1149788,-0.039 -0.2276074,-0.081 -0.3398437,-0.125 -0.1122364,-0.044 -0.2246453,-0.09 -0.3339844,-0.1387 -0.1093391,-0.049 -0.2159784,-0.1005 -0.3222656,-0.1543 -0.1062873,-0.054 -0.2113726,-0.1096 -0.3144531,-0.168 -0.1030806,-0.058 -0.2049683,-0.1188 -0.3046876,-0.1816 -0.099719,-0.063 -0.1967655,-0.1283 -0.2929687,-0.1953 -0.096203,-0.067 -0.1906708,-0.1358 -0.2832031,-0.207 -0.092532,-0.071 -0.1847307,-0.1455 -0.2734375,-0.2208 -0.088707,-0.075 -0.1750391,-0.1513 -0.2597657,-0.2304 -0.084726,-0.079 -0.1674552,-0.1614 -0.2480468,-0.2442 -0.080592,-0.083 -0.1580731,-0.1675 -0.234375,-0.2539 -0.076302,-0.086 -0.1507988,-0.1739 -0.2226563,-0.2636 -0.071857,-0.09 -0.141726,-0.1804 -0.2089843,-0.2735 -0.067258,-0.093 -0.1328081,-0.1889 -0.1953126,-0.2851 -0.062504,-0.096 -0.1220916,-0.1938 -0.1796874,-0.293 -0.057596,-0.099 -0.11153,-0.2007 -0.1640626,-0.3027 -0.052532,-0.1021 -0.1030761,-0.2039 -0.1503906,-0.3086 -0.047314,-0.1048 -0.092824,-0.2111 -0.1347656,-0.3184 -0.041942,-0.1073 -0.080773,-0.2164 -0.1171875,-0.3262 -0.036414,-0.1097 -0.070831,-0.22 -0.1015625,-0.332 -0.030732,-0.112 -0.057136,-0.2257 -0.082031,-0.3398 -0.024895,-0.1142 -0.047503,-0.2296 -0.066406,-0.3457 -0.018903,-0.1161 -0.034118,-0.2337 -0.046875,-0.3516 -0.012757,-0.1179 -0.022841,-0.2358 -0.029297,-0.3555 -0.00646,-0.1196 -0.00977,-0.2401 -0.00977,-0.3613 0,-0.1212 0.00331,-0.2417 0.00977,-0.3613 0.00646,-0.1197 0.01654,-0.2376 0.029297,-0.3555 0.012757,-0.1179 0.027972,-0.2355 0.046875,-0.3516 0.018903,-0.1161 0.041511,-0.2315 0.066406,-0.3457 0.024895,-0.1141 0.051299,-0.2278 0.082031,-0.3398 0.030732,-0.112 0.065148,-0.2223 0.1015625,-0.332 0.036414,-0.1098 0.075246,-0.2189 0.1171875,-0.3262 0.041942,-0.1073 0.087451,-0.2136 0.1347656,-0.3184 0.047314,-0.1047 0.097858,-0.2085 0.1503906,-0.3105 0.052533,-0.1021 0.1064667,-0.2016 0.1640626,-0.3008 0.057596,-0.099 0.117183,-0.1968 0.1796874,-0.293 0.062505,-0.096 0.1280542,-0.1921 0.1953126,-0.2851 0.067258,-0.093 0.1371269,-0.1837 0.2089843,-0.2735 0.071858,-0.09 0.1463544,-0.1773 0.2226563,-0.2636 0.076302,-0.086 0.1537834,-0.1711 0.234375,-0.2539 0.080592,-0.083 0.1633203,-0.1651 0.2480468,-0.2442 0.084727,-0.079 0.1710589,-0.1552 0.2597657,-0.2304 0.088707,-0.075 0.1809051,-0.1495 0.2734375,-0.2207 0.092532,-0.071 0.1869999,-0.14 0.2832031,-0.2071 0.096203,-0.067 0.1932495,-0.1325 0.2929687,-0.1953 0.099719,-0.063 0.201607,-0.1233 0.3046876,-0.1816 0.1030805,-0.058 0.2081658,-0.1142 0.3144531,-0.168 0.1062872,-0.054 0.2129265,-0.1053 0.3222656,-0.1543 0.1093391,-0.049 0.221748,-0.095 0.3339844,-0.1387 0.1122363,-0.044 0.2248649,-0.086 0.3398437,-0.125 0.1149788,-0.039 0.2320429,-0.075 0.3496094,-0.1093 0.1175665,-0.034 0.2354692,-0.067 0.3554688,-0.096 0.1199999,-0.029 0.2410039,-0.053 0.3632809,-0.076 0.122278,-0.023 0.246693,-0.045 0.371094,-0.062 0.124401,-0.018 0.24863,-0.033 0.375,-0.045 0.12637,-0.012 0.254628,-0.019 0.382813,-0.025 0.128184,-0.01 0.256875,-0.01 0.386718,-0.01 z" />
  </g>
</svg>
