<?xml version="1.0" encoding="UTF-8" standalone="no"?>
<svg
   width="32"
   height="16"
   viewBox="0 0 32 16"
   id="svg4140"
   version="1.1"
   inkscape:version="1.1.1 (3bf5ae0d25, 2021-09-20)"
   sodipodi:docname="switch-on.svg"
   xmlns:inkscape="http://www.inkscape.org/namespaces/inkscape"
   xmlns:sodipodi="http://sodipodi.sourceforge.net/DTD/sodipodi-0.dtd"
   xmlns="http://www.w3.org/2000/svg"
   xmlns:svg="http://www.w3.org/2000/svg"
   xmlns:rdf="http://www.w3.org/1999/02/22-rdf-syntax-ns#"
   xmlns:cc="http://creativecommons.org/ns#"
   xmlns:dc="http://purl.org/dc/elements/1.1/">
  <defs
     id="defs4142" />
  <sodipodi:namedview
     id="base"
     pagecolor="#ffffff"
     bordercolor="#666666"
     borderopacity="1.0"
     inkscape:pageopacity="0.0"
     inkscape:pageshadow="2"
     inkscape:zoom="15.839192"
     inkscape:cx="11.806158"
     inkscape:cy="1.0732871"
     inkscape:document-units="px"
     inkscape:current-layer="layer1"
     showgrid="false"
     units="px"
     inkscape:window-width="1920"
     inkscape:window-height="993"
     inkscape:window-x="0"
     inkscape:window-y="0"
     inkscape:window-maximized="1"
     inkscape:document-rotation="0"
     inkscape:pagecheckerboard="0">
    <inkscape:grid
       type="xygrid"
       id="grid4688" />
  </sodipodi:namedview>
  <metadata
     id="metadata4145">
    <rdf:RDF>
      <cc:Work
         rdf:about="">
        <dc:format>image/svg+xml</dc:format>
        <dc:type
           rdf:resource="http://purl.org/dc/dcmitype/StillImage" />
      </cc:Work>
    </rdf:RDF>
  </metadata>
  <g
     inkscape:label="Layer 1"
     inkscape:groupmode="layer"
     id="layer1"
     transform="translate(0,-1036.3622)">
    <rect
       style="opacity:1;fill:#000000;stroke-width:0.34885"
       id="rect946-3"
       width="12"
       height="12"
       x="-30"
       y="1038.3622"
       rx="6"
       ry="6"
       transform="scale(-1,1)" />
    <path
       id="path1229"
       style="fill:#000000;stroke-width:2.31179;stroke-opacity:0.5"
       d="m 24,1036.3622 c 4.432,0 8,3.568 8,8 0,4.432 -3.568,8 -8,8 H 8.0000001 c -4.432,0 -7.99999995,-3.568 -7.99999995,-8 0,-4.432 3.56799995,-8 7.99999995,-8 z m -0.5,1 H 8.5000001 c -0.1298439,0 -0.258534,0 -0.386719,0.01 -0.128184,0.01 -0.256442,0.013 -0.382812,0.025 -0.12637,0.012 -0.250599,0.027 -0.375,0.045 -0.124402,0.018 -0.248816,0.039 -0.371094,0.062 -0.122278,0.023 -0.243282,0.048 -0.363281,0.076 -0.12,0.029 -0.237902,0.062 -0.355469,0.096 -0.117567,0.034 -0.234631,0.07 -0.349609,0.1093 -0.114979,0.039 -0.227608,0.081 -0.339844,0.125 -0.112236,0.044 -0.224645,0.09 -0.333984,0.1387 -0.10934,0.049 -0.215979,0.1005 -0.322266,0.1543 -0.106287,0.054 -0.211373,0.1096 -0.314453,0.168 -0.103081,0.058 -0.204969,0.1188 -0.304688,0.1816 -0.09972,0.063 -0.196765,0.1283 -0.292969,0.1953 -0.0962,0.067 -0.19067,0.1358 -0.283203,0.2071 -0.09253,0.071 -0.1847299,0.1454 -0.273437,0.2207 -0.08871,0.075 -0.175039,0.1513 -0.259766,0.2304 -0.08473,0.079 -0.167455,0.1614 -0.248047,0.2442 -0.08059,0.083 -0.158073,0.1675 -0.234375,0.2539 -0.0763,0.086 -0.150798,0.1739 -0.222656,0.2636 -0.07186,0.09 -0.1417259,0.1804 -0.208984,0.2735 -0.06726,0.093 -0.132808,0.1889 -0.195313,0.2851 -0.0625,0.096 -0.122091,0.1938 -0.179687,0.293 -0.0576,0.099 -0.11153,0.1987 -0.164063,0.3008 -0.05253,0.102 -0.103076,0.2058 -0.15039,0.3105 -0.04731,0.1048 -0.09282,0.2111 -0.134766,0.3184 -0.04194,0.1073 -0.08077,0.2164 -0.117187,0.3262 -0.03641,0.1097 -0.07083,0.22 -0.101563,0.332 -0.03073,0.112 -0.05714,0.2257 -0.08203,0.3398 -0.0249,0.1142 -0.0475,0.2296 -0.06641,0.3457 -0.0189,0.1162 -0.03412,0.2337 -0.04688,0.3516 -0.01276,0.118 -0.02284,0.2358 -0.0293,0.3555 -0.0064,0.1196 -0.0098,0.2401 -0.0098,0.3613 0,0.1212 0.0033,0.2417 0.0098,0.3613 0.0065,0.1197 0.01654,0.2376 0.0293,0.3555 0.01276,0.1179 0.02797,0.2355 0.04688,0.3516 0.0189,0.1161 0.04151,0.2315 0.06641,0.3457 0.0249,0.1141 0.0513,0.2278 0.08203,0.3398 0.03073,0.112 0.06515,0.2223 0.101563,0.332 0.03641,0.1098 0.07525,0.2189 0.117187,0.3262 0.04194,0.1073 0.08745,0.2136 0.134766,0.3184 0.04731,0.1047 0.09786,0.2065 0.15039,0.3086 0.05253,0.102 0.106467,0.2035 0.164063,0.3027 0.0576,0.099 0.117183,0.1968 0.179687,0.293 0.0625,0.096 0.128054,0.1921 0.195313,0.2851 0.06726,0.093 0.137127,0.1837 0.208984,0.2735 0.07186,0.09 0.146354,0.1773 0.222656,0.2636 0.0763,0.086 0.1537841,0.1711 0.234375,0.2539 0.08059,0.083 0.163321,0.1651 0.248047,0.2442 0.08473,0.079 0.171059,0.1552 0.259766,0.2304 0.08871,0.075 0.180905,0.1495 0.273437,0.2208 0.09253,0.071 0.1870001,0.1399 0.283203,0.207 0.0962,0.067 0.19325,0.1325 0.292969,0.1953 0.09972,0.063 0.201607,0.1233 0.304688,0.1816 0.10308,0.058 0.208166,0.1142 0.314453,0.168 0.106287,0.054 0.212926,0.1053 0.322266,0.1543 0.109339,0.049 0.221748,0.094 0.333984,0.1387 0.112236,0.044 0.224865,0.086 0.339844,0.125 0.114978,0.039 0.232042,0.075 0.349609,0.1093 0.117567,0.034 0.235469,0.067 0.355469,0.096 0.119999,0.029 0.241003,0.053 0.363281,0.076 0.122278,0.023 0.246692,0.045 0.371094,0.062 0.124401,0.018 0.24863,0.033 0.375,0.045 0.12637,0.012 0.254628,0.019 0.382812,0.025 0.12814,0.01 0.2568301,0.01 0.386674,0.01 H 23.499955 c 0.129843,0 0.258534,0 0.386718,-0.01 0.128185,-0.01 0.256443,-0.014 0.382813,-0.025 0.12637,-0.012 0.250599,-0.027 0.375,-0.045 0.124401,-0.018 0.248816,-0.039 0.371094,-0.062 0.122277,-0.023 0.243281,-0.048 0.363281,-0.076 0.12,-0.029 0.237902,-0.062 0.355469,-0.096 0.117566,-0.034 0.234631,-0.07 0.349609,-0.1093 0.114979,-0.039 0.227608,-0.081 0.339844,-0.125 0.112236,-0.044 0.224645,-0.09 0.333984,-0.1387 0.10934,-0.049 0.215979,-0.1005 0.322266,-0.1543 0.106287,-0.054 0.211373,-0.1096 0.314453,-0.168 0.103081,-0.058 0.204968,-0.1188 0.304688,-0.1816 0.09972,-0.063 0.196765,-0.1283 0.292968,-0.1953 0.0962,-0.067 0.190671,-0.1358 0.283204,-0.207 0.09253,-0.071 0.18473,-0.1455 0.273437,-0.2208 0.08871,-0.075 0.175039,-0.1513 0.259766,-0.2304 0.08473,-0.079 0.167455,-0.1614 0.248047,-0.2442 0.08059,-0.083 0.158073,-0.1675 0.234375,-0.2539 0.0763,-0.086 0.150798,-0.1739 0.222656,-0.2636 0.07186,-0.09 0.141726,-0.1804 0.208984,-0.2735 0.06726,-0.093 0.132808,-0.1889 0.195313,-0.2851 0.0625,-0.096 0.122091,-0.1938 0.179687,-0.293 0.0576,-0.099 0.11153,-0.2007 0.164063,-0.3027 0.05253,-0.1021 0.103076,-0.2039 0.15039,-0.3086 0.04731,-0.1048 0.09282,-0.2111 0.134766,-0.3184 0.04194,-0.1073 0.08077,-0.2164 0.117187,-0.3262 0.03641,-0.1097 0.07083,-0.22 0.101563,-0.332 0.03073,-0.112 0.05714,-0.2257 0.08203,-0.3398 0.0249,-0.1142 0.0475,-0.2296 0.06641,-0.3457 0.0189,-0.1161 0.03412,-0.2337 0.04687,-0.3516 0.01276,-0.1179 0.02284,-0.2358 0.0293,-0.3555 0.0065,-0.1196 0.0098,-0.2401 0.0098,-0.3613 0,-0.1212 -0.0033,-0.2417 -0.0098,-0.3613 -0.0065,-0.1197 -0.01654,-0.2376 -0.0293,-0.3555 -0.01276,-0.1179 -0.02797,-0.2355 -0.04687,-0.3516 -0.0189,-0.1161 -0.04151,-0.2315 -0.06641,-0.3457 -0.0249,-0.1141 -0.0513,-0.2278 -0.08203,-0.3398 -0.03073,-0.112 -0.06515,-0.2223 -0.101563,-0.332 -0.03641,-0.1098 -0.07525,-0.2189 -0.117187,-0.3262 -0.04194,-0.1073 -0.08745,-0.2136 -0.134766,-0.3184 -0.04731,-0.1047 -0.09786,-0.2085 -0.15039,-0.3105 -0.05253,-0.1021 -0.106467,-0.2016 -0.164063,-0.3008 -0.0576,-0.099 -0.117183,-0.1968 -0.179687,-0.293 -0.0625,-0.096 -0.128054,-0.1921 -0.195313,-0.2851 -0.06726,-0.093 -0.137127,-0.1837 -0.208984,-0.2735 -0.07186,-0.09 -0.146355,-0.1773 -0.222656,-0.2636 -0.0763,-0.086 -0.153784,-0.1711 -0.234375,-0.2539 -0.08059,-0.083 -0.163321,-0.1651 -0.248047,-0.2442 -0.08473,-0.079 -0.171059,-0.1552 -0.259766,-0.2304 -0.08871,-0.075 -0.180905,-0.1495 -0.273437,-0.2207 -0.09253,-0.071 -0.187,-0.14 -0.283204,-0.2071 -0.0962,-0.067 -0.193249,-0.1325 -0.292968,-0.1953 -0.09972,-0.063 -0.201607,-0.1233 -0.304688,-0.1816 -0.10308,-0.058 -0.208166,-0.1142 -0.314453,-0.168 -0.106287,-0.054 -0.212926,-0.1053 -0.322266,-0.1543 -0.109339,-0.049 -0.221748,-0.095 -0.333984,-0.1387 -0.112236,-0.044 -0.224865,-0.086 -0.339844,-0.125 -0.114978,-0.039 -0.232043,-0.075 -0.349609,-0.1093 -0.117567,-0.034 -0.235469,-0.067 -0.355469,-0.096 -0.12,-0.029 -0.241004,-0.053 -0.363281,-0.076 -0.122278,-0.023 -0.246693,-0.045 -0.371094,-0.062 -0.124401,-0.018 -0.24863,-0.033 -0.375,-0.045 -0.12637,-0.012 -0.254628,-0.019 -0.382813,-0.025 -0.128184,-0.01 -0.256875,-0.01 -0.386718,-0.01 z" />
  </g>
</svg>
