<svg xmlns="http://www.w3.org/2000/svg" xmlns:xlink="http://www.w3.org/1999/xlink" width="48" height="48">
  <defs id="acyl-settings">
    <linearGradient id="acyl-gradient" x1="0%" x2="0%" y1="0%" y2="100%">
      <stop offset="100%" style="stop-color:#A0A0A0;stop-opacity:1.000000"/>
    </linearGradient>
    <g id="acyl-filter">
  </g>
    <g id="acyl-drawing">
      <path d="M 5.12695 8.00195 C 3.39361 8.00195 2 9.31612 2 10.9492 L 2.13086 37.0527 C 2.13086 38.6858 3.52447 40 5.25781 40 L 42.873 40 C 44.6064 40 46 38.6858 46 37.0527 L 46 16.2363 C 46 14.6032 44.6064 13.2832 42.873 13.2832 L 26.1816 13.2832 L 24.9434 10.9492 C 24.2265 9.05447 23.1587 7.93654 21.8164 8.00195 L 5.12695 8.00195 z M 36 19.0801 L 35.416 21.2188 L 35.4434 21.2461 L 35.3945 21.2949 L 33.9395 26.6172 L 32.1035 26.1152 L 32.6797 24.0098 L 27.9023 28.7871 L 26.3086 27.1934 L 31.0918 22.4102 L 28.9844 22.9922 L 28.4785 21.1562 L 33.8223 19.6816 L 33.8516 19.6523 L 33.8672 19.668 L 36 19.0801 z M 12 19.0957 L 14.1387 19.6797 L 14.1641 19.6523 L 14.2148 19.7012 L 19.5371 21.1562 L 19.0352 22.9922 L 16.9297 22.416 L 21.707 27.1934 L 20.1152 28.7871 L 15.332 24.0039 L 15.9141 26.1113 L 14.0781 26.6172 L 12.6016 21.2734 L 12.5742 21.248 L 12.5898 21.2305 L 12 19.0957 z M 24.0078 27.8555 C 24.8384 27.8555 25.6687 28.1706 26.2969 28.7988 C 27.5533 30.0552 27.5533 32.1206 26.2969 33.377 C 25.0406 34.6334 22.975 34.6334 21.7188 33.377 C 20.4624 32.1206 20.4624 30.0552 21.7188 28.7988 C 22.347 28.1706 23.1773 27.8555 24.0078 27.8555 z M 24.0078 29.748 C 23.6686 29.748 23.3307 29.8802 23.0664 30.1445 C 22.5379 30.6731 22.5379 31.5026 23.0664 32.0312 C 23.595 32.5598 24.4226 32.5598 24.9512 32.0312 C 25.4798 31.5026 25.4798 30.6731 24.9512 30.1445 C 24.6869 29.8802 24.347 29.748 24.0078 29.748 z " id="path-main"/>
    </g>
  </defs>
  <g id="acyl-visual">
    <use id="visible1" style="fill:url(#acyl-gradient)" xlink:href="#acyl-drawing"/>
  </g>
</svg>
