<svg xmlns="http://www.w3.org/2000/svg" xmlns:xlink="http://www.w3.org/1999/xlink" width="48" height="48">
  <defs id="acyl-settings">
    <linearGradient id="acyl-gradient" x1="0%" x2="0%" y1="0%" y2="100%">
      <stop offset="100%" style="stop-color:#A0A0A0;stop-opacity:1.000000"/>
    </linearGradient>
    <g id="acyl-filter">
  </g>
    <g id="acyl-drawing">
      <path d="M 5.12695 8.00195 C 3.39361 8.00195 2 9.31612 2 10.9492 L 2.13086 37.0527 C 2.13086 38.6858 3.52447 40 5.25781 40 L 42.873 40 C 44.6064 40 46 38.6858 46 37.0527 L 46 16.2363 C 46 14.6032 44.6064 13.2832 42.873 13.2832 L 26.1816 13.2832 L 24.9434 10.9492 C 24.2265 9.05447 23.1587 7.93654 21.8164 8.00195 L 5.12695 8.00195 z M 17.4805 17.1992 L 18.5957 17.1992 L 27.1641 17.1992 L 30.5195 20.5547 L 30.5195 34.0859 L 30.5195 35.1992 L 28.4648 35.1992 L 28.2891 35.1992 L 26.2363 35.1992 L 26.2363 32.9707 L 28.2891 32.9707 L 28.2891 21.4785 L 26.2402 19.4297 L 19.7109 19.4297 L 19.7109 21.6602 L 17.4805 21.6602 L 17.4805 19.4297 L 17.4805 17.1992 z M 17.4805 23.8887 L 19.7109 23.8887 L 19.7109 26.1191 L 17.4805 26.1191 L 17.4805 23.8887 z M 17.4805 28.3477 L 19.7109 28.3477 L 19.7109 30.5781 L 17.4805 30.5781 L 17.4805 28.3477 z M 17.4805 32.8066 L 19.7109 32.8066 C 19.7109 33.6042 19.711 34.4016 19.7109 35.1992 L 18.5957 35.1992 L 17.4805 35.1992 L 17.4805 34.0859 L 17.4805 32.8066 z M 21.7773 32.9707 L 24.0059 32.9707 L 24.0059 35.1992 L 21.7773 35.1992 L 21.7773 32.9707 z" id="path-main"/>
    </g>
  </defs>
  <g id="acyl-visual">
    <use id="visible1" style="fill:url(#acyl-gradient)" xlink:href="#acyl-drawing"/>
  </g>
</svg>
