<svg xmlns="http://www.w3.org/2000/svg" xmlns:xlink="http://www.w3.org/1999/xlink" width="48" height="48">
  <defs id="acyl-settings">
    <linearGradient id="acyl-gradient" x1="0%" x2="0%" y1="0%" y2="100%">
      <stop offset="100%" style="stop-color:#A0A0A0;stop-opacity:1.000000"/>
    </linearGradient>
    <g id="acyl-filter">
  </g>
    <g id="acyl-drawing">
      <path d="M 5.125 8 C 3.391658 8 2 9.304406 2 10.9375 L 2.125 37.0625 C 2.125 38.695593 3.51666 39.999996 5.25 40 L 42.875 40 C 44.608342 40 46.000002 38.695593 46 37.0625 L 46 16.25 C 46 14.616907 44.608338 13.28125 42.875 13.28125 L 26.1875 13.28125 L 24.9375 10.9375 C 24.220631 9.042752 23.15482 7.9345843 21.8125 8 L 5.125 8 z M 23.8125 15.78125 C 25.831258 15.77027 27.844577 15.80339 27.9375 15.9375 C 28.123346 16.205725 27 25.40625 27 25.40625 C 27 25.40625 32.151397 24.456458 32.375 24.84375 C 32.598603 25.231042 24.877691 37.3654 23.8125 37.375 C 22.74731 37.3846 14.647118 25.251297 14.90625 24.84375 C 15.158374 24.447225 20.59375 25.3125 20.59375 25.3125 C 20.59375 25.3125 19.574584 16.117865 19.71875 15.9375 C 19.79083 15.84732 21.793742 15.792233 23.8125 15.78125 z " id="path-main"/>
    </g>
  </defs>
  <g id="acyl-visual">
    <use id="visible1" style="fill:url(#acyl-gradient)" xlink:href="#acyl-drawing"/>
  </g>
</svg>
