<svg xmlns="http://www.w3.org/2000/svg" height="64" width="64">
    <path d="M48.63 3.5H14.086C9.906 3.5 6.5 7.005 6.5 11.308V62.5h43.414c4.18 0 7.586-3.505 7.586-7.808V12.241" fill="#757575" fill-opacity=".05" stroke="#757575" stroke-width="1.2" stroke-linecap="round" stroke-linejoin="round"/>
      <g
     transform="scale(1.5 1.5) translate(11 12)"
     id="g2522">     <path d="M8.25 2.75V5.5h1.375V2.75zm4.125 0V5.5h1.375V2.75zm5.332 1.367l-1.23 2.07 1.203.688 1.23-2.113zm-13.426.094l-1.16.687 1.274 2.07 1.16-.687zM5.5 6.875l-2.75 2.75L11 19.25l8.25-9.625-2.75-2.75zm.602 1.375h4.21v1.375H4.728zm5.585 0h4.215l1.375 1.375h-5.59zM5.715 11h4.598v5.344zm5.973 0h4.597l-4.598 5.344zm0 0" fill="#7F8080"/>
    </g>
</svg>
