<svg xmlns="http://www.w3.org/2000/svg" height="64" width="64">
    <path d="M48.63 3.5H14.086C9.906 3.5 6.5 7.005 6.5 11.308V62.5h43.414c4.18 0 7.586-3.505 7.586-7.808V12.241" fill="#757575" fill-opacity=".05" stroke="#757575" stroke-width="1.2" stroke-linecap="round" stroke-linejoin="round"/>
      <g
     transform="scale(1.5 1.5) translate(11 12)"
     id="g2522">     <g fill="#FE8C19">
        <path d="M2.75 2.75v16.5h16.5V2.75H16.5V5.5h-2.75V2.75h-5.5V5.5H5.5V2.75zm1.375 4.125h13.75v11H4.125zm0 0"/>
        <path d="M9.625 12.375V16.5H11v-1.375h4.125V16.5H16.5v-4.125h-1.375v1.375H11v-1.375zM5.5 8.25v4.125h1.375V11h5.5v1.375h1.375V8.25h-1.375v1.375h-5.5V8.25zm0 0"/>
    </g>
    </g>
</svg>
