<svg xmlns="http://www.w3.org/2000/svg" height="64" width="64">
    <path d="M48.63 3.5H14.086C9.906 3.5 6.5 7.005 6.5 11.308V62.5h43.414c4.18 0 7.586-3.505 7.586-7.808V12.241" fill="#757575" fill-opacity=".05" stroke="#757575" stroke-width="1.2" stroke-linecap="round" stroke-linejoin="round"/>
      <g
     transform="scale(1.5 1.5) translate(11 12)"
     id="g2522">     <path d="M8.25 2.75c-.762 0-1.375.613-1.375 1.375V5.5h-2.75c-.762 0-1.375.613-1.375 1.375v11c0 .762.613 1.375 1.375 1.375h11c.762 0 1.375-.613 1.375-1.375V16.5h1.375c.762 0 1.375-.613 1.375-1.375v-11c0-.762-.613-1.375-1.375-1.375zm0 1.375h9.625v11H16.5v-8.25c0-.762-.613-1.375-1.375-1.375H9.66c-.848-.363-1.445-.79-1.41-1.375m-4.125 2.75h11v11h-11zM5.5 8.25V11h8.25V8.25zm0 4.125v1.375h8.25v-1.375zm0 2.75V16.5h8.25v-1.375zm0 0" fill="#19FF8C"/>
    </g>
</svg>
