<svg xmlns="http://www.w3.org/2000/svg" height="64" width="64">
    <path d="M48.63 3.5H14.086C9.906 3.5 6.5 7.005 6.5 11.308V62.5h43.414c4.18 0 7.586-3.505 7.586-7.808V12.241" fill="#757575" fill-opacity=".05" stroke="#757575" stroke-width="1.2" stroke-linecap="round" stroke-linejoin="round"/>
      <g
     transform="scale(1.5 1.5) translate(11 12)"
     id="g2522">     <path d="M6.875 2.75c-.758 0-1.375.617-1.375 1.375S6.117 5.5 6.875 5.5 8.25 4.883 8.25 4.125 7.633 2.75 6.875 2.75m6.875 0l-2.668 2.148 3.57 4.426-3.351 3.352 2.449 2.449 5.5-5.5zm-8.938 5.5a2.06 2.06 0 0 0-2.062 2.063 2.06 2.06 0 0 0 2.063 2.062 2.06 2.06 0 0 0 2.062-2.063A2.06 2.06 0 0 0 4.812 8.25m4.125 6.875a2.06 2.06 0 0 0-2.062 2.063 2.06 2.06 0 0 0 2.063 2.062A2.06 2.06 0 0 0 11 17.187a2.06 2.06 0 0 0-2.063-2.062" fill="#FF19C5"/>
    </g>
</svg>
