<svg xmlns="http://www.w3.org/2000/svg" height="64" width="64">
    <path d="M48.63 3.5H14.086C9.906 3.5 6.5 7.005 6.5 11.308V62.5h43.414c4.18 0 7.586-3.505 7.586-7.808V12.241" fill="#757575" fill-opacity=".05" stroke="#757575" stroke-width="1.2" stroke-linecap="round" stroke-linejoin="round"/>
      <g
     transform="scale(1.5 1.5) translate(11 12)"
     id="g2522">     <path d="M4.125 2.75c-.762 0-1.375.613-1.375 1.375v13.75c0 .762.613 1.375 1.375 1.375h11c.762 0 1.375-.613 1.375-1.375h1.375c.762 0 1.375-.613 1.375-1.375v-2.75c0-.254-.09-.484-.21-.688.12-.203.21-.433.21-.687v-2.75c0-.254-.09-.484-.21-.688.12-.203.21-.433.21-.687V5.5c0-.762-.613-1.375-1.375-1.375H16.5c0-.762-.613-1.375-1.375-1.375zm0 1.375h11v13.75h-11zM5.5 5.5v2.75h8.25V5.5zm11 0h1.375v2.75H16.5zm-11 4.125V11h8.25V9.625zm11 0h1.375v2.75H16.5zm-11 2.75v1.375h8.25v-1.375zm11 1.375h1.375v2.75H16.5zm-11 1.375V16.5h8.25v-1.375zm0 0" fill="#FE198C"/>
    </g>
</svg>
