<svg xmlns="http://www.w3.org/2000/svg" height="64" width="64">
    <path d="M48.63 3.5H14.086C9.906 3.5 6.5 7.005 6.5 11.308V62.5h43.414c4.18 0 7.586-3.505 7.586-7.808V12.241" fill="#757575" fill-opacity=".05" stroke="#757575" stroke-width="1.2" stroke-linecap="round" stroke-linejoin="round"/>
      <g
     transform="scale(1.5 1.5) translate(11 12)"
     id="g2522">     <path d="M11 2.75A8.247 8.247 0 0 0 2.75 11 8.247 8.247 0 0 0 11 19.25 8.247 8.247 0 0 0 19.25 11 8.247 8.247 0 0 0 11 2.75m0 1.375a6.875 6.875 0 1 1 0 13.75 6.875 6.875 0 0 1 0-13.75M11 5.5c-3.04 0-5.5 2.46-5.5 5.5h2.75c0-1.52 1.23-2.75 2.75-2.75zm0 4.125c-.758 0-1.375.617-1.375 1.375s.617 1.375 1.375 1.375 1.375-.617 1.375-1.375S11.758 9.625 11 9.625M13.75 11c0 1.52-1.23 2.75-2.75 2.75v2.75c3.04 0 5.5-2.46 5.5-5.5zm0 0" fill="#19FF8C"/>
    </g>
</svg>
