<svg xmlns="http://www.w3.org/2000/svg" height="64" width="64">
    <path d="M48.63 3.5H14.086C9.906 3.5 6.5 7.005 6.5 11.308V62.5h43.414c4.18 0 7.586-3.505 7.586-7.808V12.241" fill="#757575" fill-opacity=".05" stroke="#757575" stroke-width="1.2" stroke-linecap="round" stroke-linejoin="round"/>
      <g
     transform="scale(1.5 1.5) translate(11 12)"
     id="g2522">     <path d="M12.5 2.75L8.172 18.89l1.332.36 4.324-16.14zM7.266 5.5l-4.07 4.324-.446.48.445.473 4.047 4.348.985-.953-3.606-3.867L8.25 6.457zm9.234 0a2.744 2.744 0 0 0-2.75 2.75v1.375h1.375V8.25c0-.762.613-1.375 1.375-1.375s1.375.613 1.375 1.375v1.375a2.744 2.744 0 0 0-2.75 2.75H16.5c0-.762.613-1.375 1.375-1.375h1.375V8.25A2.744 2.744 0 0 0 16.5 5.5m-.688 8.25a.689.689 0 0 0 0 1.375.689.689 0 0 0 0-1.375" fill="#198CFE"/>
    </g>
</svg>
