<svg xmlns="http://www.w3.org/2000/svg" height="64" width="64">
    <path d="M48.63 3.5H14.086C9.906 3.5 6.5 7.005 6.5 11.308V62.5h43.414c4.18 0 7.586-3.505 7.586-7.808V12.241" fill="#757575" fill-opacity=".05" stroke="#757575" stroke-width="1.2" stroke-linecap="round" stroke-linejoin="round"/>
      <g
     transform="scale(1.5 1.5) translate(11 12)"
     id="g2522">     <path d="M11 2.75A8.252 8.252 0 0 0 2.75 11 8.252 8.252 0 0 0 11 19.25 8.252 8.252 0 0 0 19.25 11 8.252 8.252 0 0 0 11 2.75m0 1.375a6.875 6.875 0 1 1 0 13.75 6.875 6.875 0 0 1 0-13.75M11 5.5a5.498 5.498 0 0 0-3.52 1.277l.883 1.055A4.112 4.112 0 0 1 11 6.875 4.126 4.126 0 0 1 15.125 11H16.5c0-3.04-2.46-5.5-5.5-5.5m1.375 2.75l-2.203 4.402a1.382 1.382 0 0 0-.547 1.098c0 .758.617 1.375 1.375 1.375s1.375-.617 1.375-1.375a1.36 1.36 0 0 0-.348-.906zm-6.145.023A5.524 5.524 0 0 0 5.5 11h1.375c0-.719.191-1.422.547-2.043zm0 0" fill="#FE1919"/>
    </g>
</svg>
