<svg xmlns="http://www.w3.org/2000/svg" height="64" width="64">
    <path d="M48.63 3.5H14.086C9.906 3.5 6.5 7.005 6.5 11.308V62.5h43.414c4.18 0 7.586-3.505 7.586-7.808V12.241" fill="#757575" fill-opacity=".05" stroke="#757575" stroke-width="1.2" stroke-linecap="round" stroke-linejoin="round"/>
      <g
     transform="scale(1.5 1.5) translate(11 12)"
     id="g2522">     <path d="M19.246 5.023l-9.625.008-3.36 9.2-2.136-3.708H2.75v1.375h.59l2.93 5.079 4.156-10.579h8.824zm-5.5 2.75a4.116 4.116 0 0 0-4.125 4.125 4.116 4.116 0 0 0 4.125 4.125c1.063 0 2.02-.41 2.75-1.066v1.066h1.375v-8.25h-1.375V8.84a4.098 4.098 0 0 0-2.75-1.067m0 1.375a2.744 2.744 0 0 1 2.75 2.75 2.744 2.744 0 0 1-2.75 2.75 2.744 2.744 0 0 1-2.75-2.75 2.744 2.744 0 0 1 2.75-2.75" fill="#7F8080"/>
    </g>
</svg>
