<svg xmlns="http://www.w3.org/2000/svg" height="64" width="64">
    <path d="M48.63 3.5H14.086C9.906 3.5 6.5 7.005 6.5 11.308V62.5h43.414c4.18 0 7.586-3.505 7.586-7.808V12.241" fill="#757575" fill-opacity=".05" stroke="#757575" stroke-width="1.2" stroke-linecap="round" stroke-linejoin="round"/>
      <g
     transform="scale(1.5 1.5) translate(11 12)"
     id="g2522">     <path d="M11 2.75a4.116 4.116 0 0 0-4.125 4.125V8.25H8.25V6.875c0-2 1.035-2.75 2.75-2.75s2.75.75 2.75 2.75V11H4.125v8.25h13.75V11h-2.75V6.875A4.116 4.116 0 0 0 11 2.75m-5.5 9.625h11v5.5h-11zm0 0" fill="#FE8C19"/>
    </g>
</svg>
