<svg xmlns="http://www.w3.org/2000/svg" height="64" width="64">
    <path d="M48.63 3.5H14.086C9.906 3.5 6.5 7.005 6.5 11.308V62.5h43.414c4.18 0 7.586-3.505 7.586-7.808V12.241" fill="#757575" fill-opacity=".05" stroke="#757575" stroke-width="1.2" stroke-linecap="round" stroke-linejoin="round"/>
      <g
     transform="scale(1.5 1.5) translate(11 12)"
     id="g2522">     <path d="M9.625 2.75v16.5H11v-8.32a4.8 4.8 0 0 0 3.438 1.449 4.8 4.8 0 0 0 4.812-4.813 4.802 4.802 0 0 0-4.813-4.812A4.783 4.783 0 0 0 11 4.204v-1.45zm4.813 1.375a3.428 3.428 0 0 1 3.437 3.438A3.428 3.428 0 0 1 14.437 11 3.428 3.428 0 0 1 11 7.562a3.428 3.428 0 0 1 3.438-3.437m-10.313 5.5c-.758 0-1.375.617-1.375 1.375s.617 1.375 1.375 1.375S5.5 11.758 5.5 11s-.617-1.375-1.375-1.375" fill="#FE1952"/>
    </g>
</svg>
