<svg xmlns="http://www.w3.org/2000/svg" height="64" width="64">
    <path d="M48.63 3.5H14.086C9.906 3.5 6.5 7.005 6.5 11.308V62.5h43.414c4.18 0 7.586-3.505 7.586-7.808V12.241" fill="#757575" fill-opacity=".05" stroke="#757575" stroke-width="1.2" stroke-linecap="round" stroke-linejoin="round"/>
      <g
     transform="scale(1.5 1.5) translate(11 12)"
     id="g2522">     <path d="M2.75 2.75L6.875 11 2.75 19.25H5.5L9.625 11 5.5 2.75zm4.125 0L11 11l-4.125 8.25h2.75l2.75-5.5 2.75 5.5h2.75l-8.25-16.5zm8.25 5.5L16.5 11h2.75V8.25zm2.063 4.125l1.375 2.75h.687v-2.75zm0 0" fill-rule="evenodd" fill="#7F8080"/>
    </g>
</svg>
