<svg xmlns="http://www.w3.org/2000/svg" height="64" width="64">
    <path d="M48.63 3.5H14.086C9.906 3.5 6.5 7.005 6.5 11.308V62.5h43.414c4.18 0 7.586-3.505 7.586-7.808V12.241" fill="#757575" fill-opacity=".05" stroke="#757575" stroke-width="1.2" stroke-linecap="round" stroke-linejoin="round"/>
      <g
     transform="scale(1.5 1.5) translate(11 12)"
     id="g2522">     <path d="M7.563 2.75a2.06 2.06 0 0 0-.688 4.004v8.496A2.065 2.065 0 0 0 5.5 17.188a2.06 2.06 0 0 0 2.063 2.062 2.06 2.06 0 0 0 .687-4.004V6.754a2.06 2.06 0 0 0-.688-4.004m4.813 0l-2.75 1.926 2.75 2.199V5.5h1.375c.762 0 1.375.613 1.375 1.375v8.375a2.065 2.065 0 0 0-1.375 1.938 2.06 2.06 0 0 0 2.063 2.062 2.06 2.06 0 0 0 .687-4.004V6.875c0-1.523-1.223-2.676-2.75-2.75h-1.375zM7.562 4.125a.689.689 0 0 1 0 1.375.689.689 0 0 1 0-1.375m0 12.375a.689.689 0 0 1 0 1.375.689.689 0 0 1 0-1.375m8.25 0a.689.689 0 0 1 0 1.375.689.689 0 0 1 0-1.375" fill="#7F8080"/>
    </g>
</svg>
