<svg xmlns="http://www.w3.org/2000/svg" height="64" width="64">
    <path d="M48.63 3.5H14.086C9.906 3.5 6.5 7.005 6.5 11.308V62.5h43.414c4.18 0 7.586-3.505 7.586-7.808V12.241" fill="#757575" fill-opacity=".05" stroke="#757575" stroke-width="1.2" stroke-linecap="round" stroke-linejoin="round"/>
      <g
     transform="scale(1.5 1.5) translate(11 12)"
     id="g2522">     <path d="M10.953 16.113L5.79 10.95l5.164-5.16 1.723 1.719-3.446 3.441 1.723 1.723 5.164-5.164-4.5-4.5a.95.95 0 0 0-1.332 0l-7.273 7.277a.936.936 0 0 0 0 1.332l7.273 7.274a.943.943 0 0 0 1.332 0l7.274-7.274a.936.936 0 0 0 0-1.332L17.836 9.23zm0 0" fill="#FEC519"/>
    </g>
</svg>
