<svg xmlns="http://www.w3.org/2000/svg" height="64" width="64">
    <path d="M48.63 3.5H14.086C9.906 3.5 6.5 7.005 6.5 11.308V62.5h43.414c4.18 0 7.586-3.505 7.586-7.808V12.241" fill="#757575" fill-opacity=".05" stroke="#757575" stroke-width="1.2" stroke-linecap="round" stroke-linejoin="round"/>
      <g
     transform="scale(1.5 1.5) translate(11 12)"
     id="g2522">     <path d="M2.527 2.844v16.5h16.5v-16.5zm1.375 1.375h13.75v13.75H3.902zm1.375 2.75v2.75h2.75v-2.75zm8.25 0v2.75h2.75v-2.75zm-5.5 5.5v1.375h5.5v-1.375zm5.5 1.375v1.375h1.375v-1.375zm1.375 1.375v1.375h1.375v-1.375zm-6.875-1.375H6.652v1.375h1.375zm-1.375 1.375H5.277v1.375h1.375zm0 0" fill="#FE1919"/>
    </g>
</svg>
