<svg xmlns="http://www.w3.org/2000/svg" height="64" width="64">
    <path d="M48.63 3.5H14.086C9.906 3.5 6.5 7.005 6.5 11.308V62.5h43.414c4.18 0 7.586-3.505 7.586-7.808V12.241" fill="#757575" fill-opacity=".05" stroke="#757575" stroke-width="1.2" stroke-linecap="round" stroke-linejoin="round"/>
      <g
     transform="scale(1.5 1.5) translate(11 12)"
     id="g2522">     <path d="M4.125 4.125c-.762 0-1.375.613-1.375 1.375v11c0 .762.613 1.375 1.375 1.375h13.75c.762 0 1.375-.613 1.375-1.375v-11c0-.762-.613-1.375-1.375-1.375zM11.688 5.5c.382 0 .687.305.687.688a.684.684 0 0 1-.688.687.684.684 0 0 1-.687-.688c0-.382.305-.687.688-.687m2.75 0c.382 0 .687.305.687.688a.684.684 0 0 1-.688.687.684.684 0 0 1-.687-.688c0-.382.305-.687.688-.687m2.75 0c.382 0 .687.305.687.688a.684.684 0 0 1-.688.687.684.684 0 0 1-.687-.688c0-.382.305-.687.688-.687M4.124 8.25h13.75v8.25H4.125zm0 0" fill="#19FF8C"/>
    </g>
</svg>
