<svg xmlns="http://www.w3.org/2000/svg" height="64" width="64">
    <path d="M48.63 3.5H14.086C9.906 3.5 6.5 7.005 6.5 11.308V62.5h43.414c4.18 0 7.586-3.505 7.586-7.808V12.241" fill="#757575" fill-opacity=".05" stroke="#757575" stroke-width="1.2" stroke-linecap="round" stroke-linejoin="round"/>
      <g
     transform="scale(1.5 1.5) translate(11 12)"
     id="g2522">     <path d="M17.188 2.75a2.06 2.06 0 0 0-2.063 2.063 2.06 2.06 0 0 0 2.063 2.062 2.06 2.06 0 0 0 2.062-2.063 2.06 2.06 0 0 0-2.063-2.062m-6.875 1.375a7.564 7.564 0 0 0 0 15.125 7.564 7.564 0 0 0 7.563-7.563 7.542 7.542 0 0 0-1.766-4.843A2.744 2.744 0 0 1 13.75 11a2.749 2.749 0 1 1 1.45-5.082 7.569 7.569 0 0 0-4.887-1.793" fill="#198CFE"/>
    </g>
</svg>
