<svg xmlns="http://www.w3.org/2000/svg" height="64" width="64">
    <path d="M48.63 3.5H14.086C9.906 3.5 6.5 7.005 6.5 11.308V62.5h43.414c4.18 0 7.586-3.505 7.586-7.808V12.241" fill="#757575" fill-opacity=".05" stroke="#757575" stroke-width="1.2" stroke-linecap="round" stroke-linejoin="round"/>
      <g
     transform="scale(1.5 1.5) translate(11 12)"
     id="g2522">     <path d="M11 2.75A8.252 8.252 0 0 0 2.75 11 8.252 8.252 0 0 0 11 19.25a8.221 8.221 0 0 0 5.828-2.422l-.969-.969A6.871 6.871 0 0 1 4.125 11a6.871 6.871 0 1 1 11.734-4.86l.97-.968A8.221 8.221 0 0 0 11 2.75zm0 0" fill-rule="evenodd" fill="#19C5FE"/>
    </g>
</svg>
