<svg xmlns="http://www.w3.org/2000/svg" height="64" width="64">
    <path d="M48.63 3.5H14.086C9.906 3.5 6.5 7.005 6.5 11.308V62.5h43.414c4.18 0 7.586-3.505 7.586-7.808V12.241" fill="#757575" fill-opacity=".05" stroke="#757575" stroke-width="1.2" stroke-linecap="round" stroke-linejoin="round"/>
      <g
     transform="scale(1.5 1.5) translate(11 12)"
     id="g2522">     <path d="M2.75 2.75v1.375H11V2.75zm0 4.125V8.25h16.5V6.875zm0 4.125v1.375h6.875V11zm9.625 0v4.125H11v.023l4.102 4.102h.043l4.105-4.102v-.023h-1.375V11zm1.375 1.375h2.75v2.75h.824l-2.199 2.203-2.2-2.203h.825zm-11 1.375v1.375h4.125V13.75zm0 4.125v1.375h6.875v-1.375zm0 0" fill="#FE1919"/>
    </g>
</svg>
