<svg xmlns="http://www.w3.org/2000/svg" height="64" width="64">
    <path d="M48.63 3.5H14.086C9.906 3.5 6.5 7.005 6.5 11.308V62.5h43.414c4.18 0 7.586-3.505 7.586-7.808V12.241" fill="#757575" fill-opacity=".05" stroke="#757575" stroke-width="1.2" stroke-linecap="round" stroke-linejoin="round"/>
      <g
     transform="scale(1.5 1.5) translate(11 12)"
     id="g2522">     <path d="M2.75 2.75v1.375h16.5V2.75zm.688 2.75a.684.684 0 0 0-.688.688c0 .382.305.687.688.687a.684.684 0 0 0 .687-.688.684.684 0 0 0-.688-.687m2.063 0v1.375h12.375V5.5zm0 2.75v1.375H11V8.25zm-2.063 4.125a.684.684 0 0 0-.687.688c0 .382.305.687.688.687a.684.684 0 0 0 .687-.688.684.684 0 0 0-.688-.687m2.063 0v1.375h12.375v-1.375zm0 2.75V16.5h11v-1.375zm-2.75 2.75v1.375h16.5v-1.375zm0 0" fill="#7F8080"/>
    </g>
</svg>
