<svg xmlns="http://www.w3.org/2000/svg" height="64" width="64">
    <path d="M48.63 3.5H14.086C9.906 3.5 6.5 7.005 6.5 11.308V62.5h43.414c4.18 0 7.586-3.505 7.586-7.808V12.241" fill="#757575" fill-opacity=".05" stroke="#757575" stroke-width="1.2" stroke-linecap="round" stroke-linejoin="round"/>
      <g
     transform="scale(1.5 1.5) translate(11 12)"
     id="g2522">     <path d="M2.75 2.75v1.375h16.5V2.75zM8.617 5.5l.028.668 4.714 6.207-5.109 6.113v.762h11v-3.82h-.785c0 .765.207 1.238-.465 1.695-.734.504-1.703.598-2.555.598h-4.05l3.93-5.348-3.93-6.113h2.308c1.64 0 3.969-.145 4.617 1.77.114.323.117.945.145 1.288h.785V5.5zM2.75 6.875V8.25h5.5V6.875zm0 2.75V11h6.875V9.625zm0 4.125v1.375h6.875V13.75zm0 2.75v1.375h5.5V16.5zm0 0" fill="#FF19C5"/>
    </g>
</svg>
