<?xml version="1.0" encoding="UTF-8"?>
<svg xmlns="http://www.w3.org/2000/svg" xmlns:xlink="http://www.w3.org/1999/xlink" width="16px" height="16px" viewBox="0 0 16 16" version="1.1">
<g id="surface1">
<path style=" stroke:none;fill-rule:nonzero;fill:rgb(99.607843%,54.901963%,9.803922%);fill-opacity:1;" d="M 3 2 C 2.445312 2 2 2.445312 2 3 L 2 13 C 2 13.554688 2.445312 14 3 14 L 13 14 C 13.554688 14 14 13.554688 14 13 L 14 3 C 14 2.445312 13.554688 2 13 2 Z M 3 3 L 13 3 L 13 13 L 3 13 Z M 9 4 L 9 7 L 12 7 C 12 5.34375 10.65625 4 9 4 M 8 5 C 6.367188 5.035156 5.066406 6.367188 5.066406 8 C 5.066406 9.632812 6.367188 10.964844 8 11 C 9.65625 11 11 9.65625 11 8 L 8 8 Z M 8 5 "/>
</g>
</svg>
