<?xml version="1.0" encoding="UTF-8"?>
<svg xmlns="http://www.w3.org/2000/svg" xmlns:xlink="http://www.w3.org/1999/xlink" width="16px" height="16px" viewBox="0 0 16 16" version="1.1">
<g id="surface1">
<path style=" stroke:none;fill-rule:nonzero;fill:rgb(9.803922%,77.254903%,99.607843%);fill-opacity:1;" d="M 2 2 L 2 3 L 14 3 L 14 2 Z M 6.265625 4 L 6.289062 4.484375 L 9.714844 9 L 6 13.445312 L 6 14 L 14 14 L 14 11.226562 L 13.429688 11.226562 C 13.429688 11.777344 13.578125 12.121094 13.089844 12.453125 C 12.558594 12.820312 11.851562 12.890625 11.234375 12.890625 L 8.289062 12.890625 L 11.144531 9 L 8.289062 4.554688 L 9.964844 4.554688 C 11.160156 4.554688 12.851562 4.449219 13.324219 5.839844 C 13.40625 6.078125 13.410156 6.527344 13.429688 6.777344 L 14 6.777344 L 14 4 Z M 2 5 L 2 6 L 6 6 L 6 5 Z M 2 7 L 2 8 L 7 8 L 7 7 Z M 2 10 L 2 11 L 7 11 L 7 10 Z M 2 12 L 2 13 L 6 13 L 6 12 Z M 2 12 "/>
</g>
</svg>
