<?xml version="1.0" encoding="UTF-8"?>
<svg xmlns="http://www.w3.org/2000/svg" xmlns:xlink="http://www.w3.org/1999/xlink" width="16px" height="16px" viewBox="0 0 16 16" version="1.1">
<g id="surface1">
<path style=" stroke:none;fill-rule:nonzero;fill:rgb(9.803922%,54.901963%,99.607843%);fill-opacity:1;" d="M 2 3 C 1.445312 3 1 3.445312 1 4 L 1 12 C 1 12.554688 1.445312 13 2 13 L 14 13 C 14.554688 13 15 12.554688 15 12 L 15 4 C 15 3.445312 14.554688 3 14 3 Z M 2 4 L 2.292969 4 L 5.933594 7.640625 L 2.199219 12 L 2 12 Z M 3.707031 4 L 12.292969 4 L 8 8.292969 Z M 13.707031 4 L 14 4 L 14 12 L 13.804688 12 L 10.070312 7.640625 Z M 6.648438 8.347656 L 8.003906 9.707031 L 9.359375 8.347656 L 12.488281 12 L 3.519531 12 Z M 6.648438 8.347656 "/>
</g>
</svg>
