<?xml version="1.0" encoding="UTF-8"?>
<svg xmlns="http://www.w3.org/2000/svg" xmlns:xlink="http://www.w3.org/1999/xlink" width="16px" height="16px" viewBox="0 0 16 16" version="1.1">
<g id="surface1">
<path style=" stroke:none;fill-rule:nonzero;fill:rgb(49.803922%,50.196081%,50.196081%);fill-opacity:1;" d="M 13.996094 3.652344 L 6.996094 3.660156 L 4.554688 10.351562 L 3 7.652344 L 2 7.652344 L 2 8.652344 L 2.429688 8.652344 L 4.558594 12.347656 L 7.582031 4.652344 L 14 4.652344 Z M 9.996094 5.652344 C 9.199219 5.652344 8.4375 5.96875 7.875 6.53125 C 7.3125 7.09375 6.996094 7.855469 6.996094 8.652344 C 6.996094 9.449219 7.3125 10.214844 7.875 10.777344 C 8.4375 11.339844 9.199219 11.65625 9.996094 11.652344 C 10.769531 11.652344 11.464844 11.355469 11.996094 10.878906 L 11.996094 11.652344 L 12.996094 11.652344 L 12.996094 5.652344 L 11.996094 5.652344 L 11.996094 6.429688 C 11.449219 5.929688 10.738281 5.65625 9.996094 5.652344 M 9.996094 6.652344 C 10.527344 6.652344 11.039062 6.863281 11.414062 7.238281 C 11.789062 7.613281 12 8.121094 11.996094 8.652344 C 12 9.183594 11.789062 9.691406 11.414062 10.070312 C 11.039062 10.445312 10.527344 10.652344 9.996094 10.652344 C 9.464844 10.652344 8.957031 10.445312 8.582031 10.070312 C 8.207031 9.691406 7.996094 9.183594 7.996094 8.652344 C 7.996094 8.121094 8.207031 7.613281 8.582031 7.238281 C 8.957031 6.863281 9.464844 6.652344 9.996094 6.652344 "/>
</g>
</svg>
