<?xml version="1.0" encoding="UTF-8"?>
<svg xmlns="http://www.w3.org/2000/svg" xmlns:xlink="http://www.w3.org/1999/xlink" width="16px" height="16px" viewBox="0 0 16 16" version="1.1">
<g id="surface1">
<path style=" stroke:none;fill-rule:nonzero;fill:rgb(49.803922%,50.196081%,50.196081%);fill-opacity:1;" d="M 2 2 L 2 14 L 14 14 L 14 2 Z M 3 5 L 13 5 L 13 13 C 9.449219 12.964844 6.550781 12.921875 3 13 Z M 3 5 "/>
<path style=" stroke:none;fill-rule:nonzero;fill:rgb(49.803922%,50.196081%,50.196081%);fill-opacity:1;" d="M 8.339844 10.191406 L 7.308594 9.171875 L 7.316406 9.160156 C 8.003906 8.394531 8.519531 7.488281 8.824219 6.503906 L 10.015625 6.503906 L 10.015625 5.691406 L 7.171875 5.691406 L 7.171875 4.878906 L 6.359375 4.878906 L 6.359375 5.691406 L 3.515625 5.691406 L 3.515625 6.5 L 8.054688 6.5 C 7.773438 7.304688 7.335938 8.046875 6.765625 8.679688 C 6.394531 8.269531 6.078125 7.8125 5.828125 7.320312 L 5.015625 7.320312 C 5.320312 7.996094 5.730469 8.617188 6.226562 9.167969 L 4.160156 11.207031 L 4.734375 11.785156 L 6.765625 9.753906 L 8.03125 11.015625 Z M 10.625 8.132812 L 9.8125 8.132812 L 7.984375 13.003906 L 8.796875 13.003906 L 9.253906 11.785156 L 11.183594 11.785156 L 11.640625 13.003906 L 12.453125 13.003906 Z M 9.558594 10.972656 L 10.21875 9.214844 L 10.878906 10.972656 Z M 9.558594 10.972656 "/>
</g>
</svg>
