<?xml version="1.0" encoding="UTF-8"?>
<svg xmlns="http://www.w3.org/2000/svg" xmlns:xlink="http://www.w3.org/1999/xlink" width="16px" height="16px" viewBox="0 0 16 16" version="1.1">
<g id="surface1">
<path style=" stroke:none;fill-rule:nonzero;fill:rgb(99.607843%,9.803922%,32.156864%);fill-opacity:1;" d="M 8.835938 13.96875 C 8.195312 13.863281 7.269531 13.496094 6.699219 13.125 C 5.441406 12.308594 4.621094 11.394531 4.113281 10.261719 C 3.945312 9.878906 3.855469 9.589844 3.589844 8.59375 C 3.527344 8.34375 3.441406 8.070312 3.410156 7.984375 C 3.351562 7.839844 3.347656 7.792969 3.375 7.308594 C 3.398438 6.851562 3.476562 6.234375 3.515625 6.167969 C 3.527344 6.15625 3.542969 6.152344 3.558594 6.15625 C 3.609375 6.1875 3.660156 6.046875 3.703125 5.726562 C 3.730469 5.550781 3.769531 5.367188 3.792969 5.316406 C 3.816406 5.265625 3.859375 5.15625 3.878906 5.074219 C 3.941406 4.878906 4.019531 4.730469 4.265625 4.355469 C 4.371094 4.191406 4.484375 4.011719 4.511719 3.953125 C 4.546875 3.890625 4.582031 3.859375 4.617188 3.867188 C 4.652344 3.875 4.703125 3.832031 4.761719 3.753906 C 5.011719 3.425781 6.179688 2.460938 6.289062 2.496094 C 6.320312 2.503906 6.441406 2.464844 6.558594 2.402344 C 6.78125 2.296875 6.878906 2.273438 6.878906 2.324219 C 6.878906 2.339844 6.84375 2.371094 6.804688 2.398438 C 6.738281 2.441406 6.738281 2.441406 6.847656 2.417969 C 6.921875 2.398438 6.996094 2.386719 7.070312 2.375 C 7.152344 2.359375 7.183594 2.339844 7.171875 2.316406 C 7.164062 2.289062 7.183594 2.265625 7.226562 2.257812 C 7.335938 2.230469 7.503906 2.234375 7.503906 2.265625 C 7.503906 2.304688 7.410156 2.339844 7.332031 2.335938 C 7.28125 2.324219 7.277344 2.335938 7.316406 2.359375 C 7.355469 2.386719 7.355469 2.390625 7.320312 2.390625 C 7.296875 2.390625 7.285156 2.402344 7.292969 2.410156 C 7.300781 2.417969 7.367188 2.398438 7.4375 2.363281 C 7.527344 2.320312 7.625 2.289062 7.722656 2.269531 C 7.828125 2.246094 7.878906 2.222656 7.878906 2.191406 C 7.878906 2.152344 7.929688 2.144531 8.265625 2.164062 C 8.476562 2.171875 8.792969 2.207031 8.96875 2.234375 C 9.292969 2.285156 9.292969 2.285156 9.414062 2.21875 C 9.558594 2.140625 9.789062 2.128906 9.851562 2.199219 C 9.894531 2.238281 9.9375 2.269531 9.988281 2.292969 C 10.078125 2.335938 10.082031 2.335938 10.046875 2.292969 C 9.976562 2.214844 10.046875 2.214844 10.3125 2.304688 C 11.175781 2.578125 11.878906 3.074219 12.398438 3.769531 C 12.523438 3.933594 12.53125 4.007812 12.414062 3.910156 L 12.347656 3.851562 L 12.398438 3.945312 C 12.425781 4 12.449219 4.058594 12.449219 4.078125 C 12.449219 4.101562 12.53125 4.246094 12.632812 4.402344 C 12.859375 4.761719 12.925781 4.878906 12.910156 4.925781 C 12.902344 4.941406 12.800781 4.816406 12.683594 4.644531 C 12.5625 4.46875 12.4375 4.292969 12.300781 4.128906 C 12.160156 3.960938 12.121094 3.929688 12.09375 3.964844 C 12.066406 3.996094 12.027344 4.011719 11.988281 4.019531 L 11.917969 4.03125 L 11.984375 4.160156 C 12.027344 4.230469 12.058594 4.277344 12.070312 4.257812 C 12.101562 4.164062 12.253906 4.289062 12.324219 4.464844 C 12.347656 4.523438 12.40625 4.640625 12.457031 4.730469 C 12.507812 4.816406 12.542969 4.898438 12.535156 4.902344 C 12.527344 4.914062 12.480469 4.890625 12.433594 4.851562 L 12.34375 4.785156 L 12.402344 4.882812 C 12.4375 4.9375 12.480469 4.988281 12.527344 5.035156 C 12.570312 5.070312 12.589844 5.121094 12.59375 5.203125 C 12.597656 5.359375 12.691406 5.539062 12.738281 5.492188 C 12.816406 5.417969 12.832031 5.460938 12.8125 5.707031 C 12.796875 5.890625 12.804688 6.003906 12.839844 6.132812 C 12.890625 6.324219 12.878906 6.371094 12.804688 6.28125 C 12.753906 6.226562 12.753906 6.226562 12.777344 6.28125 C 12.824219 6.410156 12.859375 6.597656 12.847656 6.671875 C 12.832031 6.808594 12.777344 6.753906 12.757812 6.574219 L 12.738281 6.402344 L 12.734375 6.585938 C 12.734375 6.6875 12.707031 6.882812 12.679688 7.023438 C 12.65625 7.148438 12.644531 7.277344 12.648438 7.402344 C 12.667969 7.535156 12.652344 7.542969 12.535156 7.445312 C 12.488281 7.40625 12.480469 7.414062 12.445312 7.53125 C 12.417969 7.609375 12.417969 7.695312 12.449219 7.769531 C 12.46875 7.828125 12.476562 7.886719 12.472656 7.949219 C 12.460938 8.035156 12.386719 8.066406 12.386719 7.980469 C 12.386719 7.875 12.34375 7.910156 12.214844 8.136719 C 11.863281 8.738281 11.308594 9.207031 10.683594 9.425781 C 10.351562 9.550781 10 9.617188 9.644531 9.628906 L 9.269531 9.648438 L 9.457031 9.703125 C 9.605469 9.746094 9.691406 9.753906 9.910156 9.738281 C 10.191406 9.714844 10.527344 9.65625 10.675781 9.601562 C 10.734375 9.578125 10.777344 9.578125 10.796875 9.589844 C 10.847656 9.640625 10.410156 9.824219 10.152344 9.867188 C 9.710938 9.9375 9.121094 9.855469 8.601562 9.664062 C 8.25 9.527344 7.726562 9.183594 7.804688 9.132812 C 7.820312 9.121094 7.921875 9.171875 8.027344 9.234375 C 8.164062 9.316406 8.222656 9.339844 8.222656 9.308594 C 8.222656 9.246094 8.242188 9.25 8.347656 9.324219 C 8.445312 9.390625 8.746094 9.515625 8.964844 9.578125 C 9.199219 9.648438 9.109375 9.566406 8.792969 9.421875 C 7.792969 8.972656 7.375 8.527344 7.167969 7.671875 C 7.089844 7.359375 7.171875 6.671875 7.3125 6.457031 C 7.34375 6.410156 7.363281 6.359375 7.375 6.308594 C 7.375 6.1875 7.582031 5.871094 7.796875 5.671875 C 8.167969 5.308594 8.558594 5.160156 9.0625 5.183594 C 9.308594 5.195312 9.410156 5.214844 9.613281 5.292969 C 9.84375 5.378906 10.132812 5.566406 10.046875 5.570312 C 9.976562 5.550781 9.910156 5.53125 9.84375 5.503906 C 9.703125 5.445312 9.617188 5.433594 9.300781 5.433594 C 8.859375 5.433594 8.644531 5.492188 8.332031 5.703125 C 7.886719 6.003906 7.640625 6.347656 7.550781 6.792969 C 7.496094 7.09375 7.492188 7.175781 7.535156 7.472656 C 7.5625 7.640625 7.582031 7.691406 7.613281 7.679688 C 7.640625 7.671875 7.660156 7.691406 7.660156 7.722656 C 7.660156 7.828125 7.898438 8.257812 8.066406 8.445312 C 8.464844 8.910156 9.109375 9.203125 9.722656 9.203125 C 10.042969 9.203125 10.300781 9.140625 10.535156 9.015625 C 10.632812 8.964844 10.753906 8.902344 10.804688 8.878906 C 10.984375 8.789062 11.101562 8.691406 11.230469 8.496094 C 11.304688 8.390625 11.382812 8.300781 11.410156 8.300781 C 11.445312 8.300781 11.441406 8.316406 11.402344 8.382812 C 11.261719 8.605469 11.589844 8.203125 11.757812 7.945312 L 11.949219 7.65625 L 11.929688 7.464844 C 11.910156 7.285156 11.910156 7.273438 12.003906 7.183594 C 12.089844 7.09375 12.097656 7.070312 12.109375 6.828125 C 12.117188 6.617188 12.109375 6.574219 12.070312 6.574219 C 12.035156 6.574219 12.019531 6.519531 12.003906 6.335938 C 11.984375 6.089844 11.777344 5.265625 11.730469 5.238281 C 11.710938 5.226562 11.671875 5.152344 11.640625 5.0625 C 11.519531 4.765625 11.316406 4.480469 10.996094 4.167969 C 10.53125 3.71875 9.945312 3.375 9.394531 3.222656 C 8.925781 3.089844 8.132812 3.140625 7.566406 3.328125 C 7.289062 3.421875 7.015625 3.546875 6.96875 3.601562 C 6.949219 3.625 6.917969 3.636719 6.902344 3.628906 C 6.886719 3.621094 6.890625 3.589844 6.914062 3.566406 C 7.015625 3.441406 6.671875 3.664062 6.449219 3.859375 C 6.316406 3.980469 6.199219 4.078125 6.195312 4.085938 C 6.1875 4.09375 6.214844 4.085938 6.25 4.074219 C 6.316406 4.058594 6.320312 4.066406 6.285156 4.125 C 6.261719 4.164062 6.144531 4.234375 6.003906 4.296875 C 5.769531 4.398438 5.617188 4.515625 5.496094 4.675781 C 5.445312 4.738281 5.445312 4.753906 5.484375 4.738281 C 5.507812 4.730469 5.53125 4.730469 5.53125 4.753906 C 5.53125 4.835938 5.449219 4.933594 5.328125 4.992188 C 5.0625 5.113281 4.59375 5.777344 4.34375 6.390625 C 4.230469 6.660156 4.234375 6.652344 4.292969 6.652344 C 4.359375 6.652344 4.355469 6.71875 4.265625 7.09375 C 4.140625 7.640625 4.140625 7.625 4.277344 8.390625 C 4.445312 9.328125 4.546875 9.640625 4.734375 9.835938 C 4.789062 9.90625 4.824219 9.988281 4.839844 10.074219 C 4.855469 10.175781 4.902344 10.265625 4.972656 10.339844 C 5.039062 10.40625 5.0625 10.445312 5.035156 10.453125 C 4.988281 10.472656 5.140625 10.691406 5.285156 10.804688 C 5.355469 10.867188 5.410156 10.886719 5.464844 10.875 C 5.589844 10.851562 5.71875 10.921875 5.910156 11.117188 C 6.117188 11.320312 6.136719 11.378906 6.003906 11.359375 C 5.914062 11.347656 5.910156 11.347656 5.957031 11.410156 C 5.980469 11.445312 6.070312 11.535156 6.160156 11.601562 C 6.277344 11.703125 6.308594 11.742188 6.296875 11.789062 C 6.273438 11.855469 6.335938 11.917969 6.476562 11.96875 C 6.566406 12 6.59375 12.070312 6.527344 12.089844 C 6.507812 12.101562 6.628906 12.21875 6.800781 12.359375 C 6.996094 12.523438 7.121094 12.609375 7.140625 12.59375 C 7.191406 12.546875 7.253906 12.558594 7.253906 12.617188 C 7.253906 12.679688 7.308594 12.742188 7.507812 12.914062 C 7.632812 13.027344 7.664062 13.039062 7.742188 13.015625 C 7.8125 13 7.859375 13.007812 7.957031 13.078125 C 8.152344 13.203125 8.273438 13.257812 8.378906 13.257812 C 8.476562 13.257812 8.496094 13.285156 8.441406 13.378906 C 8.410156 13.429688 8.417969 13.433594 8.484375 13.433594 C 8.523438 13.433594 8.640625 13.464844 8.738281 13.496094 C 8.964844 13.570312 9.058594 13.578125 9.003906 13.511719 C 8.917969 13.410156 9.007812 13.441406 9.308594 13.601562 C 9.730469 13.828125 9.941406 13.851562 10.78125 13.78125 C 10.902344 13.769531 10.941406 13.769531 10.941406 13.804688 C 10.941406 13.832031 10.835938 13.871094 10.640625 13.917969 C 10.378906 13.976562 10.242188 13.988281 9.707031 13.996094 C 9.417969 14.007812 9.125 13.996094 8.835938 13.964844 Z M 8.410156 9.464844 C 8.410156 9.457031 8.371094 9.433594 8.324219 9.40625 L 8.238281 9.355469 L 8.3125 9.417969 C 8.382812 9.476562 8.410156 9.492188 8.410156 9.464844 M 12.71875 6.316406 C 12.710938 6.296875 12.703125 6.300781 12.699219 6.339844 C 12.699219 6.371094 12.707031 6.386719 12.714844 6.375 C 12.726562 6.367188 12.726562 6.339844 12.71875 6.316406 M 5.59375 3.148438 C 5.632812 3.101562 5.632812 3.101562 5.582031 3.136719 C 5.554688 3.160156 5.527344 3.183594 5.527344 3.191406 C 5.527344 3.214844 5.554688 3.199219 5.59375 3.148438 M 5.953125 2.871094 C 5.984375 2.839844 6 2.808594 5.992188 2.808594 C 5.964844 2.824219 5.941406 2.847656 5.921875 2.871094 C 5.890625 2.902344 5.871094 2.929688 5.878906 2.929688 C 5.890625 2.929688 5.921875 2.902344 5.953125 2.871094 M 6.34375 2.660156 C 6.449219 2.625 6.503906 2.621094 6.527344 2.640625 C 6.550781 2.664062 6.628906 2.652344 6.78125 2.605469 C 6.902344 2.5625 6.996094 2.527344 6.988281 2.519531 C 6.984375 2.511719 6.882812 2.539062 6.765625 2.574219 C 6.609375 2.625 6.550781 2.632812 6.535156 2.605469 C 6.503906 2.5625 6.21875 2.652344 6.097656 2.746094 L 6.015625 2.808594 L 6.105469 2.757812 C 6.152344 2.730469 6.261719 2.683594 6.34375 2.660156 M 7.246094 2.582031 C 7.339844 2.558594 7.40625 2.53125 7.398438 2.523438 C 7.386719 2.511719 7.0625 2.601562 7.0625 2.617188 C 7.0625 2.636719 7.066406 2.632812 7.246094 2.582031 M 7.765625 2.417969 L 7.890625 2.398438 L 7.78125 2.398438 C 7.714844 2.398438 7.652344 2.414062 7.59375 2.441406 C 7.542969 2.46875 7.535156 2.480469 7.578125 2.464844 C 7.609375 2.453125 7.695312 2.433594 7.765625 2.421875 Z M 8.015625 2.363281 C 8.027344 2.347656 8.003906 2.34375 7.96875 2.351562 C 7.898438 2.371094 7.890625 2.390625 7.953125 2.390625 C 7.976562 2.390625 8.003906 2.375 8.015625 2.363281 M 9.027344 2.375 C 9.015625 2.363281 8.988281 2.363281 8.964844 2.375 C 8.941406 2.382812 8.945312 2.390625 8.984375 2.390625 C 9.015625 2.390625 9.035156 2.382812 9.027344 2.375 Z M 8.835938 2.339844 C 8.800781 2.332031 8.761719 2.332031 8.726562 2.339844 C 8.699219 2.351562 8.722656 2.351562 8.785156 2.351562 C 8.84375 2.351562 8.867188 2.34375 8.835938 2.339844 M 8.523438 2.308594 C 8.441406 2.300781 8.359375 2.300781 8.277344 2.308594 C 8.203125 2.320312 8.257812 2.320312 8.390625 2.320312 C 8.53125 2.320312 8.589844 2.308594 8.527344 2.308594 M 8.121094 2.28125 C 8.109375 2.273438 8.082031 2.269531 8.058594 2.28125 C 8.035156 2.292969 8.039062 2.300781 8.078125 2.300781 C 8.109375 2.300781 8.128906 2.289062 8.121094 2.285156 Z M 7.90625 9.503906 C 7.589844 9.285156 7.46875 9.167969 7.46875 9.082031 C 7.46875 9.039062 7.480469 9 7.496094 9 C 7.539062 9 8.070312 9.535156 8.058594 9.570312 C 8.054688 9.589844 7.988281 9.558594 7.90625 9.503906 M 7.742188 8.945312 C 7.578125 8.785156 7.523438 8.699219 7.589844 8.699219 C 7.628906 8.699219 7.9375 9.039062 7.9375 9.082031 C 7.9375 9.101562 7.933594 9.121094 7.929688 9.121094 C 7.921875 9.121094 7.839844 9.042969 7.742188 8.945312 M 9.574219 8.289062 C 9.484375 8.253906 9.539062 8.191406 9.683594 8.164062 C 9.765625 8.144531 9.894531 8.105469 9.972656 8.070312 C 10.046875 8.039062 10.121094 8.015625 10.125 8.023438 C 10.132812 8.03125 10.097656 8.09375 10.046875 8.171875 C 9.957031 8.308594 9.957031 8.308594 9.785156 8.304688 C 9.691406 8.304688 9.59375 8.292969 9.574219 8.289062 M 10.515625 7.613281 C 10.429688 7.582031 10.425781 7.53125 10.496094 7.339844 C 10.558594 7.175781 10.621094 7.144531 10.585938 7.292969 C 10.570312 7.347656 10.554688 7.425781 10.546875 7.46875 L 10.535156 7.539062 L 10.597656 7.476562 C 10.644531 7.40625 10.671875 7.324219 10.679688 7.238281 C 10.695312 7.152344 10.710938 7.082031 10.730469 7.089844 C 10.765625 7.113281 10.765625 7.351562 10.722656 7.511719 C 10.683594 7.652344 10.652344 7.667969 10.515625 7.613281 M 3.109375 7.238281 C 3.089844 7.160156 3.085938 7.085938 3.089844 7.007812 C 3.089844 6.878906 3.101562 6.832031 3.128906 6.84375 C 3.171875 6.855469 3.203125 7.285156 3.15625 7.285156 C 3.140625 7.285156 3.117188 7.265625 3.109375 7.238281 M 10.636719 6.535156 C 10.589844 6.472656 10.574219 6.421875 10.589844 6.371094 C 10.613281 6.261719 10.691406 6.277344 10.742188 6.402344 C 10.828125 6.597656 10.753906 6.6875 10.636719 6.535156 M 3.101562 6.058594 C 3.101562 5.886719 3.101562 5.882812 3.179688 5.882812 C 3.246094 5.882812 3.265625 5.902344 3.269531 5.980469 C 3.277344 6.066406 3.183594 6.234375 3.125 6.234375 C 3.113281 6.234375 3.101562 6.152344 3.101562 6.058594 M 11.214844 2.363281 C 11.21875 2.09375 11.265625 2.003906 11.300781 2.195312 C 11.328125 2.324219 11.296875 2.554688 11.246094 2.59375 C 11.21875 2.613281 11.210938 2.558594 11.214844 2.363281 M 7.101562 2.203125 C 7.113281 2.164062 7.542969 1.996094 7.625 1.996094 C 7.71875 1.996094 7.550781 2.105469 7.355469 2.171875 C 7.140625 2.246094 7.082031 2.253906 7.101562 2.203125 "/>
</g>
</svg>
