<?xml version="1.0" encoding="UTF-8"?>
<svg xmlns="http://www.w3.org/2000/svg" xmlns:xlink="http://www.w3.org/1999/xlink" width="16px" height="16px" viewBox="0 0 16 16" version="1.1">
<g id="surface1">
<path style=" stroke:none;fill-rule:nonzero;fill:rgb(49.803922%,50.196081%,50.196081%);fill-opacity:1;" d="M 8 2 C 4.6875 2 2 4.6875 2 8 C 2 11.3125 4.6875 14 8 14 C 11.3125 14 14 11.3125 14 8 C 14 4.6875 11.3125 2 8 2 M 8 3 C 10.761719 3 13 5.238281 13 8 C 13 10.761719 10.761719 13 8 13 C 5.238281 13 3 10.761719 3 8 C 3 5.238281 5.238281 3 8 3 M 8 4 C 5.789062 4 4 5.789062 4 8 L 6 8 C 6 6.894531 6.894531 6 8 6 Z M 8 7 C 7.449219 7 7 7.449219 7 8 C 7 8.550781 7.449219 9 8 9 C 8.550781 9 9 8.550781 9 8 C 9 7.449219 8.550781 7 8 7 M 10 8 C 10 9.105469 9.105469 10 8 10 L 8 12 C 10.210938 12 12 10.210938 12 8 Z M 10 8 "/>
</g>
</svg>
