<?xml version="1.0" encoding="UTF-8"?>
<svg xmlns="http://www.w3.org/2000/svg" xmlns:xlink="http://www.w3.org/1999/xlink" width="16px" height="16px" viewBox="0 0 16 16" version="1.1">
<g id="surface1">
<path style=" stroke:none;fill-rule:nonzero;fill:rgb(100%,9.803922%,77.254903%);fill-opacity:1;" d="M 8 2 C 4.6875 2 2 2.894531 2 4 L 2 8 C 2.003906 8.972656 4.113281 9.804688 7 9.972656 L 7 12 L 5 12 L 5 11 L 2 11 L 2 14 L 5 14 L 5 13 L 11 13 L 11 14 L 14 14 L 14 11 L 11 11 L 11 12 L 9 12 L 9 9.972656 C 11.886719 9.808594 13.996094 8.972656 14 8 L 14 4 C 14 2.894531 11.3125 2 8 2 M 8 3 C 10.761719 3 13 3.449219 13 4 C 13 4.550781 10.761719 5 8 5 C 5.238281 5 3 4.550781 3 4 C 3 3.449219 5.238281 3 8 3 M 3 5.101562 C 4.109375 5.664062 5.984375 6 8 6 C 10.011719 6 11.890625 5.660156 13 5.101562 L 13 8 C 13 8.550781 10.761719 9 8 9 C 5.238281 9 3 8.550781 3 8 Z M 3 12 L 4 12 L 4 13 L 3 13 Z M 12 12 L 13 12 L 13 13 L 12 13 Z M 12 12 "/>
</g>
</svg>
