<?xml version="1.0" encoding="UTF-8"?>
<svg xmlns="http://www.w3.org/2000/svg" xmlns:xlink="http://www.w3.org/1999/xlink" width="16px" height="16px" viewBox="0 0 16 16" version="1.1">
<g id="surface1">
<path style=" stroke:none;fill-rule:nonzero;fill:rgb(99.607843%,77.254903%,9.803922%);fill-opacity:1;" d="M 7.964844 11.71875 L 4.210938 7.964844 L 7.964844 4.210938 L 9.21875 5.460938 L 6.714844 7.964844 L 7.964844 9.214844 L 11.722656 5.460938 L 8.449219 2.1875 C 8.179688 1.925781 7.75 1.925781 7.480469 2.1875 L 2.191406 7.480469 C 2.0625 7.609375 1.988281 7.78125 1.988281 7.964844 C 1.988281 8.148438 2.0625 8.320312 2.191406 8.449219 L 7.480469 13.738281 C 7.75 14.007812 8.183594 14.007812 8.449219 13.738281 L 13.738281 8.449219 C 13.871094 8.320312 13.941406 8.148438 13.941406 7.964844 C 13.941406 7.78125 13.871094 7.609375 13.738281 7.480469 L 12.972656 6.710938 Z M 7.964844 11.71875 "/>
</g>
</svg>
