<?xml version="1.0" encoding="UTF-8"?>
<svg xmlns="http://www.w3.org/2000/svg" xmlns:xlink="http://www.w3.org/1999/xlink" width="16px" height="16px" viewBox="0 0 16 16" version="1.1">
<g id="surface1">
<path style=" stroke:none;fill-rule:nonzero;fill:rgb(9.803922%,32.156864%,99.607843%);fill-opacity:1;" d="M 10.5 0.5 L 8 3.5 L 9 3.5 L 9 4.5 L 4 4.5 L 4 12.5 L 3 12.5 L 5.5 15.5 L 8 12.5 L 7 12.5 L 7 11.5 L 12 11.5 L 12 3.5 L 13 3.5 Z M 10.5 2 L 11 2.5 L 11 10.5 L 7 10.5 L 7 9.5 L 10 9.5 L 10 2.5 Z M 5 5.5 L 9 5.5 L 9 6.5 L 6 6.5 L 6 13.5 L 5.5 14 L 5 13.5 Z M 7 7.5 L 9 7.5 L 9 8.5 L 7 8.5 Z M 7 7.5 "/>
</g>
</svg>
