<?xml version="1.0" encoding="UTF-8"?>
<svg xmlns="http://www.w3.org/2000/svg" xmlns:xlink="http://www.w3.org/1999/xlink" width="16px" height="16px" viewBox="0 0 16 16" version="1.1">
<g id="surface1">
<path style=" stroke:none;fill-rule:nonzero;fill:rgb(9.803922%,77.254903%,99.607843%);fill-opacity:1;" d="M 8.363281 3.324219 C 8.363281 3.535156 8.191406 3.703125 7.980469 3.703125 C 7.769531 3.707031 7.59375 3.535156 7.59375 3.324219 L 7.59375 2.378906 C 7.59375 2.167969 7.765625 1.996094 7.980469 1.996094 C 8.195312 1.996094 8.363281 2.167969 8.363281 2.378906 Z M 8.304688 9.984375 C 8.304688 10.160156 8.164062 10.296875 7.988281 10.296875 L 7.972656 10.296875 C 7.886719 10.300781 7.808594 10.265625 7.746094 10.207031 C 7.6875 10.148438 7.652344 10.070312 7.652344 9.984375 L 7.652344 8.964844 C 7.652344 8.792969 7.796875 8.652344 7.972656 8.652344 L 7.988281 8.652344 C 8.164062 8.652344 8.304688 8.792969 8.304688 8.964844 Z M 8.304688 9.984375 "/>
<path style=" stroke:none;fill-rule:nonzero;fill:rgb(9.803922%,77.254903%,99.607843%);fill-opacity:1;" d="M 11.980469 12.984375 C 12.113281 12.847656 12.148438 12.644531 12.066406 12.472656 L 8.882812 5.722656 C 8.878906 5.703125 8.878906 5.683594 8.878906 5.664062 C 8.878906 5.597656 8.90625 5.535156 8.941406 5.488281 C 9.324219 5.207031 9.570312 4.75 9.570312 4.242188 C 9.566406 3.824219 9.402344 3.425781 9.105469 3.132812 C 8.8125 2.839844 8.410156 2.675781 7.996094 2.675781 C 7.109375 2.675781 6.421875 3.375 6.421875 4.242188 C 6.421875 4.75 6.664062 5.203125 7.042969 5.488281 C 7.085938 5.535156 7.109375 5.597656 7.109375 5.664062 C 7.109375 5.683594 7.109375 5.699219 7.105469 5.722656 L 3.921875 12.472656 C 3.839844 12.644531 3.875 12.847656 4.007812 12.984375 L 3.503906 14.003906 L 4.296875 13.140625 C 4.511719 13.199219 4.738281 13.09375 4.832031 12.894531 L 7.867188 6.460938 C 7.894531 6.421875 7.941406 6.398438 7.988281 6.402344 L 8.003906 6.402344 C 8.050781 6.402344 8.09375 6.421875 8.121094 6.460938 L 11.160156 12.894531 C 11.25 13.09375 11.472656 13.199219 11.6875 13.140625 L 12.484375 14.003906 Z M 7.996094 5.140625 C 7.660156 5.160156 7.34375 4.992188 7.171875 4.707031 C 7 4.421875 7 4.0625 7.171875 3.777344 C 7.34375 3.488281 7.660156 3.320312 7.996094 3.339844 C 8.496094 3.339844 8.898438 3.742188 8.898438 4.242188 C 8.898438 4.738281 8.496094 5.140625 7.996094 5.140625 "/>
<path style=" stroke:none;fill-rule:nonzero;fill:rgb(9.803922%,77.254903%,99.607843%);fill-opacity:1;" d="M 11.445312 9.503906 C 11.445312 9.558594 11.421875 9.613281 11.382812 9.652344 C 11.347656 9.691406 11.292969 9.710938 11.238281 9.710938 L 4.71875 9.710938 C 4.605469 9.710938 4.511719 9.617188 4.511719 9.503906 C 4.511719 9.390625 4.605469 9.296875 4.71875 9.296875 L 11.238281 9.296875 C 11.351562 9.300781 11.445312 9.390625 11.445312 9.503906 "/>
</g>
</svg>
