<?xml version="1.0" encoding="UTF-8"?>
<svg xmlns="http://www.w3.org/2000/svg" xmlns:xlink="http://www.w3.org/1999/xlink" width="16px" height="16px" viewBox="0 0 16 16" version="1.1">
<g id="surface1">
<path style=" stroke:none;fill-rule:nonzero;fill:rgb(49.803922%,50.196081%,50.196081%);fill-opacity:1;" d="M 9.589844 6.039062 C 9.609375 5.921875 9.621094 5.804688 9.621094 5.683594 C 9.621094 5.558594 9.609375 5.441406 9.589844 5.320312 L 10.367188 4.710938 C 10.441406 4.65625 10.460938 4.554688 10.414062 4.476562 L 9.679688 3.203125 C 9.636719 3.125 9.539062 3.089844 9.453125 3.125 L 8.535156 3.496094 C 8.347656 3.347656 8.136719 3.226562 7.914062 3.132812 L 7.777344 2.160156 C 7.761719 2.070312 7.683594 2.003906 7.59375 2.003906 L 6.121094 2.003906 C 6.03125 2.003906 5.957031 2.070312 5.941406 2.160156 L 5.804688 3.132812 C 5.582031 3.226562 5.371094 3.347656 5.183594 3.496094 L 4.265625 3.125 C 4.179688 3.09375 4.085938 3.128906 4.039062 3.207031 L 3.304688 4.476562 C 3.257812 4.554688 3.277344 4.65625 3.347656 4.710938 L 4.125 5.320312 C 4.109375 5.441406 4.101562 5.558594 4.101562 5.683594 C 4.101562 5.800781 4.109375 5.921875 4.125 6.039062 L 3.347656 6.648438 C 3.277344 6.703125 3.257812 6.804688 3.304688 6.882812 L 4.039062 8.160156 C 4.089844 8.234375 4.183594 8.269531 4.265625 8.234375 L 5.183594 7.867188 C 5.371094 8.011719 5.578125 8.136719 5.804688 8.230469 L 5.941406 9.203125 C 5.957031 9.292969 6.03125 9.355469 6.121094 9.359375 L 7.59375 9.359375 C 7.683594 9.359375 7.761719 9.289062 7.773438 9.207031 L 7.914062 8.230469 C 8.140625 8.136719 8.347656 8.015625 8.535156 7.867188 L 9.453125 8.234375 C 9.535156 8.265625 9.628906 8.234375 9.675781 8.160156 L 10.410156 6.882812 C 10.457031 6.804688 10.4375 6.707031 10.371094 6.648438 Z M 6.859375 6.96875 C 6.148438 6.96875 5.574219 6.390625 5.574219 5.683594 C 5.574219 4.972656 6.148438 4.394531 6.859375 4.394531 C 7.570312 4.394531 8.148438 4.972656 8.148438 5.683594 C 8.148438 6.390625 7.570312 6.96875 6.859375 6.96875 M 11.695312 12.539062 C 11.746094 12.46875 11.796875 12.398438 11.835938 12.316406 C 11.878906 12.242188 11.914062 12.160156 11.949219 12.078125 L 12.660156 11.964844 C 12.726562 11.949219 12.773438 11.894531 12.773438 11.828125 L 12.746094 10.75 C 12.746094 10.683594 12.695312 10.628906 12.628906 10.621094 L 11.910156 10.535156 C 11.839844 10.375 11.75 10.222656 11.640625 10.085938 L 11.890625 9.410156 C 11.914062 9.347656 11.886719 9.277344 11.828125 9.246094 L 10.882812 8.730469 C 10.828125 8.695312 10.753906 8.710938 10.710938 8.765625 L 10.285156 9.34375 C 10.109375 9.324219 9.929688 9.328125 9.753906 9.359375 L 9.296875 8.796875 C 9.253906 8.75 9.183594 8.738281 9.125 8.769531 L 8.207031 9.332031 C 8.148438 9.367188 8.125 9.4375 8.152344 9.5 L 8.4375 10.160156 C 8.386719 10.230469 8.335938 10.304688 8.296875 10.382812 C 8.253906 10.464844 8.21875 10.542969 8.183594 10.621094 L 7.472656 10.742188 C 7.410156 10.753906 7.359375 10.8125 7.363281 10.878906 L 7.390625 11.953125 C 7.390625 12.023438 7.441406 12.078125 7.503906 12.085938 L 8.222656 12.167969 C 8.292969 12.328125 8.382812 12.480469 8.496094 12.621094 L 8.242188 13.296875 C 8.222656 13.359375 8.246094 13.425781 8.304688 13.457031 L 9.25 13.972656 C 9.308594 14.003906 9.378906 13.992188 9.421875 13.941406 L 9.851562 13.359375 C 10.027344 13.378906 10.203125 13.375 10.378906 13.347656 L 10.835938 13.90625 C 10.878906 13.953125 10.953125 13.96875 11.007812 13.929688 L 11.929688 13.371094 C 11.984375 13.335938 12.007812 13.265625 11.984375 13.203125 Z M 9.613281 12.179688 C 9.15625 11.929688 8.988281 11.355469 9.238281 10.898438 C 9.492188 10.441406 10.0625 10.273438 10.519531 10.523438 C 10.976562 10.773438 11.144531 11.347656 10.894531 11.804688 C 10.644531 12.261719 10.070312 12.429688 9.613281 12.179688 "/>
</g>
</svg>
