<?xml version="1.0" encoding="UTF-8"?>
<svg xmlns="http://www.w3.org/2000/svg" xmlns:xlink="http://www.w3.org/1999/xlink" width="16px" height="16px" viewBox="0 0 16 16" version="1.1">
<g id="surface1">
<path style=" stroke:none;fill-rule:nonzero;fill:rgb(99.607843%,9.803922%,9.803922%);fill-opacity:1;" d="M 7.964844 2 C 4.648438 2 1.964844 2.894531 1.964844 4 L 1.964844 12 C 1.964844 13.105469 4.652344 14 7.964844 14 C 11.277344 14 13.964844 13.105469 13.964844 12 L 13.964844 4 C 13.964844 2.894531 11.277344 2 7.964844 2 M 7.964844 3 C 10.722656 3 12.964844 3.449219 12.964844 4 C 12.964844 4.550781 10.722656 5 7.964844 5 C 5.203125 5 2.964844 4.550781 2.964844 4 C 2.964844 3.449219 5.203125 3 7.964844 3 M 2.964844 5.101562 C 4.074219 5.660156 5.953125 6 7.964844 6 C 9.976562 6 11.851562 5.660156 12.964844 5.101562 L 12.964844 8 C 12.964844 8.550781 10.722656 9 7.964844 9 C 5.203125 9 2.964844 8.550781 2.964844 8 Z M 2.964844 9.101562 C 4.074219 9.660156 5.953125 10 7.964844 10 C 9.976562 10 11.851562 9.660156 12.964844 9.101562 L 12.964844 12 C 12.964844 12.550781 10.722656 13 7.964844 13 C 5.203125 13 2.964844 12.550781 2.964844 12 Z M 2.964844 9.101562 "/>
</g>
</svg>
