<?xml version="1.0" encoding="UTF-8"?>
<svg xmlns="http://www.w3.org/2000/svg" xmlns:xlink="http://www.w3.org/1999/xlink" width="16px" height="16px" viewBox="0 0 16 16" version="1.1">
<g id="surface1">
<path style=" stroke:none;fill-rule:nonzero;fill:rgb(9.803922%,77.254903%,99.607843%);fill-opacity:1;" d="M 5.347656 13.898438 C 5.109375 13.835938 5.136719 13.769531 5.527344 13.402344 C 6.207031 12.765625 6.320312 12.136719 6.128906 10.054688 C 5.972656 8.394531 5.941406 8.269531 5.679688 8.410156 C 5.121094 8.710938 4.417969 8.320312 3.621094 7.269531 C 3.226562 6.75 3.191406 6.597656 3.257812 5.789062 C 3.296875 5.292969 3.378906 4.691406 3.441406 4.457031 C 3.539062 4.097656 3.507812 4.027344 3.246094 4.027344 C 3.054688 4.019531 2.871094 3.933594 2.738281 3.792969 C 2.464844 3.464844 2.953125 2.9375 3.527344 2.9375 C 3.757812 2.9375 4.035156 2.832031 4.144531 2.703125 C 4.421875 2.371094 4.839844 2.410156 5.316406 2.820312 C 5.816406 3.253906 5.988281 4.257812 5.707031 5.109375 C 5.390625 6.078125 5.609375 6.171875 6.058594 5.261719 C 6.308594 4.75 6.660156 4.304688 6.949219 4.132812 C 7.214844 3.972656 7.597656 3.578125 7.808594 3.25 C 8.015625 2.921875 8.277344 2.59375 8.386719 2.523438 C 8.726562 2.304688 9.660156 2.003906 10.007812 2.003906 C 10.484375 1.996094 11.121094 2.554688 11.234375 3.070312 C 11.289062 3.316406 11.574219 3.890625 11.867188 4.351562 C 12.164062 4.808594 12.410156 5.265625 12.410156 5.363281 C 12.410156 5.464844 12.621094 5.808594 12.875 6.132812 C 13.261719 6.617188 13.34375 6.859375 13.339844 7.515625 C 13.328125 8.417969 12.84375 9.566406 12.667969 9.105469 C 12.609375 8.957031 12.632812 8.710938 12.71875 8.550781 C 12.894531 8.21875 12.738281 6.753906 12.546875 6.941406 C 12.414062 7.078125 12.328125 8.511719 12.363281 9.953125 C 12.410156 11.828125 12.320312 13.59375 12.171875 13.640625 C 11.792969 13.761719 11.628906 13.453125 11.785156 12.910156 C 12.019531 12.097656 11.972656 9.929688 11.710938 9.589844 C 11.589844 9.433594 11.449219 9.027344 11.394531 8.695312 C 11.335938 8.359375 11.226562 8.046875 11.152344 8 C 10.90625 7.847656 10.535156 8.832031 10.535156 9.636719 C 10.535156 10.265625 10.441406 10.554688 10.070312 11.070312 C 9.539062 11.800781 9.5 12.015625 9.835938 12.292969 C 10.09375 12.511719 10.144531 13.003906 9.921875 13.144531 C 9.839844 13.195312 9.628906 13.082031 9.453125 12.890625 C 9.203125 12.625 9.132812 12.601562 9.132812 12.792969 C 9.132812 13.078125 8.554688 13.269531 8.238281 13.089844 C 8.066406 12.996094 8.105469 12.910156 8.417969 12.707031 C 8.976562 12.339844 8.921875 12.039062 8.175781 11.359375 C 7.59375 10.824219 7.542969 10.71875 7.640625 10.246094 C 7.941406 8.746094 7.941406 8.707031 7.589844 8.707031 C 7.359375 8.707031 7.261719 8.804688 7.261719 9.03125 C 7.261719 9.207031 7.183594 9.496094 7.089844 9.671875 C 6.921875 9.984375 6.871094 10.234375 6.46875 12.800781 C 6.265625 14.078125 6.214844 14.128906 5.347656 13.898438 M 9.535156 11.179688 C 9.734375 10.785156 9.765625 10.453125 9.679688 9.527344 C 9.566406 8.296875 9.480469 8.253906 9.140625 9.253906 C 9.027344 9.597656 8.800781 10.046875 8.640625 10.25 C 8.269531 10.722656 8.277344 10.867188 8.691406 11.308594 C 9.132812 11.78125 9.230469 11.765625 9.535156 11.179688 "/>
</g>
</svg>
