<?xml version="1.0" encoding="UTF-8"?>
<svg xmlns="http://www.w3.org/2000/svg" xmlns:xlink="http://www.w3.org/1999/xlink" width="16px" height="16px" viewBox="0 0 16 16" version="1.1">
<g id="surface1">
<path style=" stroke:none;fill-rule:nonzero;fill:rgb(9.803922%,99.607843%,77.254903%);fill-opacity:1;" d="M 7.5 3 C 4.503906 3.058594 2.109375 5.503906 2.109375 8.5 C 2.109375 11.496094 4.503906 13.941406 7.5 14 C 10.496094 13.941406 12.890625 11.496094 12.890625 8.5 C 12.890625 5.503906 10.496094 3.058594 7.5 3 M 7.5 4 C 8.695312 4 9.839844 4.472656 10.683594 5.316406 C 11.527344 6.160156 12 7.308594 12 8.5 C 12 9.695312 11.527344 10.839844 10.683594 11.683594 C 9.839844 12.527344 8.691406 13 7.5 13 C 6.304688 13 5.160156 12.527344 4.316406 11.683594 C 3.472656 10.839844 3 9.691406 3 8.5 C 3 7.304688 3.472656 6.160156 4.316406 5.316406 C 5.160156 4.472656 6.308594 4 7.5 4 M 7 5 L 7 6 L 8 6 L 8 5 Z M 7 7 L 7 12 L 8 12 L 8 7 Z M 7 7 "/>
</g>
</svg>
