<?xml version="1.0" encoding="UTF-8"?>
<svg xmlns="http://www.w3.org/2000/svg" xmlns:xlink="http://www.w3.org/1999/xlink" width="16px" height="16px" viewBox="0 0 16 16" version="1.1">
<g id="surface1">
<path style=" stroke:none;fill-rule:nonzero;fill:rgb(9.803922%,77.254903%,99.607843%);fill-opacity:1;" d="M 2 2 L 2 14 L 14 14 L 14 2 Z M 3 3 L 7 3 L 7 4 L 8 4 L 8 3 L 13 3 L 13 13 L 3 13 Z M 8 4 L 8 5 L 9 5 L 9 4 Z M 8 5 L 7 5 L 7 6 L 8 6 Z M 8 6 L 8 7 L 9 7 L 9 6 Z M 8 7 L 7 7 L 7 8 L 8 8 Z M 8 8 L 8 9 L 9 9 L 9 8 Z M 8 9 L 7 9 L 7 11 L 9 11 L 9 10 L 8 10 Z M 8 9 "/>
</g>
</svg>
