<?xml version="1.0" encoding="UTF-8"?>
<svg xmlns="http://www.w3.org/2000/svg" xmlns:xlink="http://www.w3.org/1999/xlink" width="16px" height="16px" viewBox="0 0 16 16" version="1.1">
<g id="surface1">
<path style=" stroke:none;fill-rule:nonzero;fill:rgb(100%,9.803922%,77.254903%);fill-opacity:1;" d="M 6.75 12.578125 C 5.773438 12.578125 5.105469 12.089844 5.285156 10.84375 C 5.503906 9.289062 6.441406 8.773438 9.398438 8.355469 C 9.421875 8.355469 10.332031 8.199219 10.332031 8.199219 L 9.953125 10.957031 C 9.152344 11.957031 7.707031 12.578125 6.75 12.578125 M 9.796875 12.445312 L 9.839844 13.734375 L 11.109375 13.734375 L 12.265625 5.394531 C 12.621094 2.859375 11.175781 2.125 9.152344 2.125 C 7.707031 2.125 6.285156 2.546875 5.441406 3.035156 L 5.683594 4.414062 C 6.597656 3.972656 7.839844 3.660156 8.976562 3.660156 C 10.378906 3.660156 10.890625 4.351562 10.710938 5.683594 L 10.511719 6.953125 L 9.464844 7.085938 C 6.773438 7.507812 4.152344 7.929688 3.726562 10.910156 C 3.417969 13.046875 4.683594 14.003906 6.375 14.003906 C 7.445312 14.003906 8.753906 13.601562 9.800781 12.445312 "/>
</g>
</svg>
