<?xml version="1.0" encoding="UTF-8"?>
<svg xmlns="http://www.w3.org/2000/svg" xmlns:xlink="http://www.w3.org/1999/xlink" width="16px" height="16px" viewBox="0 0 16 16" version="1.1">
<g id="surface1">
<path style=" stroke:none;fill-rule:nonzero;fill:rgb(77.254903%,99.607843%,9.803922%);fill-opacity:1;" d="M 2.496094 1.988281 C 2.292969 1.988281 2.113281 2.113281 2.035156 2.300781 C 1.960938 2.488281 2.003906 2.703125 2.152344 2.847656 L 3.429688 4.121094 C 2.507812 5.203125 2.003906 6.578125 2 8 L 2 14 L 14 14 L 14 8 C 14 6.582031 13.496094 5.207031 12.582031 4.125 L 13.859375 2.847656 C 14.054688 2.652344 14.054688 2.335938 13.859375 2.140625 C 13.664062 1.945312 13.347656 1.945312 13.152344 2.140625 L 11.867188 3.421875 C 10.789062 2.507812 9.417969 2.003906 8 2 C 6.585938 2 5.214844 2.5 4.132812 3.410156 L 2.859375 2.140625 C 2.761719 2.042969 2.632812 1.988281 2.496094 1.988281 M 8 3 C 10.761719 3 13 5.238281 13 8 L 3 8 C 3 5.238281 5.238281 3 8 3 M 6 5 C 5.449219 5 5 5.449219 5 6 C 5 6.550781 5.449219 7 6 7 C 6.550781 7 7 6.550781 7 6 C 7 5.449219 6.550781 5 6 5 M 10 5 C 9.449219 5 9 5.449219 9 6 C 9 6.550781 9.449219 7 10 7 C 10.550781 7 11 6.550781 11 6 C 11 5.449219 10.550781 5 10 5 M 3 9 L 7 9 L 7 10 L 8 10 L 8 11 L 9 11 L 9 9 L 13 9 L 13 13 L 3 13 Z M 8 11 L 7 11 L 7 12 L 8 12 Z M 8 11 "/>
</g>
</svg>
