<?xml version="1.0" encoding="UTF-8"?>
<svg xmlns="http://www.w3.org/2000/svg" xmlns:xlink="http://www.w3.org/1999/xlink" width="16px" height="16px" viewBox="0 0 16 16" version="1.1">
<g id="surface1">
<path style=" stroke:none;fill-rule:nonzero;fill:rgb(9.803922%,32.156864%,99.607843%);fill-opacity:1;" d="M 4 14 C 3.734375 14 3.480469 13.894531 3.292969 13.707031 C 3.105469 13.519531 3 13.265625 3 13 L 3 3 C 3 2.445312 3.445312 2 4 2 L 12 2 C 12.554688 2 13 2.445312 13 3 L 13 13 C 13 13.554688 12.554688 14 12 14 Z M 4 13 L 12 13 L 12 3 L 4 3 Z M 5 11 L 5 10 L 11 10 L 11 11 Z M 5 9 L 5 8 L 11 8 L 11 9 Z M 5 7 L 5 6 L 11 6 L 11 7 Z M 5 5 L 5 4 L 11 4 L 11 5 Z M 5 5 "/>
</g>
</svg>
