<?xml version="1.0" encoding="UTF-8"?>
<svg xmlns="http://www.w3.org/2000/svg" xmlns:xlink="http://www.w3.org/1999/xlink" width="16px" height="16px" viewBox="0 0 16 16" version="1.1">
<g id="surface1">
<path style=" stroke:none;fill-rule:nonzero;fill:rgb(49.803922%,50.196081%,50.196081%);fill-opacity:1;" d="M 7.078125 1 C 6.394531 1 5.503906 1.40625 4.691406 2.085938 C 4.199219 2.304688 3.855469 2.8125 3.855469 3.402344 C 3.855469 3.589844 3.890625 3.769531 3.953125 3.941406 C 3.109375 4.109375 2.46875 4.890625 2.46875 5.820312 C 2.46875 6.015625 2.496094 6.207031 2.550781 6.390625 C 2.199219 6.757812 2.003906 7.25 2.003906 7.757812 C 2.003906 8.164062 2.125 8.535156 2.328125 8.84375 C 2.117188 9.167969 2.003906 9.546875 2.003906 9.933594 C 2.003906 10.628906 2.371094 11.273438 2.945312 11.609375 C 2.933594 11.699219 2.929688 11.785156 2.929688 11.871094 C 2.929688 12.8125 3.519531 13.644531 4.371094 13.929688 C 4.742188 14.589844 5.414062 15 6.152344 15 C 6.964844 15 7.667969 14.511719 8.003906 13.800781 C 8.34375 14.511719 9.046875 15 9.855469 15 C 10.59375 15 11.269531 14.589844 11.640625 13.929688 C 12.496094 13.644531 13.082031 12.8125 13.082031 11.871094 C 13.082031 11.785156 13.074219 11.695312 13.066406 11.609375 C 13.640625 11.273438 14.003906 10.628906 14.003906 9.933594 C 14.003906 9.539062 13.894531 9.164062 13.683594 8.84375 C 13.886719 8.535156 14.003906 8.164062 14.003906 7.757812 C 14.007812 7.25 13.8125 6.757812 13.460938 6.390625 C 13.515625 6.207031 13.542969 6.015625 13.542969 5.820312 C 13.542969 4.890625 12.902344 4.109375 12.058594 3.941406 C 12.121094 3.769531 12.15625 3.589844 12.15625 3.402344 C 12.160156 2.839844 11.835938 2.324219 11.320312 2.085938 C 10.507812 1.40625 9.613281 1 8.929688 1 C 8.550781 1 8.214844 1.195312 8.003906 1.496094 C 7.796875 1.1875 7.449219 1.003906 7.078125 1 M 7.078125 1.453125 C 7.472656 1.453125 7.785156 1.785156 7.785156 2.195312 L 7.785156 5.128906 C 7.585938 4.960938 7.335938 4.871094 7.078125 4.871094 C 6.960938 4.871094 6.859375 4.972656 6.859375 5.101562 C 6.859375 5.226562 6.960938 5.324219 7.078125 5.324219 C 7.472656 5.324219 7.785156 5.65625 7.785156 6.066406 L 7.785156 11.515625 C 7.515625 11.152344 7.140625 10.878906 6.691406 10.753906 C 6.632812 10.742188 6.574219 10.75 6.523438 10.777344 C 6.472656 10.808594 6.4375 10.859375 6.421875 10.914062 C 6.390625 11.035156 6.457031 11.15625 6.578125 11.195312 C 7.289062 11.390625 7.785156 12.070312 7.785156 12.835938 C 7.785156 13.78125 7.054688 14.546875 6.152344 14.546875 C 5.546875 14.546875 4.992188 14.195312 4.707031 13.632812 C 4.679688 13.578125 4.628906 13.535156 4.570312 13.519531 C 3.859375 13.320312 3.363281 12.640625 3.363281 11.871094 C 3.363281 11.757812 3.375 11.640625 3.394531 11.527344 C 3.417969 11.425781 3.363281 11.320312 3.269531 11.277344 C 2.765625 11.039062 2.4375 10.515625 2.4375 9.933594 C 2.4375 9.671875 2.503906 9.421875 2.628906 9.199219 C 2.957031 9.507812 3.386719 9.679688 3.835938 9.679688 C 3.960938 9.679688 4.054688 9.578125 4.054688 9.453125 C 4.054688 9.394531 4.035156 9.335938 3.992188 9.292969 C 3.953125 9.25 3.894531 9.226562 3.835938 9.226562 C 3.066406 9.226562 2.433594 8.566406 2.433594 7.757812 C 2.433594 7.324219 2.621094 6.910156 2.941406 6.632812 C 3.011719 6.570312 3.035156 6.464844 3 6.375 C 2.933594 6.199219 2.898438 6.011719 2.898438 5.824219 C 2.898438 5.015625 3.527344 4.359375 4.300781 4.359375 C 5.074219 4.359375 5.703125 5.015625 5.703125 5.824219 C 5.703125 5.949219 5.800781 6.050781 5.921875 6.050781 C 6.039062 6.050781 6.140625 5.949219 6.140625 5.824219 C 6.140625 4.804688 5.378906 3.972656 4.421875 3.910156 C 4.332031 3.753906 4.289062 3.582031 4.289062 3.402344 C 4.289062 3 4.523438 2.652344 4.859375 2.503906 C 4.867188 2.492188 4.882812 2.488281 4.894531 2.484375 C 5 2.441406 5.109375 2.421875 5.226562 2.421875 C 5.589844 2.421875 5.917969 2.632812 6.074219 2.972656 C 6.128906 3.089844 6.257812 3.132812 6.363281 3.078125 C 6.472656 3.019531 6.515625 2.890625 6.464844 2.777344 C 6.289062 2.394531 5.953125 2.113281 5.546875 2.003906 C 6.101562 1.652344 6.644531 1.453125 7.078125 1.453125 Z M 8.929688 1.453125 C 9.363281 1.453125 9.910156 1.652344 10.464844 2.003906 C 10.058594 2.113281 9.71875 2.394531 9.546875 2.777344 C 9.496094 2.890625 9.539062 3.019531 9.644531 3.078125 C 9.753906 3.136719 9.878906 3.089844 9.933594 2.972656 C 10.082031 2.640625 10.414062 2.421875 10.78125 2.421875 C 10.898438 2.421875 11.007812 2.441406 11.113281 2.484375 C 11.125 2.496094 11.140625 2.496094 11.152344 2.5 C 11.484375 2.652344 11.722656 2.996094 11.722656 3.402344 C 11.722656 3.582031 11.671875 3.753906 11.589844 3.90625 C 10.628906 3.96875 9.867188 4.804688 9.867188 5.820312 C 9.867188 5.945312 9.96875 6.050781 10.089844 6.050781 C 10.207031 6.050781 10.304688 5.945312 10.304688 5.820312 C 10.304688 5.015625 10.929688 4.355469 11.707031 4.355469 C 12.480469 4.355469 13.109375 5.015625 13.109375 5.820312 C 13.109375 6.011719 13.078125 6.195312 13.007812 6.375 C 12.972656 6.464844 12.996094 6.566406 13.070312 6.628906 C 13.390625 6.910156 13.574219 7.324219 13.574219 7.757812 C 13.574219 8.566406 12.941406 9.226562 12.171875 9.226562 C 12.046875 9.226562 11.953125 9.328125 11.953125 9.453125 C 11.953125 9.578125 12.050781 9.679688 12.171875 9.679688 C 12.621094 9.679688 13.054688 9.507812 13.382812 9.199219 C 13.507812 9.421875 13.570312 9.671875 13.570312 9.933594 C 13.570312 10.515625 13.242188 11.039062 12.738281 11.277344 C 12.644531 11.320312 12.59375 11.425781 12.613281 11.527344 C 12.636719 11.640625 12.648438 11.753906 12.648438 11.871094 C 12.648438 12.640625 12.148438 13.316406 11.4375 13.519531 C 11.378906 13.535156 11.328125 13.578125 11.300781 13.628906 C 11.015625 14.195312 10.464844 14.546875 9.855469 14.546875 C 8.953125 14.546875 8.222656 13.78125 8.222656 12.835938 C 8.222656 12.773438 8.21875 12.710938 8.214844 12.648438 C 8.21875 12.628906 8.222656 12.609375 8.222656 12.589844 L 8.222656 5.101562 C 8.222656 4.691406 8.539062 4.355469 8.929688 4.355469 C 8.988281 4.355469 9.042969 4.332031 9.085938 4.289062 C 9.125 4.246094 9.148438 4.191406 9.148438 4.132812 C 9.148438 4.070312 9.125 4.015625 9.085938 3.972656 C 9.042969 3.929688 8.988281 3.90625 8.929688 3.902344 C 8.660156 3.902344 8.417969 4 8.222656 4.160156 L 8.222656 2.195312 C 8.222656 1.785156 8.539062 1.453125 8.929688 1.453125 M 12.167969 5.355469 C 12.046875 5.359375 11.949219 5.460938 11.953125 5.582031 C 11.953125 6.390625 11.324219 7.046875 10.550781 7.046875 C 10.171875 7.046875 9.808594 6.886719 9.550781 6.609375 C 9.511719 6.566406 9.457031 6.539062 9.398438 6.539062 C 9.339844 6.539062 9.285156 6.566406 9.246094 6.609375 C 9.160156 6.695312 9.15625 6.835938 9.238281 6.929688 C 9.539062 7.25 9.929688 7.441406 10.347656 7.492188 C 10.449219 8.183594 11.023438 8.714844 11.710938 8.714844 C 11.828125 8.714844 11.925781 8.609375 11.925781 8.484375 C 11.925781 8.425781 11.90625 8.371094 11.863281 8.328125 C 11.824219 8.285156 11.769531 8.261719 11.710938 8.261719 L 11.707031 8.261719 C 11.257812 8.261719 10.882812 7.929688 10.789062 7.488281 C 11.691406 7.363281 12.390625 6.558594 12.390625 5.589844 C 12.390625 5.464844 12.289062 5.359375 12.171875 5.359375 Z M 4.304688 5.589844 C 4.183594 5.589844 4.085938 5.695312 4.085938 5.820312 C 4.085938 6.792969 4.785156 7.601562 5.683594 7.722656 C 5.59375 8.164062 5.214844 8.496094 4.765625 8.496094 C 4.648438 8.496094 4.546875 8.597656 4.546875 8.722656 C 4.546875 8.847656 4.648438 8.953125 4.765625 8.953125 C 5.453125 8.953125 6.027344 8.421875 6.125 7.730469 C 6.550781 7.679688 6.945312 7.480469 7.234375 7.164062 C 7.316406 7.074219 7.316406 6.933594 7.230469 6.84375 C 7.191406 6.800781 7.136719 6.777344 7.078125 6.777344 C 7.019531 6.777344 6.964844 6.800781 6.925781 6.84375 C 6.660156 7.128906 6.304688 7.285156 5.925781 7.285156 C 5.152344 7.285156 4.523438 6.628906 4.523438 5.816406 C 4.527344 5.695312 4.429688 5.59375 4.308594 5.589844 Z M 8.929688 8.984375 C 8.808594 8.984375 8.710938 9.085938 8.710938 9.210938 C 8.710938 9.335938 8.808594 9.4375 8.929688 9.4375 C 9.703125 9.4375 10.332031 10.09375 10.332031 10.902344 C 10.332031 10.957031 10.328125 11.007812 10.324219 11.058594 C 9.652344 11.34375 9.175781 12.035156 9.175781 12.839844 C 9.175781 12.964844 9.273438 13.070312 9.390625 13.070312 C 9.515625 13.070312 9.609375 12.964844 9.609375 12.839844 C 9.609375 12.03125 10.238281 11.375 11.015625 11.375 C 11.132812 11.375 11.230469 11.269531 11.230469 11.144531 C 11.230469 11.023438 11.136719 10.921875 11.015625 10.921875 C 10.929688 10.921875 10.847656 10.929688 10.765625 10.941406 L 10.765625 10.90625 C 10.765625 9.847656 9.941406 8.984375 8.929688 8.984375 Z M 6.386719 9.464844 C 5.371094 9.464844 4.550781 10.328125 4.550781 11.386719 L 4.550781 11.417969 C 4.46875 11.410156 4.390625 11.402344 4.304688 11.402344 C 4.183594 11.402344 4.085938 11.503906 4.089844 11.628906 C 4.089844 11.753906 4.183594 11.855469 4.304688 11.855469 C 5.078125 11.855469 5.707031 12.515625 5.707031 13.320312 C 5.707031 13.445312 5.804688 13.550781 5.921875 13.550781 C 6.042969 13.550781 6.140625 13.445312 6.140625 13.320312 C 6.140625 12.515625 5.664062 11.828125 4.992188 11.539062 C 4.984375 11.488281 4.984375 11.4375 4.984375 11.386719 C 4.984375 10.578125 5.613281 9.921875 6.386719 9.921875 C 6.503906 9.921875 6.605469 9.816406 6.605469 9.691406 C 6.605469 9.570312 6.507812 9.46875 6.386719 9.464844 "/>
</g>
</svg>
