<?xml version="1.0" encoding="UTF-8"?>
<svg xmlns="http://www.w3.org/2000/svg" xmlns:xlink="http://www.w3.org/1999/xlink" width="16px" height="16px" viewBox="0 0 16 16" version="1.1">
<g id="surface1">
<path style=" stroke:none;fill-rule:nonzero;fill:rgb(99.607843%,77.254903%,9.803922%);fill-opacity:1;" d="M 8 2 C 6.929688 5.816406 4 8.074219 4 10.183594 C 4 12.289062 5.789062 14 8 14 C 10.210938 14 12 12.289062 12 10.183594 C 12 8.074219 9.070312 5.816406 8 2 M 10.75 8.234375 C 11.191406 8.796875 11.425781 9.480469 11.429688 10.183594 C 11.429688 11.988281 9.894531 13.453125 8 13.453125 C 7.269531 13.457031 6.558594 13.230469 5.964844 12.808594 C 6.257812 12.875 6.558594 12.910156 6.859375 12.910156 C 9.066406 12.910156 10.859375 11.199219 10.859375 9.089844 C 10.855469 8.800781 10.820312 8.515625 10.75 8.234375 "/>
</g>
</svg>
