<?xml version="1.0" encoding="UTF-8"?>
<svg xmlns="http://www.w3.org/2000/svg" xmlns:xlink="http://www.w3.org/1999/xlink" width="16px" height="16px" viewBox="0 0 16 16" version="1.1">
<g id="surface1">
<path style=" stroke:none;fill-rule:nonzero;fill:rgb(99.607843%,9.803922%,54.901963%);fill-opacity:1;" d="M 3 2 C 2.445312 2 2 2.445312 2 3 L 2 13 C 2 13.554688 2.445312 14 3 14 L 11 14 C 11.554688 14 12 13.554688 12 13 L 13 13 C 13.554688 13 14 12.554688 14 12 L 14 10 C 14 9.816406 13.933594 9.648438 13.847656 9.5 C 13.933594 9.351562 14 9.183594 14 9 L 14 7 C 14 6.816406 13.933594 6.648438 13.847656 6.5 C 13.933594 6.351562 14 6.183594 14 6 L 14 4 C 14 3.445312 13.554688 3 13 3 L 12 3 C 12 2.445312 11.554688 2 11 2 Z M 3 3 L 11 3 L 11 13 L 3 13 Z M 4 4 L 4 6 L 10 6 L 10 4 Z M 12 4 L 13 4 L 13 6 L 12 6 Z M 4 7 L 4 8 L 10 8 L 10 7 Z M 12 7 L 13 7 L 13 9 L 12 9 Z M 4 9 L 4 10 L 10 10 L 10 9 Z M 12 10 L 13 10 L 13 12 L 12 12 Z M 4 11 L 4 12 L 10 12 L 10 11 Z M 4 11 "/>
</g>
</svg>
