<?xml version="1.0" encoding="UTF-8"?>
<svg xmlns="http://www.w3.org/2000/svg" xmlns:xlink="http://www.w3.org/1999/xlink" width="16px" height="16px" viewBox="0 0 16 16" version="1.1">
<g id="surface1">
<path style=" stroke:none;fill-rule:nonzero;fill:rgb(49.803922%,50.196081%,50.196081%);fill-opacity:1;" d="M 2 2 L 2 14 L 14 14 L 14 2 Z M 3 3 L 13 3 L 13 11 L 3 11 Z M 4 4 L 4 7 L 7 7 L 7 5 L 6 5 L 5.101562 4 Z M 3 12 L 4 12 L 4 13 L 3 13 Z M 5 12 L 9 12 L 9 13 L 5 13 Z M 10 12 L 11 12 L 11 13 L 10 13 Z M 12 12 L 13 12 L 13 13 L 12 13 Z M 12 12 "/>
</g>
</svg>
