<?xml version="1.0" encoding="UTF-8"?>
<svg xmlns="http://www.w3.org/2000/svg" xmlns:xlink="http://www.w3.org/1999/xlink" width="16px" height="16px" viewBox="0 0 16 16" version="1.1">
<g id="surface1">
<path style=" stroke:none;fill-rule:nonzero;fill:rgb(49.803922%,50.196081%,50.196081%);fill-opacity:1;" d="M 2 2 L 2 10 L 5 10 L 5 3 L 8 3 L 8 5 L 11 5 L 11 2 Z M 3 3 L 4 3 L 4 4 L 3 4 Z M 9 3 L 10 3 L 10 4 L 9 4 Z M 3 5 L 4 5 L 4 7 L 3 7 Z M 6 6 L 6 12 L 8 14 L 8 12 L 14 12 L 14 6 Z M 7 7 L 13 7 L 13 11 L 7 11 Z M 3 8 L 4 8 L 4 9 L 3 9 Z M 3 8 "/>
</g>
</svg>
