<?xml version="1.0" encoding="UTF-8"?>
<svg xmlns="http://www.w3.org/2000/svg" xmlns:xlink="http://www.w3.org/1999/xlink" width="16px" height="16px" viewBox="0 0 16 16" version="1.1">
<g id="surface1">
<path style=" stroke:none;fill-rule:nonzero;fill:rgb(99.607843%,54.901963%,9.803922%);fill-opacity:1;" d="M 7.5 2 L 7.5 3.125 C 6.65625 3.203125 5.996094 3.414062 5.5 3.8125 C 4.957031 4.246094 4.6875 4.886719 4.6875 5.71875 C 4.6875 6.882812 5.382812 7.636719 6.8125 8 L 7.5 8.1875 L 7.5 11.875 C 6.613281 11.796875 5.78125 11.601562 5 11.21875 L 4.65625 12.125 C 4.972656 12.320312 5.410156 12.503906 5.9375 12.65625 C 6.402344 12.785156 6.925781 12.84375 7.5 12.875 L 7.5 14 L 8.5 14 L 8.5 12.875 C 9.347656 12.804688 10.035156 12.546875 10.53125 12.09375 C 11.066406 11.609375 11.34375 10.910156 11.34375 10 C 11.34375 9.265625 11.144531 8.710938 10.75 8.3125 C 10.355469 7.910156 9.765625 7.621094 9 7.4375 L 8.5 7.3125 L 8.5 4.0625 C 8.886719 4.089844 9.289062 4.144531 9.65625 4.25 C 10.003906 4.34375 10.339844 4.480469 10.65625 4.65625 L 10.96875 3.75 C 10.328125 3.351562 9.507812 3.113281 8.5 3.0625 L 8.5 2 Z M 7.28125 4.09375 C 7.347656 4.082031 7.429688 4.101562 7.5 4.09375 L 7.5 7.0625 L 7.21875 7 C 6.75 6.886719 6.394531 6.714844 6.15625 6.5 C 5.921875 6.28125 5.8125 5.984375 5.8125 5.625 C 5.8125 4.769531 6.296875 4.257812 7.28125 4.09375 M 8.5 8.40625 L 8.6875 8.46875 C 9.265625 8.613281 9.660156 8.808594 9.875 9.066406 C 10.097656 9.316406 10.1875 9.65625 10.191406 10.066406 C 10.191406 11.195312 9.625 11.796875 8.5 11.910156 Z M 8.5 8.40625 "/>
</g>
</svg>
