<?xml version="1.0" encoding="UTF-8"?>
<svg xmlns="http://www.w3.org/2000/svg" xmlns:xlink="http://www.w3.org/1999/xlink" width="16px" height="16px" viewBox="0 0 16 16" version="1.1">
<g id="surface1">
<path style=" stroke:none;fill-rule:nonzero;fill:rgb(49.803922%,50.196081%,50.196081%);fill-opacity:1;" d="M 6 2 L 6 4 L 7 4 L 7 2 Z M 9 2 L 9 4 L 10 4 L 10 2 Z M 12.878906 2.996094 L 11.984375 4.5 L 12.859375 5 L 13.753906 3.464844 Z M 3.113281 3.0625 L 2.269531 3.5625 L 3.195312 5.066406 L 4.039062 4.566406 Z M 4 5 L 2 7 L 8 14 L 14 7 L 12 5 Z M 4.4375 6 L 7.5 6 L 7.5 7 L 3.4375 7 Z M 8.5 6 L 11.566406 6 L 12.566406 7 L 8.5 7 Z M 4.15625 8 L 7.5 8 L 7.5 11.886719 Z M 8.5 8 L 11.84375 8 L 8.5 11.886719 Z M 8.5 8 "/>
</g>
</svg>
