<?xml version="1.0" encoding="UTF-8"?>
<svg xmlns="http://www.w3.org/2000/svg" xmlns:xlink="http://www.w3.org/1999/xlink" width="16px" height="16px" viewBox="0 0 16 16" version="1.1">
<g id="surface1">
<path style=" stroke:none;fill-rule:nonzero;fill:rgb(99.607843%,54.901963%,9.803922%);fill-opacity:1;" d="M 7 2 L 7 5 L 8 5 L 8 2 Z M 5 3 L 5 5 L 6 5 L 6 3 Z M 9 3 L 9 5 L 10 5 L 10 3 Z M 3 4 L 3 5 L 4 5 L 4 4 Z M 2 6 L 2 10 C 2 11.8125 3.011719 13 5 13 L 3 13 L 3 14 L 11 14 L 11 13 L 9 13 C 10.570312 13 11.503906 12.273438 12 11 L 13 11 C 14 11 14 10.996094 14 9.90625 L 14 8.8125 C 14 6.996094 14 7 13 7 L 12 7 L 12 6 Z M 3 7 L 11 7 L 11 10 C 11 11.511719 9.660156 12 8 12 L 6 12 C 4.339844 12 3 11.511719 3 10 Z M 12 8 L 13 8 L 13 10 L 12 10 Z M 12 8 "/>
</g>
</svg>
