<?xml version="1.0" encoding="UTF-8"?>
<svg xmlns="http://www.w3.org/2000/svg" xmlns:xlink="http://www.w3.org/1999/xlink" width="16px" height="16px" viewBox="0 0 16 16" version="1.1">
<g id="surface1">
<path style=" stroke:none;fill-rule:nonzero;fill:rgb(99.607843%,9.803922%,9.803922%);fill-opacity:1;" d="M 8 2 C 4.6875 2 2 4.6875 2 8 C 2 11.3125 4.6875 14 8 14 C 11.3125 14 14 11.3125 14 8 C 14 4.6875 11.3125 2 8 2 M 8 3 C 10.761719 3 13 5.238281 13 8 C 13 10.761719 10.761719 13 8 13 C 5.238281 13 3 10.761719 3 8 C 3 5.238281 5.238281 3 8 3 M 8 4 C 7.0625 4 6.160156 4.328125 5.441406 4.929688 L 6.082031 5.695312 C 6.621094 5.246094 7.300781 5 8 5 C 9.65625 5 11 6.34375 11 8 L 12 8 C 12 5.789062 10.210938 4 8 4 M 9 6 L 7.398438 9.203125 C 7.148438 9.390625 7 9.6875 7 10 C 7 10.550781 7.449219 11 8 11 C 8.550781 11 9 10.550781 9 10 C 9 9.757812 8.910156 9.523438 8.746094 9.339844 Z M 4.53125 6.015625 C 4.183594 6.621094 4.003906 7.304688 4 8 L 5 8 C 5 7.476562 5.140625 6.964844 5.398438 6.515625 Z M 4.53125 6.015625 "/>
</g>
</svg>
