<?xml version="1.0" encoding="UTF-8"?>
<svg xmlns="http://www.w3.org/2000/svg" xmlns:xlink="http://www.w3.org/1999/xlink" width="16px" height="16px" viewBox="0 0 16 16" version="1.1">
<g id="surface1">
<path style=" stroke:none;fill-rule:nonzero;fill:rgb(99.607843%,54.901963%,9.803922%);fill-opacity:1;" d="M 7 2 C 6.46875 2 5.960938 2.210938 5.585938 2.585938 C 5.210938 2.960938 5 3.46875 5 4 L 8 4 L 8 5 L 4 5 C 3.46875 5 2.960938 5.210938 2.585938 5.585938 C 2.210938 5.960938 2 6.46875 2 7 L 2 9 C 2 9.53125 2.210938 10.039062 2.585938 10.414062 C 2.960938 10.789062 3.46875 11 4 11 L 4 10 C 4 9.148438 4.363281 8.339844 5 7.773438 L 5.003906 7.773438 C 5.132812 7.652344 5.277344 7.546875 5.429688 7.453125 L 5.433594 7.453125 C 5.578125 7.359375 5.738281 7.277344 5.902344 7.214844 C 5.933594 7.203125 5.964844 7.195312 5.996094 7.183594 C 6.316406 7.058594 6.65625 6.996094 7.003906 7 L 11.003906 7 L 11.003906 4 C 11.003906 3.46875 10.792969 2.960938 10.417969 2.585938 C 10.042969 2.210938 9.535156 2 9.003906 2 Z M 7 2.5 C 7.277344 2.5 7.5 2.722656 7.5 3 C 7.5 3.132812 7.449219 3.261719 7.355469 3.355469 C 7.261719 3.449219 7.132812 3.5 7 3.5 C 6.867188 3.5 6.738281 3.449219 6.644531 3.355469 C 6.550781 3.261719 6.5 3.132812 6.5 3 C 6.5 2.722656 6.722656 2.5 7 2.5 Z M 12 8 L 10.5 9.5 L 11.207031 10.207031 L 12 9.414062 L 12 13 L 11 13 L 11 14 L 14 14 L 14 13 L 13 13 L 13 8 Z M 12 8 "/>
<path style=" stroke:none;fill-rule:nonzero;fill:rgb(99.607843%,54.901963%,9.803922%);fill-opacity:1;" d="M 8 8 C 7.441406 8 6.878906 8.277344 6.527344 8.800781 C 6.171875 9.324219 6 10.046875 6 11 C 6 11.953125 6.171875 12.675781 6.527344 13.199219 C 6.855469 13.695312 7.40625 13.996094 8 14 C 8.558594 14 9.121094 13.722656 9.472656 13.199219 C 9.828125 12.675781 10 11.953125 10 11 C 10 10.046875 9.828125 9.324219 9.472656 8.800781 C 9.144531 8.304688 8.59375 8.003906 8 8 Z M 8 9 C 8.269531 9 8.457031 9.078125 8.648438 9.359375 C 8.679688 9.410156 8.710938 9.480469 8.742188 9.546875 L 7.015625 11.277344 C 7.007812 11.183594 7 11.101562 7 11 C 7 10.171875 7.164062 9.640625 7.351562 9.359375 C 7.542969 9.078125 7.730469 9 8 9 Z M 8.984375 10.722656 C 8.992188 10.816406 9 10.898438 9 11 C 9 11.828125 8.835938 12.359375 8.648438 12.640625 C 8.457031 12.921875 8.269531 13 8 13 C 7.730469 13 7.542969 12.921875 7.351562 12.640625 C 7.320312 12.589844 7.289062 12.519531 7.257812 12.453125 Z M 8.984375 10.722656 "/>
</g>
</svg>
