<?xml version="1.0" encoding="UTF-8"?>
<svg xmlns="http://www.w3.org/2000/svg" xmlns:xlink="http://www.w3.org/1999/xlink" width="16px" height="16px" viewBox="0 0 16 16" version="1.1">
<g id="surface1">
<path style=" stroke:none;fill-rule:nonzero;fill:rgb(9.803922%,99.607843%,32.156864%);fill-opacity:1;" d="M 2 2 L 2 14 L 14 14 L 14 2 Z M 3 3 L 13 3 L 13 5 L 3 5 Z M 3 6 L 5 6 L 5 9 L 3 9 Z M 6 6 L 10 6 L 10 9 L 6 9 Z M 11 6 L 13 6 L 13 9 L 11 9 Z M 3 10 L 5 10 L 5 13 L 3 13 Z M 6 10 L 10 10 L 10 13 L 6 13 Z M 11 10 L 13 10 L 13 13 L 11 13 Z M 11 10 "/>
</g>
</svg>
