<?xml version="1.0" encoding="UTF-8"?>
<svg xmlns="http://www.w3.org/2000/svg" xmlns:xlink="http://www.w3.org/1999/xlink" width="16px" height="16px" viewBox="0 0 16 16" version="1.1">
<g id="surface1">
<path style=" stroke:none;fill-rule:nonzero;fill:rgb(99.607843%,54.901963%,9.803922%);fill-opacity:1;" d="M 7.378906 1.953125 C 7.179688 1.957031 7 2.078125 6.921875 2.265625 C 6.847656 2.453125 6.890625 2.664062 7.035156 2.804688 L 10.242188 6.011719 C 10.160156 6.007812 10.082031 6.003906 10 6.003906 L 2.5 6.003906 C 2.234375 6.019531 2.03125 6.238281 2.03125 6.503906 C 2.03125 6.765625 2.234375 6.984375 2.5 7.003906 L 7.292969 7.003906 L 2.148438 12.152344 C 1.953125 12.347656 1.953125 12.664062 2.148438 12.855469 C 2.34375 13.050781 2.660156 13.050781 2.855469 12.855469 L 6.015625 9.691406 C 6.007812 9.792969 6.003906 9.898438 6 10.003906 C 6 12.210938 7.789062 14.003906 10 14.003906 C 12.210938 14.003906 14 12.210938 14 10.003906 C 14 9.050781 13.660156 8.128906 13.039062 7.40625 L 13.046875 7.398438 L 12.910156 7.261719 C 12.84375 7.191406 12.777344 7.125 12.707031 7.058594 L 7.742188 2.09375 C 7.644531 2 7.515625 1.945312 7.378906 1.945312 Z M 10 7.003906 C 10.734375 7.003906 11.445312 7.277344 11.996094 7.765625 L 12.226562 7.996094 C 13.175781 9.046875 13.257812 10.621094 12.429688 11.765625 C 11.597656 12.914062 10.074219 13.324219 8.777344 12.746094 C 7.484375 12.171875 6.769531 10.769531 7.0625 9.382812 C 7.359375 7.996094 8.582031 7.003906 10 7.003906 M 10 9.003906 C 9.449219 9.003906 9 9.453125 9 10.003906 C 9 10.558594 9.445312 11.003906 10 11.003906 C 10.550781 11.003906 11 10.558594 11 10.003906 C 11 9.453125 10.550781 9.003906 10 9.003906 "/>
</g>
</svg>
