<?xml version="1.0" encoding="UTF-8"?>
<svg xmlns="http://www.w3.org/2000/svg" xmlns:xlink="http://www.w3.org/1999/xlink" width="16px" height="16px" viewBox="0 0 16 16" version="1.1">
<g id="surface1">
<path style=" stroke:none;fill-rule:evenodd;fill:rgb(49.803922%,50.196081%,50.196081%);fill-opacity:1;" d="M 13.5 13.996094 L 9.816406 14 L 7.3125 10.394531 C 7.3125 10.394531 6.910156 9.71875 6.660156 9.523438 C 6.453125 9.359375 6.363281 9.300781 6.160156 9.300781 L 5.695312 9.300781 L 5.695312 13.996094 L 2.5 13.996094 L 2.5 2 L 9.453125 2 C 9.453125 2 12.277344 2.503906 12.332031 5.222656 C 12.394531 8.25 9.609375 9.140625 9.609375 9.140625 C 9.988281 9.292969 13.066406 13.296875 13.5 13.996094 M 7.984375 4.601562 L 5.726562 4.597656 L 5.722656 6.640625 L 7.984375 6.640625 C 7.984375 6.640625 9.03125 6.636719 9.03125 5.601562 C 9.03125 4.546875 7.984375 4.601562 7.984375 4.601562 "/>
</g>
</svg>
