<?xml version="1.0" encoding="UTF-8"?>
<svg xmlns="http://www.w3.org/2000/svg" xmlns:xlink="http://www.w3.org/1999/xlink" width="16px" height="16px" viewBox="0 0 16 16" version="1.1">
<g id="surface1">
<path style=" stroke:none;fill-rule:nonzero;fill:rgb(49.803922%,50.196081%,50.196081%);fill-opacity:1;" d="M 8 2 C 7.203125 2 6.441406 2.3125 5.875 2.875 C 5.3125 3.441406 5 4.203125 5 5 L 5 8 L 3 8 L 3 14 L 13 14 L 13 8 L 11 8 L 11 5 C 11 4.203125 10.6875 3.441406 10.125 2.875 C 9.558594 2.3125 8.796875 2 8 2 M 8 3 C 9.246094 3 10 3.546875 10 5 L 10 8 L 6 8 L 6 5 C 6 3.546875 6.753906 3 8 3 "/>
</g>
</svg>
