<?xml version="1.0" encoding="UTF-8"?>
<svg xmlns="http://www.w3.org/2000/svg" xmlns:xlink="http://www.w3.org/1999/xlink" width="16px" height="16px" viewBox="0 0 16 16" version="1.1">
<g id="surface1">
<path style=" stroke:none;fill-rule:nonzero;fill:rgb(99.607843%,9.803922%,32.156864%);fill-opacity:1;" d="M 3 2 L 3 6 L 2 6 L 2 12 L 5 12 L 5 14 L 11 14 L 11 12 L 14 12 L 14 6 L 13 6 L 13 2 Z M 4 3 L 12 3 L 12 6 L 11 6 L 11 5 L 5 5 L 5 6 L 4 6 Z M 5 3 L 5 4 L 11 4 L 11 3 Z M 3 7 L 13 7 L 13 11 L 12 11 L 12 10 L 4 10 L 4 11 L 3 11 Z M 10 8 L 10 9 L 12 9 L 12 8 Z M 6 12 L 10 12 L 10 13 L 6 13 Z M 6 12 "/>
</g>
</svg>
