<?xml version="1.0" encoding="UTF-8"?>
<svg xmlns="http://www.w3.org/2000/svg" xmlns:xlink="http://www.w3.org/1999/xlink" width="16px" height="16px" viewBox="0 0 16 16" version="1.1">
<g id="surface1">
<path style=" stroke:none;fill-rule:nonzero;fill:rgb(9.803922%,100%,54.901963%);fill-opacity:1;" d="M 2.066406 2 L 2.066406 14 L 14.066406 14 L 14.066406 2 Z M 3.066406 3 L 4.976562 3 C 5.035156 3.160156 5.0625 3.328125 5.066406 3.5 C 5.0625 4.328125 4.394531 5 3.566406 5 C 3.394531 5 3.226562 4.96875 3.066406 4.910156 Z M 6.011719 3 L 13.058594 3 L 13.058594 13 L 3.058594 13 L 3.058594 12.214844 L 4.386719 10.917969 L 5.796875 9.515625 L 6.359375 9.929688 L 7.460938 11 L 10.058594 8.601562 L 14.058594 12.496094 L 13.058594 10 L 10.058594 7 L 7.460938 9.601562 L 5.859375 8 L 3.058594 10.800781 L 3.058594 5.949219 C 3.796875 6.097656 4.558594 5.910156 5.140625 5.4375 C 5.722656 4.960938 6.058594 4.25 6.058594 3.5 C 6.058594 3.332031 6.042969 3.164062 6.003906 3 "/>
</g>
</svg>
