<?xml version="1.0" encoding="UTF-8"?>
<svg xmlns="http://www.w3.org/2000/svg" xmlns:xlink="http://www.w3.org/1999/xlink" width="16px" height="16px" viewBox="0 0 16 16" version="1.1">
<g id="surface1">
<path style=" stroke:none;fill-rule:evenodd;fill:rgb(9.803922%,77.254903%,99.607843%);fill-opacity:1;" d="M 7 2 L 7 4 L 9 4 L 9 2 Z M 6.867188 4.359375 L 4.890625 4.890625 L 5.707031 5.707031 L 7 5.359375 L 7 4.355469 Z M 9 4.359375 L 9 5.359375 L 12.058594 6.175781 L 9 6.996094 L 9 13.996094 L 9.132812 13.996094 L 13.992188 12.691406 L 14 12.691406 L 14 5.652344 L 13.992188 5.65625 L 9.132812 4.351562 Z M 3.308594 5.308594 L 2 5.660156 L 2 13 L 8 14 L 8 7 L 3.605469 6.265625 L 4.128906 6.128906 Z M 13 6.964844 L 13 11.394531 L 10 10.585938 L 10 7.765625 Z M 10 11.625 L 12.058594 12.175781 L 10 12.730469 Z M 10 11.625 "/>
</g>
</svg>
