<?xml version="1.0" encoding="UTF-8"?>
<svg xmlns="http://www.w3.org/2000/svg" xmlns:xlink="http://www.w3.org/1999/xlink" width="16px" height="16px" viewBox="0 0 16 16" version="1.1">
<g id="surface1">
<path style=" stroke:none;fill-rule:evenodd;fill:rgb(9.803922%,77.254903%,99.607843%);fill-opacity:1;" d="M 4 2 L 4 5 L 5 5 L 5 6.652344 C 4.402344 6.859375 4 7.425781 4 8.0625 C 4 8.695312 4.398438 9.261719 5 9.472656 L 5 11 L 4 11 L 4 14 L 7 14 L 7 12.191406 C 8.316406 13.34375 10.117188 13.996094 12 14 L 12 13 C 9.316406 12.996094 6.964844 11.515625 6.230469 9.371094 C 6.703125 9.105469 7 8.605469 7 8.0625 C 7 7.507812 6.691406 7 6.203125 6.738281 C 6.890625 4.539062 9.273438 3.003906 12 3 L 12 2 C 10.121094 2 8.316406 2.648438 7 3.800781 L 7 1.996094 Z M 5 3 L 6 3 L 6 4 L 5 4 Z M 5 12 L 6 12 L 6 13 L 5 13 Z M 5 12 "/>
</g>
</svg>
