<?xml version="1.0" encoding="UTF-8"?>
<svg xmlns="http://www.w3.org/2000/svg" xmlns:xlink="http://www.w3.org/1999/xlink" width="16px" height="16px" viewBox="0 0 16 16" version="1.1">
<g id="surface1">
<path style=" stroke:none;fill-rule:nonzero;fill:rgb(99.607843%,77.254903%,9.803922%);fill-opacity:1;" d="M 2 3 L 2 14 L 14 14 L 14 3 Z M 3 4 L 13 4 L 13 13 L 3 13 Z M 12 2 L 13 2 L 13 3 L 12 3 Z M 3 2 L 4 2 L 4 3 L 3 3 Z M 5 2 L 6 2 L 6 3 L 5 3 Z M 10 2 L 11 2 L 11 3 L 10 3 Z M 10 2 "/>
<path style=" stroke:none;fill-rule:nonzero;fill:rgb(99.607843%,77.254903%,9.803922%);fill-opacity:1;" d="M 4 5 L 12 5 L 12 6 L 4 6 Z M 4 7 L 8 7 L 8 8 L 4 8 Z M 10 11 L 12 11 L 12 12 L 10 12 Z M 4 9 L 10 9 L 10 10 L 4 10 Z M 4 9 "/>
</g>
</svg>
