<?xml version="1.0" encoding="UTF-8"?>
<svg xmlns="http://www.w3.org/2000/svg" xmlns:xlink="http://www.w3.org/1999/xlink" width="16px" height="16px" viewBox="0 0 16 16" version="1.1">
<g id="surface1">
<path style=" stroke:none;fill-rule:nonzero;fill:rgb(49.803922%,50.196081%,50.196081%);fill-opacity:1;" d="M 2.09375 1.660156 C 2.0625 1.660156 2.039062 1.660156 2.027344 1.679688 C 1.546875 2.15625 8.089844 8.164062 8.089844 8.164062 L 10.546875 10.5 C 9.753906 12.34375 12.234375 12.375 12.765625 13.308594 C 13.003906 13.722656 12.714844 14.277344 12.289062 14.304688 C 13.140625 14.589844 14.28125 12.957031 13.9375 12.035156 C 13.527344 10.9375 13.109375 10.464844 12.332031 10.128906 C 12.011719 9.988281 11.191406 9.980469 10.90625 10.140625 L 8.628906 7.628906 C 8.628906 7.628906 3.023438 1.738281 2.09375 1.660156 M 3.128906 7.496094 C 2.910156 7.496094 2.84375 7.808594 2.84375 8.238281 C 2.886719 9.089844 3.421875 11.566406 6.09375 13.375 C 8.34375 14.898438 12.460938 14.347656 12.390625 13.484375 C 11.484375 12.359375 9.972656 13.058594 9.953125 10.371094 C 9.074219 10.378906 8.125 10.238281 8.160156 10.609375 C 8.304688 12.164062 5.847656 11.042969 4.890625 9.460938 C 3.933594 8.007812 3.40625 7.496094 3.128906 7.496094 M 6.636719 9.410156 C 6.488281 9.410156 6.371094 9.457031 6.316406 9.554688 C 6.203125 9.742188 6.386719 10.058594 6.71875 10.25 C 7.054688 10.441406 7.414062 10.441406 7.523438 10.253906 C 7.636719 10.058594 7.453125 9.746094 7.121094 9.554688 C 6.953125 9.460938 6.636719 9.558594 6.636719 9.410156 "/>
</g>
</svg>
