<?xml version="1.0" encoding="UTF-8"?>
<svg xmlns="http://www.w3.org/2000/svg" xmlns:xlink="http://www.w3.org/1999/xlink" width="16px" height="16px" viewBox="0 0 16 16" version="1.1">
<g id="surface1">
<path style=" stroke:none;fill-rule:nonzero;fill:rgb(99.607843%,9.803922%,32.156864%);fill-opacity:1;" d="M 2 3 L 2 13 L 7.898438 13 L 7.898438 12 L 3 12 L 3 11.9375 L 6.90625 8.59375 L 7.65625 9.34375 L 7.898438 9.609375 L 7.898438 8.214844 L 7.6875 8 L 6.109375 8 L 3 10.65625 L 3 4.6875 L 5.328125 7.015625 L 5.671875 5.984375 L 3.6875 4 L 6.335938 4 L 6.664062 3 Z M 8 3 L 8 4 L 12.3125 4 L 10.695312 5.617188 L 10.007812 7.679688 L 13 4.6875 L 13 10.65625 L 9.898438 8.003906 L 9.566406 9 L 13 11.941406 L 13 12.003906 L 8.566406 12.003906 L 8.234375 13.003906 L 14 13.003906 L 14 3.003906 L 13.3125 3.003906 Z M 8 3 "/>
</g>
</svg>
