<?xml version="1.0" encoding="UTF-8"?>
<svg xmlns="http://www.w3.org/2000/svg" xmlns:xlink="http://www.w3.org/1999/xlink" width="16px" height="16px" viewBox="0 0 16 16" version="1.1">
<g id="surface1">
<path style=" stroke:none;fill-rule:nonzero;fill:rgb(49.803922%,50.196081%,50.196081%);fill-opacity:1;" d="M 8 2 C 4.6875 2 2 4.6875 2 8 C 2 11.3125 4.6875 14 8 14 C 11.3125 14 14 11.3125 14 8 C 14 4.6875 11.3125 2 8 2 M 8 3 C 10.761719 3 13 5.238281 13 8 C 13 10.761719 10.761719 13 8 13 C 5.238281 13 3 10.761719 3 8 C 3 5.238281 5.238281 3 8 3 M 8 5 C 6.367188 5.035156 5.066406 6.367188 5.066406 8 C 5.066406 9.632812 6.367188 10.964844 8 11 C 8.945312 11 9.832031 10.554688 10.398438 9.796875 L 9.597656 9.199219 C 9.21875 9.703125 8.628906 10 8 10 C 6.894531 10 6 9.105469 6 8 C 6 6.894531 6.894531 6 8 6 C 8.628906 6 9.222656 6.296875 9.601562 6.800781 L 10.398438 6.203125 C 9.832031 5.445312 8.945312 5 8 5 "/>
</g>
</svg>
