<?xml version="1.0" encoding="UTF-8"?>
<svg xmlns="http://www.w3.org/2000/svg" xmlns:xlink="http://www.w3.org/1999/xlink" width="16px" height="16px" viewBox="0 0 16 16" version="1.1">
<g id="surface1">
<path style=" stroke:none;fill-rule:evenodd;fill:rgb(9.803922%,77.254903%,99.607843%);fill-opacity:1;" d="M 8 2 C 4.6875 2 2 4.6875 2 8 C 2 11.3125 4.6875 14 8 14 C 9.589844 14 11.117188 13.367188 12.238281 12.238281 L 11.535156 11.535156 C 10.105469 12.964844 7.953125 13.394531 6.085938 12.621094 C 4.214844 11.847656 3 10.023438 3 8 C 1.402344 6.398438 1.078125 3.925781 2.210938 1.96875 C 3.339844 0.0117188 5.644531 -0.941406 7.828125 -0.355469 C 10.011719 0.226562 11.53125 2.203125 11.535156 4.464844 L 12.238281 3.761719 C 11.117188 2.632812 9.589844 2 8 2 Z M 8 2 "/>
</g>
</svg>
