<?xml version="1.0" encoding="UTF-8"?>
<svg xmlns="http://www.w3.org/2000/svg" xmlns:xlink="http://www.w3.org/1999/xlink" width="16px" height="16px" viewBox="0 0 16 16" version="1.1">
<g id="surface1">
<path style=" stroke:none;fill-rule:nonzero;fill:rgb(49.803922%,50.196081%,50.196081%);fill-opacity:1;" d="M 5 2.003906 C 3.367188 2.039062 2.066406 3.371094 2.066406 5.003906 C 2.066406 6.632812 3.367188 7.96875 5 8.003906 C 6.632812 7.96875 7.933594 6.632812 7.933594 5.003906 C 7.933594 3.371094 6.632812 2.039062 5 2.003906 M 8 5.003906 C 8.035156 6.632812 9.367188 7.9375 11 7.9375 C 12.632812 7.9375 13.964844 6.632812 14 5.003906 C 13.964844 3.371094 12.632812 2.066406 11 2.066406 C 9.367188 2.066406 8.035156 3.371094 8 5.003906 M 5 3.003906 C 5.898438 3.003906 6.6875 3.601562 6.925781 4.464844 C 7.167969 5.332031 6.804688 6.25 6.035156 6.714844 C 5.265625 7.179688 4.28125 7.070312 3.628906 6.453125 C 4.234375 6.613281 4.878906 6.375 5.238281 5.859375 C 5.597656 5.34375 5.59375 4.660156 5.234375 4.144531 C 4.875 3.628906 4.234375 3.390625 3.625 3.550781 C 3.996094 3.199219 4.488281 3.003906 5 3.003906 M 11 3.003906 C 11.898438 3.003906 12.6875 3.601562 12.925781 4.464844 C 13.167969 5.332031 12.804688 6.25 12.035156 6.714844 C 11.265625 7.179688 10.28125 7.070312 9.628906 6.453125 C 10.234375 6.613281 10.878906 6.375 11.238281 5.859375 C 11.597656 5.34375 11.59375 4.660156 11.234375 4.144531 C 10.875 3.628906 10.234375 3.390625 9.625 3.550781 C 9.996094 3.199219 10.488281 3.003906 11 3.003906 M 12.078125 9.152344 C 11.144531 9.683594 9.621094 10.003906 8 10.003906 C 6.605469 10.003906 5.277344 9.769531 4.328125 9.359375 L 3.703125 10.089844 C 4.085938 10.289062 4.53125 10.445312 5 10.582031 L 5 12.003906 C 5 13.105469 5.894531 14.003906 7 14.003906 C 7.574219 14 8.121094 13.753906 8.5 13.320312 C 8.878906 13.753906 9.425781 14 10 14.003906 C 11.105469 14.003906 12 13.105469 12 12.003906 L 12 10.226562 C 12.261719 10.113281 12.511719 9.980469 12.753906 9.828125 Z M 11 10.578125 L 11 12.003906 C 11 12.554688 10.550781 13.003906 10 13.003906 C 9.449219 13.003906 9 12.554688 9 12.003906 L 9 10.945312 C 9.710938 10.882812 10.378906 10.761719 11 10.578125 M 6 10.816406 C 6.640625 10.929688 7.308594 11.003906 8 11.003906 L 8 12.003906 C 8 12.554688 7.550781 13.003906 7 13.003906 C 6.449219 13.003906 6 12.554688 6 12.003906 Z M 6 10.816406 "/>
</g>
</svg>
