<?xml version="1.0" encoding="UTF-8"?>
<svg xmlns="http://www.w3.org/2000/svg" xmlns:xlink="http://www.w3.org/1999/xlink" width="16px" height="16px" viewBox="0 0 16 16" version="1.1">
<g id="surface1">
<path style=" stroke:none;fill-rule:nonzero;fill:rgb(9.803922%,54.901963%,99.607843%);fill-opacity:1;" d="M 12.5 2 C 12.101562 2 11.71875 2.15625 11.4375 2.4375 C 11.15625 2.71875 11 3.101562 11 3.5 C 11 3.898438 11.15625 4.28125 11.4375 4.5625 C 11.71875 4.84375 12.101562 5 12.5 5 C 12.898438 5 13.28125 4.84375 13.5625 4.5625 C 13.84375 4.28125 14 3.898438 14 3.5 C 14 3.101562 13.84375 2.71875 13.5625 2.4375 C 13.28125 2.15625 12.898438 2 12.5 2 M 7.5 3 C 4.503906 3.058594 2.109375 5.503906 2.109375 8.5 C 2.109375 11.496094 4.503906 13.941406 7.5 14 C 10.539062 14 13 11.539062 13 8.5 C 13 7.210938 12.542969 5.964844 11.714844 4.976562 C 12.085938 5.59375 12.09375 6.363281 11.738281 6.988281 C 11.382812 7.617188 10.71875 8 10 8 C 9.152344 8 8.394531 7.464844 8.113281 6.664062 C 7.828125 5.863281 8.082031 4.972656 8.746094 4.441406 C 9.410156 3.910156 10.332031 3.855469 11.054688 4.304688 C 10.0625 3.460938 8.800781 3 7.5 3 "/>
</g>
</svg>
