<?xml version="1.0" encoding="UTF-8"?>
<svg xmlns="http://www.w3.org/2000/svg" xmlns:xlink="http://www.w3.org/1999/xlink" width="16px" height="16px" viewBox="0 0 16 16" version="1.1">
<g id="surface1">
<path style=" stroke:none;fill-rule:nonzero;fill:rgb(9.803922%,100%,54.901963%);fill-opacity:1;" d="M 3 3 C 2.445312 3 2 3.445312 2 4 L 2 12 C 2 12.554688 2.445312 13 3 13 L 13 13 C 13.554688 13 14 12.554688 14 12 L 14 4 C 14 3.445312 13.554688 3 13 3 Z M 8.5 4 C 8.777344 4 9 4.222656 9 4.5 C 9 4.632812 8.949219 4.761719 8.855469 4.855469 C 8.761719 4.949219 8.632812 5 8.5 5 C 8.367188 5 8.238281 4.949219 8.144531 4.855469 C 8.050781 4.761719 8 4.632812 8 4.5 C 8 4.222656 8.222656 4 8.5 4 M 10.5 4 C 10.777344 4 11 4.222656 11 4.5 C 11 4.632812 10.949219 4.761719 10.855469 4.855469 C 10.761719 4.949219 10.632812 5 10.5 5 C 10.367188 5 10.238281 4.949219 10.144531 4.855469 C 10.050781 4.761719 10 4.632812 10 4.5 C 10 4.222656 10.222656 4 10.5 4 M 12.5 4 C 12.777344 4 13 4.222656 13 4.5 C 13 4.632812 12.949219 4.761719 12.855469 4.855469 C 12.761719 4.949219 12.632812 5 12.5 5 C 12.367188 5 12.238281 4.949219 12.144531 4.855469 C 12.050781 4.761719 12 4.632812 12 4.5 C 12 4.222656 12.222656 4 12.5 4 M 3 6 L 13 6 L 13 12 L 3 12 Z M 3 6 "/>
</g>
</svg>
