<?xml version="1.0" encoding="UTF-8"?>
<svg xmlns="http://www.w3.org/2000/svg" xmlns:xlink="http://www.w3.org/1999/xlink" width="16px" height="16px" viewBox="0 0 16 16" version="1.1">
<g id="surface1">
<path style=" stroke:none;fill-rule:nonzero;fill:rgb(49.803922%,50.196081%,50.196081%);fill-opacity:1;" d="M 2 2 L 2 14 L 9 14 L 9 13 L 6 13 L 6 10 L 9 10 L 9 9 L 6 9 L 6 6 L 10 6 L 10 8 L 11 8 L 11 6 L 13 6 L 13 8 L 14 8 L 14 2 Z M 3 3 L 13 3 L 13 5 L 3 5 Z M 3 6 L 5 6 L 5 9 L 3 9 Z M 11.5 9 C 10.667969 9 10 9.640625 10 10.429688 C 10 11.191406 10.621094 11.804688 11.410156 11.847656 C 11.46875 12.109375 11.5 12.378906 11.5 12.644531 C 11.496094 13.109375 11.410156 13.566406 11.242188 14 C 12.339844 13.265625 12.996094 12.070312 13 10.785156 L 13 10.429688 C 13 9.640625 12.332031 9 11.5 9 M 3 10 L 5 10 L 5 13 L 3 13 Z M 3 10 "/>
</g>
</svg>
