<?xml version="1.0" encoding="UTF-8"?>
<svg xmlns="http://www.w3.org/2000/svg" xmlns:xlink="http://www.w3.org/1999/xlink" width="16px" height="16px" viewBox="0 0 16 16" version="1.1">
<g id="surface1">
<path style=" stroke:none;fill-rule:nonzero;fill:rgb(99.607843%,9.803922%,54.901963%);fill-opacity:1;" d="M 2 2 L 2 14 L 3 14 L 3 10.5 C 3 9.835938 3.261719 9.199219 3.730469 8.730469 C 4.199219 8.261719 4.835938 8 5.5 8 C 6.164062 8 6.800781 8.261719 7.269531 8.730469 C 7.738281 9.199219 8 9.835938 8 10.5 L 8 14 L 9 14 L 9 10.5 C 9.003906 9.570312 8.632812 8.679688 7.976562 8.023438 C 7.320312 7.367188 6.429688 6.996094 5.5 7 C 4.558594 7 3.65625 7.378906 3 8.054688 L 3 2.003906 Z M 8 2 L 8 3 L 7 3 L 7 4 L 8 4 L 8 5 L 9 5 L 9 4 L 10 4 L 10 3 L 9 3 L 9 2 Z M 12 2 L 12 3 L 11 3 L 11 4 L 12 4 L 12 5 L 13 5 L 13 4 L 14 4 L 14 3 L 13 3 L 13 2 Z M 12 2 "/>
</g>
</svg>
