<?xml version="1.0" encoding="UTF-8"?>
<svg xmlns="http://www.w3.org/2000/svg" xmlns:xlink="http://www.w3.org/1999/xlink" width="16px" height="16px" viewBox="0 0 16 16" version="1.1">
<g id="surface1">
<path style=" stroke:none;fill-rule:nonzero;fill:rgb(9.803922%,77.254903%,99.607843%);fill-opacity:1;" d="M 5 3 L 5 5 L 7 5 L 7 3 Z M 8 3 L 8 5 L 10 5 L 10 3 Z M 3 6 L 3 8 L 5 8 L 5 6 Z M 6 6 L 6 8 L 8 8 L 8 6 Z M 9 6 L 9 8 L 11 8 L 11 6 Z M 12.429688 6.234375 C 11.898438 6.597656 11.769531 7.257812 11.9375 7.878906 C 12.105469 8.5 12.527344 8.949219 13.171875 9 C 13.382812 9.609375 13.957031 10.015625 14.601562 10.015625 C 15.246094 10.015625 15.820312 9.605469 16.035156 9 C 15.820312 8.394531 15.246094 7.984375 14.601562 7.984375 C 14.296875 7.988281 13.996094 8.082031 13.742188 8.257812 C 13.84375 7.964844 13.859375 7.652344 13.777344 7.355469 C 13.609375 6.734375 13.070312 6.285156 12.429688 6.234375 Z M 13.171875 9 L 1 9 C 1 12.359375 3.722656 14.070312 7.085938 14.070312 C 10.445312 14.070312 13.167969 12.359375 13.167969 9 Z M 3.523438 9.675781 C 3.828125 9.667969 4.113281 9.824219 4.265625 10.085938 C 4.421875 10.347656 4.421875 10.671875 4.265625 10.933594 C 4.113281 11.195312 3.828125 11.355469 3.523438 11.34375 C 3.074219 11.332031 2.714844 10.960938 2.714844 10.511719 C 2.710938 10.058594 3.070312 9.691406 3.523438 9.675781 Z M 3.523438 9.675781 "/>
</g>
</svg>
