<?xml version="1.0" encoding="UTF-8"?>
<svg xmlns="http://www.w3.org/2000/svg" xmlns:xlink="http://www.w3.org/1999/xlink" width="16px" height="16px" viewBox="0 0 16 16" version="1.1">
<g id="surface1">
<path style=" stroke:none;fill-rule:nonzero;fill:rgb(49.803922%,50.196081%,50.196081%);fill-opacity:1;" d="M 8.488281 10.160156 L 7.101562 8.789062 L 7.121094 8.773438 C 8.042969 7.746094 8.734375 6.53125 9.140625 5.210938 L 10.742188 5.210938 L 10.742188 4.121094 L 6.921875 4.121094 L 6.921875 3.027344 L 5.832031 3.027344 L 5.832031 4.121094 L 2.011719 4.121094 L 2.011719 5.207031 L 8.109375 5.207031 C 7.730469 6.285156 7.144531 7.28125 6.378906 8.132812 C 5.878906 7.578125 5.457031 6.964844 5.117188 6.304688 L 4.027344 6.304688 C 4.433594 7.214844 4.984375 8.050781 5.652344 8.789062 L 2.875 11.53125 L 3.652344 12.304688 L 6.378906 9.578125 L 8.074219 11.273438 Z M 11.558594 7.394531 L 10.46875 7.394531 L 8.015625 13.941406 L 9.105469 13.941406 L 9.714844 12.304688 L 12.308594 12.304688 L 12.925781 13.941406 L 14.015625 13.941406 Z M 10.132812 11.214844 L 11.015625 8.851562 L 11.898438 11.214844 Z M 10.132812 11.214844 "/>
</g>
</svg>
