<?xml version="1.0" encoding="UTF-8"?>
<svg xmlns="http://www.w3.org/2000/svg" xmlns:xlink="http://www.w3.org/1999/xlink" width="16px" height="16px" viewBox="0 0 16 16" version="1.1">
<g id="surface1">
<path style=" stroke:none;fill-rule:nonzero;fill:rgb(9.803922%,54.901963%,99.607843%);fill-opacity:1;" d="M 2 3 L 2 5.21875 C 2.53125 5.222656 3.46875 5.21875 4 5.21875 L 4 10.773438 L 2 10.773438 L 2 12.984375 C 4.109375 12.996094 5.878906 12.996094 8 12.996094 L 8 10.773438 L 6 10.773438 L 6 9.070312 L 8.488281 9.089844 C 8.652344 9.089844 9.363281 9.144531 9.589844 10.183594 C 9.660156 10.503906 9.816406 11.539062 9.921875 11.875 C 10.03125 12.246094 10.464844 12.996094 10.921875 12.996094 C 11.914062 12.988281 13.074219 13 13.996094 13 L 13.996094 10.347656 C 13.863281 10.4375 13.710938 10.492188 13.550781 10.507812 C 13.191406 10.554688 12.789062 10.335938 12.738281 10.082031 C 12.527344 8.710938 12.171875 8.417969 11.609375 7.914062 C 12.308594 7.410156 13.03125 6.660156 13.03125 5.664062 C 13.03125 4.589844 12.386719 3.910156 11.941406 3.578125 C 11.324219 3.109375 10.640625 3.003906 10.457031 3.003906 C 7.628906 3.023438 4.792969 3.003906 1.996094 3.003906 Z M 6 5.21875 L 9 5.21875 C 9.121094 5.21875 10 5.523438 10 6.148438 C 10 6.667969 9.328125 6.949219 8.867188 6.949219 L 6 6.929688 Z M 6 5.21875 "/>
</g>
</svg>
