<?xml version="1.0" encoding="UTF-8"?>
<svg xmlns="http://www.w3.org/2000/svg" xmlns:xlink="http://www.w3.org/1999/xlink" width="16px" height="16px" viewBox="0 0 16 16" version="1.1">
<g id="surface1">
<path style=" stroke:none;fill-rule:nonzero;fill:rgb(99.607843%,9.803922%,9.803922%);fill-opacity:1;" d="M 1.835938 2.070312 L 1.835938 14.070312 L 13.835938 14.070312 L 13.835938 2.070312 Z M 2.835938 3.070312 L 12.835938 3.070312 L 12.835938 13.070312 L 2.835938 13.070312 Z M 3.835938 5.070312 L 3.835938 7.070312 L 5.835938 7.070312 L 5.835938 5.070312 Z M 9.835938 5.070312 L 9.835938 7.070312 L 11.835938 7.070312 L 11.835938 5.070312 Z M 5.835938 9.070312 L 5.835938 10.070312 L 9.835938 10.070312 L 9.835938 9.070312 Z M 9.835938 10.070312 L 9.835938 11.070312 L 10.835938 11.070312 L 10.835938 10.070312 Z M 10.835938 11.070312 L 10.835938 12.070312 L 11.835938 12.070312 L 11.835938 11.070312 Z M 5.835938 10.070312 L 4.835938 10.070312 L 4.835938 11.070312 L 5.835938 11.070312 Z M 4.835938 11.070312 L 3.835938 11.070312 L 3.835938 12.070312 L 4.835938 12.070312 Z M 4.835938 11.070312 "/>
</g>
</svg>
