<?xml version="1.0" encoding="UTF-8"?>
<svg xmlns="http://www.w3.org/2000/svg" xmlns:xlink="http://www.w3.org/1999/xlink" width="16px" height="16px" viewBox="0 0 16 16" version="1.1">
<g id="surface1">
<path style=" stroke:none;fill-rule:nonzero;fill:rgb(49.803922%,50.196081%,50.196081%);fill-opacity:1;" d="M 2 2 L 2 14 L 14 14 L 14 2 L 12 2 L 12 3 L 10 3 L 10 2 L 6 2 L 6 3 L 4 3 L 4 2 Z M 3 5 L 13 5 L 13 13 L 3 13 Z M 4 6 L 4 8 L 6 8 L 6 6 Z M 7 6 L 7 8 L 9 8 L 9 6 Z M 10 6 L 10 8 L 12 8 L 12 6 Z M 7 9 L 7 11 L 9 11 L 9 9 Z M 10 9 L 10 11 L 12 11 L 12 9 Z M 10 9 "/>
</g>
</svg>
