<?xml version="1.0" encoding="UTF-8"?>
<svg xmlns="http://www.w3.org/2000/svg" xmlns:xlink="http://www.w3.org/1999/xlink" width="16px" height="16px" viewBox="0 0 16 16" version="1.1">
<g id="surface1">
<path style=" stroke:none;fill-rule:nonzero;fill:rgb(9.803922%,32.156864%,99.607843%);fill-opacity:1;" d="M 2 2 L 2 14 L 14 14 L 14 2 Z M 5 3 L 11 3 L 11 7 L 5 7 Z M 3 4 L 4 4 L 4 5 L 3 5 Z M 12 4 L 13 4 L 13 5 L 12 5 Z M 3 7.5 L 4 7.5 L 4 8.5 L 3 8.5 Z M 12 7.5 L 13 7.5 L 13 8.5 L 12 8.5 Z M 5 9 L 11 9 L 11 13 L 5 13 Z M 3 11 L 4 11 L 4 12 L 3 12 Z M 12 11 L 13 11 L 13 12 L 12 12 Z M 12 11 "/>
</g>
</svg>
