<?xml version="1.0" encoding="UTF-8"?>
<svg xmlns="http://www.w3.org/2000/svg" xmlns:xlink="http://www.w3.org/1999/xlink" width="16px" height="16px" viewBox="0 0 16 16" version="1.1">
<g id="surface1">
<path style=" stroke:none;fill-rule:nonzero;fill:rgb(99.607843%,9.803922%,32.156864%);fill-opacity:1;" d="M 3.855469 2 C 3.691406 2.011719 3.519531 2 3.328125 2.132812 C 1.625 2.863281 2.765625 4.871094 4.941406 6.402344 C 4.953125 6.113281 5.074219 5.484375 5.070312 5.210938 C 3.214844 3.941406 2.132812 2.707031 3.316406 2.214844 C 4.558594 1.703125 4.945312 3.109375 4.964844 5.15625 C 5.082031 5.277344 5.886719 5.804688 6.007812 5.890625 C 5.964844 4.027344 4.972656 2.121094 4.015625 2.015625 C 3.964844 2.003906 3.910156 2.003906 3.855469 2.003906 M 5.589844 5.25 L 5.203125 5.101562 L 4.878906 5.316406 L 4.816406 5.996094 L 5.222656 6.308594 L 5.390625 6.535156 C 6.640625 7.359375 7.707031 8 9.109375 8.527344 L 9.984375 8.65625 L 10.558594 8.65625 C 11.089844 8.34375 10.769531 8.226562 12.695312 7.984375 L 10.527344 8.152344 C 8.851562 7.503906 7.144531 6.574219 5.589844 5.558594 M 9.410156 8.273438 C 9.660156 8.273438 11.621094 8.101562 12.398438 8.03125 C 13.171875 7.910156 14.117188 7.875 13.9375 8.773438 C 14.140625 8.292969 13.675781 7.480469 13.015625 7.335938 C 11.996094 7.109375 10.371094 7.734375 9.789062 7.925781 M 10.730469 8.171875 C 10.425781 8.292969 9.730469 8.378906 9.402344 8.488281 C 9.867188 8.730469 12.203125 9.589844 13.164062 9.410156 C 13.320312 9.410156 13.972656 8.941406 13.984375 8.605469 C 13.9375 9.21875 11.082031 8.761719 10.730469 8.160156 M 11.363281 8.171875 C 11.113281 8.054688 9.941406 8.058594 9.683594 7.964844 C 8.214844 8.472656 6.246094 9.679688 4.832031 10.488281 L 4.421875 10.609375 C 4.34375 11.171875 4 11.363281 3.683594 11.726562 L 4.164062 12.207031 L 4.535156 11.59375 C 6.191406 10.597656 9.457031 8.988281 11.363281 8.214844 M 4.535156 11.59375 C 4.339844 11.710938 4.148438 11.828125 3.957031 11.953125 C 3.535156 13.15625 3.039062 13.964844 2.566406 13.929688 C 3.296875 14.277344 4.867188 12.5625 5.394531 10.949219 M 2.566406 13.929688 C 1.457031 13.269531 3.808594 12.070312 4.339844 11.714844 C 4.457031 11.382812 4.132812 10.824219 4.238281 10.429688 C 2.578125 11.460938 1.59375 12.953125 2.152344 13.660156 C 2.289062 13.828125 2.429688 13.914062 2.566406 13.925781 M 4.183594 11.410156 C 4.261719 11.101562 5.289062 10.398438 5.472656 10.289062 C 5.722656 8.339844 5.734375 8.148438 5.941406 6.632812 C 5.816406 6.511719 5.042969 5.90625 4.921875 5.824219 C 4.773438 7.441406 4.496094 9.636719 4.097656 11.105469 "/>
</g>
</svg>
