<svg xmlns="http://www.w3.org/2000/svg" xmlns:xlink="http://www.w3.org/1999/xlink" width="48" height="48">
  <defs id="acyl-settings">
    <linearGradient id="acyl-gradient" x1="0%" x2="0%" y1="0%" y2="100%">
      <stop offset="100%" style="stop-color:#404040;stop-opacity:1.000000"/>
    </linearGradient>
    <g id="acyl-filter">
  </g>
    <g id="acyl-drawing">
      <path d="M 24 2 A 22 22 0 0 0 2 24 A 22 22 0 0 0 24 46 A 22 22 0 0 0 46 24 A 22 22 0 0 0 24 2 z M 28.59 9.471 C 33.31 9.471 37.72 14.2 37.02 19.77 C 36.61 22.98 35.4 25.89 33.48 27.79 L 33.48 28.59 C 33.48 29.12 33.7 29.37 34.2 29.67 C 34.7 29.98 35.48 30.23 36.3 30.46 C 37.1 30.69 37.95 30.94 38.67 31.35 C 39.38 31.76 40 32.48 40 33.42 L 40 34.02 L 39.38 34.02 L 30.85 34.02 C 30.88 34.02 30.88 34.12 30.98 34.12 C 31.63 34.51 32.08 35.05 32.08 35.83 L 32.08 36 L 31.91 36 L 10.17 36 L 10 36 L 10 35.83 C 10 34.99 10.44 34.39 11.07 33.97 C 11.69 33.55 12.52 33.29 13.35 33.06 C 14.17 32.81 15 32.59 15.63 32.26 C 16.27 31.95 16.7 31.56 16.82 30.97 L 16.82 29.99 C 14.86 28.24 13.59 25.33 13.34 22.11 C 12.92 16.89 16.82 12.5 21.14 12.5 C 21.56 12.5 21.98 12.52 22.38 12.62 C 23.96 10.71 26.2 9.49 28.59 9.49 L 28.59 9.471 z M 28.59 10.73 C 26.79 10.73 25.03 11.6 23.71 13.02 C 26.93 14.33 29.45 17.94 28.93 22.11 C 28.54 25.22 27.38 28.04 25.58 29.81 L 25.58 30.99 C 25.58 31.69 25.93 32.12 26.51 32.48 C 26.72 32.62 26.99 32.73 27.26 32.83 L 38.54 32.83 C 38.42 32.69 38.27 32.56 38.05 32.44 C 37.55 32.14 36.76 31.91 35.95 31.67 C 35.13 31.43 34.28 31.19 33.57 30.77 C 32.85 30.33 32.25 29.59 32.25 28.61 L 32.25 27.58 L 32.25 27.32 L 32.45 27.13 C 34.19 25.52 35.4 22.75 35.78 19.64 C 36.4 14.8 32.47 10.73 28.59 10.73 z" id="path-main"/>
    </g>
  </defs>
  <g id="acyl-visual">
    <use id="visible1" style="fill:url(#acyl-gradient)" xlink:href="#acyl-drawing"/>
  </g>
</svg>
