<svg xmlns="http://www.w3.org/2000/svg" xmlns:xlink="http://www.w3.org/1999/xlink" width="48" height="48">
  <defs id="acyl-settings">
    <linearGradient id="acyl-gradient" x1="0%" x2="0%" y1="0%" y2="100%">
      <stop offset="100%" style="stop-color:#404040;stop-opacity:1.000000"/>
    </linearGradient>
    <g id="acyl-filter">
  </g>
    <g id="acyl-drawing">
      <path d="M 24 2 A 22 22 0 0 0 2 24 A 22 22 0 0 0 24 46 A 22 22 0 0 0 46 24 A 22 22 0 0 0 24 2 z M 11.62 14.46 L 11.69 14.46 L 16.49 14.46 C 16.96 14.46 17.34 14.85 17.34 15.3 L 17.34 16.21 L 37.32 16.21 C 38.26 16.21 39 16.96 39 17.88 L 39 31.85 C 39 32.78 38.26 33.53 37.32 33.53 L 10.68 33.53 C 9.741 33.53 9 32.78 9 31.85 L 9 17.88 C 9 16.97 9.703 16.21 10.59 16.21 L 10.83 16.21 L 10.83 15.3 C 10.83 14.85 11.17 14.46 11.62 14.46 z M 32.72 17.39 C 32.51 17.39 32.36 17.55 32.36 17.76 L 32.36 19.85 C 32.36 20.07 32.54 20.24 32.75 20.24 L 36.96 20.24 C 37.16 20.24 37.34 20.07 37.34 19.85 L 37.34 17.76 C 37.34 17.54 37.16 17.39 36.96 17.39 L 32.75 17.39 L 32.72 17.39 z M 23.83 18.77 C 20.55 18.91 17.9 21.56 17.9 24.87 C 17.9 28.24 20.63 30.96 24 30.96 C 27.37 30.96 30.09 28.24 30.09 24.87 C 30.09 21.5 27.37 18.77 24 18.77 L 23.86 18.77 L 23.83 18.77 z M 24.03 20.94 C 26.18 20.94 27.96 22.69 27.96 24.87 C 27.96 27.04 26.18 28.8 24.03 28.8 C 21.85 28.8 20.08 27.04 20.08 24.87 C 20.08 22.69 21.85 20.94 24.03 20.94 z" id="path-main"/>
    </g>
  </defs>
  <g id="acyl-visual">
    <use id="visible1" style="fill:url(#acyl-gradient)" xlink:href="#acyl-drawing"/>
  </g>
</svg>
