<svg xmlns="http://www.w3.org/2000/svg" xmlns:xlink="http://www.w3.org/1999/xlink" width="48" height="48">
  <defs id="acyl-settings">
    <linearGradient id="acyl-gradient" x1="0%" x2="0%" y1="0%" y2="100%">
      <stop offset="100%" style="stop-color:#404040;stop-opacity:1.000000"/>
    </linearGradient>
    <g id="acyl-filter">
  </g>
    <g id="acyl-drawing">
      <path d="M 24 2 A 22 22 0 0 0 2 24 A 22 22 0 0 0 24 46 A 22 22 0 0 0 46 24 A 22 22 0 0 0 24 2 z M 25.82 8 C 29.46 8.44 32.73 10.04 35.34 12.58 C 36.07 13.31 36.73 14.04 37.24 14.91 L 35.78 14.91 L 34.11 14.91 L 31.71 14.91 C 30.98 13.46 30.04 12.07 28.94 10.84 C 28 9.82 26.91 8.941 25.82 8.141 L 25.92 8.141 L 25.82 8 z M 21.82 8.07 C 21.82 8.17 21.82 8.17 21.92 8.17 C 20.76 8.9 19.73 9.849 18.79 10.86 C 17.63 12.1 16.69 13.49 16.03 14.86 L 10.76 14.86 C 11.35 14.04 12 13.31 12.66 12.58 C 15.2 10.04 18.33 8.51 21.82 8.07 z M 24.58 9.529 C 25.67 10.26 26.69 11.06 27.64 12.07 C 28.44 12.94 29.09 13.89 29.67 14.84 L 24.58 14.84 L 24.58 9.529 z M 22.91 9.67 L 22.91 14.91 L 18.04 14.91 C 18.62 13.96 19.34 12.94 20.07 12.14 C 20.94 11.2 21.89 10.33 22.91 9.67 z M 9.746 16.58 L 15.2 16.58 C 14.4 18.69 13.89 20.87 13.82 23.13 L 11.49 23.13 L 9.891 23.13 L 8 23.13 C 8.146 20.8 8.727 18.62 9.746 16.58 z M 17.16 16.58 L 22.91 16.58 L 22.91 23.13 L 20 23.13 L 18.33 23.13 L 15.64 23.13 C 15.78 20.87 16.29 18.69 17.16 16.58 z M 24.58 16.58 L 30.54 16.58 C 31.42 18.62 31.93 20.87 32.07 23.13 L 24.58 23.13 L 24.58 16.58 z M 32.44 16.58 L 34.11 16.58 L 35.78 16.58 L 38.26 16.58 C 39.27 18.62 39.86 20.8 40 23.13 L 37.89 23.13 L 36.22 23.13 L 33.89 23.13 C 33.74 20.87 33.31 18.69 32.44 16.58 z M 8 24.8 L 9.891 24.8 L 11.49 24.8 L 13.82 24.8 C 13.92 26.98 14.26 29.09 15.06 31.13 L 9.6 31.13 C 8.654 29.16 8.146 26.98 8 24.8 z M 15.64 24.8 L 18.33 24.8 L 20 24.8 L 22.91 24.8 L 22.91 31.13 L 17.02 31.13 C 16.14 29.16 15.71 26.98 15.64 24.8 z M 24.58 24.8 L 32 24.8 C 31.9 26.98 31.49 29.09 30.62 31.13 L 27.86 31.13 L 26.18 31.13 L 24.58 31.13 L 24.58 24.8 z M 33.89 24.8 L 36.22 24.8 L 37.89 24.8 L 40 24.8 C 39.9 26.98 39.34 29.16 38.4 31.13 L 32.66 31.13 C 33.38 29.09 33.82 26.98 33.89 24.8 z M 31.86 32.77 L 37.38 32.77 C 36.8 33.73 36.07 34.61 35.34 35.41 C 32.8 37.95 29.46 39.55 25.96 39.99 L 25.96 40 C 25.86 40 25.82 39.9 25.82 39.9 C 26.91 39.1 28 38.23 28.94 37.21 C 30.18 35.83 31.13 34.37 31.86 32.77 z M 10.62 32.8 L 15.78 32.8 C 16.58 34.4 17.53 35.86 18.76 37.16 C 19.71 38.26 20.73 39.13 21.89 39.93 L 21.79 39.93 C 18.32 39.49 15.19 37.96 12.65 35.42 L 12.66 35.42 C 11.86 34.62 11.2 33.74 10.62 32.8 z M 17.82 32.8 L 22.91 32.8 L 22.91 38.47 C 21.89 37.74 20.94 36.94 20.07 35.93 C 19.2 35.06 18.47 33.96 17.82 32.8 z M 24.58 32.8 L 26.18 32.8 L 27.86 32.8 L 29.82 32.8 C 29.24 33.96 28.44 34.98 27.56 35.93 C 26.69 36.94 25.67 37.89 24.58 38.54 L 24.58 32.8 z" id="path-main"/>
    </g>
  </defs>
  <g id="acyl-visual">
    <use id="visible1" style="fill:url(#acyl-gradient)" xlink:href="#acyl-drawing"/>
  </g>
</svg>
