<svg xmlns="http://www.w3.org/2000/svg" xmlns:xlink="http://www.w3.org/1999/xlink" width="48" height="48">
  <defs id="acyl-settings">
    <linearGradient id="acyl-gradient" x1="0%" x2="0%" y1="0%" y2="100%">
      <stop offset="100%" style="stop-color:#404040;stop-opacity:1.000000"/>
    </linearGradient>
    <g id="acyl-filter">
  </g>
    <g id="acyl-drawing">
      <path d="M 24.23 2.188 A 22 22 0 0 0 2.234 24.2 A 22 22 0 0 0 24.23 46.19 A 22 22 0 0 0 46.23 24.2 A 22 22 0 0 0 24.23 2.188 z M 24.3 9.787 L 35.35 9.797 L 35.63 9.936 C 35.98 10.11 36.31 10.44 36.49 10.8 L 36.63 11.08 L 36.63 23.99 L 36.63 36.9 L 36.48 37.2 C 36.31 37.55 35.97 37.88 35.62 38.06 L 35.34 38.2 L 26.2 38.2 L 17.07 38.2 L 14.42 35.55 L 11.76 32.9 L 11.76 22.09 C 11.76 12.25 11.76 11.25 11.86 11.01 C 12.05 10.46 12.45 10.05 13 9.863 C 13.22 9.782 14.36 9.775 24.3 9.787 z M 15.34 13.34 L 15.34 21.34 L 15.34 29.33 L 17.72 29.33 C 20.03 29.35 20.11 29.35 20.26 29.46 C 20.34 29.52 20.42 29.63 20.52 29.73 C 20.66 29.88 20.66 29.95 20.66 32.27 L 20.66 34.65 L 26.88 34.65 L 33.1 34.65 L 33.1 23.99 L 33.11 13.34 L 24.22 13.34 L 15.34 13.34 z M 24.29 15.42 C 30.74 15.42 30.77 15.42 30.92 15.52 C 31.3 15.72 31.3 15.73 31.3 16.68 C 31.3 17.64 31.3 17.65 30.92 17.85 C 30.77 17.95 30.75 17.95 24.22 17.95 C 17.7 17.95 17.68 17.95 17.53 17.85 C 17.13 17.65 17.13 17.61 17.13 16.79 L 17.13 15.9 C 17.17 15.75 17.4 15.57 17.63 15.47 L 17.64 15.52 C 17.78 15.42 18.99 15.42 24.29 15.42 z M 24.29 20.34 C 30.74 20.34 30.77 20.34 30.92 20.44 C 31.3 20.64 31.3 20.65 31.3 21.6 C 31.3 22.56 31.3 22.57 30.92 22.77 C 30.77 22.87 30.75 22.87 24.22 22.87 C 17.7 22.87 17.68 22.87 17.53 22.77 C 17.13 22.57 17.13 22.53 17.13 21.71 L 17.13 20.82 C 17.17 20.67 17.4 20.49 17.63 20.39 L 17.64 20.44 C 17.78 20.34 18.99 20.34 24.29 20.34 z M 24.28 25.27 C 30.73 25.27 30.73 25.27 30.92 25.37 C 31.3 25.57 31.3 25.58 31.3 26.53 C 31.3 27.49 31.3 27.5 30.92 27.7 C 30.78 27.8 30.73 27.8 24.22 27.8 C 17.72 27.8 17.7 27.8 17.52 27.7 C 17.13 27.5 17.13 27.46 17.13 26.64 L 17.13 25.75 C 17.17 25.6 17.41 25.42 17.62 25.32 L 17.64 25.37 C 17.78 25.27 18.99 25.27 24.28 25.27 z M 26.94 30.19 C 30.95 30.19 30.95 30.19 31.06 30.29 C 31.3 30.49 31.3 30.5 31.3 31.45 C 31.3 32.41 31.3 32.42 31.06 32.62 C 30.98 32.72 30.95 32.72 26.9 32.72 C 22.86 32.72 22.85 32.72 22.74 32.62 C 22.5 32.42 22.5 32.38 22.5 31.56 L 22.5 30.67 C 22.52 30.52 22.67 30.34 22.81 30.24 L 22.82 30.29 C 22.9 30.19 23.65 30.19 26.94 30.19 z" id="path-main"/>
    </g>
  </defs>
  <g id="acyl-visual">
    <use id="visible1" style="fill:url(#acyl-gradient)" xlink:href="#acyl-drawing"/>
  </g>
</svg>
