<svg xmlns="http://www.w3.org/2000/svg" xmlns:xlink="http://www.w3.org/1999/xlink" width="48" height="48">
  <defs id="acyl-settings">
    <linearGradient id="acyl-gradient" x1="0%" x2="0%" y1="0%" y2="100%">
      <stop offset="100%" style="stop-color:#404040;stop-opacity:1.000000"/>
    </linearGradient>
    <g id="acyl-filter">
  </g>
    <g id="acyl-drawing">
      <path d="M 24,2 C 11.849736,2 2,11.850322 2,24 2,36.149679 11.849736,46 24,46 36.150264,46 46,36.14968 46,24 46,11.850321 36.150264,2 24,2 z m -7.5625,15.099738 c 5.328688,0 10.743959,-0.0447 16.098958,0.02887 0.418324,0.05838 0.790185,0.297828 0.973959,0.664042 l 7.21875,4.908136 c 0.459706,0.438915 0.53951,1.154533 0.171875,1.674541 -0.36763,0.520008 -1.072779,0.672336 -1.632813,0.375328 L 33.625,20.910761 l 0,10.913386 c -0.0014,0.704547 -0.563085,1.268973 -1.260417,1.270341 l -15.755208,0 c -0.697332,-0.0014 -1.259064,-0.565795 -1.260417,-1.270341 l 0,-10.942257 -5.8151038,3.95538 C 9.1802879,25.23444 8.6220327,25.379763 8.1302083,25.183727 7.638384,24.987691 7.318065,24.505216 7.328125,23.971129 7.338185,23.437041 7.6600033,22.964392 8.1588542,22.787402 l 7.3906248,-5.081365 c 0.187242,-0.317278 0.504511,-0.54533 0.888021,-0.606299 z m 1.460938,2.540682 0,10.913386 13.205729,0 0,-10.913386 -13.205729,0 z" id="path-main"/>
    </g>
  </defs>
  <g id="acyl-visual">
    <use id="visible1" style="fill:url(#acyl-gradient)" xlink:href="#acyl-drawing"/>
  </g>
</svg>
