<svg xmlns="http://www.w3.org/2000/svg" xmlns:xlink="http://www.w3.org/1999/xlink" width="48" height="48">
  <defs id="acyl-settings">
    <linearGradient id="acyl-gradient" x1="0%" x2="0%" y1="0%" y2="100%">
      <stop offset="100%" style="stop-color:#404040;stop-opacity:1.000000"/>
    </linearGradient>
    <g id="acyl-filter">
  </g>
    <g id="acyl-drawing">
      <path d="M 24 2 A 22 22 0 0 0 2 24 A 22 22 0 0 0 24 46 A 22 22 0 0 0 46 24 A 22 22 0 0 0 24 2 z M 26 7 C 26.81 7.094 27.63 7.236 28.44 7.453 C 29.24 7.671 30.02 7.954 30.77 8.275 L 29.88 12.81 C 31.19 13.49 32.32 14.37 33.28 15.41 L 37.45 13.39 C 38.78 14.86 39.4 15.81 39.91 17.66 L 36.09 20.25 C 36.51 21.61 36.74 23.03 36.64 24.49 L 41 26 C 40.91 26.8 40.76 27.62 40.55 28.43 C 40.33 29.23 40.05 30.02 39.73 30.76 L 35.19 29.88 C 34.51 31.19 33.63 32.32 32.59 33.28 L 34.61 37.45 C 33.14 38.78 32.23 39.31 30.34 39.91 L 27.75 36.09 C 26.39 36.51 24.96 36.74 23.51 36.64 L 22 41 C 21.19 40.91 20.37 40.76 19.56 40.55 C 18.76 40.33 17.98 40.05 17.23 39.73 L 18.12 35.19 C 16.81 34.51 15.68 33.63 14.72 32.59 L 10.55 34.61 C 9.22 33.14 8.691 32.23 8.086 30.34 L 11.91 27.74 C 11.49 26.38 11.26 24.96 11.36 23.5 L 7 22 C 7.094 21.19 7.236 20.37 7.453 19.56 C 7.671 18.76 7.954 17.98 8.275 17.23 L 12.81 18.11 C 13.49 16.81 14.37 15.68 15.41 14.71 L 13.39 10.55 C 14.86 9.211 15.77 8.681 17.66 8.086 L 20.25 11.91 C 21.61 11.49 23.04 11.26 24.49 11.36 L 26 7 z M 24.22 20.28 C 22.49 20.18 20.87 21.29 20.41 23.03 C 19.87 25.02 21.04 27.06 23.04 27.59 C 25.02 28.13 27.07 26.95 27.59 24.96 C 28.13 22.98 26.96 20.93 24.96 20.4 C 24.71 20.33 24.46 20.29 24.22 20.28 z" id="path-main"/>
    </g>
  </defs>
  <g id="acyl-visual">
    <use id="visible1" style="fill:url(#acyl-gradient)" xlink:href="#acyl-drawing"/>
  </g>
</svg>
