<svg xmlns="http://www.w3.org/2000/svg" xmlns:xlink="http://www.w3.org/1999/xlink" width="48" height="48">
  <defs id="acyl-settings">
    <linearGradient id="acyl-gradient" x1="0%" x2="0%" y1="0%" y2="100%">
      <stop offset="100%" style="stop-color:#404040;stop-opacity:1.000000"/>
    </linearGradient>
    <g id="acyl-filter">
  </g>
    <g id="acyl-drawing">
      <path d="M 24 2 A 22 22 0 0 0 2 24 A 22 22 0 0 0 24 46 A 22 22 0 0 0 46 24 A 22 22 0 0 0 24 2 z M 25.41 10.28 C 25.73 10.28 25.99 10.52 25.99 10.87 L 25.99 37.12 C 25.99 37.7 25.35 37.94 24.76 37.45 L 16.06 30.23 C 15.67 29.95 15.51 29.85 14.97 29.85 L 9.379 29.85 C 8.613 29.85 7.998 29.24 7.998 28.47 L 7.998 19.53 C 7.998 18.76 8.613 18.15 9.379 18.15 L 14.97 18.15 C 15.51 18.15 15.67 18.09 16.06 17.77 L 24.76 10.54 C 24.98 10.38 25.21 10.28 25.41 10.28 z M 36.57 12.91 L 36.58 12.91 L 36.57 12.92 C 41.15 19.6 41.15 28.42 36.57 35.1 L 34.53 33.07 C 38.06 27.56 38.06 20.48 34.53 14.96 L 36.57 12.92 C 36.57 12.91 36.57 12.91 36.57 12.91 z M 31.61 17.85 L 31.63 17.85 L 31.62 17.86 C 34.53 21.44 34.52 26.58 31.61 30.16 L 29.61 28.15 C 31.45 25.69 31.45 22.35 29.61 19.88 L 31.62 17.86 C 31.62 17.86 31.61 17.85 31.61 17.85 z" id="path-main"/>
    </g>
  </defs>
  <g id="acyl-visual">
    <use id="visible1" style="fill:url(#acyl-gradient)" xlink:href="#acyl-drawing"/>
  </g>
</svg>
