<svg xmlns="http://www.w3.org/2000/svg" xmlns:xlink="http://www.w3.org/1999/xlink" width="48" height="48">
  <defs id="acyl-settings">
    <linearGradient id="acyl-gradient" x1="0%" x2="0%" y1="0%" y2="100%">
      <stop offset="100%" style="stop-color:#404040;stop-opacity:1.000000"/>
    </linearGradient>
    <g id="acyl-filter">
  </g>
    <g id="acyl-drawing">
      <path d="M 24 2 A 22 22 0 0 0 2 24 A 22 22 0 0 0 24 46 A 22 22 0 0 0 46 24 A 22 22 0 0 0 24 2 z M 13.76 8.473 C 17.86 9.763 18.19 13.43 20.38 16.62 C 22.39 15.22 24.84 14.41 27.48 14.41 C 34.4 14.41 40 20.01 40 26.94 C 40 33.85 34.4 39.45 27.48 39.45 C 25.01 39.45 22.7 38.72 20.76 37.49 C 20.58 37.85 20.31 38.29 19.92 38.76 C 19.61 39.12 19.26 39.38 18.86 39.48 C 18.46 39.57 18.06 39.52 17.71 39.38 C 17.02 39.11 16.45 38.55 15.88 37.99 C 15.4 37.51 14.52 36.91 13.67 36.66 C 12.83 36.41 12.13 36.44 11.6 37.06 L 10.75 36.32 C 11.4 35.57 12.29 35.33 13.16 35.43 C 13.44 35.45 13.73 35.48 14 35.58 C 15.08 35.91 16.06 36.58 16.68 37.19 C 17.22 37.73 17.75 38.18 18.13 38.28 C 18.32 38.38 18.46 38.38 18.59 38.38 C 18.71 38.35 18.87 38.26 19.06 38.03 C 19.46 37.55 19.69 37.14 19.82 36.83 C 16.86 34.54 14.97 30.95 14.97 26.93 C 14.97 22.71 17.05 18.98 20.25 16.71 C 16.54 14.21 17.06 12.24 15.28 11.91 L 15.28 20.9 C 15.28 22 13.65 22.88 11.64 22.88 C 9.628 22.88 7.998 22 7.998 20.9 C 7.998 19.81 9.628 18.93 11.64 18.93 C 12.44 18.93 13.16 19.06 13.76 19.3 L 13.76 11.44 L 13.76 8.473 z M 25.41 16.33 C 23.58 16.33 22.09 17.81 22.09 19.65 C 22.09 21.47 23.58 22.95 25.41 22.95 C 27.23 22.95 28.72 21.47 28.72 19.65 C 28.72 17.81 27.23 16.33 25.41 16.33 z M 33.39 18.87 C 32.97 18.87 32.52 18.95 32.1 19.14 C 30.44 19.84 29.63 21.78 30.34 23.47 C 31.05 25.13 32.99 25.94 34.67 25.23 C 36.33 24.53 37.15 22.58 36.43 20.9 C 35.9 19.64 34.68 18.87 33.39 18.87 z M 19.79 23.71 C 18.38 23.77 17.1 24.73 16.72 26.16 C 16.24 27.92 17.28 29.74 19.05 30.21 C 20.81 30.69 22.62 29.65 23.1 27.89 C 23.58 26.13 22.55 24.31 20.78 23.83 C 20.45 23.71 20.12 23.71 19.79 23.71 z M 27.48 25.67 C 26.79 25.67 26.22 26.23 26.22 26.93 C 26.22 27.62 26.79 28.18 27.48 28.18 C 28.17 28.18 28.73 27.62 28.73 26.93 C 28.73 26.23 28.17 25.67 27.48 25.67 z M 34.09 27.49 C 33.24 27.46 32.38 27.76 31.71 28.39 C 30.39 29.65 30.33 31.73 31.58 33.06 C 32.84 34.39 34.93 34.45 36.26 33.19 C 37.59 31.94 37.65 29.85 36.39 28.52 C 35.77 27.86 34.93 27.49 34.09 27.49 z M 25.87 31.02 C 24.7 31.03 23.56 31.67 22.97 32.77 C 22.12 34.39 22.73 36.39 24.34 37.24 C 25.96 38.11 27.95 37.49 28.81 35.88 C 29.67 34.27 29.06 32.26 27.45 31.41 C 26.94 31.14 26.4 31.02 25.87 31.02 z" id="path-main"/>
    </g>
  </defs>
  <g id="acyl-visual">
    <use id="visible1" style="fill:url(#acyl-gradient)" xlink:href="#acyl-drawing"/>
  </g>
</svg>
