<svg xmlns="http://www.w3.org/2000/svg" xmlns:xlink="http://www.w3.org/1999/xlink" width="48" height="48">
  <defs id="acyl-settings">
    <linearGradient id="acyl-gradient" x1="0%" x2="0%" y1="0%" y2="100%">
      <stop offset="100%" style="stop-color:#404040;stop-opacity:1.000000"/>
    </linearGradient>
    <g id="acyl-filter">
  </g>
    <g id="acyl-drawing">
      <path id="path-main" d="M 24.014332,2 C 11.872453,2 1.9999972,11.872444 2,24.014332 2,36.15622 11.872455,45.999972 24.014332,46 36.156211,46 46,36.156221 46,24.014332 46.000001,11.872443 36.156208,2.0000282 24.014332,2 z m -0.08599,5.7615635 0.773941,0 c 5.293921,0 9.05798,3.0187815 9.057981,8.3127035 l 0,4.52899 1.519218,0 c 1.51255,0 2.264496,0.751947 2.264495,2.264495 l 0,12.870359 c 0,0.741394 -0.755725,2.257346 -1.97785,2.264495 l -22.214984,0 c -1.51255,0 -2.264495,-1.5231 -2.264495,-2.264495 l 0,-12.870359 c 0,-1.512548 0.751945,-2.264495 2.264495,-2.264495 l 1.519218,0 0,-4.52899 c 0,-5.162403 3.764057,-8.3127034 9.057981,-8.3127035 z m 0,3.7837135 c -5.293923,0 -5.274268,4.535659 -5.274267,6.048208 l 0,3.009772 11.322475,0 0,-3.009772 c 0,-1.512549 0.01966,-6.048208 -5.274267,-6.048208 l -0.773941,0 z"/>
    </g>
  </defs>
  <g id="acyl-visual">
    <use id="visible1" style="fill:url(#acyl-gradient)" xlink:href="#acyl-drawing"/>
  </g>
</svg>
