<svg xmlns="http://www.w3.org/2000/svg" xmlns:xlink="http://www.w3.org/1999/xlink" width="48" height="48">
  <defs id="acyl-settings">
    <linearGradient id="acyl-gradient" x1="0%" x2="0%" y1="0%" y2="100%">
      <stop offset="100%" style="stop-color:#404040;stop-opacity:1.000000"/>
    </linearGradient>
    <g id="acyl-filter">
  </g>
    <g id="acyl-drawing">
      <path d="M 24 2 A 22 22 0 0 0 2 24.01 A 22 22 0 0 0 24 46 A 22 22 0 0 0 46 24.01 A 22 22 0 0 0 24 2 z M 9.721 12.56 L 38.28 12.56 A 1.134 1.134 0 0 1 39.41 13.69 L 39.41 34.3 A 1.134 1.134 0 0 1 38.28 35.43 L 9.721 35.43 A 1.134 1.134 0 0 1 8.586 34.3 L 8.586 13.69 A 1.134 1.134 0 0 1 9.721 12.56 z M 10.85 14.82 L 10.85 33.17 L 37.15 33.17 L 37.15 14.82 L 10.85 14.82 z M 13.15 16.81 L 15.29 16.81 C 15.47 16.81 15.65 16.99 15.65 17.19 L 15.65 19.3 C 15.65 19.5 15.47 19.68 15.29 19.68 L 13.15 19.68 C 12.91 19.68 12.8 19.5 12.8 19.3 L 12.8 17.19 C 12.8 16.99 12.91 16.81 13.15 16.81 z M 18.38 18.21 L 30.62 18.21 C 30.87 18.21 31.11 18.35 31.11 18.53 L 31.11 22.17 L 34.63 22.17 C 34.87 22.17 35.05 22.3 35.05 22.48 L 35.05 29.78 C 35.05 29.94 34.87 30.1 34.63 30.1 L 22.31 30.1 C 22.07 30.1 21.83 29.94 21.83 29.78 L 21.83 26.14 L 18.38 26.14 C 18.07 26.14 17.89 25.99 17.89 25.81 L 17.89 18.53 C 17.89 18.35 18.07 18.21 18.38 18.21 z M 13.15 20.82 L 15.29 20.82 C 15.47 20.82 15.65 20.98 15.65 21.19 L 15.65 23.31 C 15.65 23.53 15.47 23.68 15.29 23.68 L 13.15 23.68 C 12.91 23.68 12.8 23.53 12.8 23.31 L 12.8 21.19 C 12.8 20.98 12.91 20.82 13.15 20.82 z" id="path-main"/>
    </g>
  </defs>
  <g id="acyl-visual">
    <use id="visible1" style="fill:url(#acyl-gradient)" xlink:href="#acyl-drawing"/>
  </g>
</svg>
