<svg xmlns="http://www.w3.org/2000/svg" xmlns:xlink="http://www.w3.org/1999/xlink" width="48" height="48">
  <defs id="acyl-settings">
    <linearGradient id="acyl-gradient" x1="0%" x2="0%" y1="0%" y2="100%">
      <stop offset="100%" style="stop-color:#404040;stop-opacity:1.000000"/>
    </linearGradient>
    <g id="acyl-filter">
  </g>
    <g id="acyl-drawing">
      <path id="path-main" d="M 23.985668,2 C 11.83472,2 2,11.845937 2,24 2,36.154062 11.83472,46 23.985668,46 36.136616,46 45.999999,36.154061 46,24 46,11.845937 36.136616,2 23.985668,2 z m -9.889251,9.726316 c 0.08835,-0.01513 0.168954,-0.02082 0.25798,0 L 39.235179,17.4 c 0.329141,0.118481 0.53981,0.467321 0.458632,0.810526 l -2.952443,13.142106 0,2.518421 c 10e-4,0.184567 -0.07142,0.361595 -0.200651,0.492105 -0.129236,0.13051 -0.304533,0.203654 -0.487297,0.202631 l -25.454071,0 C 10.229775,34.55221 9.9377768,34.244514 9.9400651,33.871053 l 0,-15.718421 c -0.00228,-0.373461 0.2897099,-0.681161 0.6592839,-0.694737 l 1.777198,0 1.175245,-5.210527 c 0.0392,-0.180275 0.132163,-0.335634 0.286644,-0.43421 0.07724,-0.04929 0.169632,-0.07171 0.257981,-0.08684 z m 0.630619,1.505263 -0.945929,4.226316 19.463193,0 -18.517264,-4.226316 z m 22.014332,5.007895 0,6.947368 1.461889,-6.6 -1.461889,-0.347368 z m -25.454072,0.607894 0,14.328948 24.078176,0 0,-14.328948 -24.078176,0 z"/>
    </g>
  </defs>
  <g id="acyl-visual">
    <use id="visible1" style="fill:url(#acyl-gradient)" xlink:href="#acyl-drawing"/>
  </g>
</svg>
