<?xml version="1.0" encoding="UTF-8" standalone="no"?>
<svg
   xmlns:dc="http://purl.org/dc/elements/1.1/"
   xmlns:cc="http://creativecommons.org/ns#"
   xmlns:rdf="http://www.w3.org/1999/02/22-rdf-syntax-ns#"
   xmlns:svg="http://www.w3.org/2000/svg"
   xmlns="http://www.w3.org/2000/svg"
   xmlns:xlink="http://www.w3.org/1999/xlink"
   xmlns:sodipodi="http://sodipodi.sourceforge.net/DTD/sodipodi-0.dtd"
   xmlns:inkscape="http://www.inkscape.org/namespaces/inkscape"
   height="64"
   width="64"
   version="1.1"
   id="svg42"
   sodipodi:docname="folder-development.svg">
  <metadata
     id="metadata48">
    <rdf:RDF>
      <cc:Work
         rdf:about="">
        <dc:format>image/svg+xml</dc:format>
        <dc:type
           rdf:resource="http://purl.org/dc/dcmitype/StillImage" />
      </cc:Work>
    </rdf:RDF>
  </metadata>
  <defs
     id="defs46" />
  <sodipodi:namedview
     pagecolor="#ffffff"
     bordercolor="#666666"
     borderopacity="1"
     objecttolerance="10"
     gridtolerance="10"
     guidetolerance="10"
     inkscape:pageopacity="0"
     inkscape:pageshadow="2"
     inkscape:window-width="640"
     inkscape:window-height="480"
     id="namedview44" />
  <linearGradient
     id="a">
    <stop
       offset="0"
       stop-color="#0c6adc"
       id="stop2" />
    <stop
       offset="1"
       stop-color="#0eecef"
       id="stop4" />
  </linearGradient>
  <linearGradient
     id="b"
     gradientUnits="userSpaceOnUse"
     x1="-54.435"
     x2="-19.412"
     xlink:href="#a"
     y1="14.268"
     y2="39.284" />
  <linearGradient
     id="c"
     gradientUnits="userSpaceOnUse"
     x1="-54.435"
     x2="-14.409"
     xlink:href="#a"
     y1="11.618"
     y2="44.287" />
  <linearGradient
     id="f"
     gradientTransform="matrix(1.0033 0 0 1.00331 .117 1.545)"
     gradientUnits="userSpaceOnUse"
     x1="-54.435"
     x2="-14.409"
     xlink:href="#a"
     y1="11.618"
     y2="44.287" />
  <linearGradient
     id="e"
     gradientTransform="matrix(1.0033 0 0 1.00331 .119 -.157)"
     gradientUnits="userSpaceOnUse"
     x1="-54.435"
     x2="-14.409"
     xlink:href="#a"
     y1="11.618"
     y2="44.287" />
  <linearGradient
     id="d"
     gradientTransform="matrix(1.0033 0 0 1.00331 .119 -.157)"
     gradientUnits="userSpaceOnUse"
     x1="-54.435"
     x2="-16.41"
     y1="19.271"
     y2="45.288">
    <stop
       offset="0"
       stop-color="#0c6adc"
       stop-opacity=".2"
       id="stop11" />
    <stop
       offset="1"
       stop-color="#0eecef"
       stop-opacity=".2"
       id="stop13" />
  </linearGradient>
  <g
     transform="matrix(1.35024 0 0 1.35193 80.504 -1.726)"
     stroke="url(#b)"
     stroke-width=".962"
     stroke-linecap="round"
     stroke-linejoin="round"
     id="g30">
    <path
       d="M-19.259 16.44v-1.48c0-.74-.74-1.48-1.481-1.48h-17.75"
       fill="none"
       stroke="#aaa"
       stroke-width=".74"
       id="path16" />
    <g
       transform="translate(0 -2.74)"
       clip-rule="evenodd"
       stroke="url(#c)"
       stroke-width=".888"
       id="g22">
      <path
         d="M-38.432 19.178l-4.016-5.02-13.1-.155c-2.223 0-2.963 1.48-2.963 2.959V44.33c0 1.48.74 2.959 2.962 2.959h39.253c2.222 0 2.962-1.48 2.962-2.96V22.14c0-1.479-.74-2.958-2.962-2.958z"
         fill="url(#d)"
         fill-rule="evenodd"
         stroke="url(#e)"
         id="path18" />
      <path
         d="M-16.296 14.742V8.825h-11.85l-2.222 2.22h-22.959"
         fill="none"
         stroke="url(#f)"
         id="path20" />
    </g>
    <g
       fill="none"
       stroke-width=".74"
       stroke-linecap="butt"
       stroke-linejoin="miter"
       id="g28">
      <path
         d="M-26.665 8.303h6.666"
         stroke="#0c6adc"
         id="path24" />
      <path
         d="M-20 8.303h2.222"
         stroke="#aaa"
         id="path26" />
    </g>
  </g>
  <g
     fill="#f5f5f5"
     id="g38">
    <path
       d="M19.2 46.65a1.68 1.68 0 0 1 .48-1.116l3.438-3.36c.366-.39 1.248-.468 1.602-.252.132 0 1.8 1.002 2.046 1.38.978 1.5-.54 2.898-1.86 2.448l-.558-.33-2.544 2.496c-1.008.84-2.682.15-2.598-1.26zm18.444-18.864a5.628 5.628 0 0 1 1.86-.126l-2.16 3.66a1.548 1.548 0 0 0 .564 2.142l1.386.804a1.572 1.572 0 0 0 2.16-.558l2.154-3.66a5.532 5.532 0 0 1 .792 1.662 5.508 5.508 0 0 1-3.96 6.72 5.628 5.628 0 0 1-1.86.132l-1.278 1.77-5.412-.036s2.412-4.092 2.58-4.122a5.532 5.532 0 0 1-.792-1.674 5.508 5.508 0 0 1 3.96-6.72zm-12.732.954a5.724 5.724 0 0 0-1.032.348c-.036.99.132 2.292-.252 2.628s-1.65.06-2.628-.048a5.76 5.76 0 0 0-.498 1.188c.762.63 1.812 1.332 1.836 1.836.024.51-.996 1.278-1.68 1.986.156.408.39.78.636 1.14.966-.198 2.166-.594 2.58-.3.42.3.42 1.602.54 2.58.402.12.816.168 1.242.204.444-.882.9-2.1 1.386-2.232.504-.144 1.53.72 2.376 1.236a5.718 5.718 0 0 0 .942-.84c-.402-.912-1.14-2.052-.942-2.532.204-.48 1.548-.744 2.478-1.092.006-.12.054-.228.054-.348 0-.3-.06-.6-.102-.894-.96-.252-2.328-.378-2.58-.84-.24-.456.39-1.68.696-2.628a5.844 5.844 0 0 0-1.038-.744c-.792.594-1.722 1.578-2.232 1.488-.498-.096-1.05-1.302-1.584-2.136-.06.012-.132-.012-.198 0zm.99 2.976a2.679 2.679 0 1 1 0 5.358 2.679 2.679 0 0 1 0-5.358z"
       id="path32" />
    <path
       d="M23.958 41.886H39.81l.012 9.624c0 .78-.75 1.488-1.578 1.488h-12.69a1.584 1.584 0 0 1-1.584-1.584z"
       id="path34" />
    <path
       d="M44.538 46.614a1.68 1.68 0 0 0-.48-1.116l-3.432-3.36c-.372-.39-1.248-.468-1.608-.252-.126 0-1.8 1.002-2.04 1.38-.984 1.5.54 2.898 1.86 2.448l.552-.336 2.544 2.496c1.014.84 2.688.15 2.604-1.26z"
       id="path36" />
  </g>
  <path
     d="M19.2 27.6h25.398v25.398H19.2z"
     fill="none"
     id="path40" />
</svg>
