<?xml version="1.0" encoding="UTF-8" standalone="no"?>
<svg
   xmlns:dc="http://purl.org/dc/elements/1.1/"
   xmlns:cc="http://creativecommons.org/ns#"
   xmlns:rdf="http://www.w3.org/1999/02/22-rdf-syntax-ns#"
   xmlns:svg="http://www.w3.org/2000/svg"
   xmlns="http://www.w3.org/2000/svg"
   xmlns:xlink="http://www.w3.org/1999/xlink"
   xmlns:sodipodi="http://sodipodi.sourceforge.net/DTD/sodipodi-0.dtd"
   xmlns:inkscape="http://www.inkscape.org/namespaces/inkscape"
   height="64"
   width="64"
   version="1.1"
   id="svg40"
   sodipodi:docname="network-workgroup.svg">
  <metadata
     id="metadata46">
    <rdf:RDF>
      <cc:Work
         rdf:about="">
        <dc:format>image/svg+xml</dc:format>
        <dc:type
           rdf:resource="http://purl.org/dc/dcmitype/StillImage" />
      </cc:Work>
    </rdf:RDF>
  </metadata>
  <defs
     id="defs44" />
  <sodipodi:namedview
     pagecolor="#ffffff"
     bordercolor="#666666"
     borderopacity="1"
     objecttolerance="10"
     gridtolerance="10"
     guidetolerance="10"
     inkscape:pageopacity="0"
     inkscape:pageshadow="2"
     inkscape:window-width="640"
     inkscape:window-height="480"
     id="namedview42" />
  <linearGradient
     id="a">
    <stop
       offset="0"
       stop-color="#0c6adc"
       id="stop2" />
    <stop
       offset="1"
       stop-color="#0eecef"
       id="stop4" />
  </linearGradient>
  <linearGradient
     id="b"
     gradientUnits="userSpaceOnUse"
     x1="-54.435"
     x2="-19.412"
     xlink:href="#a"
     y1="14.268"
     y2="39.284" />
  <linearGradient
     id="c"
     gradientUnits="userSpaceOnUse"
     x1="-54.435"
     x2="-14.409"
     xlink:href="#a"
     y1="11.618"
     y2="44.287" />
  <linearGradient
     id="f"
     gradientTransform="matrix(1.0033 0 0 1.00331 .117 1.545)"
     gradientUnits="userSpaceOnUse"
     x1="-54.435"
     x2="-14.409"
     xlink:href="#a"
     y1="11.618"
     y2="44.287" />
  <linearGradient
     id="e"
     gradientTransform="matrix(1.0033 0 0 1.00331 .119 -.157)"
     gradientUnits="userSpaceOnUse"
     x1="-54.435"
     x2="-14.409"
     xlink:href="#a"
     y1="11.618"
     y2="44.287" />
  <linearGradient
     id="d"
     gradientTransform="matrix(1.0033 0 0 1.00331 .119 -.157)"
     gradientUnits="userSpaceOnUse"
     x1="-54.435"
     x2="-16.41"
     y1="19.271"
     y2="45.288">
    <stop
       offset="0"
       stop-color="#0c6adc"
       stop-opacity=".2"
       id="stop11" />
    <stop
       offset="1"
       stop-color="#0eecef"
       stop-opacity=".2"
       id="stop13" />
  </linearGradient>
  <g
     transform="matrix(1.35024 0 0 1.35193 80.504 -1.726)"
     stroke="url(#b)"
     stroke-width=".962"
     stroke-linecap="round"
     stroke-linejoin="round"
     id="g30">
    <path
       d="M-19.259 16.44v-1.48c0-.74-.74-1.48-1.481-1.48h-17.75"
       fill="none"
       stroke="#aaa"
       stroke-width=".74"
       id="path16" />
    <g
       transform="translate(0 -2.74)"
       clip-rule="evenodd"
       stroke="url(#c)"
       stroke-width=".888"
       id="g22">
      <path
         d="M-38.432 19.178l-4.016-5.02-13.1-.155c-2.223 0-2.963 1.48-2.963 2.959V44.33c0 1.48.74 2.959 2.962 2.959h39.253c2.222 0 2.962-1.48 2.962-2.96V22.14c0-1.479-.74-2.958-2.962-2.958z"
         fill="url(#d)"
         fill-rule="evenodd"
         stroke="url(#e)"
         id="path18" />
      <path
         d="M-16.296 14.742V8.825h-11.85l-2.222 2.22h-22.959"
         fill="none"
         stroke="url(#f)"
         id="path20" />
    </g>
    <g
       fill="none"
       stroke-width=".74"
       stroke-linecap="butt"
       stroke-linejoin="miter"
       id="g28">
      <path
         d="M-26.665 8.303h6.666"
         stroke="#0c6adc"
         id="path24" />
      <path
         d="M-20 8.303h2.222"
         stroke="#aaa"
         id="path26" />
    </g>
  </g>
  <path
     d="M19.2 27.6h25.398v25.398H19.2z"
     fill="none"
     id="path32" />
  <g
     fill="#f5f5f5"
     id="g38">
    <path
       d="M29.52 29.184a2.4 2.4 0 0 0-2.388 2.382v3.174a2.406 2.406 0 0 0 2.388 2.388h4.758a2.4 2.4 0 0 0 2.382-2.388v-3.18a2.388 2.388 0 0 0-2.382-2.376zm0 1.596h4.758c.456 0 .798.33.798.78v3.18a.78.78 0 0 1-.798.798H29.52a.78.78 0 0 1-.792-.798v-3.18c0-.45.342-.78.792-.78zm-6.348 12.69a2.4 2.4 0 0 0-2.382 2.388v3.18a2.4 2.4 0 0 0 2.382 2.376h4.758a2.388 2.388 0 0 0 2.376-2.376v-3.18a2.4 2.4 0 0 0-2.376-2.388zm0 1.596h4.758a.78.78 0 0 1 .798.792v3.18c0 .45-.348.78-.798.78h-4.758a.768.768 0 0 1-.798-.78v-3.18a.78.78 0 0 1 .798-.792zm12.702-1.596a2.412 2.412 0 0 0-2.388 2.388v3.18a2.4 2.4 0 0 0 2.388 2.376h4.758a2.388 2.388 0 0 0 2.376-2.376v-3.18a2.4 2.4 0 0 0-2.376-2.388zm0 1.596h4.758a.78.78 0 0 1 .798.792v3.18c0 .45-.342.78-.798.78h-4.758a.768.768 0 0 1-.798-.78v-3.18a.78.78 0 0 1 .798-.792zM20.79 38.712v3.18h22.218v-3.18z"
       id="path34" />
    <path
       d="M30.306 36.33v3.978h3.18V36.33zm-6.336 3.978v3.96h3.162v-3.96zm12.69 0v3.96h3.18v-3.96z"
       id="path36" />
  </g>
</svg>
