<svg xmlns="http://www.w3.org/2000/svg" viewBox="0 0 16 16" id="svg6">
  <defs id="defs3051">
    <style type="text/css" id="current-color-scheme">
      .ColorScheme-Text {
        color:#eff0f1;
      }
      </style>
  </defs>
 <path style="fill:currentColor;fill-opacity:1;stroke:none" 
     d="M4.424 2.04a2.398 2.398 0 0 0-2.385 2.384V11h.795V6.785h10.332V11h.795V6.166a2.395 2.395 0 0 0-2.35-2.38c-.012-.002-.023-.005-.035-.005H8.758l-.947-.947-.403-.402-.392-.393H4.424zm0 .794h1.97l.954.951h-.594v.008l-.008-.008-2 2H2.834V4.424c0-.88.71-1.59 1.59-1.59zM7 11c-.554 0-1 .446-1 1H2v1h4c0 .554.446 1 1 1h2c.554 0 1-.446 1-1h4v-1h-4c0-.554-.446-1-1-1H7zm0 1h2v1H7v-1z"
     class="ColorScheme-Text"
     />
</svg>
