<svg id="svg5" height="96" style="" viewBox="0 0 95 96" width="96" xmlns="http://www.w3.org/2000/svg">
    <path id="path1011" d="m56 17c-5 0-10 2-13 6 1 0 3 1 4 2 2-3 5-4 9-4 6 0 12 5 12 12 0 5-4 10-9 11 0 2-1 3-1 4 8-1 13-8 13-15 0-9-7-16-15-16zm-20 47c-16 0-28.5 11-28.5 26 0 2 .3 4 .8 6h4.7 46 4c0-2 1-4 1-6 0-15-13-26-28-26zm0 4c15 0 24 9 24 22 0 0 0 1-1 2h-47c0-1 0-2 0-2 0-13 9-22 24-22zm25-16c-1 0-2 0-3 1s-2 3-2 4c1 0 3-1 5-1 12 0 22 10 22 22v2h-18c1 1 1 3 1 4h21c0-2 0-4 0-6 0-14-12-26-26-26zm-25-23c-9 0-16 7-16 15 0 9 7 16 16 16s16-7 16-16c0-8-7-15-16-15zm0 4c6 0 12 5 12 11 0 7-6 12-12 12-7 0-12-5-12-12 0-6 5-11 12-11zm12-33c-8 0-15 7-15 15v2l-6-7-3 3 9 9 3 3 2-3 8-9-2-3-7 7v-2c0-6 5-11 11-11s8 2 8 8h4c0-8-5-12-12-12z" style="fill:#fafafa"/>
</svg>
