<svg xmlns="http://www.w3.org/2000/svg" width="22" height="22">
    <path d="M11 2.75A8.252 8.252 0 0 0 2.75 11 8.252 8.252 0 0 0 11 19.25 8.252 8.252 0 0 0 19.25 11 8.252 8.252 0 0 0 11 2.75m0 1.375a6.875 6.875 0 1 1 0 13.75 6.875 6.875 0 0 1 0-13.75M11 5.5a5.498 5.498 0 0 0-3.52 1.277l.883 1.055A4.112 4.112 0 0 1 11 6.875 4.126 4.126 0 0 1 15.125 11H16.5c0-3.04-2.46-5.5-5.5-5.5m1.375 2.75l-2.203 4.402a1.382 1.382 0 0 0-.547 1.098c0 .758.617 1.375 1.375 1.375s1.375-.617 1.375-1.375a1.36 1.36 0 0 0-.348-.906zm-6.145.023A5.524 5.524 0 0 0 5.5 11h1.375c0-.719.191-1.422.547-2.043zm0 0" fill="#FE1919"/>
</svg>
