<svg xmlns="http://www.w3.org/2000/svg" xmlns:xlink="http://www.w3.org/1999/xlink" width="22" height="22">
    <defs>
        <filter id="a" filterUnits="objectBoundingBox" x="0%" y="0%" width="100%" height="100%">
            <feColorMatrix in="SourceGraphic" values="0 0 0 0 1 0 0 0 0 1 0 0 0 0 1 0 0 0 1 0"/>
        </filter>
        <mask id="d">
            <g filter="url(#a)">
                <path fill-opacity=".75" d="M0 0h22v22H0z"/>
            </g>
        </mask>
        <clipPath id="b">
            <path d="M0 0h22v22H0z"/>
        </clipPath>
        <g id="c" clip-path="url(#b)">
            <path d="M4.813 19.25a1.372 1.372 0 0 1-1.375-1.375V4.125c0-.762.613-1.375 1.374-1.375h12.375c.762 0 1.375.613 1.375 1.375v13.75c0 .762-.613 1.375-1.375 1.375zm0-1.375h12.375V4.125H4.813zm1.375-2.75V13.75h9.625v1.375zm0-2.75V11h9.625v1.375zm0-2.75V8.25h9.625v1.375zm0-2.75V5.5h9.625v1.375zm0 0" fill="#1952FE"/>
        </g>
    </defs>
    <use xlink:href="#c" mask="url(#d)"/>
</svg>
