<svg xmlns="http://www.w3.org/2000/svg" width="22" height="22">
    <path d="M4.125 4.125c-.762 0-1.375.613-1.375 1.375v11c0 .762.613 1.375 1.375 1.375h13.75c.762 0 1.375-.613 1.375-1.375v-11c0-.762-.613-1.375-1.375-1.375zM11.688 5.5c.382 0 .687.305.687.688a.684.684 0 0 1-.688.687.684.684 0 0 1-.687-.688c0-.382.305-.687.688-.687m2.75 0c.382 0 .687.305.687.688a.684.684 0 0 1-.688.687.684.684 0 0 1-.687-.688c0-.382.305-.687.688-.687m2.75 0c.382 0 .687.305.687.688a.684.684 0 0 1-.688.687.684.684 0 0 1-.687-.688c0-.382.305-.687.688-.687M4.124 8.25h13.75v8.25H4.125zm0 0" fill="#19FF8C"/>
</svg>
