<svg xmlns="http://www.w3.org/2000/svg" viewBox="0 0 22 22" id="svg6">
  <defs id="defs3051">
    <style type="text/css" id="current-color-scheme">
      .ColorScheme-Text {
        color:#eff0f1;
      }
      </style>
  </defs>
    <path 
        style="fill:currentColor;fill-opacity:1;stroke:none" 
        d="M4.885 3c-.944 0-1.64.725-1.78 1.629v12.69C3.22 18.25 3.942 19 4.906 19h12.21A1.88 1.88 0 0 0 19 17.115V6.95a1.88 1.88 0 0 0-1.885-1.885h-4.832L10.186 3l-.01.008V3H4.885zm-.153 1h4.854l1.004 1.004L6.57 9H4V4.732C4 4.327 4.327 4 4.732 4zM14 9a3 3 0 0 1 3 3v1h1v5h-8v-5h1v-1a3 3 0 0 1 3-3zm0 1a2 2 0 0 0-2 2v1h4v-1a2 2 0 0 0-2-2z"
        class="ColorScheme-Text"/>
</svg>
