<svg xmlns="http://www.w3.org/2000/svg" viewBox="0 0 24 24" id="svg6">
  <defs id="defs3051">
    <style type="text/css" id="current-color-scheme">
      .ColorScheme-Text {
        color:#eff0f1;
      }
      </style>
  </defs>
 <path 
     style="fill:currentColor;fill-opacity:1;stroke:none" 
     d="M6.541 4.039a2.515 2.515 0 0 0-2.502 2.502v10.84a2.515 2.515 0 0 0 2.502 2.502h7.42v-.834h-7.42a1.664 1.664 0 0 1-1.668-1.668v-6.547h2.961v-.008l.008.008 2-2h9.207v5.127h.834V8.258a2.515 2.515 0 0 0-2.502-2.502h-4.617l-.883-.883-.434-.433-.4-.4H6.541zm10.92 10.922a2.495 2.495 0 0 0-2.5 2.5c0 .433.118.835.31 1.19l.76-.76a1.488 1.488 0 0 1-.07-.43c0-.831.669-1.5 1.5-1.5.15 0 .293.03.43.07l.76-.76a2.482 2.482 0 0 0-1.19-.31zm2.19 1.31l-.76.76c.04.137.07.28.07.43 0 .831-.669 1.5-1.5 1.5-.15 0-.293-.03-.43-.07l-.76.76c.355.192.757.31 1.19.31 1.385 0 2.5-1.115 2.5-2.5 0-.433-.118-.835-.31-1.19z"
	 class="ColorScheme-Text"
     />
</svg>
