#define aa43a529bafd4ddc82e31af88e79d671_width 15
#define aa43a529bafd4ddc82e31af88e79d671_height 17
static char aa43a529bafd4ddc82e31af88e79d671_bits[] = {
  0x00, 0x00, 0x00, 0x00, 0xFC, 0x1F, 0xFE, 0x3F, 0xFE, 0x3F, 0xFE, 0x3F, 
  0xFE, 0x3F, 0xFE, 0x3F, 0xFE, 0x3F, 0xFE, 0x3F, 0xFE, 0x3F, 0xFE, 0x3F, 
  0xFE, 0x3F, 0xFE, 0x3F, 0xFC, 0x1F, 0x00, 0x00, 0x00, 0x00, };
