<svg xmlns="http://www.w3.org/2000/svg" xmlns:xlink="http://www.w3.org/1999/xlink" width="48" height="48">
  <defs id="acyl-settings">
    <linearGradient id="acyl-gradient" x1="0%" x2="0%" y1="0%" y2="100%">
      <stop offset="100%" style="stop-color:#A0A0A0;stop-opacity:1.000000"/>
    </linearGradient>
    <g id="acyl-filter">
  </g>
    <g id="acyl-drawing">
      <path d="M 11.4199 8.88867 C 9.08247 8.88867 7.17773 10.1937 7.17773 11.8145 L 38.7148 11.8145 C 38.7148 10.1937 36.8101 8.88867 34.4727 8.88867 L 11.4199 8.88867 z M 7.88086 12.5762 C 4.6156 12.5762 2 14.8344 2 17.6367 L 2 35.3945 C 2 38.1968 4.6156 40.4551 7.88086 40.4551 L 40.1191 40.4551 C 43.3844 40.4551 46 38.1968 46 35.3945 L 46 17.6367 C 46 14.8344 43.3844 12.5762 40.1191 12.5762 L 7.88086 12.5762 z M 17.8438 18 L 18.8965 18 L 26.9883 18 L 30.1562 21.168 L 30.1562 33.9473 L 30.1562 35 L 28.2168 35 L 28.0508 35 L 26.1113 35 L 26.1113 32.8945 L 28.0508 32.8945 L 28.0508 22.041 L 26.1152 20.1055 L 19.9492 20.1055 L 19.9492 22.2109 L 17.8438 22.2109 L 17.8438 20.1055 L 17.8438 18 z M 17.8438 24.3164 L 19.9492 24.3164 L 19.9492 26.4238 L 17.8438 26.4238 L 17.8438 24.3164 z M 17.8438 28.5293 L 19.9492 28.5293 L 19.9492 30.6348 L 17.8438 30.6348 L 17.8438 28.5293 z M 17.8438 32.7402 L 19.9492 32.7402 C 19.9492 33.4935 19.9493 34.2467 19.9492 35 L 18.8965 35 L 17.8438 35 L 17.8438 33.9473 L 17.8438 32.7402 z M 21.9004 32.8945 L 24.0059 32.8945 L 24.0059 35 L 21.9004 35 L 21.9004 32.8945 z" id="path-main"/>
    </g>
  </defs>
  <g id="acyl-visual">
    <use id="visible1" style="fill:url(#acyl-gradient)" xlink:href="#acyl-drawing"/>
  </g>
</svg>
