<svg xmlns="http://www.w3.org/2000/svg" xmlns:xlink="http://www.w3.org/1999/xlink" width="48" height="48">
  <defs id="acyl-settings">
    <linearGradient id="acyl-gradient" x1="0%" x2="0%" y1="0%" y2="100%">
      <stop offset="100%" style="stop-color:#A0A0A0;stop-opacity:1.000000"/>
    </linearGradient>
    <g id="acyl-filter">
  </g>
    <g id="acyl-drawing">
      <path d="M 11.4199 8.88867 C 9.08247 8.88867 7.17773 10.1937 7.17773 11.8145 L 38.7148 11.8145 C 38.7148 10.1937 36.8101 8.88867 34.4727 8.88867 L 11.4199 8.88867 z M 7.88086 12.5762 C 4.6156 12.5762 2 14.8344 2 17.6367 L 2 35.3945 C 2 38.1968 4.6156 40.4551 7.88086 40.4551 L 40.1191 40.4551 C 43.3844 40.4551 46 38.1968 46 35.3945 L 46 17.6367 C 46 14.8344 43.3844 12.5762 40.1191 12.5762 L 7.88086 12.5762 z M 36 19.8809 L 35.416 22.0195 L 35.4434 22.0449 L 35.3945 22.0938 L 33.9395 27.418 L 32.1035 26.9141 L 32.6797 24.8105 L 27.9023 29.5879 L 26.3086 27.9922 L 31.0918 23.209 L 28.9844 23.793 L 28.4785 21.9551 L 33.8223 20.4824 L 33.8516 20.4531 L 33.8672 20.4688 L 36 19.8809 z M 12 19.8965 L 14.1387 20.4805 L 14.1641 20.4531 L 14.2148 20.502 L 19.5371 21.957 L 19.0352 23.793 L 16.9297 23.2168 L 21.707 27.9941 L 20.1152 29.5879 L 15.332 24.8047 L 15.9141 26.9121 L 14.0781 27.418 L 12.6016 22.0742 L 12.5742 22.0469 L 12.5898 22.0312 L 12 19.8965 z M 24.0078 28.6562 C 24.8384 28.6562 25.6687 28.9714 26.2969 29.5996 C 27.5533 30.856 27.5533 32.9213 26.2969 34.1777 C 25.0406 35.4341 22.975 35.4341 21.7188 34.1777 C 20.4624 32.9213 20.4624 30.856 21.7188 29.5996 C 22.347 28.9714 23.1773 28.6562 24.0078 28.6562 z M 24.0078 30.5488 C 23.6686 30.5488 23.3307 30.681 23.0664 30.9453 C 22.5379 31.4739 22.5379 32.3034 23.0664 32.832 C 23.595 33.3606 24.4226 33.3606 24.9512 32.832 C 25.4798 32.3034 25.4798 31.4739 24.9512 30.9453 C 24.6869 30.681 24.347 30.5488 24.0078 30.5488 z " id="path-main"/>
    </g>
  </defs>
  <g id="acyl-visual">
    <use id="visible1" style="fill:url(#acyl-gradient)" xlink:href="#acyl-drawing"/>
  </g>
</svg>
