<svg xmlns="http://www.w3.org/2000/svg" xmlns:xlink="http://www.w3.org/1999/xlink" width="48" height="48">
  <defs id="acyl-settings">
    <linearGradient id="acyl-gradient" x1="0%" x2="0%" y1="0%" y2="100%">
      <stop offset="100%" style="stop-color:#A0A0A0;stop-opacity:1.000000"/>
    </linearGradient>
    <g id="acyl-filter">
  </g>
    <g id="acyl-drawing">
      <path id="path-main" d="m 11.420213,9.5895106 c -2.3374492,0 -4.2420215,1.3048124 -4.2420215,2.9255324 l 31.5372345,0 c 0,-1.620719 -1.904574,-2.9255324 -4.242022,-2.9255324 l -23.053191,0 z M 7.8803191,13.275681 C 4.6150646,13.275681 2,15.534536 2,18.336851 L 2,36.09483 c 0,2.802315 2.6150646,5.061169 5.8803191,5.06117 l 32.2393619,0 C 43.384935,41.156 46,38.897145 46,36.09483 l 0,-17.757979 c 0,-2.802315 -2.615065,-5.06117 -5.880319,-5.06117 l -32.2393619,0 z m 15.7393619,2.896276 c 1.164971,-6.97e-4 2.509237,6.278578 3.452128,6.962766 0.94289,0.684189 7.304234,0.004 7.664893,1.111703 0.36066,1.107737 -5.199178,4.304065 -5.558511,5.412234 -0.359332,1.108169 2.258561,6.979576 1.31649,7.664893 -0.942071,0.685317 -5.710029,-3.628357 -6.875,-3.627659 -1.164971,6.97e-4 -5.932109,4.311848 -6.875,3.627659 -0.942891,-0.684189 1.677149,-6.557156 1.316489,-7.664893 -0.360659,-1.107738 -5.917843,-4.304065 -5.55851,-5.412234 0.359332,-1.108169 6.752078,-0.426386 7.694149,-1.111703 0.94207,-0.685316 2.257901,-6.962068 3.422872,-6.962766 z"/>
    </g>
  </defs>
  <g id="acyl-visual">
    <use id="visible1" style="fill:url(#acyl-gradient)" xlink:href="#acyl-drawing"/>
  </g>
</svg>
