<svg xmlns="http://www.w3.org/2000/svg" xmlns:xlink="http://www.w3.org/1999/xlink" width="48" height="48">
  <defs id="acyl-settings">
    <linearGradient id="acyl-gradient" x1="0%" x2="0%" y1="0%" y2="100%">
      <stop offset="100%" style="stop-color:#A0A0A0;stop-opacity:1.000000"/>
    </linearGradient>
    <g id="acyl-filter">
  </g>
    <g id="acyl-drawing">
      <path d="m 11.420213,9.5895106 c -2.3374492,0 -4.2420215,1.3048124 -4.2420215,2.9255324 l 31.5372345,0 c 0,-1.620719 -1.904574,-2.9255324 -4.242022,-2.9255324 l -23.053191,0 z M 7.8803191,13.275681 C 4.6150646,13.275681 2,15.534536 2,18.336851 L 2,36.09483 c 0,2.802315 2.6150646,5.061169 5.8803191,5.06117 l 32.2393619,0 C 43.384935,41.156 46,38.897145 46,36.09483 l 0,-17.757979 c 0,-2.802315 -2.615065,-5.06117 -5.880319,-5.06117 l -32.2393619,0 z m 15.9734039,2.486702 11.38032,12.287234 -2.25266,-0.02925 0.08777,9.859042 -17.640958,0.02926 -0.02925,-9.829788 -2.632979,0 11.087766,-12.316489 z" id="path-main"/>
    </g>
  </defs>
  <g id="acyl-visual">
    <use id="visible1" style="fill:url(#acyl-gradient)" xlink:href="#acyl-drawing"/>
  </g>
</svg>
