<svg xmlns="http://www.w3.org/2000/svg" xmlns:xlink="http://www.w3.org/1999/xlink" width="48" height="48">
  <defs id="acyl-settings">
    <linearGradient id="acyl-gradient" x1="0%" x2="0%" y1="0%" y2="100%">
      <stop offset="100%" style="stop-color:#A0A0A0;stop-opacity:1.000000"/>
    </linearGradient>
    <g id="acyl-filter">
  </g>
    <g id="acyl-drawing">
      <path id="path-main" d="m 11.420213,9.5895106 c -2.3374492,0 -4.2420215,1.3048124 -4.2420215,2.9255324 l 31.5372345,0 c 0,-1.620719 -1.904574,-2.9255324 -4.242022,-2.9255324 l -23.053191,0 z M 7.8803191,13.275681 C 4.6150646,13.275681 2,15.534536 2,18.336851 L 2,36.09483 c 0,2.802315 2.6150646,5.061169 5.8803191,5.06117 l 32.2393619,0 C 43.384935,41.156 46,38.897145 46,36.09483 l 0,-17.757979 c 0,-2.802315 -2.615065,-5.06117 -5.880319,-5.06117 l -32.2393619,0 z m 11.5558509,6.055851 7.050532,0 4.037234,4.154255 -0.02925,10.648936 c 0,0.472584 -0.359779,0.848405 -0.819149,0.848405 l -10.239362,0 c -0.459373,0 -0.819149,-0.375822 -0.819149,-0.848405 l 0,-13.954787 c 0,-0.472582 0.359777,-0.848404 0.819149,-0.848404 z"/>
    </g>
  </defs>
  <g id="acyl-visual">
    <use id="visible1" style="fill:url(#acyl-gradient)" xlink:href="#acyl-drawing"/>
  </g>
</svg>
