<svg xmlns="http://www.w3.org/2000/svg" viewBox="0 0 32 32" id="svg5">
  <defs id="defs3051">
    <style type="text/css" id="current-color-scheme">
      .ColorScheme-Text {
        color:#232629;
      }
      </style>
  </defs>
 <path 
     style="fill:currentColor;fill-opacity:1;stroke:none" 
     d="M7.844 4.078a3.785 3.785 0 0 0-3.766 3.766v16.312a3.785 3.785 0 0 0 3.766 3.766H17v-1.078H7.656a2.562 2.562 0 0 1-2.568-2.569v-10.08h4.558v-.011l.012.011 3.078-3.078h14.176V17h1.01v-6.572a3.785 3.785 0 0 0-3.766-3.766H17.21l-1.33-1.328-.652-.652-.602-.602H7.844v-.002zM22 17v5h-5v1h5v5h1v-5h5v-1h-5v-5h-1z"
	 class="ColorScheme-Text"
     />
</svg>
