<svg xmlns="http://www.w3.org/2000/svg" xmlns:xlink="http://www.w3.org/1999/xlink" width="32" height="32"><defs><linearGradient id="c" y1="524.8" x1="404.57" y2="531.8" x2="411.57" gradientUnits="userSpaceOnUse"><stop stop-color="#383e51"/><stop offset="1" stop-color="#655c6f" stop-opacity="0"/></linearGradient><linearGradient xlink:href="#a" id="b" x1="5" y1="30" x2="5" y2="2" gradientUnits="userSpaceOnUse" gradientTransform="translate(-20)"/><linearGradient id="a" y1="392.36" y2="365.36" x2="0" gradientUnits="userSpaceOnUse" gradientTransform="translate(309.57 152.44)"><stop stop-color="#fff" stop-opacity="0"/><stop offset="1" stop-color="#fff" stop-opacity=".2"/></linearGradient></defs><path d="M20 2H8C6.338 2 5 3.338 5 5v22c0 1.662 1.338 3 3 3h16c1.662 0 3-1.338 3-3V9z" fill="#d2d6d9"/><path d="M8 2a2.99 2.99 0 00-2.123.877c-.031.031-.02.09-.05.123H20V2z" color="#000" opacity=".5" fill="#fff"/><path d="M5.826 29c.03.033.02.092.051.123A2.99 2.99 0 008 30h16a2.99 2.99 0 002.123-.877c.031-.031.02-.09.05-.123z" color="#000" opacity=".25"/><path d="M20 2H8C6.338 2 5 3.338 5 5v22c0 1.662 1.338 3 3 3h16c1.662 0 3-1.338 3-3V9z" opacity=".4" fill="url(#b)"/><g fill-rule="evenodd"><path d="M27 9l-7-7v7z" fill="#5e6b78"/><path d="M411.57 531.8l-7-7h7z" opacity=".2" fill="url(#c)" transform="translate(-384.57 -515.8)"/></g><path d="M16 12a6 6 0 100 12 6 6 0 000-12m0 1a5 5 0 11-.001 10.001A5 5 0 0116 13m0 1a4 4 0 00-4 4h2a2 2 0 012-2zm0 3a1 1 0 00-1 1 1 1 0 001 1 1 1 0 001-1 1 1 0 00-1-1m2 1a2 2 0 01-2 2v2a4 4 0 004-4z" color="#000" fill="#4b5560"/></svg>