<svg xmlns="http://www.w3.org/2000/svg" xmlns:xlink="http://www.w3.org/1999/xlink" width="32" height="32"><defs><linearGradient gradientTransform="matrix(.5 0 0 -.48276 8 31.45)" gradientUnits="userSpaceOnUse" x2="0" y2="3" y1="61" id="a"><stop offset="0" stop-color="#f9a11f"/><stop stop-color="#f39c12" offset="1"/></linearGradient><linearGradient id="c" y1="518.04" y2="524.8" x2="0" gradientUnits="userSpaceOnUse"><stop stop-color="#fddda3"/><stop offset="1" stop-color="#fde3a7"/></linearGradient><linearGradient id="d" y1="524.8" x1="404.57" y2="531.8" x2="411.57" gradientUnits="userSpaceOnUse"><stop stop-color="#383e51"/><stop offset="1" stop-color="#655c6f" stop-opacity="0"/></linearGradient><linearGradient xlink:href="#a" id="b" x1="5" y1="30" x2="5" y2="2" gradientUnits="userSpaceOnUse" gradientTransform="translate(-20)"/></defs><path d="M20 2H8C6.338 2 5 3.338 5 5v22c0 1.662 1.338 3 3 3h16c1.662 0 3-1.338 3-3V9z" fill="url(#b)"/><path d="M8 2a2.99 2.99 0 00-2.123.877c-.031.031-.02.09-.05.123H20V2z" color="#000" opacity=".5" fill="#fff"/><path d="M5.826 29c.03.033.02.092.051.123A2.99 2.99 0 008 30h16a2.99 2.99 0 002.123-.877c.031-.031.02-.09.05-.123z" color="#000" opacity=".25"/><g fill-rule="evenodd"><path d="M411.57 524.8l-7-7v7z" fill="url(#c)" transform="translate(-384.57 -515.8)"/><path d="M411.57 531.8l-7-7h7z" opacity=".2" fill="url(#d)" transform="translate(-384.57 -515.8)"/></g><path d="M15.5 12v1.125c-.843.078-1.507.291-2 .688-.542.432-.813 1.072-.813 1.906 0 1.165.697 1.921 2.125 2.281l.688.188v3.688c-.887-.079-1.719-.273-2.5-.656l-.344.906c.318.195.752.379 1.281.531.465.129.988.186 1.563.219v1.125h1v-1.125c.85-.068 1.533-.327 2.031-.781.534-.483.812-1.183.813-2.094 0-.737-.2-1.289-.594-1.688-.394-.403-.987-.693-1.75-.875l-.5-.125v-3.25c.386.029.787.083 1.156.188.424.114.742.262 1 .406l.313-.906c-.64-.399-1.461-.637-2.469-.688V12h-.75zm-.219 2.094c.065-.011.149.008.219 0v2.969L15.219 17c-.47-.114-.825-.284-1.063-.5-.233-.22-.344-.515-.344-.875 0-.856.483-1.366 1.469-1.531m1.219 4.313l.188.063c.576.144.971.34 1.188.594.22.25.312.593.313 1 0 1.133-.563 1.735-1.688 1.844z" color="#4d4d4d" fill="#fddda3"/></svg>