<svg xmlns="http://www.w3.org/2000/svg" xmlns:xlink="http://www.w3.org/1999/xlink" width="32" height="32"><defs><linearGradient gradientTransform="matrix(.5 0 0 -.48276 0 31.45)" gradientUnits="userSpaceOnUse" x2="0" y2="3" y1="61" id="a"><stop offset="0" stop-color="#768492"/><stop stop-color="#5e6b78" offset="1"/></linearGradient><linearGradient id="c" y1="518.04" y2="524.8" x2="0" gradientUnits="userSpaceOnUse"><stop stop-color="#dedede"/><stop offset="1" stop-color="#fbfbfb"/></linearGradient><linearGradient id="d" y1="524.8" x1="404.57" y2="531.8" x2="411.57" gradientUnits="userSpaceOnUse"><stop stop-color="#383e51"/><stop offset="1" stop-color="#655c6f" stop-opacity="0"/></linearGradient><linearGradient xlink:href="#a" id="b" x1="5" y1="30" x2="5" y2="2" gradientUnits="userSpaceOnUse" gradientTransform="translate(-20)"/></defs><path d="M20 2H8C6.338 2 5 3.338 5 5v22c0 1.662 1.338 3 3 3h16c1.662 0 3-1.338 3-3V9z" fill="url(#b)"/><g fill-rule="evenodd"><path d="M411.57 524.8l-7-7v7z" fill="url(#c)" transform="translate(-384.57 -515.8)"/><path d="M411.57 531.8l-7-7h7z" opacity=".2" fill="url(#d)" transform="translate(-384.57 -515.8)"/></g><path d="M15.06 10.67c-.681 0-1.569.387-2.381 1.033a1.369 1.369 0 00-.732 1.766 1.828 1.828 0 00-1.397 2.336 1.825 1.825 0 00-.221 2.336 1.83 1.83 0 00.614 2.633 2.06 2.06 0 001.418 2.207 2.053 2.053 0 001.777 1.02 2.06 2.06 0 001.842-1.143 2.064 2.064 0 001.844 1.143 2.05 2.05 0 001.775-1.02 2.062 2.062 0 001.42-2.207 1.83 1.83 0 00.614-2.633 1.825 1.825 0 00-.221-2.336 1.828 1.828 0 00-1.397-2.336 1.37 1.37 0 00-.732-1.766c-.812-.646-1.7-1.033-2.381-1.033-.379 0-.715.187-.922.473a1.136 1.136 0 00-.92-.473m0 .432c.389 0 .705.318.705.707v2.793a1.13 1.13 0 00-.705-.246.216.216 0 100 .432c.389 0 .705.316.705.705v5.191a2.06 2.06 0 00-1.092-.729.217.217 0 00-.266.152.217.217 0 00.152.266 1.628 1.628 0 011.205 1.568c0 .897-.73 1.627-1.627 1.627a1.623 1.623 0 01-1.439-.871.213.213 0 00-.135-.107 1.629 1.629 0 01-1.172-1.896.216.216 0 00-.123-.24 1.398 1.398 0 01-.641-1.976 1.82 1.82 0 001.207.457.216.216 0 000-.432 1.398 1.398 0 01-.894-2.468.213.213 0 00.06-.246 1.398 1.398 0 011.294-1.921c.77 0 1.396.627 1.396 1.396a.216.216 0 10.432 0c0-.969-.757-1.761-1.711-1.822a.936.936 0 111.646-.889.215.215 0 00.389-.187 1.38 1.38 0 00-.916-.734c.551-.336 1.094-.527 1.527-.527m1.842 0c.433 0 .976.191 1.527.527a1.383 1.383 0 00-.916.734.215.215 0 00.1.287.217.217 0 00.289-.1.93.93 0 011.211-.45.937.937 0 01.435 1.339 1.83 1.83 0 00-1.711 1.822c0 .119.098.217.217.217a.216.216 0 00.215-.217c0-.77.627-1.396 1.396-1.396a1.398 1.398 0 011.292 1.921.214.214 0 00.063.246 1.398 1.398 0 01-.894 2.468.216.216 0 00-.217.215c0 .119.098.217.217.217a1.82 1.82 0 001.207-.457 1.397 1.397 0 01-.641 1.976.216.216 0 00-.125.24 1.629 1.629 0 01-1.17 1.896.217.217 0 00-.135.107 1.624 1.624 0 01-1.439.871c-.897 0-1.627-.73-1.627-1.627 0-.061-.003-.12-.008-.18a.221.221 0 00.008-.059v-7.131c0-.389.316-.707.705-.707a.216.216 0 00.217-.215.218.218 0 00-.217-.217 1.13 1.13 0 00-.705.246v-1.871c0-.389.316-.707.705-.707m3.225 3.715a.216.216 0 00-.217.215 1.396 1.396 0 01-2.393.978.216.216 0 00-.309.301c.299.306.686.494 1.105.539a1.369 1.369 0 001.352 1.162.216.216 0 00.217-.215.218.218 0 00-.217-.217.938.938 0 01-.914-.736 1.832 1.832 0 001.592-1.813.216.216 0 00-.217-.215m-7.83.231a.216.216 0 00-.217.215c0 .927.695 1.695 1.59 1.813a.936.936 0 01-.912.736.216.216 0 00-.217.215c0 .119.098.217.217.217a1.37 1.37 0 001.352-1.162 1.808 1.808 0 001.105-.539.216.216 0 00-.309-.301 1.398 1.398 0 01-2.394-.978.215.215 0 00-.215-.215m4.606 3.225a.216.216 0 000 .432 1.398 1.398 0 011.388 1.542 1.832 1.832 0 00-1.145 1.695.216.216 0 10.432 0c0-.77.627-1.396 1.396-1.396a.216.216 0 00.217-.215.218.218 0 00-.217-.217c-.083 0-.164.007-.244.018v-.031c0-1.01-.82-1.828-1.828-1.828m-2.533.461c-1.01 0-1.828.818-1.828 1.826v.033a1.785 1.785 0 00-.244-.018.216.216 0 00-.217.215c0 .119.098.217.217.217.77 0 1.396.627 1.396 1.396a.216.216 0 00.432 0c0-.766-.475-1.424-1.145-1.695a1.398 1.398 0 011.388-1.542.216.216 0 00.215-.217h.002a.216.216 0 00-.217-.215" opacity=".75" fill="#fbfbfb"/><path d="M8 2a2.99 2.99 0 00-2.123.877c-.031.031-.02.09-.05.123H20V2z" color="#000" opacity=".5" fill="#fff"/><path d="M5.826 29c.03.033.02.092.051.123A2.99 2.99 0 008 30h16a2.99 2.99 0 002.123-.877c.031-.031.02-.09.05-.123z" color="#000" opacity=".25"/></svg>