<svg xmlns="http://www.w3.org/2000/svg" xmlns:xlink="http://www.w3.org/1999/xlink" width="32" height="32"><defs><linearGradient id="b" y1="61" y2="3" x2="0" gradientUnits="userSpaceOnUse" gradientTransform="matrix(.5 0 0 -.48276 0 31.45)"><stop stop-color="#f62459"/><stop offset="1" stop-color="#f73768"/></linearGradient><linearGradient id="e" y1="518.04" y2="524.8" x2="0" gradientUnits="userSpaceOnUse"><stop stop-color="#ffd6af"/><stop offset="1" stop-color="#fffcf9"/></linearGradient><linearGradient id="f" y1="524.8" x1="404.57" y2="531.8" x2="411.57" gradientUnits="userSpaceOnUse"><stop stop-color="#383e51"/><stop offset="1" stop-color="#655c6f" stop-opacity="0"/></linearGradient><linearGradient xlink:href="#a" id="d" x1="2.489" y1="-1.697" x2="23.917" y2="31.822" gradientUnits="userSpaceOnUse" gradientTransform="translate(-20)"/><linearGradient id="a" y1="392.36" y2="365.36" x2="0" gradientUnits="userSpaceOnUse" gradientTransform="translate(309.57 152.44)"><stop stop-opacity=".2" stop-color="#fff" offset="0"/><stop stop-opacity="0" stop-color="#fff" offset="1"/></linearGradient><linearGradient xlink:href="#b" id="c" x1="25" y1="16" x2="47" y2="16" gradientUnits="userSpaceOnUse" gradientTransform="translate(-20)"/></defs><path d="M20 2H8C6.338 2 5 3.338 5 5v22c0 1.662 1.338 3 3 3h16c1.662 0 3-1.338 3-3V9z" fill="url(#c)"/><path d="M11 12v4h-1v6h3v2h6v-2h3v-6h-1v-4zm1 1h8v3h-1v-1h-6v1h-1zm1 0v1h6v-1zm-2 4h10v4h-1v-1h-8v1h-1zm7 1v1h2v-1zm-4 4h4v1h-4z" fill="#fffcf9"/><path d="M8 2a2.99 2.99 0 00-2.123.877c-.031.031-.02.09-.05.123H20V2z" color="#000" opacity=".5" fill="#fff"/><path d="M5.826 29c.03.033.02.092.051.123A2.99 2.99 0 008 30h16a2.99 2.99 0 002.123-.877c.031-.031.02-.09.05-.123z" color="#000" opacity=".25"/><path d="M20 2H8C6.338 2 5 3.338 5 5v22c0 1.662 1.338 3 3 3h16c1.662 0 3-1.338 3-3V9z" opacity=".4" fill="url(#d)"/><g fill-rule="evenodd"><path d="M411.57 524.8l-7-7v7z" fill="url(#e)" transform="translate(-384.57 -515.8)"/><path d="M411.57 531.8l-7-7h7z" opacity=".2" fill="url(#f)" transform="translate(-384.57 -515.8)"/></g></svg>