<svg xmlns="http://www.w3.org/2000/svg" xmlns:xlink="http://www.w3.org/1999/xlink" width="32" height="32"><defs><linearGradient id="c" y1="524.8" x1="404.57" y2="531.8" x2="411.57" gradientUnits="userSpaceOnUse" gradientTransform="translate(-384.57 -515.8)"><stop stop-color="#383e51"/><stop offset="1" stop-color="#655c6f" stop-opacity="0"/></linearGradient><linearGradient xlink:href="#a" id="b" x1="5" y1="30" x2="5" y2="2" gradientUnits="userSpaceOnUse" gradientTransform="translate(-20)"/><linearGradient id="a" y1="392.36" y2="365.36" x2="0" gradientUnits="userSpaceOnUse" gradientTransform="translate(309.57 152.44)"><stop stop-color="#fff" stop-opacity="0"/><stop offset="1" stop-color="#fff" stop-opacity=".2"/></linearGradient></defs><path d="M20 2H8C6.338 2 5 3.338 5 5v22c0 1.662 1.338 3 3 3h16c1.662 0 3-1.338 3-3V9z" fill="#2cbd2c"/><path d="M8 2a2.99 2.99 0 00-2.123.877c-.031.031-.02.09-.05.123H20V2z" color="#000" opacity=".5" fill="#fff"/><path d="M5.826 29c.03.033.02.092.051.123A2.99 2.99 0 008 30h16a2.99 2.99 0 002.123-.877c.031-.031.02-.09.05-.123z" color="#000" opacity=".25"/><path d="M20 2H8C6.338 2 5 3.338 5 5v22c0 1.662 1.338 3 3 3h16c1.662 0 3-1.338 3-3V9z" opacity=".4" fill="url(#b)"/><path d="M27 9l-7-7v7z" fill-rule="evenodd" opacity=".6"/><path d="M27 16l-7-7h7z" opacity=".2" fill="url(#c)" fill-rule="evenodd"/><path d="M12.112 20.154c-.122.219-.22.549-.22.756 0 .049 0 .11.013.195l-1.525-2.622a.68.68 0 01-.085-.317c0-.11.036-.244.085-.33l.732-1.28-.817-.463 2.659-.05 1.293 2.33-.83-.476-1.305 2.257m1.171-7.392c.232-.403.61-.623 1.073-.623.5 0 .891.232 1.171.707l.415.696-1.44 2.489-2.329-1.354 1.11-1.915m.17 9.502a1.275 1.275 0 01-1.268-1.269c0-.195.086-.525.208-.732l.39-.695h2.89v2.696h-2.22m2.318-9.576a1.495 1.495 0 00-.72-.659h3.002c.268 0 .475.11.598.318l.744 1.269.804-.477-1.293 2.319-2.647-.038.817-.463-1.305-2.269m4.623 6.904c.366 0 .67-.098.927-.293l-1.513 2.635a.676.676 0 01-.597.329h-1.428v.939l-1.366-2.28 1.366-2.282v.952h2.611m1.17-2.196c.11.195.172.402.172.622 0 .44-.281.903-.671 1.122-.183.098-.44.16-.695.16h-.806l-1.439-2.49 2.33-1.33 1.11 1.916" opacity=".7"/></svg>