<svg xmlns="http://www.w3.org/2000/svg" xmlns:xlink="http://www.w3.org/1999/xlink" width="32" height="32"><defs><linearGradient id="c" y1="524.8" x1="404.57" y2="531.8" x2="411.57" gradientUnits="userSpaceOnUse"><stop stop-color="#060606"/><stop offset="1" stop-opacity="0"/></linearGradient><linearGradient xlink:href="#a" id="b" x1="5" y1="30" x2="5" y2="2" gradientUnits="userSpaceOnUse" gradientTransform="translate(-20)"/><linearGradient id="a" y1="392.36" y2="365.36" x2="0" gradientUnits="userSpaceOnUse" gradientTransform="translate(309.57 152.44)"><stop stop-color="#fff" stop-opacity="0"/><stop offset="1" stop-color="#fff" stop-opacity=".2"/></linearGradient></defs><path d="M20 2H8C6.338 2 5 3.338 5 5v22c0 1.662 1.338 3 3 3h16c1.662 0 3-1.338 3-3V9z" fill="#ff8b23"/><path d="M8 2a2.99 2.99 0 00-2.123.877c-.031.031-.02.09-.05.123H20V2z" color="#000" opacity=".5" fill="#fff"/><path d="M5.826 29c.03.033.02.092.051.123A2.99 2.99 0 008 30h16a2.99 2.99 0 002.123-.877c.031-.031.02-.09.05-.123z" color="#000" opacity=".25"/><path d="M20 2H8C6.338 2 5 3.338 5 5v22c0 1.662 1.338 3 3 3h16c1.662 0 3-1.338 3-3V9z" opacity=".4" fill="url(#b)"/><g fill-rule="evenodd"><path d="M27 9l-7-7v7z" opacity=".4"/><path d="M411.57 531.8l-7-7h7z" opacity=".2" fill="url(#c)" transform="translate(-384.57 -515.8)"/></g><path d="M15.382 11.947a.5.5 0 00-.345.147.5.5 0 000 .707l3.205 3.205a4 4 0 00-.24-.008h-7.5a.5.5 0 00-.5.5.5.5 0 00.5.5h4.792l-5.146 5.146a.5.5 0 000 .707.5.5 0 00.707 0l3.164-3.164a4 4 0 00-.017.31 4 4 0 004 4 4 4 0 004-4 4 4 0 00-.961-2.595l.006-.006-.135-.135a4 4 0 00-.203-.203l-4.965-4.965a.5.5 0 00-.362-.147m2.62 5.051a3 3 0 011.996.764l.227.227a3 3 0 01.777 2.01 3 3 0 01-3 3 3 3 0 01-3-3 3 3 0 013-3m0 2a1 1 0 00-1 1 1 1 0 001 1 1 1 0 001-1 1 1 0 00-1-1" opacity=".4"/></svg>