<svg xmlns="http://www.w3.org/2000/svg" xmlns:xlink="http://www.w3.org/1999/xlink" width="32" height="32"><defs><linearGradient id="c" y1="17" y2="24" x1="47" x2="54" gradientUnits="userSpaceOnUse" gradientTransform="translate(-27 -8)"><stop stop-color="#060606"/><stop offset="1" stop-opacity="0"/></linearGradient><linearGradient xlink:href="#a" id="b" x1="5" y1="30" x2="5" y2="2" gradientUnits="userSpaceOnUse" gradientTransform="translate(-20)"/><linearGradient id="a" y1="392.36" y2="365.36" x2="0" gradientUnits="userSpaceOnUse" gradientTransform="translate(309.57 152.44)"><stop stop-color="#fff" stop-opacity="0"/><stop offset="1" stop-color="#fff" stop-opacity=".2"/></linearGradient></defs><path d="M20 2H8C6.338 2 5 3.338 5 5v22c0 1.662 1.338 3 3 3h16c1.662 0 3-1.338 3-3V9z" fill="#209ae7"/><path style="marker:none" d="M15.1 12.21v1.8h-.956L16 16.11l1.856-2.1H16.9v-1.8z" overflow="visible" fill="#fff" fill-opacity=".75"/><rect y="11.472" x="10.472" ry=".633" rx=".633" height="11.055" width="11.055" fill="none" stroke="#fff" stroke-width=".945" stroke-linecap="round" stroke-linejoin="round" stroke-opacity=".75"/><path d="M15.672 16.41c-.052 0-.084.088-.084.197v.684a1.87 1.87 0 00-.582.244l-.487-.488c-.077-.076-.16-.111-.197-.075l-.46.46c-.036.036-.001.12.076.196l.487.488a1.87 1.87 0 00-.244.581h-.684c-.109 0-.197.033-.197.085v.656c0 .052.088.084.197.084h.684c.048.21.133.406.244.582l-.487.487c-.077.077-.112.16-.075.197l.459.46c.037.036.12.001.197-.076l.487-.487c.176.11.373.196.582.244v.684c0 .108.032.197.084.197h.656c.052 0 .085-.089.085-.197v-.684a1.87 1.87 0 00.58-.244l.488.487c.077.077.16.112.197.075l.46-.46c.036-.036.001-.12-.075-.196l-.488-.487a1.87 1.87 0 00.244-.582h.684c.109 0 .197-.032.197-.084v-.656c0-.052-.088-.085-.197-.085h-.684a1.87 1.87 0 00-.244-.581l.487-.488c.077-.076.112-.16.075-.196l-.459-.46c-.037-.036-.12-.001-.197.075l-.487.488a1.87 1.87 0 00-.582-.244v-.684c0-.109-.032-.197-.084-.197zM16 18.275c.459 0 .834.376.834.835a.837.837 0 01-.834.834.837.837 0 01-.834-.834c0-.459.375-.835.834-.835z" style="marker:none" overflow="visible" fill="#fff" fill-opacity=".75"/><path d="M8 2a2.99 2.99 0 00-2.123.877c-.031.031-.02.09-.05.123H20V2z" color="#000" opacity=".5" fill="#fff"/><path d="M5.826 29c.03.033.02.092.051.123A2.99 2.99 0 008 30h16a2.99 2.99 0 002.123-.877c.031-.031.02-.09.05-.123z" color="#000" opacity=".25"/><path d="M20 2H8C6.338 2 5 3.338 5 5v22c0 1.662 1.338 3 3 3h16c1.662 0 3-1.338 3-3V9z" opacity=".4" fill="url(#b)"/><path d="M27 9l-7-7v7z" color="#000" opacity=".5" fill="#fff" fill-rule="evenodd"/><path d="M20 9l7 7V9z" opacity=".2" fill="url(#c)" fill-rule="evenodd"/></svg>