<svg xmlns="http://www.w3.org/2000/svg" xmlns:xlink="http://www.w3.org/1999/xlink" width="32" height="32"><defs><linearGradient id="c" y1="524.8" x1="404.57" y2="531.8" x2="411.57" gradientUnits="userSpaceOnUse" gradientTransform="translate(-384.57 -515.8)"><stop stop-color="#383e51"/><stop offset="1" stop-color="#655c6f" stop-opacity="0"/></linearGradient><linearGradient xlink:href="#a" id="b" x1="5" y1="30" x2="5" y2="2" gradientUnits="userSpaceOnUse" gradientTransform="translate(-20)"/><linearGradient id="a" y1="392.36" y2="365.36" x2="0" gradientUnits="userSpaceOnUse" gradientTransform="translate(309.57 152.44)"><stop stop-color="#fff" stop-opacity="0"/><stop offset="1" stop-color="#fff" stop-opacity=".2"/></linearGradient></defs><path d="M20 2H8C6.338 2 5 3.338 5 5v22c0 1.662 1.338 3 3 3h16c1.662 0 3-1.338 3-3V9z" fill="#fa4b2d"/><path d="M8 2a2.99 2.99 0 00-2.123.877c-.031.031-.02.09-.05.123H20V2z" color="#000" opacity=".5" fill="#fff"/><path d="M5.826 29c.03.033.02.092.051.123A2.99 2.99 0 008 30h16a2.99 2.99 0 002.123-.877c.031-.031.02-.09.05-.123z" color="#000" opacity=".25"/><path d="M20 2H8C6.338 2 5 3.338 5 5v22c0 1.662 1.338 3 3 3h16c1.662 0 3-1.338 3-3V9z" opacity=".4" fill="url(#b)"/><path d="M27 9l-7-7v7z" fill="#fff" fill-rule="evenodd" opacity=".5"/><path d="M27 16l-7-7h7z" opacity=".2" fill="url(#c)" fill-rule="evenodd"/><path d="M20.98 14l-3.475.629c.05 2.376-2.254 4.03-4.416-.449L9 14.809c.636 2.42 2.921 2.718 4.445 3.991-.762 1.194-4.223.475-4.13 4.2l3.475-.629c-.05-2.376 3.96-4.376 6.122.1l4.089-.629c-.638-2.426-3.066-2.657-4.589-3.937.755-1.734 3.254-.175 2.569-3.904" fill="#fff" opacity=".75"/></svg>