<svg xmlns="http://www.w3.org/2000/svg" xmlns:xlink="http://www.w3.org/1999/xlink" width="32" height="32"><defs><linearGradient id="b" y1="17" x1="47" y2="24" gradientUnits="userSpaceOnUse" x2="54" gradientTransform="translate(-27 -8)"><stop stop-color="#060606"/><stop offset="1" stop-opacity="0"/></linearGradient><linearGradient xlink:href="#a" id="c" x1="5" y1="30" x2="5" y2="2" gradientUnits="userSpaceOnUse" gradientTransform="translate(-20)"/><linearGradient id="a" y1="392.36" y2="365.36" x2="0" gradientUnits="userSpaceOnUse" gradientTransform="translate(309.57 152.44)"><stop stop-color="#fff" stop-opacity="0"/><stop offset="1" stop-color="#fff" stop-opacity=".2"/></linearGradient></defs><path d="M20 2H8C6.338 2 5 3.338 5 5v22c0 1.662 1.338 3 3 3h16c1.662 0 3-1.338 3-3V9z" fill="#383838"/><path d="M8 2c-.391 0-.658.277-1 .412v1.586H5.414c-.135.341-.411.608-.412.998v.002H7v2H5.002v1H7v2H5.002v1H7v2H5.002v1H7v2H5.002v1H7v2H5.002v1H7v2H5.002v1H7v2H5.002v1H7v2H5.412c.135.343.17.733.414 1H7v.59c.34.134.607.41.996.41H8v-1h2v1h1v-1h2v1h1v-1h2v1h1v-1h2v1h1v-1h2v1h1v-1h2v.59c.342-.135.733-.17 1-.414v-.176h.174c.244-.267.279-.657.414-1H26v-2h1v-1h-1v-2h1v-1h-1v-2h1v-1h-1v-2h1v-1h-1v-2h1v-1h-1v-2h1v-1h-1v-2l-1-1h-2v-2l-1-1h-2V2h-1v1.998h-2V2h-1v1.998h-2V2h-1v1.998h-2V2h-1v1.998H8zm0 2.998h2v2H8zm3 0h2v2h-2zm3 0h2v2h-2zm3 0h2v2h-2zm3 0h2v2h-2zm-12 3h2v2H8zm3 0h2v2h-2zm3 0h2v2h-2zm3 0h2v2h-2zm3 0h2v2h-2zm3 0h2v2h-2zm-15 3h2v2H8zm3 0h2v2h-2zm3 0h2v2h-2zm3 0h2v2h-2zm3 0h2v2h-2zm3 0h2v2h-2zm-15 3h2v2H8zm3 0h2v2h-2zm3 0h2v2h-2zm3 0h2v2h-2zm3 0h2v2h-2zm3 0h2v2h-2zm-15 3h2v2H8zm3 0h2v2h-2zm3 0h2v2h-2zm3 0h2v2h-2zm3 0h2v2h-2zm3 0h2v2h-2zm-15 3h2v2H8zm3 0h2v2h-2zm3 0h2v2h-2zm3 0h2v2h-2zm3 0h2v2h-2zm3 0h2v2h-2zm-15 3h2v2H8v-1zm3 0h2v2h-2v-1zm3 0h2v2h-2v-1zm3 0h2v2h-2v-1zm3 0h2v2h-2v-1zm3 0h2v2h-2v-1zm-15 3h2v2H8v-1zm3 0h2v2h-2v-1zm3 0h2v2h-2v-1zm3 0h2v2h-2v-1zm3 0h2v2h-2v-1zm3 0h2v2h-2v-1z" color="#000" opacity=".15" fill="#fff"/><path d="M8 2a2.99 2.99 0 00-2.123.877c-.031.031-.02.09-.05.123H20V2z" color="#000" opacity=".5" fill="#fff"/><path d="M5.826 29c.03.033.02.092.051.123A2.99 2.99 0 008 30h16a2.99 2.99 0 002.123-.877c.031-.031.02-.09.05-.123z" color="#000" opacity=".25"/><path d="M20 9l7 7V9z" opacity=".2" fill="url(#b)" fill-rule="evenodd"/><g color="#000" fill="#afafaf"><path d="M27 9l-7-7v7zM21.83 12.28l-7 .004-2.441 6.691-1.555-2.695h-1v1h.428l2.133 3.693 3.02-7.693h6.42zm-4 2c-1.662 0-3 1.338-3 3a2.993 2.993 0 005 2.225v.775h1v-6h-1v.775a2.98 2.98 0 00-2-.775m0 1c1.108 0 2 .892 2 2s-.892 2-2 2-2-.892-2-2 .892-2 2-2"/></g><path d="M20 2H8C6.338 2 5 3.338 5 5v22c0 1.662 1.338 3 3 3h16c1.662 0 3-1.338 3-3V9z" opacity=".4" fill="url(#c)"/></svg>