<svg xmlns="http://www.w3.org/2000/svg" xmlns:xlink="http://www.w3.org/1999/xlink" width="32" height="32"><defs><linearGradient id="c" y1="524.8" x1="404.57" y2="531.8" x2="411.57" gradientUnits="userSpaceOnUse" gradientTransform="translate(-384.57 -515.8)"><stop stop-color="#383e51"/><stop offset="1" stop-color="#655c6f" stop-opacity="0"/></linearGradient><linearGradient xlink:href="#a" id="b" x1="5" y1="30" x2="5" y2="2" gradientUnits="userSpaceOnUse" gradientTransform="translate(-20)"/><linearGradient id="a" y1="392.36" y2="365.36" x2="0" gradientUnits="userSpaceOnUse" gradientTransform="translate(309.57 152.44)"><stop stop-color="#fff" stop-opacity="0"/><stop offset="1" stop-color="#fff" stop-opacity=".2"/></linearGradient></defs><path d="M20 2H8C6.338 2 5 3.338 5 5v22c0 1.662 1.338 3 3 3h16c1.662 0 3-1.338 3-3V9z" fill="#47cffb"/><path d="M8 2a2.99 2.99 0 00-2.123.877c-.031.031-.02.09-.05.123H20V2z" color="#000" opacity=".5" fill="#fff"/><path d="M5.826 29c.03.033.02.092.051.123A2.99 2.99 0 008 30h16a2.99 2.99 0 002.123-.877c.031-.031.02-.09.05-.123z" color="#000" opacity=".25"/><path d="M20 2H8C6.338 2 5 3.338 5 5v22c0 1.662 1.338 3 3 3h16c1.662 0 3-1.338 3-3V9z" opacity=".4" fill="url(#b)"/><path d="M27 9l-7-7v7z" fill-rule="evenodd" opacity=".4"/><path d="M27 16l-7-7h7z" opacity=".2" fill="url(#c)" fill-rule="evenodd"/><path d="M15.918 10.383c-.247 0-.45.2-.45.447v.408A1.81 1.81 0 0014.1 13c0 .594.283 1.122.726 1.455a.315.315 0 01.076.205.496.496 0 01-.004.067L12.93 18.9h-.815a.242.242 0 00-.242.24c0 .134.11.24.242.24h.588l-1.52 3.224a.529.529 0 00.102.593l-.586 1.19.926-1.002a.537.537 0 00.621-.29l1.752-3.714h1.54v.318a.37.37 0 00.37.367h.02a.37.37 0 00.37-.367v-.318h1.575l1.754 3.715c.11.237.373.353.617.289l.926 1.002-.584-1.19a.531.531 0 00.102-.593l-1.52-3.223h.55a.24.24 0 00.243-.24.242.242 0 00-.242-.24h-.778l-1.968-4.174a.496.496 0 01-.004-.067c0-.077.028-.15.074-.205.443-.333.73-.86.73-1.455 0-.86-.6-1.575-1.406-1.77v-.4c0-.247-.2-.447-.449-.447zm.43 1.648a1.05 1.05 0 01-.412 2.018A1.049 1.049 0 0114.88 13c0-.42.253-.778.613-.945.056.183.22.32.424.32a.443.443 0 00.43-.344zm-.42 3.489H15.946c.056 0 .107.028.138.068l1.562 3.312H16.3v-.388a.369.369 0 00-.371-.367h-.02a.37.37 0 00-.37.367v.388h-1.313l1.562-3.312a.18.18 0 01.14-.068z" opacity=".4"/></svg>