<?xml version="1.0" encoding="UTF-8" standalone="no"?>
<svg
   xmlns:dc="http://purl.org/dc/elements/1.1/"
   xmlns:cc="http://creativecommons.org/ns#"
   xmlns:rdf="http://www.w3.org/1999/02/22-rdf-syntax-ns#"
   xmlns:svg="http://www.w3.org/2000/svg"
   xmlns="http://www.w3.org/2000/svg"
   xmlns:xlink="http://www.w3.org/1999/xlink"
   xmlns:sodipodi="http://sodipodi.sourceforge.net/DTD/sodipodi-0.dtd"
   xmlns:inkscape="http://www.inkscape.org/namespaces/inkscape"
   height="32"
   width="32"
   version="1.1"
   id="svg20"
   sodipodi:docname="application-x-fictionbook+xml.svg"
   inkscape:version="0.92.4 (5da689c313, 2019-01-14)">
  <metadata
     id="metadata26">
    <rdf:RDF>
      <cc:Work
         rdf:about="">
        <dc:format>image/svg+xml</dc:format>
        <dc:type
           rdf:resource="http://purl.org/dc/dcmitype/StillImage" />
        <dc:title></dc:title>
      </cc:Work>
    </rdf:RDF>
  </metadata>
  <defs
     id="defs24">
    <linearGradient
       xlink:href="#a"
       id="c"
       y1="392.35999"
       y2="336.35999"
       gradientUnits="userSpaceOnUse"
       x2="0"
       gradientTransform="matrix(0.5,0,0,0.48276,-7,-159.9)" />
    <linearGradient
       id="a"
       y1="392.35999"
       y2="336.35999"
       gradientUnits="userSpaceOnUse"
       x2="0"
       gradientTransform="translate(268.33,166.62)">
      <stop
         stop-color="#ffffff"
         stop-opacity="0"
         id="stop2" />
      <stop
         offset="1"
         stop-color="#ffffff"
         stop-opacity=".2"
         id="stop4" />
    </linearGradient>
  </defs>
  <sodipodi:namedview
     pagecolor="#ffffff"
     bordercolor="#666666"
     borderopacity="1"
     objecttolerance="10"
     gridtolerance="10"
     guidetolerance="10"
     inkscape:pageopacity="0"
     inkscape:pageshadow="2"
     inkscape:window-width="1366"
     inkscape:window-height="711"
     id="namedview22"
     showgrid="false"
     inkscape:zoom="5.4469319"
     inkscape:cx="31.659004"
     inkscape:cy="16"
     inkscape:window-x="0"
     inkscape:window-y="25"
     inkscape:window-maximized="1"
     inkscape:current-layer="svg20" />
  <g
     id="g878">
    <path
       inkscape:connector-curvature="0"
       id="path862"
       d="M 5,2 V 5.6113281 26.388672 30 h 3.611328 6.462891 8.314453 C 25.389654,30 27,28.389654 27,26.388672 V 5.6113281 C 27,3.6103459 25.389654,2 23.388672,2 H 17.222656 13 8.611328 Z"
       style="color:#000000;color-interpolation:sRGB;color-interpolation-filters:linearRGB;fill:#afdde9;fill-opacity:1;color-rendering:auto;image-rendering:auto;shape-rendering:auto;text-rendering:auto" />
    <rect
       width="1"
       x="8.0000076"
       y="2.9999878"
       height="26"
       id="rect19"
       style="fill:#ffffff;fill-opacity:0.25200004" />
    <rect
       style="color:#000000;color-interpolation:sRGB;color-interpolation-filters:linearRGB;fill-opacity:0.05899999;color-rendering:auto;image-rendering:auto;shape-rendering:auto;text-rendering:auto"
       id="rect21"
       height="26"
       width="1"
       y="2.9999878"
       x="9.0000076" />
    <path
       inkscape:connector-curvature="0"
       id="path905"
       d="m 27,25.234375 c 0,0.500245 -0.100968,0.975845 -0.283203,1.408203 -0.182235,0.432358 -0.44513,0.822083 -0.771485,1.148438 -0.326354,0.326354 -0.716079,0.589249 -1.148437,0.771484 -0.432358,0.182235 -0.907958,0.283203 -1.408203,0.283203 H 15.074219 8.611328 5 V 30 h 3.611328 6.462891 8.314453 C 25.389654,30 27,28.389654 27,26.388672 Z"
       style="color:#000000;opacity:0.25;color-interpolation:sRGB;color-interpolation-filters:linearRGB;fill:#000000;color-rendering:auto;image-rendering:auto;shape-rendering:auto;text-rendering:auto" />
    <path
       inkscape:connector-curvature="0"
       id="path862-3"
       d="M 5,2 V 3.0136719 H 8.611328 13 h 4.222656 6.166016 c 0.500245,0 0.975845,0.1009678 1.408203,0.2832031 0.432358,0.1822353 0.822083,0.4451297 1.148437,0.7714844 0.326355,0.3263546 0.58925,0.7160794 0.771485,1.1484375 C 26.899032,5.6491549 27,6.1247545 27,6.625 V 5.6113281 C 27,3.6103459 25.389654,2 23.388672,2 H 17.222656 13 8.611328 Z"
       style="color:#000000;opacity:0.5;color-interpolation:sRGB;color-interpolation-filters:linearRGB;fill:#ffffff;color-rendering:auto;image-rendering:auto;shape-rendering:auto;text-rendering:auto" />
    <path
       id="path12"
       fill-rule="evenodd"
       d="m14 21 .000365-9.971033.999635-.028967v2l1.499404.02734c.499917.0091.5.486.5.486l-.000365 6.999033c-.000025.486-.5.486-.5.486z" />
    <path
       id="path14"
       fill="#f90"
       d="m22 12 4 4-4 4-4-4z" />
    <path
       id="path16"
       fill-rule="evenodd"
       d="m11 21-.000365-6.9995h-.5v-.972h.5l.000365-1.5145s0 .486 0 0c0-.4855.5-.4855.5-.4855h1.5v.9715l-1 .0005-.000365 1.0285 1-.0005v.9715l-1 .0005.000365 6.9995z" />
    <path
       id="path18"
       opacity=".99"
       fill="#afdde9"
       d="m15.000306 13.685719h.999694v6.314281h-.999694z" />
    <path
       d="M 5,2 V 30 H 27 V 2 h -7 z"
       id="path29"
       style="color:#000000;color-interpolation:sRGB;color-interpolation-filters:linearRGB;fill:url(#c);color-rendering:auto;image-rendering:auto;shape-rendering:auto;text-rendering:auto"
       inkscape:connector-curvature="0" />
  </g>
</svg>
