<?xml version="1.0" encoding="UTF-8" standalone="no"?>
<svg
   xmlns:dc="http://purl.org/dc/elements/1.1/"
   xmlns:cc="http://creativecommons.org/ns#"
   xmlns:rdf="http://www.w3.org/1999/02/22-rdf-syntax-ns#"
   xmlns:svg="http://www.w3.org/2000/svg"
   xmlns="http://www.w3.org/2000/svg"
   xmlns:xlink="http://www.w3.org/1999/xlink"
   xmlns:sodipodi="http://sodipodi.sourceforge.net/DTD/sodipodi-0.dtd"
   xmlns:inkscape="http://www.inkscape.org/namespaces/inkscape"
   width="32"
   height="32"
   version="1.1"
   id="svg29"
   sodipodi:docname="application-pdf.svg"
   inkscape:version="0.92.4 (5da689c313, 2019-01-14)">
  <metadata
     id="metadata33">
    <rdf:RDF>
      <cc:Work
         rdf:about="">
        <dc:format>image/svg+xml</dc:format>
        <dc:type
           rdf:resource="http://purl.org/dc/dcmitype/StillImage" />
        <dc:title></dc:title>
      </cc:Work>
    </rdf:RDF>
  </metadata>
  <sodipodi:namedview
     pagecolor="#ffffff"
     bordercolor="#666666"
     borderopacity="1"
     objecttolerance="10"
     gridtolerance="10"
     guidetolerance="10"
     inkscape:pageopacity="0"
     inkscape:pageshadow="2"
     inkscape:window-width="1366"
     inkscape:window-height="711"
     id="namedview31"
     showgrid="false"
     inkscape:zoom="3.8515625"
     inkscape:cx="16"
     inkscape:cy="16"
     inkscape:window-x="0"
     inkscape:window-y="25"
     inkscape:window-maximized="1"
     inkscape:current-layer="svg29" />
  <defs
     id="defs7">
    <linearGradient
       id="a"
       y1="392.36"
       y2="365.2"
       x2="0"
       gradientUnits="userSpaceOnUse"
       gradientTransform="translate(-9,-363.36)">
      <stop
         stop-color="#ffffff"
         stop-opacity="0"
         id="stop2" />
      <stop
         offset="1"
         stop-color="#ffffff"
         stop-opacity=".2"
         id="stop4" />
    </linearGradient>
    <linearGradient
       xlink:href="#a-3"
       id="c"
       y1="392.35999"
       y2="336.35999"
       gradientUnits="userSpaceOnUse"
       x2="0"
       gradientTransform="matrix(0.5,0,0,0.48276,-7,-159.9)" />
    <linearGradient
       id="a-3"
       y1="392.35999"
       y2="336.35999"
       gradientUnits="userSpaceOnUse"
       x2="0"
       gradientTransform="translate(268.33,166.62)">
      <stop
         stop-color="#ffffff"
         stop-opacity="0"
         id="stop2-6" />
      <stop
         offset="1"
         stop-color="#ffffff"
         stop-opacity=".2"
         id="stop4-7" />
    </linearGradient>
  </defs>
  <g
     id="g909">
    <path
       inkscape:connector-curvature="0"
       id="path862"
       d="M 5,2 V 5.6113281 26.388672 30 h 3.611328 6.462891 8.314453 C 25.389654,30 27,28.389654 27,26.388672 V 5.6113281 C 27,3.6103459 25.389654,2 23.388672,2 H 17.222656 13 8.611328 Z"
       style="color:#000000;color-interpolation:sRGB;color-interpolation-filters:linearRGB;fill:#da2c2c;fill-opacity:1;color-rendering:auto;image-rendering:auto;shape-rendering:auto;text-rendering:auto" />
    <path
       inkscape:connector-curvature="0"
       id="path905"
       d="m 27,25.234375 c 0,0.500245 -0.100968,0.975845 -0.283203,1.408203 -0.182235,0.432358 -0.44513,0.822083 -0.771485,1.148438 -0.326354,0.326354 -0.716079,0.589249 -1.148437,0.771484 -0.432358,0.182235 -0.907958,0.283203 -1.408203,0.283203 H 15.074219 8.611328 5 V 30 h 3.611328 6.462891 8.314453 C 25.389654,30 27,28.389654 27,26.388672 Z"
       style="color:#000000;opacity:0.25;color-interpolation:sRGB;color-interpolation-filters:linearRGB;fill:#000000;color-rendering:auto;image-rendering:auto;shape-rendering:auto;text-rendering:auto" />
    <path
       inkscape:connector-curvature="0"
       id="path862-3"
       d="M 5,2 V 3.0136719 H 8.611328 13 h 4.222656 6.166016 c 0.500245,0 0.975845,0.1009678 1.408203,0.2832031 0.432358,0.1822353 0.822083,0.4451297 1.148437,0.7714844 0.326355,0.3263546 0.58925,0.7160794 0.771485,1.1484375 C 26.899032,5.6491549 27,6.1247545 27,6.625 V 5.6113281 C 27,3.6103459 25.389654,2 23.388672,2 H 17.222656 13 8.611328 Z"
       style="color:#000000;opacity:0.5;color-interpolation:sRGB;color-interpolation-filters:linearRGB;fill:#ffffff;color-rendering:auto;image-rendering:auto;shape-rendering:auto;text-rendering:auto" />
    <rect
       width="1"
       x="8.0000076"
       y="2.9999878"
       height="26"
       id="rect17"
       style="fill:#ffffff;fill-opacity:0.25200004" />
    <rect
       style="color:#000000;color-interpolation:sRGB;color-interpolation-filters:linearRGB;fill-opacity:0.08299997;color-rendering:auto;image-rendering:auto;shape-rendering:auto;text-rendering:auto"
       id="rect19"
       height="26"
       width="1"
       y="2.9999878"
       x="9.0000076" />
    <path
       style="color:#000000;opacity:0.8;color-interpolation:sRGB;color-interpolation-filters:linearRGB;fill:#ffffff;color-rendering:auto;image-rendering:auto;shape-rendering:auto;text-rendering:auto"
       inkscape:connector-curvature="0"
       id="path21"
       d="m 13.86,10 c -0.162,0.01 -0.336,0 -0.527,0.132 -1.705,0.734 -0.561,2.747 1.612,4.279 0.013,-0.289 0.133,-0.917 0.13,-1.194 -1.854,-1.271 -2.939,-2.509 -1.757,-2.999 1.246,-0.517 1.633,0.895 1.655,2.944 0.116,0.12 0.92,0.654 1.042,0.739 -0.045,-1.869 -1.039,-3.777 -1.993,-3.885 -0.051,-0.01 -0.107,-0.01 -0.161,-0.01 m 1.736,3.252 -0.388,-0.151 -0.322,0.217 -0.065,0.682 0.406,0.312 0.169,0.226 c 1.251,0.83 2.317,1.469 3.718,1.997 l 0.874,0.13 h 0.575 c 0.53,-0.313 0.214,-0.433 2.141,-0.673 l -2.171,0.168 c -1.675,-0.649 -3.385,-1.582 -4.94,-2.6 m 3.822,2.72 c 0.251,0 2.211,-0.17 2.99,-0.242 0.772,-0.12 1.719,-0.156 1.54,0.746 0.204,-0.481 -0.261,-1.298 -0.922,-1.442 -1.023,-0.229 -2.646,0.398 -3.229,0.591 m 0.94,0.25 c -0.304,0.12 -0.999,0.207 -1.327,0.316 0.465,0.241 2.802,1.103 3.766,0.923 0.154,0 0.805,-0.468 0.821,-0.805 -0.05,0.613 -2.906,0.156 -3.26,-0.445 m 0.635,0.011 c -0.25,-0.12 -1.422,-0.114 -1.681,-0.211 -1.468,0.513 -3.442,1.719 -4.855,2.532 l -0.409,0.12 c -0.079,0.561 -0.425,0.755 -0.74,1.118 l 0.478,0.481 0.374,-0.613 c 1.654,-0.998 4.924,-2.611 6.832,-3.386 m -6.832,3.386 c -0.202,0.12 -0.395,0.241 -0.578,0.361 -0.424,1.204 -0.919,2.01 -1.391,1.98 0.729,0.349 2.301,-1.37 2.83,-2.986 m -2.83,2.986 c -1.113,-0.661 1.243,-1.867 1.77,-2.217 0.119,-0.337 -0.206,-0.895 -0.1,-1.292 -1.661,1.034 -2.643,2.531 -2.086,3.24 0.134,0.168 0.276,0.253 0.417,0.265 m 1.617,-2.52 c 0.077,-0.31 1.103,-1.015 1.289,-1.123 0.248,-1.954 0.26,-2.147 0.471,-3.666 -0.126,-0.12 -0.902,-0.725 -1.022,-0.809 -0.149,1.624 -0.429,3.824 -0.826,5.293" />
    <path
       d="M 5,2 V 30 H 27 V 2 h -7 z"
       id="path29"
       style="color:#000000;color-interpolation:sRGB;color-interpolation-filters:linearRGB;fill:url(#c);color-rendering:auto;image-rendering:auto;shape-rendering:auto;text-rendering:auto"
       inkscape:connector-curvature="0" />
  </g>
</svg>
