<svg xmlns="http://www.w3.org/2000/svg" xmlns:xlink="http://www.w3.org/1999/xlink" height="32" width="32"><defs><linearGradient y2="3" y1="61" x2="0" gradientUnits="userSpaceOnUse" gradientTransform="matrix(.5 0 0 -.48276 8 31.45)" id="a"><stop offset="0" stop-color="#f9a11f"/><stop offset="1" stop-color="#f39c12"/></linearGradient><linearGradient xlink:href="#a" id="b" x1="5" y1="30" x2="5" y2="2" gradientUnits="userSpaceOnUse" gradientTransform="translate(-20)"/></defs><linearGradient id="c" gradientUnits="userSpaceOnUse" x2="0" y1="518.04" y2="524.8"><stop offset="0" stop-color="#fddda3"/><stop offset="1" stop-color="#fde3a7"/></linearGradient><linearGradient id="d" gradientUnits="userSpaceOnUse" x1="404.57" x2="411.57" y1="524.8" y2="531.8"><stop offset="0" stop-color="#383e51"/><stop offset="1" stop-color="#655c6f" stop-opacity="0"/></linearGradient><path d="M20 2H8C6.338 2 5 3.338 5 5v22c0 1.662 1.338 3 3 3h16c1.662 0 3-1.338 3-3V9z" fill="url(#b)"/><path d="M8 2a2.99 2.99 0 00-2.123.877c-.031.031-.02.09-.05.123H20V2z" color="#000" opacity=".5" fill="#fff"/><path d="M5.826 29c.03.033.02.092.051.123A2.99 2.99 0 008 30h16a2.99 2.99 0 002.123-.877c.031-.031.02-.09.05-.123z" color="#000" opacity=".25"/><g fill-rule="evenodd"><path d="M411.57 524.8l-7-7v7z" fill="url(#c)" transform="translate(-384.57 -515.8)"/><path d="M411.57 531.8l-7-7h7z" fill="url(#d)" opacity=".2" transform="translate(-384.57 -515.8)"/></g><g fill="#fddda3"><path d="M15 12c-1.108 0-2 .892-2 2h3v1h-4c-1.108 0-2 .892-2 2v2c0 1.108.892 2 2 2v-1c0-.889.39-1.676 1-2.225l.002-.002a3.02 3.02 0 01.426-.32s.003 0 .004-.002c.149-.093.305-.172.47-.238.03-.012.062-.02.092-.03.14-.05.285-.096.434-.126.186-.036.377-.057.574-.057h4v-3c0-1.108-.892-2-2-2zm0 .5a.499.499 0 110 1 .499.499 0 110-1zM20 18l-1.5 1.5.707.707.793-.793V23h-1v1h3v-1h-1v-5z"/><path d="M16 18a1.79 1.79 0 00-1.475.8c-.352.523-.525 1.244-.525 2.2 0 .956.173 1.677.525 2.2.353.521.917.8 1.475.8a1.79 1.79 0 001.475-.8c.352-.523.525-1.244.525-2.2 0-.956-.173-1.677-.525-2.2A1.79 1.79 0 0016 18zm0 1c.27 0 .456.078.646.36.035.05.066.12.098.189l-1.73 1.73C15.009 21.186 15 21.102 15 21c0-.83.163-1.359.354-1.64.19-.282.375-.36.646-.36zm.986 1.72c.005.094.014.178.014.28 0 .83-.163 1.359-.354 1.64-.19.282-.375.36-.646.36-.27 0-.456-.078-.646-.36-.035-.05-.066-.12-.098-.189z"/></g></svg>