<?xml version="1.0" encoding="UTF-8" standalone="no"?>
<svg
   xmlns:dc="http://purl.org/dc/elements/1.1/"
   xmlns:cc="http://creativecommons.org/ns#"
   xmlns:rdf="http://www.w3.org/1999/02/22-rdf-syntax-ns#"
   xmlns:svg="http://www.w3.org/2000/svg"
   xmlns="http://www.w3.org/2000/svg"
   xmlns:xlink="http://www.w3.org/1999/xlink"
   xmlns:sodipodi="http://sodipodi.sourceforge.net/DTD/sodipodi-0.dtd"
   xmlns:inkscape="http://www.inkscape.org/namespaces/inkscape"
   width="32"
   height="32"
   version="1.1"
   id="svg23"
   sodipodi:docname="application-ogg.svg"
   inkscape:version="0.92.4 (5da689c313, 2019-01-14)">
  <metadata
     id="metadata27">
    <rdf:RDF>
      <cc:Work
         rdf:about="">
        <dc:format>image/svg+xml</dc:format>
        <dc:type
           rdf:resource="http://purl.org/dc/dcmitype/StillImage" />
        <dc:title></dc:title>
      </cc:Work>
    </rdf:RDF>
  </metadata>
  <sodipodi:namedview
     pagecolor="#ffffff"
     bordercolor="#666666"
     borderopacity="1"
     objecttolerance="10"
     gridtolerance="10"
     guidetolerance="10"
     inkscape:pageopacity="0"
     inkscape:pageshadow="2"
     inkscape:window-width="1366"
     inkscape:window-height="711"
     id="namedview25"
     showgrid="false"
     inkscape:zoom="5.4469319"
     inkscape:cx="32.71751"
     inkscape:cy="16"
     inkscape:window-x="0"
     inkscape:window-y="25"
     inkscape:window-maximized="1"
     inkscape:current-layer="svg23" />
  <defs
     id="defs7">
    <linearGradient
       id="a"
       y1="29.831"
       x1="16.78"
       y2="2"
       x2="16.847"
       gradientUnits="userSpaceOnUse"
       gradientTransform="translate(-6)">
      <stop
         stop-color="#ffffff"
         stop-opacity="0"
         id="stop2" />
      <stop
         offset="1"
         stop-color="#ffffff"
         stop-opacity=".2"
         id="stop4" />
    </linearGradient>
    <linearGradient
       inkscape:collect="always"
       xlink:href="#a-3"
       id="linearGradient868"
       x1="1.8732668"
       y1="30.194059"
       x2="1.9127746"
       y2="2.1861386"
       gradientUnits="userSpaceOnUse"
       gradientTransform="translate(39.999245)" />
    <linearGradient
       id="a-3"
       y1="292.76999"
       y2="267.37"
       gradientUnits="userSpaceOnUse"
       x2="0"
       gradientTransform="matrix(0.96206,0,0,1.10236,382.5,223.06)">
      <stop
         stop-color="#ffffff"
         stop-opacity="0"
         id="stop2-6" />
      <stop
         offset="1"
         stop-color="#ffffff"
         stop-opacity=".2"
         id="stop4-7" />
    </linearGradient>
  </defs>
  <g
     id="g881"
     transform="translate(-40)">
    <path
       d="M 58.546205,2.873 A 11.45454,13.125 0 0 0 47.091675,15.998 11.45454,13.125 0 0 0 58.546205,29.123 11.45454,13.125 0 0 0 70.000755,15.998 11.45454,13.125 0 0 0 58.546205,2.873 m 0,9.33334 a 3.309086,3.791661 0 0 1 3.3091,3.79166 3.309086,3.791661 0 0 1 -3.3091,3.79167 3.309086,3.791661 0 0 1 -3.30908,-3.79167 3.309086,3.791661 0 0 1 3.30908,-3.79166 m 0,0.875 a 2.54545,2.916661 0 0 0 -2.54545,2.91666 2.54545,2.916661 0 0 0 2.54545,2.91667 2.54545,2.916661 0 0 0 2.54547,-2.91667 2.54545,2.916661 0 0 0 -2.54547,-2.91666 m 0,1.45833 a 1.272722,1.458328 0 0 1 1.27274,1.45833 1.272722,1.458328 0 0 1 -1.27274,1.45834 1.272722,1.458328 0 0 1 -1.27272,-1.45834 1.272722,1.458328 0 0 1 1.27272,-1.45833"
       id="path10"
       inkscape:connector-curvature="0"
       style="fill:#fbeaab;fill-opacity:1" />
    <path
       id="path887"
       d="M 44.518776,2 C 43.122314,2 41.999245,3.1250224 41.999245,4.5214844 V 27.478516 C 41.999245,28.874978 43.122314,30 44.518776,30 h 8.390625 2.408203 11.117188 V 18.052734 l -2.201172,0.01563 c -0.51631,0.004 -0.981453,-0.200832 -1.318359,-0.535156 -0.336907,-0.334323 -0.544922,-0.798127 -0.544922,-1.314453 v -0.373047 c 0,-0.516326 0.208015,-0.984709 0.544922,-1.324219 0.336906,-0.339509 0.802049,-0.550713 1.318359,-0.554687 l 2.201172,-0.01563 V 2 H 55.317604 52.909401 Z"
       style="opacity:1;fill:#f9d24c;fill-opacity:1;fill-rule:nonzero;stroke:none;stroke-width:2;stroke-linejoin:miter;stroke-miterlimit:4;stroke-dasharray:none;stroke-opacity:1"
       inkscape:connector-curvature="0" />
    <path
       d="m 49.999245,11 v 8.281 c -0.295,-0.171 -0.635,-0.281 -1,-0.281 -1.105,0 -2,0.895 -2,2 0,1.105 0.895,2 2,2 1.105,0 2,-0.895 2,-2 v -7 h 7 v 4.281 c -0.295,-0.171 -0.635,-0.281 -1,-0.281 -1.105,0 -2,0.895 -2,2 0,1.105 0.895,2 2,2 1.105,0 2,-0.895 2,-2 v -9 z m 1,1 h 7 v 1 h -7 z"
       id="path14"
       inkscape:connector-curvature="0"
       style="opacity:0.75;fill:#ffffff" />
    <path
       inkscape:connector-curvature="0"
       id="path887-6-5"
       d="m 44.518776,2 c -1.396462,0 -2.519531,1.1250224 -2.519531,2.5214844 v 0.8867187 c 0,-0.698231 0.281003,-1.3273898 0.736328,-1.7832031 0.455325,-0.4558134 1.084972,-0.7382812 1.783203,-0.7382812 h 8.390625 2.408203 11.085938 V 2 H 55.317604 52.909401 Z"
       style="opacity:1;fill:#ffffff;fill-opacity:0.41176471;fill-rule:nonzero;stroke:none;stroke-width:2;stroke-linejoin:miter;stroke-miterlimit:4;stroke-dasharray:none;stroke-opacity:1" />
    <path
       id="path942"
       d="M 66.403542,28.986328 H 55.286354 52.878151 44.487526 c -0.698231,0 -1.327878,-0.280515 -1.783203,-0.736328 -0.435912,-0.436379 -0.682342,-1.046249 -0.705078,-1.708984 v 0.9375 C 41.999245,28.874978 43.122314,30 44.518776,30 h 8.390625 2.408203 11.117188 v -1.013672 z"
       style="opacity:1;fill:#2e3132;fill-opacity:0.29411765;fill-rule:nonzero;stroke:none;stroke-width:2;stroke-linejoin:miter;stroke-miterlimit:4;stroke-dasharray:none;stroke-opacity:1"
       inkscape:connector-curvature="0" />
    <path
       id="path887-3"
       d="M 44.518776,2 C 43.122314,2 41.999245,3.125022 41.999245,4.521484 V 27.478516 C 41.999245,28.874978 43.122314,30 44.518776,30 h 8.390625 2.408203 11.117188 V 18.052734 l -2.201172,0.01563 c -0.51631,0.004 -0.981453,-0.200832 -1.318359,-0.535156 -0.336907,-0.334323 -0.544922,-0.798127 -0.544922,-1.314453 v -0.373047 c 0,-0.516326 0.208015,-0.984709 0.544922,-1.324219 0.336906,-0.339509 0.802049,-0.550713 1.318359,-0.554687 l 2.201172,-0.01563 V 2 H 55.317604 52.909401 Z"
       style="opacity:1;fill:url(#linearGradient868);fill-opacity:1;fill-rule:nonzero;stroke:none;stroke-width:2;stroke-linejoin:miter;stroke-miterlimit:4;stroke-dasharray:none;stroke-opacity:1"
       inkscape:connector-curvature="0" />
  </g>
</svg>
