<svg xmlns="http://www.w3.org/2000/svg" xmlns:xlink="http://www.w3.org/1999/xlink" width="32" height="32"><defs><linearGradient id="c" y1="524.8" x1="404.57" y2="531.8" x2="411.57" gradientUnits="userSpaceOnUse" gradientTransform="translate(-384.57 -515.8)"><stop/><stop offset="1" stop-opacity="0"/></linearGradient><linearGradient xlink:href="#a" id="b" x1="5" y1="30" x2="5" y2="2" gradientUnits="userSpaceOnUse" gradientTransform="translate(-20)"/><linearGradient id="a" y1="392.36" y2="365.36" x2="0" gradientUnits="userSpaceOnUse" gradientTransform="translate(309.57 152.44)"><stop stop-color="#fff" stop-opacity="0"/><stop offset="1" stop-color="#fff" stop-opacity=".2"/></linearGradient></defs><path d="M20 2H8C6.338 2 5 3.338 5 5v22c0 1.662 1.338 3 3 3h16c1.662 0 3-1.338 3-3V9z" fill="#483737"/><g color="#000" fill="#fff"><path opacity=".14" fill-opacity=".349" d="M23 10h1v3h-1z"/><path opacity=".14" d="M24 10h3v3h-3z"/><path opacity=".14" fill-opacity=".531" d="M24 13h3v3h-3z"/><path opacity=".14" fill-opacity=".722" d="M23 13h1v3h-1z"/><path opacity=".14" d="M14 2v2h-3V2z"/><path opacity=".14" fill-opacity=".531" d="M17 2v2h-3V2z"/><path opacity=".14" fill-opacity=".211" d="M20 2v2h-3V2z"/><path d="M5 25v2a2.99 2.99 0 003 3v-5H5zM8 2a2.99 2.99 0 00-3 3v2h3V2z" opacity=".14" fill-opacity=".531"/><path opacity=".14" fill-opacity=".722" d="M11 2H8v2h3z"/><path opacity=".14" fill-opacity=".349" d="M5 16h3v-3H5z"/><path opacity=".14" d="M5 13h3v-3H5z"/><path opacity=".14" fill-opacity=".349" d="M5 10h3V7H5z"/><path opacity=".14" d="M8 7h3V4H8z"/><path opacity=".14" fill-opacity=".531" d="M8 10h3V7H8z"/><path opacity=".14" fill-opacity=".211" d="M8 13h3v-3H8z"/><path opacity=".14" fill-opacity=".722" d="M8 16h3v-3H8z"/><path opacity=".14" fill-opacity=".349" d="M23 10v3h-3v-3z"/><path opacity=".14" d="M20 10v3h-3v-3z"/><path opacity=".14" fill-opacity=".722" d="M20 7v3h-3V7z"/><path opacity=".14" fill-opacity=".531" d="M20 4v3h-3V4z"/><path opacity=".14" fill-opacity=".349" d="M17 4v3h-3V4z"/><path opacity=".14" d="M17 7v3h-3V7z"/><path opacity=".14" fill-opacity=".349" d="M17 10v3h-3v-3z"/><path opacity=".14" fill-opacity=".211" d="M14 10v3h-3v-3z"/><path opacity=".14" fill-opacity=".531" d="M14 7v3h-3V7z"/><path opacity=".14" fill-opacity=".722" d="M14 4v3h-3V4z"/><path opacity=".14" d="M14 13v3h-3v-3z"/><path opacity=".14" fill-opacity=".531" d="M17 13v3h-3v-3z"/><path opacity=".14" fill-opacity=".211" d="M20 13v3h-3v-3z"/><path opacity=".14" fill-opacity=".722" d="M23 13v3h-3v-3z"/><g><path opacity=".14" fill-opacity=".349" d="M27 28h-3v-3h3z"/><path opacity=".14" d="M27 25h-3v-3h3z"/><path opacity=".14" fill-opacity=".349" d="M27 22h-3v-3h3z"/><path opacity=".14" fill-opacity=".211" d="M27 19h-3v-3h3z"/><path opacity=".14" d="M24 19h-1v-3h1z"/><path opacity=".14" fill-opacity=".531" d="M24 22h-1v-3h1z"/><path opacity=".14" fill-opacity=".211" d="M24 25h-1v-3h1z"/><path opacity=".14" fill-opacity=".722" d="M24 28h-1v-3h1z"/></g><g><path opacity=".14" d="M23 16v3h-3v-3z"/><path opacity=".14" fill-opacity=".531" d="M23 19v3h-3v-3z"/><path opacity=".14" fill-opacity=".349" d="M23 22v3h-3v-3z"/><path opacity=".14" d="M20 22v3h-3v-3z"/><path opacity=".14" fill-opacity=".722" d="M20 19v3h-3v-3z"/><path opacity=".14" fill-opacity=".531" d="M20 16v3h-3v-3z"/><path opacity=".14" fill-opacity=".349" d="M17 16v3h-3v-3z"/><path opacity=".14" d="M17 19v3h-3v-3z"/><path opacity=".14" fill-opacity=".349" d="M17 22v3h-3v-3z"/><path opacity=".14" fill-opacity=".211" d="M14 22v3h-3v-3z"/><path opacity=".14" fill-opacity=".531" d="M14 19v3h-3v-3z"/><path opacity=".14" fill-opacity=".722" d="M14 16v3h-3v-3z"/><path opacity=".14" d="M14 25v3h-3v-3z"/><path opacity=".14" fill-opacity=".531" d="M17 25v3h-3v-3z"/><path opacity=".14" fill-opacity=".211" d="M20 25v3h-3v-3z"/><path opacity=".14" fill-opacity=".722" d="M23 25v3h-3v-3z"/></g><path opacity=".14" d="M11 16H8v3h3z"/><path opacity=".14" fill-opacity=".531" d="M8 16H5v3h3z"/><path opacity=".14" fill-opacity=".722" d="M8 19H5v3h3z"/><path opacity=".14" fill-opacity=".531" d="M11 19H8v3h3z"/><path opacity=".14" fill-opacity=".349" d="M11 22H8v3h3z"/><path opacity=".14" d="M8 22H5v3h3z"/><path opacity=".14" fill-opacity=".722" d="M11 25H8v3h3zM8 28h3v2H8z"/><g><path opacity=".14" d="M14 30v-2h-3v2z"/><path opacity=".14" fill-opacity=".531" d="M17 30v-2h-3v2z"/><path opacity=".14" fill-opacity=".211" d="M20 30v-2h-3v2z"/><path opacity=".14" fill-opacity=".722" d="M23 30v-2h-3v2z"/></g></g><path d="M16 10c-1.662 0-3 1.338-3 3v3h-2v6h10v-6h-2v-3c0-1.662-1.338-3-3-3m0 1c1.247 0 2 .546 2 2v3h-4v-3c0-1.454.754-2 2-2" fill="#ddd"/><path d="M8 2a2.99 2.99 0 00-2.123.877c-.031.031-.02.09-.05.123H20V2z" color="#000" opacity=".5" fill="#fff"/><path d="M5.826 29c.03.033.02.092.051.123A2.99 2.99 0 008 30h16a2.99 2.99 0 002.123-.877c.031-.031.02-.09.05-.123z" color="#000" opacity=".25"/><path d="M20 2H8C6.338 2 5 3.338 5 5v22c0 1.662 1.338 3 3 3h16c1.662 0 3-1.338 3-3V9z" opacity=".4" fill="url(#b)"/><path d="M27 9l-7-7v7z" color="#000" opacity=".5" fill="#fff" fill-rule="evenodd"/><path d="M27 16l-7-7h7z" opacity=".5" fill="url(#c)" fill-rule="evenodd"/></svg>