<?xml version="1.0" encoding="UTF-8" standalone="no"?>
<svg
   xmlns:dc="http://purl.org/dc/elements/1.1/"
   xmlns:cc="http://creativecommons.org/ns#"
   xmlns:rdf="http://www.w3.org/1999/02/22-rdf-syntax-ns#"
   xmlns:svg="http://www.w3.org/2000/svg"
   xmlns="http://www.w3.org/2000/svg"
   xmlns:xlink="http://www.w3.org/1999/xlink"
   xmlns:sodipodi="http://sodipodi.sourceforge.net/DTD/sodipodi-0.dtd"
   xmlns:inkscape="http://www.inkscape.org/namespaces/inkscape"
   width="32"
   height="32"
   version="1.1"
   id="svg24"
   sodipodi:docname="audio-x-flac2.svg"
   inkscape:version="0.92.4 (5da689c313, 2019-01-14)">
  <metadata
     id="metadata28">
    <rdf:RDF>
      <cc:Work
         rdf:about="">
        <dc:format>image/svg+xml</dc:format>
        <dc:type
           rdf:resource="http://purl.org/dc/dcmitype/StillImage" />
        <dc:title></dc:title>
      </cc:Work>
    </rdf:RDF>
  </metadata>
  <sodipodi:namedview
     pagecolor="#ffffff"
     bordercolor="#666666"
     borderopacity="1"
     objecttolerance="10"
     gridtolerance="10"
     guidetolerance="10"
     inkscape:pageopacity="0"
     inkscape:pageshadow="2"
     inkscape:window-width="1366"
     inkscape:window-height="711"
     id="namedview26"
     showgrid="false"
     showguides="true"
     inkscape:guide-bbox="true"
     inkscape:zoom="9.1301146"
     inkscape:cx="1.344203"
     inkscape:cy="17.116185"
     inkscape:window-x="0"
     inkscape:window-y="25"
     inkscape:window-maximized="1"
     inkscape:current-layer="svg24" />
  <defs
     id="defs8">
    <linearGradient
       id="a"
       y1="292.77"
       y2="267.37"
       gradientUnits="userSpaceOnUse"
       x2="0"
       gradientTransform="matrix(0.96206,0,0,1.10236,382.5,223.06)">
      <stop
         stop-color="#ffffff"
         stop-opacity="0"
         id="stop2" />
      <stop
         offset="1"
         stop-color="#ffffff"
         stop-opacity=".2"
         id="stop4" />
    </linearGradient>
    <path
       id="b"
       d="m386.57 517.8v28h24.436v-11.958h-2.291c-.987 0-1.782-.911-1.782-2.042 0-1.131.795-2.042 1.782-2.042h2.291v-11.958z" />
    <linearGradient
       inkscape:collect="always"
       xlink:href="#a"
       id="linearGradient868"
       x1="1.8732668"
       y1="30.194059"
       x2="1.9127746"
       y2="2.1861386"
       gradientUnits="userSpaceOnUse" />
    <linearGradient
       id="a-6"
       y1="292.76999"
       y2="267.37"
       gradientUnits="userSpaceOnUse"
       x2="0"
       gradientTransform="matrix(0.96206,0,0,1.10236,382.5,223.06)">
      <stop
         stop-color="#ffffff"
         stop-opacity="0"
         id="stop2-7" />
      <stop
         offset="1"
         stop-color="#ffffff"
         stop-opacity=".2"
         id="stop4-5" />
    </linearGradient>
    <linearGradient
       id="linearGradient850"
       y1="292.76999"
       y2="267.37"
       gradientUnits="userSpaceOnUse"
       x2="0"
       gradientTransform="matrix(0.96206,0,0,1.10236,382.5,223.06)">
      <stop
         stop-color="#ffffff"
         stop-opacity="0"
         id="stop846" />
      <stop
         offset="1"
         stop-color="#ffffff"
         stop-opacity=".2"
         id="stop848" />
    </linearGradient>
    <linearGradient
       id="a-62"
       y1="292.76999"
       y2="267.37"
       gradientUnits="userSpaceOnUse"
       x2="0"
       gradientTransform="matrix(0.96206,0,0,1.10236,382.5,223.06)">
      <stop
         stop-color="#ffffff"
         stop-opacity="0"
         id="stop2-9" />
      <stop
         offset="1"
         stop-color="#ffffff"
         stop-opacity=".2"
         id="stop4-1" />
    </linearGradient>
    <linearGradient
       id="linearGradient850-2"
       y1="292.76999"
       y2="267.37"
       gradientUnits="userSpaceOnUse"
       x2="0"
       gradientTransform="matrix(0.96206,0,0,1.10236,382.5,223.06)">
      <stop
         stop-color="#ffffff"
         stop-opacity="0"
         id="stop846-7" />
      <stop
         offset="1"
         stop-color="#ffffff"
         stop-opacity=".2"
         id="stop848-0" />
    </linearGradient>
  </defs>
  <g
     id="g1001">
    <path
       d="M 18.54696,2.873 A 11.45454,13.125 0 0 0 7.09243,15.998 11.45454,13.125 0 0 0 18.54696,29.123 11.45454,13.125 0 0 0 30.00151,15.998 11.45454,13.125 0 0 0 18.54696,2.873 m 0,9.33334 a 3.309086,3.791661 0 0 1 3.3091,3.79166 3.309086,3.791661 0 0 1 -3.3091,3.79167 3.309086,3.791661 0 0 1 -3.30908,-3.79167 3.309086,3.791661 0 0 1 3.30908,-3.79166 m 0,0.875 a 2.54545,2.916661 0 0 0 -2.54545,2.91666 2.54545,2.916661 0 0 0 2.54545,2.91667 2.54545,2.916661 0 0 0 2.54547,-2.91667 2.54545,2.916661 0 0 0 -2.54547,-2.91666 m 0,1.45833 A 1.272722,1.458328 0 0 1 19.8197,15.998 1.272722,1.458328 0 0 1 18.54696,17.45634 1.272722,1.458328 0 0 1 17.27424,15.998 1.272722,1.458328 0 0 1 18.54696,14.53967"
       id="path10"
       inkscape:connector-curvature="0"
       style="fill:#9adfee;fill-opacity:1" />
    <path
       id="path887"
       d="M 4.5195312,2 C 3.1230693,2 2,3.1250224 2,4.5214844 V 27.478516 C 2,28.874978 3.1230693,30 4.5195312,30 h 8.3906248 2.408203 11.117188 V 18.052734 l -2.201172,0.01563 c -0.51631,0.004 -0.981453,-0.200832 -1.318359,-0.535156 -0.336907,-0.334323 -0.544922,-0.798127 -0.544922,-1.314453 v -0.373047 c 0,-0.516326 0.208015,-0.984709 0.544922,-1.324219 0.336906,-0.339509 0.802049,-0.550713 1.318359,-0.554687 l 2.201172,-0.01563 V 2 H 15.318359 12.910156 Z"
       style="opacity:1;fill:#35bedc;fill-opacity:1;fill-rule:nonzero;stroke:none;stroke-width:2;stroke-linejoin:miter;stroke-miterlimit:4;stroke-dasharray:none;stroke-opacity:1"
       inkscape:connector-curvature="0" />
    <path
       d="m 10,11 v 8.281 C 9.705,19.11 9.365,19 9,19 c -1.105,0 -2,0.895 -2,2 0,1.105 0.895,2 2,2 1.105,0 2,-0.895 2,-2 v -7 h 7 v 4.281 C 17.705,18.11 17.365,18 17,18 c -1.105,0 -2,0.895 -2,2 0,1.105 0.895,2 2,2 1.105,0 2,-0.895 2,-2 v -9 z m 1,1 h 7 v 1 h -7 z"
       id="path14"
       inkscape:connector-curvature="0"
       style="opacity:0.75;fill:#ffffff" />
    <path
       inkscape:connector-curvature="0"
       id="path887-6-5"
       d="M 4.519531,2 C 3.123069,2 2,3.1250224 2,4.5214844 V 5.4082031 C 2,4.7099721 2.281003,4.0808133 2.736328,3.625 3.191653,3.1691866 3.8213,2.8867188 4.519531,2.8867188 h 8.390625 2.408203 11.085938 V 2 H 15.318359 12.910156 Z"
       style="opacity:1;fill:#ffffff;fill-opacity:0.41176471;fill-rule:nonzero;stroke:none;stroke-width:2;stroke-linejoin:miter;stroke-miterlimit:4;stroke-dasharray:none;stroke-opacity:1" />
    <path
       id="path942"
       d="M 26.404297,28.986328 H 15.287109 12.878906 4.4882812 C 3.7900503,28.986328 3.1604031,28.705813 2.7050781,28.25 2.2691661,27.813621 2.022736,27.203751 2,26.541016 v 0.9375 C 2,28.874978 3.1230693,30 4.5195312,30 h 8.3906248 2.408203 11.117188 v -1.013672 z"
       style="opacity:1;fill:#2e3132;fill-opacity:0.29411765;fill-rule:nonzero;stroke:none;stroke-width:2;stroke-linejoin:miter;stroke-miterlimit:4;stroke-dasharray:none;stroke-opacity:1"
       inkscape:connector-curvature="0" />
    <path
       id="path887-3"
       d="M 4.519531,2 C 3.123069,2 2,3.125022 2,4.521484 V 27.478516 C 2,28.874978 3.123069,30 4.519531,30 h 8.390625 2.408203 11.117188 V 18.052734 l -2.201172,0.01563 c -0.51631,0.004 -0.981453,-0.200832 -1.318359,-0.535156 -0.336907,-0.334323 -0.544922,-0.798127 -0.544922,-1.314453 v -0.373047 c 0,-0.516326 0.208015,-0.984709 0.544922,-1.324219 0.336906,-0.339509 0.802049,-0.550713 1.318359,-0.554687 l 2.201172,-0.01563 V 2 H 15.318359 12.910156 Z"
       style="opacity:1;fill:url(#linearGradient868);fill-opacity:1;fill-rule:nonzero;stroke:none;stroke-width:2;stroke-linejoin:miter;stroke-miterlimit:4;stroke-dasharray:none;stroke-opacity:1"
       inkscape:connector-curvature="0" />
  </g>
</svg>
