<?xml version="1.0" encoding="UTF-8" standalone="no"?>
<svg
   xmlns:dc="http://purl.org/dc/elements/1.1/"
   xmlns:cc="http://creativecommons.org/ns#"
   xmlns:rdf="http://www.w3.org/1999/02/22-rdf-syntax-ns#"
   xmlns:svg="http://www.w3.org/2000/svg"
   xmlns="http://www.w3.org/2000/svg"
   xmlns:xlink="http://www.w3.org/1999/xlink"
   xmlns:sodipodi="http://sodipodi.sourceforge.net/DTD/sodipodi-0.dtd"
   xmlns:inkscape="http://www.inkscape.org/namespaces/inkscape"
   width="32"
   height="32"
   version="1.1"
   id="svg21"
   sodipodi:docname="image-vnd.dgn.svg"
   inkscape:version="0.92.4 (5da689c313, 2019-01-14)">
  <metadata
     id="metadata25">
    <rdf:RDF>
      <cc:Work
         rdf:about="">
        <dc:format>image/svg+xml</dc:format>
        <dc:type
           rdf:resource="http://purl.org/dc/dcmitype/StillImage" />
        <dc:title></dc:title>
      </cc:Work>
    </rdf:RDF>
  </metadata>
  <sodipodi:namedview
     pagecolor="#ffffff"
     bordercolor="#666666"
     borderopacity="1"
     objecttolerance="10"
     gridtolerance="10"
     guidetolerance="10"
     inkscape:pageopacity="0"
     inkscape:pageshadow="2"
     inkscape:window-width="1366"
     inkscape:window-height="711"
     id="namedview23"
     showgrid="false"
     inkscape:zoom="3.9453125"
     inkscape:cx="15.746535"
     inkscape:cy="16"
     inkscape:window-x="0"
     inkscape:window-y="25"
     inkscape:window-maximized="1"
     inkscape:current-layer="svg21" />
  <defs
     id="defs7">
    <linearGradient
       id="a"
       y1="61"
       y2="3"
       x2="0"
       gradientUnits="userSpaceOnUse"
       gradientTransform="matrix(0.63636,0,0,0.48276,-4.36,0.55)">
      <stop
         stop-color="#22a7f0"
         id="stop2" />
      <stop
         offset="1"
         stop-color="#19b5fe"
         id="stop4" />
    </linearGradient>
    <linearGradient
       inkscape:collect="always"
       xlink:href="#a"
       id="linearGradient857"
       gradientUnits="userSpaceOnUse"
       gradientTransform="matrix(0.63636,0,0,0.48276,-4.36,0.55)"
       y1="61"
       x2="0"
       y2="3" />
    <linearGradient
       id="a-3"
       y1="61"
       y2="3"
       x2="0"
       gradientUnits="userSpaceOnUse"
       gradientTransform="matrix(0.63636,0,0,0.48276,35.64,0.55)">
      <stop
         stop-color="#68c3e0"
         id="stop2-6" />
      <stop
         offset="1"
         stop-color="#81cfe0"
         id="stop4-7" />
    </linearGradient>
  </defs>
  <path
     style="fill:url(#linearGradient857);fill-opacity:1"
     d="M 5.615234,2 C 5.114561,2 4.637858,2.1007602 4.205078,2.2832031 3.772299,2.465646 3.383343,2.7299379 3.056641,3.0566406 2.729938,3.3833433 2.465646,3.7722987 2.283203,4.2050781 2.10076,4.6378575 2,5.1145614 2,5.6152344 V 26.384766 c 0,0.500673 0.10076,0.977376 0.283203,1.410156 0.182443,0.432779 0.446735,0.821735 0.773438,1.148437 0.326702,0.326703 0.715658,0.590995 1.148437,0.773438 C 4.637858,29.89924 5.114561,30 5.615234,30 h 20.769532 c 0.500673,0 0.977376,-0.10076 1.410156,-0.283203 0.432779,-0.182443 0.821735,-0.446735 1.148437,-0.773438 0.326703,-0.326702 0.590995,-0.715658 0.773438,-1.148437 C 29.89924,27.362142 30,26.885439 30,26.384766 V 5.6152344 C 30,5.1145614 29.89924,4.6378575 29.716797,4.2050781 29.534354,3.7722987 29.270062,3.3833433 28.943359,3.0566406 28.616657,2.7299379 28.227701,2.465646 27.794922,2.2832031 27.362142,2.1007602 26.885439,2 26.384766,2 h -5.292969 z"
     id="path849"
     inkscape:connector-curvature="0" />
  <path
     style="fill:#ffffff;fill-opacity:1;fill-rule:evenodd"
     inkscape:connector-curvature="0"
     id="path15-5"
     d="m 15,9 v 2 h 2 V 9 Z m -0.131,2.357 -1.98,0.531 0.818,0.818 L 15,12.358 v -1 z m 2.131,0 v 1 l 3.057,0.82 L 17,13.995 v 7 h 0.131 L 21.992,19.692 22,19.694 v -7.04 l -0.008,0.002 -4.861,-1.303 z M 11.311,12.31 10,12.662 V 20 l 6,1 v -7 l -4.391,-0.732 0.52,-0.139 z M 21,13.962 v 4.432 l -3,-0.805 v -2.822 z m -3,4.664 2.057,0.551 L 18,19.73 Z" />
  <path
     style="fill:#2e3132;fill-opacity:0.29411765"
     d="m 30,25.560547 c 0,0.500673 -0.10076,0.977376 -0.283203,1.410156 -0.182443,0.432779 -0.446735,0.821736 -0.773438,1.148438 -0.326702,0.326703 -0.715658,0.590994 -1.148437,0.773437 -0.43278,0.182443 -0.909483,0.283203 -1.410156,0.283203 H 5.615234 c -0.500673,0 -0.977376,-0.10076 -1.410156,-0.283203 C 3.772299,28.710135 3.383343,28.445844 3.056641,28.119141 2.729938,27.792439 2.465646,27.403482 2.283203,26.970703 2.10076,26.537923 2,26.06122 2,25.560547 v 0.824219 c 0,0.500673 0.10076,0.977376 0.283203,1.410156 0.182443,0.432779 0.446735,0.821735 0.773438,1.148437 0.326702,0.326703 0.715658,0.590995 1.148437,0.773438 C 4.637858,29.89924 5.114561,30 5.615234,30 h 20.769532 c 0.500673,0 0.977376,-0.10076 1.410156,-0.283203 0.432779,-0.182443 0.821735,-0.446735 1.148437,-0.773438 0.326703,-0.326702 0.590995,-0.715658 0.773438,-1.148437 C 29.89924,27.362142 30,26.885439 30,26.384766 Z"
     id="path921"
     inkscape:connector-curvature="0" />
  <path
     style="fill:#ffffff;fill-opacity:0.41176471"
     d="M 5.615234,2 C 5.114561,2 4.637858,2.1007602 4.205078,2.2832031 3.772299,2.465646 3.383343,2.7299379 3.056641,3.0566406 2.729938,3.3833433 2.465646,3.7722987 2.283203,4.2050781 2.10076,4.6378575 2,5.1145614 2,5.6152344 V 6.501953 C 2,6.00128 2.10076,5.5245763 2.283203,5.0917969 2.465646,4.6590175 2.729938,4.2700621 3.056641,3.9433594 3.383343,3.6166567 3.772299,3.3523648 4.205078,3.1699219 4.637858,2.987479 5.114561,2.8867188 5.615234,2.8867188 h 15.476563 5.292969 c 0.500673,-1e-7 0.977376,0.1007602 1.410156,0.2832031 0.432779,0.1824429 0.821735,0.4467348 1.148437,0.7734375 0.326703,0.3267027 0.590995,0.7156581 0.773438,1.1484375 C 29.89924,5.5245763 30,6.00128 30,6.501953 V 5.6152344 C 30,5.1145614 29.89924,4.6378575 29.716797,4.2050781 29.534354,3.7722987 29.270062,3.3833433 28.943359,3.0566406 28.616657,2.7299379 28.227701,2.465646 27.794922,2.2832031 27.362142,2.1007602 26.885439,2 26.384766,2 h -5.292969 z"
     id="path849-2"
     inkscape:connector-curvature="0" />
</svg>
