<svg xmlns="http://www.w3.org/2000/svg" xmlns:xlink="http://www.w3.org/1999/xlink" width="32" height="32"><defs><linearGradient id="b" y1="17" x1="47" y2="24" gradientUnits="userSpaceOnUse" x2="54" gradientTransform="translate(360.57 510.8)"><stop stop-color="#060606"/><stop offset="1" stop-opacity="0"/></linearGradient><linearGradient xlink:href="#a" id="c" x1="-.978" y1="29.155" x2="-.978" y2="-1.341" gradientUnits="userSpaceOnUse" gradientTransform="translate(-20.002 .002)"/><linearGradient id="a" y1="392.36" y2="320.48" gradientUnits="userSpaceOnUse" x2="0" gradientTransform="matrix(.5 0 0 .42294 418.57 378.93)"><stop stop-color="#fff" stop-opacity="0"/><stop offset="1" stop-color="#fff" stop-opacity=".2"/></linearGradient><linearGradient xlink:href="#b" id="d" gradientUnits="userSpaceOnUse" gradientTransform="translate(360.57 510.8)" x1="47" y1="17" x2="54" y2="24"/></defs><path d="M23.002 5.002H4.998c-1.662 0-3 1.338-3 3v19c0 1.662 1.338 3 3 3h22c1.662 0 3-1.338 3-3V11.998l-6.996-6.996z" fill="#c4bb1b"/><path d="M23.002 5.002H4.998c-1.662 0-3 1.338-3 3v19c0 1.662 1.338 3 3 3h22c1.662 0 3-1.338 3-3V11.998z" fill="url(#c)"/><path d="M29.998 25.758a2.99 2.99 0 01-3 3h-22a2.99 2.99 0 01-3-3v1.244c0 1.662 1.338 3 3 3h22c1.662 0 3-1.338 3-3z" opacity=".25"/><path d="M23 5.002H4.998c-1.662 0-3 1.338-3 3v1.156a2.99 2.99 0 013-3H23z" opacity=".5" fill="#fff"/><g fill-rule="evenodd"><path d="M30 12l-7-7v7z" opacity=".5" fill="#fff"/><path d="M407.57 527.8l7 7v-7z" opacity=".2" fill="url(#d)" transform="translate(-384.57 -515.8)"/></g><path d="M11.501 12.998a1.5 1.5 0 00-1.5 1.5 1.5 1.5 0 001.5 1.5 1.5 1.5 0 001.5-1.5 1.5 1.5 0 00-1.5-1.5m0 1a.5.5 0 01.5.5.5.5 0 01-.5.5.5.5 0 01-.5-.5.5.5 0 01.5-.5m9.5 1l-5.6 5.58-2.6-2.58-6 6h1.406l3.12-3.082 1.407-1.404 1.564 1.418 1.102 1.068L21 16.6l3.594 3.398H26z" color="#000" opacity=".75" fill="#fff"/></svg>