<svg xmlns="http://www.w3.org/2000/svg" xmlns:xlink="http://www.w3.org/1999/xlink" width="32" height="32"><defs><linearGradient id="a" y1="392.36" y2="320.48" gradientUnits="userSpaceOnUse" x2="0" gradientTransform="matrix(.5 0 0 .42294 418.57 378.93)"><stop stop-color="#fff" stop-opacity="0"/><stop offset="1" stop-color="#fff" stop-opacity=".2"/></linearGradient><linearGradient xlink:href="#a" id="b" x1="-.978" y1="29.155" x2="-.978" y2="-1.341" gradientUnits="userSpaceOnUse" gradientTransform="translate(-20)"/></defs><rect width="28" height="25" x="2" y="5" ry="3" fill="#59cfd3"/><path d="M3.99 7v.002a.995.995 0 00-.988.992L3 8v1h2V7H3.99zM6 7v2h2V7H6zm3 0v2h2V7H9zm3 0v2h2V7h-2zm3 0v2h2V7h-2zm3 0v2h2V7h-2zm3 0v2h2V7h-2zm3 0v2h2V7h-2zm3 0v2h2V8l-.002-.006a.995.995 0 00-.988-.992V7H27zm-15.498 5.998a1.5 1.5 0 00-1.5 1.5 1.5 1.5 0 001.5 1.5 1.5 1.5 0 001.5-1.5 1.5 1.5 0 00-1.5-1.5zm0 1a.5.5 0 01.5.5.5.5 0 01-.5.5.5.5 0 01-.5-.5.5.5 0 01.5-.5zm9.5 1l-5.6 5.58-2.601-2.58-6 6h1.406l3.12-3.082 1.407-1.404L14.3 20.93l1.101 1.068L21 16.6l3.594 3.398H26l-4.998-5zM3 26v1l.002.006a.995.995 0 00.988.992V28H5v-2H3zm3 0v2h2v-2H6zm3 0v2h2v-2H9zm3 0v2h2v-2h-2zm3 0v2h2v-2h-2zm3 0v2h2v-2h-2zm3 0v2h2v-2h-2zm3 0v2h2v-2h-2zm3 0v2h1.01v-.002a.995.995 0 00.988-.992L29 27v-1h-2z" color="#000" opacity=".5" fill="#fff" fill-rule="evenodd"/><rect width="28" height="25" x="2" y="5" ry="3" fill="url(#b)"/><path d="M30 25.756a2.99 2.99 0 01-3 3H5a2.99 2.99 0 01-3-3V27c0 1.662 1.338 3 3 3h22c1.662 0 3-1.338 3-3v-1.244z" opacity=".25"/><path d="M5 5C3.338 5 2 6.338 2 8v1.156a2.99 2.99 0 013-3h22a2.99 2.99 0 013 3V8c0-1.662-1.338-3-3-3z" opacity=".5" fill="#fff"/></svg>