<svg xmlns="http://www.w3.org/2000/svg" xmlns:xlink="http://www.w3.org/1999/xlink" width="32" height="32"><defs><linearGradient id="c"><stop offset="0" stop-color="#19b5fe"/><stop offset="1" stop-color="#22a7f0"/></linearGradient><linearGradient xlink:href="#a" id="e" y1="61" y2="47" x2="0" gradientUnits="userSpaceOnUse" gradientTransform="matrix(.48276 0 0 -.48276 385.261 547.488)"/><linearGradient id="a"><stop stop-color="#c8e3fe"/><stop offset="1" stop-color="#fff"/></linearGradient><linearGradient xlink:href="#b" id="f" y1="31" x1="54" y2="16.5" x2="39.5" gradientUnits="userSpaceOnUse" gradientTransform="matrix(0 -.48276 -.48276 0 419.537 550.867)"/><linearGradient id="b"><stop stop-color="#383e51"/><stop offset="1" stop-color="#655c6f" stop-opacity="0"/></linearGradient><linearGradient xlink:href="#c" id="d" x1="5" y1="30" x2="5" y2="2" gradientUnits="userSpaceOnUse" gradientTransform="translate(364.571 515.798)"/></defs><path d="M404.571 517.798h-12c-1.662 0-3 1.338-3 3v22c0 1.662 1.338 3 3 3h16c1.662 0 3-1.338 3-3v-18z" fill="url(#d)" transform="translate(-384.571 -515.798)"/><path d="M8 2a2.99 2.99 0 00-2.123.877c-.031.031-.02.09-.05.123H20V2z" color="#000" opacity=".5" fill="#fff"/><path d="M5.826 29c.03.033.02.092.051.123A2.99 2.99 0 008 30h16a2.99 2.99 0 002.123-.877c.031-.031.02-.09.05-.123z" color="#000" opacity=".25"/><path d="M411.571 524.798l-7-7v7z" fill="url(#e)" fill-rule="evenodd" transform="translate(-384.571 -515.798)"/><path d="M411.571 531.798l-7-7h7z" opacity=".2" fill="url(#f)" fill-rule="evenodd" transform="translate(-384.571 -515.798)"/><path style="line-height:normal;-inkscape-font-specification:Sans;text-indent:0;text-align:start;text-decoration-line:none;text-transform:none;block-progression:tb;marker:none" d="M10 13v10h12V13H10zm1.688 1h8.624l-3.25 3.25-.718.719-.344.344-.344-.344-.719-.719-3.25-3.25zm-.688.688l3.219 3.218L11 20.656v-5.968zm10 0v5.968l-3.219-2.75L21 14.688zm-6.094 3.906l.75.75.344.375.344-.375.75-.75L21 21.938V22H11v-.062l3.906-3.344z" color="#000" font-weight="400" font-family="Sans" overflow="visible" fill="#fff"/></svg>