<svg xmlns="http://www.w3.org/2000/svg" xmlns:xlink="http://www.w3.org/1999/xlink" height="32" width="32"><defs><linearGradient y2="545.8" y1="517.8" x2="400.57" x1="400.57" gradientUnits="userSpaceOnUse" id="a"><stop offset="0" stop-color="#7769ff"/><stop offset="1" stop-color="#347bff"/></linearGradient><linearGradient id="c" gradientUnits="userSpaceOnUse" x1="20" x2="27" y1="9" y2="16"><stop offset="0" stop-color="#060606"/><stop offset="1" stop-opacity="0"/></linearGradient><linearGradient xlink:href="#a" id="b" x1="5" y1="30" x2="5" y2="2" gradientUnits="userSpaceOnUse" gradientTransform="translate(-20)"/></defs><path d="M20 2H8C6.338 2 5 3.338 5 5v22c0 1.662 1.338 3 3 3h16c1.662 0 3-1.338 3-3V9z" fill="url(#b)"/><path d="M8 2a2.99 2.99 0 00-2.123.877c-.031.031-.02.09-.05.123H20V2z" color="#000" opacity=".5" fill="#fff"/><path d="M5.826 29c.03.033.02.092.051.123A2.99 2.99 0 008 30h16a2.99 2.99 0 002.123-.877c.031-.031.02-.09.05-.123z" color="#000" opacity=".25"/><path d="M27 9l-7-7v7z" fill="#2d479a"/><path d="M20 9l7 7V9z" fill="url(#c)" fill-rule="evenodd" opacity=".1"/><path d="M10 11v12h12l-6-6 6-6h-6zm1 1h4l-4 4zm5.414 0h3.172L11 20.586v-3.172zm-1.1 5.686L19.627 22H11z" fill="#2d479a"/></svg>