<svg xmlns="http://www.w3.org/2000/svg" xmlns:xlink="http://www.w3.org/1999/xlink" width="32" height="32"><defs><linearGradient gradientTransform="matrix(.5 0 0 -.48276 10 31.448)" gradientUnits="userSpaceOnUse" x2="0" y2="3" y1="61" id="a"><stop offset="0" stop-color="#3f5aa9"/><stop stop-color="#3a539b" offset="1"/></linearGradient><linearGradient id="c" y1="2.241" y2="9" x2="0" gradientUnits="userSpaceOnUse"><stop stop-color="#97aad8"/><stop offset="1" stop-color="#c1cae7"/></linearGradient><linearGradient id="d" y1="9" x1="20" y2="16" x2="27" gradientUnits="userSpaceOnUse"><stop stop-color="#383e51"/><stop offset="1" stop-color="#655c6f" stop-opacity="0"/></linearGradient><linearGradient xlink:href="#a" id="b" x1="5" y1="30" x2="5" y2="2" gradientUnits="userSpaceOnUse" gradientTransform="translate(-20)"/></defs><path d="M20 2H8C6.338 2 5 3.338 5 5v22c0 1.662 1.338 3 3 3h16c1.662 0 3-1.338 3-3V9z" fill="url(#b)"/><path d="M8 2a2.99 2.99 0 00-2.123.877c-.031.031-.02.09-.05.123H20V2z" color="#000" opacity=".5" fill="#fff"/><path d="M5.826 29c.03.033.02.092.051.123A2.99 2.99 0 008 30h16a2.99 2.99 0 002.123-.877c.031-.031.02-.09.05-.123z" color="#000" opacity=".25"/><g fill-rule="evenodd"><path fill="url(#c)" d="M27 9l-7-7v7z"/><path opacity=".2" fill="url(#d)" d="M27 16l-7-7h7z"/></g><path fill="#c1cae7" color="#4d4d4d" d="M20.5 12a1.5 1.5 0 00-1.5 1.5 1.5 1.5 0 001.5 1.5 1.5 1.5 0 001.5-1.5 1.5 1.5 0 00-1.5-1.5m-5 1a5.5 5.5 0 00-5.5 5.5 5.5 5.5 0 005.5 5.5 5.5 5.5 0 005.5-5.5 5.5 5.5 0 00-1.283-3.523A2 2 0 0120 16a2 2 0 01-2 2 2 2 0 01-2-2 2 2 0 012-2 2 2 0 011.053.303A5.5 5.5 0 0015.5 13"/></svg>