<svg xmlns="http://www.w3.org/2000/svg" xmlns:xlink="http://www.w3.org/1999/xlink" width="32" height="32"><defs><linearGradient gradientTransform="matrix(.5 0 0 -.48276 6 31.45)" gradientUnits="userSpaceOnUse" x2="61.689" x1="3.116" y2="-3.454" y1="68.42" id="a"><stop offset="0" stop-color="#239161"/><stop stop-color="#66b036" offset="1"/></linearGradient><linearGradient id="c" y1="524.8" x1="404.57" y2="531.8" x2="411.57" gradientUnits="userSpaceOnUse"><stop stop-color="#383e51"/><stop offset="1" stop-color="#655c6f" stop-opacity="0"/></linearGradient><linearGradient xlink:href="#a" id="b" x1="5" y1="30" x2="5" y2="2" gradientUnits="userSpaceOnUse" gradientTransform="translate(-20)"/></defs><path d="M20 2H8C6.338 2 5 3.338 5 5v22c0 1.662 1.338 3 3 3h16c1.662 0 3-1.338 3-3V9z" fill="url(#b)"/><path d="M8 2a2.99 2.99 0 00-2.123.877c-.031.031-.02.09-.05.123H20V2z" color="#000" opacity=".5" fill="#fff"/><path d="M5.826 29c.03.033.02.092.051.123A2.99 2.99 0 008 30h16a2.99 2.99 0 002.123-.877c.031-.031.02-.09.05-.123z" color="#000" opacity=".25"/><g fill-rule="evenodd"><path d="M27 9l-7-7v7z" opacity=".5" fill="#fff"/><path d="M411.57 531.8l-7-7h7z" opacity=".2" fill="url(#c)" transform="translate(-384.57 -515.8)"/></g><path d="M22.27 11.99H9.759a.746.746 0 00-.747.747v10.457c0 .413.334.747.747.747h12.512a.747.747 0 00.747-.747V12.735a.75.75 0 00-.749-.746m-1.649.935a.59.59 0 110 1.18.59.59 0 010-1.18m-1.665 0a.59.59 0 110 1.18.59.59 0 010-1.18m-1.665 0a.59.59 0 110 1.18.59.59 0 010-1.18m4.233 9.522h-11.02v-7.594h11.02z" fill="#e3f5df"/></svg>