<svg xmlns="http://www.w3.org/2000/svg" xmlns:xlink="http://www.w3.org/1999/xlink" width="32" height="32"><defs><linearGradient gradientTransform="matrix(.5 0 0 -.48276 8 31.448)" gradientUnits="userSpaceOnUse" x2="0" y2="3" y1="61" id="a"><stop offset="0" stop-color="#768492"/><stop stop-color="#5e6b78" offset="1"/></linearGradient><linearGradient id="c" y1="2.241" y2="9" x2="0" gradientUnits="userSpaceOnUse"><stop stop-color="#dedede"/><stop offset="1" stop-color="#fbfbfb"/></linearGradient><linearGradient id="d" y1="9" x1="20" y2="16" x2="27" gradientUnits="userSpaceOnUse"><stop stop-color="#383e51"/><stop offset="1" stop-color="#655c6f" stop-opacity="0"/></linearGradient><linearGradient xlink:href="#a" id="b" x1="5" y1="30" x2="5" y2="2" gradientUnits="userSpaceOnUse" gradientTransform="translate(-20)"/></defs><path d="M20 2H8C6.338 2 5 3.338 5 5v22c0 1.662 1.338 3 3 3h16c1.662 0 3-1.338 3-3V9z" fill="url(#b)"/><path d="M8 2a2.99 2.99 0 00-2.123.877c-.031.031-.02.09-.05.123H20V2z" color="#000" opacity=".5" fill="#fff"/><path d="M5.826 29c.03.033.02.092.051.123A2.99 2.99 0 008 30h16a2.99 2.99 0 002.123-.877c.031-.031.02-.09.05-.123z" color="#000" opacity=".25"/><g fill-rule="evenodd"><path fill="url(#c)" d="M27 9l-7-7v7z"/><path opacity=".2" fill="url(#d)" d="M27 16l-7-7h7z"/></g><path fill="#fbfbfb" color="#4d4d4d" d="M13 12a3 3 0 00-3 3 3 3 0 003 3 3 3 0 003-3 3 3 0 00-3-3m3 3a3 3 0 003 3 3 3 0 003-3 3 3 0 00-3-3 3 3 0 00-3 3m-3-2a2 2 0 012 2 2 2 0 01-2 2 2 2 0 01-1.371-.549A1.5 1.5 0 0012 16.5a1.5 1.5 0 001.5-1.5 1.5 1.5 0 00-1.5-1.5 1.5 1.5 0 00-.375.049A2 2 0 0113 13m6 0a2 2 0 012 2 2 2 0 01-2 2 2 2 0 01-1.371-.549A1.5 1.5 0 0018 16.5a1.5 1.5 0 001.5-1.5 1.5 1.5 0 00-1.5-1.5 1.5 1.5 0 00-.375.049A2 2 0 0119 13m1.08 6.15c-.94.533-2.457.849-4.08.85-1.394-.001-2.725-.234-3.67-.645l-.629.735a7.49 7.49 0 001.299.49V22a2 2 0 002 2 2 2 0 001.5-.68A2 2 0 0018 24a2 2 0 002-2v-1.773a6.06 6.06 0 00.754-.401zM19 20.576V22a1 1 0 01-1 1 1 1 0 01-1-1v-1.059a10.304 10.304 0 002-.365m-5 .238c.638.114 1.309.186 2 .186v1a1 1 0 01-1 1 1 1 0 01-1-1z"/></svg>