<svg xmlns="http://www.w3.org/2000/svg" xmlns:xlink="http://www.w3.org/1999/xlink" width="32" height="32"><defs><linearGradient gradientTransform="matrix(.5 0 0 -.48276 4 31.45)" gradientUnits="userSpaceOnUse" x2="8.271" x1="7.729" y2="61" y1="2.719" id="a"><stop offset="0" stop-color="#bdc3c7"/><stop stop-color="#dadfe1" offset="1"/></linearGradient><linearGradient id="g" x1="406.84" x2="394.59" gradientUnits="userSpaceOnUse"><stop stop-color="#42a603"/><stop offset="1" stop-color="#78da06"/></linearGradient><linearGradient id="f" y1="524.58" x1="400.71" y2="536.83" x2="394.59" gradientUnits="userSpaceOnUse"><stop stop-color="#197cf1"/><stop offset="1" stop-color="#20bcfa"/></linearGradient><linearGradient id="e" y1="536.83" x1="406.84" y2="524.58" x2="400.71" gradientUnits="userSpaceOnUse"><stop stop-color="#c61423"/><stop offset="1" stop-color="#dc2b41"/></linearGradient><linearGradient id="c" y1="518.04" y2="524.8" x2="0" gradientUnits="userSpaceOnUse"><stop stop-color="#566472"/><stop offset="1" stop-color="#5e6b78"/></linearGradient><linearGradient id="d" y1="524.8" x1="404.57" y2="531.8" x2="411.57" gradientUnits="userSpaceOnUse"><stop stop-color="#383e51"/><stop offset="1" stop-color="#655c6f" stop-opacity="0"/></linearGradient><linearGradient xlink:href="#a" id="b" x1="5" y1="30" x2="5" y2="2" gradientUnits="userSpaceOnUse" gradientTransform="translate(-20)"/></defs><path d="M20 2H8C6.338 2 5 3.338 5 5v22c0 1.662 1.338 3 3 3h16c1.662 0 3-1.338 3-3V9z" fill="url(#b)"/><path d="M8 2a2.99 2.99 0 00-2.123.877c-.031.031-.02.09-.05.123H20V2z" color="#000" opacity=".5" fill="#fff"/><path d="M5.826 29c.03.033.02.092.051.123A2.99 2.99 0 008 30h16a2.99 2.99 0 002.123-.877c.031-.031.02-.09.05-.123z" color="#000" opacity=".25"/><g fill-rule="evenodd"><path d="M411.57 524.8l-7-7v7z" fill="url(#c)" transform="translate(-384.57 -515.8)"/><path d="M411.57 531.8l-7-7h7z" opacity=".2" fill="url(#d)" transform="translate(-384.57 -515.8)"/><path d="M400.71 524.58l.899 10.196 5.225 2.053z" fill="url(#e)" transform="matrix(.9788 0 0 .97971 -376.21 -501.94)"/><path d="M400.71 524.58l-6.124 12.249 6.674-6.02z" fill="url(#f)" transform="matrix(.9788 0 0 .97971 -376.21 -501.94)"/><path d="M398.3 533.48l-3.714 3.351h12.247zm-3.704 3.331l-.022.02h.012z" fill="url(#g)" transform="matrix(.9788 0 0 .97971 -376.21 -501.94)"/></g></svg>