<svg xmlns="http://www.w3.org/2000/svg" xmlns:xlink="http://www.w3.org/1999/xlink" width="32" height="32"><defs><linearGradient gradientTransform="matrix(.5 0 0 -.48276 10 31.448)" gradientUnits="userSpaceOnUse" x2="0" y2="3" y1="61" id="a"><stop offset="0" stop-color="#9b59b6"/><stop stop-color="#8e44ad" offset="1"/></linearGradient><linearGradient id="c" y1="2.241" y2="9" x2="0" gradientUnits="userSpaceOnUse"><stop stop-color="#d3bdd7"/><stop offset="1" stop-color="#e8d9eb"/></linearGradient><linearGradient id="d" y1="9" x1="20" y2="16" x2="27" gradientUnits="userSpaceOnUse"><stop stop-color="#383e51"/><stop offset="1" stop-color="#655c6f" stop-opacity="0"/></linearGradient><linearGradient xlink:href="#a" id="b" x1="5" y1="30" x2="5" y2="2" gradientUnits="userSpaceOnUse" gradientTransform="translate(-20)"/></defs><path d="M20 2H8C6.338 2 5 3.338 5 5v22c0 1.662 1.338 3 3 3h16c1.662 0 3-1.338 3-3V9z" fill="url(#b)"/><path d="M8 2a2.99 2.99 0 00-2.123.877c-.031.031-.02.09-.05.123H20V2z" color="#000" opacity=".5" fill="#fff"/><path d="M5.826 29c.03.033.02.092.051.123A2.99 2.99 0 008 30h16a2.99 2.99 0 002.123-.877c.031-.031.02-.09.05-.123z" color="#000" opacity=".25"/><g fill-rule="evenodd"><path fill="url(#c)" d="M27 9l-7-7v7z"/><path opacity=".2" fill="url(#d)" d="M27 16l-7-7h7z"/></g><path fill="#e8d9eb" d="M10 14v2.22h2v5.554h-2v2.21c2.112.009 3.879.011 6 .011v-2.221h-2v-1.702l2.488.019c.164.001.875.053 1.102 1.092.071.319.228 1.357.334 1.691.107.373.54 1.122 1 1.122.992-.008 2.151.004 3.073.004v-2.651a.96.96 0 01-.445.159c-.362.047-.763-.173-.812-.425-.213-1.371-.569-1.664-1.13-2.169.697-.505 1.422-1.251 1.422-2.249 0-1.077-.647-1.757-1.088-2.089-.619-.465-1.303-.57-1.488-.57-2.828.016-5.662 0-8.459 0zm4 2.22h3c.121 0 1 .303 1 .929 0 .52-.672.801-1.134.801L14 17.931z"/></svg>