<svg xmlns="http://www.w3.org/2000/svg" xmlns:xlink="http://www.w3.org/1999/xlink" height="32" width="32"><defs><linearGradient y2="3" y1="61" x2="0" gradientUnits="userSpaceOnUse" gradientTransform="matrix(.5 0 0 -.48276 10 31.45)" id="a"><stop offset="0" stop-color="#f9a11f"/><stop offset="1" stop-color="#f39c12"/></linearGradient><linearGradient xlink:href="#a" id="b" x1="5" y1="30" x2="5" y2="2" gradientUnits="userSpaceOnUse" gradientTransform="translate(-20)"/></defs><linearGradient id="c" gradientUnits="userSpaceOnUse" x2="0" y1="518.04" y2="524.8"><stop offset="0" stop-color="#fddda3"/><stop offset="1" stop-color="#fde3a7"/></linearGradient><linearGradient id="d" gradientUnits="userSpaceOnUse" x1="404.57" x2="411.57" y1="524.8" y2="531.8"><stop offset="0" stop-color="#383e51"/><stop offset="1" stop-color="#655c6f" stop-opacity="0"/></linearGradient><path d="M20 2H8C6.338 2 5 3.338 5 5v22c0 1.662 1.338 3 3 3h16c1.662 0 3-1.338 3-3V9z" fill="url(#b)"/><path d="M8 2a2.99 2.99 0 00-2.123.877c-.031.031-.02.09-.05.123H20V2z" color="#000" opacity=".5" fill="#fff"/><path d="M5.826 29c.03.033.02.092.051.123A2.99 2.99 0 008 30h16a2.99 2.99 0 002.123-.877c.031-.031.02-.09.05-.123z" color="#000" opacity=".25"/><g fill-rule="evenodd"><path d="M411.57 524.8l-7-7v7z" fill="url(#c)" transform="translate(-384.57 -515.8)"/><path d="M411.57 531.8l-7-7h7z" opacity=".2" fill="url(#d)" transform="translate(-384.57 -515.8)"/></g><path d="M15 12c-1.108 0-2 .892-2 2h3v1h-4c-1.108 0-2 .892-2 2v2c0 1.108.892 2 2 2v-1c0-.889.39-1.676 1-2.225l.002-.002a3.02 3.02 0 01.426-.32l.004-.002a2.97 2.97 0 01.471-.238c.03-.012.062-.019.092-.029.14-.051.283-.097.432-.127.186-.036.377-.057.574-.057h4v-3c0-1.108-.892-2-2-2zm0 .5a.499.499 0 110 1 .499.499 0 110-1m5 2.5v1c0 .889-.392 1.678-1 2.227a3.02 3.02 0 01-.426.32l-.004.002a2.97 2.97 0 01-.471.238c-.03.012-.062.019-.092.029-.14.051-.283.097-.432.127a3.011 3.011 0 01-.574.057h-4v3c0 1.108.892 2 2 2h2c1.108 0 2-.892 2-2h-3v-1h4c1.108 0 2-.892 2-2v-2c0-1.108-.892-2-2-2m-3 7.5a.499.499 0 110 1 .499.499 0 110-1" fill="#fddda3"/></svg>