<svg xmlns="http://www.w3.org/2000/svg" xmlns:xlink="http://www.w3.org/1999/xlink" width="32" height="32"><defs><linearGradient gradientTransform="matrix(.5 0 0 .48276 8 .55)" gradientUnits="userSpaceOnUse" x2="0" y2="3" y1="61" id="a"><stop offset="0" stop-color="#87d37c"/><stop stop-color="#7fcc74" offset="1"/></linearGradient><linearGradient id="c" y1="545.56" y2="538.8" x2="0" gradientUnits="userSpaceOnUse"><stop stop-color="#ade2a1"/><stop offset="1" stop-color="#cfeec9"/></linearGradient><linearGradient id="d" y1="538.8" x1="404.57" y2="545.8" x2="397.57" gradientUnits="userSpaceOnUse"><stop stop-color="#383e51"/><stop offset="1" stop-color="#655c6f" stop-opacity="0"/></linearGradient><linearGradient xlink:href="#a" id="b" x1="5" y1="30" x2="5" y2="2" gradientUnits="userSpaceOnUse" gradientTransform="matrix(1 0 0 -1 -20 32)"/></defs><path d="M20 30H8c-1.662 0-3-1.338-3-3V5c0-1.662 1.338-3 3-3h16c1.662 0 3 1.338 3 3v18z" fill="url(#b)"/><path d="M8 30a2.99 2.99 0 01-2.123-.877c-.031-.031-.02-.09-.05-.123H20v1z" color="#000" opacity=".25"/><path d="M5.826 3c.03-.033.02-.092.051-.123A2.99 2.99 0 018 2h16c.831 0 1.58.335 2.123.877.031.031.02.09.05.123z" color="#000" opacity=".5" fill="#fff"/><g fill-rule="evenodd"><path d="M411.57 538.8l-7 7v-7z" fill="url(#c)" transform="translate(-384.57 -515.8)"/><path d="M397.57 545.8l7-7v7z" opacity=".2" fill="url(#d)" transform="translate(-384.57 -515.8)"/></g><path d="M10 9v12h12V9zm1 1h10v1H11zm6 2h3v1h-3zm-6 2h10v2H11zm6 3h3v1h-3zm-6 2h10v1H11z" fill="#e3f5df"/></svg>