<?xml version="1.0" encoding="UTF-8" standalone="no"?>
<svg
   xmlns:dc="http://purl.org/dc/elements/1.1/"
   xmlns:cc="http://creativecommons.org/ns#"
   xmlns:rdf="http://www.w3.org/1999/02/22-rdf-syntax-ns#"
   xmlns:svg="http://www.w3.org/2000/svg"
   xmlns="http://www.w3.org/2000/svg"
   xmlns:sodipodi="http://sodipodi.sourceforge.net/DTD/sodipodi-0.dtd"
   xmlns:inkscape="http://www.inkscape.org/namespaces/inkscape"
   height="64"
   width="64"
   version="1.1"
   id="svg29"
   sodipodi:docname="bookmarks.svg"
   inkscape:version="0.92.1 unknown">
  <metadata
     id="metadata33">
    <rdf:RDF>
      <cc:Work
         rdf:about="">
        <dc:format>image/svg+xml</dc:format>
        <dc:type
           rdf:resource="http://purl.org/dc/dcmitype/StillImage" />
        <dc:title></dc:title>
      </cc:Work>
    </rdf:RDF>
  </metadata>
  <sodipodi:namedview
     pagecolor="#ffffff"
     bordercolor="#666666"
     borderopacity="1"
     objecttolerance="10"
     gridtolerance="10"
     guidetolerance="10"
     inkscape:pageopacity="0"
     inkscape:pageshadow="2"
     inkscape:window-width="1366"
     inkscape:window-height="706"
     id="namedview31"
     showgrid="false"
     inkscape:zoom="41.7193"
     inkscape:cx="24.653584"
     inkscape:cy="41.994233"
     inkscape:window-x="0"
     inkscape:window-y="22"
     inkscape:window-maximized="1"
     inkscape:current-layer="g18">
    <inkscape:grid
       type="xygrid"
       id="grid4510" />
  </sodipodi:namedview>
  <defs
     id="defs7">
    <linearGradient
       id="linearGradient4538-3-6"
       y2="553.46"
       gradientUnits="userSpaceOnUse"
       x2="416.57"
       gradientTransform="translate(0,-60.000005)"
       y1="515.8"
       x1="416.57">
      <stop
         stop-color="#c8e6fc"
         offset="0"
         id="stop2" />
      <stop
         stop-color="#b4daf9"
         offset="1"
         id="stop4" />
    </linearGradient>
    <linearGradient
       id="folderGradient"
       x1="416.57001"
       gradientUnits="userSpaceOnUse"
       y1="515.79999"
       gradientTransform="translate(-384.57,-483.8)"
       x2="416.57001"
       y2="553.46002">
      <stop
         stop-color="#9ac5f1"
         offset="0"
         id="stop2-3" />
      <stop
         stop-color="#77abea"
         offset="1"
         id="stop4-6" />
    </linearGradient>
  </defs>
  <g
     transform="translate(-384.57,-483.8)"
     id="g23">
    <g
       transform="translate(384.57,483.8)"
       id="originalFolder">
      <path
         d="m 5,12 c -1.1046,0 -2,0.89542 -2,2 v 6 h 19 l 4,-4 h 5 L 27,12 H 10 Z"
         id="path8"
         inkscape:connector-curvature="0"
         style="fill:#8bb9e8" />
      <path
         d="m 26,16 -4,4 H 3 c 0,-1.2e-4 10e-4,26.061 0,38 H 61 V 18 a 2,2 0 0 0 -2,-2 z"
         id="path10"
         inkscape:connector-curvature="0"
         style="fill:url(#folderGradient)" />
      <g
         id="g18">
        <path
           d="m 5,12 c -1.1046,0 -2,0.89543 -2,2 v 1 c -2.3e-6,1.7724 0,5 0,5 h 1 v -6 a 1,1 0 0 1 1,-1 h 21.486 l 3.0215,3 h 1.492 l -4,-4 h -17 z"
           id="path12"
           inkscape:connector-curvature="0"
           style="fill:#7ca3d5" />
        <path
           d="m 26,16 -4,4 H 3 c 0,-1.2e-4 10e-4,26.061 0,38 H 61 V 18 c 0,-1.1046 -0.89543,-2 -2,-2 z m 0.52539,1 h 32.475 a 1,1 0 0 1 1,1 v 39 h -56 V 21 h 18.514 z"
           id="path14"
           inkscape:connector-curvature="0"
           style="fill:#7ca3d5" />
        <path
           d="m 4,21 h 18.514 l 3.4856,-5 -5,4 z"
           id="path16"
           inkscape:connector-curvature="0"
           style="fill:#648bbe;fill-opacity:1" />
      </g>
      <path
         d="m 26.525,17 -4.0117,4 H 4.0003 v 1 h 19 l 4,-4 h 33 c 0,-0.55228 -0.44772,-1 -1,-1 z"
         id="path20"
         inkscape:connector-curvature="0"
         style="fill:#ffffff;fill-opacity:0.23529412" />
    </g>
  </g>
  <path
     inkscape:connector-curvature="0"
     style="color:#000000;fill:#7ca3d5;fill-opacity:1;stroke-width:2"
     d="m 25,29 v 20 l 7,-3 7,3 V 29 Z m 1,1 H 38 V 47.562 L 32,45 26,47.562 Z"
     id="path25" />
  <path
     inkscape:connector-curvature="0"
     style="color:#000000;fill:#7ca3d5;fill-opacity:1;stroke-width:0.85333002"
     d="m 32,34.793 0.89333,2.08 0.09334,0.21333 0.22666,0.03997 2.1333,0.30666 -1.52,1.52 -0.14666,0.16 0.02666,0.21333 0.294,2.027 -1.76,-1.173 -0.24,-0.147 -0.24,0.14666 -1.76,1.1733 0.29333,-2.0267 0.02666,-0.21333 -0.14667,-0.16 -1.52,-1.52 2.1333,-0.30666 0.22667,-0.03997 0.09333,-0.21333 z"
     id="path27" />
</svg>
