<?xml version="1.0" encoding="UTF-8" standalone="no"?>
<svg
   xmlns:dc="http://purl.org/dc/elements/1.1/"
   xmlns:cc="http://creativecommons.org/ns#"
   xmlns:rdf="http://www.w3.org/1999/02/22-rdf-syntax-ns#"
   xmlns:svg="http://www.w3.org/2000/svg"
   xmlns="http://www.w3.org/2000/svg"
   version="1.1"
   width="64"
   height="64"
   id="theFolder">
  <defs
     id="folderDefs">
    <linearGradient
       id="folderGradient-940-528"
       x1="416.57"
       gradientUnits="userSpaceOnUse"
       y1="515.8"
       gradientTransform="translate(-384.57,-483.8)"
       x2="416.57"
       y2="553.46">
      <stop
         stop-color="#b4e8a1"
         offset="0"
         id="stop1046" />
      <stop
         stop-color="#95de81"
         offset="1"
         id="stop1049" />
    </linearGradient>
  </defs>
  <g
     id="originalFolder">
    <path
       d="m 5,12 c -1.1046,0 -2,0.89542 -2,2 v 6 h 19 l 4,-4 h 5 L 27,12 H 10 Z"
       id="path8"
       style="opacity:1;fill:#a7de93" />
    <path
       d="m 26,16 -4,4 H 3 c 0,-1.2e-4 10e-4,26.061 0,38 H 61 V 18 a 2,2 0 0 0 -2,-2 z"
       id="path10"
       style="opacity:1;fill:url(#folderGradient-940-528)" />
    <g
       id="g18">
      <path
         d="m 5,12 c -1.1046,0 -2,0.89543 -2,2 v 1 c -2.3e-6,1.7724 0,5 0,5 h 1 v -6 a 1,1 0 0 1 1,-1 h 21.486 l 3.0215,3 h 1.492 l -4,-4 h -17 z"
         id="path12"
         style="opacity:1;fill:#95c887" />
      <path
         d="m 26,16 -4,4 H 3 c 0,-1.2e-4 10e-4,26.061 0,38 H 61 V 18 c 0,-1.1046 -0.89543,-2 -2,-2 z m 0.52539,1 h 32.475 a 1,1 0 0 1 1,1 v 39 h -56 V 21 h 18.514 z"
         id="path14"
         style="opacity:1;fill:#95c887" />
      <path
         d="m 4,21 h 18.514 l 3.4856,-5 -5,4 z"
         id="path16"
         style="opacity:1;fill:#7eae72;fill-opacity:1" />
      <path
         d="m 26.525,17 -4.0117,4 H 4.0003 v 1 h 19 l 4,-4 h 33 c 0,-0.55228 -0.44772,-1 -1,-1 z"
         id="path20"
         style="opacity:1;fill:#ffffff;fill-opacity:0.23529412" />
    </g>
  </g>
  <metadata
     id="metadata831">
    <rdf:RDF>
      <cc:Work
         rdf:about="">
        <dc:title></dc:title>
      </cc:Work>
    </rdf:RDF>
  </metadata>
</svg>
