<?xml version="1.0" encoding="UTF-8" standalone="no"?>
<svg
   xmlns:dc="http://purl.org/dc/elements/1.1/"
   xmlns:cc="http://creativecommons.org/ns#"
   xmlns:rdf="http://www.w3.org/1999/02/22-rdf-syntax-ns#"
   xmlns:svg="http://www.w3.org/2000/svg"
   xmlns="http://www.w3.org/2000/svg"
   xmlns:sodipodi="http://sodipodi.sourceforge.net/DTD/sodipodi-0.dtd"
   xmlns:inkscape="http://www.inkscape.org/namespaces/inkscape"
   height="64"
   width="64"
   version="1.1"
   id="svg37"
   sodipodi:docname="folder-onedrive.svg"
   inkscape:version="0.92.2 5c3e80d, 2017-08-06">
  <metadata
     id="metadata41">
    <rdf:RDF>
      <cc:Work
         rdf:about="">
        <dc:format>image/svg+xml</dc:format>
        <dc:type
           rdf:resource="http://purl.org/dc/dcmitype/StillImage" />
        <dc:title></dc:title>
      </cc:Work>
    </rdf:RDF>
  </metadata>
  <sodipodi:namedview
     pagecolor="#ffffff"
     bordercolor="#666666"
     borderopacity="1"
     objecttolerance="10"
     gridtolerance="10"
     guidetolerance="10"
     inkscape:pageopacity="0"
     inkscape:pageshadow="2"
     inkscape:window-width="1366"
     inkscape:window-height="748"
     id="namedview39"
     showgrid="true"
     showguides="false"
     inkscape:guide-bbox="true"
     inkscape:zoom="16.000001"
     inkscape:cx="21.637039"
     inkscape:cy="24.83364"
     inkscape:window-x="0"
     inkscape:window-y="20"
     inkscape:window-maximized="1"
     inkscape:current-layer="svg37">
    <inkscape:grid
       type="xygrid"
       id="grid4518"
       empspacing="2" />
    <sodipodi:guide
       position="32,25"
       orientation="0,1"
       id="guide4522"
       inkscape:locked="false" />
    <sodipodi:guide
       position="32,25"
       orientation="1,0"
       id="guide4524"
       inkscape:locked="false" />
    <sodipodi:guide
       position="20,25"
       orientation="1,0"
       id="guide4526"
       inkscape:locked="false" />
    <sodipodi:guide
       position="44,25"
       orientation="1,0"
       id="guide4530"
       inkscape:locked="false" />
    <sodipodi:guide
       position="32,15"
       orientation="0,1"
       id="guide4532"
       inkscape:locked="false" />
    <sodipodi:guide
       position="-2,35"
       orientation="0,1"
       id="guide4534"
       inkscape:locked="false" />
  </sodipodi:namedview>
  <defs
     id="defs7">
    <linearGradient
       id="linearGradient4538-3"
       x1="416.57"
       gradientUnits="userSpaceOnUse"
       y1="530.85"
       gradientTransform="translate(0,-5e-6)"
       x2="416.57"
       y2="547.63">
      <stop
         stop-color="#c8e6fc"
         offset="0"
         id="stop2" />
      <stop
         stop-color="#aad5f7"
         offset="1"
         id="stop4" />
    </linearGradient>
    <linearGradient
       id="linearGradient4538-3-6"
       y2="553.46002"
       gradientUnits="userSpaceOnUse"
       x2="416.57001"
       gradientTransform="translate(0,-5e-6)"
       y1="515.79999"
       x1="416.57001">
      <stop
         stop-color="#c8e6fc"
         offset="0"
         id="stop2-3" />
      <stop
         stop-color="#b4daf9"
         offset="1"
         id="stop4-6" />
    </linearGradient>
    <linearGradient
       id="folderGradient"
       x1="416.57001"
       gradientUnits="userSpaceOnUse"
       y1="515.79999"
       gradientTransform="translate(-10e-7,-10e-6)"
       x2="416.57001"
       y2="553.46002">
      <stop
         stop-color="#9ac5f1"
         offset="0"
         id="stop2-3-3" />
      <stop
         stop-color="#77abea"
         offset="1"
         id="stop4-6-6" />
    </linearGradient>
  </defs>
  <g
     transform="translate(-384.57,-483.8)"
     id="g23">
    <g
       transform="translate(0,5e-6)"
       id="g21">
      <path
         d="m 389.57,495.8 c -1.1046,0 -2,0.89542 -2,2 v 6 h 19 l 4,-4 h 5 l -4,-4 h -17 z"
         id="path8"
         inkscape:connector-curvature="0"
         style="fill:#8bb9e8" />
      <path
         d="m 410.57,499.8 -4,4 h -19 c 0,-1.2e-4 0.001,26.06099 0,37.99999 h 58 v -40 a 2,2 0 0 0 -2,-2 z"
         id="path10"
         inkscape:connector-curvature="0"
         style="fill:url(#folderGradient)" />
      <path
         d="m 389.57,495.8 c -1.1046,0 -2,0.89542 -2,2 v 1 c 0,1.7724 0,5 0,5 h 1 v -6 a 1,1 0 0 1 1,-1 h 21.486 l 3.0215,3 h 1.492 l -4,-4 h -17 z"
         id="path12"
         inkscape:connector-curvature="0"
         style="fill:#7ca3d5" />
      <path
         d="m 410.57,499.8 -4,4 h -19 c 0,-1.2e-4 0.001,26.06099 0,37.99999 h 58 v -40 c 0,-1.1046 -0.89543,-2 -2,-2 z m 0.52539,1 h 32.475 a 1,1 0 0 1 1,1 v 38.99999 h -56 v -36 h 18.514 z"
         id="path14"
         inkscape:connector-curvature="0"
         style="fill:#7ca3d5" />
      <path
         d="m 388.57,504.8 h 18.514 l 3.4856,-5 -5,4 z"
         id="path16"
         inkscape:connector-curvature="0"
         style="fill:#648bbe;fill-opacity:1" />
      <path
         d="m 411.095,500.8 -4.0117,4 h -18.513 v 1 h 19 l 4,-4 h 33 c 0,-0.55228 -0.44772,-1 -1,-1 z"
         id="path20"
         inkscape:connector-curvature="0"
         style="fill:#ffffff;fill-opacity:0.23529412" />
    </g>
  </g>
  <path
     style="fill:#7ca3d5;fill-opacity:1;stroke-linejoin:round"
     d="M 28.072266 27 C 24.206273 27 21.072266 30.134007 21.072266 34 C 21.074866 34.335472 21.101674 34.670319 21.152344 35.001953 C 21.125654 35.001073 21.098966 35.0005 21.072266 35 C 18.310842 35 16.072266 37.238576 16.072266 40 C 16.072266 42.761424 18.310842 45 21.072266 45 L 21.173828 45 A 5 5 0 0 0 26.072266 49 L 39.072266 49 A 6 6 0 0 0 45.072266 43 A 6 6 0 0 0 40.003906 37.078125 A 7 7 0 0 0 34.435547 31.144531 C 33.333485 28.686599 30.886725 27.002971 28.072266 27 z M 28.072266 28 C 28.272499 27.999755 28.472619 28.009497 28.671875 28.029297 C 29.671627 28.130393 30.629978 28.48096 31.458984 29.048828 L 31.460938 29.048828 C 31.956398 29.387871 32.398167 29.799355 32.771484 30.269531 L 32.771484 30.271484 C 32.954795 30.502766 33.113276 30.749942 33.259766 31.003906 A 7 7 0 0 0 33.072266 31 A 7 7 0 0 0 26.072266 38 A 7 7 0 0 0 26.152344 39.001953 A 5 5 0 0 0 26.072266 39 A 5 5 0 0 0 21.072266 44 C 18.863127 44 17.072266 42.209139 17.072266 40 C 17.072145 39.866945 17.078667 39.733967 17.091797 39.601562 C 17.296493 37.556801 19.017284 35.999814 21.072266 36 C 21.172016 36.000829 21.27169 36.005402 21.371094 36.013672 L 21.371094 36.015625 C 21.767371 36.044945 22.157066 36.133158 22.527344 36.277344 C 22.375501 35.907524 22.261 35.523453 22.185547 35.130859 C 22.153577 34.962724 22.128818 34.793299 22.111328 34.623047 C 22.106428 34.584677 22.101826 34.546267 22.097656 34.507812 C 22.082016 34.338962 22.073546 34.169568 22.072266 34 C 22.072021 33.799767 22.081763 33.599647 22.101562 33.400391 C 22.409542 30.334022 24.99047 27.99962 28.072266 28 z M 33.072266 32 A 6 6 0 0 1 33.671875 32.029297 A 6 6 0 0 1 36.458984 33.048828 A 6 6 0 0 1 36.460938 33.048828 A 6 6 0 0 1 37.771484 34.269531 A 6 6 0 0 1 37.771484 34.271484 A 6 6 0 0 1 38.986328 37.003906 A 6 6 0 0 1 39.072266 38 A 5 5 0 0 1 40.068359 38.099609 A 5 5 0 0 1 40.550781 38.222656 A 5 5 0 0 1 40.552734 38.222656 A 5 5 0 0 1 41.019531 38.394531 A 5 5 0 0 1 41.021484 38.394531 A 5 5 0 0 1 41.46875 38.611328 A 5 5 0 0 1 41.472656 38.613281 A 5 5 0 0 1 41.894531 38.873047 A 5 5 0 0 1 41.898438 38.875 A 5 5 0 0 1 42.292969 39.175781 A 5 5 0 0 1 42.294922 39.177734 A 5 5 0 0 1 42.658203 39.515625 A 5 5 0 0 1 42.660156 39.517578 A 5 5 0 0 1 43.279297 40.298828 A 5 5 0 0 1 43.28125 40.300781 A 5 5 0 0 1 43.527344 40.732422 A 5 5 0 0 1 43.529297 40.734375 A 5 5 0 0 1 43.732422 41.1875 A 5 5 0 0 1 43.734375 41.189453 A 5 5 0 0 1 43.890625 41.662109 A 5 5 0 0 1 43.890625 41.664062 A 5 5 0 0 1 44 42.150391 A 5 5 0 0 1 44 42.152344 A 5 5 0 0 1 44.060547 42.646484 A 5 5 0 0 1 44.072266 43 A 5 5 0 0 1 39.072266 48 L 26.072266 48 A 4 4 0 0 1 22.072266 44 A 4 4 0 0 1 22.091797 43.601562 A 4 4 0 0 1 26.072266 40 A 4 4 0 0 1 26.371094 40.013672 A 4 4 0 0 1 26.371094 40.015625 A 4 4 0 0 1 27.527344 40.277344 A 6 6 0 0 1 27.185547 39.130859 A 6 6 0 0 1 27.111328 38.623047 A 6 6 0 0 1 27.097656 38.507812 A 6 6 0 0 1 27.072266 38 A 6 6 0 0 1 27.101562 37.400391 A 6 6 0 0 1 33.072266 32 z "
     id="path4225" />
</svg>
