<?xml version="1.0" encoding="UTF-8" standalone="no"?>
<svg
   xmlns:dc="http://purl.org/dc/elements/1.1/"
   xmlns:cc="http://creativecommons.org/ns#"
   xmlns:rdf="http://www.w3.org/1999/02/22-rdf-syntax-ns#"
   xmlns:svg="http://www.w3.org/2000/svg"
   xmlns="http://www.w3.org/2000/svg"
   xmlns:xlink="http://www.w3.org/1999/xlink"
   xmlns:sodipodi="http://sodipodi.sourceforge.net/DTD/sodipodi-0.dtd"
   xmlns:inkscape="http://www.inkscape.org/namespaces/inkscape"
   version="1.1"
   width="64"
   height="64"
   id="theFolder"
   sodipodi:docname="folder-brown.svg"
   inkscape:version="0.92.2 5c3e80d, 2017-08-06">
  <sodipodi:namedview
     pagecolor="#ffffff"
     bordercolor="#666666"
     borderopacity="1"
     objecttolerance="10"
     gridtolerance="10"
     guidetolerance="10"
     inkscape:pageopacity="0"
     inkscape:pageshadow="2"
     inkscape:window-width="1366"
     inkscape:window-height="748"
     id="namedview16"
     showgrid="false"
     inkscape:zoom="20.85965"
     inkscape:cx="18.297219"
     inkscape:cy="42.043611"
     inkscape:window-x="0"
     inkscape:window-y="20"
     inkscape:window-maximized="1"
     inkscape:current-layer="g18" />
  <metadata
     id="metadata26">
    <rdf:RDF>
      <cc:Work
         rdf:about="">
        <dc:format>image/svg+xml</dc:format>
        <dc:type
           rdf:resource="http://purl.org/dc/dcmitype/StillImage" />
        <dc:title></dc:title>
      </cc:Work>
    </rdf:RDF>
  </metadata>
  <defs
     id="folderDefs">
    <linearGradient
       y2="553.46"
       x2="416.57"
       gradientTransform="translate(-384.57,-483.8)"
       y1="515.8"
       gradientUnits="userSpaceOnUse"
       x1="416.57"
       id="folderGradient">
      <stop
         id="stop2"
         offset="0"
         stop-color="#9ac5f1" />
      <stop
         id="stop4"
         offset="1"
         stop-color="#77abea" />
    </linearGradient>
    <linearGradient
       y2="553.46"
       x2="416.57"
       gradientTransform="translate(-384.57,-483.8)"
       y1="515.8"
       gradientUnits="userSpaceOnUse"
       x1="416.57"
       id="folderGradient-718">
      <stop
         id="stop1605"
         offset="0"
         stop-color="#f199a0" />
      <stop
         id="stop1607"
         offset="1"
         stop-color="#ea767b" />
    </linearGradient>
    <linearGradient
       y2="553.46002"
       x2="416.57001"
       gradientTransform="translate(-384.57,-483.8)"
       y1="515.79999"
       gradientUnits="userSpaceOnUse"
       x1="416.57001"
       id="folderGradient-718-531"
       xlink:href="#folderGradient-718">
      <stop
         id="stop920"
         offset="0"
         stop-color="#dfb9a0" />
      <stop
         id="stop922"
         offset="1"
         stop-color="#d2a683" />
    </linearGradient>
    <linearGradient
       y2="553.46002"
       x2="416.57001"
       gradientTransform="translate(-1e-6,-1e-5)"
       y1="515.79999"
       gradientUnits="userSpaceOnUse"
       x1="416.57001"
       id="folderGradient-301">
      <stop
         id="stop2480"
         offset="0"
         stop-color="#d4bfb6" />
      <stop
         id="stop2482"
         offset="1"
         stop-color="#c2aa9e" />
    </linearGradient>
    <linearGradient
       inkscape:collect="always"
       xlink:href="#folderGradient-301"
       id="linearGradient863"
       x1="34.694916"
       y1="36.59322"
       x2="34.694916"
       y2="68.593224"
       gradientUnits="userSpaceOnUse" />
  </defs>
  <g
     id="originalFolder">
    <path
       style="opacity:1;fill:#c5b4ad;fill-opacity:1"
       id="path8"
       d="m 5,12 c -1.1046,0 -2,0.89542 -2,2 v 6 h 19 l 4,-4 h 5 L 27,12 H 10 Z"
       inkscape:connector-curvature="0" />
    <path
       style="opacity:1;fill:url(#linearGradient863);fill-opacity:1"
       id="path10"
       d="m 26,16 -4,4 H 3 c 0,-1.2e-4 10e-4,26.061 0,38 H 61 V 18 a 2,2 0 0 0 -2,-2 z"
       inkscape:connector-curvature="0" />
    <g
       id="g18">
      <path
         style="opacity:1;fill:#b4a89c;fill-opacity:1"
         id="path12"
         d="m 5,12 c -1.1046,0 -2,0.89543 -2,2 v 1 c -2.3e-6,1.7724 0,5 0,5 h 1 v -6 a 1,1 0 0 1 1,-1 h 21.486 l 3.0215,3 h 1.492 l -4,-4 h -17 z"
         inkscape:connector-curvature="0" />
      <path
         style="opacity:1;fill:#b4a89c;fill-opacity:1"
         id="path14"
         d="m 26,16 -4,4 H 3 c 0,-1.2e-4 10e-4,26.061 0,38 H 61 V 18 c 0,-1.1046 -0.89543,-2 -2,-2 z m 0.52539,1 h 32.475 a 1,1 0 0 1 1,1 v 39 h -56 V 21 h 18.514 z"
         inkscape:connector-curvature="0" />
      <path
         style="opacity:1;fill:#9a8776;fill-opacity:1"
         id="path16"
         d="m 4,21 h 18.514 l 3.4856,-5 -5,4 z"
         inkscape:connector-curvature="0" />
      <path
         style="opacity:1;fill:#f9f9f9;fill-opacity:0.23529412"
         id="path20"
         d="m 26.525,17 -4.0117,4 H 4.0003 v 1 h 19 l 4,-4 h 33 c 0,-0.55228 -0.44772,-1 -1,-1 z"
         inkscape:connector-curvature="0" />
    </g>
  </g>
</svg>
