<?xml version="1.0" encoding="UTF-8" standalone="no"?>
<svg
   xmlns:dc="http://purl.org/dc/elements/1.1/"
   xmlns:cc="http://creativecommons.org/ns#"
   xmlns:rdf="http://www.w3.org/1999/02/22-rdf-syntax-ns#"
   xmlns:svg="http://www.w3.org/2000/svg"
   xmlns="http://www.w3.org/2000/svg"
   xmlns:sodipodi="http://sodipodi.sourceforge.net/DTD/sodipodi-0.dtd"
   xmlns:inkscape="http://www.inkscape.org/namespaces/inkscape"
   height="64"
   width="64"
   version="1.1"
   id="svg23"
   sodipodi:docname="folder-public.svg"
   inkscape:version="0.92.1 unknown">
  <metadata
     id="metadata27">
    <rdf:RDF>
      <cc:Work
         rdf:about="">
        <dc:format>image/svg+xml</dc:format>
        <dc:type
           rdf:resource="http://purl.org/dc/dcmitype/StillImage" />
        <dc:title></dc:title>
      </cc:Work>
    </rdf:RDF>
  </metadata>
  <sodipodi:namedview
     pagecolor="#ffffff"
     bordercolor="#666666"
     borderopacity="1"
     objecttolerance="10"
     gridtolerance="10"
     guidetolerance="10"
     inkscape:pageopacity="0"
     inkscape:pageshadow="2"
     inkscape:window-width="1366"
     inkscape:window-height="706"
     id="namedview25"
     showgrid="false"
     inkscape:zoom="5.765625"
     inkscape:cx="10.443157"
     inkscape:cy="42.639856"
     inkscape:current-layer="svg23"
     inkscape:window-x="0"
     inkscape:window-y="22"
     inkscape:window-maximized="1" />
  <defs
     id="defs7">
    <linearGradient
       id="linearGradient4538-3"
       y2="547.63"
       gradientUnits="userSpaceOnUse"
       x2="416.57"
       gradientTransform="translate(0,-5e-6)"
       y1="530.85"
       x1="416.57">
      <stop
         stop-color="#c8e6fc"
         offset="0"
         id="stop2" />
      <stop
         stop-color="#aad5f7"
         offset="1"
         id="stop4" />
    </linearGradient>
    <linearGradient
       id="linearGradient4538-3-6"
       y2="553.46002"
       gradientUnits="userSpaceOnUse"
       x2="416.57001"
       gradientTransform="translate(0,-5e-6)"
       y1="515.79999"
       x1="416.57001">
      <stop
         stop-color="#c8e6fc"
         offset="0"
         id="stop2-7" />
      <stop
         stop-color="#b4daf9"
         offset="1"
         id="stop4-0" />
    </linearGradient>
    <linearGradient
       id="folderGradient"
       x1="416.57001"
       gradientUnits="userSpaceOnUse"
       y1="515.79999"
       gradientTransform="translate(-10e-7,-10e-6)"
       x2="416.57001"
       y2="553.46002">
      <stop
         stop-color="#9ac5f1"
         offset="0"
         id="stop2-3" />
      <stop
         stop-color="#77abea"
         offset="1"
         id="stop4-6" />
    </linearGradient>
  </defs>
  <g
     transform="translate(-384.57,-483.8)"
     id="g23">
    <g
       transform="translate(0,5e-6)"
       id="g21">
      <path
         d="m 389.57,495.8 c -1.1046,0 -2,0.89542 -2,2 v 6 h 19 l 4,-4 h 5 l -4,-4 h -17 z"
         id="path8"
         inkscape:connector-curvature="0"
         style="fill:#8bb9e8" />
      <path
         d="m 410.57,499.8 -4,4 h -19 c 0,-1.2e-4 0.001,26.06099 0,37.99999 h 58 v -40 a 2,2 0 0 0 -2,-2 z"
         id="path10"
         inkscape:connector-curvature="0"
         style="fill:url(#folderGradient)" />
      <path
         d="m 389.57,495.8 c -1.1046,0 -2,0.89542 -2,2 v 1 c 0,1.7724 0,5 0,5 h 1 v -6 a 1,1 0 0 1 1,-1 h 21.486 l 3.0215,3 h 1.492 l -4,-4 h -17 z"
         id="path12"
         inkscape:connector-curvature="0"
         style="fill:#7ca3d5" />
      <path
         d="m 410.57,499.8 -4,4 h -19 c 0,-1.2e-4 0.001,26.06099 0,37.99999 h 58 v -40 c 0,-1.1046 -0.89543,-2 -2,-2 z m 0.52539,1 h 32.475 a 1,1 0 0 1 1,1 v 38.99999 h -56 v -36 h 18.514 z"
         id="path14"
         inkscape:connector-curvature="0"
         style="fill:#7ca3d5" />
      <path
         d="m 388.57,504.8 h 18.514 l 3.4856,-5 -5,4 z"
         id="path16"
         inkscape:connector-curvature="0"
         style="fill:#648bbe;fill-opacity:1" />
      <path
         d="m 411.095,500.8 -4.0117,4 h -18.513 v 1 h 19 l 4,-4 h 33 c 0,-0.55228 -0.44772,-1 -1,-1 z"
         id="path20"
         inkscape:connector-curvature="0"
         style="fill:#ffffff;fill-opacity:0.23529412" />
    </g>
  </g>
  <path
     inkscape:connector-curvature="0"
     d="m 29,28 c -2.216,0 -4,1.784 -4,4 0,2.216 1.784,4 4,4 2.216,0 4,-1.784 4,-4 0,-2.216 -1.784,-4 -4,-4 z m 0,1 c 1.662,0 3,1.338 3,3 0,1.662 -1.338,3 -3,3 -1.662,0 -3,-1.338 -3,-3 0,-1.662 1.338,-3 3,-3 z m 9,0 c -1.662,0 -3,1.338 -3,3 0,1.662 1.338,3 3,3 1.662,0 3,-1.338 3,-3 0,-1.662 -1.338,-3 -3,-3 z m 0,1 c 1.108,0 2,0.892 2,2 0,1.108 -0.892,2 -2,2 -1.108,0 -2,-0.892 -2,-2 0,-1.108 0.892,-2 2,-2 z m 0,6 c -1.108,0 -2.1071,0.44692 -2.8301,1.1699 l 0.70703,0.70703 c 0.542,-0.542 1.292,-0.877 2.123,-0.877 1.662,0 3,1.338 3,3 v 3 h -3 v 1 h 4 v -4 c 0,-2.216 -1.784,-4 -4,-4 z m -9,1 c -3.878,0 -7,3.122 -7,7 v 4 h 14 v -4 c 0,-3.878 -3.122,-7 -7,-7 z m 0,1 c 3.324,0 6,2.676 6,6 v 3 H 23 v -3 c 0,-3.324 2.676,-6 6,-6 z"
     id="path21"
     style="fill:#7ca3d5;fill-opacity:1" />
</svg>
