<?xml version="1.0" encoding="UTF-8" standalone="no"?>
<svg
   xmlns:dc="http://purl.org/dc/elements/1.1/"
   xmlns:cc="http://creativecommons.org/ns#"
   xmlns:rdf="http://www.w3.org/1999/02/22-rdf-syntax-ns#"
   xmlns:svg="http://www.w3.org/2000/svg"
   xmlns="http://www.w3.org/2000/svg"
   xmlns:sodipodi="http://sodipodi.sourceforge.net/DTD/sodipodi-0.dtd"
   xmlns:inkscape="http://www.inkscape.org/namespaces/inkscape"
   version="1.1"
   width="64"
   height="64"
   id="theFolder"
   sodipodi:docname="folder-cyan.svg"
   inkscape:version="0.92.2 5c3e80d, 2017-08-06">
  <sodipodi:namedview
     pagecolor="#ffffff"
     bordercolor="#666666"
     borderopacity="1"
     objecttolerance="10"
     gridtolerance="10"
     guidetolerance="10"
     inkscape:pageopacity="0"
     inkscape:pageshadow="2"
     inkscape:window-width="1366"
     inkscape:window-height="708"
     id="namedview40"
     showgrid="false"
     inkscape:zoom="7.375"
     inkscape:cx="23.991498"
     inkscape:cy="30.32966"
     inkscape:window-x="0"
     inkscape:window-y="20"
     inkscape:window-maximized="1"
     inkscape:current-layer="theFolder" />
  <metadata
     id="metadata26">
    <rdf:RDF>
      <cc:Work
         rdf:about="">
        <dc:format>image/svg+xml</dc:format>
        <dc:type
           rdf:resource="http://purl.org/dc/dcmitype/StillImage" />
        <dc:title></dc:title>
      </cc:Work>
    </rdf:RDF>
  </metadata>
  <defs
     id="folderDefs">
    <linearGradient
       id="folderGradient"
       x1="416.57"
       gradientUnits="userSpaceOnUse"
       y1="515.8"
       gradientTransform="translate(-384.57,-483.8)"
       x2="416.57"
       y2="553.46">
      <stop
         stop-color="#9ac5f1"
         offset="0"
         id="stop2" />
      <stop
         stop-color="#77abea"
         offset="1"
         id="stop4" />
    </linearGradient>
    <linearGradient
       id="folderGradient-940"
       x1="416.57"
       gradientUnits="userSpaceOnUse"
       y1="515.8"
       gradientTransform="translate(-384.57,-483.8)"
       x2="416.57"
       y2="553.46">
      <stop
         stop-color="#b9f199"
         offset="0"
         id="stop1048" />
      <stop
         stop-color="#9bea76"
         offset="1"
         id="stop1050" />
    </linearGradient>
    <linearGradient
       id="folderGradient-940-528"
       x1="416.57"
       gradientUnits="userSpaceOnUse"
       y1="515.8"
       gradientTransform="translate(-384.57,-483.8)"
       x2="416.57"
       y2="553.46">
      <stop
         stop-color="#b4e8a1"
         offset="0"
         id="stop1046" />
      <stop
         stop-color="#95de81"
         offset="1"
         id="stop1049" />
    </linearGradient>
    <linearGradient
       id="folderGradient-940-528-619"
       x1="416.57"
       gradientUnits="userSpaceOnUse"
       y1="515.8"
       gradientTransform="translate(-384.57,-483.8)"
       x2="416.57"
       y2="553.46">
      <stop
         stop-color="#a8daeb"
         offset="0"
         id="stop1398" />
      <stop
         stop-color="#87c6e1"
         offset="1"
         id="stop1400" />
    </linearGradient>
    <linearGradient
       id="folderGradient-940-528-619-83"
       x1="416.57"
       gradientUnits="userSpaceOnUse"
       y1="515.8"
       gradientTransform="translate(-384.57,-483.8)"
       x2="416.57"
       y2="553.46">
      <stop
         stop-color="#aeecee"
         offset="0"
         id="stop902" />
      <stop
         stop-color="#8cdee5"
         offset="1"
         id="stop904" />
    </linearGradient>
    <linearGradient
       id="folderGradient-940-528-619-83-411"
       x1="416.57"
       gradientUnits="userSpaceOnUse"
       y1="515.8"
       gradientTransform="translate(-384.57,-483.8)"
       x2="416.57"
       y2="553.46">
      <stop
         stop-color="#aee3ee"
         offset="0"
         id="stop854" />
      <stop
         stop-color="#8cd2e5"
         offset="1"
         id="stop856" />
    </linearGradient>
  </defs>
  <g
     id="originalFolder">
    <path
       inkscape:connector-curvature="0"
       d="m 5,12 c -1.1046,0 -2,0.89542 -2,2 v 6 h 19 l 4,-4 h 5 L 27,12 H 10 Z"
       id="path8"
       style="opacity:1;fill:#9ed9e4" />
    <path
       inkscape:connector-curvature="0"
       d="m 26,16 -4,4 H 3 c 0,-1.2e-4 10e-4,26.061 0,38 H 61 V 18 a 2,2 0 0 0 -2,-2 z"
       id="path10"
       style="opacity:1;fill:url(#folderGradient-940-528-619-83-411)" />
    <g
       id="g18">
      <path
         inkscape:connector-curvature="0"
         d="m 5,12 c -1.1046,0 -2,0.89543 -2,2 v 1 c -2.3e-6,1.7724 0,5 0,5 h 1 v -6 a 1,1 0 0 1 1,-1 h 21.486 l 3.0215,3 h 1.492 l -4,-4 h -17 z"
         id="path12"
         style="opacity:1;fill:#8fc3d2" />
      <path
         inkscape:connector-curvature="0"
         d="m 26,16 -4,4 H 3 c 0,-1.2e-4 10e-4,26.061 0,38 H 61 V 18 c 0,-1.1046 -0.89543,-2 -2,-2 z m 0.52539,1 h 32.475 a 1,1 0 0 1 1,1 v 39 h -56 V 21 h 18.514 z"
         id="path14"
         style="opacity:1;fill:#8fc3d2" />
      <path
         inkscape:connector-curvature="0"
         d="m 4,21 h 18.514 l 3.4856,-5 -5,4 z"
         id="path16"
         style="opacity:1;fill:#78abba;fill-opacity:1" />
      <path
         inkscape:connector-curvature="0"
         d="m 26.525,17 -4.0117,4 H 4.0003 v 1 h 19 l 4,-4 h 33 c 0,-0.55228 -0.44772,-1 -1,-1 z"
         id="path20"
         style="opacity:1;fill:#ffffff;fill-opacity:0.23529412" />
    </g>
  </g>
</svg>
