<?xml version="1.0" encoding="UTF-8" standalone="no"?>
<svg
   xmlns:dc="http://purl.org/dc/elements/1.1/"
   xmlns:cc="http://creativecommons.org/ns#"
   xmlns:rdf="http://www.w3.org/1999/02/22-rdf-syntax-ns#"
   xmlns:svg="http://www.w3.org/2000/svg"
   xmlns="http://www.w3.org/2000/svg"
   xmlns:sodipodi="http://sodipodi.sourceforge.net/DTD/sodipodi-0.dtd"
   xmlns:inkscape="http://www.inkscape.org/namespaces/inkscape"
   height="64"
   width="64"
   version="1.1"
   id="svg37"
   sodipodi:docname="folder-locked.svg"
   inkscape:version="0.92.2 5c3e80d, 2017-08-06">
  <metadata
     id="metadata41">
    <rdf:RDF>
      <cc:Work
         rdf:about="">
        <dc:format>image/svg+xml</dc:format>
        <dc:type
           rdf:resource="http://purl.org/dc/dcmitype/StillImage" />
        <dc:title></dc:title>
      </cc:Work>
    </rdf:RDF>
  </metadata>
  <sodipodi:namedview
     pagecolor="#ffffff"
     bordercolor="#666666"
     borderopacity="1"
     objecttolerance="10"
     gridtolerance="10"
     guidetolerance="10"
     inkscape:pageopacity="0"
     inkscape:pageshadow="2"
     inkscape:window-width="1366"
     inkscape:window-height="748"
     id="namedview39"
     showgrid="true"
     showguides="true"
     inkscape:guide-bbox="true"
     inkscape:zoom="22.627417"
     inkscape:cx="26.330999"
     inkscape:cy="26.068144"
     inkscape:window-x="0"
     inkscape:window-y="20"
     inkscape:window-maximized="1"
     inkscape:current-layer="svg37">
    <inkscape:grid
       type="xygrid"
       id="grid4518"
       empspacing="2" />
    <sodipodi:guide
       position="32,25"
       orientation="0,1"
       id="guide4522"
       inkscape:locked="false" />
    <sodipodi:guide
       position="32,25"
       orientation="1,0"
       id="guide4524"
       inkscape:locked="false" />
    <sodipodi:guide
       position="20,25"
       orientation="1,0"
       id="guide4526"
       inkscape:locked="false" />
    <sodipodi:guide
       position="44,25"
       orientation="1,0"
       id="guide4530"
       inkscape:locked="false" />
    <sodipodi:guide
       position="32,15"
       orientation="0,1"
       id="guide4532"
       inkscape:locked="false" />
    <sodipodi:guide
       position="-2,35"
       orientation="0,1"
       id="guide4534"
       inkscape:locked="false" />
  </sodipodi:namedview>
  <defs
     id="defs7">
    <linearGradient
       id="linearGradient4538-3"
       x1="416.57"
       gradientUnits="userSpaceOnUse"
       y1="530.85"
       gradientTransform="translate(0,-5e-6)"
       x2="416.57"
       y2="547.63">
      <stop
         stop-color="#c8e6fc"
         offset="0"
         id="stop2" />
      <stop
         stop-color="#aad5f7"
         offset="1"
         id="stop4" />
    </linearGradient>
    <linearGradient
       id="linearGradient4538-3-6"
       y2="553.46002"
       gradientUnits="userSpaceOnUse"
       x2="416.57001"
       gradientTransform="translate(0,-5e-6)"
       y1="515.79999"
       x1="416.57001">
      <stop
         stop-color="#c8e6fc"
         offset="0"
         id="stop2-3" />
      <stop
         stop-color="#b4daf9"
         offset="1"
         id="stop4-6" />
    </linearGradient>
    <linearGradient
       id="folderGradient"
       x1="416.57001"
       gradientUnits="userSpaceOnUse"
       y1="515.79999"
       gradientTransform="translate(-384.57,-483.8)"
       x2="416.57001"
       y2="553.46002">
      <stop
         stop-color="#9ac5f1"
         offset="0"
         id="stop2-36" />
      <stop
         stop-color="#77abea"
         offset="1"
         id="stop4-7" />
    </linearGradient>
  </defs>
  <g
     transform="translate(-384.57,-483.8)"
     id="g23">
    <g
       transform="translate(0,5e-6)"
       id="g21">
      <g
         transform="translate(384.57,483.8)"
         id="originalFolder">
        <path
           d="m 5,12 c -1.1046,0 -2,0.89542 -2,2 v 6 h 19 l 4,-4 h 5 L 27,12 H 10 Z"
           id="path8"
           inkscape:connector-curvature="0"
           style="fill:#8bb9e8" />
        <path
           d="m 26,16 -4,4 H 3 c 0,-1.2e-4 10e-4,26.061 0,38 H 61 V 18 a 2,2 0 0 0 -2,-2 z"
           id="path10"
           inkscape:connector-curvature="0"
           style="fill:url(#folderGradient)" />
        <g
           id="g18">
          <path
             d="m 5,12 c -1.1046,0 -2,0.89543 -2,2 v 1 c -2.3e-6,1.7724 0,5 0,5 h 1 v -6 a 1,1 0 0 1 1,-1 h 21.486 l 3.0215,3 h 1.492 l -4,-4 h -17 z"
             id="path12"
             inkscape:connector-curvature="0"
             style="fill:#7ca3d5" />
          <path
             d="m 26,16 -4,4 H 3 c 0,-1.2e-4 10e-4,26.061 0,38 H 61 V 18 c 0,-1.1046 -0.89543,-2 -2,-2 z m 0.52539,1 h 32.475 a 1,1 0 0 1 1,1 v 39 h -56 V 21 h 18.514 z"
             id="path14"
             inkscape:connector-curvature="0"
             style="fill:#7ca3d5" />
          <path
             d="m 4,20.999995 h 18.514 l 3.4856,-5 -5,4 z"
             id="path16"
             inkscape:connector-curvature="0"
             style="fill:#648bbe;fill-opacity:1" />
          <path
             d="m 26.525,16.999995 -4.0117,4 H 4.0003 v 1 h 19 l 4,-4 h 33 c 0,-0.55228 -0.44772,-1 -1,-1 z"
             id="path20"
             inkscape:connector-curvature="0"
             style="fill:#ffffff;fill-opacity:0.23529412" />
        </g>
      </g>
    </g>
  </g>
  <path
     style="fill:#7ca3d5;fill-opacity:1"
     d="M 32 28 C 29.23 28 27 30.23 27 33 L 27 38 L 25 38 C 24.446 38 24 38.446 24 39 L 24 47 C 24 47.554 24.446 48 25 48 L 39 48 C 39.554 48 40 47.554 40 47 L 40 39 C 40 38.446 39.554 38 39 38 L 37 38 L 37 33 C 37 30.23 34.77 28 32 28 z M 32 29 C 34.0775 29 36 30.57625 36 33 L 36 38 L 28 38 L 28 33 C 28 30.57625 29.92251 29 32 29 z M 25 39 L 25.515625 39 L 38.484375 39 L 39 39 L 39 39.515625 L 39 46.484375 L 39 47 L 38.484375 47 L 25.515625 47 L 25 47 L 25 46.484375 L 25 39.515625 L 25 39 z "
     id="rect4136" />
</svg>
