<?xml version="1.0" encoding="UTF-8" standalone="no"?>
<svg
   xmlns:dc="http://purl.org/dc/elements/1.1/"
   xmlns:cc="http://creativecommons.org/ns#"
   xmlns:rdf="http://www.w3.org/1999/02/22-rdf-syntax-ns#"
   xmlns:svg="http://www.w3.org/2000/svg"
   xmlns="http://www.w3.org/2000/svg"
   xmlns:sodipodi="http://sodipodi.sourceforge.net/DTD/sodipodi-0.dtd"
   xmlns:inkscape="http://www.inkscape.org/namespaces/inkscape"
   height="64"
   width="64"
   version="1.1"
   id="svg31"
   sodipodi:docname="user-home.svg"
   inkscape:version="0.92.2 5c3e80d, 2017-08-06">
  <metadata
     id="metadata35">
    <rdf:RDF>
      <cc:Work
         rdf:about="">
        <dc:format>image/svg+xml</dc:format>
        <dc:type
           rdf:resource="http://purl.org/dc/dcmitype/StillImage" />
        <dc:title></dc:title>
      </cc:Work>
    </rdf:RDF>
  </metadata>
  <sodipodi:namedview
     pagecolor="#ffffff"
     bordercolor="#666666"
     borderopacity="1"
     objecttolerance="10"
     gridtolerance="10"
     guidetolerance="10"
     inkscape:pageopacity="0"
     inkscape:pageshadow="2"
     inkscape:window-width="1366"
     inkscape:window-height="748"
     id="namedview33"
     showgrid="true"
     inkscape:zoom="8.1538251"
     inkscape:cx="23.650627"
     inkscape:cy="32.141158"
     inkscape:current-layer="svg31"
     inkscape:window-x="0"
     inkscape:window-y="20"
     inkscape:window-maximized="1">
    <inkscape:grid
       type="xygrid"
       id="grid4524" />
  </sodipodi:namedview>
  <defs
     id="defs7">
    <linearGradient
       id="linearGradient4538-3"
       y2="547.63"
       gradientUnits="userSpaceOnUse"
       x2="416.57"
       gradientTransform="translate(0,-5e-6)"
       y1="530.85"
       x1="416.57">
      <stop
         stop-color="#c8e6fc"
         offset="0"
         id="stop2" />
      <stop
         stop-color="#aad5f7"
         offset="1"
         id="stop4" />
    </linearGradient>
    <linearGradient
       id="linearGradient4538-3-6"
       y2="553.46002"
       gradientUnits="userSpaceOnUse"
       x2="416.57001"
       gradientTransform="translate(0,-5e-6)"
       y1="515.79999"
       x1="416.57001">
      <stop
         stop-color="#c8e6fc"
         offset="0"
         id="stop2-7" />
      <stop
         stop-color="#b4daf9"
         offset="1"
         id="stop4-0" />
    </linearGradient>
    <linearGradient
       id="folderGradient"
       x1="416.57001"
       gradientUnits="userSpaceOnUse"
       y1="515.79999"
       gradientTransform="translate(-10e-7,-10e-6)"
       x2="416.57001"
       y2="553.46002">
      <stop
         stop-color="#9ac5f1"
         offset="0"
         id="stop2-3" />
      <stop
         stop-color="#77abea"
         offset="1"
         id="stop4-6" />
    </linearGradient>
  </defs>
  <g
     transform="translate(-384.57,-483.8)"
     id="g23">
    <g
       transform="translate(0,5e-6)"
       id="g21">
      <path
         d="m 389.57,495.8 c -1.1046,0 -2,0.89542 -2,2 v 6 h 19 l 4,-4 h 5 l -4,-4 h -17 z"
         id="path8"
         inkscape:connector-curvature="0"
         style="fill:#8bb9e8" />
      <path
         d="m 410.57,499.8 -4,4 h -19 c 0,-1.2e-4 0.001,26.06099 0,37.99999 h 58 v -40 a 2,2 0 0 0 -2,-2 z"
         id="path10"
         inkscape:connector-curvature="0"
         style="fill:url(#folderGradient)" />
      <path
         d="m 389.57,495.8 c -1.1046,0 -2,0.89542 -2,2 v 1 c 0,1.7724 0,5 0,5 h 1 v -6 a 1,1 0 0 1 1,-1 h 21.486 l 3.0215,3 h 1.492 l -4,-4 h -17 z"
         id="path12"
         inkscape:connector-curvature="0"
         style="fill:#7ca3d5" />
      <path
         d="m 410.57,499.8 -4,4 h -19 c 0,-1.2e-4 0.001,26.06099 0,37.99999 h 58 v -40 c 0,-1.1046 -0.89543,-2 -2,-2 z m 0.52539,1 h 32.475 a 1,1 0 0 1 1,1 v 38.99999 h -56 v -36 h 18.514 z"
         id="path14"
         inkscape:connector-curvature="0"
         style="fill:#7ca3d5" />
      <path
         d="m 388.57,504.8 h 18.514 l 3.4856,-5 -5,4 z"
         id="path16"
         inkscape:connector-curvature="0"
         style="fill:#648bbe;fill-opacity:1" />
      <path
         d="m 411.095,500.8 -4.0117,4 h -18.513 v 1 h 19 l 4,-4 h 33 c 0,-0.55228 -0.44772,-1 -1,-1 z"
         id="path20"
         inkscape:connector-curvature="0"
         style="fill:#ffffff;fill-opacity:0.23529412" />
    </g>
  </g>
  <path
     style="color:#000000;font-style:normal;font-variant:normal;font-weight:normal;font-stretch:normal;font-size:medium;line-height:normal;font-family:sans-serif;font-variant-ligatures:normal;font-variant-position:normal;font-variant-caps:normal;font-variant-numeric:normal;font-variant-alternates:normal;font-feature-settings:normal;text-indent:0;text-align:start;text-decoration:none;text-decoration-line:none;text-decoration-style:solid;text-decoration-color:#000000;letter-spacing:normal;word-spacing:normal;text-transform:none;writing-mode:lr-tb;direction:ltr;text-orientation:mixed;dominant-baseline:auto;baseline-shift:baseline;text-anchor:start;white-space:normal;shape-padding:0;clip-rule:nonzero;display:inline;overflow:visible;visibility:visible;opacity:1;isolation:auto;mix-blend-mode:normal;color-interpolation:sRGB;color-interpolation-filters:linearRGB;solid-color:#000000;solid-opacity:1;vector-effect:none;fill:#7ca3d5;fill-opacity:1;fill-rule:nonzero;stroke:none;stroke-width:1;stroke-linecap:butt;stroke-linejoin:miter;stroke-miterlimit:4;stroke-dasharray:none;stroke-dashoffset:0;stroke-opacity:1;color-rendering:auto;image-rendering:auto;shape-rendering:auto;text-rendering:auto;enable-background:accumulate"
     d="M 31.96875 29.5 A 0.50005 0.50005 0 0 0 31.664062 29.630859 L 20.664062 39.630859 A 0.50005 0.50005 0 1 0 21.335938 40.369141 L 32 30.675781 L 42.664062 40.369141 A 0.50005 0.50005 0 1 0 43.335938 39.630859 L 32.335938 29.630859 A 0.50005 0.50005 0 0 0 32.019531 29.5 A 0.50005 0.50005 0 0 0 31.96875 29.5 z M 36.5 30 C 36.223 30 36 30.223 36 30.5 L 36 31.5 C 36 31.777 36.223 32 36.5 32 C 36.777 32 37 31.777 37 31.5 L 37 31 L 40 31 L 40 34.5 C 40 34.777 40.223 35 40.5 35 C 40.777 35 41 34.777 41 34.5 L 41 30.5 C 41 30.223 40.777 30 40.5 30 L 36.5 30 z M 24.5 40 C 24.223 40 24 40.223 24 40.5 L 24 48.5 C 24 48.777 24.223 49 24.5 49 L 39.5 49 C 39.56925 49 39.635453 48.986172 39.695312 48.960938 C 39.874891 48.885234 40 48.70775 40 48.5 L 40 40.5 C 40 40.223 39.777 40 39.5 40 C 39.223 40 39 40.223 39 40.5 L 39 48 L 35 48 L 35 44 C 35 43.446 34.554 43 34 43 L 30 43 C 29.446 43 29 43.446 29 44 L 29 48 L 25 48 L 25 40.5 C 25 40.223 24.777 40 24.5 40 z M 30 44 L 34 44 L 34 48 L 30 48 L 30 44 z "
     id="path23" />
</svg>
