<?xml version="1.0" encoding="UTF-8"?>
<svg xmlns="http://www.w3.org/2000/svg" xmlns:xlink="http://www.w3.org/1999/xlink" width="16px" height="16px" viewBox="0 0 16 16" version="1.1">
<g id="surface1">
<path style=" stroke:none;fill-rule:nonzero;fill:rgb(9.803922%,54.901963%,99.607843%);fill-opacity:1;" d="M 9.089844 2 L 5.941406 13.738281 L 6.910156 14 L 10.058594 2.261719 Z M 5.285156 4 L 2.324219 7.144531 L 2 7.492188 L 2.324219 7.835938 L 5.265625 11 L 5.984375 10.308594 L 3.359375 7.496094 L 6 4.695312 Z M 12 4 C 11.46875 4 10.960938 4.210938 10.585938 4.585938 C 10.210938 4.960938 10 5.46875 10 6 L 10 7 L 11 7 L 11 6 C 11 5.445312 11.445312 5 12 5 C 12.554688 5 13 5.445312 13 6 L 13 7 C 12.46875 7 11.960938 7.210938 11.585938 7.585938 C 11.210938 7.960938 11 8.46875 11 9 L 12 9 C 12 8.445312 12.445312 8 13 8 L 14 8 L 14 6 C 14 5.46875 13.789062 4.960938 13.414062 4.585938 C 13.039062 4.210938 12.53125 4 12 4 M 11.5 10 C 11.234375 10.015625 11.03125 10.234375 11.03125 10.5 C 11.03125 10.765625 11.234375 10.984375 11.5 11 C 11.761719 10.984375 11.96875 10.765625 11.96875 10.5 C 11.96875 10.234375 11.761719 10.015625 11.5 10 "/>
</g>
</svg>
