<?xml version="1.0" encoding="UTF-8"?>
<svg xmlns="http://www.w3.org/2000/svg" xmlns:xlink="http://www.w3.org/1999/xlink" width="16px" height="16px" viewBox="0 0 16 16" version="1.1">
<g id="surface1">
<path style=" stroke:none;fill-rule:nonzero;fill:rgb(49.803922%,50.196081%,50.196081%);fill-opacity:1;" d="M 2 2 L 2 14 L 14 14 L 14 2 Z M 3 5 L 13 5 L 13 13 C 9.449219 12.964844 6.550781 12.921875 3 13 Z M 3 5 "/>
<path style=" stroke:none;fill-rule:nonzero;fill:rgb(49.803922%,50.196081%,50.196081%);fill-opacity:1;" d="M 8 6 C 7.441406 6 6.925781 6.171875 6.558594 6.488281 C 6.199219 6.808594 5.996094 7.269531 6 7.75 L 7.140625 7.75 C 7.140625 7.484375 7.234375 7.316406 7.371094 7.195312 C 7.503906 7.078125 7.699219 7 8 7 C 8.300781 7 8.496094 7.078125 8.628906 7.195312 C 8.765625 7.316406 8.859375 7.484375 8.859375 7.75 C 8.859375 7.980469 8.804688 8.078125 8.734375 8.164062 C 8.4375 8.425781 8.078125 8.652344 7.785156 8.867188 C 7.460938 9.082031 7.140625 9.359375 7.140625 9.75 L 7.140625 10 L 8.285156 10 L 8.285156 9.75 C 8.691406 9.386719 9.296875 9.070312 9.671875 8.734375 C 9.871094 8.484375 10 8.144531 10 7.75 C 10.003906 7.269531 9.800781 6.808594 9.441406 6.488281 C 9.074219 6.171875 8.554688 6 8 6 M 7.140625 11 L 7.140625 12 L 8.285156 12 L 8.285156 11 Z M 7.140625 11 "/>
</g>
</svg>
