<?xml version="1.0" encoding="UTF-8"?>
<svg xmlns="http://www.w3.org/2000/svg" xmlns:xlink="http://www.w3.org/1999/xlink" width="16px" height="16px" viewBox="0 0 16 16" version="1.1">
<g id="surface1">
<path style=" stroke:none;fill-rule:nonzero;fill:rgb(49.803922%,50.196081%,50.196081%);fill-opacity:1;" d="M 11.605469 2.09375 C 11.578125 2.109375 11.460938 2.253906 11.34375 2.40625 L 11.132812 2.6875 L 11.054688 2.632812 C 10.949219 2.5625 10.847656 2.546875 10.75 2.589844 C 10.683594 2.621094 10.527344 2.816406 9.5 4.171875 C 9.101562 4.6875 8.710938 5.210938 8.324219 5.734375 C 8.328125 5.746094 8.585938 5.953125 8.898438 6.191406 L 9.476562 6.628906 L 10.246094 5.621094 C 10.664062 5.0625 11.015625 4.613281 11.027344 4.621094 C 11.050781 4.640625 11.101562 5.078125 11.089844 5.21875 C 11.078125 5.324219 11.054688 5.425781 11.023438 5.527344 C 10.96875 5.6875 10.964844 5.699219 10.015625 6.953125 C 9.488281 7.648438 9.050781 8.234375 9.042969 8.261719 C 9.019531 8.324219 9.046875 8.445312 9.09375 8.515625 C 9.171875 8.632812 9.375 8.671875 9.492188 8.589844 C 9.570312 8.527344 11.453125 6.027344 11.511719 5.894531 C 11.6875 5.523438 11.726562 5.042969 11.621094 4.570312 C 11.582031 4.402344 11.53125 4.238281 11.464844 4.078125 C 11.449219 4.039062 11.476562 3.996094 11.652344 3.761719 C 11.816406 3.539062 11.859375 3.476562 11.859375 3.417969 C 11.867188 3.296875 11.828125 3.226562 11.710938 3.132812 L 11.597656 3.042969 L 11.824219 2.742188 C 12.007812 2.496094 12.046875 2.429688 12.050781 2.371094 C 12.066406 2.125 11.804688 1.964844 11.605469 2.09375 "/>
<path style=" stroke:none;fill-rule:nonzero;fill:rgb(49.803922%,50.196081%,50.196081%);fill-opacity:1;" d="M 6.425781 8.21875 C 5.074219 10 4.878906 10.265625 4.753906 10.492188 C 4.507812 10.941406 4.234375 11.632812 4.058594 12.265625 C 3.9375 12.667969 3.933594 12.628906 4.09375 12.546875 C 4.632812 12.253906 5.140625 11.914062 5.621094 11.535156 C 5.988281 11.222656 6.050781 11.140625 7.621094 9.074219 L 9.132812 7.085938 L 8.550781 6.644531 C 8.359375 6.496094 8.160156 6.347656 7.964844 6.203125 C 7.957031 6.203125 7.265625 7.113281 6.425781 8.21875 M 7.933594 10.820312 C 7.703125 10.867188 7.441406 11.070312 7.316406 11.304688 C 7.269531 11.402344 7.226562 11.503906 7.195312 11.605469 C 7.175781 11.671875 7.15625 11.738281 7.132812 11.800781 C 7.113281 11.824219 6.664062 11.933594 6.402344 11.976562 C 5.785156 12.085938 5.617188 12.125 5.558594 12.183594 C 5.4375 12.292969 5.527344 12.402344 5.695312 12.351562 C 5.742188 12.335938 5.929688 12.300781 6.117188 12.269531 C 6.300781 12.238281 6.582031 12.179688 6.742188 12.144531 C 6.902344 12.105469 7.035156 12.082031 7.042969 12.089844 C 7.050781 12.101562 7.023438 12.226562 6.980469 12.371094 L 6.902344 12.640625 L 6.734375 12.714844 C 6.632812 12.761719 6.535156 12.8125 6.441406 12.875 C 6.230469 13.015625 6.191406 13.1875 6.339844 13.300781 C 6.417969 13.359375 6.640625 13.359375 6.785156 13.300781 C 6.90625 13.246094 6.976562 13.164062 7.074219 12.964844 C 7.125 12.855469 7.164062 12.800781 7.195312 12.792969 C 7.222656 12.785156 7.445312 12.742188 7.691406 12.691406 C 7.9375 12.640625 8.164062 12.59375 8.191406 12.589844 C 8.238281 12.578125 8.242188 12.578125 8.230469 12.621094 C 8.222656 12.652344 8.183594 12.730469 8.140625 12.796875 C 8.101562 12.855469 8.074219 12.917969 8.0625 12.984375 C 8.0625 13.054688 8.121094 13.121094 8.167969 13.105469 C 8.183594 13.097656 8.203125 13.089844 8.222656 13.089844 C 8.234375 13.089844 8.285156 13.054688 8.332031 13.011719 C 8.421875 12.925781 8.648438 12.519531 8.648438 12.433594 C 8.648438 12.390625 8.679688 12.378906 8.703125 12.414062 C 8.707031 12.425781 8.761719 12.445312 8.816406 12.460938 C 8.894531 12.480469 8.917969 12.496094 8.917969 12.53125 C 8.917969 12.601562 9.03125 12.703125 9.132812 12.722656 C 9.214844 12.734375 9.3125 12.722656 9.421875 12.675781 C 9.460938 12.660156 9.460938 12.664062 9.449219 12.722656 C 9.410156 12.8125 9.359375 12.898438 9.304688 12.980469 C 9.15625 13.199219 8.976562 13.550781 8.929688 13.703125 C 8.890625 13.835938 8.90625 13.933594 8.976562 13.984375 C 9.039062 14.023438 9.140625 14.003906 9.195312 13.949219 C 9.246094 13.894531 9.5 13.355469 9.59375 13.109375 C 9.660156 12.933594 9.691406 12.890625 9.847656 12.726562 C 9.972656 12.59375 10.011719 12.5625 9.984375 12.613281 C 9.941406 12.710938 9.941406 12.785156 9.992188 12.828125 C 10.097656 12.925781 10.25 12.828125 10.382812 12.589844 C 10.464844 12.445312 10.519531 12.402344 10.8125 12.265625 L 10.964844 12.195312 L 10.949219 12.277344 C 10.917969 12.375 10.882812 12.472656 10.835938 12.5625 C 10.726562 12.785156 10.707031 12.925781 10.769531 13.046875 C 10.816406 13.132812 10.859375 13.132812 11.066406 13.058594 C 11.351562 12.964844 11.726562 12.742188 11.824219 12.613281 C 11.957031 12.433594 11.996094 12.261719 11.914062 12.203125 C 11.832031 12.140625 11.785156 12.167969 11.679688 12.320312 C 11.535156 12.535156 11.363281 12.695312 11.195312 12.78125 C 11.117188 12.820312 11.046875 12.847656 11.039062 12.839844 C 11.03125 12.832031 11.210938 12.347656 11.308594 12.121094 C 11.324219 12.082031 11.335938 12.035156 11.34375 11.992188 C 11.34375 11.929688 11.265625 11.859375 11.195312 11.859375 C 11.164062 11.859375 11.015625 11.917969 10.867188 11.996094 C 10.558594 12.148438 10.582031 12.160156 10.660156 11.871094 C 10.707031 11.695312 10.691406 11.648438 10.585938 11.636719 C 10.480469 11.625 10.441406 11.660156 10.347656 11.828125 C 10.285156 11.941406 10.203125 12.035156 10.050781 12.183594 C 9.847656 12.371094 9.835938 12.375 9.789062 12.34375 C 9.714844 12.289062 9.675781 12.296875 9.5 12.386719 C 9.328125 12.472656 9.273438 12.484375 9.230469 12.433594 C 9.195312 12.390625 9.25 12.367188 9.566406 12.304688 C 9.867188 12.246094 9.90625 12.230469 9.90625 12.167969 C 9.90625 12.070312 9.820312 11.96875 9.671875 11.90625 C 9.417969 11.789062 9.390625 11.785156 9.277344 11.8125 C 9.15625 11.84375 8.972656 12.015625 8.949219 12.125 C 8.925781 12.234375 8.847656 12.207031 8.847656 12.078125 C 8.847656 12.027344 8.785156 11.898438 8.75 11.875 C 8.671875 11.824219 8.550781 11.933594 8.457031 12.140625 L 8.378906 12.300781 L 8.214844 12.339844 C 7.90625 12.402344 7.597656 12.464844 7.289062 12.527344 C 7.234375 12.535156 7.226562 12.535156 7.238281 12.5 C 7.246094 12.476562 7.273438 12.378906 7.300781 12.277344 C 7.371094 12 7.390625 11.964844 7.492188 11.925781 C 7.707031 11.84375 7.917969 11.753906 8.128906 11.65625 C 8.175781 11.628906 8.277344 11.554688 8.351562 11.484375 C 8.578125 11.273438 8.617188 11.078125 8.453125 10.933594 C 8.414062 10.902344 8.371094 10.871094 8.324219 10.847656 C 8.199219 10.8125 8.066406 10.804688 7.9375 10.824219 Z M 8.222656 11.132812 C 8.265625 11.175781 8.265625 11.175781 8.226562 11.265625 C 8.1875 11.332031 8.128906 11.390625 8.058594 11.433594 C 7.921875 11.527344 7.496094 11.703125 7.480469 11.671875 C 7.460938 11.621094 7.597656 11.308594 7.683594 11.214844 C 7.804688 11.078125 7.835938 11.066406 8.023438 11.078125 C 8.140625 11.089844 8.191406 11.09375 8.222656 11.132812 M 6.757812 13 C 6.730469 13.058594 6.652344 13.097656 6.609375 13.082031 C 6.558594 13.058594 6.574219 13.035156 6.652344 12.996094 C 6.753906 12.941406 6.785156 12.941406 6.757812 13.003906 Z M 6.757812 13 "/>
</g>
</svg>
