<?xml version="1.0" encoding="UTF-8"?>
<svg xmlns="http://www.w3.org/2000/svg" xmlns:xlink="http://www.w3.org/1999/xlink" width="16px" height="16px" viewBox="0 0 16 16" version="1.1">
<g id="surface1">
<path style=" stroke:none;fill-rule:nonzero;fill:rgb(49.803922%,50.196081%,50.196081%);fill-opacity:1;" d="M 2 2 L 2 14 L 14 14 L 14 2 Z M 3 3 L 13 3 L 13 13 L 3 13 Z M 4 4 L 4 6 L 12 6 L 12 4 Z M 4 7 L 4 8 L 7 8 L 7 7 Z M 9 7 L 9 8 L 12 8 L 12 7 Z M 4 9 L 4 10 L 7 10 L 7 9 Z M 9 9 L 9 10 L 12 10 L 12 9 Z M 4 11 L 4 12 L 7 12 L 7 11 Z M 9 11 L 9 12 L 12 12 L 12 11 Z M 9 11 "/>
</g>
</svg>
