<?xml version="1.0" encoding="UTF-8"?>
<svg xmlns="http://www.w3.org/2000/svg" xmlns:xlink="http://www.w3.org/1999/xlink" width="16px" height="16px" viewBox="0 0 16 16" version="1.1">
<g id="surface1">
<path style=" stroke:none;fill-rule:nonzero;fill:rgb(49.803922%,50.196081%,50.196081%);fill-opacity:1;" d="M 8 2 C 4.6875 2 2 4.6875 2 8 C 2 11.3125 4.6875 14 8 14 C 11.3125 14 14 11.3125 14 8 C 14 4.6875 11.3125 2 8 2 M 8 3 C 8.171875 3 8.332031 3.015625 8.5 3.03125 L 8.625 3.03125 C 8.679688 3.039062 8.730469 3.054688 8.78125 3.0625 C 8.925781 3.085938 9.046875 3.121094 9.1875 3.15625 C 9.441406 3.21875 9.699219 3.304688 9.9375 3.40625 C 10.070312 3.464844 10.183594 3.527344 10.3125 3.59375 L 10.3125 3.625 C 10.339844 3.640625 10.359375 3.691406 10.40625 3.71875 C 10.421875 3.730469 10.421875 3.742188 10.4375 3.75 C 10.464844 3.765625 10.503906 3.785156 10.5 3.8125 C 10.492188 3.851562 10.433594 3.84375 10.40625 3.875 C 10.410156 3.929688 10.359375 3.929688 10.34375 3.96875 C 10.351562 3.996094 10.402344 4 10.40625 4.03125 C 10.402344 4.0625 10.332031 4.058594 10.34375 4.089844 C 10.398438 4.132812 10.449219 4.101562 10.5 4.089844 C 10.609375 4.078125 10.710938 4.082031 10.78125 4.03125 C 10.769531 3.976562 10.878906 3.984375 10.875 3.933594 C 10.902344 3.957031 10.941406 3.976562 10.96875 3.996094 C 10.957031 4.007812 10.949219 4.023438 10.9375 4.027344 C 10.914062 4.039062 10.894531 4.046875 10.875 4.058594 C 10.847656 4.078125 10.8125 4.101562 10.78125 4.121094 C 10.753906 4.140625 10.710938 4.214844 10.683594 4.214844 C 10.65625 4.214844 10.613281 4.179688 10.589844 4.183594 C 10.5625 4.195312 10.5625 4.234375 10.527344 4.246094 C 10.464844 4.269531 10.332031 4.210938 10.308594 4.308594 C 10.339844 4.367188 10.449219 4.339844 10.496094 4.371094 C 10.539062 4.40625 10.570312 4.449219 10.589844 4.496094 C 10.601562 4.558594 10.601562 4.621094 10.589844 4.683594 C 10.558594 4.765625 10.464844 4.746094 10.371094 4.746094 L 10.308594 4.746094 C 10.15625 4.734375 10.003906 4.664062 9.933594 4.777344 C 9.941406 4.859375 9.953125 4.921875 9.933594 4.996094 C 9.921875 5.050781 9.835938 5.105469 9.839844 5.152344 C 9.839844 5.175781 9.898438 5.214844 9.902344 5.246094 C 9.910156 5.265625 9.894531 5.289062 9.902344 5.308594 C 9.929688 5.359375 9.984375 5.296875 10.027344 5.308594 C 10.074219 5.320312 10.121094 5.382812 10.121094 5.433594 C 10.121094 5.476562 10.113281 5.519531 10.089844 5.558594 C 10.046875 5.625 9.964844 5.617188 9.902344 5.652344 C 9.851562 5.683594 9.839844 5.753906 9.808594 5.804688 C 9.777344 5.863281 9.734375 5.882812 9.746094 5.964844 C 9.710938 6.046875 9.644531 6.117188 9.558594 6.152344 C 9.53125 6.164062 9.488281 6.164062 9.464844 6.183594 C 9.445312 6.195312 9.433594 6.246094 9.402344 6.277344 C 9.367188 6.316406 9.328125 6.339844 9.308594 6.371094 C 9.292969 6.394531 9.292969 6.433594 9.277344 6.464844 C 9.257812 6.503906 9.210938 6.515625 9.183594 6.558594 C 9.171875 6.578125 9.164062 6.628906 9.152344 6.652344 C 9.121094 6.710938 9.082031 6.757812 9.089844 6.808594 C 9.09375 6.859375 9.148438 6.859375 9.152344 6.902344 C 9.15625 6.925781 9.121094 6.941406 9.121094 6.964844 C 9.121094 7.003906 9.148438 7.027344 9.152344 7.058594 C 9.160156 7.132812 9.101562 7.164062 9.089844 7.214844 C 9.082031 7.238281 9.09375 7.257812 9.089844 7.277344 C 9.078125 7.316406 9.027344 7.359375 9.027344 7.402344 C 9.027344 7.433594 9.085938 7.453125 9.089844 7.496094 C 9.089844 7.527344 9.050781 7.5625 9.058594 7.589844 C 9.070312 7.644531 9.171875 7.703125 9.214844 7.746094 C 9.269531 7.804688 9.34375 7.839844 9.371094 7.902344 C 9.390625 7.953125 9.394531 8.050781 9.433594 8.089844 C 9.464844 8.121094 9.519531 8.121094 9.558594 8.152344 C 9.59375 8.179688 9.613281 8.183594 9.652344 8.214844 C 9.710938 8.261719 9.804688 8.378906 9.902344 8.371094 C 9.953125 8.359375 10 8.320312 10.058594 8.308594 C 10.117188 8.296875 10.183594 8.273438 10.246094 8.277344 C 10.292969 8.289062 10.355469 8.308594 10.402344 8.308594 C 10.453125 8.296875 10.5 8.296875 10.554688 8.277344 C 10.65625 8.234375 10.820312 8.160156 10.964844 8.183594 C 11.074219 8.199219 11.074219 8.320312 11.152344 8.371094 C 11.238281 8.378906 11.300781 8.355469 11.371094 8.371094 C 11.421875 8.382812 11.492188 8.453125 11.496094 8.496094 C 11.5 8.539062 11.441406 8.59375 11.433594 8.621094 C 11.417969 8.679688 11.441406 8.738281 11.433594 8.777344 C 11.425781 8.808594 11.402344 8.839844 11.402344 8.871094 C 11.402344 8.898438 11.4375 8.964844 11.464844 8.996094 C 11.496094 9.035156 11.550781 9.078125 11.589844 9.121094 C 11.660156 9.203125 11.695312 9.289062 11.746094 9.402344 C 11.757812 9.429688 11.730469 9.460938 11.746094 9.496094 C 11.726562 9.664062 11.667969 9.777344 11.558594 9.964844 C 11.507812 10.027344 11.433594 10.078125 11.433594 10.152344 C 11.429688 10.332031 11.535156 10.449219 11.527344 10.621094 C 11.507812 10.855469 11.546875 10.871094 11.527344 10.996094 C 11.605469 11.035156 11.550781 11.164062 11.527344 11.246094 C 11.496094 11.347656 11.453125 11.371094 11.433594 11.433594 C 11.484375 11.457031 11.5625 11.449219 11.621094 11.433594 C 11.589844 11.464844 11.554688 11.496094 11.527344 11.527344 C 11.296875 11.761719 11.046875 11.96875 10.777344 12.152344 C 10.261719 12.503906 9.6875 12.765625 9.058594 12.902344 C 8.710938 12.980469 8.359375 12.996094 7.996094 12.996094 C 7.804688 12.996094 7.617188 12.988281 7.433594 12.964844 C 7.285156 12.949219 7.136719 12.933594 6.996094 12.90625 C 6.710938 12.847656 6.445312 12.726562 6.183594 12.625 C 6.171875 12.609375 6.148438 12.582031 6.152344 12.5625 C 6.203125 12.539062 6.300781 12.636719 6.339844 12.5625 C 6.359375 12.527344 6.3125 12.441406 6.339844 12.40625 C 6.355469 12.378906 6.457031 12.378906 6.496094 12.375 C 6.546875 12.363281 6.621094 12.359375 6.652344 12.34375 C 6.683594 12.324219 6.71875 12.25 6.710938 12.1875 C 6.710938 12.160156 6.671875 12.152344 6.652344 12.125 C 6.628906 12.105469 6.660156 12.085938 6.652344 12.066406 C 6.625 12.027344 6.566406 12.019531 6.554688 11.96875 C 6.628906 11.957031 6.734375 12.03125 6.835938 12 C 6.886719 11.984375 6.96875 11.890625 6.996094 11.84375 C 7 11.832031 6.984375 11.800781 6.996094 11.785156 L 7.023438 11.722656 C 7.03125 11.691406 7.015625 11.707031 7.023438 11.691406 C 7.042969 11.640625 7.089844 11.601562 7.121094 11.566406 C 7.140625 11.535156 7.191406 11.5 7.214844 11.472656 C 7.234375 11.441406 7.226562 11.4375 7.246094 11.410156 C 7.257812 11.316406 7.191406 11.238281 7.214844 11.160156 C 7.234375 11.070312 7.375 11.011719 7.464844 10.972656 C 7.492188 10.957031 7.53125 10.949219 7.558594 10.941406 C 7.617188 10.917969 7.6875 10.898438 7.742188 10.878906 C 7.839844 10.84375 7.855469 10.777344 7.898438 10.691406 C 7.925781 10.652344 7.945312 10.609375 7.964844 10.566406 C 7.964844 10.539062 7.957031 10.535156 7.964844 10.503906 C 7.96875 10.472656 7.953125 10.441406 7.964844 10.410156 C 7.972656 10.367188 7.996094 10.269531 7.996094 10.222656 C 7.996094 10.183594 7.964844 10.164062 7.964844 10.128906 C 7.957031 9.996094 8.007812 10.011719 8.058594 9.941406 C 8.082031 9.902344 8.101562 9.839844 8.121094 9.816406 C 8.203125 9.691406 8.347656 9.652344 8.335938 9.46875 C 8.335938 9.410156 8.289062 9.269531 8.246094 9.25 C 8.21875 9.238281 8.1875 9.234375 8.152344 9.21875 C 8.035156 9.175781 7.929688 9.042969 7.804688 9.03125 L 7.742188 9.03125 C 7.695312 9.03125 7.640625 9.007812 7.589844 9 C 7.554688 8.992188 7.484375 9.011719 7.464844 9 C 7.433594 8.984375 7.425781 8.921875 7.402344 8.90625 C 7.378906 8.890625 7.339844 8.886719 7.304688 8.875 C 7.253906 8.859375 7.238281 8.816406 7.183594 8.816406 C 7.164062 8.816406 7.140625 8.824219 7.121094 8.816406 C 7.089844 8.804688 7.054688 8.800781 7.023438 8.785156 C 6.988281 8.761719 6.945312 8.753906 6.929688 8.722656 C 6.964844 8.613281 6.859375 8.597656 6.835938 8.535156 C 6.828125 8.503906 6.847656 8.433594 6.835938 8.410156 C 6.824219 8.371094 6.785156 8.34375 6.742188 8.316406 C 6.679688 8.261719 6.605469 8.226562 6.523438 8.21875 C 6.476562 8.210938 6.421875 8.230469 6.367188 8.21875 C 6.296875 8.207031 6.230469 8.175781 6.179688 8.125 C 6.136719 8.078125 6.121094 8.023438 6.085938 8 C 6.050781 7.980469 6.015625 7.960938 5.992188 7.941406 C 5.980469 7.929688 5.96875 7.929688 5.960938 7.910156 C 5.941406 7.871094 5.90625 7.859375 5.929688 7.816406 C 5.890625 7.792969 5.910156 7.851562 5.867188 7.84375 C 5.828125 7.789062 5.796875 7.734375 5.710938 7.75 C 5.671875 7.761719 5.628906 7.84375 5.585938 7.84375 C 5.546875 7.84375 5.511719 7.757812 5.460938 7.75 C 5.421875 7.742188 5.359375 7.785156 5.335938 7.78125 C 5.292969 7.773438 5.28125 7.746094 5.242188 7.71875 C 5.214844 7.703125 5.160156 7.65625 5.148438 7.660156 C 5.097656 7.660156 5.058594 7.753906 4.992188 7.71875 C 4.957031 7.675781 5.0625 7.664062 5.023438 7.625 C 4.992188 7.597656 4.984375 7.640625 4.960938 7.65625 C 4.929688 7.675781 4.894531 7.675781 4.863281 7.6875 C 4.796875 7.710938 4.730469 7.722656 4.675781 7.75 C 4.632812 7.769531 4.601562 7.800781 4.582031 7.84375 C 4.558594 7.886719 4.523438 7.964844 4.488281 7.96875 C 4.445312 7.96875 4.433594 7.921875 4.394531 7.90625 C 4.28125 7.859375 4.210938 7.933594 4.113281 7.9375 C 4.027344 7.9375 3.890625 7.800781 3.894531 7.71875 C 3.898438 7.667969 3.921875 7.59375 3.925781 7.53125 C 3.929688 7.480469 3.988281 7.421875 3.988281 7.375 C 3.988281 7.3125 3.871094 7.289062 3.832031 7.28125 C 3.738281 7.265625 3.628906 7.324219 3.519531 7.28125 C 3.5 7.246094 3.539062 7.222656 3.550781 7.1875 C 3.558594 7.167969 3.542969 7.144531 3.550781 7.125 C 3.5625 7.09375 3.632812 7.066406 3.644531 7.03125 C 3.65625 7.003906 3.632812 6.96875 3.644531 6.9375 C 3.660156 6.902344 3.703125 6.867188 3.707031 6.84375 C 3.710938 6.808594 3.671875 6.769531 3.644531 6.75 C 3.5625 6.757812 3.503906 6.757812 3.457031 6.78125 C 3.347656 6.828125 3.378906 6.964844 3.269531 7 C 3.230469 7.011719 3.1875 7.023438 3.144531 7.03125 C 3.125 7.039062 3.101562 7.03125 3.082031 7.03125 C 3.082031 7.019531 3.078125 7.007812 3.082031 7 C 3.085938 6.976562 3.109375 6.960938 3.109375 6.9375 C 3.183594 6.609375 3.292969 6.296875 3.425781 6 L 3.457031 6 C 3.492188 6.007812 3.515625 6.058594 3.550781 6.058594 C 3.640625 6.070312 3.660156 5.976562 3.738281 5.933594 C 3.816406 5.945312 3.855469 5.925781 3.925781 5.933594 C 3.972656 5.945312 4.042969 5.996094 4.082031 5.996094 C 4.113281 5.996094 4.113281 5.964844 4.144531 5.964844 C 4.175781 5.976562 4.234375 6.027344 4.238281 6.058594 C 4.246094 6.105469 4.195312 6.167969 4.207031 6.214844 C 4.257812 6.265625 4.359375 6.285156 4.425781 6.308594 C 4.472656 6.273438 4.433594 6.207031 4.425781 6.15625 C 4.425781 6.132812 4.429688 6.082031 4.425781 6.058594 C 4.421875 6.027344 4.394531 5.996094 4.394531 5.964844 C 4.394531 5.824219 4.519531 5.773438 4.613281 5.714844 C 4.65625 5.695312 4.703125 5.640625 4.738281 5.621094 C 4.789062 5.601562 4.824219 5.613281 4.863281 5.589844 C 4.941406 5.546875 4.996094 5.484375 5.054688 5.433594 C 5.078125 5.371094 5.050781 5.28125 5.054688 5.214844 C 5.078125 5.199219 5.121094 5.214844 5.148438 5.214844 C 5.195312 5.207031 5.214844 5.148438 5.242188 5.121094 C 5.257812 5.109375 5.285156 5.109375 5.304688 5.089844 C 5.347656 5.058594 5.359375 5.015625 5.398438 4.996094 C 5.417969 4.984375 5.4375 4.972656 5.460938 4.964844 C 5.492188 4.957031 5.535156 4.953125 5.585938 4.933594 C 5.617188 4.925781 5.699219 4.917969 5.710938 4.90625 C 5.726562 4.890625 5.707031 4.835938 5.710938 4.808594 C 5.734375 4.699219 5.890625 4.691406 5.992188 4.65625 C 6.0625 4.628906 6.132812 4.546875 6.210938 4.558594 C 6.195312 4.613281 6.136719 4.621094 6.148438 4.683594 C 6.164062 4.777344 6.273438 4.667969 6.304688 4.65625 C 6.363281 4.628906 6.472656 4.589844 6.554688 4.558594 C 6.625 4.535156 6.742188 4.515625 6.679688 4.433594 C 6.625 4.425781 6.601562 4.480469 6.554688 4.496094 C 6.519531 4.507812 6.519531 4.46875 6.492188 4.464844 C 6.460938 4.464844 6.457031 4.503906 6.429688 4.496094 C 6.398438 4.488281 6.371094 4.4375 6.363281 4.402344 C 6.355469 4.320312 6.425781 4.308594 6.460938 4.246094 C 6.433594 4.171875 6.335938 4.214844 6.269531 4.183594 C 6.28125 4.136719 6.316406 4.101562 6.363281 4.089844 C 6.429688 4.085938 6.496094 4.097656 6.554688 4.121094 C 6.570312 4.136719 6.53125 4.164062 6.554688 4.183594 C 6.578125 4.207031 6.613281 4.195312 6.648438 4.183594 C 6.660156 4.128906 6.574219 4.160156 6.585938 4.121094 C 6.652344 4.078125 6.78125 4.101562 6.863281 4.089844 C 6.917969 4.078125 6.972656 4.058594 7.019531 4.03125 C 7.058594 4.003906 7.074219 3.960938 7.113281 4 C 7.128906 4.039062 7.109375 4.070312 7.085938 4.09375 C 7.003906 4.160156 6.929688 4.230469 6.863281 4.3125 C 6.902344 4.347656 6.960938 4.335938 7.019531 4.34375 C 7.046875 4.351562 7.089844 4.34375 7.113281 4.34375 C 7.144531 4.351562 7.183594 4.332031 7.210938 4.34375 C 7.25 4.351562 7.261719 4.4375 7.304688 4.4375 C 7.371094 4.4375 7.339844 4.359375 7.304688 4.3125 C 7.316406 4.265625 7.351562 4.21875 7.335938 4.1875 C 7.304688 4.125 7.183594 4.203125 7.179688 4.125 C 7.171875 4.074219 7.222656 4.070312 7.242188 4.03125 C 7.234375 3.933594 7.3125 3.929688 7.304688 3.84375 C 7.296875 3.808594 7.269531 3.816406 7.242188 3.78125 C 7.226562 3.765625 7.226562 3.699219 7.210938 3.6875 C 7.160156 3.640625 7.058594 3.675781 7.054688 3.59375 C 7.050781 3.542969 7.058594 3.488281 7.054688 3.4375 C 7.046875 3.386719 7.003906 3.226562 6.960938 3.21875 C 6.902344 3.207031 6.871094 3.3125 6.804688 3.34375 C 6.753906 3.363281 6.703125 3.375 6.648438 3.375 C 6.625 3.363281 6.589844 3.359375 6.585938 3.3125 C 6.582031 3.269531 6.628906 3.25 6.648438 3.21875 C 6.652344 3.207031 6.644531 3.199219 6.648438 3.1875 C 6.722656 3.167969 6.792969 3.140625 6.867188 3.125 C 6.910156 3.113281 6.949219 3.101562 6.992188 3.09375 C 7.023438 3.085938 7.058594 3.105469 7.085938 3.09375 C 7.382812 3.035156 7.6875 3.003906 7.992188 3 Z M 5.96875 3.46875 C 5.9375 3.652344 5.765625 3.722656 5.5625 3.71875 C 5.515625 3.765625 5.558594 3.847656 5.53125 3.90625 C 5.511719 3.957031 5.425781 4.003906 5.375 4 C 5.339844 4 5.28125 3.941406 5.28125 3.90625 C 5.28125 3.863281 5.347656 3.859375 5.3125 3.8125 C 5.316406 3.804688 5.335938 3.792969 5.34375 3.78125 C 5.363281 3.769531 5.386719 3.765625 5.40625 3.75 C 5.589844 3.640625 5.773438 3.558594 5.96875 3.46875 M 10.160156 3.65625 C 10.140625 3.667969 10.140625 3.679688 10.128906 3.6875 C 10.089844 3.710938 10.0625 3.738281 10.035156 3.75 C 9.992188 3.765625 9.945312 3.773438 9.941406 3.8125 C 9.933594 3.84375 9.972656 3.847656 9.96875 3.875 C 9.953125 3.910156 9.945312 3.921875 9.941406 3.96875 C 9.988281 4.050781 10.09375 3.949219 10.160156 3.9375 C 10.183594 3.925781 10.203125 3.925781 10.222656 3.90625 C 10.238281 3.878906 10.238281 3.847656 10.253906 3.8125 C 10.269531 3.769531 10.320312 3.753906 10.316406 3.71875 C 10.308594 3.683594 10.222656 3.652344 10.160156 3.65625 Z M 4.691406 4.28125 C 4.734375 4.320312 4.804688 4.402344 4.71875 4.4375 C 4.671875 4.457031 4.617188 4.46875 4.566406 4.46875 C 4.554688 4.46875 4.539062 4.445312 4.535156 4.4375 C 4.585938 4.390625 4.636719 4.328125 4.691406 4.28125 M 4.878906 4.46875 C 4.898438 4.46875 4.910156 4.53125 4.941406 4.53125 C 4.964844 4.53125 4.984375 4.496094 5.003906 4.5 C 5.046875 4.511719 5.074219 4.59375 5.035156 4.625 C 5 4.636719 4.996094 4.589844 4.972656 4.59375 C 4.902344 4.609375 4.867188 4.753906 4.816406 4.75 C 4.765625 4.742188 4.734375 4.628906 4.785156 4.59375 C 4.785156 4.566406 4.78125 4.566406 4.785156 4.535156 C 4.796875 4.515625 4.835938 4.46875 4.878906 4.472656 Z M 4.628906 4.5 C 4.640625 4.5 4.652344 4.492188 4.660156 4.5 C 4.652344 4.554688 4.636719 4.570312 4.59375 4.59375 C 4.523438 4.640625 4.460938 4.691406 4.441406 4.785156 C 4.433594 4.808594 4.347656 4.882812 4.316406 4.878906 C 4.234375 4.859375 4.359375 4.710938 4.378906 4.691406 C 4.398438 4.664062 4.417969 4.65625 4.441406 4.628906 C 4.464844 4.597656 4.480469 4.546875 4.503906 4.535156 C 4.539062 4.511719 4.582031 4.5 4.628906 4.503906 Z M 11.410156 4.65625 C 11.484375 4.648438 11.527344 4.734375 11.566406 4.78125 C 11.609375 4.832031 11.660156 4.875 11.71875 4.90625 C 11.746094 4.921875 11.785156 4.957031 11.816406 4.96875 C 11.878906 4.996094 11.996094 5.089844 12.003906 5.15625 C 12.003906 5.191406 11.964844 5.222656 11.972656 5.25 C 12.019531 5.261719 12.066406 5.175781 12.066406 5.125 C 12.15625 5.257812 12.234375 5.394531 12.316406 5.53125 C 12.351562 5.597656 12.40625 5.652344 12.441406 5.71875 C 12.394531 5.734375 12.386719 5.738281 12.378906 5.78125 C 12.367188 5.835938 12.398438 5.929688 12.316406 5.9375 C 12.261719 5.949219 12.199219 5.890625 12.125 5.875 C 12.097656 5.867188 12.058594 5.886719 12.03125 5.875 C 11.976562 5.859375 11.984375 5.785156 11.9375 5.75 C 11.890625 5.722656 11.835938 5.699219 11.78125 5.691406 C 11.753906 5.691406 11.746094 5.699219 11.71875 5.691406 C 11.683594 5.679688 11.621094 5.703125 11.59375 5.691406 C 11.566406 5.671875 11.507812 5.621094 11.5 5.59375 C 11.488281 5.558594 11.589844 5.535156 11.59375 5.5 C 11.597656 5.476562 11.566406 5.441406 11.5625 5.40625 C 11.558594 5.386719 11.566406 5.359375 11.5625 5.34375 C 11.558594 5.320312 11.511719 5.316406 11.46875 5.316406 L 11.09375 5.316406 C 11.003906 5.324219 10.941406 5.304688 10.875 5.316406 C 10.824219 5.316406 10.734375 5.355469 10.683594 5.375 C 10.664062 5.386719 10.652344 5.390625 10.621094 5.40625 C 10.605469 5.417969 10.578125 5.429688 10.558594 5.4375 C 10.53125 5.453125 10.496094 5.492188 10.464844 5.5 C 10.425781 5.511719 10.378906 5.488281 10.308594 5.5 C 10.257812 5.5 10.183594 5.464844 10.183594 5.40625 C 10.183594 5.3125 10.347656 5.359375 10.433594 5.34375 C 10.46875 5.335938 10.488281 5.308594 10.527344 5.28125 C 10.546875 5.269531 10.542969 5.265625 10.558594 5.25 C 10.589844 5.230469 10.648438 5.183594 10.652344 5.15625 C 10.660156 5.136719 10.652344 5.109375 10.652344 5.09375 C 10.660156 5.074219 10.691406 5.058594 10.714844 5.035156 C 10.757812 4.992188 10.789062 4.933594 10.839844 4.910156 C 10.878906 4.890625 10.921875 4.875 10.933594 4.847656 C 10.941406 4.816406 10.933594 4.816406 10.933594 4.785156 C 10.953125 4.765625 10.976562 4.757812 11 4.753906 C 11.054688 4.742188 11.089844 4.753906 11.15625 4.753906 C 11.183594 4.753906 11.21875 4.765625 11.25 4.753906 C 11.273438 4.734375 11.285156 4.703125 11.3125 4.691406 C 11.339844 4.675781 11.375 4.664062 11.40625 4.660156 Z M 11.972656 5.25 L 11.847656 5.25 C 11.800781 5.25 11.746094 5.226562 11.722656 5.25 C 11.757812 5.308594 11.828125 5.332031 11.910156 5.34375 C 11.941406 5.324219 11.957031 5.289062 11.972656 5.25 M 5.128906 4.6875 L 5.222656 4.6875 C 5.246094 4.6875 5.277344 4.679688 5.285156 4.6875 C 5.269531 4.753906 5.121094 4.742188 5.066406 4.71875 C 5.070312 4.691406 5.097656 4.691406 5.128906 4.6875 M 4.910156 4.8125 C 4.867188 4.84375 4.824219 4.886719 4.753906 4.90625 C 4.714844 4.917969 4.667969 4.917969 4.660156 4.875 C 4.652344 4.824219 4.71875 4.847656 4.753906 4.84375 C 4.796875 4.835938 4.859375 4.816406 4.910156 4.816406 Z M 11.410156 4.8125 C 11.378906 4.824219 11.359375 4.898438 11.410156 4.90625 C 11.429688 4.890625 11.445312 4.855469 11.441406 4.8125 C 11.429688 4.796875 11.421875 4.804688 11.410156 4.8125 M 11.347656 4.96875 C 11.347656 5.027344 11.359375 5.078125 11.347656 5.125 C 11.378906 5.1875 11.457031 5.136719 11.472656 5.09375 C 11.492188 4.988281 11.457031 4.957031 11.410156 4.96875 C 11.390625 4.980469 11.363281 4.957031 11.347656 4.96875 M 3.066406 7.3125 C 3.121094 7.363281 3.152344 7.433594 3.222656 7.46875 C 3.253906 7.480469 3.285156 7.492188 3.316406 7.5 C 3.339844 7.507812 3.351562 7.488281 3.378906 7.5 C 3.433594 7.515625 3.492188 7.542969 3.535156 7.558594 C 3.597656 7.589844 3.664062 7.683594 3.722656 7.714844 C 3.722656 7.75 3.710938 7.785156 3.722656 7.808594 C 3.746094 7.847656 3.773438 7.878906 3.816406 7.90625 C 3.867188 7.929688 3.890625 7.976562 3.941406 8 C 3.957031 8.007812 3.976562 7.988281 4.003906 8 C 4.070312 8.019531 4.101562 8.109375 4.160156 8.09375 C 4.195312 8.082031 4.183594 8.035156 4.191406 8 C 4.214844 7.972656 4.246094 7.9375 4.285156 7.9375 C 4.347656 7.9375 4.355469 8.035156 4.378906 8.09375 C 4.394531 8.128906 4.433594 8.152344 4.445312 8.1875 C 4.457031 8.25 4.453125 8.433594 4.445312 8.46875 C 4.425781 8.515625 4.355469 8.511719 4.316406 8.5625 C 4.296875 8.585938 4.300781 8.640625 4.289062 8.65625 C 4.261719 8.683594 4.242188 8.691406 4.222656 8.71875 C 4.214844 8.734375 4.203125 8.761719 4.191406 8.78125 C 4.164062 8.84375 4.105469 8.890625 4.128906 8.96875 C 4.140625 9 4.191406 9.027344 4.191406 9.0625 C 4.191406 9.105469 4.105469 9.140625 4.097656 9.1875 C 4.09375 9.222656 4.121094 9.265625 4.128906 9.3125 C 4.136719 9.347656 4.203125 9.382812 4.222656 9.40625 C 4.257812 9.445312 4.285156 9.515625 4.320312 9.5625 C 4.378906 9.660156 4.410156 9.777344 4.472656 9.875 C 4.503906 9.921875 4.578125 9.949219 4.597656 10 C 4.609375 10.027344 4.589844 10.070312 4.597656 10.09375 C 4.632812 10.175781 4.796875 10.273438 4.878906 10.3125 C 4.917969 10.332031 4.96875 10.324219 5.003906 10.34375 C 5.058594 10.375 5.164062 10.453125 5.195312 10.5 C 5.214844 10.542969 5.210938 10.652344 5.222656 10.71875 C 5.238281 10.804688 5.21875 10.875 5.222656 10.96875 C 5.226562 11.019531 5.253906 11.042969 5.253906 11.09375 C 5.253906 11.109375 5.257812 11.167969 5.253906 11.1875 C 5.253906 11.25 5.257812 11.3125 5.253906 11.375 C 5.25 11.410156 5.253906 11.441406 5.253906 11.46875 C 5.257812 11.5 5.285156 11.503906 5.285156 11.53125 C 5.289062 11.558594 5.25 11.601562 5.253906 11.625 C 5.261719 11.691406 5.304688 11.722656 5.320312 11.78125 C 5.328125 11.828125 5.355469 11.945312 5.347656 12 C 5.34375 12.03125 5.320312 12.0625 5.316406 12.09375 C 5.316406 12.121094 5.320312 12.132812 5.316406 12.15625 C 5.316406 12.179688 5.324219 12.199219 5.316406 12.21875 C 5.285156 12.199219 5.257812 12.179688 5.222656 12.15625 C 4.953125 11.972656 4.703125 11.761719 4.472656 11.53125 C 4.441406 11.5 4.410156 11.46875 4.378906 11.4375 C 4.195312 11.242188 4.027344 11.03125 3.878906 10.8125 C 3.863281 10.792969 3.859375 10.769531 3.847656 10.75 C 3.675781 10.492188 3.53125 10.222656 3.410156 9.9375 C 3.402344 9.917969 3.386719 9.898438 3.378906 9.875 C 3.273438 9.613281 3.1875 9.339844 3.128906 9.0625 C 3.117188 9.011719 3.109375 8.960938 3.097656 8.90625 C 3.074219 8.773438 3.046875 8.640625 3.035156 8.5 C 3.015625 8.332031 3.003906 8.167969 3.003906 8 C 3.003906 7.761719 3.035156 7.539062 3.070312 7.3125 M 5.003906 7.84375 C 5.054688 7.820312 5.042969 7.898438 5.003906 7.90625 C 4.96875 7.914062 4.96875 7.859375 5.003906 7.84375 "/>
</g>
</svg>
