<?xml version="1.0" encoding="UTF-8"?>
<svg xmlns="http://www.w3.org/2000/svg" xmlns:xlink="http://www.w3.org/1999/xlink" width="16px" height="16px" viewBox="0 0 16 16" version="1.1">
<g id="surface1">
<path style=" stroke:none;fill-rule:nonzero;fill:rgb(0%,0%,0%);fill-opacity:1;" d="M 6.976562 2 L 6.976562 3.125 C 6.09375 3.203125 5.398438 3.414062 4.882812 3.8125 C 4.316406 4.246094 4.035156 4.886719 4.035156 5.71875 C 4.035156 6.882812 4.765625 7.636719 6.257812 8 L 6.976562 8.1875 L 6.976562 11.875 C 6.046875 11.796875 5.179688 11.601562 4.359375 11.21875 L 4 12.125 C 4.335938 12.320312 4.785156 12.503906 5.339844 12.65625 C 5.828125 12.785156 6.378906 12.84375 6.976562 12.875 L 6.976562 14 L 8.027344 14 L 8.027344 12.875 C 8.914062 12.804688 9.628906 12.546875 10.152344 12.09375 C 10.710938 11.609375 11 10.910156 11 10 C 11 9.265625 10.792969 8.710938 10.378906 8.316406 C 9.96875 7.910156 9.347656 7.621094 8.546875 7.441406 L 8.027344 7.316406 L 8.027344 4.066406 C 8.429688 4.09375 8.847656 4.148438 9.234375 4.253906 C 9.679688 4.367188 10.011719 4.515625 10.28125 4.660156 L 10.609375 3.753906 C 9.941406 3.351562 9.078125 3.113281 8.027344 3.066406 L 8.027344 2 Z M 6.746094 4.09375 C 6.816406 4.082031 6.902344 4.101562 6.976562 4.09375 L 6.976562 7.0625 L 6.683594 7 C 6.191406 6.886719 5.816406 6.714844 5.570312 6.5 C 5.328125 6.28125 5.210938 5.984375 5.210938 5.625 C 5.210938 4.769531 5.714844 4.257812 6.746094 4.09375 M 8.023438 8.40625 L 8.21875 8.46875 C 8.824219 8.613281 9.234375 8.808594 9.460938 9.066406 C 9.691406 9.316406 9.789062 9.65625 9.789062 10.066406 C 9.789062 11.195312 9.203125 11.796875 8.023438 11.910156 Z M 8.023438 8.40625 "/>
</g>
</svg>
