<?xml version="1.0" encoding="UTF-8"?>
<svg xmlns="http://www.w3.org/2000/svg" xmlns:xlink="http://www.w3.org/1999/xlink" width="16px" height="16px" viewBox="0 0 16 16" version="1.1">
<g id="surface1">
<path style=" stroke:none;fill-rule:nonzero;fill:rgb(100%,9.803922%,77.254903%);fill-opacity:1;" d="M 8 2 C 4.6875 2 2 2.894531 2 4 L 2 8 C 2.003906 8.972656 4.113281 9.804688 7 9.972656 L 7 12 L 5 12 L 5 11 L 2 11 L 2 14 L 5 14 L 5 13 L 11 13 L 11 14 L 14 14 L 14 11 L 11 11 L 11 12 L 9 12 L 9 9.972656 C 11.886719 9.808594 13.996094 8.972656 14 8 L 13 8 C 13 8.550781 10.761719 9 8 9 C 5.238281 9 3 8.550781 3 8 L 3 5.101562 C 4.109375 5.664062 5.984375 6 8 6 L 8 5 C 5.238281 5 3 4.550781 3 4 C 3 3.449219 5.238281 3 8 3 Z M 9 2 L 9 5 L 10 5 L 10 4 L 10.5 4 C 11.332031 4 12 4.667969 12 5.5 C 12 5.898438 11.84375 6.28125 11.5625 6.5625 C 11.28125 6.84375 10.898438 7 10.5 7 L 9 7 L 9 8 L 10.5 8 C 11.164062 8 11.800781 7.738281 12.269531 7.269531 C 12.738281 6.800781 13 6.164062 13 5.5 C 13 4.835938 12.738281 4.199219 12.269531 3.730469 C 11.800781 3.261719 11.164062 3 10.5 3 L 12 3 L 12 2 Z M 3 12 L 4 12 L 4 13 L 3 13 Z M 12 12 L 13 12 L 13 13 L 12 13 Z M 12 12 "/>
</g>
</svg>
