<?xml version="1.0" encoding="UTF-8"?>
<svg xmlns="http://www.w3.org/2000/svg" xmlns:xlink="http://www.w3.org/1999/xlink" width="16px" height="16px" viewBox="0 0 16 16" version="1.1">
<g id="surface1">
<path style=" stroke:none;fill-rule:nonzero;fill:rgb(100%,9.803922%,77.254903%);fill-opacity:1;" d="M 5 2 C 4.449219 2 4 2.449219 4 3 C 4 3.550781 4.449219 4 5 4 C 5.550781 4 6 3.550781 6 3 C 6 2.449219 5.550781 2 5 2 M 10 2 L 8.058594 3.5625 L 10.65625 6.78125 L 8.21875 9.21875 L 10 11 L 14 7 Z M 3.5 6 C 3.101562 6 2.71875 6.15625 2.4375 6.4375 C 2.15625 6.71875 2 7.101562 2 7.5 C 2 7.898438 2.15625 8.28125 2.4375 8.5625 C 2.71875 8.84375 3.101562 9 3.5 9 C 3.898438 9 4.28125 8.84375 4.5625 8.5625 C 4.84375 8.28125 5 7.898438 5 7.5 C 5 7.101562 4.84375 6.71875 4.5625 6.4375 C 4.28125 6.15625 3.898438 6 3.5 6 M 6.5 11 C 6.101562 11 5.71875 11.15625 5.4375 11.4375 C 5.15625 11.71875 5 12.101562 5 12.5 C 5 12.898438 5.15625 13.28125 5.4375 13.5625 C 5.71875 13.84375 6.101562 14 6.5 14 C 6.898438 14 7.28125 13.84375 7.5625 13.5625 C 7.84375 13.28125 8 12.898438 8 12.5 C 8 12.101562 7.84375 11.71875 7.5625 11.4375 C 7.28125 11.15625 6.898438 11 6.5 11 "/>
</g>
</svg>
