<?xml version="1.0" encoding="UTF-8"?>
<svg xmlns="http://www.w3.org/2000/svg" xmlns:xlink="http://www.w3.org/1999/xlink" width="16px" height="16px" viewBox="0 0 16 16" version="1.1">
<g id="surface1">
<path style=" stroke:none;fill-rule:nonzero;fill:rgb(9.803922%,54.901963%,99.607843%);fill-opacity:1;" d="M 11.691406 2.191406 L 10.070312 3.808594 L 5.101562 3.808594 C 4.859375 3.121094 4.152344 2.710938 3.433594 2.835938 C 2.714844 2.957031 2.191406 3.582031 2.1875 4.308594 C 2.191406 4.945312 2.589844 5.507812 3.1875 5.722656 L 3.1875 12.808594 L 6.1875 12.808594 L 6.1875 13.808594 L 9.1875 13.808594 L 9.1875 12.808594 L 12.1875 12.808594 L 12.1875 5.929688 L 13.808594 4.308594 Z M 11.691406 3.601562 L 12.394531 4.308594 L 11.691406 5.015625 L 10.984375 4.308594 Z M 3.691406 3.808594 C 3.875 3.800781 4.046875 3.898438 4.140625 4.054688 C 4.234375 4.210938 4.234375 4.410156 4.140625 4.566406 C 4.042969 4.722656 3.871094 4.816406 3.6875 4.8125 C 3.417969 4.800781 3.207031 4.578125 3.207031 4.308594 C 3.207031 4.039062 3.421875 3.820312 3.691406 3.808594 M 5.101562 4.808594 L 10.070312 4.808594 L 11.191406 5.929688 L 11.191406 11.808594 L 9.191406 11.808594 L 9.191406 10.808594 L 6.191406 10.808594 L 6.191406 11.808594 L 4.191406 11.808594 L 4.191406 5.722656 C 4.617188 5.570312 4.949219 5.234375 5.101562 4.808594 M 7.191406 11.808594 L 8.191406 11.808594 L 8.191406 12.808594 L 7.191406 12.808594 Z M 7.191406 11.808594 "/>
</g>
</svg>
