<?xml version="1.0" encoding="UTF-8"?>
<svg xmlns="http://www.w3.org/2000/svg" xmlns:xlink="http://www.w3.org/1999/xlink" width="16px" height="16px" viewBox="0 0 16 16" version="1.1">
<g id="surface1">
<path style=" stroke:none;fill-rule:nonzero;fill:rgb(9.803922%,99.607843%,77.254903%);fill-opacity:1;" d="M 2 2 L 2 14 L 14 14 L 14 2 Z M 3 3 L 4.910156 3 C 4.96875 3.160156 5 3.328125 5 3.5 C 5 4.328125 4.328125 5 3.5 5 C 3.328125 5 3.160156 4.96875 3 4.910156 Z M 5.945312 3 L 12.996094 3 L 12.996094 13 L 2.996094 13 L 2.996094 12.214844 L 4.324219 10.917969 L 5.730469 9.515625 L 6.296875 9.929688 L 7.398438 11 L 9.996094 8.601562 L 13.996094 12.496094 L 12.996094 10 L 9.996094 7 L 7.398438 9.601562 L 5.796875 8 L 2.996094 10.800781 L 2.996094 5.949219 C 3.734375 6.097656 4.496094 5.910156 5.078125 5.4375 C 5.660156 4.960938 5.996094 4.25 5.996094 3.5 C 5.996094 3.332031 5.976562 3.164062 5.941406 3 "/>
</g>
</svg>
