<?xml version="1.0" encoding="UTF-8"?>
<svg xmlns="http://www.w3.org/2000/svg" xmlns:xlink="http://www.w3.org/1999/xlink" width="16px" height="16px" viewBox="0 0 16 16" version="1.1">
<g id="surface1">
<path style="fill:none;stroke-width:1.299;stroke-linecap:round;stroke-linejoin:round;stroke:rgb(9.803922%,77.254903%,99.607843%);stroke-opacity:1;stroke-miterlimit:4;" d="M 4.27002 3.399902 L 17.72998 3.399902 C 18.208008 3.399902 18.600098 3.786621 18.600098 4.27002 L 18.600098 17.72998 C 18.600098 18.208008 18.213379 18.600098 17.72998 18.600098 L 4.27002 18.600098 C 3.786621 18.600098 3.399902 18.213379 3.399902 17.72998 L 3.399902 4.27002 C 3.399902 3.791992 3.786621 3.399902 4.27002 3.399902 Z M 4.27002 3.399902 " transform="matrix(0.727273,0,0,0.727273,0,0)"/>
<path style=" stroke:none;fill-rule:nonzero;fill:rgb(9.803922%,77.254903%,99.607843%);fill-opacity:1;" d="M 7.101562 3.210938 L 7.101562 5.007812 L 6.144531 5.007812 L 8 7.109375 L 9.855469 5.007812 L 8.898438 5.007812 L 8.898438 3.210938 Z M 7.671875 7.410156 C 7.621094 7.410156 7.589844 7.496094 7.589844 7.609375 L 7.589844 8.289062 C 7.382812 8.335938 7.183594 8.421875 7.003906 8.535156 L 6.519531 8.046875 C 6.441406 7.972656 6.359375 7.933594 6.320312 7.972656 L 5.863281 8.433594 C 5.828125 8.46875 5.859375 8.550781 5.9375 8.628906 L 6.425781 9.117188 C 6.316406 9.292969 6.230469 9.488281 6.183594 9.695312 L 5.496094 9.695312 C 5.390625 9.695312 5.300781 9.730469 5.300781 9.78125 L 5.300781 10.4375 C 5.300781 10.488281 5.390625 10.523438 5.496094 10.523438 L 6.183594 10.523438 C 6.230469 10.730469 6.316406 10.929688 6.425781 11.101562 L 5.9375 11.589844 C 5.859375 11.667969 5.828125 11.75 5.863281 11.785156 L 6.320312 12.246094 C 6.359375 12.285156 6.441406 12.25 6.519531 12.171875 L 7.003906 11.683594 C 7.183594 11.796875 7.382812 11.878906 7.585938 11.929688 L 7.585938 12.613281 C 7.585938 12.722656 7.621094 12.808594 7.671875 12.808594 L 8.328125 12.808594 C 8.378906 12.808594 8.410156 12.722656 8.410156 12.613281 L 8.410156 11.929688 C 8.617188 11.878906 8.816406 11.796875 8.996094 11.683594 L 9.480469 12.171875 C 9.558594 12.25 9.640625 12.285156 9.679688 12.246094 L 10.136719 11.785156 C 10.171875 11.75 10.140625 11.667969 10.0625 11.589844 L 9.574219 11.101562 C 9.683594 10.929688 9.769531 10.730469 9.816406 10.523438 L 10.503906 10.523438 C 10.609375 10.523438 10.699219 10.488281 10.699219 10.4375 L 10.699219 9.78125 C 10.699219 9.730469 10.609375 9.695312 10.503906 9.695312 L 9.816406 9.695312 C 9.769531 9.492188 9.6875 9.292969 9.574219 9.117188 L 10.0625 8.628906 C 10.140625 8.550781 10.171875 8.46875 10.136719 8.429688 L 9.679688 7.972656 C 9.640625 7.933594 9.558594 7.972656 9.480469 8.046875 L 8.996094 8.535156 C 8.816406 8.421875 8.617188 8.335938 8.414062 8.289062 L 8.414062 7.609375 C 8.414062 7.496094 8.378906 7.410156 8.328125 7.410156 Z M 8 9.277344 C 8.457031 9.277344 8.835938 9.652344 8.835938 10.109375 C 8.835938 10.570312 8.457031 10.941406 8 10.941406 C 7.539062 10.941406 7.167969 10.570312 7.164062 10.109375 C 7.164062 9.652344 7.542969 9.277344 8 9.277344 Z M 8 9.277344 "/>
</g>
</svg>
