<?xml version="1.0" encoding="UTF-8"?>
<svg xmlns="http://www.w3.org/2000/svg" xmlns:xlink="http://www.w3.org/1999/xlink" width="16px" height="16px" viewBox="0 0 16 16" version="1.1">
<g id="surface1">
<path style=" stroke:none;fill-rule:nonzero;fill:rgb(49.803922%,50.196081%,50.196081%);fill-opacity:1;" d="M 8.933594 5.941406 C 8.953125 5.792969 8.964844 5.652344 8.964844 5.5 C 8.964844 5.351562 8.953125 5.207031 8.933594 5.0625 L 9.910156 4.316406 C 10 4.25 10.023438 4.125 9.96875 4.027344 L 9.042969 2.46875 C 8.984375 2.371094 8.867188 2.332031 8.761719 2.371094 L 7.609375 2.824219 C 7.367188 2.644531 7.105469 2.496094 6.828125 2.378906 L 6.652344 1.191406 C 6.632812 1.082031 6.535156 1 6.421875 1 L 4.574219 1 C 4.460938 1 4.363281 1.078125 4.34375 1.191406 L 4.171875 2.378906 C 3.890625 2.496094 3.628906 2.644531 3.390625 2.824219 L 2.234375 2.371094 C 2.132812 2.335938 2.015625 2.375 1.953125 2.46875 L 1.03125 4.027344 C 0.972656 4.125 0.996094 4.25 1.085938 4.320312 L 2.058594 5.0625 C 2.039062 5.207031 2.03125 5.351562 2.027344 5.5 C 2.027344 5.648438 2.042969 5.796875 2.058594 5.941406 L 1.085938 6.683594 C 0.996094 6.753906 0.972656 6.878906 1.03125 6.972656 L 1.953125 8.53125 C 2.011719 8.625 2.132812 8.667969 2.234375 8.628906 L 3.390625 8.175781 C 3.628906 8.359375 3.890625 8.507812 4.171875 8.621094 L 4.34375 9.8125 C 4.363281 9.921875 4.460938 10.003906 4.574219 10.003906 L 6.421875 10.003906 C 6.539062 10.003906 6.632812 9.917969 6.652344 9.8125 L 6.824219 8.621094 C 7.109375 8.503906 7.371094 8.359375 7.609375 8.175781 L 8.757812 8.628906 C 8.863281 8.667969 8.984375 8.628906 9.039062 8.53125 L 9.964844 6.972656 C 10.023438 6.878906 10 6.753906 9.910156 6.683594 Z M 5.5 7.078125 C 4.605469 7.078125 3.878906 6.371094 3.878906 5.5 C 3.878906 4.628906 4.605469 3.925781 5.5 3.925781 C 6.394531 3.925781 7.121094 4.632812 7.121094 5.5 C 7.121094 6.371094 6.394531 7.078125 5.5 7.078125 "/>
<path style=" stroke:none;fill-rule:nonzero;fill:rgb(49.803922%,50.196081%,50.196081%);fill-opacity:1;" d="M 12.910156 12.441406 C 12.949219 12.335938 12.984375 12.230469 13.011719 12.121094 C 13.035156 12.011719 13.050781 11.898438 13.0625 11.789062 L 13.902344 11.414062 C 13.980469 11.378906 14.015625 11.292969 13.996094 11.214844 L 13.597656 9.890625 C 13.570312 9.8125 13.492188 9.761719 13.410156 9.769531 L 12.496094 9.898438 C 12.355469 9.722656 12.191406 9.566406 12.007812 9.433594 L 12.089844 8.515625 C 12.097656 8.433594 12.039062 8.355469 11.957031 8.339844 L 10.617188 8.003906 C 10.539062 7.988281 10.453125 8.027344 10.421875 8.105469 L 10.085938 8.957031 C 9.863281 8.988281 9.648438 9.050781 9.441406 9.144531 L 8.6875 8.601562 C 8.617188 8.554688 8.523438 8.566406 8.464844 8.625 L 7.523438 9.609375 C 7.464844 9.675781 7.464844 9.769531 7.515625 9.835938 L 8.089844 10.558594 C 8.050781 10.664062 8.015625 10.769531 7.988281 10.878906 C 7.964844 10.988281 7.949219 11.101562 7.9375 11.210938 L 7.101562 11.589844 C 7.023438 11.625 6.984375 11.710938 7.007812 11.789062 L 7.40625 13.109375 C 7.429688 13.1875 7.507812 13.238281 7.589844 13.230469 L 8.503906 13.101562 C 8.644531 13.277344 8.808594 13.433594 8.996094 13.570312 L 8.910156 14.484375 C 8.90625 14.566406 8.960938 14.644531 9.042969 14.664062 L 10.382812 14.996094 C 10.464844 15.015625 10.546875 14.972656 10.582031 14.898438 L 10.914062 14.046875 C 11.140625 14.015625 11.355469 13.949219 11.558594 13.859375 L 12.3125 14.402344 C 12.382812 14.449219 12.476562 14.4375 12.535156 14.378906 L 13.476562 13.390625 C 13.535156 13.332031 13.539062 13.234375 13.484375 13.167969 Z M 10.222656 12.664062 C 9.574219 12.507812 9.175781 11.859375 9.328125 11.210938 C 9.402344 10.902344 9.597656 10.636719 9.867188 10.46875 C 10.140625 10.304688 10.46875 10.257812 10.773438 10.335938 C 11.421875 10.492188 11.820312 11.140625 11.667969 11.789062 C 11.597656 12.097656 11.402344 12.367188 11.128906 12.53125 C 10.855469 12.695312 10.53125 12.742188 10.222656 12.664062 "/>
</g>
</svg>
