<?xml version="1.0" encoding="UTF-8"?>
<svg xmlns="http://www.w3.org/2000/svg" xmlns:xlink="http://www.w3.org/1999/xlink" width="16px" height="16px" viewBox="0 0 16 16" version="1.1">
<g id="surface1">
<path style=" stroke:none;fill-rule:nonzero;fill:rgb(49.803922%,50.196081%,50.196081%);fill-opacity:1;" d="M 3.898438 10.660156 C 3.769531 10.890625 3.667969 11.238281 3.667969 11.457031 C 3.667969 11.503906 3.667969 11.570312 3.679688 11.660156 L 2.078125 8.910156 C 2.023438 8.808594 1.992188 8.691406 1.992188 8.578125 C 1.992188 8.460938 2.027344 8.320312 2.078125 8.234375 L 2.847656 6.890625 L 1.992188 6.402344 L 4.78125 6.347656 L 6.136719 8.796875 L 5.265625 8.296875 L 3.898438 10.660156 M 5.125 2.910156 C 5.347656 2.496094 5.785156 2.246094 6.253906 2.257812 C 6.777344 2.257812 7.1875 2.496094 7.480469 2.996094 L 7.914062 3.726562 L 6.40625 6.339844 L 3.960938 4.917969 L 5.125 2.910156 M 5.304688 12.875 C 4.570312 12.871094 3.976562 12.277344 3.972656 11.546875 C 3.972656 11.339844 4.0625 10.996094 4.191406 10.777344 L 4.597656 10.046875 L 7.632812 10.046875 L 7.632812 12.875 L 5.304688 12.875 M 7.734375 2.832031 C 7.546875 2.5 7.289062 2.265625 6.980469 2.140625 L 10.128906 2.140625 C 10.410156 2.140625 10.628906 2.253906 10.753906 2.472656 L 11.535156 3.804688 L 12.378906 3.304688 L 11.027344 5.734375 L 8.246094 5.695312 L 9.105469 5.210938 L 7.734375 2.828125 M 12.585938 10.074219 C 12.96875 10.074219 13.289062 9.96875 13.558594 9.765625 L 11.972656 12.527344 C 11.839844 12.75 11.601562 12.882812 11.34375 12.875 L 9.847656 12.875 L 9.847656 13.859375 L 8.414062 11.46875 L 9.847656 9.074219 L 9.847656 10.074219 L 12.585938 10.074219 M 13.8125 7.769531 C 13.929688 7.972656 13.992188 8.191406 13.992188 8.421875 C 13.992188 8.882812 13.699219 9.371094 13.289062 9.597656 C 13.0625 9.710938 12.8125 9.769531 12.558594 9.765625 L 11.714844 9.765625 L 10.203125 7.15625 L 12.648438 5.761719 L 13.8125 7.769531 "/>
</g>
</svg>
