<?xml version="1.0" encoding="UTF-8"?>
<svg xmlns="http://www.w3.org/2000/svg" xmlns:xlink="http://www.w3.org/1999/xlink" width="16px" height="16px" viewBox="0 0 16 16" version="1.1">
<g id="surface1">
<path style=" stroke:none;fill-rule:nonzero;fill:rgb(49.803922%,50.196081%,50.196081%);fill-opacity:1;" d="M 3 2 C 2.445312 2 2 2.445312 2 3 L 2 13 C 2 13.554688 2.445312 14 3 14 L 13 14 C 13.554688 14 14 13.554688 14 13 L 14 3 C 14 2.445312 13.554688 2 13 2 Z M 3 3 L 13 3 L 13 13 L 3 13 Z M 4 4 L 4 5 L 6 5 L 6 4 Z M 7 4 L 7 5 L 9 5 L 9 4 Z M 10 4 L 10 5 L 12 5 L 12 4 Z M 4 5.996094 L 4 6.996094 L 6 6.996094 L 6 5.996094 Z M 7 5.996094 L 7 6.996094 L 9 6.996094 L 9 5.996094 Z M 10 5.996094 L 10 6.996094 L 12 6.996094 L 12 5.996094 Z M 4 7.996094 L 4 8.996094 L 6 8.996094 L 6 7.996094 Z M 7 7.996094 L 7 8.996094 L 9 8.996094 L 9 7.996094 Z M 10 7.996094 L 10 8.996094 L 12 8.996094 L 12 7.996094 Z M 4 9.996094 L 4 10.996094 L 6 10.996094 L 6 9.996094 Z M 7 9.996094 L 7 10.996094 L 9 10.996094 L 9 9.996094 Z M 10 9.996094 L 10 10.996094 L 12 10.996094 L 12 9.996094 Z M 10 9.996094 "/>
</g>
</svg>
