<?xml version="1.0" encoding="UTF-8"?>
<svg xmlns="http://www.w3.org/2000/svg" xmlns:xlink="http://www.w3.org/1999/xlink" width="16px" height="16px" viewBox="0 0 16 16" version="1.1">
<g id="surface1">
<path style=" stroke:none;fill-rule:nonzero;fill:rgb(9.803922%,77.254903%,99.607843%);fill-opacity:1;" d="M 2 2 L 2 14 L 14 14 L 14 2 Z M 3 3 L 13 3 L 13 11 L 3 11 Z M 5 4 L 5 6 L 7 6 L 7 4 Z M 9 4 L 9 6 L 11 6 L 11 4 Z M 5 8 L 5 10 L 7 10 L 7 8 Z M 9 8 L 9 10 L 11 10 L 11 8 Z M 3 12 L 13 12 L 13 13 L 3 13 Z M 3 12 "/>
</g>
</svg>
