<?xml version="1.0" encoding="UTF-8"?>
<svg xmlns="http://www.w3.org/2000/svg" xmlns:xlink="http://www.w3.org/1999/xlink" width="16px" height="16px" viewBox="0 0 16 16" version="1.1">
<g id="surface1">
<path style=" stroke:none;fill-rule:nonzero;fill:rgb(9.803922%,54.901963%,99.607843%);fill-opacity:1;" d="M 5 2 C 4.203125 2 3.441406 2.3125 2.875 2.875 C 2.3125 3.441406 2 4.203125 2 5 L 2 6 L 7 14 L 7 8 L 11 8 C 11.796875 8 12.558594 7.6875 13.125 7.125 C 13.6875 6.558594 14 5.796875 14 5 C 14 4.203125 13.6875 3.441406 13.125 2.875 C 12.558594 2.3125 11.796875 2 11 2 Z M 11 3 C 12.105469 3 13 3.894531 13 5 C 13 6.105469 12.105469 7 11 7 C 9.894531 7 9 6.105469 9 5 C 9 3.894531 9.894531 3 11 3 "/>
</g>
</svg>
