<?xml version="1.0" encoding="UTF-8"?>
<svg xmlns="http://www.w3.org/2000/svg" xmlns:xlink="http://www.w3.org/1999/xlink" width="16px" height="16px" viewBox="0 0 16 16" version="1.1">
<g id="surface1">
<path style=" stroke:none;fill-rule:nonzero;fill:rgb(9.803922%,99.607843%,99.607843%);fill-opacity:1;" d="M 2 2 L 2 10.992188 L 1 11.992188 L 1 12 L 2 12 L 2 14 L 14 14 L 14 11.003906 L 15 11.003906 L 15 10.992188 L 14 9.992188 L 14 2 Z M 3 3 L 13 3 L 13 8.992188 L 9.003906 5 L 9 5 L 9 5.003906 L 8.996094 5.003906 L 6.496094 7.496094 L 6.003906 7 L 5.996094 7 L 3 9.996094 Z M 5 4 C 4.445312 4 4 4.445312 4 5 C 4 5.554688 4.445312 6 5 6 C 5.554688 6 6 5.554688 6 5 C 6 4.445312 5.554688 4 5 4 M 9 6.410156 L 13 10.410156 L 13 11 L 10.007812 11 L 7.207031 8.203125 Z M 6 8.410156 L 8.589844 11 L 3.40625 11 Z M 3 12 L 9.589844 12 L 9.589844 12.003906 L 11 12.003906 L 11 12 L 13 12 L 13 13 L 3 13 Z M 3 12 "/>
</g>
</svg>
