<?xml version="1.0" encoding="UTF-8"?>
<svg xmlns="http://www.w3.org/2000/svg" xmlns:xlink="http://www.w3.org/1999/xlink" width="16px" height="16px" viewBox="0 0 16 16" version="1.1">
<g id="surface1">
<path style=" stroke:none;fill-rule:nonzero;fill:rgb(100%,9.803922%,77.254903%);fill-opacity:1;" d="M 8 2 C 4.6875 2 2 2.894531 2 4 L 2 12 C 2 13.105469 4.6875 14 8 14 C 11.3125 14 14 13.105469 14 12 L 14 4 C 14 2.894531 11.3125 2 8 2 M 8 3 C 10.761719 3 13 3.449219 13 4 C 13 4.550781 10.761719 5 8 5 C 5.238281 5 3 4.550781 3 4 C 3 3.449219 5.238281 3 8 3 M 3 5.101562 C 4.109375 5.664062 5.984375 6 8 6 C 10.011719 6 11.890625 5.660156 13 5.101562 L 13 8 C 13 8.550781 10.761719 9 8 9 C 5.238281 9 3 8.550781 3 8 Z M 3 9.101562 C 4.109375 9.660156 5.984375 10 8 10 C 10.011719 10 11.890625 9.660156 13 9.101562 L 13 12 C 13 12.550781 10.761719 13 8 13 C 5.238281 13 3 12.550781 3 12 Z M 3 9.101562 "/>
</g>
</svg>
