<?xml version="1.0" encoding="UTF-8"?>
<svg xmlns="http://www.w3.org/2000/svg" xmlns:xlink="http://www.w3.org/1999/xlink" width="16px" height="16px" viewBox="0 0 16 16" version="1.1">
<g id="surface1">
<path style=" stroke:none;fill-rule:nonzero;fill:rgb(100%,9.803922%,77.254903%);fill-opacity:1;" d="M 8 2 C 7.203125 2 6.441406 2.3125 5.875 2.875 C 5.3125 3.441406 5 4.203125 5 5 L 7 5 L 7 6 L 5 6 L 5 8 L 7 8 L 7 9 L 5.183594 9 C 5.601562 10.199219 6.730469 11 8 11 C 9.308594 11 10.40625 10.164062 10.816406 9 L 9 9 L 9 8 L 11 8 L 11 6 L 9 6 L 9 5 L 11 5 C 11 4.203125 10.6875 3.441406 10.125 2.875 C 9.558594 2.3125 8.796875 2 8 2 M 3.101562 9 C 3.5 10.964844 5.035156 12.496094 7 12.890625 L 7 13 L 6 14 L 10 14 L 9 13 L 9 12.890625 C 10.964844 12.496094 12.503906 10.964844 12.898438 9 L 11.859375 9 C 11.414062 10.765625 9.820312 12.003906 8 12 C 6.179688 12.003906 4.585938 10.765625 4.140625 9 Z M 3.101562 9 "/>
</g>
</svg>
