<?xml version="1.0" encoding="UTF-8"?>
<svg xmlns="http://www.w3.org/2000/svg" xmlns:xlink="http://www.w3.org/1999/xlink" width="16px" height="16px" viewBox="0 0 16 16" version="1.1">
<g id="surface1">
<path style=" stroke:none;fill-rule:nonzero;fill:rgb(99.607843%,9.803922%,32.156864%);fill-opacity:1;" d="M 7 2 L 7 14 L 8 14 L 8 7.949219 C 8.65625 8.625 9.558594 9.003906 10.5 9.003906 C 11.429688 9.003906 12.320312 8.636719 12.976562 7.980469 C 13.632812 7.324219 14.003906 6.429688 14 5.503906 C 14 4.574219 13.632812 3.683594 12.976562 3.027344 C 12.320312 2.367188 11.429688 2 10.5 2.003906 C 9.558594 2 8.65625 2.382812 8 3.058594 L 8 2.003906 Z M 10.5 3 C 11.164062 3 11.800781 3.261719 12.269531 3.730469 C 12.738281 4.199219 13 4.835938 13 5.5 C 13 6.164062 12.738281 6.800781 12.269531 7.269531 C 11.800781 7.738281 11.164062 8 10.5 8 C 9.835938 8 9.199219 7.738281 8.730469 7.269531 C 8.261719 6.800781 8 6.164062 8 5.5 C 8 4.835938 8.261719 4.199219 8.730469 3.730469 C 9.199219 3.261719 9.835938 3 10.5 3 M 3 7 C 2.449219 7 2 7.449219 2 8 C 2 8.550781 2.449219 9 3 9 C 3.550781 9 4 8.550781 4 8 C 4 7.449219 3.550781 7 3 7 "/>
</g>
</svg>
