<?xml version="1.0" encoding="UTF-8"?>
<svg xmlns="http://www.w3.org/2000/svg" xmlns:xlink="http://www.w3.org/1999/xlink" width="16px" height="16px" viewBox="0 0 16 16" version="1.1">
<g id="surface1">
<path style=" stroke:none;fill-rule:nonzero;fill:rgb(49.803922%,50.196081%,50.196081%);fill-opacity:1;" d="M 2 2 L 2 3 L 14 3 L 14 2 Z M 2.5 4 C 2.367188 4 2.238281 4.050781 2.144531 4.144531 C 2.050781 4.238281 2 4.367188 2 4.5 C 2 4.777344 2.222656 5 2.5 5 C 2.632812 5 2.761719 4.949219 2.855469 4.855469 C 2.949219 4.761719 3 4.632812 3 4.5 C 3 4.367188 2.949219 4.238281 2.855469 4.144531 C 2.761719 4.050781 2.632812 4 2.5 4 M 4 4 L 4 5 L 13 5 L 13 4 Z M 4 6 L 4 7 L 8 7 L 8 6 Z M 2.5 9 C 2.367188 9 2.238281 9.050781 2.144531 9.144531 C 2.050781 9.238281 2 9.367188 2 9.5 C 2 9.777344 2.222656 10 2.5 10 C 2.632812 10 2.761719 9.949219 2.855469 9.855469 C 2.949219 9.761719 3 9.632812 3 9.5 C 3 9.367188 2.949219 9.238281 2.855469 9.144531 C 2.761719 9.050781 2.632812 9 2.5 9 M 4 9 L 4 10 L 13 10 L 13 9 Z M 4 11 L 4 12 L 12 12 L 12 11 Z M 2 13 L 2 14 L 14 14 L 14 13 Z M 2 13 "/>
</g>
</svg>
