<?xml version="1.0" encoding="UTF-8"?>
<svg xmlns="http://www.w3.org/2000/svg" xmlns:xlink="http://www.w3.org/1999/xlink" width="16px" height="16px" viewBox="0 0 16 16" version="1.1">
<g id="surface1">
<path style=" stroke:none;fill-rule:nonzero;fill:rgb(99.607843%,54.901963%,9.803922%);fill-opacity:1;" d="M 6 2 C 4.800781 2.417969 4 3.546875 4 4.816406 L 4 5.195312 C 4 5.90625 3.617188 6.566406 3 6.917969 L 3 9.085938 C 3.617188 9.4375 4 10.09375 4 10.804688 L 4 11.183594 C 4 12.492188 4.835938 13.589844 6 14 L 6 12.910156 C 5.382812 12.554688 5 11.898438 5 11.183594 L 5 10.804688 C 5 9.542969 4.207031 8.421875 3.019531 8 C 4.171875 7.582031 5 6.496094 5 5.191406 L 5 4.8125 C 5 4.074219 5.402344 3.433594 6 3.089844 Z M 10 2 L 10 3.089844 C 10.617188 3.445312 11 4.101562 11 4.816406 L 11 5.195312 C 11 6.457031 11.792969 7.578125 12.980469 8 C 11.828125 8.417969 11 9.503906 11 10.808594 L 11 11.1875 C 11 11.898438 10.617188 12.554688 10 12.910156 L 10 14.003906 C 11.195312 13.585938 12 12.457031 12 11.1875 L 12 10.804688 C 12 10.070312 12.402344 9.433594 13 9.085938 L 13 6.921875 C 12.382812 6.566406 12 5.910156 12 5.195312 L 12 4.816406 C 12 3.546875 11.199219 2.417969 10 2.003906 "/>
</g>
</svg>
