<?xml version="1.0" encoding="UTF-8"?>
<svg xmlns="http://www.w3.org/2000/svg" xmlns:xlink="http://www.w3.org/1999/xlink" width="16px" height="16px" viewBox="0 0 16 16" version="1.1">
<g id="surface1">
<path style=" stroke:none;fill-rule:nonzero;fill:rgb(49.803922%,50.196081%,50.196081%);fill-opacity:1;" d="M 5.5 2 C 4.769531 1.996094 4.144531 2.523438 4.019531 3.246094 C 3.894531 3.964844 4.308594 4.671875 5 4.910156 L 5 11.089844 C 4.402344 11.300781 4.003906 11.867188 4 12.5 C 4 12.898438 4.15625 13.28125 4.4375 13.5625 C 4.71875 13.84375 5.101562 14 5.5 14 C 6.230469 14.003906 6.855469 13.476562 6.980469 12.753906 C 7.105469 12.035156 6.691406 11.328125 6 11.089844 L 6 4.910156 C 6.691406 4.671875 7.105469 3.964844 6.980469 3.246094 C 6.855469 2.523438 6.230469 1.996094 5.5 2 M 9 2 L 7 3.402344 L 9 5 L 9 4 L 10 4 C 10.554688 4 11 4.445312 11 5 L 11 11.089844 C 10.402344 11.300781 10.003906 11.867188 10 12.5 C 10 12.898438 10.15625 13.28125 10.4375 13.5625 C 10.71875 13.84375 11.101562 14 11.5 14 C 12.230469 14.003906 12.855469 13.476562 12.980469 12.753906 C 13.105469 12.035156 12.691406 11.328125 12 11.089844 L 12 5 C 12 3.890625 11.109375 3.054688 10 3 L 9 3 Z M 5.5 3 C 5.761719 3.015625 5.96875 3.234375 5.96875 3.5 C 5.96875 3.765625 5.761719 3.984375 5.5 4 C 5.234375 3.984375 5.03125 3.765625 5.03125 3.5 C 5.03125 3.234375 5.234375 3.015625 5.5 3 M 5.5 12 C 5.761719 12.015625 5.96875 12.234375 5.96875 12.5 C 5.96875 12.765625 5.761719 12.984375 5.5 13 C 5.234375 12.984375 5.03125 12.765625 5.03125 12.5 C 5.03125 12.234375 5.234375 12.015625 5.5 12 M 11.5 12 C 11.761719 12.015625 11.96875 12.234375 11.96875 12.5 C 11.96875 12.765625 11.761719 12.984375 11.5 13 C 11.234375 12.984375 11.03125 12.765625 11.03125 12.5 C 11.03125 12.234375 11.234375 12.015625 11.5 12 "/>
</g>
</svg>
