<?xml version="1.0" encoding="UTF-8"?>
<svg xmlns="http://www.w3.org/2000/svg" xmlns:xlink="http://www.w3.org/1999/xlink" width="16px" height="16px" viewBox="0 0 16 16" version="1.1">
<g id="surface1">
<path style=" stroke:none;fill-rule:nonzero;fill:rgb(99.607843%,9.803922%,9.803922%);fill-opacity:1;" d="M 2 2 L 2 3 L 8 3 L 8 2 Z M 2 5 L 2 6 L 14 6 L 14 5 Z M 2 8 L 2 9 L 7 9 L 7 8 Z M 9 8 L 9 11 L 8 11 L 8 11.015625 L 10.984375 14 L 11.015625 14 L 14 11.015625 L 14 11 L 13 11 L 13 8 Z M 10 9 L 12 9 L 12 11 L 12.597656 11 L 11 12.601562 L 9.398438 11 L 10 11 Z M 2 10 L 2 11 L 5 11 L 5 10 Z M 2 13 L 2 14 L 7 14 L 7 13 Z M 2 13 "/>
</g>
</svg>
