<?xml version="1.0" encoding="UTF-8"?>
<svg xmlns="http://www.w3.org/2000/svg" xmlns:xlink="http://www.w3.org/1999/xlink" width="16px" height="16px" viewBox="0 0 16 16" version="1.1">
<g id="surface1">
<path style=" stroke:none;fill-rule:nonzero;fill:rgb(100%,9.803922%,77.254903%);fill-opacity:1;" d="M 5 2 L 5 14 L 6 14 L 6 10.5 C 6 9.835938 6.261719 9.199219 6.730469 8.730469 C 7.199219 8.261719 7.835938 8 8.5 8 C 9.164062 8 9.800781 8.261719 10.269531 8.730469 C 10.738281 9.199219 11 9.835938 11 10.5 L 11 14 L 12 14 L 12 10.5 C 12.003906 9.570312 11.632812 8.679688 10.976562 8.023438 C 10.320312 7.367188 9.429688 6.996094 8.5 7 C 7.558594 7 6.65625 7.378906 6 8.054688 L 6 2.003906 Z M 5 2 "/>
</g>
</svg>
