<?xml version="1.0" encoding="UTF-8"?>
<svg xmlns="http://www.w3.org/2000/svg" xmlns:xlink="http://www.w3.org/1999/xlink" width="16px" height="16px" viewBox="0 0 16 16" version="1.1">
<g id="surface1">
<path style=" stroke:none;fill-rule:nonzero;fill:rgb(99.607843%,54.901963%,9.803922%);fill-opacity:1;" d="M 2 2 L 2 4 C 7.523438 4 12 8.476562 12 14 L 14 14 L 14 13.9375 C 13.996094 13.550781 13.976562 13.164062 13.9375 12.78125 C 13.933594 12.761719 13.941406 12.738281 13.9375 12.71875 C 13.890625 12.339844 13.828125 11.964844 13.75 11.59375 C 13.742188 11.574219 13.753906 11.550781 13.75 11.53125 C 13.515625 10.394531 13.117188 9.300781 12.558594 8.28125 C 12.558594 8.273438 12.566406 8.257812 12.558594 8.25 C 11.066406 5.5 8.554688 3.445312 5.558594 2.53125 C 5.199219 2.417969 4.835938 2.324219 4.464844 2.25 C 4.445312 2.246094 4.421875 2.253906 4.402344 2.25 C 4.03125 2.167969 3.65625 2.105469 3.277344 2.058594 C 3.257812 2.058594 3.234375 2.0625 3.214844 2.058594 C 2.832031 2.023438 2.445312 2 2.058594 1.996094 L 1.996094 1.996094 M 1.996094 5.996094 L 1.996094 7.996094 C 5.308594 7.996094 7.996094 10.683594 7.996094 13.996094 L 9.996094 13.996094 C 9.996094 9.578125 6.414062 5.996094 1.996094 5.996094 M 3.996094 9.996094 C 2.890625 9.996094 1.996094 10.890625 1.996094 11.996094 C 1.996094 13.101562 2.890625 13.996094 3.996094 13.996094 C 5.101562 13.996094 5.996094 13.101562 5.996094 11.996094 C 5.996094 10.890625 5.101562 9.996094 3.996094 9.996094 "/>
</g>
</svg>
