<?xml version="1.0" encoding="UTF-8"?>
<svg xmlns="http://www.w3.org/2000/svg" xmlns:xlink="http://www.w3.org/1999/xlink" width="16px" height="16px" viewBox="0 0 16 16" version="1.1">
<g id="surface1">
<path style=" stroke:none;fill-rule:nonzero;fill:rgb(99.607843%,77.254903%,9.803922%);fill-opacity:1;" d="M 6.753906 2 C 5.554688 2.417969 4.753906 3.546875 4.753906 4.816406 L 4.753906 5.195312 C 4.753906 5.90625 4.371094 6.566406 3.753906 6.917969 L 3.753906 9.085938 C 4.371094 9.4375 4.753906 10.09375 4.753906 10.804688 L 4.753906 11.183594 C 4.753906 12.453125 5.554688 13.582031 6.753906 14 L 6.753906 12.910156 C 6.136719 12.554688 5.753906 11.898438 5.753906 11.183594 L 5.753906 10.804688 C 5.753906 9.542969 4.960938 8.421875 3.773438 8 C 4.929688 7.582031 5.753906 6.496094 5.753906 5.191406 L 5.753906 4.8125 C 5.753906 4.074219 6.160156 3.433594 6.753906 3.089844 Z M 10.753906 2 L 10.753906 3.089844 C 11.371094 3.445312 11.753906 4.101562 11.753906 4.816406 L 11.753906 5.195312 C 11.753906 6.457031 12.546875 7.578125 13.734375 8 C 12.578125 8.417969 11.753906 9.503906 11.753906 10.808594 L 11.753906 11.1875 C 11.753906 11.898438 11.371094 12.554688 10.753906 12.910156 L 10.753906 14.003906 C 11.949219 13.585938 12.753906 12.457031 12.753906 11.1875 L 12.753906 10.804688 C 12.753906 10.09375 13.136719 9.4375 13.753906 9.085938 L 13.753906 6.921875 C 13.136719 6.566406 12.753906 5.910156 12.753906 5.195312 L 12.753906 4.816406 C 12.753906 3.546875 11.949219 2.417969 10.753906 2.003906 M 2.246094 12.582031 L 2.246094 14.003906 L 3.753906 14.003906 L 3.753906 12.582031 Z M 2.246094 12.582031 "/>
</g>
</svg>
