<?xml version="1.0" encoding="UTF-8"?>
<svg xmlns="http://www.w3.org/2000/svg" xmlns:xlink="http://www.w3.org/1999/xlink" width="16px" height="16px" viewBox="0 0 16 16" version="1.1">
<g id="surface1">
<path style=" stroke:none;fill-rule:nonzero;fill:rgb(99.607843%,54.901963%,9.803922%);fill-opacity:1;" d="M 7 2 C 6.46875 2 5.960938 2.210938 5.585938 2.585938 C 5.210938 2.960938 5 3.46875 5 4 L 8 4 L 8 5 L 4 5 C 3.46875 5 2.960938 5.210938 2.585938 5.585938 C 2.210938 5.960938 2 6.46875 2 7 L 2 9 C 2 9.53125 2.210938 10.039062 2.585938 10.414062 C 2.960938 10.789062 3.46875 11 4 11 L 4 10 C 4 9.148438 4.363281 8.339844 5 7.773438 L 5.003906 7.773438 C 5.136719 7.652344 5.277344 7.546875 5.429688 7.453125 L 5.433594 7.453125 C 5.582031 7.359375 5.738281 7.277344 5.902344 7.214844 C 5.933594 7.203125 5.964844 7.195312 5.996094 7.183594 C 6.136719 7.132812 6.28125 7.089844 6.425781 7.058594 C 6.613281 7.019531 6.804688 7 7 7 L 11 7 L 11 4 C 11 3.46875 10.789062 2.960938 10.414062 2.585938 C 10.039062 2.210938 9.53125 2 9 2 Z M 7 2.5 C 7.277344 2.5 7.5 2.722656 7.5 3 C 7.5 3.132812 7.449219 3.261719 7.355469 3.355469 C 7.261719 3.449219 7.132812 3.5 7 3.5 C 6.867188 3.5 6.738281 3.449219 6.644531 3.355469 C 6.550781 3.261719 6.5 3.132812 6.5 3 C 6.5 2.722656 6.722656 2.5 7 2.5 M 12 5 L 12 6 C 12 6.890625 11.605469 7.679688 11 8.226562 C 10.867188 8.347656 10.726562 8.453125 10.574219 8.546875 L 10.570312 8.546875 C 10.421875 8.640625 10.261719 8.722656 10.101562 8.785156 C 10.070312 8.796875 10.035156 8.808594 10.003906 8.816406 C 9.867188 8.867188 9.722656 8.910156 9.574219 8.941406 C 9.390625 8.980469 9.199219 9 9 9 L 5 9 L 5 12 C 5 12.53125 5.210938 13.039062 5.585938 13.414062 C 5.960938 13.789062 6.46875 14 7 14 L 9 14 C 9.53125 14 10.039062 13.789062 10.414062 13.414062 C 10.789062 13.039062 11 12.53125 11 12 L 8 12 L 8 11 L 12 11 C 12.53125 11 13.039062 10.789062 13.414062 10.414062 C 13.789062 10.039062 14 9.53125 14 9 L 14 7 C 14 6.46875 13.789062 5.960938 13.414062 5.585938 C 13.039062 5.210938 12.53125 5 12 5 M 9 12.5 C 9.277344 12.5 9.5 12.722656 9.5 13 C 9.5 13.132812 9.449219 13.261719 9.355469 13.355469 C 9.261719 13.449219 9.132812 13.5 9 13.5 C 8.867188 13.5 8.738281 13.449219 8.644531 13.355469 C 8.550781 13.261719 8.5 13.132812 8.5 13 C 8.5 12.722656 8.726562 12.5 9 12.5 "/>
</g>
</svg>
