<?xml version="1.0" encoding="UTF-8"?>
<svg xmlns="http://www.w3.org/2000/svg" xmlns:xlink="http://www.w3.org/1999/xlink" width="16px" height="16px" viewBox="0 0 16 16" version="1.1">
<g id="surface1">
<path style=" stroke:none;fill-rule:nonzero;fill:rgb(9.803922%,100%,54.901963%);fill-opacity:1;" d="M 6 2 C 5.445312 2 5 2.445312 5 3 L 5 4 L 3 4 C 2.445312 4 2 4.445312 2 5 L 2 13 C 2 13.554688 2.445312 14 3 14 L 11 14 C 11.554688 14 12 13.554688 12 13 L 12 12 L 13 12 C 13.554688 12 14 11.554688 14 11 L 14 3 C 14 2.445312 13.554688 2 13 2 Z M 6 3 L 13 3 L 13 11 L 12 11 L 12 5 C 12 4.445312 11.554688 4 11 4 L 7.027344 4 C 6.410156 3.734375 5.972656 3.425781 6 3 M 3 5 L 11 5 L 11 13 L 3 13 Z M 4 6 L 4 8 L 10 8 L 10 6 Z M 4 9 L 4 10 L 10 10 L 10 9 Z M 4 11 L 4 12 L 10 12 L 10 11 Z M 4 11 "/>
</g>
</svg>
