<?xml version="1.0" encoding="UTF-8"?>
<svg xmlns="http://www.w3.org/2000/svg" xmlns:xlink="http://www.w3.org/1999/xlink" width="16px" height="16px" viewBox="0 0 16 16" version="1.1">
<g id="surface1">
<path style=" stroke:none;fill-rule:nonzero;fill:rgb(9.803922%,77.254903%,99.607843%);fill-opacity:1;" d="M 6.5 2 C 5.835938 2 5.199219 2.261719 4.730469 2.730469 C 4.261719 3.199219 4 3.835938 4 4.5 C 4 5.164062 4.261719 5.800781 4.730469 6.269531 C 5.199219 6.738281 5.835938 7 6.5 7 C 7.164062 7 7.800781 6.738281 8.269531 6.269531 C 8.738281 5.800781 9 5.164062 9 4.5 C 9 3.835938 8.738281 3.199219 8.269531 2.730469 C 7.800781 2.261719 7.164062 2 6.5 2 M 6.5 3 C 7.332031 3 8 3.667969 8 4.5 C 8 4.898438 7.84375 5.28125 7.5625 5.5625 C 7.28125 5.84375 6.898438 6 6.5 6 C 6.101562 6 5.71875 5.84375 5.4375 5.5625 C 5.15625 5.28125 5 4.898438 5 4.5 C 5 3.667969 5.667969 3 6.5 3 M 12 4 C 11.46875 4 10.960938 4.210938 10.585938 4.585938 C 10.210938 4.960938 10 5.46875 10 6 C 10 6.53125 10.210938 7.039062 10.585938 7.414062 C 10.960938 7.789062 11.46875 8 12 8 C 12.53125 8 13.039062 7.789062 13.414062 7.414062 C 13.789062 7.039062 14 6.53125 14 6 C 14 5.46875 13.789062 4.960938 13.414062 4.585938 C 13.039062 4.210938 12.53125 4 12 4 M 12 5 C 12.554688 5 13 5.445312 13 6 C 13 6.554688 12.554688 7 12 7 C 11.734375 7 11.480469 6.894531 11.292969 6.707031 C 11.105469 6.519531 11 6.265625 11 6 C 11 5.445312 11.445312 5 12 5 M 6.5 8 C 5.304688 8 4.160156 8.472656 3.316406 9.316406 C 2.472656 10.160156 1.996094 11.304688 2 12.5 L 2 14 L 11 14 L 11 12.5 C 11 11.304688 10.527344 10.160156 9.683594 9.316406 C 8.839844 8.472656 7.695312 7.996094 6.5 8 M 6.5 9 C 7.429688 8.996094 8.320312 9.367188 8.976562 10.023438 C 9.632812 10.679688 10.003906 11.570312 10 12.5 L 10 13 L 3 13 L 3 12.5 C 2.996094 11.570312 3.367188 10.679688 4.023438 10.023438 C 4.679688 9.367188 5.570312 8.996094 6.5 9 M 12 9 C 11.46875 9.003906 10.945312 9.148438 10.488281 9.421875 C 10.730469 9.65625 10.953125 9.914062 11.144531 10.195312 C 11.761719 9.902344 12.492188 9.945312 13.070312 10.308594 C 13.648438 10.675781 14 11.3125 14 12 L 11.898438 12 C 11.964844 12.324219 12 12.65625 12 13 L 15 13 L 15 12 C 15 11.203125 14.6875 10.441406 14.125 9.875 C 13.558594 9.3125 12.796875 9 12 9 "/>
</g>
</svg>
