<?xml version="1.0" encoding="UTF-8"?>
<svg xmlns="http://www.w3.org/2000/svg" xmlns:xlink="http://www.w3.org/1999/xlink" width="16px" height="16px" viewBox="0 0 16 16" version="1.1">
<g id="surface1">
<path style=" stroke:none;fill-rule:nonzero;fill:rgb(9.803922%,77.254903%,99.607843%);fill-opacity:1;" d="M 2 2 L 2 3 L 8 3 L 8 2 Z M 2 5 L 2 6 L 14 6 L 14 5 Z M 2 8 L 2 9 L 7 9 L 7 8 Z M 8 8 L 8 14 L 14 14 L 14 8 Z M 9 9 L 13 9 L 13 13 L 9 13 Z M 2 10 L 2 11 L 7 11 L 7 10 Z M 2 13 L 2 14 L 7 14 L 7 13 Z M 2 13 "/>
</g>
</svg>
