<svg xmlns="http://www.w3.org/2000/svg" viewBox="0 0 22 22">
  <defs
     id="defs3051">
    <style
       type="text/css"
       id="current-color-scheme">
      .ColorScheme-Text {
        color:#eff0f1;
      }
      </style>
  </defs>
  <path
     style="fill:currentColor;fill-opacity:1"
     d="M 7 3 C 5.892 3 5 3.892 5 5 L 5 8 L 5 17 L 5 19 L 7 19 L 15 19 L 17 19 L 17 17 L 17 8 L 17 5 C 17 3.892 16.108 3 15 3 L 7 3 z M 7 4 L 15 4 A 1 1 0 0 1 16 5 L 16 7 A 1 1 0 0 0 16 9 L 16 11 L 15 12 L 7 12 L 6 11 L 6 9 A 1 1 0 0 0 6 7 L 6 5 A 1 1 0 0 1 7 4 z M 7 13 L 11 13 L 11 14 L 7 14 L 7 13 z M 13 13 L 15 13 L 15 14 L 13 14 L 13 13 z M 7 15 L 11 15 L 11 16 L 7 16 L 7 15 z M 13 15 L 15 15 L 15 16 L 13 16 L 13 15 z M 7 17 L 11 17 L 11 18 L 7 18 L 7 17 z M 13 17 L 15 17 L 15 18 L 13 18 L 13 17 z "
     class="ColorScheme-Text"/>
</svg>
