<svg xmlns="http://www.w3.org/2000/svg" viewBox="0 0 22 22">
  <defs
     id="defs3051">
    <style
       type="text/css"
       id="current-color-scheme">
      .ColorScheme-Text {
        color:#eff0f1;
      }
      </style>
  </defs>
  <path
     style="fill:currentColor;fill-opacity:1"
     d="M 8.5566406 3 C 6.5863838 3 5 4.5863838 5 6.5566406 L 5 12 L 5 15.443359 L 5 19 L 8.5566406 19 L 13.443359 19 L 17 19 L 17 15.443359 L 17 12 L 17 6.5566406 C 17 4.5863838 15.413616 3 13.443359 3 L 8.5566406 3 z M 9 4 L 13 4 A 3 3 0 0 1 16 7 L 16 9.0878906 A 1.5 1.5 0 0 0 15 10.5 A 1.5 1.5 0 0 0 16 11.912109 L 16 14 L 14 16 L 8 16 L 6 14 L 6 11.912109 A 1.5 1.5 0 0 0 7 10.5 A 1.5 1.5 0 0 0 6 9.0878906 L 6 7 A 3 3 0 0 1 9 4 z M 11 6 A 2 2 0 0 0 9 8 L 9 10 L 8 10 L 8 14 L 14 14 L 14 10 L 13 10 L 13 8 A 2 2 0 0 0 11 6 z M 11 7 A 1 1 0 0 1 12 8 L 12 10 L 10 10 L 10 8 A 1 1 0 0 1 11 7 z M 7 17 L 11 17 L 11 18 L 7 18 L 7 17 z M 13 17 L 15 17 L 15 18 L 13 18 L 13 17 z "
     class="ColorScheme-Text"/>
</svg>
