<svg xmlns="http://www.w3.org/2000/svg" xmlns:xlink="http://www.w3.org/1999/xlink" width="22" height="22"><defs><linearGradient id="a"><stop offset="0" stop-color="#fff"/><stop offset="1" stop-color="#fff" stop-opacity=".488"/></linearGradient><linearGradient xlink:href="#b" id="k" x1="419.462" y1="499.237" x2="432.571" y2="523.798" gradientUnits="userSpaceOnUse" gradientTransform="matrix(.34617 0 0 .34617 -141.205 864.542)"/><linearGradient id="b"><stop offset="0"/><stop offset="1" stop-opacity="0"/></linearGradient><linearGradient id="e"><stop stop-color="#127bdc"/><stop offset="1" stop-color="#64b4f4"/></linearGradient><linearGradient xlink:href="#c" id="g" gradientUnits="userSpaceOnUse" x1="396.571" y1="498.798" x2="426.571" y2="511.798" gradientTransform="matrix(.34617 0 0 .34617 -133.243 864.504)"/><linearGradient id="c"><stop offset="0" stop-color="#f5f5f5"/><stop offset="1" stop-color="#f9f9f9"/></linearGradient><linearGradient gradientTransform="matrix(.34249 0 0 .34617 -131.772 -167.55)" xlink:href="#d" id="f" x1="388.571" y1="487.798" x2="416.571" y2="507.798" gradientUnits="userSpaceOnUse"/><linearGradient id="d"><stop offset="0" stop-color="#1d5e8c"/><stop offset="1" stop-color="#2675a7"/></linearGradient><linearGradient xlink:href="#a" id="h" gradientUnits="userSpaceOnUse" gradientTransform="matrix(.34249 0 0 .34617 -131.772 2893.05)" x1="390.571" y1="498.298" x2="442.571" y2="498.298"/><linearGradient xlink:href="#b" id="j" x1="5" y1="1037.362" x2="10.088" y2="1053.021" gradientUnits="userSpaceOnUse" gradientTransform="matrix(1.24952 0 0 1.20134 12.92 -213.883)"/><linearGradient xlink:href="#e" id="i" gradientUnits="userSpaceOnUse" gradientTransform="matrix(1.24952 0 0 1.20134 .92 -213.883)" x1="14.245" y1="1055.18" x2="2.567" y2="1038.502"/></defs><g transform="translate(0 -1030.362)"><path d="M3.525 1.998c-1.376 0-2.482 1.12-2.482 2.512v4.469c0 .073.015.142.021.214v5.412c0 .35.28.63.63.63h18.273c.348 0 .629-.28.629-.63V10.03c.146-.32.234-.673.234-1.05v-2.47A2.49 2.49 0 0 0 18.348 4h-7.412l-1.57-2.002H3.524z" transform="translate(0 1030.362)" fill="url(#f)" stroke-width=".995"/><rect ry="1" rx=".913" y="1036.362" x="2" height="5" width="18" style="isolation:auto;mix-blend-mode:normal;marker:none" color="#000" overflow="visible" fill="url(#g)"/><path d="M20.314 1035.362c-.013-.08-.141-.2-.209-.267a2.464 2.464 0 0 0-1.758-.733h-7.41l-1.572-2 .582 3z" opacity=".3" fill="#fff" fill-rule="evenodd" stroke-width=".995"/><path style="isolation:auto;mix-blend-mode:normal;marker:none" d="M2.934 1036.362c-.5 0-.902.446-.902 1v1c0-.554.402-1 .902-1h15.917c.5 0 .902.446.902 1v-1c0-.554-.402-1-.902-1z" color="#000" overflow="visible" opacity=".85" fill="url(#h)" stroke-width=".995"/><path d="M8.996 1038.347l.004.016-2 1-3-.01v-.012H2.473c-.859 0-1.55.692-1.55 1.55v2.094H.92v5.824c0 .859.692 1.55 1.55 1.55h16.932c.859 0 1.55-.691 1.55-1.55v-8.914c0-.858-.691-1.55-1.55-1.55z" fill="url(#i)" fill-rule="evenodd" stroke-width=".98" stroke-linejoin="round"/><path d="M13.038 1039.548h-.117l.082.08c.006-.03.028-.05.035-.08z" opacity=".181" fill="url(#j)" fill-rule="evenodd" stroke-width="1.225"/><path overflow="visible" d="M.92 1047.972v.84a1.604 1.543 0 0 0 1.606 1.546h16.819a1.64 1.64 0 0 0 1.137-.45c.281-.27.445-.648.456-1.061l.004-.847c-.01.62-.658 1.169-1.284 1.157H2.178c-.624 0-1.257-.578-1.257-1.185z" style="isolation:auto;mix-blend-mode:normal;marker:none" color="#000" opacity=".2" stroke-width="1.225"/><path d="M.91 1040.363H8l1-2h12v11.657H10.615z" opacity=".099" fill="url(#k)" fill-rule="evenodd"/><path d="M7 1039.362l-4.58-.018a1.56 1.56 0 0 0-1.043.45 1.913 1.913 0 0 0-.372.577l6.995-.007 1-2z" opacity=".3" fill="#fff" fill-rule="evenodd"/></g></svg>