#define close_hover_width 11
#define close_hover_height 11
static unsigned char close_hover_bits[] = {
   0x03, 0x06, 0x07, 0x07, 0x8e, 0x03, 0xfc, 0x01, 0xf8, 0x00, 0xf8, 0x00,
   0xf8, 0x00, 0xfc, 0x01, 0x8e, 0x03, 0x07, 0x07, 0x03, 0x06 };
