<svg xmlns="http://www.w3.org/2000/svg" xmlns:xlink="http://www.w3.org/1999/xlink" width="48" height="48">
  <defs id="acyl-settings">
    <linearGradient id="acyl-gradient" x1="0%" x2="0%" y1="0%" y2="100%">
      <stop offset="100%" style="stop-color:#A0A0A0;stop-opacity:1.000000"/>
    </linearGradient>
    <g id="acyl-filter">
  </g>
    <g id="acyl-drawing">
      <path id="path-main" d="M 24.014976,2 C 11.873286,2 2,11.85261 2,24 2,36.147391 11.873285,45.999999 24.014976,46 36.156666,46 46,36.147392 46,24 46,11.852609 36.156666,2 24.014976,2 z m 0,8.037889 c 2.326435,0 4.505876,0.579475 6.439755,1.577808 L 11.554799,30.400542 C 10.550349,28.478439 9.9673247,26.31227 9.9673247,24 9.9673248,16.298757 16.266551,10.037889 24.014976,10.037889 z m 12.460176,7.561569 c 1.004451,1.922103 1.587475,4.088272 1.587475,6.400542 0,7.701243 -6.299226,13.962111 -14.047651,13.962111 -2.326436,0 -4.505877,-0.579475 -6.439755,-1.577808 L 36.475152,17.599458 z"/>
    </g>
  </defs>
  <g id="acyl-visual">
    <use id="visible1" style="fill:url(#acyl-gradient)" xlink:href="#acyl-drawing"/>
  </g>
</svg>
