<svg xmlns="http://www.w3.org/2000/svg" xmlns:xlink="http://www.w3.org/1999/xlink" width="48" height="48">
  <defs id="acyl-settings">
    <linearGradient id="acyl-gradient" x1="0%" x2="0%" y1="0%" y2="100%">
      <stop offset="100%" style="stop-color:#A0A0A0;stop-opacity:1.000000"/>
    </linearGradient>
    <g id="acyl-filter">
  </g>
    <g id="acyl-drawing">
      <path d="m 31.048015,2 -25.0364584,0.028646 0,43.9713542 36.1510424,0 0,-32.65625 L 31.048015,2 z m -1.317708,3.6666667 9.052083,9.4531253 0,27.213541 -29.3906251,0 0.028646,-36.6380205 20.3098962,-0.028646 z m -1.375,6.1875003 c -1.896223,-0.02811 -2.486185,2.136188 -0.916667,3.09375 6.749354,4.117763 3.347291,9.303855 -4.354166,9.023437 0,0 0,-5.901042 0,-5.901042 l -12.088542,9.96875 12.088542,9.481771 0,-5.442708 c 12.406143,0.106276 19.68757,-13.439223 6.789062,-19.822917 -0.566344,-0.280293 -1.080639,-0.394553 -1.518229,-0.401041 z" id="path-main"/>
    </g>
  </defs>
  <g id="acyl-visual">
    <use id="visible1" style="fill:url(#acyl-gradient)" xlink:href="#acyl-drawing"/>
  </g>
</svg>
