<svg xmlns="http://www.w3.org/2000/svg" xmlns:xlink="http://www.w3.org/1999/xlink" width="48" height="48">
  <defs id="acyl-settings">
    <linearGradient id="acyl-gradient" x1="0%" x2="0%" y1="0%" y2="100%">
      <stop offset="100%" style="stop-color:#A0A0A0;stop-opacity:1.000000"/>
    </linearGradient>
    <g id="acyl-filter">
  </g>
    <g id="acyl-drawing">
      <path id="path-main" d="M 45.997636,13.560188 C 46.095262,11.231469 43.146632,9.6320046 41.257901,11.011525 35.436158,16.65721 29.735166,22.429659 23.995917,28.16024 18.320735,22.508382 12.674314,16.826188 6.9811128,11.193295 c -1.73865,-1.5633004 -4.838785,-0.269041 -4.962914,2.061933 -0.220596,1.946885 1.615255,3.023375 2.744266,4.290386 5.7695332,5.7558 11.5266592,11.52427 17.3039622,17.272108 1.344482,1.188493 3.487001,0.729601 4.51558,-0.646307 6.236474,-6.241983 12.500792,-12.457325 18.719815,-18.715998 0.441456,-0.526345 0.699434,-1.20636 0.695814,-1.895229 z"/>
    </g>
  </defs>
  <g id="acyl-visual">
    <use id="visible1" style="fill:url(#acyl-gradient)" xlink:href="#acyl-drawing"/>
  </g>
</svg>
