<svg xmlns="http://www.w3.org/2000/svg" xmlns:xlink="http://www.w3.org/1999/xlink" width="48" height="48">
  <defs id="acyl-settings">
    <linearGradient id="acyl-gradient" x1="0%" x2="0%" y1="0%" y2="100%">
      <stop offset="100%" style="stop-color:#A0A0A0;stop-opacity:1.000000"/>
    </linearGradient>
    <g id="acyl-filter">
  </g>
    <g id="acyl-drawing">
      <path d="m 16.31,6.41 c -0.77,0 -1.47,0.499 -1.94,1.085 L 2.641,22.16 c -0.83,1.03 -0.83,2.64 0,3.67 L 14.37,40.47 c 0.62,0.76 1.61,1.2 2.58,1.11 0,0 0,0 0,0 0,0 0,0 0.29,0 h 25.24 c 2,0 3.5,-1.61 3.5,-3.58 V 9.989 c 0,-1.966 -1.5,-3.579 -3.5,-3.579 H 17.24 c 0,0 -0.29,0 -0.35,0 -0.29,0 -0.38,0 -0.56,0 z m 3.28,8.8 h 2.93 c 0.83,0 1.59,0.29 2.12,0.82 l 3.75,3.76 3.76,-3.76 c 0.52,-0.53 1.29,-0.79 2.11,-0.82 h 2.92 v 2.93 c 0,0.8 -0.3,1.53 -0.81,2.12 l -3.76,3.75 3.76,3.76 c 0.51,0.52 0.51,1.35 0.81,2.11 v 2.93 h -2.92 c -0.82,0 -1.67,-0.29 -2.11,-0.82 l -3.76,-3.75 -3.75,3.75 c -0.53,0.53 -1.29,0.82 -2.12,0.82 h -2.93 v -2.93 c 0,-0.82 0.29,-1.64 0.85,-2.11 l 3.76,-3.76 -3.76,-3.75 c -0.56,-0.53 -1.05,-1.35 -0.85,-2.12 z" id="path-main"/>
    </g>
  </defs>
  <g id="acyl-visual">
    <use id="visible1" style="fill:url(#acyl-gradient)" xlink:href="#acyl-drawing"/>
  </g>
</svg>
