<svg xmlns="http://www.w3.org/2000/svg" xmlns:xlink="http://www.w3.org/1999/xlink" width="48" height="48">
  <defs id="acyl-settings">
    <linearGradient id="acyl-gradient" x1="0%" x2="0%" y1="0%" y2="100%">
      <stop offset="100%" style="stop-color:#A0A0A0;stop-opacity:1.000000"/>
    </linearGradient>
    <g id="acyl-filter">
  </g>
    <g id="acyl-drawing">
      <path id="path-main" d="M 6.5803513,2 C 4.0566305,2 2,4.1398146 2,6.7838542 L 2,41.244792 C 2,43.888831 4.0566303,46.000001 6.5803513,46 L 41.448276,46 C 43.971996,46 45.999998,43.888831 46,41.244792 L 46,6.7838542 C 46,4.1398146 43.971995,2 41.448276,2 L 6.5803513,2 z m 1.5458686,4.2109375 31.7761871,0 c 1.058852,0 1.918022,0.8977238 1.918022,2.0338545 l 0,31.539062 c -10e-7,1.136131 -0.859172,2.0625 -1.918022,2.0625 l -31.7761871,0 c -1.0588503,-10e-7 -1.9180221,-0.926369 -1.9180221,-2.0625 l 0,-31.539062 c 0,-1.1361307 0.8591718,-2.0338545 1.9180221,-2.0338545 z m 1.2309694,2.9218755 0,4.411458 18.8366947,0 0,-4.411458 -18.8366947,0 z m 0,7.5625 0,4.382812 18.8366947,0 0,-4.382812 -18.8366947,0 z m 28.0832787,0.143229 -11.336369,10.3125 11.336369,10.341146 0,-20.653646 z"/>
    </g>
  </defs>
  <g id="acyl-visual">
    <use id="visible1" style="fill:url(#acyl-gradient)" xlink:href="#acyl-drawing"/>
  </g>
</svg>
