<svg xmlns="http://www.w3.org/2000/svg" xmlns:xlink="http://www.w3.org/1999/xlink" width="48" height="48">
  <defs id="acyl-settings">
    <linearGradient id="acyl-gradient" x1="0%" x2="0%" y1="0%" y2="100%">
      <stop offset="100%" style="stop-color:#A0A0A0;stop-opacity:1.000000"/>
    </linearGradient>
    <g id="acyl-filter">
  </g>
    <g id="acyl-drawing">
      <path id="path-main" d="M 15.560188,2.0023641 C 13.231469,1.9047381 11.632003,4.8533683 13.011525,6.7420988 18.65721,12.563842 24.429659,18.264834 30.16024,24.004083 24.508382,29.679265 18.826188,35.325686 13.193295,41.018888 c -1.563302,1.73865 -0.269041,4.838785 2.061933,4.962914 1.946885,0.220596 3.023375,-1.615255 4.290386,-2.744266 5.7558,-5.769534 11.52427,-11.52666 17.272108,-17.303963 1.188493,-1.344482 0.729601,-3.487001 -0.646307,-4.51558 C 29.929432,15.181519 23.71409,8.917201 17.455417,2.698178 16.929072,2.2567224 16.249057,1.9987439 15.560188,2.0023641 z"/>
    </g>
  </defs>
  <g id="acyl-visual">
    <use id="visible1" style="fill:url(#acyl-gradient)" xlink:href="#acyl-drawing"/>
  </g>
</svg>
