<svg xmlns="http://www.w3.org/2000/svg" xmlns:xlink="http://www.w3.org/1999/xlink" width="48" height="48">
  <defs id="acyl-settings">
    <linearGradient id="acyl-gradient" x1="0%" x2="0%" y1="0%" y2="100%">
      <stop offset="100%" style="stop-color:#A0A0A0;stop-opacity:1.000000"/>
    </linearGradient>
    <g id="acyl-filter">
  </g>
    <g id="acyl-drawing">
      <path d="M 24,4 C 17,4 12,8.1739046 12,15 L 12,21 L 10,21 C 8,21 7,22 7,24 L 7,41 C 7,41.980326 8,44 10,44 L 39.384016,44 C 41,43.990546 42,41.980324 42,41 L 42,24 C 42,22 41,20.990546 39,20.990546 L 37,21 L 37,15 C 37,8 32,4 25,4 L 24,4 z M 24,9 L 25,9 C 32,9 32,15 32,17 L 32,21 L 17,21 L 17,17 C 17,15 17,9 24,9 z" id="path-main"/>
    </g>
  </defs>
  <g id="acyl-visual">
    <use id="visible1" style="fill:url(#acyl-gradient)" xlink:href="#acyl-drawing"/>
  </g>
</svg>
