<svg xmlns="http://www.w3.org/2000/svg" xmlns:xlink="http://www.w3.org/1999/xlink" width="48" height="48">
  <defs id="acyl-settings">
    <linearGradient id="acyl-gradient" x1="0%" x2="0%" y1="0%" y2="100%">
      <stop offset="100%" style="stop-color:#A0A0A0;stop-opacity:1.000000"/>
    </linearGradient>
    <g id="acyl-filter">
  </g>
    <g id="acyl-drawing">
      <path d="m 46,11.355483 c 0,1.581939 -1.323807,2.855485 -2.98913,2.855485 l -38.0217399,0 c -1.665323,0 -2.98913,-1.273546 -2.98913,-2.855485 0,-1.5819375 1.323807,-2.8554836 2.98913,-2.8554836 l 38.0217399,0 c 1.665323,0 2.98913,1.273546 2.98913,2.8554836 z m -0.777174,25.282928 c 0,0.729913 -0.274895,1.46333 -0.836956,2.022634 -1.124124,1.118607 -2.941094,1.118607 -4.065218,0 L 24.179348,22.59895 8.0380441,38.661045 c -1.124124,1.118607 -2.941094,1.118607 -4.065218,0 -1.124123,-1.118607 -1.124123,-2.926661 0,-4.045269 L 21.788044,16.887983 c 0.646916,-0.643741 1.551533,-0.870559 2.391304,-0.77336 0.850885,-0.109512 1.735006,0.120271 2.391304,0.77336 L 44.38587,34.615776 c 0.562061,0.559304 0.836956,1.292721 0.836956,2.022635 z" id="path-main"/>
    </g>
  </defs>
  <g id="acyl-visual">
    <use id="visible1" style="fill:url(#acyl-gradient)" xlink:href="#acyl-drawing"/>
  </g>
</svg>
