<svg xmlns="http://www.w3.org/2000/svg" xmlns:xlink="http://www.w3.org/1999/xlink" width="48" height="48">
  <defs id="acyl-settings">
    <linearGradient id="acyl-gradient" x1="0%" x2="0%" y1="0%" y2="100%">
      <stop offset="100%" style="stop-color:#A0A0A0;stop-opacity:1.000000"/>
    </linearGradient>
    <g id="acyl-filter">
  </g>
    <g id="acyl-drawing">
      <path id="path-main" d="M 19.612083,2.0000002 C 9.8999556,2.0000002 2,9.8809835 2,19.569784 c 0,9.688802 7.8999562,17.540403 17.612083,17.540403 4.323892,0 8.277047,-1.56094 11.338883,-4.142709 l 1.295872,4.142709 7.686879,8.226654 c 0.530553,0.567084 3.003947,1.381023 4.947876,-0.558237 1.649476,-1.645517 1.146062,-4.389925 0.559581,-4.935993 l -8.24646,-7.668417 -4.152682,-1.29276 c 2.587984,-3.054482 4.152682,-6.998143 4.152682,-11.31165 0,-9.6888015 -7.870504,-17.5697838 -17.582631,-17.5697838 z m 0,4.4071365 c 7.284095,2e-7 13.194336,5.8960453 13.194336,13.1626473 1e-6,7.266601 -5.910241,13.162647 -13.194336,13.162647 -7.284095,1e-6 -13.1943365,-5.896046 -13.1943365,-13.162647 2e-7,-7.266601 5.9102405,-13.1626473 13.1943365,-13.1626473 z m -9.8957524,10.3420793 0,5.641135 19.7915044,0 0,-5.641135 -19.7915044,0 z"/>
    </g>
  </defs>
  <g id="acyl-visual">
    <use id="visible1" style="fill:url(#acyl-gradient)" xlink:href="#acyl-drawing"/>
  </g>
</svg>
