<svg xmlns="http://www.w3.org/2000/svg" xmlns:xlink="http://www.w3.org/1999/xlink" width="48" height="48">
  <defs id="acyl-settings">
    <linearGradient id="acyl-gradient" x1="0%" x2="0%" y1="0%" y2="100%">
      <stop offset="100%" style="stop-color:#A0A0A0;stop-opacity:1.000000"/>
    </linearGradient>
    <g id="acyl-filter">
  </g>
    <g id="acyl-drawing">
      <path id="path-main" d="M 7.0989583,2 C 4.2759543,2 2,4.2759543 2,7.0989583 L 2,40.901042 C 2,43.724046 4.2759543,46 7.0989583,46 L 40.901042,46 C 43.724046,46 46,43.724045 46,40.901042 L 46,7.0989583 C 46,4.2759543 43.724045,2 40.901042,2 L 7.0989583,2 z m 1.6041667,3.6666667 30.59375,0 c 1.674795,0 3.036458,1.3616653 3.036458,3.0364583 l 0,30.59375 c 0,1.674795 -1.361665,3.036458 -3.036458,3.036458 l -30.59375,0 c -1.6747927,0 -3.0364583,-1.361665 -3.0364583,-3.036458 l 0,-30.59375 c 0,-1.6747927 1.3616653,-3.0364583 3.0364583,-3.0364583 z m 0.6302083,3.6666663 0,29.333334 29.3333337,0 0,-29.333334 -29.3333337,0 z M 19.559896,13 35,13 l 0,15.411458 -5.5,-5.5 L 28.382812,24 23.971354,28.411458 22.882812,29.5 l 5.5,5.5 -15.411458,0 0,-15.411458 5.5,5.5 L 19.559896,24 23.971354,19.588542 25.088542,18.5 19.559896,13 z"/>
    </g>
  </defs>
  <g id="acyl-visual">
    <use id="visible1" style="fill:url(#acyl-gradient)" xlink:href="#acyl-drawing"/>
  </g>
</svg>
