<svg xmlns="http://www.w3.org/2000/svg" xmlns:xlink="http://www.w3.org/1999/xlink" width="48" height="48">
  <defs id="acyl-settings">
    <linearGradient id="acyl-gradient" x1="0%" x2="0%" y1="0%" y2="100%">
      <stop offset="100%" style="stop-color:#A0A0A0;stop-opacity:1.000000"/>
    </linearGradient>
    <g id="acyl-filter">
  </g>
    <g id="acyl-drawing">
      <path d="M 40.16 3.188 L 36.97 4.656 L 37.44 6.75 L 39.66 5.656 L 39.78 5.656 L 39.78 15.03 L 42.5 15.03 L 42.5 3.188 L 40.16 3.188 z M 13.4 4.281 L 13.4 33.13 C 10.81 30.54 8.223 27.97 8.223 27.97 L 3.062 33.13 L 14.53 44.59 C 15.27 45.33 16.2 45.72 17.12 45.72 C 18.05 45.72 18.94 45.33 19.68 44.59 L 31.03 33 L 25.87 27.84 L 25.87 27.97 C 25.87 27.97 23.27 30.54 20.68 33.13 L 20.68 4.281 L 13.4 4.281 z M 40.78 18.59 C 39.67 18.59 38.69 19.45 38.69 20.69 C 38.69 21.8 39.55 22.78 40.78 22.78 C 41.89 22.78 42.88 21.92 42.88 20.69 C 42.88 19.58 42.01 18.59 40.78 18.59 z M 40.78 25.12 C 39.67 25.12 38.69 25.99 38.69 27.22 C 38.69 28.33 39.55 29.31 40.78 29.31 C 41.89 29.31 42.88 28.45 42.88 27.22 C 42.88 26.11 42.01 25.12 40.78 25.12 z M 40.41 32.16 C 37.82 32.16 35.97 34.13 35.97 36.47 C 35.97 38.81 37.68 40.16 39.66 40.16 C 40.77 40.16 41.63 39.81 42.13 39.31 C 42 40.18 41.4 41.04 40.66 41.53 C 40.04 42.02 39.18 42.25 38.31 42.25 L 37.09 42.25 L 36.97 42.03 L 36.97 44.25 L 38.19 44.25 C 40.04 44.25 41.64 43.61 42.75 42.63 C 44.11 41.52 44.84 39.68 44.84 37.22 C 44.84 34.51 43.49 32.16 40.41 32.16 z M 40.28 34.13 L 40.41 34.13 C 41.64 34.13 42.13 35.36 42.13 36.59 C 42.13 36.96 42.13 37.22 42 37.34 C 41.63 37.71 41.15 38.06 40.41 38.06 C 39.3 38.06 38.69 37.21 38.69 36.22 C 38.69 34.99 39.29 34.12 40.28 34.13 z" id="path-main"/>
    </g>
  </defs>
  <g id="acyl-visual">
    <use id="visible1" style="fill:url(#acyl-gradient)" xlink:href="#acyl-drawing"/>
  </g>
</svg>
