<svg xmlns="http://www.w3.org/2000/svg" xmlns:xlink="http://www.w3.org/1999/xlink" width="48" height="48">
  <defs id="acyl-settings">
    <linearGradient id="acyl-gradient" x1="0%" x2="0%" y1="0%" y2="100%">
      <stop offset="100%" style="stop-color:#A0A0A0;stop-opacity:1.000000"/>
    </linearGradient>
    <g id="acyl-filter">
  </g>
    <g id="acyl-drawing">
      <path d="M 13.40585,12.90575 C 13.16681,12.951361 12.99531,13.162434 12.9996,13.40575 L 12.9996,34.40575 C 12.99963,34.68188 13.22347,34.90572 13.4996,34.90575 L 21.4996,34.90575 C 21.77573,34.90572 21.99957,34.68188 21.9996,34.40575 L 21.9996,13.40575 C 21.99957,13.129619 21.77573,12.905778 21.4996,12.90575 L 13.4996,12.90575 C 13.46842,12.902814 13.43703,12.902814 13.40585,12.90575 L 13.40585,12.90575 z M 26.40585,12.90575 C 26.16681,12.951361 25.99531,13.162434 25.9996,13.40575 L 25.9996,34.40575 C 25.99963,34.68188 26.22347,34.90572 26.4996,34.90575 L 34.4996,34.90575 C 34.77573,34.90572 34.99957,34.68188 34.9996,34.40575 L 34.9996,13.40575 C 34.99957,13.129619 34.77573,12.905778 34.4996,12.90575 L 26.4996,12.90575 C 26.46842,12.902814 26.43703,12.902814 26.40585,12.90575 L 26.40585,12.90575 z" id="path-main"/>
    </g>
  </defs>
  <g id="acyl-visual">
    <use id="visible1" style="fill:url(#acyl-gradient)" xlink:href="#acyl-drawing"/>
  </g>
</svg>
