<svg xmlns="http://www.w3.org/2000/svg" xmlns:xlink="http://www.w3.org/1999/xlink" width="48" height="48">
  <defs id="acyl-settings">
    <linearGradient id="acyl-gradient" x1="0%" x2="0%" y1="0%" y2="100%">
      <stop offset="100%" style="stop-color:#A0A0A0;stop-opacity:1.000000"/>
    </linearGradient>
    <g id="acyl-filter">
  </g>
    <g id="acyl-drawing">
      <path id="path-main" d="M 19.61212,2 C 9.9010678,2 2,9.8820943 2,19.569827 c 0,9.687733 7.9010678,17.540448 17.61212,17.540447 4.323414,0 8.276974,-1.5608 11.338907,-4.142719 l 1.295875,4.142719 7.686895,8.226675 c 0.530492,0.56702 3.004173,1.380807 4.947887,-0.558239 1.649295,-1.645336 1.145998,-4.389998 0.559582,-4.936005 l -8.246477,-7.668436 -4.152691,-1.292764 c 2.588134,-3.05458 4.152691,-6.998646 4.152691,-11.311678 C 37.194789,9.8820943 29.323172,2 19.61212,2 z m 0,4.4071474 c 7.283289,10e-8 13.194364,5.8968806 13.194364,13.1626796 0,7.2658 -5.911075,13.16268 -13.194364,13.16268 C 12.328831,32.732506 6.4177559,26.835627 6.4177559,19.569827 6.417756,12.304028 12.328831,6.4071474 19.61212,6.4071474 z m -2.149974,2.7324309 -4.447208,0.9401917 0,3.349432 4.476659,-0.910811 0,12.398775 -4.358852,0 0,3.408194 13.429978,0 0,-3.408194 -4.358853,0 0,-15.7775877 -4.741724,0 z"/>
    </g>
  </defs>
  <g id="acyl-visual">
    <use id="visible1" style="fill:url(#acyl-gradient)" xlink:href="#acyl-drawing"/>
  </g>
</svg>
