<svg xmlns="http://www.w3.org/2000/svg" xmlns:xlink="http://www.w3.org/1999/xlink" width="48" height="48">
  <defs id="acyl-settings">
    <linearGradient id="acyl-gradient" x1="0%" x2="0%" y1="0%" y2="100%">
      <stop offset="100%" style="stop-color:#A0A0A0;stop-opacity:1.000000"/>
    </linearGradient>
    <g id="acyl-filter">
  </g>
    <g id="acyl-drawing">
      <path id="path-main" d="M 7.0989583,2 C 4.2759543,2 2,4.2759543 2,7.0989583 L 2,40.901042 C 2,43.724046 4.2759543,46 7.0989583,46 L 40.901042,46 C 43.724046,46 46,43.724045 46,40.901042 L 46,7.0989583 C 46,4.2759543 43.724045,2 40.901042,2 L 7.0989583,2 z m 1.03125,3.6666667 31.7395837,0 c 1.357771,0 2.463541,1.1057697 2.463541,2.4635413 l 0,31.739584 c -1e-6,1.357771 -1.105769,2.463541 -2.463541,2.463541 l -31.7395837,0 c -1.3577718,-1e-6 -2.4635416,-1.105769 -2.4635416,-2.463541 l 0,-31.739584 c 0,-1.3577715 1.1057697,-2.4635413 2.4635416,-2.4635413 z M 12.398438,8.1875 8.1875,12.398438 l 5.270833,5.270833 -5.270833,5.270833 14.752604,0 0,-14.752604 -5.270833,5.270833 L 12.398438,8.1875 z m 12.661458,16.872396 0,14.752604 5.270833,-5.270833 5.270833,5.270833 4.210938,-4.210938 -5.270833,-5.270833 5.270833,-5.270833 -14.752604,0 z"/>
    </g>
  </defs>
  <g id="acyl-visual">
    <use id="visible1" style="fill:url(#acyl-gradient)" xlink:href="#acyl-drawing"/>
  </g>
</svg>
