<svg xmlns="http://www.w3.org/2000/svg" xmlns:xlink="http://www.w3.org/1999/xlink" width="48" height="48">
  <defs id="acyl-settings">
    <linearGradient id="acyl-gradient" x1="0%" x2="0%" y1="0%" y2="100%">
      <stop offset="100%" style="stop-color:#A0A0A0;stop-opacity:1.000000"/>
    </linearGradient>
    <g id="acyl-filter">
  </g>
    <g id="acyl-drawing">
      <path d="m 23.737001,2.0000709 c -7.365504,0 -13.336001,5.9704975 -13.336001,13.3360011 0,3.58216 1.327545,6.915313 3.711016,9.225791 1.081922,1.048789 1.881875,2.257156 2.409942,3.459671 0.343054,0.781204 1.283113,4.040854 1.493276,6.091389 l 11.443532,0 c 0.210163,-2.050535 1.19832,-5.290785 1.493276,-6.091389 0.532159,-1.444449 1.369344,-2.376552 2.409943,-3.459671 C 35.661785,22.168089 37.073,18.918232 37.073,15.336072 37.073,7.9705684 31.102503,2.0000709 23.737001,2.0000709 z M 17.734322,38.385763 c 0,0 -0.412132,4.282872 0.384407,5.41128 C 19.33408,45.51876 21.99443,46 23.737001,46 c 1.742569,0 4.402919,-0.48124 5.61827,-2.202957 0.796539,-1.128408 0.384407,-5.41128 0.384407,-5.41128 z" id="path-main"/>
    </g>
  </defs>
  <g id="acyl-visual">
    <use id="visible1" style="fill:url(#acyl-gradient)" xlink:href="#acyl-drawing"/>
  </g>
</svg>
