<svg xmlns="http://www.w3.org/2000/svg" xmlns:xlink="http://www.w3.org/1999/xlink" width="48" height="48">
  <defs id="acyl-settings">
    <linearGradient id="acyl-gradient" x1="0%" x2="0%" y1="0%" y2="100%">
      <stop offset="100%" style="stop-color:#A0A0A0;stop-opacity:1.000000"/>
    </linearGradient>
    <g id="acyl-filter">
  </g>
    <g id="acyl-drawing">
      <path id="path-main" d="M 35.811418,1.745991 35.613855,2 l -7.987171,9.228993 -23.8203979,0 17.1597179,17.159718 9.652341,-9.652342 0,3.33034 0,0.282233 -1.524054,1.524054 1.524054,1.524053 0,0.282233 0,3.33034 -3.33034,-3.33034 -6.322001,6.322001 -6.322001,-6.322001 -10.8377169,10.837716 23.8203979,0 7.987171,9.228993 L 35.811418,46 36.037203,45.717768 45.576652,34.682489 46,34.202694 l -0.649134,0 -4.261706,0 0,-8.523412 0,-0.282233 -0.310456,0 -0.846696,0 0,-3.048107 0.846696,0 0.310456,0 0,-0.282233 0,-8.523412 4.261706,0 0.649134,0 L 45.576652,13.063502 36.037203,2.0282232 35.811418,1.745991 z m 0,0.9031431 8.918537,10.3014749 -3.951251,0 -0.282232,0 0,0.282233 0,8.551635 -9.313663,0 0,-8.551635 0,-0.282233 -0.282232,0 -3.979474,0 8.890315,-10.3014749 z M 2,13.035279 2,34.710712 12.837716,23.872996 2,13.035279 z m 29.182809,12.926235 9.313663,0 0,8.551635 0,0.282233 0.282232,0 3.951251,0 -8.918537,10.301475 -8.890315,-10.301475 3.979474,0 0.282232,0 0,-0.282233 0,-8.551635 z"/>
    </g>
  </defs>
  <g id="acyl-visual">
    <use id="visible1" style="fill:url(#acyl-gradient)" xlink:href="#acyl-drawing"/>
  </g>
</svg>
