<svg xmlns="http://www.w3.org/2000/svg" xmlns:xlink="http://www.w3.org/1999/xlink" width="48" height="48">
  <defs id="acyl-settings">
    <linearGradient id="acyl-gradient" x1="0%" x2="0%" y1="0%" y2="100%">
      <stop offset="100%" style="stop-color:#A0A0A0;stop-opacity:1.000000"/>
    </linearGradient>
    <g id="acyl-filter">
  </g>
    <g id="acyl-drawing">
      <path d="m 27.395329,2 0,4.9044586 -16.955413,0 C 9.2017234,6.9045824 8.1980012,7.908305 8.1978774,9.146497 l 0,19.225478 c 1.238e-4,1.238192 1.003846,2.241914 2.2420386,2.242038 l 15.694267,0 2.634395,0 0,-4.484077 -2.634395,0 -13.452229,0 0,-14.741401 14.713375,0 0,4.932484 3.811465,-3.83949 1.765605,-1.73758 L 34.541826,9.146497 32.972399,7.57707 31.206794,5.811465 27.395329,2 z m -9.10828,15.385987 0,4.484077 17.824204,0 0,14.741401 -14.713376,0 0,-4.932484 -3.811465,3.83949 -1.765605,1.73758 -1.569427,1.597452 1.569427,1.569427 1.765605,1.765605 L 21.397877,46 l 0,-4.904459 16.955414,0 c 1.238193,-1.23e-4 2.241914,-1.003845 2.242038,-2.242038 l 0,-19.225478 c -1.24e-4,-1.238192 -1.003845,-2.241914 -2.242038,-2.242038 l -20.066242,0 z" id="path-main"/>
    </g>
  </defs>
  <g id="acyl-visual">
    <use id="visible1" style="fill:url(#acyl-gradient)" xlink:href="#acyl-drawing"/>
  </g>
</svg>
