<svg xmlns="http://www.w3.org/2000/svg" xmlns:xlink="http://www.w3.org/1999/xlink" width="48" height="48">
  <defs id="acyl-settings">
    <linearGradient id="acyl-gradient" x1="0%" x2="0%" y1="0%" y2="100%">
      <stop offset="100%" style="stop-color:#A0A0A0;stop-opacity:1.000000"/>
    </linearGradient>
    <g id="acyl-filter">
  </g>
    <g id="acyl-drawing">
      <path d="m 33.039976,4 c -11.711552,0 -20.84375,9.31205 -20.84375,20.5 l 0,2.5 -8.2812496,0 -1.15625,0 0.78125,0.84375 15.2812496,16.5 0.375,0.40625 0.375,-0.40625 15.21875,-16.5 0.75,-0.84375 -1.125,0 -8.21875,0 0,-2.5 c 0,-1.997463 0.669242,-3.596234 1.84375,-4.71875 1.174508,-1.12252 2.889987,-1.78125 5,-1.78125 l 9.65625,0 0.5,0 0,-0.5 0,-13 0,-0.5 -0.5,0 -9.65625,0 z" id="path-main"/>
    </g>
  </defs>
  <g id="acyl-visual">
    <use id="visible1" style="fill:url(#acyl-gradient)" xlink:href="#acyl-drawing"/>
  </g>
</svg>
