<svg xmlns="http://www.w3.org/2000/svg" xmlns:xlink="http://www.w3.org/1999/xlink" width="48" height="48">
  <defs id="acyl-settings">
    <linearGradient id="acyl-gradient" x1="0%" x2="0%" y1="0%" y2="100%">
      <stop offset="100%" style="stop-color:#A0A0A0;stop-opacity:1.000000"/>
    </linearGradient>
    <g id="acyl-filter">
  </g>
    <g id="acyl-drawing">
      <path d="m 4,4 0,0.5 0,13 0,0.5 0.5,0 9.65625,0 c 2.110013,0 3.825492,0.65873 5,1.78125 C 20.330758,20.90377 21,22.50254 21,24.5 l 0,2.5 -8.21875,0 -1.125,0 0.75,0.84375 15.21875,16.5 L 28,44.75 28.375,44.34375 43.65625,27.84375 44.4375,27 43.28125,27 35,27 35,24.5 C 35,13.31205 25.867803,4 14.15625,4 L 4.5,4 4,4 z" id="path-main"/>
    </g>
  </defs>
  <g id="acyl-visual">
    <use id="visible1" style="fill:url(#acyl-gradient)" xlink:href="#acyl-drawing"/>
  </g>
</svg>
