<svg xmlns="http://www.w3.org/2000/svg" xmlns:xlink="http://www.w3.org/1999/xlink" width="48" height="48">
  <defs id="acyl-settings">
    <linearGradient id="acyl-gradient" x1="0%" x2="0%" y1="0%" y2="100%">
      <stop offset="100%" style="stop-color:#A0A0A0;stop-opacity:1.000000"/>
    </linearGradient>
    <g id="acyl-filter">
  </g>
    <g id="acyl-drawing">
      <path id="path-main" d="m 2,10.159748 0,1.317709 0,0.171875 0,18.104166 0,0.830729 0,0.658855 1.2890625,0 0.2005208,0 9.5104167,0 0,-1.976563 -7.5625,0 6.960938,-7.075521 L 13,22.792561 l 0,-2.979167 -7.5625,-7.677083 24.291667,0 -0.773438,0.773437 4.210938,0 0,-1.260416 0,-0.171875 0,-1.317709 -1.289063,0 -0.200521,0 -28.1874997,0 -0.2005208,0 -1.2890625,0 z m 1.9479167,3.466146 6.9609373,7.075521 -6.9609373,7.075521 0,-14.151042 z m 10.8854163,1.117188 0,1.317708 0,0.171875 0,18.104167 0,0.830729 0,0.658854 1.289063,0 0.200521,0 28.1875,0 0.20052,0 1.289063,0 0,-0.658854 0,-0.830729 0,-18.104167 0,-0.171875 0,-1.317708 -1.289063,0 -0.20052,0 -28.1875,0 -0.200521,0 -1.289063,0 z m 3.4375,1.976562 24.291667,0 L 30.416667,29.065998 18.270833,16.719644 z m -1.489583,1.489583 6.960937,7.075521 -6.960937,7.075521 0,-14.151042 z m 27.270833,0 0,14.151042 -6.960937,-7.075521 6.960937,-7.075521 z m -18.820312,8.565105 5.184896,5.270833 5.184895,-5.270833 6.960938,7.07552 -24.291667,0 6.960938,-7.07552 z"/>
    </g>
  </defs>
  <g id="acyl-visual">
    <use id="visible1" style="fill:url(#acyl-gradient)" xlink:href="#acyl-drawing"/>
  </g>
</svg>
