#define 459b2ef8543e42e78e2303824cb3cc4f_width 13
#define 459b2ef8543e42e78e2303824cb3cc4f_height 14
static char 459b2ef8543e42e78e2303824cb3cc4f_bits[] = {
  0x00, 0x00, 0x0C, 0x06, 0x1E, 0x0F, 0xBE, 0x0F, 0xFE, 0x0F, 0xFC, 0x07, 
  0xF8, 0x03, 0xF8, 0x03, 0xFC, 0x07, 0xFE, 0x0F, 0xBE, 0x0F, 0x1E, 0x0F, 
  0x0C, 0x06, 0x00, 0x00, };
