#define dbd94a5084af4d44b117b15518669660_width 15
#define dbd94a5084af4d44b117b15518669660_height 17
static char dbd94a5084af4d44b117b15518669660_bits[] = {
  0x00, 0x00, 0x00, 0x00, 0xC0, 0x01, 0xE0, 0x03, 0xE0, 0x03, 0xF0, 0x07, 
  0xF8, 0x0F, 0xF8, 0x0F, 0xFC, 0x1F, 0xFC, 0x1F, 0xFE, 0x3F, 0xFE, 0x3F, 
  0xFE, 0x3F, 0xFE, 0x3F, 0x00, 0x00, 0x00, 0x00, 0x00, 0x00, };
