<svg xmlns="http://www.w3.org/2000/svg" xmlns:xlink="http://www.w3.org/1999/xlink" width="48" height="48">
  <defs id="acyl-settings">
    <linearGradient id="acyl-gradient" x1="0%" x2="0%" y1="0%" y2="100%">
      <stop offset="100%" style="stop-color:#A0A0A0;stop-opacity:1.000000"/>
    </linearGradient>
    <g id="acyl-filter">
  </g>
    <g id="acyl-drawing">
      <path d="M 3 7 L 3 42 L 45 42 L 45 10.5 L 25.75 10.5 L 25.75 7 L 3 7 z M 4.75 8.75 L 24 8.75 L 24 12.25 L 43.25 12.25 L 43.25 15.75 L 20.5 15.75 L 20.5 12.25 L 4.75 12.25 L 4.75 8.75 z M 36 20.8809 L 35.416 23.0195 L 35.4434 23.0449 L 35.3945 23.0938 L 33.9395 28.418 L 32.1035 27.9141 L 32.6797 25.8086 L 27.9023 30.5859 L 26.3086 28.9922 L 31.0918 24.209 L 28.9844 24.793 L 28.4785 22.9551 L 33.8223 21.4805 L 33.8516 21.4531 L 33.8672 21.4688 L 36 20.8809 z M 12 20.8965 L 14.1387 21.4805 L 14.1641 21.4531 L 14.2148 21.502 L 19.5371 22.957 L 19.0352 24.793 L 16.9297 24.2168 L 21.707 28.9941 L 20.1152 30.5879 L 15.332 25.8047 L 15.9141 27.9121 L 14.0781 28.418 L 12.6016 23.0742 L 12.5742 23.0469 L 12.5898 23.0312 L 12 20.8965 z M 24.0078 29.6562 C 24.8384 29.6562 25.6687 29.9713 26.2969 30.5996 C 27.5533 31.856 27.5533 33.9213 26.2969 35.1777 C 25.0406 36.4341 22.975 36.4341 21.7188 35.1777 C 20.4624 33.9212 20.4624 31.856 21.7188 30.5996 C 22.347 29.9714 23.1773 29.6562 24.0078 29.6562 z M 24.0078 31.5488 C 23.6686 31.5488 23.3307 31.681 23.0664 31.9453 C 22.5379 32.4739 22.5379 33.3034 23.0664 33.832 C 23.595 34.3606 24.4226 34.3606 24.9512 33.832 C 25.4798 33.3034 25.4798 32.4739 24.9512 31.9453 C 24.6869 31.681 24.347 31.5488 24.0078 31.5488 z " id="path-main"/>
    </g>
  </defs>
  <g id="acyl-visual">
    <use id="visible1" style="fill:url(#acyl-gradient)" xlink:href="#acyl-drawing"/>
  </g>
</svg>
