<svg xmlns="http://www.w3.org/2000/svg" viewBox="0 0 22 22" id="svg6">
  <defs id="defs3051">
    <style type="text/css" id="current-color-scheme">
      .ColorScheme-Text {
        color:#232629;
      }
      </style>
  </defs>
    <path
       style="opacity:1;fill:currentColor;fill-opacity:1;stroke:none" 
       d="M8.68 1.95V6.59h.774V1.95zm3.093 1.547v2.319h.773v-2.32zm-6.185.773v3.092h.774V4.27zM3.27 8.135v5.411a4.628 4.628 0 0 0 4.639 4.639H4.042v.773h10.823v-.773H11a4.623 4.623 0 0 0 4.37-3.092h1.428c1.07 0 1.933-.862 1.933-1.933v-1.546c0-1.07-.862-1.933-1.933-1.933h-1.16V8.135zm.773.773h10.823v4.638A3.857 3.857 0 0 1 11 17.412H7.908a3.857 3.857 0 0 1-3.866-3.866zm11.596 1.546h1.293c.569 0 1.027.458 1.027 1.027v1.812c0 .569-.458 1.027-1.027 1.027h-1.362c.042-.252.07-.51.07-.774z"
       class="ColorScheme-Text"
       id="rect4136" />
</svg>
