<svg xmlns="http://www.w3.org/2000/svg" xmlns:xlink="http://www.w3.org/1999/xlink" width="48" height="48">
  <defs id="acyl-settings">
    <linearGradient id="acyl-gradient" x1="0%" x2="0%" y1="0%" y2="100%">
      <stop offset="100%" style="stop-color:#A0A0A0;stop-opacity:1.000000"/>
    </linearGradient>
    <g id="acyl-filter">
  </g>
    <g id="acyl-drawing">
      <path d="M 33.6855 4.37305 L 17.0645 13.9668 L 15.5703 11.1875 L 3.70312 18.0332 L 5.22852 20.8125 L 2.83789 22.1875 L 4.63086 25.2969 L 2.77734 26.3418 L 2.26953 26.6406 L 2.6582 27.0898 L 4.42188 28.9727 L 2.56836 30.0195 L 2 30.3477 L 2.44922 30.7656 L 14.793 43.0508 L 15.0625 43.3203 L 15.1816 43.5 L 46 25.7148 L 33.6855 4.37305 z M 31.9648 11.8125 L 31.9688 11.8203 L 31.9668 11.8223 L 32.5352 13.7617 L 32.5703 13.7734 L 32.5566 13.834 L 33.9766 18.6895 L 32.3027 19.1777 L 31.7402 17.2578 L 30.3047 23.2832 L 28.2949 22.8027 L 29.7324 16.7715 L 28.3672 18.2383 L 27.0898 17.0469 L 30.5547 13.3301 L 30.5645 13.291 L 30.5859 13.3027 L 31.9668 11.8223 L 31.9648 11.8125 z M 20.1055 21.3496 L 20.5957 23.0234 L 18.6758 23.5859 L 24.6992 25.0215 L 24.2227 27.0312 L 18.1895 25.5918 L 19.6562 26.959 L 18.4668 28.2363 L 14.748 24.7715 L 14.7129 24.7598 L 14.7227 24.7402 L 13.2383 23.3574 L 15.1777 22.7891 L 15.1895 22.7539 L 15.252 22.7695 L 20.1055 21.3496 z M 28.4668 23.9883 C 28.6633 23.9946 28.8625 24.0212 29.0605 24.0684 C 30.6444 24.4463 31.6375 26.0583 31.2598 27.6426 C 30.8823 29.2276 29.2679 30.2196 27.6836 29.8418 C 26.0987 29.4644 25.1085 27.8501 25.4863 26.2656 C 25.6751 25.4736 26.1719 24.8302 26.8203 24.4316 C 27.3068 24.1296 27.8773 23.9694 28.4668 23.9883 z M 28.166 25.7461 C 28.009 25.7715 27.8609 25.8266 27.7285 25.9082 C 27.4637 26.071 27.2626 26.3365 27.1836 26.6699 C 27.0246 27.3364 27.4233 27.9836 28.0898 28.1426 C 28.7563 28.3014 29.4035 27.9047 29.5625 27.2383 C 29.7214 26.5716 29.3229 25.9243 28.6562 25.7656 C 28.4897 25.726 28.323 25.7207 28.166 25.7461 z M 5.10938 26.1328 L 13.2695 40.1816 L 3.58398 30.5566 L 5.4082 29.4805 L 5.91602 29.1816 L 5.52734 28.7344 L 3.79297 26.8809 L 5.10938 26.1328 z" id="path-main"/>
    </g>
  </defs>
  <g id="acyl-visual">
    <use id="visible1" style="fill:url(#acyl-gradient)" xlink:href="#acyl-drawing"/>
  </g>
</svg>
