<svg xmlns="http://www.w3.org/2000/svg" xmlns:xlink="http://www.w3.org/1999/xlink" width="48" height="48">
  <defs id="acyl-settings">
    <linearGradient id="acyl-gradient" x1="0%" x2="0%" y1="0%" y2="100%">
      <stop offset="100%" style="stop-color:#A0A0A0;stop-opacity:1.000000"/>
    </linearGradient>
    <g id="acyl-filter">
  </g>
    <g id="acyl-drawing">
      <path d="M 33.6855 4.37305 L 17.0645 13.9668 L 15.5703 11.1875 L 3.70312 18.0332 L 5.22852 20.8125 L 2.83789 22.1875 L 4.63086 25.2969 L 2.77734 26.3418 L 2.26953 26.6406 L 2.6582 27.0898 L 4.42188 28.9727 L 2.56836 30.0195 L 2 30.3477 L 2.44922 30.7656 L 14.793 43.0508 L 15.0625 43.3203 L 15.1816 43.5 L 46 25.7148 L 33.6855 4.37305 z M 24.4062 14.3047 L 28.7422 15.4414 L 35.1914 26.4727 L 35.7227 27.3828 L 34.0488 28.3613 L 33.9043 28.4453 L 32.2305 29.4238 L 31.168 27.6055 L 32.8418 26.627 L 27.3633 17.2578 L 24.7168 16.5645 L 19.3926 19.6758 L 20.4551 21.4941 L 18.6367 22.5566 L 17.5742 20.7383 L 16.5117 18.9219 L 16.5117 18.9199 L 17.4199 18.3887 L 24.4062 14.3047 z M 21.5176 23.3125 L 22.5801 25.1289 L 20.7637 26.1934 L 19.6992 24.375 L 21.5176 23.3125 z M 5.10938 26.1328 L 13.2695 40.1816 L 3.58398 30.5566 L 5.4082 29.4805 L 5.91602 29.1816 L 5.52734 28.7344 L 3.79297 26.8809 L 5.10938 26.1328 z M 23.6426 26.9473 L 24.707 28.7656 L 22.8887 29.8281 L 21.8262 28.0098 L 23.6426 26.9473 z M 29.3496 28.668 L 30.4121 30.4863 L 28.5938 31.5488 L 27.5312 29.7305 L 29.3496 28.668 z M 25.7695 30.584 C 26.1496 31.2343 26.5301 31.8848 26.9102 32.5352 L 26 33.0664 L 25.0918 33.5977 L 24.5605 32.6875 L 23.9512 31.6465 L 25.7695 30.584 z" id="path-main"/>
    </g>
  </defs>
  <g id="acyl-visual">
    <use id="visible1" style="fill:url(#acyl-gradient)" xlink:href="#acyl-drawing"/>
  </g>
</svg>
