<svg xmlns="http://www.w3.org/2000/svg" xmlns:xlink="http://www.w3.org/1999/xlink" width="48" height="48">
  <defs id="acyl-settings">
    <linearGradient id="acyl-gradient" x1="0%" x2="0%" y1="0%" y2="100%">
      <stop offset="100%" style="stop-color:#A0A0A0;stop-opacity:1.000000"/>
    </linearGradient>
    <g id="acyl-filter">
  </g>
    <g id="acyl-drawing">
      <path d="M 36.3984 7 C 36.3984 9.99997 34.3065 10.0431 31.9707 10.0801 L 7.625 10.0801 C 7.033 10.0716 6.48828 10.6093 6.48828 11.2012 C 6.48828 11.793 7.033 12.3288 7.625 12.3203 L 31.9707 12.3203 C 35.3845 12.3203 38.332 11.338 38.4258 9.24023 L 43.7598 9.24023 L 43.7598 34.3477 C 43.7598 35.6187 43.331 36.5904 42.1484 37.3945 C 41.8141 37.6218 41.4039 37.8296 40.9238 38.0117 C 41.1369 37.479 41.2617 36.8781 41.2617 36.2148 L 41.2617 13.6855 L 2 13.6855 L 2 35.4688 C 2 38.5197 4.45597 40.9813 7.50781 40.9766 C 17.1476 40.9616 26.7911 41.0382 36.4297 40.9766 C 39.5025 40.9513 41.7937 40.3362 43.4082 39.2383 C 45.1532 38.0516 46 36.2229 46 34.3496 L 46 7 L 36.3984 7 z M 16.8438 18.5 L 17.8965 18.5 L 25.9883 18.5 L 29.1562 21.668 L 29.1562 34.4473 L 29.1562 35.5 L 27.2168 35.5 L 27.0508 35.5 L 25.1113 35.5 L 25.1113 33.3945 L 27.0508 33.3945 L 27.0508 22.541 L 25.1152 20.6055 L 18.9492 20.6055 L 18.9492 22.7109 L 16.8438 22.7109 L 16.8438 20.6055 L 16.8438 18.5 z M 16.8438 24.8164 L 18.9492 24.8164 L 18.9492 26.9238 L 16.8438 26.9238 L 16.8438 24.8164 z M 16.8438 29.0293 L 18.9492 29.0293 L 18.9492 31.1348 L 16.8438 31.1348 L 16.8438 29.0293 z M 16.8438 33.2402 L 18.9492 33.2402 C 18.9492 33.9935 18.9493 34.7467 18.9492 35.5 L 17.8965 35.5 L 16.8438 35.5 L 16.8438 34.4473 L 16.8438 33.2402 z M 20.9004 33.3945 L 23.0059 33.3945 L 23.0059 35.5 L 20.9004 35.5 L 20.9004 33.3945 z" id="path-main"/>
    </g>
  </defs>
  <g id="acyl-visual">
    <use id="visible1" style="fill:url(#acyl-gradient)" xlink:href="#acyl-drawing"/>
  </g>
</svg>
