<svg xmlns="http://www.w3.org/2000/svg" xmlns:xlink="http://www.w3.org/1999/xlink" width="48" height="48">
  <defs id="acyl-settings">
    <linearGradient id="acyl-gradient" x1="0%" x2="0%" y1="0%" y2="100%">
      <stop offset="100%" style="stop-color:#A0A0A0;stop-opacity:1.000000"/>
    </linearGradient>
    <g id="acyl-filter">
  </g>
    <g id="acyl-drawing">
      <path d="m 36.40625,7 c -6.2e-5,2.9999725 -2.101751,3.056797 -4.4375,3.09375 l -24.34375,0 C 7.0330035,10.08525 6.5,10.595626 6.5,11.1875 c 0,0.591874 0.5330035,1.13347 1.125,1.125 l 24.34375,0 c 3.413771,0 6.375,-0.964692 6.46875,-3.0625 l 5.3125,0 0,25.09375 c 0,1.271053 -0.411215,2.258352 -1.59375,3.0625 C 41.821928,37.63355 41.41755,37.817897 40.9375,38 41.150614,37.467325 41.25,36.882022 41.25,36.21875 l 0,-22.53125 -39.25,0 0,21.78125 c 0,3.05091 2.4481547,5.504751 5.5,5.5 9.639776,-0.01501 19.298885,0.06159 28.9375,0 C 39.510336,40.94346 41.791703,40.347879 43.40625,39.25 45.151268,38.063368 46,36.217045 46,34.34375 L 46,7 36.40625,7 z m -15.010125,10.18345 9.0625,10.71875 0,8.5625 -17.6875,0.03125 0,-8.5625 8.625,-10.75 z" id="path-main"/>
    </g>
  </defs>
  <g id="acyl-visual">
    <use id="visible1" style="fill:url(#acyl-gradient)" xlink:href="#acyl-drawing"/>
  </g>
</svg>
