<svg xmlns="http://www.w3.org/2000/svg" xmlns:xlink="http://www.w3.org/1999/xlink" width="48" height="48">
  <defs id="acyl-settings">
    <linearGradient id="acyl-gradient" x1="0%" x2="0%" y1="0%" y2="100%">
      <stop offset="100%" style="stop-color:#A0A0A0;stop-opacity:1.000000"/>
    </linearGradient>
    <g id="acyl-filter">
  </g>
    <g id="acyl-drawing">
      <path d="M 36.3984 7 C 36.3984 9.99997 34.3065 10.0431 31.9707 10.0801 L 7.625 10.0801 C 7.033 10.0716 6.48828 10.6093 6.48828 11.2012 C 6.48828 11.793 7.033 12.3288 7.625 12.3203 L 31.9707 12.3203 C 35.3845 12.3203 38.332 11.338 38.4258 9.24023 L 43.7598 9.24023 L 43.7598 34.3477 C 43.7598 35.6187 43.331 36.5904 42.1484 37.3945 C 41.8141 37.6218 41.4039 37.8296 40.9238 38.0117 C 41.1369 37.479 41.2617 36.8781 41.2617 36.2148 L 41.2617 13.6855 L 2 13.6855 L 2 35.4688 C 2 38.5197 4.45597 40.9813 7.50781 40.9766 C 17.1476 40.9616 26.7911 41.0382 36.4297 40.9766 C 39.5025 40.9513 41.7937 40.3362 43.4082 39.2383 C 45.1532 38.0516 46 36.2229 46 34.3496 L 46 7 L 36.3984 7 z M 33.6992 20.2812 L 33.1172 22.418 L 33.1426 22.4453 L 33.0938 22.4941 L 31.6387 27.8164 L 29.8027 27.3145 L 30.3789 25.209 L 25.6016 29.9863 L 24.0078 28.3926 L 28.791 23.6094 L 26.6836 24.1914 L 26.1777 22.3555 L 31.5215 20.8809 L 31.5508 20.8516 L 31.5664 20.8691 L 33.6992 20.2812 z M 9.69922 20.2969 L 11.8379 20.8809 L 11.8652 20.8535 L 11.9141 20.9023 L 17.2363 22.3574 L 16.7344 24.1934 L 14.6289 23.6172 L 19.4062 28.3945 L 17.8145 29.9883 L 13.0312 25.2051 L 13.6133 27.3125 L 11.7773 27.8184 L 10.3008 22.4746 L 10.2734 22.4473 L 10.2891 22.4316 L 9.69922 20.2969 z M 21.707 29.0566 C 22.5376 29.0566 23.3679 29.3718 23.9961 30 C 25.2525 31.2564 25.2525 33.3217 23.9961 34.5781 C 22.7398 35.8345 20.6743 35.8345 19.418 34.5781 C 18.1616 33.3217 18.1616 31.2564 19.418 30 C 20.0462 29.3718 20.8765 29.0566 21.707 29.0566 z M 21.707 30.9492 C 21.3678 30.9492 21.0299 31.0814 20.7656 31.3457 C 20.2371 31.8743 20.2371 32.7038 20.7656 33.2324 C 21.2942 33.761 22.1218 33.761 22.6504 33.2324 C 23.179 32.7038 23.179 31.8743 22.6504 31.3457 C 22.3861 31.0814 22.0462 30.9492 21.707 30.9492 z " id="path-main"/>
    </g>
  </defs>
  <g id="acyl-visual">
    <use id="visible1" style="fill:url(#acyl-gradient)" xlink:href="#acyl-drawing"/>
  </g>
</svg>
