<svg xmlns="http://www.w3.org/2000/svg" viewBox="0 0 16 16" id="svg5">
  <defs id="defs3051">
    <style type="text/css" id="current-color-scheme">
      .ColorScheme-Text {
        color:#eff0f1;
      }
      </style>
  </defs>
    <path 
        style="opacity:1;fill:currentColor;fill-opacity:1;stroke:none" 
  d="M6.08 2.025a2.04 2.04 0 0 0-.12.004c-1.01.074-1.862.717-2.54 1.396-.544.544-1.046 1.2-1.28 1.954-.235.754-.092 1.717.649 2.308.226.18.485.23.735.322-.25.09-.51.14-.736.32a2.338 2.338 0 0 0-.256.237c-.581.634-.598 1.517-.345 2.21.252.694.723 1.307 1.232 1.816.542.543 1.201 1.044 1.953 1.278.754.236 1.718.094 2.309-.647.18-.226.23-.487.321-.737.092.251.141.51.322.737.589.74 1.554.882 2.307.648.754-.237 1.412-.736 1.955-1.279.542-.543 1.043-1.201 1.279-1.954.235-.754.092-1.718-.649-2.308-.226-.18-.485-.231-.736-.321.25-.091.51-.14.737-.322.74-.59.882-1.554.648-2.308-.236-.753-.737-1.41-1.28-1.954-.507-.508-1.118-.982-1.813-1.234-.693-.252-1.578-.235-2.211.347a2.258 2.258 0 0 0-.237.256c-.181.226-.23.486-.322.736-.09-.25-.14-.51-.321-.736a2.04 2.04 0 0 0-1.6-.769zm.067 1.038a1.195 1.195 0 0 1 1.072.48c.797.999.164 2.838.783 4.466.62-1.626-.014-3.467.784-4.468.05-.061.1-.115.156-.166.806-.74 2.03-.048 2.887.807.913.913 1.64 2.246.64 3.043-1 .797-2.84.164-4.467.784 1.627.62 3.467-.015 4.467.783 1 .797.273 2.13-.64 3.042-.913.913-2.246 1.64-3.043.64-.798-1-.164-2.839-.784-4.465-.62 1.626.014 3.465-.783 4.465s-2.129.274-3.043-.64c-.855-.856-1.548-2.08-.806-2.887.048-.054.103-.106.166-.155 1-.798 2.84-.163 4.466-.783-1.626-.62-3.466.014-4.466-.784s-.273-2.13.64-3.043c.572-.57 1.306-1.068 1.97-1.119z"
        class="ColorScheme-Text"/>
</svg>
