<svg xmlns="http://www.w3.org/2000/svg" viewBox="0 0 16 16" id="svg6">
  <defs id="defs3051">
    <style id="current-color-scheme">
      .ColorScheme-Text {
        color:#eff0f1;
      }
	  </style>
	</defs>
  <path style="fill:currentColor;fill-opacity:1;stroke:none" 
        d="M3.623 2.04a1.593 1.593 0 0 0-1.584 1.583v4.754a1.593 1.593 0 0 0 1.584 1.584h2.416v2.416a1.593 1.593 0 0 0 1.584 1.584h4.754a1.593 1.593 0 0 0 1.584-1.584V8.781A1.591 1.591 0 0 0 12.4 7.2l-.024-.002h-1.873l-.543-.545v-1.87A1.591 1.591 0 0 0 8.4 3.198l-.024-.002H6.504l-.629-.63-.268-.266-.261-.262H3.623zM2.566 5.192h6.868v.934l-.088-.088H7.623a1.593 1.593 0 0 0-1.584 1.584v1.81H3.623a1.055 1.055 0 0 1-1.057-1.056V5.193zm5.057 1.373h1.31l.633.633h-.394v.006L9.166 7.2 7.838 8.527H6.566v-.904c0-.585.472-1.057 1.057-1.057zM6.566 9.193h6.868v3.184c0 .585-.472 1.057-1.057 1.057H7.623a1.055 1.055 0 0 1-1.057-1.057V9.193z"
  	    class="ColorScheme-Text"
        />
</svg>
