<?xml version="1.0" encoding="UTF-8" standalone="no"?>
<svg
   xmlns:dc="http://purl.org/dc/elements/1.1/"
   xmlns:cc="http://creativecommons.org/ns#"
   xmlns:rdf="http://www.w3.org/1999/02/22-rdf-syntax-ns#"
   xmlns:svg="http://www.w3.org/2000/svg"
   xmlns="http://www.w3.org/2000/svg"
   xmlns:sodipodi="http://sodipodi.sourceforge.net/DTD/sodipodi-0.dtd"
   xmlns:inkscape="http://www.inkscape.org/namespaces/inkscape"
   viewBox="0 0 16 16"
   id="svg5"
   version="1.1"
   sodipodi:docname="folder-git.svg"
   inkscape:version="0.92.4 (5da689c313, 2019-01-14)">
  <metadata
     id="metadata10">
    <rdf:RDF>
      <cc:Work
         rdf:about="">
        <dc:format>image/svg+xml</dc:format>
        <dc:type
           rdf:resource="http://purl.org/dc/dcmitype/StillImage" />
        <dc:title></dc:title>
      </cc:Work>
    </rdf:RDF>
  </metadata>
  <sodipodi:namedview
     pagecolor="#ffffff"
     bordercolor="#666666"
     borderopacity="1"
     objecttolerance="10"
     gridtolerance="10"
     guidetolerance="10"
     inkscape:pageopacity="0"
     inkscape:pageshadow="2"
     inkscape:window-width="816"
     inkscape:window-height="480"
     id="namedview8"
     showgrid="false"
     inkscape:zoom="14.75"
     inkscape:cx="1.1864407"
     inkscape:cy="8"
     inkscape:window-x="0"
     inkscape:window-y="25"
     inkscape:window-maximized="0"
     inkscape:current-layer="svg5" />
  <defs
     id="defs3051">
    <style
       id="current-color-scheme">
      .ColorScheme-Text {
        color:#eff0f1;
      }
	  </style>
  </defs>
  <path
     style="fill:none;fill-opacity:1;stroke:#eff0f1;stroke-opacity:1"
     d="M3.116 2.179l8.288 7.649m-4.464 2.55V6.002"
     id="path24"
     fill="none"
     stroke="#eff0f1"
     stroke-width="1.275" />
  <path
     d="M6.941 4.09A1.913 1.913 0 0 0 5.03 6.002a1.913 1.913 0 0 0 1.912 1.914 1.913 1.913 0 0 0 1.913-1.914A1.913 1.913 0 0 0 6.94 4.09zm4.463 3.826A1.913 1.913 0 0 0 9.49 9.828a1.913 1.913 0 0 0 1.914 1.912 1.913 1.913 0 0 0 1.912-1.912 1.913 1.913 0 0 0-1.912-1.912zm-4.463 2.549a1.913 1.913 0 0 0-1.912 1.912 1.913 1.913 0 0 0 1.912 1.912 1.913 1.913 0 0 0 1.913-1.912 1.913 1.913 0 0 0-1.913-1.912z"
     class="ColorScheme-Text"
     id="path5"
     style="fill:#eff0f1;fill-opacity:1" />
</svg>
