<svg xmlns="http://www.w3.org/2000/svg" viewBox="0 0 16 16" id="svg6"><defs id="defs3051"><style id="current-color-scheme"></style></defs><path d="M4.424 2.04a2.398 2.398 0 0 0-2.385 2.384v7.152a2.398 2.398 0 0 0 2.385 2.385h7.152a2.398 2.398 0 0 0 2.385-2.385v-5.41a2.395 2.395 0 0 0-2.35-2.38c-.012-.001-.023-.005-.035-.005H8.758l-.947-.947-.403-.402-.392-.393zm0 .794h1.97l.954.951h-.594v.008l-.008-.008-2 2H2.834V4.424c0-.88.71-1.59 1.59-1.59zm-1.59 3.951h10.332v4.791c0 .88-.71 1.59-1.59 1.59H4.424c-.88 0-1.59-.71-1.59-1.59z" id="path835" fill="#bdc3c7"/></svg>