<svg xmlns="http://www.w3.org/2000/svg" viewBox="0 0 16 16" id="svg5">
  <defs id="defs3051">
    <style type="text/css" id="current-color-scheme">
      .ColorScheme-Text {
        color:#eff0f1;
      }
      </style>
  </defs>
    <path 
        style="fill:currentColor;fill-opacity:1;stroke:none" 
        d="M6.713 1.998a4.714 4.714 0 0 0-4.715 4.715 4.714 4.714 0 0 0 4.715 4.715 4.714 4.714 0 0 0 3.016-1.092l3.667 3.666.606-.606-3.67-3.67a4.714 4.714 0 0 0 1.096-3.013 4.714 4.714 0 0 0-4.715-4.715zm0 1.096a3.62 3.62 0 0 1 3.619 3.619 3.62 3.62 0 0 1-3.62 3.619 3.62 3.62 0 0 1-3.62-3.62 3.62 3.62 0 0 1 3.62-3.618z"
        class="ColorScheme-Text"/>
</svg>
