<svg xmlns="http://www.w3.org/2000/svg" viewBox="0 0 22 22" id="svg6">
  <defs id="defs3051">
    <style type="text/css" id="current-color-scheme">
      .ColorScheme-Text {
        color:#232629;
      }
      </style>
  </defs>
 <path 
    style="fill:currentColor;fill-opacity:1;stroke:none" 
    d="M5.58 3.078A2.515 2.515 0 0 0 3.078 5.58v10.84a2.515 2.515 0 0 0 2.502 2.502H13v-.834H5.58a1.664 1.664 0 0 1-1.668-1.668V9.873h2.961v-.008l.008.008 2-2h9.207V13h.834V7.297a2.515 2.515 0 0 0-2.502-2.502h-4.617l-.883-.883-.434-.433-.4-.4H5.58zM16.5 14a2.495 2.495 0 0 0-2.5 2.5c0 .433.118.835.31 1.19l.76-.76a1.488 1.488 0 0 1-.07-.43c0-.831.669-1.5 1.5-1.5.15 0 .293.03.43.07l.76-.76A2.482 2.482 0 0 0 16.5 14zm2.19 1.31l-.76.76c.04.137.07.28.07.43 0 .831-.669 1.5-1.5 1.5-.15 0-.293-.03-.43-.07l-.76.76c.355.192.757.31 1.19.31 1.385 0 2.5-1.115 2.5-2.5 0-.433-.118-.835-.31-1.19z"
    class="ColorScheme-Text"
    />  
</svg>
