<?xml version="1.0" encoding="UTF-8" standalone="no"?>
<!-- Created with Inkscape (http://www.inkscape.org/) -->

<svg
   xmlns:dc="http://purl.org/dc/elements/1.1/"
   xmlns:cc="http://creativecommons.org/ns#"
   xmlns:rdf="http://www.w3.org/1999/02/22-rdf-syntax-ns#"
   xmlns:svg="http://www.w3.org/2000/svg"
   xmlns="http://www.w3.org/2000/svg"
   xmlns:sodipodi="http://sodipodi.sourceforge.net/DTD/sodipodi-0.dtd"
   xmlns:inkscape="http://www.inkscape.org/namespaces/inkscape"
   width="1920"
   height="1080"
   viewBox="0 0 507.99999 285.75001"
   version="1.1"
   id="svg8"
   inkscape:version="0.92.4 5da689c313, 2019-01-14"
   sodipodi:docname="Flat_Earth_Moon_Sun.svg"
   inkscape:export-filename="/home/gauge/Wallpapers/things/Flat_Earth_Moon_Sun.png"
   inkscape:export-xdpi="192"
   inkscape:export-ydpi="192">
  <defs
     id="defs2" />
  <sodipodi:namedview
     id="base"
     pagecolor="#161720"
     bordercolor="#666666"
     borderopacity="1.0"
     inkscape:pageopacity="1"
     inkscape:pageshadow="2"
     inkscape:zoom="0.35355339"
     inkscape:cx="241.33388"
     inkscape:cy="455.38768"
     inkscape:document-units="px"
     inkscape:current-layer="layer2"
     showgrid="false"
     units="px"
     inkscape:window-width="1920"
     inkscape:window-height="1058"
     inkscape:window-x="1440"
     inkscape:window-y="0"
     inkscape:window-maximized="1"
     showguides="true" />
  <metadata
     id="metadata5">
    <rdf:RDF>
      <cc:Work
         rdf:about="">
        <dc:format>image/svg+xml</dc:format>
        <dc:type
           rdf:resource="http://purl.org/dc/dcmitype/StillImage" />
        <dc:title />
      </cc:Work>
    </rdf:RDF>
  </metadata>
  <g
     inkscape:groupmode="layer"
     id="layer2"
     inkscape:label="Layer 1"
     style="display:inline">
    <path
       transform="rotate(-135)"
       style="opacity:1;fill:#ffffff;fill-opacity:1;fill-rule:evenodd;stroke:none;stroke-width:1.32291675;stroke-linecap:round;stroke-linejoin:round;stroke-miterlimit:4;stroke-dasharray:none;stroke-opacity:1;paint-order:normal"
       d="m -279.65819,117.68794 a 5.5685554,5.5685554 0 0 1 -5.56856,5.56856 5.5685554,5.5685554 0 0 1 -5.56855,-5.56856 5.5685554,5.5685554 0 0 1 5.56855,-5.56855 5.5685554,5.5685554 0 0 1 5.56856,5.56855 z"
       id="path845" />
    <path
       style="opacity:1;fill:#aeb5ba;fill-opacity:1;stroke:none;stroke-width:0.26458338px;stroke-linecap:butt;stroke-linejoin:miter;stroke-opacity:1"
       d="m 279.33991,118.2391 c 3.3565,1.17749 4.53528,-2.77835 2.14034,-4.16268 -1.15014,0.89158 -2.05641,2.33215 -2.14034,4.16268 z"
       id="path847"
       inkscape:connector-curvature="0"
       sodipodi:nodetypes="ccc" />
    <circle
       style="opacity:1;fill:#aeb5ba;fill-opacity:1;fill-rule:evenodd;stroke:none;stroke-width:1.32291675;stroke-linecap:round;stroke-linejoin:round;stroke-miterlimit:4;stroke-dasharray:none;stroke-opacity:1;paint-order:normal"
       id="path849"
       cx="-285.19626"
       cy="114.26349"
       r="1.0974525"
       transform="rotate(-135)" />
    <circle
       style="opacity:1;fill:#aeb5ba;fill-opacity:1;fill-rule:evenodd;stroke:none;stroke-width:1.32291675;stroke-linecap:round;stroke-linejoin:round;stroke-miterlimit:4;stroke-dasharray:none;stroke-opacity:1;paint-order:normal"
       id="path851"
       cx="-288.54959"
       cy="114.92399"
       r="0.29468632"
       transform="rotate(-135)" />
    <circle
       style="opacity:1;fill:#aeb5ba;fill-opacity:1;fill-rule:evenodd;stroke:none;stroke-width:1.32291675;stroke-linecap:round;stroke-linejoin:round;stroke-miterlimit:4;stroke-dasharray:none;stroke-opacity:1;paint-order:normal"
       id="path853"
       cx="-288.56992"
       cy="117.89117"
       r="0.52840304"
       transform="rotate(-135)" />
    <circle
       style="opacity:1;fill:#aeb5ba;fill-opacity:1;fill-rule:evenodd;stroke:none;stroke-width:1.32291675;stroke-linecap:round;stroke-linejoin:round;stroke-miterlimit:4;stroke-dasharray:none;stroke-opacity:1;paint-order:normal"
       id="path855"
       cx="-284.03784"
       cy="121.3766"
       r="0.91454369"
       transform="rotate(-135)" />
    <path
       style="opacity:1;fill:#aeb5ba;fill-opacity:1;stroke:none;stroke-width:0.26458338px;stroke-linecap:butt;stroke-linejoin:miter;stroke-opacity:1"
       d="m 290.30933,119.80522 c -2.0384,-1.10401 -1.66056,-2.50367 -0.28449,-3.52277 0.50958,1.19029 0.55983,2.44574 0.28449,3.52277 z"
       id="path824"
       inkscape:connector-curvature="0"
       sodipodi:nodetypes="ccc" />
    <path
       inkscape:connector-curvature="0"
       style="display:inline;opacity:0.666;fill:#4a535d;fill-opacity:1;fill-rule:evenodd;stroke:none;stroke-width:1.32291675;stroke-linecap:round;stroke-linejoin:round;stroke-miterlimit:4;stroke-dasharray:none;stroke-opacity:1;paint-order:normal"
       d="m 288.58708,122.63703 a 6.0780318,6.0780318 0 0 0 0.19018,-0.52142 6.0780318,6.0780318 0 0 0 0.15037,-0.58859 6.0780318,6.0780318 0 0 0 0.091,-0.601 6.0780318,6.0780318 0 0 0 0.0305,-0.60668 6.0780318,6.0780318 0 0 0 -0.0156,-0.42995 6.0780318,6.0780318 0 0 0 -0.0734,-0.60306 6.0780318,6.0780318 0 0 0 -0.13282,-0.59273 6.0780318,6.0780318 0 0 0 -0.19172,-0.57671 6.0780318,6.0780318 0 0 0 -0.24805,-0.55449 6.0780318,6.0780318 0 0 0 -0.30231,-0.5271 6.0780318,6.0780318 0 0 0 -0.35345,-0.49403 6.0780318,6.0780318 0 0 0 -0.40101,-0.45681 6.0780318,6.0780318 0 0 0 -0.44442,-0.41393 6.0780318,6.0780318 0 0 0 -0.48368,-0.36794 6.0780318,6.0780318 0 0 0 -0.51782,-0.31729 6.0780318,6.0780318 0 0 0 -0.54724,-0.26407 6.0780318,6.0780318 0 0 0 -0.57052,-0.20877 6.0780318,6.0780318 0 0 0 -0.58909,-0.14987 6.0780318,6.0780318 0 0 0 -0.6005,-0.0909 6.0780318,6.0780318 0 0 0 -0.60669,-0.0305 6.0780318,6.0780318 0 0 0 -0.42995,0.0155 6.0780318,6.0780318 0 0 0 -0.60304,0.0729 6.0780318,6.0780318 0 0 0 -0.59274,0.13333 6.0780318,6.0780318 0 0 0 -0.45577,0.15089 5.5685554,5.5685554 0 0 0 0.076,7.79384 5.5685554,5.5685554 0 0 0 7.62174,0.22945 z"
       id="path883" />
    <g
       id="g983"
       transform="matrix(0.87787996,0,0,0.87787996,31.02758,17.464496)"
       style="stroke-width:1.13910794">
      <circle
         r="23.816875"
         cy="143.02644"
         cx="254.07416"
         id="path864"
         style="display:inline;opacity:1;fill:#02a4fc;fill-opacity:1;fill-rule:evenodd;stroke:none;stroke-width:1.50694489;stroke-linecap:round;stroke-linejoin:round;stroke-miterlimit:4;stroke-dasharray:none;stroke-opacity:1;paint-order:normal" />
      <path
         sodipodi:nodetypes="cssscsssssscccscc"
         inkscape:connector-curvature="0"
         id="path834"
         d="m 257.02995,153.249 c 0.66936,1.74168 2.43672,2.99038 3.56084,4.57357 0.21057,0.29657 -0.51018,3.50886 -0.90951,4.69636 -0.11172,0.33224 -0.99986,1.07058 -1.68672,0.98332 -1.11295,-0.14137 -1.8503,-0.2557 -2.77812,-1.76054 -0.33048,-0.11402 -0.62527,0.36361 -0.90951,0.23151 -0.5348,-0.24854 -0.85589,-0.8776 -1.42213,-0.9095 -1.14383,-0.0644 -2.34166,1.00212 -3.63802,0.89297 -0.72951,-0.0614 -1.82955,-0.83628 -1.74833,-1.21845 0.2802,-1.31852 -0.83431,-3.56322 -0.0535,-4.28111 0.6115,-0.56222 0.9141,-0.33034 2.38626,-1.04543 0.65704,-0.31914 1.17636,-1.3686 2.67426,-2.40407 0.81988,-0.2147 1.56472,-0.0917 2.2975,0.0855 l -0.1819,1.28985 c 2.41424,0.88363 1.60662,0.035 1.96277,-1.15091 0.0147,-0.0488 0.32075,-0.0181 0.44607,0.0169 z"
         style="opacity:1;fill:#12e689;fill-opacity:1;stroke:none;stroke-width:0.30138898px;stroke-linecap:round;stroke-linejoin:round;stroke-opacity:1" />
      <path
         sodipodi:nodetypes="cccc"
         inkscape:connector-curvature="0"
         id="path836"
         d="m 262.36187,161.75955 c 0.81617,-1.10727 2.88721,-2.08503 3.53389,-3.71011 0.96239,0.0443 1.02342,0.76115 0.86529,1.56686 -1.06935,1.48371 -3.59369,2.20209 -4.39918,2.14325 z"
         style="display:inline;opacity:1;fill:#12e689;fill-opacity:1;stroke:none;stroke-width:0.30138898px;stroke-linecap:round;stroke-linejoin:round;stroke-opacity:1" />
      <path
         sodipodi:nodetypes="ccsc"
         inkscape:connector-curvature="0"
         id="path838"
         d="m 266.78869,157.54462 c 0.0884,-0.62785 0.84344,-1.61399 1.46623,-1.63418 0.73718,0.61214 -0.20561,3.13898 -0.67536,3.1446 -0.25482,0.003 -0.718,-0.99622 -0.79087,-1.51042 z"
         style="display:inline;opacity:1;fill:#12e689;fill-opacity:1;stroke:none;stroke-width:0.30138898px;stroke-linecap:round;stroke-linejoin:round;stroke-opacity:1" />
      <path
         sodipodi:nodetypes="cscsscccccc"
         inkscape:connector-curvature="0"
         id="path850"
         d="m 255.36527,152.03481 c -1.00292,-0.68902 -1.77063,-1.86358 -1.85292,-2.10214 -0.0601,-0.17417 0.1662,-0.52716 0.1662,-0.52716 0,0 0.91487,-0.3059 1.3579,-0.17112 1.1406,0.347 3.337,1.4258 3.65264,1.75862 0.33555,0.35381 0.61472,1.58408 0.61472,1.58408 -0.0515,0.11602 -0.0415,0.25251 -0.0497,0.38295 -0.5516,-0.33407 -0.7964,-0.95839 -1.57564,-1.17808 -0.45108,0.0273 -0.5914,0.18781 -0.74225,0.3438 -0.54834,0.005 -1.16415,0.10633 -1.57092,-0.0909 z"
         style="display:inline;opacity:1;fill:#12e689;fill-opacity:1;stroke:none;stroke-width:0.30138898px;stroke-linecap:round;stroke-linejoin:round;stroke-opacity:1" />
      <path
         sodipodi:nodetypes="csccsc"
         inkscape:connector-curvature="0"
         id="path852"
         d="m 246.5968,150.0463 c 0,0 1.93092,0.73686 2.42674,0.40101 0.42687,-0.28914 0.80201,-2.42259 0.80201,-2.42259 0.005,-0.57742 0.0251,-0.84673 -0.29766,-1.12242 -0.44375,-0.26107 -3.24695,1.38596 -3.41064,1.73013 -0.13474,0.2833 0.18575,0.91778 0.47955,1.41387 z"
         style="display:inline;opacity:1;fill:#12e689;fill-opacity:1;stroke:none;stroke-width:0.30138898px;stroke-linecap:round;stroke-linejoin:round;stroke-opacity:1" />
      <path
         sodipodi:nodetypes="ccccccccscccccccccccccccccccccscccsccccc"
         inkscape:connector-curvature="0"
         id="path858"
         d="m 245.02368,150.29695 c -0.37994,-0.74921 -0.47837,-1.51602 -0.61973,-2.28014 l -1.59025,-1.94105 c 0.0426,-0.42114 -0.0706,-1.02111 0.36248,-0.99391 0.47644,0.28268 0.89143,0.68828 1.27455,1.15761 0.75323,-0.0754 1.10911,-0.86273 1.28623,-1.55517 -0.16006,-0.88531 -1.09464,-1.33934 -0.90036,-2.33861 0.85922,-1.49611 1.66968,-0.39244 3.56638,-0.90036 0.41148,-0.19736 0.92841,-1.56944 1.2883,-2.35557 0.14478,-0.31628 0.0508,-0.5885 0.10317,-0.87171 -0.35718,-0.88478 -0.78095,-1.76955 -1.04068,-2.65433 0.41161,-0.50743 0.81029,-1.0429 1.40316,-1.15761 0.31969,0.23761 0.65495,0.44407 0.90037,0.83021 0.27671,0.52426 0.27829,1.09677 0.56126,1.67796 0.47595,0.0433 0.77051,-0.50291 1.13423,-0.82437 l -0.43265,-1.64872 c 0.34078,-0.45825 0.63537,-0.96269 1.12254,-1.27454 l 1.4967,-0.12862 1.56687,-4.95785 -1.18099,-1.27454 c 2.08447,-2.69439 3.3151,-1.93075 4.82922,-2.31523 1.31614,-0.69054 2.40086,-1.7727 4.08087,-1.8475 -0.35373,0.732 -1.7604,2.47483 -2.82971,3.89379 -0.031,0.7702 0.13012,1.28424 0.28063,1.81242 0.77275,0.23816 1.65056,-1.51999 2.47893,-2.33861 l 0.0234,-1.19269 c 0.55468,-0.70956 1.52315,-0.56066 2.37368,-0.64896 l 1.10842,-0.69793 c -16.97196,-11.23602 -36.09234,1.43457 -37.2447,16.72231 2.06053,0.15882 3.30301,2.08697 4.24981,5.70538 0.34254,0.37557 1.45464,-0.028 1.52385,-0.38184 0.45494,-2.3262 1.25745,-2.89904 3.32368,-4.03222 0.61639,0.62485 0.88762,1.51817 1.24023,2.34818 0.21586,0.30371 0.6327,0.10497 0.95912,0.13229 0.39468,0.79239 0.3759,1.76033 0.49719,2.22653 0.28879,1.10992 0.48267,0.95485 0.63532,1.791 -0.55756,0.0672 -1.72481,-0.8017 -1.84358,-0.57795 -0.12643,0.41781 2.22692,2.70371 3.3073,4.02663 1.39855,0.71497 4.47046,1.37181 4.90148,0.98742 0.20608,-0.59351 -3.06897,-0.61417 -4.19672,-2.1217 z"
         style="display:inline;opacity:1;fill:#12e689;fill-opacity:1;stroke:none;stroke-width:0.30138898px;stroke-linecap:butt;stroke-linejoin:miter;stroke-opacity:1" />
      <path
         sodipodi:nodetypes="ssccccs"
         inkscape:connector-curvature="0"
         id="path860"
         d="m 250.8943,140.04829 c -0.39201,-0.0527 -0.61578,0.6998 -0.74222,1.1275 -0.11983,0.40534 0.5911,1.0937 0.54273,1.1582 h 0.30402 l 0.004,-0.65895 0.25571,-0.51036 c 0,0 0.0201,-1.06482 -0.36375,-1.11639 z"
         style="display:inline;opacity:1;fill:#12e689;fill-opacity:1;stroke:none;stroke-width:0.30138898px;stroke-linecap:butt;stroke-linejoin:miter;stroke-opacity:1" />
      <path
         sodipodi:nodetypes="ccccccccc"
         inkscape:connector-curvature="0"
         id="path862"
         d="m 253.21644,138.8135 c -0.23944,-0.15407 -0.0916,-0.76953 -0.19935,-1.23155 1.22829,-0.78796 2.40824,-1.65143 2.94349,-3.52227 1.05686,-1.39873 0.4735,-4.74466 1.20716,-4.71289 0.81595,0.18715 0.51504,1.20003 0.31419,2.54661 l 0.61185,1.12448 -1.10794,1.10795 c -0.0278,0.83047 0.0687,1.67476 -0.33073,2.46393 -0.26257,0.38917 -2.54553,1.90452 -3.43867,2.22374 z"
         style="display:inline;opacity:1;fill:#12e689;fill-opacity:1;stroke:none;stroke-width:0.30138898px;stroke-linecap:butt;stroke-linejoin:miter;stroke-opacity:1" />
      <path
         inkscape:connector-curvature="0"
         id="path864-7"
         d="m 254.07443,119.19427 a 23.816876,23.816876 0 0 0 -13.30926,4.09071 26.193753,26.193753 0 0 1 1.18441,-0.26562 26.193753,26.193753 0 0 1 2.59882,-0.31574 26.193753,26.193753 0 0 1 1.85311,-0.0656 26.193753,26.193753 0 0 1 2.61483,0.13074 26.193753,26.193753 0 0 1 2.589,0.39119 26.193753,26.193753 0 0 1 2.53679,0.64803 26.193753,26.193753 0 0 1 2.45978,0.89761 26.193753,26.193753 0 0 1 2.35749,1.13895 26.193753,26.193753 0 0 1 2.23243,1.3684 26.193753,26.193753 0 0 1 2.08409,1.58491 26.193753,26.193753 0 0 1 1.91566,1.78439 26.193753,26.193753 0 0 1 1.72805,1.96732 26.193753,26.193753 0 0 1 1.52342,2.12959 26.193753,26.193753 0 0 1 1.30278,2.27117 26.193753,26.193753 0 0 1 1.06918,2.39004 26.193753,26.193753 0 0 1 0.82579,2.4846 26.193753,26.193753 0 0 1 0.57359,2.55489 26.193753,26.193753 0 0 1 0.31525,2.5988 26.193753,26.193753 0 0 1 0.0656,1.85312 26.193753,26.193753 0 0 1 -0.13073,2.61483 26.193753,26.193753 0 0 1 -0.39121,2.58899 26.193753,26.193753 0 0 1 -0.64802,2.53679 26.193753,26.193753 0 0 1 -0.89762,2.4598 26.193753,26.193753 0 0 1 -0.99632,2.06189 23.816876,23.816876 0 0 0 8.3597,-18.08313 23.816876,23.816876 0 0 0 -23.81663,-23.81664 z"
         style="display:inline;opacity:0.45;fill:#2e3b4a;fill-opacity:1;fill-rule:evenodd;stroke:none;stroke-width:1.50694489;stroke-linecap:round;stroke-linejoin:round;stroke-miterlimit:4;stroke-dasharray:none;stroke-opacity:1;paint-order:normal" />
    </g>
    <circle
       style="opacity:1;fill:#ffdd74;fill-opacity:1;fill-rule:evenodd;stroke:none;stroke-width:1.32291675;stroke-linecap:round;stroke-linejoin:round;stroke-miterlimit:4;stroke-dasharray:none;stroke-opacity:1;paint-order:normal"
       id="path935"
       cx="197.98654"
       cy="183.72021"
       r="29.862202" />
  </g>
</svg>
