<?xml version="1.0" encoding="UTF-8" standalone="no"?>
<!-- Created with Inkscape (http://www.inkscape.org/) -->

<svg
   xmlns:dc="http://purl.org/dc/elements/1.1/"
   xmlns:cc="http://creativecommons.org/ns#"
   xmlns:rdf="http://www.w3.org/1999/02/22-rdf-syntax-ns#"
   xmlns:svg="http://www.w3.org/2000/svg"
   xmlns="http://www.w3.org/2000/svg"
   xmlns:sodipodi="http://sodipodi.sourceforge.net/DTD/sodipodi-0.dtd"
   xmlns:inkscape="http://www.inkscape.org/namespaces/inkscape"
   width="1920"
   height="1080"
   viewBox="0 0 507.99997 285.75001"
   version="1.1"
   id="svg8"
   inkscape:version="0.92.4 5da689c313, 2019-01-14"
   sodipodi:docname="Neptune-2.svg"
   inkscape:export-filename="/home/gauge/Wallpapers/Neptune-2.png"
   inkscape:export-xdpi="96"
   inkscape:export-ydpi="96">
  <defs
     id="defs2" />
  <sodipodi:namedview
     id="base"
     pagecolor="#161720"
     bordercolor="#666666"
     borderopacity="1.0"
     inkscape:pageopacity="1"
     inkscape:pageshadow="2"
     inkscape:zoom="0.50000001"
     inkscape:cx="453.24156"
     inkscape:cy="539.28884"
     inkscape:document-units="px"
     inkscape:current-layer="layer1"
     showgrid="false"
     inkscape:window-width="1920"
     inkscape:window-height="1055"
     inkscape:window-x="1440"
     inkscape:window-y="20"
     inkscape:window-maximized="1"
     units="px"
     showguides="true"
     inkscape:guide-bbox="true" />
  <metadata
     id="metadata5">
    <rdf:RDF>
      <cc:Work
         rdf:about="">
        <dc:format>image/svg+xml</dc:format>
        <dc:type
           rdf:resource="http://purl.org/dc/dcmitype/StillImage" />
        <dc:title />
      </cc:Work>
    </rdf:RDF>
  </metadata>
  <g
     inkscape:groupmode="layer"
     id="layer2"
     inkscape:label="Layer 2"
     style="display:inline" />
  <g
     inkscape:label="Layer 1"
     inkscape:groupmode="layer"
     id="layer1"
     transform="translate(0,-11.249989)"
     style="display:inline">
    <g
       id="g835"
       transform="translate(-1.4955556e-5,1.1228125e-4)">
      <path
         inkscape:connector-curvature="0"
         id="path834"
         d="m 227.54169,154.12488 a 26.458336,26.458226 0 0 0 26.45833,26.45822 26.458336,26.458226 0 0 0 26.45834,-26.45822 26.458336,26.458226 0 0 0 -26.45834,-26.45823 26.458336,26.458226 0 0 0 -26.45833,26.45823 z"
         style="opacity:1;fill:#169df2;fill-opacity:1;fill-rule:evenodd;stroke:none;stroke-width:0.02645833;stroke-linecap:butt;stroke-linejoin:round;stroke-miterlimit:4;stroke-dasharray:none;stroke-dashoffset:100;stroke-opacity:1;paint-order:normal" />
      <path
         sodipodi:nodetypes="ccccccc"
         inkscape:connector-curvature="0"
         id="path828"
         transform="matrix(0.26458333,0,0,0.26458333,0,11.249989)"
         d="M 861.4375,523.15039 C 860.48344,528.71626 860.00255,534.35295 860,540 c 0.0356,5.64922 0.54977,11.28527 1.53711,16.84766 75.48622,0 130.96368,-17.70118 197.02539,0 0.954,-5.56523 1.4348,-11.20126 1.4375,-16.84766 -0.035,-5.64987 -0.5496,-11.28658 -1.5371,-16.84961 -61.90671,-16.74172 -130.25169,-0.24068 -197.0254,0 z"
         style="opacity:0.2;fill:#ffffff;fill-opacity:1;fill-rule:evenodd;stroke:none;stroke-width:0.09999999;stroke-linecap:butt;stroke-linejoin:round;stroke-miterlimit:4;stroke-dasharray:none;stroke-dashoffset:100;stroke-opacity:1;paint-order:normal" />
      <path
         sodipodi:nodetypes="ccccccc"
         inkscape:connector-curvature="0"
         id="path836"
         transform="matrix(0.26458333,0,0,0.26458333,0,11.249989)"
         d="M 860.19336,534.54883 C 860.07935,536.36379 860.01488,538.18152 860,540 c 0.0416,1.81856 0.13275,3.63564 0.27344,5.44922 66.934,-1.93335 136.9078,-17.21766 199.53316,0 0.114,-1.81431 0.1785,-3.63139 0.1934,-5.44922 -0.042,-1.81921 -0.1327,-3.63694 -0.2734,-5.45117 -60.49903,-17.85424 -132.69352,-2.29176 -199.53324,0 z"
         style="opacity:0.2;fill:#ffffff;fill-opacity:1;fill-rule:evenodd;stroke:none;stroke-width:0.09999999;stroke-linecap:butt;stroke-linejoin:round;stroke-miterlimit:4;stroke-dasharray:none;stroke-dashoffset:100;stroke-opacity:1;paint-order:normal" />
      <path
         sodipodi:nodetypes="ccccc"
         id="rect943"
         d="m 234.02857,136.81977 c -1.23594,1.42417 -2.31609,2.97639 -3.22203,4.63019 15.76818,-2.36011 30.80196,1.45873 46.41733,0 -0.90838,-1.65416 -1.99114,-3.20639 -3.22978,-4.63019 -13.32124,1.63078 -26.56149,-2.1255 -39.96552,0 z"
         style="opacity:0.18000004;fill:#f5f5f5;fill-opacity:1;fill-rule:evenodd;stroke:none;stroke-width:3.96875;stroke-linecap:round;stroke-linejoin:round;stroke-miterlimit:4;stroke-dasharray:none;stroke-dashoffset:100;stroke-opacity:1;paint-order:normal"
         inkscape:connector-curvature="0" />
      <path
         sodipodi:nodetypes="ccccc"
         id="rect945"
         d="m 231.1104,167.34698 c 1.14862,1.99237 2.55209,3.82648 4.17494,5.45597 12.51592,-0.16928 25.46926,-2.26322 37.43234,0 1.6183,-1.63027 3.01741,-3.46435 4.16202,-5.45597 -14.95153,-1.82941 -30.48555,-0.16389 -45.7693,0 z"
         style="opacity:0.18000004;fill:#f5f5f5;fill-opacity:1;fill-rule:evenodd;stroke:none;stroke-width:3.96875;stroke-linecap:round;stroke-linejoin:round;stroke-miterlimit:4;stroke-dasharray:none;stroke-dashoffset:100;stroke-opacity:1;paint-order:normal"
         inkscape:connector-curvature="0" />
      <ellipse
         rx="1.4379002"
         ry="0.88867122"
         cy="146.04158"
         cx="268.93524"
         id="path839"
         style="opacity:0.175;fill:#ffffff;fill-opacity:1;fill-rule:evenodd;stroke:none;stroke-width:5.82083321;stroke-linecap:round;stroke-linejoin:round;stroke-miterlimit:4;stroke-dasharray:none;stroke-dashoffset:100;stroke-opacity:1;paint-order:normal" />
      <ellipse
         ry="1.6536458"
         rx="2.6756549"
         cy="170.19843"
         cx="240.63853"
         id="path841"
         style="opacity:0.15;fill:#ffffff;fill-opacity:1;fill-rule:evenodd;stroke:none;stroke-width:5.82083321;stroke-linecap:round;stroke-linejoin:round;stroke-miterlimit:4;stroke-dasharray:none;stroke-dashoffset:100;stroke-opacity:1;paint-order:normal" />
      <ellipse
         ry="1.403165"
         rx="2.2703688"
         cy="146.30006"
         cx="240.03474"
         id="path843"
         style="opacity:0.15;fill:#000000;fill-opacity:1;fill-rule:evenodd;stroke:none;stroke-width:5.82083321;stroke-linecap:round;stroke-linejoin:round;stroke-miterlimit:4;stroke-dasharray:none;stroke-dashoffset:100;stroke-opacity:1;paint-order:normal" />
      <ellipse
         ry="1.403165"
         rx="2.2703688"
         cy="136.29552"
         cx="247.8273"
         id="path843-7"
         style="display:inline;opacity:0.15;fill:#ffffff;fill-opacity:1;fill-rule:evenodd;stroke:none;stroke-width:5.82083321;stroke-linecap:round;stroke-linejoin:round;stroke-miterlimit:4;stroke-dasharray:none;stroke-dashoffset:100;stroke-opacity:1;paint-order:normal" />
      <ellipse
         ry="4.2333331"
         rx="8.4666662"
         cy="156.77081"
         cx="264.91406"
         id="path820"
         style="opacity:0.07999998;fill:#000000;fill-opacity:1;fill-rule:evenodd;stroke:none;stroke-width:5.82083321;stroke-linecap:round;stroke-linejoin:round;stroke-miterlimit:4;stroke-dasharray:none;stroke-dashoffset:100;stroke-opacity:1;paint-order:normal" />
      <circle
         r="0.66145831"
         cy="174.97627"
         cx="263.66611"
         id="path875"
         style="opacity:0.15;fill:#000000;fill-opacity:1;fill-rule:evenodd;stroke:none;stroke-width:5.82083321;stroke-linecap:round;stroke-linejoin:round;stroke-miterlimit:4;stroke-dasharray:none;stroke-dashoffset:100;stroke-opacity:1;paint-order:normal" />
    </g>
  </g>
</svg>
