<?xml version="1.0" encoding="UTF-8" standalone="no"?>
<!-- Created with Inkscape (http://www.inkscape.org/) -->

<svg
   xmlns:dc="http://purl.org/dc/elements/1.1/"
   xmlns:cc="http://creativecommons.org/ns#"
   xmlns:rdf="http://www.w3.org/1999/02/22-rdf-syntax-ns#"
   xmlns:svg="http://www.w3.org/2000/svg"
   xmlns="http://www.w3.org/2000/svg"
   xmlns:sodipodi="http://sodipodi.sourceforge.net/DTD/sodipodi-0.dtd"
   xmlns:inkscape="http://www.inkscape.org/namespaces/inkscape"
   width="1920"
   height="1080"
   viewBox="0 0 507.99997 285.75001"
   version="1.1"
   id="svg8"
   inkscape:version="0.92.4 5da689c313, 2019-01-14"
   sodipodi:docname="Neptune-1.svg"
   inkscape:export-filename="/home/gauge/Wallpapers/Neptune-1.png"
   inkscape:export-xdpi="96"
   inkscape:export-ydpi="96">
  <defs
     id="defs2" />
  <sodipodi:namedview
     id="base"
     pagecolor="#161720"
     bordercolor="#666666"
     borderopacity="1.0"
     inkscape:pageopacity="1"
     inkscape:pageshadow="2"
     inkscape:zoom="0.7071068"
     inkscape:cx="838.88042"
     inkscape:cy="367.6812"
     inkscape:document-units="px"
     inkscape:current-layer="layer1"
     showgrid="false"
     inkscape:window-width="1920"
     inkscape:window-height="1055"
     inkscape:window-x="1440"
     inkscape:window-y="20"
     inkscape:window-maximized="1"
     units="px"
     showguides="true"
     inkscape:guide-bbox="true" />
  <metadata
     id="metadata5">
    <rdf:RDF>
      <cc:Work
         rdf:about="">
        <dc:format>image/svg+xml</dc:format>
        <dc:type
           rdf:resource="http://purl.org/dc/dcmitype/StillImage" />
        <dc:title />
      </cc:Work>
    </rdf:RDF>
  </metadata>
  <g
     inkscape:groupmode="layer"
     id="layer2"
     inkscape:label="Layer 2"
     style="display:inline" />
  <g
     inkscape:label="Layer 1"
     inkscape:groupmode="layer"
     id="layer1"
     transform="translate(0,-11.249989)"
     style="display:inline">
    <g
       id="g987"
       transform="matrix(1,0,0,0.99999584,137.2567,33.362917)"
       style="stroke-width:1.00000203">
      <path
         inkscape:connector-curvature="0"
         id="path867-6"
         d="m 90.28499,120.76247 a 26.458336,26.458336 0 0 0 26.45833,26.45833 26.458336,26.458336 0 0 0 26.45834,-26.45833 26.458336,26.458336 0 0 0 -26.45834,-26.45834 26.458336,26.458336 0 0 0 -26.45833,26.45834 z"
         style="opacity:1;fill:#169df2;fill-opacity:1;fill-rule:evenodd;stroke:none;stroke-width:0.02645839;stroke-linecap:butt;stroke-linejoin:round;stroke-miterlimit:4;stroke-dasharray:none;stroke-dashoffset:100;stroke-opacity:1;paint-order:normal" />
      <path
         id="rect906-7"
         transform="matrix(0.26458333,0,0,0.26458333,0,11.249989)"
         d="m 342.42773,399.05664 a 100.00001,100.00001 0 0 0 -1.19335,14.84961 100.00001,100.00001 0 0 0 1.23632,14.84766 H 540.04102 A 100.00001,100.00001 0 0 0 541.23438,413.90625 100.00001,100.00001 0 0 0 540,399.05664 Z"
         style="display:inline;opacity:0.18000004;fill:#ffffff;fill-opacity:1;fill-rule:evenodd;stroke:none;stroke-width:15.00003147;stroke-linecap:round;stroke-linejoin:round;stroke-miterlimit:4;stroke-dasharray:none;stroke-dashoffset:100;stroke-opacity:1;paint-order:normal"
         inkscape:connector-curvature="0" />
      <path
         id="rect906"
         transform="matrix(0.26458333,0,0,0.26458333,0,11.249989)"
         d="m 341.41016,408.95508 a 100.00001,100.00001 0 0 0 -0.17578,4.95117 100.00001,100.00001 0 0 0 0.24804,4.94922 h 199.57617 a 100.00001,100.00001 0 0 0 0.17579,-4.94922 100.00001,100.00001 0 0 0 -0.24805,-4.95117 z"
         style="opacity:0.18000004;fill:#ffffff;fill-opacity:1;fill-rule:evenodd;stroke:none;stroke-width:15.00003147;stroke-linecap:round;stroke-linejoin:round;stroke-miterlimit:4;stroke-dasharray:none;stroke-dashoffset:100;stroke-opacity:1;paint-order:normal"
         inkscape:connector-curvature="0" />
      <path
         id="rect943"
         transform="matrix(0.26458333,0,0,0.26458333,0,11.249989)"
         d="M 365.75195,348.5 A 100.00001,100.00001 0 0 0 353.57422,366 h 175.43555 a 100.00001,100.00001 0 0 0 -12.20704,-17.5 z"
         style="opacity:0.18000004;fill:#000000;fill-opacity:1;fill-rule:evenodd;stroke:none;stroke-width:15.00003147;stroke-linecap:round;stroke-linejoin:round;stroke-miterlimit:4;stroke-dasharray:none;stroke-dashoffset:100;stroke-opacity:1;paint-order:normal"
         inkscape:connector-curvature="0" />
      <path
         id="rect945"
         transform="matrix(0.26458333,0,0,0.26458333,0,11.249989)"
         d="M 354.72266,463.87891 A 100.00001,100.00001 0 0 0 370.50195,484.5 h 141.47657 a 100.00001,100.00001 0 0 0 15.73046,-20.62109 z"
         style="opacity:0.18000004;fill:#000000;fill-opacity:1;fill-rule:evenodd;stroke:none;stroke-width:15.00003147;stroke-linecap:round;stroke-linejoin:round;stroke-miterlimit:4;stroke-dasharray:none;stroke-dashoffset:100;stroke-opacity:1;paint-order:normal"
         inkscape:connector-curvature="0" />
      <path
         id="rect953"
         transform="matrix(0.26458333,0,0,0.26458333,0,11.249989)"
         d="m 403.71875,506.53711 a 100.00001,100.00001 0 0 0 37.51563,7.36914 100.00001,100.00001 0 0 0 37.50195,-7.36914 z"
         style="opacity:0.18000004;fill:#000000;fill-opacity:1;fill-rule:evenodd;stroke:none;stroke-width:15.00003147;stroke-linecap:round;stroke-linejoin:round;stroke-miterlimit:4;stroke-dasharray:none;stroke-dashoffset:100;stroke-opacity:1;paint-order:normal"
         inkscape:connector-curvature="0" />
      <path
         id="rect955"
         transform="matrix(0.26458333,0,0,0.26458333,0,11.249989)"
         d="m 441.23438,313.90625 a 100.00001,100.00001 0 0 0 -36.05274,6.83789 h 72.38477 a 100.00001,100.00001 0 0 0 -36.33203,-6.83789 z"
         style="opacity:0.18000004;fill:#000000;fill-opacity:1;fill-rule:evenodd;stroke:none;stroke-width:15.00003147;stroke-linecap:round;stroke-linejoin:round;stroke-miterlimit:4;stroke-dasharray:none;stroke-dashoffset:100;stroke-opacity:1;paint-order:normal"
         inkscape:connector-curvature="0" />
    </g>
  </g>
</svg>
