<svg xmlns="http://www.w3.org/2000/svg" height="32" width="32">
    <path d="M23.5 3.5H7.921C6.036 3.5 4.5 5.104 4.5 7.073V30.5h19.579c1.885 0 3.421-1.604 3.421-3.573V7.5" fill="#757575" stroke="#757575" stroke-linecap="round" stroke-linejoin="round" stroke-width="1.2" fill-opacity=".05"/>
      <g
      transform="scale(1 1) translate(5 6.3)"
     id="g2522">     <defs>
        <filter id="a" filterUnits="objectBoundingBox" x="0%" y="0%" width="100%" height="100%">
            <feColorMatrix in="SourceGraphic" values="0 0 0 0 1 0 0 0 0 1 0 0 0 0 1 0 0 0 1 0"/>
        </filter>
        <mask id="d">
            <g filter="url(#a)">
                <path fill-opacity=".75" d="M0 0h22v22H0z"/>
            </g>
        </mask>
        <clipPath id="b">
            <path d="M0 0h22v22H0z"/>
        </clipPath>
        <g id="c" clip-path="url(#b)">
            <path d="M4.813 19.25a1.372 1.372 0 0 1-1.375-1.375V4.125c0-.762.613-1.375 1.374-1.375h12.375c.762 0 1.375.613 1.375 1.375v13.75c0 .762-.613 1.375-1.375 1.375zm0-1.375h12.375V4.125H4.813zm1.375-2.75V13.75h9.625v1.375zm0-2.75V11h9.625v1.375zm0-2.75V8.25h9.625v1.375zm0-2.75V5.5h9.625v1.375zm0 0" fill="#1952FE"/>
        </g>
    </defs>
    <use xlink:href="#c" mask="url(#d)"/>
    </g>
</svg>
