<svg xmlns="http://www.w3.org/2000/svg" height="32" width="32">
    <path d="M23.5 3.5H7.921C6.036 3.5 4.5 5.104 4.5 7.073V30.5h19.579c1.885 0 3.421-1.604 3.421-3.573V7.5" fill="#757575" stroke="#757575" stroke-linecap="round" stroke-linejoin="round" stroke-width="1.2" fill-opacity=".05"/>
      <g
      transform="scale(1 1) translate(5 6.3)"
     id="g2522">     <path d="M8.25 2.75V5.5h1.375V2.75zm4.125 0V5.5h1.375V2.75zm5.332 1.367l-1.23 2.07 1.203.688 1.23-2.113zm-13.426.094l-1.16.687 1.274 2.07 1.16-.687zM5.5 6.875l-2.75 2.75L11 19.25l8.25-9.625-2.75-2.75zm.602 1.375h4.21v1.375H4.728zm5.585 0h4.215l1.375 1.375h-5.59zM5.715 11h4.598v5.344zm5.973 0h4.597l-4.598 5.344zm0 0" fill="#7F8080"/>
    </g>
</svg>
