<svg xmlns="http://www.w3.org/2000/svg" height="32" width="32">
    <path d="M23.5 3.5H7.921C6.036 3.5 4.5 5.104 4.5 7.073V30.5h19.579c1.885 0 3.421-1.604 3.421-3.573V7.5" fill="#757575" stroke="#757575" stroke-linecap="round" stroke-linejoin="round" stroke-width="1.2" fill-opacity=".05"/>
      <g
      transform="scale(1 1) translate(5 6.3)"
     id="g2522">     <path d="M2.75 3.438v15.124h16.5V3.438zm1.375 2.75h13.75v11H4.125zm3.848 1.375l2.355 3.742-2.879 4.508h1.63l2.066-3.32 2.062 3.32h1.555c.015-.016.035-.028.05-.04l-2.828-4.468 2.336-3.742h-1.668l-1.511 2.554-1.512-2.555zm0 0" fill="#7F8080"/>
    </g>
</svg>
