<svg xmlns="http://www.w3.org/2000/svg" height="32" width="32">
    <path d="M23.5 3.5H7.921C6.036 3.5 4.5 5.104 4.5 7.073V30.5h19.579c1.885 0 3.421-1.604 3.421-3.573V7.5" fill="#757575" stroke="#757575" stroke-linecap="round" stroke-linejoin="round" stroke-width="1.2" fill-opacity=".05"/>
      <g
      transform="scale(1 1) translate(5 6.3)"
     id="g2522">     <path d="M18.563 19.246l-5.063.004-3.445-4.957s-.555-.93-.899-1.2c-.285-.222-.406-.304-.687-.304h-.64l.003 6.453-4.394.004V2.75H13s3.879.695 3.957 4.43c.086 4.164-3.746 5.386-3.746 5.386.523.211 4.754 5.715 5.351 6.676M10.98 6.328l-3.105-.004-.004 2.805h3.11s1.437-.004 1.437-1.426c0-1.45-1.438-1.375-1.438-1.375" fill-rule="evenodd" fill="#7F8080"/>
    </g>
</svg>
