<svg xmlns="http://www.w3.org/2000/svg" height="32" width="32">
    <path d="M23.5 3.5H7.921C6.036 3.5 4.5 5.104 4.5 7.073V30.5h19.579c1.885 0 3.421-1.604 3.421-3.573V7.5" fill="#757575" stroke="#757575" stroke-linecap="round" stroke-linejoin="round" stroke-width="1.2" fill-opacity=".05"/>
      <g
      transform="scale(1 1) translate(5 6.3)"
     id="g2522">     <path d="M2.75 2.75v16.5h16.5V2.75zm1.375 1.375h5.5V5.5H11V4.125h6.875v13.75H4.125zM11 5.5v1.375h1.375V5.5zm0 1.375H9.625V8.25H11zm0 1.375v1.375h1.375V8.25zm0 1.375H9.625V11H11zM11 11v1.375h1.375V11zm0 1.375H9.625v2.75h2.75V13.75H11zm0 0" fill="#FE1919"/>
    </g>
</svg>
