<svg xmlns="http://www.w3.org/2000/svg" height="32" width="32">
    <path d="M23.5 3.5H7.921C6.036 3.5 4.5 5.104 4.5 7.073V30.5h19.579c1.885 0 3.421-1.604 3.421-3.573V7.5" fill="#757575" stroke="#757575" stroke-linecap="round" stroke-linejoin="round" stroke-width="1.2" fill-opacity=".05"/>
      <g
      transform="scale(1 1) translate(5 6.3)"
     id="g2522">     <path d="M11 2.75a4.116 4.116 0 0 0-4.125 4.125V8.25H8.25V6.875c0-2 1.035-2.75 2.75-2.75s2.75.75 2.75 2.75V11H4.125v8.25h13.75V11h-2.75V6.875A4.116 4.116 0 0 0 11 2.75m-5.5 9.625h11v5.5h-11zm0 0" fill="#FE8C19"/>
    </g>
</svg>
