<svg xmlns="http://www.w3.org/2000/svg" height="32" width="32">
    <path d="M23.5 3.5H7.921C6.036 3.5 4.5 5.104 4.5 7.073V30.5h19.579c1.885 0 3.421-1.604 3.421-3.573V7.5" fill="#757575" stroke="#757575" stroke-linecap="round" stroke-linejoin="round" stroke-width="1.2" fill-opacity=".05"/>
      <g
      transform="scale(1 1) translate(5 6.3)"
     id="g2522">     <path d="M11 2.75c-4.555 0-8.25 1.23-8.25 2.75V11c.004 1.34 2.906 2.484 6.875 2.71v2.79h-2.75v-1.375H2.75v4.125h4.125v-1.375h8.25v1.375h4.125v-4.125h-4.125V16.5h-2.75v-2.79c3.969-.222 6.871-1.37 6.875-2.71V5.5c0-1.52-3.695-2.75-8.25-2.75m0 1.375c3.797 0 6.875.617 6.875 1.375S14.797 6.875 11 6.875 4.125 6.258 4.125 5.5 7.203 4.125 11 4.125m-6.875 2.89C5.648 7.786 8.23 8.25 11 8.25c2.766 0 5.348-.465 6.875-1.234V11c0 .758-3.078 1.375-6.875 1.375S4.125 11.758 4.125 11zm0 9.485H5.5v1.375H4.125zm12.375 0h1.375v1.375H16.5zm0 0" fill="#FF19C5"/>
    </g>
</svg>
