<svg xmlns="http://www.w3.org/2000/svg" height="32" width="32">
    <path d="M23.5 3.5H7.921C6.036 3.5 4.5 5.104 4.5 7.073V30.5h19.579c1.885 0 3.421-1.604 3.421-3.573V7.5" fill="#757575" stroke="#757575" stroke-linecap="round" stroke-linejoin="round" stroke-width="1.2" fill-opacity=".05"/>
      <g
      transform="scale(1 1) translate(5 6.3)"
     id="g2522">     <path d="M2.75 2.75v16.5h16.5V2.75zm1.375 1.375h2.629c.078.219.121.453.121.688a2.066 2.066 0 0 1-2.063 2.062c-.234 0-.468-.043-.687-.121zm4.05 0h9.696v13.75H4.121v-1.078l1.824-1.785 1.934-1.93.777.574 1.516 1.469 3.574-3.297 5.5 5.352-1.375-3.43-4.125-4.125-3.574 3.578L7.972 11l-3.85 3.852V8.18a3.438 3.438 0 0 0 4.125-3.367 3.703 3.703 0 0 0-.075-.688" fill="#FE1919"/>
    </g>
</svg>
