<svg xmlns="http://www.w3.org/2000/svg" height="32" width="32">
    <path d="M23.5 3.5H7.921C6.036 3.5 4.5 5.104 4.5 7.073V30.5h19.579c1.885 0 3.421-1.604 3.421-3.573V7.5" fill="#757575" stroke="#757575" stroke-linecap="round" stroke-linejoin="round" stroke-width="1.2" fill-opacity=".05"/>
      <g
      transform="scale(1 1) translate(5 6.3)"
     id="g2522">     <path d="M2.75 4.125v13.75h8.113V16.5H4.125v-.086l5.371-4.598 1.031 1.032.336.363v-1.918L10.57 11H8.398l-4.273 3.652V6.445l3.2 3.2.476-1.418L5.07 5.5h3.64l.453-1.375zm8.25 0V5.5h5.93l-2.223 2.223-.945 2.836 4.113-4.114v8.207l-4.266-3.644-.457 1.367 4.723 4.043v.086h-6.098l-.457 1.375h7.93V4.129h-.945zm0 0" fill="#FE1952"/>
    </g>
</svg>
