<svg xmlns="http://www.w3.org/2000/svg" height="32" width="32">
    <path d="M23.5 3.5H7.921C6.036 3.5 4.5 5.104 4.5 7.073V30.5h19.579c1.885 0 3.421-1.604 3.421-3.573V7.5" fill="#757575" stroke="#757575" stroke-linecap="round" stroke-linejoin="round" stroke-width="1.2" fill-opacity=".05"/>
      <g
      transform="scale(1 1) translate(5 6.3)"
     id="g2522">     <path d="M11 2.75A8.247 8.247 0 0 0 2.75 11 8.247 8.247 0 0 0 11 19.25 8.247 8.247 0 0 0 19.25 11 8.247 8.247 0 0 0 11 2.75m0 1.375a6.875 6.875 0 1 1 0 13.75 6.875 6.875 0 0 1 0-13.75m0 2.75a4.126 4.126 0 0 0 0 8.25 4.126 4.126 0 0 0 3.297-1.652l-1.102-.825A2.744 2.744 0 0 1 11 13.75a2.749 2.749 0 1 1 0-5.5c.867 0 1.68.406 2.2 1.102l1.097-.825A4.126 4.126 0 0 0 11 6.875" fill="#7F8080"/>
    </g>
</svg>
