<svg xmlns="http://www.w3.org/2000/svg" height="32" width="32">
    <path d="M23.5 3.5H7.921C6.036 3.5 4.5 5.104 4.5 7.073V30.5h19.579c1.885 0 3.421-1.604 3.421-3.573V7.5" fill="#757575" stroke="#757575" stroke-linecap="round" stroke-linejoin="round" stroke-width="1.2" fill-opacity=".05"/>
      <g
      transform="scale(1 1) translate(5 6.3)"
     id="g2522">     <path d="M2.75 4.125v3.05c.73.005 2.02 0 2.75 0v7.638H2.75v3.039c2.902.015 5.332.015 8.25.015v-3.055H8.25v-2.34l3.422.028c.226 0 1.203.074 1.515 1.5.098.441.313 1.867.458 2.328.148.512.742 1.543 1.375 1.543 1.363-.012 2.957.004 4.226.004V14.23a1.354 1.354 0 0 1-.613.22c-.496.062-1.047-.24-1.117-.587-.29-1.883-.782-2.289-1.551-2.98.957-.695 1.953-1.723 1.953-3.094 0-1.48-.887-2.414-1.496-2.871-.852-.64-1.79-.785-2.043-.785-3.89.023-7.79 0-11.633 0zm5.5 3.05h4.125c.168 0 1.375.419 1.375 1.278 0 .715-.926 1.102-1.559 1.102L8.25 9.53zm0 0" fill="#198CFE"/>
    </g>
</svg>
