<svg xmlns="http://www.w3.org/2000/svg" height="32" width="32">
    <path d="M23.5 3.5H7.921C6.036 3.5 4.5 5.104 4.5 7.073V30.5h19.579c1.885 0 3.421-1.604 3.421-3.573V7.5" fill="#757575" stroke="#757575" stroke-linecap="round" stroke-linejoin="round" stroke-width="1.2" fill-opacity=".05"/>
      <g
      transform="scale(1 1) translate(5 6.3)"
     id="g2522">     <path d="M11 2.75A8.252 8.252 0 0 0 2.75 11 8.252 8.252 0 0 0 11 19.25a8.221 8.221 0 0 0 5.828-2.422l-.969-.969A6.871 6.871 0 0 1 4.125 11a6.871 6.871 0 1 1 11.734-4.86l.97-.968A8.221 8.221 0 0 0 11 2.75zm0 0" fill-rule="evenodd" fill="#19C5FE"/>
    </g>
</svg>
