<svg xmlns="http://www.w3.org/2000/svg" height="32" width="32">
    <path d="M23.5 3.5H7.921C6.036 3.5 4.5 5.104 4.5 7.073V30.5h19.579c1.885 0 3.421-1.604 3.421-3.573V7.5" fill="#757575" stroke="#757575" stroke-linecap="round" stroke-linejoin="round" stroke-width="1.2" fill-opacity=".05"/>
      <g
      transform="scale(1 1) translate(5 6.3)"
     id="g2522">     <path d="M6.875 2.75v16.5H8.25v-4.813A3.428 3.428 0 0 1 11.688 11a3.428 3.428 0 0 1 3.437 3.438v4.812H16.5v-4.813a4.8 4.8 0 0 0-4.813-4.812 4.783 4.783 0 0 0-3.437 1.45V2.753zm0 0" fill="#FF19C5"/>
    </g>
</svg>
