<svg xmlns="http://www.w3.org/2000/svg" height="32" width="32">
    <path d="M23.5 3.5H7.921C6.036 3.5 4.5 5.104 4.5 7.073V30.5h19.579c1.885 0 3.421-1.604 3.421-3.573V7.5" fill="#757575" stroke="#757575" stroke-linecap="round" stroke-linejoin="round" stroke-width="1.2" fill-opacity=".05"/>
      <g
      transform="scale(1 1) translate(5 6.3)"
     id="g2522">     <path d="M6.875 4.125v2.75h2.75v-2.75zm4.125 0v2.75h2.75v-2.75zM4.125 8.25V11h2.75V8.25zm4.125 0V11H11V8.25zm4.125 0V11h2.75V8.25zm4.715.32c-.73.5-.906 1.407-.676 2.266.23.851.813 1.469 1.695 1.539a2.085 2.085 0 0 0 1.97 1.395c.886 0 1.675-.56 1.968-1.395a2.09 2.09 0 0 0-1.969-1.395 2.132 2.132 0 0 0-1.183.372c.14-.399.16-.832.05-1.239A2.093 2.093 0 0 0 17.09 8.57zm1.02 3.805H1.374c0 4.621 3.746 6.973 8.367 6.973s8.367-2.352 8.367-6.973zm-13.266.93a1.148 1.148 0 1 1 .001 2.295 1.148 1.148 0 0 1-.001-2.295zm0 0" fill="#19C5FE"/>
    </g>
</svg>
