<svg xmlns="http://www.w3.org/2000/svg" height="32" width="32">
    <path d="M23.5 3.5H7.921C6.036 3.5 4.5 5.104 4.5 7.073V30.5h19.579c1.885 0 3.421-1.604 3.421-3.573V7.5" fill="#757575" stroke="#757575" stroke-linecap="round" stroke-linejoin="round" stroke-width="1.2" fill-opacity=".05"/>
      <g
      transform="scale(1 1) translate(5 6.3)"
     id="g2522">     <path d="M2.527 2.844v16.5h16.5v-16.5zm1.375 1.375h13.75v13.75H3.902zm1.375 2.75v2.75h2.75v-2.75zm8.25 0v2.75h2.75v-2.75zm-5.5 5.5v1.375h5.5v-1.375zm5.5 1.375v1.375h1.375v-1.375zm1.375 1.375v1.375h1.375v-1.375zm-6.875-1.375H6.652v1.375h1.375zm-1.375 1.375H5.277v1.375h1.375zm0 0" fill="#FE1919"/>
    </g>
</svg>
