<svg xmlns="http://www.w3.org/2000/svg" viewBox="0 0 22 22" id="svg6">
  <defs id="defs3051">
    <style type="text/css" id="current-color-scheme">
      .ColorScheme-Text {
        color:#eff0f1
      }
      </style>
  </defs>
    <path
       style="fill:currentColor;fill-opacity:1;stroke:none" 
       d="M11 3a8 8 0 0 0-8 8 8 8 0 0 0 8 8 8 8 0 0 0 8-8 8 8 0 0 0-8-8zm0 .8a7.2 7.2 0 0 1 7.2 7.2 7.2 7.2 0 0 1-7.2 7.2A7.2 7.2 0 0 1 3.8 11 7.2 7.2 0 0 1 11 3.8zM7 7.716v6.4h1.6v-3.878l1.825 1.828.575.55.575-.55 1.825-1.828v3.878H15v-6.4h-1.375L11 10.338 8.375 7.716z"
       class="ColorScheme-Text" />
</svg>
