<svg xmlns="http://www.w3.org/2000/svg" viewBox="0 0 22 22">
  <defs id="defs3051">
    <style type="text/css" id="current-color-scheme">
      .ColorScheme-Text {
        color:#eff0f1;
      }
      </style>
  </defs>
    <path 
        style="opacity:1;fill:currentColor;fill-opacity:1;stroke:none" 
        d="M4.95 3.078A1.88 1.88 0 0 0 3.077 4.95v8.102a1.88 1.88 0 0 0 1.871 1.87h2.13v2.13a1.88 1.88 0 0 0 1.87 1.87h8.102a1.88 1.88 0 0 0 1.87-1.87v-6.819a1.88 1.88 0 0 0-1.87-1.87h-2.13v-2.13a1.88 1.88 0 0 0-1.87-1.87H9.6l-.66-.66-.325-.325-.299-.299H4.95zm0 .623h2.927l.72.72-3.003 2.99H3.7V4.948c0-.69.557-1.248 1.248-1.248zm2.466 2.961h6.883v1.7h-.7l-.66-.66-.324-.325-.299-.299H8.95A1.88 1.88 0 0 0 7.08 8.95v5.35h-2.13a1.244 1.244 0 0 1-1.248-1.248V8.158h2.213v-.006l.006.006 1.496-1.496zm1.533 1.04h2.928l.72.72-3.003 2.988H7.7V8.95c0-.692.557-1.249 1.248-1.249zm2.467 2.96h6.883v6.389c0 .69-.557 1.248-1.248 1.248H8.949a1.244 1.244 0 0 1-1.248-1.248v-4.893h2.213v-.006l.006.006 1.496-1.496z"
        class="ColorScheme-Text"/>
</svg>
