<svg xmlns="http://www.w3.org/2000/svg" viewBox="0 0 22 22" id="svg6">
  <defs id="defs3051">
    <style type="text/css" id="current-color-scheme">
      .ColorScheme-Text {
        color:#eff0f1;
      }
      </style>
  </defs>
    <path 
        style="opacity:1;fill:currentColor;fill-opacity:1;stroke:none" 
        d="M11 2.972a8.226 8.226 0 0 0-8.228 8.227c0 3.638 2.361 6.723 5.628 7.818.411.065.543-.19.543-.412v-1.39c-2.28.493-2.765-1.103-2.765-1.103-.378-.955-.914-1.21-.914-1.21-.748-.51.058-.493.058-.493.823.057 1.26.847 1.26.847.715 1.25 1.924.88 2.394.683.073-.535.287-.897.518-1.102-1.827-.206-3.744-.914-3.744-4.05 0-.912.313-1.644.848-2.23-.083-.204-.37-1.061.082-2.171 0 0 .691-.222 2.263.839A7.765 7.765 0 0 1 11 6.954c.7 0 1.407.09 2.056.27 1.572-1.06 2.264-.838 2.264-.838.452 1.11.164 1.967.082 2.172.535.585.847 1.317.847 2.23 0 3.144-1.925 3.834-3.76 4.04.296.256.567.757.567 1.522v2.255c0 .222.132.486.552.412 3.266-1.103 5.62-4.18 5.62-7.818A8.229 8.229 0 0 0 11 2.97zm0 0"
        class="ColorScheme-Text"/>
</svg>
