<svg version="1.1" viewBox="0 0 22 22" xmlns="http://www.w3.org/2000/svg">
    <style type="text/css" id="current-color-scheme">
        .ColorScheme-Text {
            color:#eff0f1;
        }
    </style>
    <path d="M 8 3 L 8 5 L 4 5 L 4 6 L 5 6 L 5 12 L 5 16 C 5 17.662 6.338 19 8 19 L 14 19 C 15.662 19 17 17.662 17 16 L 17 12 L 17 6 L 18 6 L 18 5 L 14 5 L 14 3 L 8 3 z M 9 4 L 13 4 L 13 5 L 9 5 L 9 4 z M 8 9 L 9 9 L 9 12 L 9 15 L 8 15 L 8 12 L 8 9 z M 13 9 L 14 9 L 14 12 L 14 15 L 13 15 L 13 12 L 13 9 z " class="ColorScheme-Text" fill="currentColor"/>
</svg>
