#define down1_12_width 12
#define down1_12_height 12
static unsigned char down1_12_bits[] = {
   0x00, 0x00, 0x00, 0x00, 0x00, 0x00, 0x04, 0x06, 0x0e, 0x07, 0x9c, 0x03,
   0xf8, 0x01, 0xf0, 0x00, 0x60, 0x00, 0x00, 0x00, 0x00, 0x00, 0x00, 0x00 };
