<svg xmlns="http://www.w3.org/2000/svg" xmlns:xlink="http://www.w3.org/1999/xlink" width="32" height="32"><defs><linearGradient id="b"><stop offset="0" stop-color="#fff"/><stop offset="1" stop-color="#fff" stop-opacity=".488"/></linearGradient><linearGradient id="e"><stop offset="0"/><stop offset="1" stop-opacity="0"/></linearGradient><linearGradient id="d"><stop stop-color="#127bdc"/><stop offset="1" stop-color="#64b4f4"/></linearGradient><linearGradient xlink:href="#a" id="g" gradientUnits="userSpaceOnUse" x1="396.571" y1="498.798" x2="426.571" y2="511.798" gradientTransform="matrix(.4615 0 0 .4615 -176.18 798.247)"/><linearGradient id="a"><stop offset="0" stop-color="#f5f5f5"/><stop offset="1" stop-color="#f9f9f9"/></linearGradient><linearGradient id="c"><stop offset="0" stop-color="#1d5e8c"/><stop offset="1" stop-color="#2675a7"/></linearGradient><linearGradient xlink:href="#b" id="h" gradientUnits="userSpaceOnUse" gradientTransform="matrix(.4615 0 0 .4615 -178.18 3145.014)" x1="390.571" y1="498.298" x2="442.571" y2="498.298"/><linearGradient gradientTransform="matrix(.4615 0 0 .4615 -176.18 798.324)" xlink:href="#c" id="f" x1="388.571" y1="487.798" x2="416.571" y2="507.798" gradientUnits="userSpaceOnUse"/><linearGradient xlink:href="#d" id="i" x1="59.907" y1="30.665" x2="44.215" y2="3.879" gradientUnits="userSpaceOnUse" gradientTransform="translate(-40 1020.362)"/><linearGradient xlink:href="#e" id="j" gradientUnits="userSpaceOnUse" gradientTransform="matrix(.4615 0 0 .4615 -186.795 798.631)" x1="430.51" y1="501.608" x2="452.873" y2="527.82"/></defs><g transform="translate(0 -1020.362)"><path d="M4.713 1022.362A3.704 3.704 0 0 0 1 1026.075v17.807a3.706 3.706 0 0 0 3.713 3.715h2.78c.2.034.403.062.614.062h19.18a3.706 3.706 0 0 0 3.713-3.715v-15.87a3.704 3.704 0 0 0-3.713-3.712H16l-2-2H7.687z" fill="url(#f)"/><path d="M29.791 1025.362a3.688 3.688 0 0 0-1.057-.709 3.716 3.716 0 0 0-1.447-.29H16l-2-2 1 3h2z" opacity=".3" fill="#fff" fill-rule="evenodd"/><rect ry=".667" rx=".667" y="1027.362" x="2" height="8" width="28" style="isolation:auto;mix-blend-mode:normal;marker:none" color="#000" overflow="visible" fill="url(#g)"/><path style="isolation:auto;mix-blend-mode:normal;marker:none" d="M2.666 1027.362a.664.664 0 0 0-.666.666v1c0-.37.297-.666.666-.666h26.668c.37 0 .666.297.666.666v-1a.664.664 0 0 0-.666-.666z" color="#000" overflow="visible" opacity=".85" fill="url(#h)"/><path d="M13 1031.362l-2 1H5.162A4.153 4.153 0 0 0 1 1036.524v9.698c0 .074.018.142.021.214v.022a3.916 3.916 0 0 0 3.915 3.924H27.074c.034 0 .062-.019.096-.02a3.903 3.903 0 0 0 3.83-3.904V1035.288a3.917 3.917 0 0 0-3.926-3.926z" fill="url(#i)" fill-rule="evenodd" stroke-width=".823" stroke-linejoin="round"/><path d="M13 1031.362l-1 2H2.54c-.1.083-.232.125-.323.217-.17.17-.264.4-.403.598L17 1049.362h12.639c.074-.065.174-.098.244-.168a3.886 3.886 0 0 0 1.117-2.736v-11.17a3.919 3.919 0 0 0-3.926-3.926z" opacity=".099" fill="url(#j)" fill-rule="evenodd"/><path d="M13 1031.362l-2 1H5.162c-.576 0-1.125.116-1.623.326-.377.16-.69.417-1 .674H12z" opacity=".3" fill="#fff" fill-rule="evenodd"/><path style="isolation:auto;mix-blend-mode:normal;marker:none" d="M2.066 1049.085c.04.043.057.105.098.146a3.919 3.919 0 0 0 2.772 1.15H27.074c.034 0 .062-.017.096-.018a3.916 3.916 0 0 0 2.713-1.168c.038-.04.055-.096.092-.137z" color="#000" overflow="visible" opacity=".3" stroke-width="1.266"/></g></svg>