<svg xmlns="http://www.w3.org/2000/svg" width="64" height="64" viewBox="0 0 16.933 16.933"><g fill="none" stroke-linecap="round" stroke-linejoin="round"><path d="M6.84 8.31a1.953 1.953 0 0 1 1.884 2.01 1.953 1.953 0 0 1-2.002 1.894 1.953 1.953 0 0 1-1.904-1.992 1.953 1.953 0 0 1 1.983-1.914" stroke="#ff3f5c" stroke-width="1.323"/><path d="M6.84 8.31a1.953 1.953 0 0 1 1.884 2.01 1.953 1.953 0 0 1-2.002 1.894 1.953 1.953 0 0 1-1.904-1.992 1.953 1.953 0 0 1 1.983-1.914m-.072-2.216a4.17 4.17 0 0 1 3 1.231 4.17 4.17 0 0 1 1.211 3.01M6.852 4.065a6.197 6.197 0 0 1 6.116 6.176" stroke="#ff5608" stroke-width="1.323"/><path d="M15.477 4.54l-.029 9.356c0 .217-.004.438-.056.649a1.223 1.223 0 0 1-.312.566 1.218 1.218 0 0 1-.566.313 2.658 2.658 0 0 1-.65.056H3.04c-.219 0-.44-.003-.651-.056a1.219 1.219 0 0 1-.566-.312 1.219 1.219 0 0 1-.311-.566 2.67 2.67 0 0 1-.057-.65V3.07c0-.219.003-.44.057-.65a1.21 1.21 0 0 1 .311-.567c.154-.154.354-.26.566-.312.211-.053.432-.056.65-.056h9.506" stroke="#ff6c01" stroke-width="1.32332148"/></g></svg>