<svg xmlns="http://www.w3.org/2000/svg" width="64" height="64" viewBox="0 0 16.933 16.933"><path d="M11.685 15.294c-.33-1.465-.314-1.3-.717-2.356-.261-.623-.775-1.093-1.041-1.71-.387-.762-.702-1.626-.546-2.49.087-.356.3-.69.616-.875.375.47.815.892 1.313 1.225.364.24.767.425 1.192.518.131.549.711.954 1.264.835.447-.056.899-.23 1.221-.556.419-.516.343-1.31-.053-1.816-.227-.316-.447-.643-.577-1.013-.51-1.09-1.021-2.2-1.796-3.126-.142-.253-.147-.553-.198-.831-.056-.508.035-1.041.298-1.476.041-.163-.19-.278-.295-.15-.117.075-.265.201-.356.256.096-.328.317-.589.553-.822L12.4.95c-.337.092-.68.207-.946.447-.453.349-.929.702-1.227 1.205-2.078-.46-4.341.25-5.852 1.757l-.357.337 1.834.635c-.835.458-3.924 2.761-3.892 3.34 4.087-.102-.187 6.455 7.316 7.504" fill="none" stroke="#8200b7" stroke-width="1.323" stroke-linecap="round" stroke-linejoin="round"/></svg>