<svg xmlns="http://www.w3.org/2000/svg" width="64" height="64" viewBox="0 0 16.933 16.933"><defs><linearGradient id="a"><stop offset="0" stop-color="#29da84"/><stop offset="1" stop-color="#61ec5f"/></linearGradient></defs><path d="M7.144 10.848c-.53.921-1.568 1.507-2.525 1.68-.505.09-1.032.004-1.51-.184a3.413 3.413 0 0 1-1.265-.88C1.141 10.691.783 9.618.783 8.558h0c0-1.06.358-2.134 1.061-2.905a3.413 3.413 0 0 1 1.264-.881A2.989 2.989 0 0 1 4.62 4.59c.934.134 1.758.733 2.37 1.475.614.741 1.043 1.622 1.466 2.494.424.871.853 1.752 1.466 2.493.613.742 1.437 1.341 2.37 1.475a2.989 2.989 0 0 0 1.512-.183 3.413 3.413 0 0 0 1.264-.88c.703-.772 1.061-1.845 1.061-2.905 0-1.06-.358-2.134-1.061-2.905a3.413 3.413 0 0 0-1.264-.881 2.989 2.989 0 0 0-1.511-.183c-.934.134-1.758.733-2.371 1.475" fill="none" stroke="#45e492" stroke-width="1.3229" stroke-linecap="round"/><path d="M11.332 8.745h2.646M3.018 8.794h2.646M12.655 7.422v2.645" fill="none" stroke="#c03ebb" stroke-width="1.323" stroke-linecap="round" stroke-linejoin="round"/></svg>