<svg xmlns="http://www.w3.org/2000/svg" xmlns:xlink="http://www.w3.org/1999/xlink" version="1.1" id="svg12" width="64" height="64"><defs id="defs8"><linearGradient id="a"><stop offset="0" stop-color="#ffd900" id="stop2"/><stop offset="1" stop-color="#ff000a" id="stop4"/></linearGradient><linearGradient xlink:href="#a" id="b" gradientUnits="userSpaceOnUse" x1="14.002" y1="23.995" x2="34.001" y2="23.995" gradientTransform="matrix(2.11747 0 0 2.11064 -17.039 -19.211)"/><linearGradient gradientTransform="translate(-71.795 -19.28) scale(1.4928)" y2="23.995" x2="34.001" y1="23.995" x1="14.002" gradientUnits="userSpaceOnUse" id="b-3" xlink:href="#a"/><linearGradient id="linearGradient4461"><stop offset="0" id="stop4463" stop-color="#000" stop-opacity=".914"/><stop offset="1" id="stop4465" stop-color="#000" stop-opacity="0"/></linearGradient><linearGradient id="linearGradient4455"><stop offset="0" id="stop4457" stop-color="#dbdbdb" stop-opacity="1"/><stop offset="1" id="stop4459" stop-color="#fff" stop-opacity=".996"/></linearGradient><linearGradient id="linearGradient4369"><stop id="stop4371" offset="0" stop-color="#909090" stop-opacity="1"/><stop id="stop4373" offset="1" stop-color="#bbb" stop-opacity=".996"/></linearGradient><linearGradient id="linearGradient4272"><stop id="stop4274" offset="0" stop-color="#fb7600" stop-opacity="1"/><stop id="stop4276" offset="1" stop-color="#ffb00f" stop-opacity="1"/></linearGradient><linearGradient id="linearGradient4214"><stop id="stop4216" offset="0" stop-color="#fff" stop-opacity="1"/><stop id="stop4218" offset="1" stop-color="#fff" stop-opacity="0"/></linearGradient><linearGradient x1="428.816" gradientTransform="translate(-384.57 -499.8)" gradientUnits="userSpaceOnUse" x2="388.865" y2="499.679" y1="547.634" id="a-3"><stop id="stop7" stop-color="#2a2c2f"/><stop id="stop9" stop-color="#536161" offset="1"/></linearGradient><linearGradient x1="36" gradientUnits="userSpaceOnUse" x2="14" y2="12" y1="44" id="b-6"><stop id="stop12" stop-color="#bfc9c9" stop-opacity="1"/><stop id="stop14" stop-color="#fbfbfb" offset="1" stop-opacity="1"/></linearGradient><linearGradient gradientTransform="translate(-384.57 -499.8)" gradientUnits="userSpaceOnUse" x2="419.974" y2="539.825" x1="418.57" y1="529.8" id="c"><stop id="stop17" stop-color="#292c2f"/><stop id="stop19" stop-opacity="0" offset="1"/></linearGradient><style type="text/css" id="current-color-scheme"/><linearGradient gradientUnits="userSpaceOnUse" y2="27.5" x2="28.5" y1="3" x1="15.25" id="linearGradient4220" xlink:href="#linearGradient4214"/><linearGradient gradientTransform="translate(-404.99 -523.8)" gradientUnits="userSpaceOnUse" x2="419.974" y2="539.825" x1="406.501" y1="527.014" id="c-6"><stop id="stop17-7" stop-color="#292c2f"/><stop id="stop19-5" stop-opacity="0" offset="1"/></linearGradient><linearGradient gradientTransform="translate(6.243 -2)" gradientUnits="userSpaceOnUse" y2="36.243" x2="25.024" y1="15.257" x1="20.279" id="linearGradient4304" xlink:href="#linearGradient4461"/><style type="text/css" id="current-color-scheme-6"/><style type="text/css" id="current-color-scheme-7"/><style type="text/css" id="current-color-scheme-5"/><linearGradient gradientTransform="translate(-107.895 -15.107)" gradientUnits="userSpaceOnUse" y2="6.765" x2="15.496" y1="32.021" x1="31.46" id="linearGradient4278" xlink:href="#linearGradient4272"/><linearGradient gradientTransform="translate(-2.25)" gradientUnits="userSpaceOnUse" y2="31.744" x2="10.161" y1="41.378" x1="14.709" id="linearGradient4375" xlink:href="#linearGradient4455"/><linearGradient gradientTransform="translate(-.5)" y2="30.948" x2="20.856" y1="42.439" x1="28.055" gradientUnits="userSpaceOnUse" id="linearGradient4400" xlink:href="#linearGradient4455"/><linearGradient gradientUnits="userSpaceOnUse" y2="31.744" x2="10.161" y1="41.378" x1="14.709" id="linearGradient4375-0" xlink:href="#linearGradient4369" gradientTransform="translate(-9.229 -32.78)"/><linearGradient gradientTransform="translate(1.25)" y2="31.832" x2="32.965" y1="41.466" x1="39.192" gradientUnits="userSpaceOnUse" id="linearGradient4435" xlink:href="#linearGradient4455"/><linearGradient id="a-7"><stop id="stop887" stop-color="#ff9b00" offset="0"/><stop id="stop889" stop-color="#ff1200" offset="1"/></linearGradient><linearGradient gradientUnits="userSpaceOnUse" y2="14.847" x2="30.393" y1="38.644" x1="18.624" id="b-5" xlink:href="#a-7" gradientTransform="matrix(1.239 0 0 1.26487 3.147 1.294)"/></defs><path d="M40.341 52.638c-.156.44-.434.266-2.815 2.252-3.403 2.838-4.561 3.61-5.418 3.61-.843 0-1.956-.715-4.918-3.157-2.105-1.736-3.379-2.486-3.71-2.896m-7.82-7.457c-2.21-2.48-3.649-5.27-3.654-7.09-.002-.646.29-1.977.648-2.957l.652-1.782-5.195-5.388c-4.417-4.58-5.194-5.551-5.188-6.481.006-.853 1.183-2.656 5.332-8.173 4.602-6.12 5.466-7.094 6.37-7.184.576-.057 2.81.284 4.967.758l3.92.862 3.769-1.027c2.073-.566 4.24-1.028 4.818-1.028.576 0 2.747.463 4.823 1.029l3.775 1.029 3.564-.843c4.56-1.077 5.652-1.084 6.523-.04.376.449 2.808 3.675 5.406 7.17 3.635 4.888 4.726 6.605 4.733 7.447.008.93-.766 1.897-5.185 6.48l-5.194 5.386.65 1.399c.84 1.805.82 4.462-.049 6.45-.376.862-1.656 2.618-2.843 3.903-1.713 1.853-2.376 2.335-3.206 2.335-1.61 0-8.836-4.365-11.747-7.097l-1.433-1.344-.957.998c-2.274 2.372-10.589 7.443-12.203 7.443-.883 0-1.462-.422-3.097-2.255zm2.292-26.965c.197.126 2.158.258 4.36.294 3.56.057 4.083.148 4.74.831.727.756.73.815.184 3.84-.753 4.173-.714 5.794.166 6.957 1.148 1.515 4.276 2.107 6.994 1.323 1.41-.407 2.574-1.57 2.88-2.874.113-.483-.023-2.117-.302-3.63-.666-3.62-.647-5.266.07-5.885.405-.349 1.837-.524 4.784-.585 4.01-.083 4.272-.602 4.272-.602" id="path875" fill="none" stroke="#ff4100" stroke-width="5" stroke-linecap="round" stroke-linejoin="round" stroke-miterlimit="4" stroke-dasharray="none" stroke-opacity="1"/></svg>