<?xml version="1.0" encoding="UTF-8" standalone="no"?>
<svg
   xmlns:dc="http://purl.org/dc/elements/1.1/"
   xmlns:cc="http://creativecommons.org/ns#"
   xmlns:rdf="http://www.w3.org/1999/02/22-rdf-syntax-ns#"
   xmlns:svg="http://www.w3.org/2000/svg"
   xmlns="http://www.w3.org/2000/svg"
   xmlns:xlink="http://www.w3.org/1999/xlink"
   xmlns:sodipodi="http://sodipodi.sourceforge.net/DTD/sodipodi-0.dtd"
   xmlns:inkscape="http://www.inkscape.org/namespaces/inkscape"
   width="64"
   height="64"
   viewBox="0 0 16.933 16.933"
   version="1.1"
   id="svg12"
   sodipodi:docname="chromium.svg"
   inkscape:version="0.92.4 5da689c313, 2019-01-14">
  <metadata
     id="metadata18">
    <rdf:RDF>
      <cc:Work
         rdf:about="">
        <dc:format>image/svg+xml</dc:format>
        <dc:type
           rdf:resource="http://purl.org/dc/dcmitype/StillImage" />
      </cc:Work>
    </rdf:RDF>
  </metadata>
  <defs
     id="defs16">
    <linearGradient
       inkscape:collect="always"
       id="linearGradient852">
      <stop
         style="stop-color:#026cff;stop-opacity:1;"
         offset="0"
         id="stop848" />
      <stop
         style="stop-color:#02a2ff;stop-opacity:1"
         offset="1"
         id="stop850" />
    </linearGradient>
    <linearGradient
       inkscape:collect="always"
       xlink:href="#linearGradient852"
       id="linearGradient854"
       x1="0.79403364"
       y1="8.4662893"
       x2="16.139881"
       y2="8.4662893"
       gradientUnits="userSpaceOnUse" />
  </defs>
  <sodipodi:namedview
     pagecolor="#ffffff"
     bordercolor="#666666"
     borderopacity="1"
     objecttolerance="10"
     gridtolerance="10"
     guidetolerance="10"
     inkscape:pageopacity="0"
     inkscape:pageshadow="2"
     inkscape:window-width="1366"
     inkscape:window-height="698"
     id="namedview14"
     showgrid="false"
     inkscape:zoom="3.6875"
     inkscape:cx="1.220339"
     inkscape:cy="32"
     inkscape:window-x="0"
     inkscape:window-y="24"
     inkscape:window-maximized="1"
     inkscape:current-layer="g10" />
  <g
     id="g10"
     style="fill:none;stroke-width:1.32299995;stroke-linecap:round;stroke-linejoin:round">
    <g
       id="g846"
       style="stroke:url(#linearGradient854)">
      <path
         style="stroke:url(#linearGradient854);stroke-opacity:1"
         inkscape:connector-curvature="0"
         id="path2"
         d="M 11.119,9.028 A 2.737,2.737 0 0 1 7.843,11.078 2.737,2.737 0 0 1 5.781,7.81 2.737,2.737 0 0 1 9.041,5.736 2.737,2.737 0 0 1 11.128,8.988" />
      <path
         style="stroke:url(#linearGradient854);stroke-opacity:1"
         inkscape:connector-curvature="0"
         id="path4"
         d="m 12.677,5.513 1.082,-1.61 M 3.244,3.813 a 6.954,6.954 -10e-4 0 1 5.278,-2.358 6.954,6.954 -10e-4 0 1 5.237,2.448" />
      <path
         style="stroke:url(#linearGradient854);stroke-opacity:1"
         inkscape:connector-curvature="0"
         id="path6"
         d="m 8.907,13.714 0.847,1.745 m 5.368,-9.043 a 6.954,6.954 -0.218 0 1 -0.618,5.748 6.954,6.954 -0.218 0 1 -4.75,3.295" />
      <path
         style="stroke:url(#linearGradient854);stroke-opacity:1"
         inkscape:connector-curvature="0"
         id="path8"
         d="M 3.774,6.486 1.838,6.371 m 5.261,9.105 A 6.954,6.954 0.22 0 1 2.389,12.126 6.954,6.954 0.22 0 1 1.838,6.371" />
    </g>
  </g>
</svg>
