<svg xmlns="http://www.w3.org/2000/svg" width="64" height="64" viewBox="0 0 16.933 16.933"><g stroke-width="1.067" fill="none" stroke-linecap="round" stroke-linejoin="round"><path d="M14.298 4.41a7.187 7.187 0 0 0-4.003-2.801c-2.297 4.6.49 3.396 4.003 2.801z" stroke="#ed2950" stroke-width="1.32285065"/><path d="M9.01 15.61a7.208 7.208 0 0 0 4.452-2.038c-2.86-4.255-3.194-1.31-4.451 2.039z" stroke="#3aac27" stroke-width="1.32285065"/><path d="M2.586 12.578a7.184 7.184 0 0 0 4.003 2.803c2.06-4.54.33-3.527-4.003-2.803z" stroke="#14a3d4" stroke-width="1.32285065"/><path d="M1.999 5.396a7.09 7.09 0 0 0-.438 4.828c4.963-.505 3.275-1.447.447-4.848l-.006.013z" stroke="#a825de" stroke-width="1.32285065"/><path d="M7.897 1.377a7.197 7.197 0 0 0-4.442 2.037c3.076 4.312 2.928 2.014 4.45-2.038z" stroke="#ea5b11" stroke-width="1.32285065"/><path d="M8.35 9.119a.598.615 0 0 1-.49-.653.598.615 0 0 1 .582-.567.598.615 0 0 1 .609.537.598.615 0 0 1-.459.677l-.135-.6z" stroke="#424242" stroke-width="2.1166106499999997"/><path d="M14.924 11.606a7.08 7.08 0 0 0 .448-4.846c-1.806.115-2.682.407-2.958.857-.51.83 1.023 2.2 2.51 3.989z" stroke="#f1e238" stroke-width="1.32285065"/></g></svg>