<svg xmlns="http://www.w3.org/2000/svg" width="64" height="64"><defs><linearGradient id="a"><stop offset="0" stop-color="#6e3a84"/><stop offset="1" stop-color="#a75ec4"/></linearGradient></defs><g stroke="#7b14a6" stroke-linecap="round" stroke-linejoin="round" fill="none" stroke-width="5"><path d="M52.597 54.069c-4.824 3.386-19.27.496-20.142.315-7.032-1.464-13.631-3.59-18.217-6.268h0c-3.393-2-5.04-3.202-6.855-5.002-2.183-2.166-3.169-3.828-3.453-5.82-.392-2.741 1.503-5.564 4.827-7.191 6.517-3.191 15.345-3.888 23.813-1.882 1.793.425 1.735.291-.433-.995-2.853-1.693-7.265-5.192-9.828-7.795-3.041-3.088-4.927-6.352-4.927-8.422 0-1.366.671-2.814 2.25-3.686 3.692-2.043 16.655 1.395 25.334 1.883 2.748.142 4.587.165 4.58-1.434-.008-1.37-3.651-2.12-5.414-1.992 1.548-.523 3.032-.795 5.015-.837 3.967-.084 4.768.427 5.576.807 1.629.765 3.109 2.525 3.04 4.763"/><path d="M53.86 19.415c-4.756-.905-8.838-1.647-10.22.061-3.26 4.036 8.146 11.951 11.668 14.765-2.94.236-18.65-1.48-20.814 4.313-.764 2.63 3.435 5.436 7.354 6.86 3.189 1.106 7.066 2.36 11.881 2.692"/></g></svg>