<svg xmlns="http://www.w3.org/2000/svg" width="64" height="64" viewBox="0 0 16.933 16.933"><g fill="none" stroke="#000" stroke-width="1.323" stroke-linecap="round" stroke-linejoin="round"><path d="M4.228 10.083l-1.847 4.47c-.096.207-.12.447-.067.67a1.1 1.1 0 0 0 .355.574c.174.15.39.244.615.292.224.048.455.05.685.05H12.7c.23 0 .46-.002.685-.05.224-.048.44-.143.615-.292a1.1 1.1 0 0 0 .355-.574 1.038 1.038 0 0 0-.068-.67L10.32 5.026V2.645l.794-1.588H5.556l.794 1.588v2.382h0l-1.078 2.74" stroke="#00abff"/><path d="M6.114 13.163a.55.55 0 0 1 .732-.262.55.55 0 0 1 .264.73.55.55 0 0 1-.732.264.55.55 0 0 1-.265-.73m1.693-5.05a.55.55 0 0 1 .733-.263.55.55 0 0 1 .264.731.55.55 0 0 1-.732.264.55.55 0 0 1-.266-.73m1.745 3.551a.55.55 0 0 1 .732-.263.55.55 0 0 1 .264.731.55.55 0 0 1-.732.264.55.55 0 0 1-.265-.73" stroke="#65c900"/></g></svg>