<svg xmlns="http://www.w3.org/2000/svg" xmlns:xlink="http://www.w3.org/1999/xlink" version="1.1" id="svg12" width="64" height="64"><defs id="defs8"><linearGradient id="linearGradient970"><stop stop-color="#f10" offset="0" id="stop966"/><stop stop-color="#ff6511" offset="1" id="stop968" stop-opacity="1"/></linearGradient><linearGradient id="a"><stop offset="0" stop-color="#ffd900" id="stop2"/><stop offset="1" stop-color="#ff000a" id="stop4"/></linearGradient><linearGradient xlink:href="#a" id="b" gradientUnits="userSpaceOnUse" x1="14.002" y1="23.995" x2="34.001" y2="23.995" gradientTransform="matrix(2.11747 0 0 2.11064 -17.039 -19.211)"/><linearGradient gradientTransform="translate(-71.795 -19.28) scale(1.4928)" y2="23.995" x2="34.001" y1="23.995" x1="14.002" gradientUnits="userSpaceOnUse" id="b-3" xlink:href="#a"/><linearGradient id="linearGradient4461"><stop offset="0" id="stop4463" stop-color="#000" stop-opacity=".914"/><stop offset="1" id="stop4465" stop-color="#000" stop-opacity="0"/></linearGradient><linearGradient id="linearGradient4455"><stop offset="0" id="stop4457" stop-color="#dbdbdb" stop-opacity="1"/><stop offset="1" id="stop4459" stop-color="#fff" stop-opacity=".996"/></linearGradient><linearGradient id="linearGradient4369"><stop id="stop4371" offset="0" stop-color="#909090" stop-opacity="1"/><stop id="stop4373" offset="1" stop-color="#bbb" stop-opacity=".996"/></linearGradient><linearGradient id="linearGradient4272"><stop id="stop4274" offset="0" stop-color="#fb7600" stop-opacity="1"/><stop id="stop4276" offset="1" stop-color="#ffb00f" stop-opacity="1"/></linearGradient><linearGradient id="linearGradient4214"><stop id="stop4216" offset="0" stop-color="#fff" stop-opacity="1"/><stop id="stop4218" offset="1" stop-color="#fff" stop-opacity="0"/></linearGradient><linearGradient x1="428.816" gradientTransform="translate(-384.57 -499.8)" gradientUnits="userSpaceOnUse" x2="388.865" y2="499.679" y1="547.634" id="a-3"><stop id="stop7" stop-color="#2a2c2f"/><stop id="stop9" stop-color="#536161" offset="1"/></linearGradient><linearGradient x1="36" gradientUnits="userSpaceOnUse" x2="14" y2="12" y1="44" id="b-6"><stop id="stop12" stop-color="#bfc9c9" stop-opacity="1"/><stop id="stop14" stop-color="#fbfbfb" offset="1" stop-opacity="1"/></linearGradient><linearGradient gradientTransform="translate(-384.57 -499.8)" gradientUnits="userSpaceOnUse" x2="419.974" y2="539.825" x1="418.57" y1="529.8" id="c"><stop id="stop17" stop-color="#292c2f"/><stop id="stop19" stop-opacity="0" offset="1"/></linearGradient><style type="text/css" id="current-color-scheme"/><linearGradient gradientUnits="userSpaceOnUse" y2="27.5" x2="28.5" y1="3" x1="15.25" id="linearGradient4220" xlink:href="#linearGradient4214"/><linearGradient gradientTransform="translate(-404.99 -523.8)" gradientUnits="userSpaceOnUse" x2="419.974" y2="539.825" x1="406.501" y1="527.014" id="c-6"><stop id="stop17-7" stop-color="#292c2f"/><stop id="stop19-5" stop-opacity="0" offset="1"/></linearGradient><linearGradient gradientTransform="translate(6.243 -2)" gradientUnits="userSpaceOnUse" y2="36.243" x2="25.024" y1="15.257" x1="20.279" id="linearGradient4304" xlink:href="#linearGradient4461"/><style type="text/css" id="current-color-scheme-6"/><style type="text/css" id="current-color-scheme-7"/><style type="text/css" id="current-color-scheme-5"/><linearGradient gradientTransform="translate(-107.895 -15.107)" gradientUnits="userSpaceOnUse" y2="6.765" x2="15.496" y1="32.021" x1="31.46" id="linearGradient4278" xlink:href="#linearGradient4272"/><linearGradient gradientTransform="translate(-2.25)" gradientUnits="userSpaceOnUse" y2="31.744" x2="10.161" y1="41.378" x1="14.709" id="linearGradient4375" xlink:href="#linearGradient4455"/><linearGradient gradientTransform="translate(-.5)" y2="30.948" x2="20.856" y1="42.439" x1="28.055" gradientUnits="userSpaceOnUse" id="linearGradient4400" xlink:href="#linearGradient4455"/><linearGradient gradientUnits="userSpaceOnUse" y2="31.744" x2="10.161" y1="41.378" x1="14.709" id="linearGradient4375-0" xlink:href="#linearGradient4369" gradientTransform="translate(-9.229 -32.78)"/><linearGradient gradientTransform="translate(1.25)" y2="31.832" x2="32.965" y1="41.466" x1="39.192" gradientUnits="userSpaceOnUse" id="linearGradient4435" xlink:href="#linearGradient4455"/><linearGradient id="a-36"><stop id="stop893" offset="0" stop-color="#f10"/><stop id="stop895" offset="1" stop-color="#ff115a"/></linearGradient><linearGradient gradientUnits="userSpaceOnUse" y2="90.64" x2="-8.466" y1="57.265" x1="-51.221" id="b-7" xlink:href="#a-36"/><linearGradient y2="76.276" x2="-5.72" y1="76.276" x1="-53.333" gradientUnits="userSpaceOnUse" id="c-5" xlink:href="#a-36" gradientTransform="translate(-.001 -4.565)"/><linearGradient gradientUnits="userSpaceOnUse" y2="90.64" x2="-8.466" y1="57.265" x1="-51.221" id="b-62" xlink:href="#a-36"/><linearGradient y2="76.276" x2="-5.72" y1="76.276" x1="-53.333" gradientUnits="userSpaceOnUse" id="c-9" xlink:href="#a-36"/><linearGradient gradientUnits="userSpaceOnUse" y2="1" y1="47" x2="0" id="a-367"><stop id="stop877" stop-color="#ff3c00" offset="0"/><stop id="stop879" stop-color="#ff0093" offset="1"/></linearGradient><linearGradient gradientUnits="userSpaceOnUse" y2="23.909" x2="47.653" y1="23.909" x1=".372" id="b-5" xlink:href="#a-367" gradientTransform="translate(-4225.864 -4055.507) scale(174.33272)"/></defs><g id="g1022" transform="matrix(.03259 0 0 .03196 34.563 34.43)" fill="none" stroke="#ff0047" stroke-width="154.921" stroke-linecap="round" stroke-linejoin="round" stroke-miterlimit="4" stroke-dasharray="none" stroke-opacity="1"><g id="g991" transform="matrix(5.28819 0 0 5.33564 -937.772 -1101.143)" stroke-width="29.165"><path id="path983" d="M196.889 46.566c-8.823 14.91-14.648 31.37-25.13 45.267-8.2 10.875-17.315 21.305-29.088 29.23 22.857-8.38 50.347-12.041 67.656-19.944.591-.282 1.231-.59 1.838-.878-2.717-18.251-7.57-36.47-15.276-53.675z" fill="none" stroke="#ff0047"/><path id="path985" d="M287.702 36.894c-7.566 29.088-48.53 49.596-76.018 62.71l-.543.26c-.434.207-.878.418-1.296.619-.499.228-1.004.45-1.519.673l-.238.098c-.266.114-.538.221-.81.335-.433.18-.872.36-1.317.533l-.687.265c-.488.19-.983.368-1.477.553l-.618.228c-.656.233-1.323.467-2.001.695-.033.011-.064.026-.102.037 0 0-.006 0-.012.006-.737.25-1.49.494-2.249.738-.146.044-.293.091-.44.134-.618.196-1.236.386-1.86.576-.2.065-.401.125-.602.185-.63.185-1.257.373-1.897.557-.141.038-.282.082-.423.12a204 204 0 0 1-3.173.89c-.943.254-1.9.51-2.859.764-.466.125-.937.245-1.403.37-.266.065-.533.134-.793.2-1.622.417-3.258.836-4.918 1.248-5.206 1.302-10.563 2.602-15.927 3.99-7.592 1.97-15.19 4.13-22.332 6.75-5.602 2.055-10.932 4.387-15.759 7.143-21.843 12.458-37.732 29.44-50.108 49.181-16.642 26.567-5.114 60.72-50.651 86.13-.754.896-1.68 1.719-2.738 2.494l.151-.114c1.535.88 2.984 4.005 2.99 9.71.005 14.672-6.129 30.844-10.982 35.385a9.12 9.12 0 0 1-1.07.83c16.248 15.826 39.763 26.615 65.212 28.8 12.603 1.361 30.368.72 37.851.71 63.596-.158 124.194-29.684 160.607-71.567 2.704-3.284 13.341-15.767 13.55-18.004 16.767-26.875 35.372-54.382 36.514-85.168h-.002c-18.18 5.395-37.313 11.433-56.843 13.251l.591-.016c.087 0 .18-.006.267-.006h.057c-4.993.054-14.447 1.993-16.7-.385 21.454-23.978 41.806-50.137 46.333-80.234 2.842-20.897-.743-43.477-13.753-61.674zM272.097 179.19c.062 0 .125 0 .187.002.082 0 .168 0 .244.006.147.005.276.016.411.026a11.8 11.8 0 0 0-.842-.034zm18.855 71.59c-.641.023-2.39 1.148-5.765 3.922-2.306 1.258-4.047 1.923-5.377 2.143.037-.006.072-.009.11-.016.325-.065.677-.153 1.057-.272.184-.06.38-.125.586-.196a23.295 23.295 0 0 0 2.761-1.23c.26-.136.53-.277.801-.43.543-.439 1.032-.828 1.487-1.191.179-.141.33-.257.498-.387.271-.211.537-.41.781-.59.147-.113.288-.211.423-.309.222-.162.435-.31.63-.445.163-.109.335-.227.476-.32.033-.016.067-.038.094-.054.206-.13.389-.239.557-.326.065-.032.132-.07.191-.097.027-.011.055-.028.082-.039.081-.038.157-.064.227-.091.012 0 .016-.004.027-.011.076-.027.146-.044.211-.055h.023a.622.622 0 0 1 .12-.006zm-11.628 6.124a5.015 5.015 0 0 1 0 0zm-256.728 8.712c-.087.065-.178.123-.264.183.086-.06.177-.118.264-.183zm-8.964 45.19v.006c.06.06.125.119.185.179-.06-.06-.12-.126-.185-.186z" fill="none" stroke="#ff0047"/><path id="path989" d="M23.564 265.103c-11.058 8.26-33.639 8.266-24.23 25.736 5.055 7.81 8.943 14.13 15.163 20.187.45-.304.824-.602 1.073-.83 4.849-4.545 10.988-20.714 10.976-35.39 0-5.706-1.453-8.825-2.982-9.704z" fill="#acacac" fill-opacity="1" stroke="#ff0047"/><path id="path987" d="M327.75 165.96c-18.182 5.397-37.32 11.433-56.853 13.25h.01l.592-.016c.086 0 .179-.005.265-.005.18 0 .347 0 .52.005.082 0 .169 0 .245.005.146.005.277.016.412.027a6.143 6.143 0 0 1 .792.098h.005c.005 0 .01 0 .016.005.076.016.152.032.222.054.011 0 .022.005.033.005a4.274 4.274 0 0 1 .206.07c.065.027.13.055.184.087.288.146.45.353.478.624.005.01.005.021.005.032a.568.568 0 0 1-.005.13c0 .022 0 .038-.005.055a.682.682 0 0 1-.033.146.12.12 0 0 1-.016.06 1.108 1.108 0 0 1-.06.152c-.01.027-.016.048-.032.076-.022.048-.049.097-.076.146a1.04 1.04 0 0 1-.06.103l-.097.152a.948.948 0 0 1-.087.12c-.033.054-.076.102-.12.157-.032.043-.07.092-.108.135a3.579 3.579 0 0 1-.135.163l-.136.152c-.06.065-.12.124-.184.195-.022.027-.055.054-.082.081-.19.196-.412.407-.65.63-.158.14-.348.303-.532.455-.141.125-.266.239-.418.364-.216.179-.466.374-.705.564-.162.124-.309.244-.482.38-.429.33-.895.677-1.4 1.04a25.03 25.03 0 0 0-1.534 1.845c-1.356 1.833-2.19 3.623-2.57 5.353a10.064 10.064 0 0 0-.06 4.095c.005.038.005.07.016.109.054.27.12.537.195.802.228.803.548 1.59.96 2.349.136.255.282.51.434.76h.005a16.849 16.849 0 0 0 1.036 1.47c.195.238.396.476.602.715.206.233.423.466.65.7.45.46.928.91 1.438 1.35 2.044 1.758 4.55 3.347 7.359 4.724a9.547 9.547 0 0 1-.781 1.318 17.157 17.157 0 0 1-1.052 1.356c-.26.304-.537.608-.83.917a44.571 44.571 0 0 1-1.898 1.871 86.024 86.024 0 0 1-2.131 1.904c-1.833 1.6-3.79 3.222-5.57 4.838-2.668 2.435-4.94 4.854-5.813 7.17-.06.157-.108.31-.157.467a6.941 6.941 0 0 0-.114.455 5.245 5.245 0 0 0-.114.911 4.57 4.57 0 0 0 .173 1.335c.044.146.098.293.158.439.119.293.27.58.46.862a6.542 6.542 0 0 0 .689.846c.266.277.57.554.917.825.173.135.358.271.553.407.385.265.819.531 1.296.792.472.26.998.52 1.562.77.477.217.998.423 1.545.629.103.038.201.081.304.12a42.08 42.08 0 0 0 2.148.72c.374.028.72.077 1.046.142.033.005.065.01.093.016h.005a.743.743 0 0 1 .113.027c.31.07.602.152.873.255a5.354 5.354 0 0 1 .846.401c.26.152.494.32.716.505a5.262 5.262 0 0 1 .597.602c.087.108.173.217.255.33.081.12.157.234.233.359.217.363.401.753.553 1.166.13.352.239.727.325 1.112.017.065.038.124.05.19.07.298.124.607.167.921.05.315.087.63.12.955.027.325.054.65.07.976v.033c.038.645.054 1.302.065 1.947.01.656.016 1.307.033 1.936.021.944.065 1.844.179 2.653.038.265.081.52.135.77.027.12.06.244.092.358.033.12.065.228.103.341.038.109.082.212.125.315.043.103.092.2.141.298.016.033.038.06.054.087.087.157.185.304.288.434a2.466 2.466 0 0 0 .976.716c.293.12.634.19 1.02.211.26.011.536 0 .84-.038.152-.016.31-.043.472-.07a10.19 10.19 0 0 0 1.057-.271c.185-.06.38-.125.586-.195a23.291 23.291 0 0 0 2.76-1.232c.26-.135.532-.276.803-.428.542-.44 1.03-.83 1.486-1.193.179-.141.33-.255.499-.385.27-.212.537-.413.78-.592.147-.113.288-.211.424-.309.222-.162.433-.309.629-.444.162-.109.336-.228.477-.32.032-.017.065-.038.092-.055.206-.13.39-.238.559-.325.065-.033.13-.07.19-.098.027-.01.054-.027.08-.038.082-.038.158-.065.229-.092.01 0 .016-.005.027-.01.076-.028.146-.044.211-.055h.022c.049-.005.092-.01.135-.005.011 0 .022.005.033.005a.18.18 0 0 1 .081.032.058.058 0 0 1 .022.017.189.189 0 0 1 .06.07c0 .005.004.011.004.016a.286.286 0 0 1 .022.125c0 .055-.005.114-.016.18 16.784-26.908 35.434-54.445 36.578-85.268z" fill="none" stroke="#ff0047"/><path id="path1030" d="M115.554 186.861a27.383 27.672 0 0 1 33.597 16.954 27.383 27.672 0 0 1-14.744 34.902" opacity="1" fill="none" fill-opacity="1" stroke="#ff0047" stroke-dashoffset="0"/><path d="M24.165 260.954c-11.61 9.753-35.32 9.76-25.44 30.386 5.307 9.222 9.39 16.683 15.92 23.835.473-.359.866-.71 1.128-.98 5.09-5.366 11.536-24.456 11.524-41.785 0-6.737-1.526-10.419-3.132-11.456z" id="path1036" fill="#2d0000" fill-opacity="1" stroke="none"/></g><path d="M-405.96 654.143c49.85 8.89 101.99 4.598 149.715-12.328 47.725-16.925 90.92-46.443 124.03-84.755 44.32-51.285 70.042-118.308 71.412-186.076" id="path1032" stroke-width="154.921"/></g></svg>