<svg xmlns="http://www.w3.org/2000/svg" xmlns:xlink="http://www.w3.org/1999/xlink" width="64" height="64"><defs><linearGradient id="a"><stop offset="0" stop-color="#0f8"/><stop offset="1" stop-color="#00c3ff"/></linearGradient><linearGradient xlink:href="#a" id="b" x1="4.649" y1="39.989" x2="43.35" y2="39.989" gradientUnits="userSpaceOnUse" gradientTransform="matrix(1.35912 0 0 1.106 .701 5.106)"/><linearGradient xlink:href="#a" id="c" gradientUnits="userSpaceOnUse" gradientTransform="matrix(1.06213 0 0 1.0641 7.49 5.415)" x1=".632" y1="18.084" x2="47.366" y2="18.084"/><linearGradient xlink:href="#a" id="d" x1="31.125" y1="30.351" x2="35.99" y2="30.351" gradientUnits="userSpaceOnUse" gradientTransform="translate(-10.174 -9.202) scale(1.3032)"/></defs><path d="M13.88 45.68c-1.73-.809-1.858-2.115-3.971-2.265v0c-1.665.323-1.468 2.515-.617 3.552 2.844 4.566 8.27 6.445 13.18 7.86 10.557 2.808 22.407 1.52 31.68-4.425 1.846-1.329 3.893-3.147 3.938-5.586-.491-1.606-2.826-1.247-3.538-.003" fill="none" stroke="url(#b)" stroke-width="5" stroke-linecap="round" stroke-linejoin="round"/><path d="M26.499 6.857c-2.74.489-3.828 3.524-4.161 5.956-.196 1.942-1.968 4.202-4.108 3.45-2.63-.382-6.001.025-7.357 2.64-.773 2.346 1.379 4.16 2.112 6.18 1.164 4.37-.841 9.257 1.536 13.363 1.434 1.548 3.761.539 5.215-.45 2.063-.845 4.14.953 4.95 2.739 1.483 1.342 3.607.348 4.863-.803 1.661-1.076 3.893-2.504 5.872-1.402 1.462 1.17 2.91 3.375 5.074 2.8 2.258-.768 2.433-4.023 4.824-4.522 2.015-.213 2.885 2.311 4.68 2.56 2.161-.594 2.394-3.245 2.595-5.103.445-3.942-.89-8.39 1.566-11.856 1.44-1.368 1.528-4.275-.484-5.148-2.69-1.875-6.275-.213-9.037-1.803-1.642-2.332-.793-5.924-3.348-7.71-1.96-1.2-4.16.483-5.42 1.957-2.49 2.392-7.168.986-8.117-2.283a1.611 1.611 0 0 0-1.255-.565z" fill="none" stroke="url(#c)" stroke-width="5" stroke-linecap="round" stroke-linejoin="round"/><path d="M43.342 23.475c-3.659-.062-4.368 5.963-.973 6.996 3.09 1.245 6.06-3.143 3.987-5.645-.708-.902-1.878-1.388-3.014-1.351z" fill="#00c9f2"/><path d="M23.462 23.565c-3.064-.166-4.445 3.875-2.877 6.142 1.36 2.257 4.981 1.914 6.088-.43 1.473-2.123.11-5.364-2.502-5.65a3.836 3.836 0 0 0-.71-.062z" fill="#00fa91"/><path d="M33.433 25.986c-2.645-.189-3.837 4.417-2.483 7.001 1.174 2.572 4.3 2.182 5.255-.49 1.272-2.42.095-6.115-2.16-6.441a2.533 2.533 0 0 0-.612-.07z" fill="url(#d)"/></svg>