<svg height="64" width="64" xmlns="http://www.w3.org/2000/svg" xmlns:xlink="http://www.w3.org/1999/xlink"><linearGradient id="a" gradientUnits="userSpaceOnUse" x1="-57.626" x2="-3.544" y1="22.904" y2="22.904"><stop offset="0" stop-color="#f10"/><stop offset="1" stop-color="#ff115a"/></linearGradient><g fill="none" stroke-linecap="round" stroke-linejoin="round"><g stroke="url(#a)" stroke-width="5.987" transform="matrix(.83635 0 0 .834 57.551 13.46)"><path d="m-44.232 14.357h6.653m-13.85 7.964h13.85m-18.887 7.146h18.887m-13.85 7.145h13.85m-7.555 6.955h7.555" stroke="#3094d2"/><path d="m-20.87 1.65h-15.11l3.777 5.036 3.778 5.037 3.777-5.037z" stroke="#ff3257"/><path d="m-19.848 15.524c-.619.037-1.284.649-1.283 1.327l-.023 20.008c0 .903 1.182 1.69 1.859 1.153l12.741-10.038c.68-.53.68-1.774 0-2.307l-12.718-9.97a.834.834 0 0 0 -.576-.173z" stroke="#3094d2"/><path d="m-28.51 44.123v-32.654" stroke="#ff3257"/></g><path d="m12.947 10.805a28.5 28.5 0 0 1 37.943-.144 28.5 28.5 0 0 1 4.459 37.68 28.5 28.5 0 0 1 -36.929 8.715 28.5 28.5 0 0 1 -12.858-35.698" stroke="#ff3257" stroke-width="5"/></g></svg>