<svg xmlns="http://www.w3.org/2000/svg" xmlns:xlink="http://www.w3.org/1999/xlink" width="64" height="64"><defs><linearGradient xlink:href="#a" id="d" gradientUnits="userSpaceOnUse" x1="-44.602" y1="21.669" x2="-15.602" y2="21.669" gradientTransform="matrix(.93955 0 0 .93947 -2.666 2.16)"/><linearGradient xlink:href="#a" id="c" gradientUnits="userSpaceOnUse" x1="-44.602" y1="21.669" x2="-15.602" y2="21.669" gradientTransform="matrix(1.82441 0 0 1.82422 89.65 -8.39)"/><linearGradient xlink:href="#a" id="b" gradientUnits="userSpaceOnUse" x1="-44.602" y1="21.669" x2="-15.602" y2="21.669"/></defs><linearGradient id="a" gradientUnits="userSpaceOnUse" x1="-44.602" x2="-15.602" y1="21.669" y2="21.669"><stop offset="0" stop-color="#0070ff"/><stop offset="1" stop-color="#00e9ff"/></linearGradient><g transform="matrix(1.9418 0 0 1.94175 91.387 -10.102)" fill="none" stroke="url(#b)" stroke-width="2.575" stroke-linecap="round" stroke-linejoin="round"><path d="M54.307 14.653C48.756 8.84 43.916 5.805 36.556 5.6c-6.046 0-10.947 4.9-10.947 10.946a10.948 10.948 0 0 0 5.901 9.7s3.93 1.8 5.67 2.734c2.518 1.26 5.291 2.374 7.932 3.987 1.32.807 2.653 1.748 3.851 3.203 1.197 1.454 2.188 3.634 2.188 5.914 0 4.424-1.6 7.795-3.649 10.946h0v0c7.96-4.537 12.758-12.73 12.771-21.89-.006-5.083-.462-4.363-1.677-9.048" transform="matrix(.51499 0 0 .515 -47.063 5.203)" stroke="url(#c)" stroke-width="5"/><path d="M-37.525 11.245c-4.1 2.337-6.57 6.556-6.577 11.274.009 6.498 4.849 12.18 11.275 13.152.46.049.6.027.94 0a5.637 5.637 0 0 0 5.637-5.637 5.638 5.638 0 0 0-3.04-4.995s-2.023-.928-2.919-1.408c-1.297-.65-2.725-1.224-4.084-2.054-.68-.415-1.367-.9-1.984-1.65-.617-.749-1.127-1.871-1.127-3.046 0-2.278.824-4.014 1.88-5.636z" stroke="url(#d)"/></g></svg>