<?xml version="1.0" encoding="UTF-8" standalone="no"?>
<svg
   xmlns:dc="http://purl.org/dc/elements/1.1/"
   xmlns:cc="http://creativecommons.org/ns#"
   xmlns:rdf="http://www.w3.org/1999/02/22-rdf-syntax-ns#"
   xmlns:svg="http://www.w3.org/2000/svg"
   xmlns="http://www.w3.org/2000/svg"
   xmlns:sodipodi="http://sodipodi.sourceforge.net/DTD/sodipodi-0.dtd"
   xmlns:inkscape="http://www.inkscape.org/namespaces/inkscape"
   width="64"
   height="64"
   viewBox="0 0 16.933 16.933"
   version="1.1"
   id="svg14"
   sodipodi:docname="software-store.svg"
   inkscape:version="0.92.4 5da689c313, 2019-01-14">
  <metadata
     id="metadata20">
    <rdf:RDF>
      <cc:Work
         rdf:about="">
        <dc:format>image/svg+xml</dc:format>
        <dc:type
           rdf:resource="http://purl.org/dc/dcmitype/StillImage" />
      </cc:Work>
    </rdf:RDF>
  </metadata>
  <defs
     id="defs18" />
  <sodipodi:namedview
     pagecolor="#ffffff"
     bordercolor="#666666"
     borderopacity="1"
     objecttolerance="10"
     gridtolerance="10"
     guidetolerance="10"
     inkscape:pageopacity="0"
     inkscape:pageshadow="2"
     inkscape:window-width="1312"
     inkscape:window-height="744"
     id="namedview16"
     showgrid="true"
     showguides="true"
     inkscape:guide-bbox="true"
     inkscape:zoom="10.429825"
     inkscape:cx="24.952807"
     inkscape:cy="30.854577"
     inkscape:window-x="54"
     inkscape:window-y="24"
     inkscape:window-maximized="1"
     inkscape:current-layer="g12">
    <sodipodi:guide
       position="31.861524,11.26315"
       orientation="1,0"
       id="guide833"
       inkscape:locked="false" />
    <inkscape:grid
       type="xygrid"
       id="grid838" />
  </sodipodi:namedview>
  <g
     transform="translate(0,-280.067)"
     id="g12">
    <path
       d="m 18.150504,271.75376 h 0.994 l 0.344,-0.458 v -7.699 l -0.555,-0.552 h -1.624 c -0.537,-0.928 -0.732,-2.797 -1.61,-2.782 h -4.238 c -0.705,-0.015 -1.103,1.906 -1.6539998,2.858 h -1.346 c 0,0 0.179,-1.285 -1.252,-1.248 -1.215,0.031 -1.376,1.372 -1.376,1.372 h -1.124 l -0.567,0.565 v 7.384 l 0.621,0.62 h 3.46"
       id="path4"
       inkscape:connector-curvature="0"
       style="fill:none;stroke:#cd5cf1;stroke-width:1.32299995;stroke-linecap:round;stroke-linejoin:round" />
    <path
       d="m 5.9585042,265.08376 h 1.987"
       id="path6"
       inkscape:connector-curvature="0"
       style="fill:none;stroke:#00cffd;stroke-width:1.32299995;stroke-linecap:round;stroke-linejoin:round" />
    <path
       d="m 13.784504,270.06876 a 1.87,1.766 0 0 1 -2.206,-1.364 1.87,1.766 0 0 1 1.43,-2.092 1.87,1.766 0 0 1 2.224,1.337 1.87,1.766 0 0 1 -1.401,2.11"
       id="path8"
       inkscape:connector-curvature="0"
       style="fill:none;stroke:#cd5cf1;stroke-width:1.32299995;stroke-linecap:round;stroke-linejoin:round" />
    <path
       d="m 14.245504,272.20476 a 4.163,3.947 0 0 1 -4.9099998,-3.048 4.163,3.947 0 0 1 3.1829998,-4.675 4.163,3.947 0 0 1 4.951,2.989 4.163,3.947 0 0 1 -3.12,4.713"
       id="path10"
       inkscape:connector-curvature="0"
       style="fill:none;stroke:#00cffd;stroke-width:1.32299995;stroke-linecap:round;stroke-linejoin:round" />
    <path
       style="opacity:1;fill:none;fill-opacity:1;stroke:#bb41f1;stroke-width:1.32289064;stroke-linecap:round;stroke-linejoin:round;stroke-miterlimit:4;stroke-dasharray:none;stroke-dashoffset:0;stroke-opacity:1;paint-order:normal"
       d="m 10.02812,281.77951 h 0.702905 c 2.648972,0 4.781538,2.13257 4.781538,4.78154 v 4.23681 c 0,2.64897 -2.132566,4.78154 -4.781538,4.78154 H 6.4942203 c -2.648972,0 -4.781538,-2.13257 -4.781538,-4.78154 v -4.23681 c 0,-2.64897 2.132566,-4.78154 4.781538,-4.78154 v 0 H 7.075987"
       id="rect827"
       inkscape:connector-curvature="0"
       sodipodi:nodetypes="csssssssccc" />
    <path
       style="opacity:1;fill:none;fill-opacity:1;stroke:#32d39b;stroke-width:1.32289076;stroke-linecap:round;stroke-linejoin:round;stroke-miterlimit:4;stroke-dasharray:none;stroke-dashoffset:0;stroke-opacity:1;paint-order:normal"
       id="path831"
       sodipodi:type="arc"
       sodipodi:cx="8.6731567"
       sodipodi:cy="284.49399"
       sodipodi:rx="3.9866939"
       sodipodi:ry="2.4648197"
       sodipodi:start="6.2470903"
       sodipodi:end="3.1415392"
       d="m 12.657254,284.40504 a 3.9866939,2.4648197 0 0 1 -1.908194,2.19325 3.9866939,2.4648197 0 0 1 -4.0274428,0.045 3.9866939,2.4648197 0 0 1 -2.0351543,-2.14918"
       sodipodi:open="true" />
  </g>
  <path
     style="fill:none;stroke:#32d33c;stroke-width:1.19060159;stroke-linecap:round;stroke-linejoin:round;stroke-miterlimit:4;stroke-dasharray:none;stroke-opacity:1"
     d="m 11.806781,8.681637 v 2.164761 h 1.422125 l -1.422125,1.761868 -1.422123,-1.761868"
     id="path840"
     inkscape:connector-curvature="0"
     sodipodi:nodetypes="ccccc" />
</svg>
