<svg xmlns="http://www.w3.org/2000/svg" xmlns:xlink="http://www.w3.org/1999/xlink" version="1.1" id="svg12" width="64" height="64"><defs id="defs8"><linearGradient id="linearGradient970"><stop stop-color="#f10" offset="0" id="stop966"/><stop stop-color="#ff6511" offset="1" id="stop968" stop-opacity="1"/></linearGradient><linearGradient id="a"><stop offset="0" stop-color="#ffd900" id="stop2"/><stop offset="1" stop-color="#ff000a" id="stop4"/></linearGradient><linearGradient xlink:href="#a" id="b" gradientUnits="userSpaceOnUse" x1="14.002" y1="23.995" x2="34.001" y2="23.995" gradientTransform="matrix(2.11747 0 0 2.11064 -17.039 -19.211)"/><linearGradient gradientTransform="translate(-71.795 -19.28) scale(1.4928)" y2="23.995" x2="34.001" y1="23.995" x1="14.002" gradientUnits="userSpaceOnUse" id="b-3" xlink:href="#a"/><linearGradient id="linearGradient4461"><stop offset="0" id="stop4463" stop-color="#000" stop-opacity=".914"/><stop offset="1" id="stop4465" stop-color="#000" stop-opacity="0"/></linearGradient><linearGradient id="linearGradient4455"><stop offset="0" id="stop4457" stop-color="#dbdbdb" stop-opacity="1"/><stop offset="1" id="stop4459" stop-color="#fff" stop-opacity=".996"/></linearGradient><linearGradient id="linearGradient4369"><stop id="stop4371" offset="0" stop-color="#909090" stop-opacity="1"/><stop id="stop4373" offset="1" stop-color="#bbb" stop-opacity=".996"/></linearGradient><linearGradient id="linearGradient4272"><stop id="stop4274" offset="0" stop-color="#fb7600" stop-opacity="1"/><stop id="stop4276" offset="1" stop-color="#ffb00f" stop-opacity="1"/></linearGradient><linearGradient id="linearGradient4214"><stop id="stop4216" offset="0" stop-color="#fff" stop-opacity="1"/><stop id="stop4218" offset="1" stop-color="#fff" stop-opacity="0"/></linearGradient><linearGradient x1="428.816" gradientTransform="translate(-384.57 -499.8)" gradientUnits="userSpaceOnUse" x2="388.865" y2="499.679" y1="547.634" id="a-3"><stop id="stop7" stop-color="#2a2c2f"/><stop id="stop9" stop-color="#536161" offset="1"/></linearGradient><linearGradient x1="36" gradientUnits="userSpaceOnUse" x2="14" y2="12" y1="44" id="b-6"><stop id="stop12" stop-color="#bfc9c9" stop-opacity="1"/><stop id="stop14" stop-color="#fbfbfb" offset="1" stop-opacity="1"/></linearGradient><linearGradient gradientTransform="translate(-384.57 -499.8)" gradientUnits="userSpaceOnUse" x2="419.974" y2="539.825" x1="418.57" y1="529.8" id="c"><stop id="stop17" stop-color="#292c2f"/><stop id="stop19" stop-opacity="0" offset="1"/></linearGradient><style type="text/css" id="current-color-scheme"/><linearGradient gradientUnits="userSpaceOnUse" y2="27.5" x2="28.5" y1="3" x1="15.25" id="linearGradient4220" xlink:href="#linearGradient4214"/><linearGradient gradientTransform="translate(-404.99 -523.8)" gradientUnits="userSpaceOnUse" x2="419.974" y2="539.825" x1="406.501" y1="527.014" id="c-6"><stop id="stop17-7" stop-color="#292c2f"/><stop id="stop19-5" stop-opacity="0" offset="1"/></linearGradient><linearGradient gradientTransform="translate(6.243 -2)" gradientUnits="userSpaceOnUse" y2="36.243" x2="25.024" y1="15.257" x1="20.279" id="linearGradient4304" xlink:href="#linearGradient4461"/><style type="text/css" id="current-color-scheme-6"/><style type="text/css" id="current-color-scheme-7"/><style type="text/css" id="current-color-scheme-5"/><linearGradient gradientTransform="translate(-107.895 -15.107)" gradientUnits="userSpaceOnUse" y2="6.765" x2="15.496" y1="32.021" x1="31.46" id="linearGradient4278" xlink:href="#linearGradient4272"/><linearGradient gradientTransform="translate(-2.25)" gradientUnits="userSpaceOnUse" y2="31.744" x2="10.161" y1="41.378" x1="14.709" id="linearGradient4375" xlink:href="#linearGradient4455"/><linearGradient gradientTransform="translate(-.5)" y2="30.948" x2="20.856" y1="42.439" x1="28.055" gradientUnits="userSpaceOnUse" id="linearGradient4400" xlink:href="#linearGradient4455"/><linearGradient gradientUnits="userSpaceOnUse" y2="31.744" x2="10.161" y1="41.378" x1="14.709" id="linearGradient4375-0" xlink:href="#linearGradient4369" gradientTransform="translate(-9.229 -32.78)"/><linearGradient gradientTransform="translate(1.25)" y2="31.832" x2="32.965" y1="41.466" x1="39.192" gradientUnits="userSpaceOnUse" id="linearGradient4435" xlink:href="#linearGradient4455"/><linearGradient id="a-36"><stop id="stop893" offset="0" stop-color="#f10"/><stop id="stop895" offset="1" stop-color="#ff115a"/></linearGradient><linearGradient gradientUnits="userSpaceOnUse" y2="90.64" x2="-8.466" y1="57.265" x1="-51.221" id="b-7" xlink:href="#a-36"/><linearGradient y2="76.276" x2="-5.72" y1="76.276" x1="-53.333" gradientUnits="userSpaceOnUse" id="c-5" xlink:href="#a-36" gradientTransform="translate(-.001 -4.565)"/><linearGradient gradientUnits="userSpaceOnUse" y2="90.64" x2="-8.466" y1="57.265" x1="-51.221" id="b-62" xlink:href="#a-36"/><linearGradient y2="76.276" x2="-5.72" y1="76.276" x1="-53.333" gradientUnits="userSpaceOnUse" id="c-9" xlink:href="#a-36"/><linearGradient gradientUnits="userSpaceOnUse" y2="1" y1="47" x2="0" id="a-367"><stop id="stop877" stop-color="#ff3c00" offset="0"/><stop id="stop879" stop-color="#ff0093" offset="1"/></linearGradient><linearGradient gradientUnits="userSpaceOnUse" y2="23.909" x2="47.653" y1="23.909" x1=".372" id="b-5" xlink:href="#a-367" gradientTransform="translate(-4225.864 -4055.507) scale(174.33272)"/></defs><g id="g1022" transform="matrix(.03259 0 0 .03196 35.66 32.966)" fill="none" stroke="#ff0047" stroke-width="154.921" stroke-linecap="round" stroke-linejoin="round" stroke-miterlimit="4" stroke-dasharray="none" stroke-opacity="1"><g id="g991" transform="matrix(5.28819 0 0 5.33564 -937.772 -1101.143)" stroke-width="29.165"><path d="M85.401 71.972s17.521-10.775 34.924-17.535c19.376-7.526 58.367-6.137 77.224-.883 43.507 12.12 79.463 42.697 97.522 82.932 16.137 35.953 17.308 74.275 3.532 115.553-4.75 14.231-5.955 21.084-6.015 34.195-.086 18.488 2.145 28.306 10.452 46.008 7.526 16.036 5.684 17.897-10.19 10.294-27.116-12.987-50.085-14.255-80.684-4.454-16.982 5.44-23.367 6.621-46.967 8.693-3.676.322-13.144-.027-21.04-.776-73.857-7.008-131.72-71.708-131.72-147.284 0-25.752 17.2-66.809 17.2-66.809" id="path915"/><path id="path917" d="M161.899 239.634s-2.71-7.933 1.052-15.743c2.291-4.755 18.212-8.927 23.314-12.134 13.5-8.483 18.41-13.707 23.822-25.341 20.948-45.03-27.004-92.674-70.438-69.986-16.327 8.529-30.791 29.923-26.16 38.695"/></g><path id="path919" d="M-122.48 408.623a56.016 56.744 0 0 1 79.103 3.716 56.016 56.744 0 0 1-3.605 80.133 56.016 56.744 0 0 1-79.109-3.589 56.016 56.744 0 0 1 3.48-80.138" opacity="1" fill-opacity="1" stroke-width="154.921" stroke-dashoffset="0"/></g></svg>