<svg height="64" width="64" xmlns="http://www.w3.org/2000/svg" xmlns:xlink="http://www.w3.org/1999/xlink"><linearGradient id="a"><stop offset="0" stop-color="#9d21e2"/><stop offset="1" stop-color="#c31ed8"/></linearGradient><linearGradient id="b" gradientUnits="userSpaceOnUse" x1="1" x2="63.022" xlink:href="#a" y1="32.703" y2="32.703"/><linearGradient id="c" gradientTransform="matrix(.86441984 0 0 .85814128 4.948903 4.961182)" gradientUnits="userSpaceOnUse" x1="1" x2="63.022" xlink:href="#a" y1="32.703" y2="32.703"/><g fill="none" stroke="url(#b)" stroke-linecap="round" stroke-linejoin="round" stroke-width="5"><path d="m15.738592 21.14401v17.628797c.000864 5.55389 4.538204 10.055699 10.132729 10.055699 5.59539 0 10.131001-4.501809 10.133594-10.055699v-14.383306c-.000865-4.180865-6.321502-4.180865-6.319774 0v14.384164c0 5.555606 4.536476 10.058274 10.13273 10.058274s10.133593-4.502668 10.133593-10.057416v-17.631371h9.823528" stroke="url(#c)" stroke-width="5"/><path d="m60.5 21.149517v28.462483c.013311 6.018781-4.869219 10.901311-10.888 10.888h-35.224c-6.0187813.013311-10.901311-4.869219-10.888-10.888v-33.817c-.013311-6.0187813 4.8692187-10.901311 10.888-10.888h35.554"/></g></svg>