<svg xmlns="http://www.w3.org/2000/svg" width="22" height="22">
    <path d="M3.434 2.734a.688.688 0 0 0-.477 1.18l1.758 1.754A8.257 8.257 0 0 0 2.75 11v8.25h16.5V11a8.26 8.26 0 0 0-1.95-5.328l1.759-1.758a.688.688 0 1 0-.973-.973L16.32 4.707A8.269 8.269 0 0 0 11 2.75a8.261 8.261 0 0 0-5.32 1.941l-1.75-1.75a.698.698 0 0 0-.496-.207M11 4.125A6.875 6.875 0 0 1 17.875 11H4.125A6.875 6.875 0 0 1 11 4.125m-2.75 2.75c-.758 0-1.375.617-1.375 1.375s.617 1.375 1.375 1.375 1.375-.617 1.375-1.375-.617-1.375-1.375-1.375m5.5 0c-.758 0-1.375.617-1.375 1.375s.617 1.375 1.375 1.375 1.375-.617 1.375-1.375-.617-1.375-1.375-1.375m-9.625 5.5h5.5v1.375H11v1.375h1.375v-2.75h5.5v5.5H4.125zM11 15.125H9.625V16.5H11zm0 0" fill="#C5FE19"/>
</svg>
