<svg xmlns="http://www.w3.org/2000/svg" width="22" height="22">
    <path d="M6.875 2.75c-.758 0-1.375.617-1.375 1.375S6.117 5.5 6.875 5.5 8.25 4.883 8.25 4.125 7.633 2.75 6.875 2.75m6.875 0l-2.668 2.148 3.57 4.426-3.351 3.352 2.449 2.449 5.5-5.5zm-8.938 5.5a2.06 2.06 0 0 0-2.062 2.063 2.06 2.06 0 0 0 2.063 2.062 2.06 2.06 0 0 0 2.062-2.063A2.06 2.06 0 0 0 4.812 8.25m4.125 6.875a2.06 2.06 0 0 0-2.062 2.063 2.06 2.06 0 0 0 2.063 2.062A2.06 2.06 0 0 0 11 17.187a2.06 2.06 0 0 0-2.063-2.062" fill="#FF19C5"/>
</svg>
