<svg xmlns="http://www.w3.org/2000/svg" width="22" height="22">
    <path d="M9.285 2.75a4.098 4.098 0 0 0-2.75 3.871v.524A2.727 2.727 0 0 1 5.16 9.512v2.98a2.721 2.721 0 0 1 1.375 2.363v.524a4.1 4.1 0 0 0 2.75 3.871v-1.5a2.742 2.742 0 0 1-1.375-2.371v-.524A4.085 4.085 0 0 0 5.187 11c1.59-.574 2.723-2.07 2.723-3.86v-.523c0-1.015.559-1.894 1.375-2.367zm5.5 0v1.5a2.734 2.734 0 0 1 1.375 2.371v.524A4.099 4.099 0 0 0 18.883 11c-1.586.574-2.723 2.07-2.723 3.86v.523a2.727 2.727 0 0 1-1.375 2.367v1.504a4.102 4.102 0 0 0 2.75-3.871v-.524a2.74 2.74 0 0 1 1.375-2.367V9.516a2.742 2.742 0 0 1-1.375-2.371V6.62a4.093 4.093 0 0 0-2.75-3.867M3.09 17.3v1.953h2.07V17.3zm0 0" fill="#FEC519"/>
</svg>
