<svg xmlns="http://www.w3.org/2000/svg" width="22" height="22">
    <g fill="#198CFE">
        <path d="M11 2.75v1.375H9.625V5.5H11v1.375h1.375V5.5h1.375V4.125h-1.375V2.75zm5.5 0v1.375h-1.375V5.5H16.5v1.375h1.375V5.5h1.375V4.125h-1.375V2.75zm0 0"/>
        <path d="M8.25 8.25c-3.04 0-5.5 2.46-5.5 5.5a5.498 5.498 0 0 0 9.387 3.887l-.973-.973a4.122 4.122 0 0 1-2.914 1.211 4.126 4.126 0 0 1 0-8.25c1.094 0 2.14.438 2.914 1.21l.973-.972A5.5 5.5 0 0 0 8.25 8.25zm0 0" fill-rule="evenodd"/>
    </g>
</svg>
