<svg xmlns="http://www.w3.org/2000/svg" xmlns:xlink="http://www.w3.org/1999/xlink" width="32" height="32"><defs><linearGradient gradientTransform="matrix(.5 0 0 -.48276 0 31.45)" gradientUnits="userSpaceOnUse" x2="0" y2="3" y1="61" id="a"><stop offset="0" stop-color="#9b4792"/><stop stop-color="#913d88" offset="1"/></linearGradient><linearGradient id="c" y1="518.04" y2="524.8" x2="0" gradientUnits="userSpaceOnUse"><stop stop-color="#d5a5d0"/><stop offset="1" stop-color="#e7cbe4"/></linearGradient><linearGradient id="d" y1="524.8" x1="404.57" y2="531.8" x2="411.57" gradientUnits="userSpaceOnUse"><stop stop-color="#383e51"/><stop offset="1" stop-color="#655c6f" stop-opacity="0"/></linearGradient><linearGradient xlink:href="#a" id="b" x1="5" y1="30" x2="5" y2="2" gradientUnits="userSpaceOnUse" gradientTransform="translate(-20)"/></defs><path d="M20 2H8C6.338 2 5 3.338 5 5v22c0 1.662 1.338 3 3 3h16c1.662 0 3-1.338 3-3V9z" fill="url(#b)"/><path d="M8 2a2.99 2.99 0 00-2.123.877c-.031.031-.02.09-.05.123H20V2z" color="#000" opacity=".5" fill="#fff"/><path d="M5.826 29c.03.033.02.092.051.123A2.99 2.99 0 008 30h16a2.99 2.99 0 002.123-.877c.031-.031.02-.09.05-.123z" color="#000" opacity=".25"/><path d="M11 11c-.554 0-1 .446-1 1v10c0 .554.446 1 1 1h8c.554 0 1-.446 1-1h1c.554 0 1-.446 1-1v-2a.976.976 0 00-.152-.5A.976.976 0 0022 18v-2a.976.976 0 00-.152-.5A.976.976 0 0022 15v-2c0-.554-.446-1-1-1h-1c0-.554-.446-1-1-1zm0 1h8v10h-8zm1 1v2h6v-2zm8 0h1v2h-1zm-8 3v1h6v-1zm8 0h1v2h-1zm-8 2v1h6v-1zm8 1h1v2h-1zm-8 1v1h6v-1z" opacity=".75" fill="#fff"/><g fill-rule="evenodd"><path d="M411.57 524.8l-7-7v7z" fill="url(#c)" transform="translate(-384.57 -515.8)"/><path d="M411.57 531.8l-7-7h7z" opacity=".2" fill="url(#d)" transform="translate(-384.57 -515.8)"/></g></svg>