<?xml version="1.0" encoding="UTF-8" standalone="no"?>
<svg
   xmlns:dc="http://purl.org/dc/elements/1.1/"
   xmlns:cc="http://creativecommons.org/ns#"
   xmlns:rdf="http://www.w3.org/1999/02/22-rdf-syntax-ns#"
   xmlns:svg="http://www.w3.org/2000/svg"
   xmlns="http://www.w3.org/2000/svg"
   xmlns:xlink="http://www.w3.org/1999/xlink"
   xmlns:sodipodi="http://sodipodi.sourceforge.net/DTD/sodipodi-0.dtd"
   xmlns:inkscape="http://www.inkscape.org/namespaces/inkscape"
   width="32"
   height="32"
   version="1.1"
   id="svg33"
   sodipodi:docname="application-x-kdenlivetitle.svg"
   inkscape:version="0.92.4 (5da689c313, 2019-01-14)">
  <metadata
     id="metadata37">
    <rdf:RDF>
      <cc:Work
         rdf:about="">
        <dc:format>image/svg+xml</dc:format>
        <dc:type
           rdf:resource="http://purl.org/dc/dcmitype/StillImage" />
        <dc:title></dc:title>
      </cc:Work>
    </rdf:RDF>
  </metadata>
  <sodipodi:namedview
     pagecolor="#ffffff"
     bordercolor="#666666"
     borderopacity="1"
     objecttolerance="10"
     gridtolerance="10"
     guidetolerance="10"
     inkscape:pageopacity="0"
     inkscape:pageshadow="2"
     inkscape:window-width="1366"
     inkscape:window-height="711"
     id="namedview35"
     showgrid="false"
     inkscape:zoom="5.4469319"
     inkscape:cx="34.659008"
     inkscape:cy="16"
     inkscape:window-x="0"
     inkscape:window-y="25"
     inkscape:window-maximized="1"
     inkscape:current-layer="svg33" />
  <defs
     id="defs17">
    <linearGradient
       id="a"
       y1="61"
       y2="3"
       x2="0"
       gradientUnits="userSpaceOnUse"
       gradientTransform="matrix(0,-0.5,-0.48276,0,31.45,52)">
      <stop
         stop-color="#5e6b78"
         id="stop2" />
      <stop
         offset="1"
         stop-color="#768492"
         id="stop4" />
    </linearGradient>
    <linearGradient
       id="b"
       y1="542.8"
       x1="386.57"
       y2="520.8"
       x2="414.57"
       gradientUnits="userSpaceOnUse"
       gradientTransform="translate(-384.57,-515.8)">
      <stop
         stop-color="#383e51"
         id="stop7" />
      <stop
         offset="1"
         stop-color="#655c6f"
         stop-opacity="0"
         id="stop9" />
    </linearGradient>
    <linearGradient
       id="c"
       y1="27"
       x1="2"
       y2="5"
       x2="30"
       gradientUnits="userSpaceOnUse">
      <stop
         stop-color="#dedede"
         id="stop12" />
      <stop
         offset="1"
         stop-color="#fbfbfb"
         id="stop14" />
    </linearGradient>
    <linearGradient
       inkscape:collect="always"
       xlink:href="#a-3"
       id="linearGradient872"
       x1="35.666187"
       y1="29.845545"
       x2="35.666187"
       y2="2.091089"
       gradientUnits="userSpaceOnUse"
       gradientTransform="translate(-40.000004,-2.999994)" />
    <linearGradient
       id="a-3"
       y1="394.54001"
       y2="325.98001"
       gradientUnits="userSpaceOnUse"
       x2="0"
       gradientTransform="matrix(0.48276,0,0,0.40835,0.07,-131.12)">
      <stop
         stop-color="#ffffff"
         stop-opacity="0"
         id="stop2-6" />
      <stop
         offset="1"
         stop-color="#ffffff"
         stop-opacity=".2"
         id="stop4-7" />
    </linearGradient>
    <linearGradient
       inkscape:collect="always"
       xlink:href="#a"
       id="linearGradient918"
       gradientUnits="userSpaceOnUse"
       gradientTransform="matrix(0,-0.5,-0.48276,0,31.45,32)"
       y1="61"
       x2="0"
       y2="3" />
  </defs>
  <path
     style="fill:url(#linearGradient918)"
     d="M 4.550781,5 C 3.844304,5 3.207089,5.285098 2.746094,5.746094 2.285098,6.207089 2,6.844304 2,7.550781 v 16.898438 c 0,0.706477 0.285098,1.343692 0.746094,1.804687 C 3.207089,26.714902 3.844304,27 4.550781,27 h 22.898438 c 0.706477,0 1.343692,-0.285098 1.804687,-0.746094 C 29.714902,25.792911 30,25.155696 30,24.449219 V 12 7.550781 C 30,6.844304 29.714902,6.207089 29.253906,5.746094 28.792911,5.285098 28.155696,5 27.449219,5 Z"
     id="path910"
     inkscape:connector-curvature="0" />
  <path
     d="m 16.001426,9.9980057 a 6,6 0 0 0 -6,6.0000003 6,6 0 0 0 6,6 6,6 0 0 0 6,-6 6,6 0 0 0 -6,-6.0000003 m 0,1.0000003 a 5,5 0 0 1 5,5 5,5 0 0 1 -5,5 5,5 0 0 1 -5,-5 5,5 0 0 1 5,-5 m -2,2 v 6 l 5,-3 z"
     id="path15"
     inkscape:connector-curvature="0"
     style="color:#000000;opacity:0.75;color-interpolation:sRGB;color-interpolation-filters:linearRGB;fill:#ffffff;color-rendering:auto;image-rendering:auto;shape-rendering:auto;text-rendering:auto" />
  <path
     style="color:#000000;opacity:0.75;color-interpolation:sRGB;color-interpolation-filters:linearRGB;fill:#ffffff;stroke-width:0.8888889;color-rendering:auto;image-rendering:auto;shape-rendering:auto;text-rendering:auto"
     d="m 3.111107,8.0000057 v 1.777779 h 1.777778 v -1.777779 z"
     id="path964"
     inkscape:connector-curvature="0" />
  <path
     style="color:#000000;opacity:0.75;color-interpolation:sRGB;color-interpolation-filters:linearRGB;fill:#ffffff;stroke-width:0.8888889;color-rendering:auto;image-rendering:auto;shape-rendering:auto;text-rendering:auto"
     d="m 27.111107,8.0000057 v 1.777779 h 1.777778 v -1.777779 z"
     id="path962"
     inkscape:connector-curvature="0" />
  <path
     style="color:#000000;opacity:0.75;color-interpolation:sRGB;color-interpolation-filters:linearRGB;fill:#ffffff;stroke-width:0.8888889;color-rendering:auto;image-rendering:auto;shape-rendering:auto;text-rendering:auto"
     d="m 3.111107,11.555562 v 1.777777 h 1.777778 v -1.777777 z"
     id="path960"
     inkscape:connector-curvature="0" />
  <path
     style="color:#000000;opacity:0.75;color-interpolation:sRGB;color-interpolation-filters:linearRGB;fill:#ffffff;stroke-width:0.8888889;color-rendering:auto;image-rendering:auto;shape-rendering:auto;text-rendering:auto"
     d="m 27.111107,11.555562 v 1.777777 h 1.777778 v -1.777777 z"
     id="path958"
     inkscape:connector-curvature="0" />
  <path
     style="color:#000000;opacity:0.75;color-interpolation:sRGB;color-interpolation-filters:linearRGB;fill:#ffffff;stroke-width:0.8888889;color-rendering:auto;image-rendering:auto;shape-rendering:auto;text-rendering:auto"
     d="m 3.111107,15.111117 v 1.777778 h 1.777778 v -1.777778 z"
     id="path956"
     inkscape:connector-curvature="0" />
  <path
     style="color:#000000;opacity:0.75;color-interpolation:sRGB;color-interpolation-filters:linearRGB;fill:#ffffff;stroke-width:0.8888889;color-rendering:auto;image-rendering:auto;shape-rendering:auto;text-rendering:auto"
     d="m 27.111107,15.111117 v 1.777778 h 1.777778 v -1.777778 z"
     id="path954"
     inkscape:connector-curvature="0" />
  <path
     style="color:#000000;opacity:0.75;color-interpolation:sRGB;color-interpolation-filters:linearRGB;fill:#ffffff;stroke-width:0.8888889;color-rendering:auto;image-rendering:auto;shape-rendering:auto;text-rendering:auto"
     d="M 3.111107,18.666673 V 20.44445 H 4.888885 V 18.666673 Z"
     id="path952"
     inkscape:connector-curvature="0" />
  <path
     style="color:#000000;opacity:0.75;color-interpolation:sRGB;color-interpolation-filters:linearRGB;fill:#ffffff;stroke-width:0.8888889;color-rendering:auto;image-rendering:auto;shape-rendering:auto;text-rendering:auto"
     d="m 27.111107,18.666673 v 1.777777 h 1.777778 v -1.777777 z"
     id="path950"
     inkscape:connector-curvature="0" />
  <path
     style="color:#000000;opacity:0.75;color-interpolation:sRGB;color-interpolation-filters:linearRGB;fill:#ffffff;stroke-width:0.8888889;color-rendering:auto;image-rendering:auto;shape-rendering:auto;text-rendering:auto"
     d="m 3.111107,22.222228 v 1.777778 h 1.777778 v -1.777778 z"
     id="path948"
     inkscape:connector-curvature="0" />
  <path
     style="color:#000000;opacity:0.75;color-interpolation:sRGB;color-interpolation-filters:linearRGB;fill:#ffffff;stroke-width:0.8888889;color-rendering:auto;image-rendering:auto;shape-rendering:auto;text-rendering:auto"
     d="m 27.111107,22.222228 v 1.777778 h 1.777778 v -1.777778 z"
     id="path17"
     inkscape:connector-curvature="0" />
  <rect
     style="opacity:0.5;fill:url(#linearGradient872);fill-opacity:1;fill-rule:nonzero;stroke:none;stroke-width:2;stroke-linejoin:miter;stroke-miterlimit:4;stroke-dasharray:none;stroke-opacity:1"
     id="rect843-3"
     width="28"
     height="22"
     x="2.0000038"
     y="4.9999943"
     ry="2.5504601" />
  <path
     style="opacity:1;fill:#2e3132;fill-opacity:0.29411765;fill-rule:nonzero;stroke:none;stroke-width:2;stroke-linejoin:miter;stroke-miterlimit:4;stroke-dasharray:none;stroke-opacity:1"
     d="m 29.999996,23.562506 c 0,0.706477 -0.285098,1.343692 -0.746094,1.804688 -0.460995,0.460995 -1.09821,0.746093 -1.804687,0.746093 H 4.550777 C 3.8443,26.113287 3.207085,25.828189 2.74609,25.367194 2.285094,24.906198 1.999996,24.268983 1.999996,23.562506 v 0.886719 c 0,1.412955 1.137826,2.550781 2.550781,2.550781 h 22.898438 c 1.412955,0 2.550781,-1.137826 2.550781,-2.550781 z"
     id="path941"
     inkscape:connector-curvature="0" />
  <path
     style="opacity:1;fill:#ffffff;fill-opacity:0.41176471;fill-rule:nonzero;stroke:none;stroke-width:2;stroke-linejoin:miter;stroke-miterlimit:4;stroke-dasharray:none;stroke-opacity:1"
     d="m 4.550777,5.0000057 c -1.412955,0 -2.550781,1.1378264 -2.550781,2.550781 v 0.886719 c 0,-0.706477 0.285098,-1.343692 0.746094,-1.8046875 C 3.207085,6.1718225 3.8443,5.8867245 4.550777,5.8867245 h 22.898438 c 0.706477,0 1.343692,0.285098 1.804687,0.7460937 0.460996,0.4609955 0.746094,1.0982105 0.746094,1.8046875 v -0.886719 c 0,-1.4129546 -1.137826,-2.550781 -2.550781,-2.550781 z"
     id="rect843-3-6"
     inkscape:connector-curvature="0" />
</svg>
