<svg xmlns="http://www.w3.org/2000/svg" xmlns:xlink="http://www.w3.org/1999/xlink" width="32" height="32"><defs><linearGradient gradientTransform="matrix(.5 0 0 -.48276 8 31.45)" gradientUnits="userSpaceOnUse" x2="0" y2="3" y1="61" id="a"><stop offset="0" stop-color="#9b59b6"/><stop stop-color="#8e44ad" offset="1"/></linearGradient><linearGradient id="c" y1="518.04" y2="524.8" x2="0" gradientUnits="userSpaceOnUse"><stop stop-color="#d3bdd7"/><stop offset="1" stop-color="#e8d9eb"/></linearGradient><linearGradient id="d" y1="524.8" x1="404.57" y2="531.8" x2="411.57" gradientUnits="userSpaceOnUse"><stop stop-color="#383e51"/><stop offset="1" stop-color="#655c6f" stop-opacity="0"/></linearGradient><linearGradient xlink:href="#a" id="b" x1="5" y1="30" x2="5" y2="2" gradientUnits="userSpaceOnUse" gradientTransform="translate(-20)"/></defs><path d="M20 2H8C6.338 2 5 3.338 5 5v22c0 1.662 1.338 3 3 3h16c1.662 0 3-1.338 3-3V9z" fill="url(#b)"/><path d="M8 2a2.99 2.99 0 00-2.123.877c-.031.031-.02.09-.05.123H20V2z" color="#000" opacity=".5" fill="#fff"/><path d="M5.826 29c.03.033.02.092.051.123A2.99 2.99 0 008 30h16a2.99 2.99 0 002.123-.877c.031-.031.02-.09.05-.123z" color="#000" opacity=".25"/><g fill-rule="evenodd"><path d="M411.57 524.8l-7-7v7z" fill="url(#c)" transform="translate(-384.57 -515.8)"/><path d="M411.57 531.8l-7-7h7z" opacity=".2" fill="url(#d)" transform="translate(-384.57 -515.8)"/></g><path d="M16.001 11.998a6 2 0 00-6 2v4a6 2 0 005 1.97v2.03h-2v-1h-3v3h3v-1h6v1h3v-3h-3v1h-2v-2.03a6 2 0 005-1.97h-1a5 1 0 01-5 1 5 1 0 01-5-1V15.1a6 2 0 005 .898v-1a5 1 0 01-5-1 5 1 0 015-1zm1 0v3h1v-1h.5c.831 0 1.5.669 1.5 1.5s-.669 1.5-1.5 1.5h-1.5v1h1.5c1.385 0 2.5-1.115 2.5-2.5s-1.115-2.5-2.5-2.5h1.5v-1zm-6 10h1v1h-1zm9 0h1v1h-1z" fill="#e8d9eb"/></svg>