<svg xmlns="http://www.w3.org/2000/svg" xmlns:xlink="http://www.w3.org/1999/xlink" width="32" height="32"><defs><linearGradient id="c" y1="17" x1="47" y2="24" gradientUnits="userSpaceOnUse" x2="54" gradientTransform="translate(-27 -8)"><stop stop-color="#060606"/><stop offset="1" stop-opacity="0"/></linearGradient><linearGradient xlink:href="#a" id="b" x1="5" y1="30" x2="5" y2="2" gradientUnits="userSpaceOnUse" gradientTransform="translate(-20)"/><linearGradient id="a" y1="392.36" y2="365.36" x2="0" gradientUnits="userSpaceOnUse" gradientTransform="translate(309.57 152.44)"><stop stop-color="#fff" stop-opacity="0"/><stop offset="1" stop-color="#fff" stop-opacity=".2"/></linearGradient></defs><path d="M20 2H8C6.338 2 5 3.338 5 5v22c0 1.662 1.338 3 3 3h16c1.662 0 3-1.338 3-3V9z" fill="#555"/><path d="M8 2a2.99 2.99 0 00-2.123.877c-.031.031-.02.09-.05.123H20V2z" color="#000" opacity=".5" fill="#fff"/><path d="M5.826 29c.03.033.02.092.051.123A2.99 2.99 0 008 30h16a2.99 2.99 0 002.123-.877c.031-.031.02-.09.05-.123z" color="#000" opacity=".25"/><path d="M20 2H8C6.338 2 5 3.338 5 5v22c0 1.662 1.338 3 3 3h16c1.662 0 3-1.338 3-3V9z" opacity=".4" fill="url(#b)"/><path d="M27 9l-7-7v7z" color="#000" opacity=".5" fill="#fff" fill-rule="evenodd"/><path d="M20 9l7 7V9z" opacity=".4" fill="url(#c)" fill-rule="evenodd"/><path d="M18.99 16.11c.019-.152.033-.306.033-.463 0-.157-.014-.311-.033-.463l1-.785a.237.237 0 00.057-.304l-.949-1.644a.234.234 0 00-.289-.102l-1.182.477a3.618 3.618 0 00-.802-.467l-.178-1.258a.243.243 0 00-.237-.199h-1.898a.24.24 0 00-.235.199l-.178 1.258a3.542 3.542 0 00-.802.467l-1.182-.477a.237.237 0 00-.289.102l-.949 1.644a.239.239 0 00.057.304l1 .785a3.723 3.723 0 00-.033.463c0 .157.014.311.033.463l-1 .785a.237.237 0 00-.057.304l.949 1.644a.234.234 0 00.289.102l1.182-.477c.244.187.513.346.802.467l.178 1.258a.239.239 0 00.235.199h1.898a.24.24 0 00.235-.199l.178-1.258c.289-.121.558-.278.802-.467l1.182.477c.107.04.23 0 .289-.102l.949-1.644a.239.239 0 00-.057-.304zm-3.526 1.198a1.66 1.66 0 110-3.322 1.66 1.66 0 110 3.322" fill="#343434"/><path d="M17.99 15.11c.019-.152.033-.306.033-.463 0-.157-.014-.311-.033-.463l1-.785a.237.237 0 00.057-.304l-.949-1.644a.234.234 0 00-.289-.102l-1.182.477a3.618 3.618 0 00-.802-.467l-.178-1.258a.243.243 0 00-.237-.199h-1.898a.24.24 0 00-.235.199l-.178 1.258a3.542 3.542 0 00-.802.467l-1.182-.477a.237.237 0 00-.289.102l-.949 1.644a.239.239 0 00.057.304l1 .785a3.723 3.723 0 00-.033.463c0 .157.014.311.033.463l-1 .785a.237.237 0 00-.057.304l.949 1.644a.234.234 0 00.289.102l1.182-.477c.244.187.513.346.802.467l.178 1.258a.239.239 0 00.235.199h1.898a.24.24 0 00.235-.199l.178-1.258c.289-.121.558-.278.802-.467l1.182.477c.107.04.23 0 .289-.102l.949-1.644a.239.239 0 00-.057-.304zm-3.526 1.198a1.66 1.66 0 110-3.322 1.66 1.66 0 110 3.322" fill="#e0e0e0"/><path d="M21.7 24.5c.065-.091.129-.185.184-.286.055-.101.1-.205.141-.309l.921-.153a.172.172 0 00.143-.175l-.033-1.39a.173.173 0 00-.15-.167l-.927-.108a2.668 2.668 0 00-.351-.582l.327-.871a.178.178 0 00-.083-.211l-1.22-.666a.175.175 0 00-.221.046l-.555.746a2.57 2.57 0 00-.679.019l-.592-.721a.174.174 0 00-.222-.036l-1.187.724a.174.174 0 00-.07.215l.368.856a2.792 2.792 0 00-.184.286c-.055.101-.1.205-.141.309l-.919.154a.172.172 0 00-.143.175l.033 1.39a.173.173 0 00.15.167l.927.108c.091.206.208.402.351.582l-.327.871a.175.175 0 00.081.21l1.22.666c.076.042.17.019.221-.046l.555-.746c.228.024.456.017.679-.019l.592.721a.174.174 0 00.222.036l1.187-.724a.174.174 0 00.07-.215zm-2.686-.467a1.215 1.215 0 111.163-2.134 1.215 1.215 0 01-1.163 2.134" fill="#343434"/><path d="M20.7 23.5c.065-.091.129-.185.184-.286.055-.101.1-.205.141-.309l.921-.153a.172.172 0 00.143-.175l-.033-1.39a.173.173 0 00-.15-.167l-.927-.108a2.668 2.668 0 00-.351-.582l.327-.871a.178.178 0 00-.083-.211l-1.22-.666a.175.175 0 00-.221.046l-.555.746a2.57 2.57 0 00-.679.019l-.592-.721a.174.174 0 00-.222-.036l-1.187.724a.174.174 0 00-.07.215l.368.856a2.792 2.792 0 00-.184.286c-.055.101-.1.205-.141.309l-.919.154a.172.172 0 00-.143.175l.033 1.39a.173.173 0 00.15.167l.927.108c.091.206.208.402.351.582l-.327.871a.175.175 0 00.081.21l1.22.666c.076.042.17.019.221-.046l.555-.746c.228.024.456.017.679-.019l.592.721a.174.174 0 00.222.036l1.187-.724a.174.174 0 00.07-.215zm-2.686-.467a1.215 1.215 0 111.163-2.134 1.215 1.215 0 01-1.163 2.134" fill="#e0e0e0"/></svg>