<svg xmlns="http://www.w3.org/2000/svg" xmlns:xlink="http://www.w3.org/1999/xlink" height="32" width="32"><defs><linearGradient xlink:href="#a" id="b" x1="5" y1="30" x2="5" y2="2" gradientUnits="userSpaceOnUse" gradientTransform="translate(-20)"/><linearGradient id="a" y1="392.36" y2="365.36" x2="0" gradientUnits="userSpaceOnUse" gradientTransform="translate(309.57 152.44)"><stop stop-color="#fff" stop-opacity="0"/><stop offset="1" stop-color="#fff" stop-opacity=".2"/></linearGradient></defs><linearGradient id="c" gradientUnits="userSpaceOnUse" x1="404.57" x2="411.57" y1="524.8" y2="531.8"><stop offset="0" stop-color="#060606"/><stop offset="1" stop-opacity="0"/></linearGradient><path d="M20 2H8C6.338 2 5 3.338 5 5v22c0 1.662 1.338 3 3 3h16c1.662 0 3-1.338 3-3V9z" fill="#326197"/><path d="M8 2a2.99 2.99 0 00-2.123.877c-.031.031-.02.09-.05.123H20V2z" color="#000" opacity=".5" fill="#fff"/><path d="M5.826 29c.03.033.02.092.051.123A2.99 2.99 0 008 30h16a2.99 2.99 0 002.123-.877c.031-.031.02-.09.05-.123z" color="#000" opacity=".25"/><path d="M20 2H8C6.338 2 5 3.338 5 5v22c0 1.662 1.338 3 3 3h16c1.662 0 3-1.338 3-3V9z" opacity=".4" fill="url(#b)"/><g fill-rule="evenodd"><path d="M27 9l-7-7v7z" opacity=".5" fill="#fff"/><path d="M404.57 524.8l7 7v-7z" opacity=".2" fill="url(#c)" transform="translate(-384.57 -515.8)"/></g><path d="M16.69 12.24l-1.533 9.013-1.549-3.274L9.14 20.54a8.061 8.092 0 00.121.355l3.893-1.8L15.526 24l1.81-11.238 5.524-.105a8.061 8.092 0 00-.281-.322z" fill="#fff" opacity=".9"/></svg>