<svg xmlns="http://www.w3.org/2000/svg" xmlns:xlink="http://www.w3.org/1999/xlink" width="32" height="32"><defs><linearGradient id="a"><stop stop-color="#383e51"/><stop offset="1" stop-color="#655c6f" stop-opacity="0"/></linearGradient><linearGradient xlink:href="#a" id="d" y1="31" x1="54" y2="16.5" x2="39.5" gradientUnits="userSpaceOnUse" gradientTransform="matrix(0 -.48276 -.48276 0 419.537 550.867)"/><linearGradient xlink:href="#b" id="c" x1="5" y1="30" x2="5" y2="2" gradientUnits="userSpaceOnUse" gradientTransform="translate(364.571 515.798)"/><linearGradient id="b" y1="392.36" y2="365.36" x2="0" gradientUnits="userSpaceOnUse" gradientTransform="translate(309.57 152.44)"><stop stop-color="#fff" stop-opacity="0"/><stop offset="1" stop-color="#fff" stop-opacity=".2"/></linearGradient></defs><path d="M20 2H8C6.338 2 5 3.338 5 5v22c0 1.662 1.338 3 3 3h16c1.662 0 3-1.338 3-3V9z" fill="#8542c2"/><path d="M8 2a2.99 2.99 0 00-2.123.877c-.031.031-.02.09-.05.123H20V2z" color="#000" opacity=".5" fill="#fff"/><path d="M5.826 29c.03.033.02.092.051.123A2.99 2.99 0 008 30h16a2.99 2.99 0 002.123-.877c.031-.031.02-.09.05-.123z" color="#000" opacity=".25"/><path d="M404.571 517.798h-12c-1.662 0-3 1.338-3 3v22c0 1.662 1.338 3 3 3h16c1.662 0 3-1.338 3-3v-18z" opacity=".4" fill="url(#c)" transform="translate(-384.571 -515.798)"/><path d="M27 9l-7-7v7z" fill-rule="evenodd" opacity=".7"/><path d="M411.571 531.798l-7-7h7z" opacity=".2" fill="url(#d)" fill-rule="evenodd" transform="translate(-384.571 -515.798)"/><path style="line-height:normal;-inkscape-font-specification:Sans;text-indent:0;text-align:start;text-decoration-line:none;text-transform:none;block-progression:tb;marker:none" d="M13 12a1 1 0 00-1 1 1 1 0 001 1 1 1 0 001-1 1 1 0 00-1-1zm5 0l-1.938 1.563 2.594 3.218-2.437 2.438L18 21l4-4-4-5zm-6.5 4a1.5 1.5 0 00-1.5 1.5 1.5 1.5 0 001.5 1.5 1.5 1.5 0 001.5-1.5 1.5 1.5 0 00-1.5-1.5zm3 5a1.5 1.5 0 00-1.5 1.5 1.5 1.5 0 001.5 1.5 1.5 1.5 0 001.5-1.5 1.5 1.5 0 00-1.5-1.5z" color="#000" font-weight="400" font-family="Sans" overflow="visible" opacity=".7"/></svg>