<svg xmlns="http://www.w3.org/2000/svg" xmlns:xlink="http://www.w3.org/1999/xlink" width="32" height="32"><defs><linearGradient id="c" y1="524.8" x1="404.57" y2="531.8" x2="411.57" gradientUnits="userSpaceOnUse" gradientTransform="translate(-384.57 -515.8)"><stop stop-color="#383e51"/><stop offset="1" stop-color="#655c6f" stop-opacity="0"/></linearGradient><linearGradient id="a" y1="392.36" y2="365.36" x2="0" gradientUnits="userSpaceOnUse" gradientTransform="translate(309.57 152.44)"><stop stop-color="#fff" stop-opacity="0"/><stop offset="1" stop-color="#fff" stop-opacity=".2"/></linearGradient><linearGradient xlink:href="#a" id="b" gradientUnits="userSpaceOnUse" gradientTransform="translate(-20)" x1="5" y1="30" x2="5" y2="2"/></defs><path d="M8 2C6.338 2 5 3.338 5 5v24l2.75-2 2.75 2 2.75-2L16 29l2.75-2 2.75 2 2.75-2L27 29V9l-7-7H8z" fill="#ccc"/><path d="M8 2a2.99 2.99 0 00-2.123.877c-.031.031-.02.09-.05.123H20V2z" color="#000" opacity=".5" fill="#fff"/><path d="M8 2C6.338 2 5 3.338 5 5v25h22V9l-7-7H8z" opacity=".4" fill="url(#b)"/><path d="M27 9l-7-7v7z" opacity=".5" fill="#fff" fill-rule="evenodd"/><path d="M27 16l-7-7h7z" opacity=".2" fill="url(#c)" fill-rule="evenodd"/><path d="M16 11a6 6 0 100 12 6 6 0 000-12m0 1a5 5 0 11-.001 10.001A5 5 0 0116 12m-1 1v5h5v-1h-4v-4z" opacity=".5"/><path d="M7.75 27L5 29v1l2.75-2 2.75 2 2.75-2L16 30l2.75-2 2.75 2 2.75-2L27 30v-1l-2.75-2-2.75 2-2.75-2L16 29l-2.75-2-2.75 2z" color="#000" opacity=".25"/></svg>