<svg xmlns="http://www.w3.org/2000/svg" xmlns:xlink="http://www.w3.org/1999/xlink" width="32" height="32"><defs><linearGradient id="b" y1="17" y2="24" x1="47" x2="54" gradientUnits="userSpaceOnUse" gradientTransform="translate(-27 -8)"><stop stop-color="#060606"/><stop offset="1" stop-opacity="0"/></linearGradient><linearGradient xlink:href="#a" id="c" x1="5" y1="30" x2="5" y2="2" gradientUnits="userSpaceOnUse" gradientTransform="translate(-20)"/><linearGradient id="a" y1="392.36" y2="365.36" x2="0" gradientUnits="userSpaceOnUse" gradientTransform="translate(309.57 152.44)"><stop stop-color="#fff" stop-opacity="0"/><stop offset="1" stop-color="#fff" stop-opacity=".2"/></linearGradient></defs><path d="M20 2H8C6.338 2 5 3.338 5 5v22c0 1.662 1.338 3 3 3h16c1.662 0 3-1.338 3-3V9z" fill="#4040bf"/><path d="M27 9l-7-7v7z" color="#000" opacity=".5" fill="#fff" fill-rule="evenodd"/><path d="M20 9l7 7V9z" opacity=".1" fill="url(#b)" fill-rule="evenodd"/><path d="M12 23c-.554 0-1-.446-1-1V12c0-.554.446-1 1-1h8c.554 0 1 .446 1 1v10c0 .554-.446 1-1 1zm0-1h8V12h-8zm1-2v-1h6v1zm0-2v-1h6v1zm0-2v-1h6v1zm0-2v-1h6v1z" color="#000" opacity=".75" fill="#fff"/><path d="M8 2a2.99 2.99 0 00-2.123.877c-.031.031-.02.09-.05.123H20V2z" color="#000" opacity=".5" fill="#fff"/><path d="M5.826 29c.03.033.02.092.051.123A2.99 2.99 0 008 30h16a2.99 2.99 0 002.123-.877c.031-.031.02-.09.05-.123z" color="#000" opacity=".25"/><path d="M20 2H8C6.338 2 5 3.338 5 5v22c0 1.662 1.338 3 3 3h16c1.662 0 3-1.338 3-3V9z" opacity=".4" fill="url(#c)"/></svg>