<svg xmlns="http://www.w3.org/2000/svg" xmlns:xlink="http://www.w3.org/1999/xlink" width="32" height="32"><defs><linearGradient id="c" y1="524.8" x1="404.57" y2="531.8" x2="411.57" gradientUnits="userSpaceOnUse" gradientTransform="translate(-384.57 -515.8)"><stop stop-color="#383e51"/><stop offset="1" stop-color="#655c6f" stop-opacity="0"/></linearGradient><linearGradient xlink:href="#a" id="b" x1="5" y1="30" x2="5" y2="2" gradientUnits="userSpaceOnUse" gradientTransform="translate(-20)"/><linearGradient id="a" y1="392.36" y2="365.36" x2="0" gradientUnits="userSpaceOnUse" gradientTransform="translate(309.57 152.44)"><stop stop-color="#fff" stop-opacity="0"/><stop offset="1" stop-color="#fff" stop-opacity=".2"/></linearGradient></defs><path d="M20 2H8C6.338 2 5 3.338 5 5v22c0 1.662 1.338 3 3 3h16c1.662 0 3-1.338 3-3V9z" fill="#2cbd2c"/><path d="M20.91 10.525a.37.37 0 00-.205.059c-.035.024-.19.208-.342.408l-.275.367-.1-.068c-.138-.093-.273-.113-.398-.057-.087.039-.29.3-1.631 2.065-.846 1.112-1.535 2.03-1.533 2.045.001.012.34.28.752.592l.752.57 1-1.317c.55-.725 1.008-1.312 1.02-1.304.034.026.095.597.081.781-.005.1-.042.281-.082.4-.07.214-.079.227-1.318 1.866-.686.906-1.255 1.674-1.266 1.705-.03.084.001.241.065.332.105.153.37.201.52.093.103-.074 2.558-3.342 2.636-3.513.229-.487.279-1.113.139-1.729a4 4 0 00-.2-.646c-.02-.046.015-.105.245-.41.217-.292.267-.374.271-.45.01-.16-.04-.25-.197-.375l-.147-.115.295-.392c.242-.324.293-.409.297-.485a.394.394 0 00-.379-.422zm-4.959 5.428c-.007.001-.908 1.186-2.004 2.631-1.763 2.326-2.014 2.67-2.177 2.967-.324.59-.678 1.49-.915 2.312-.153.528-.159.479.051.367.648-.345 1.495-.906 1.989-1.32.482-.405.564-.51 2.613-3.209l1.97-2.6-.757-.576a25.207 25.207 0 00-.77-.572zm.217 6.026a1.116 1.116 0 00-.26.011c-.304.065-.643.329-.806.633a2.833 2.833 0 00-.159.393 4.053 4.053 0 01-.082.255c-.023.03-.607.17-.949.229-.806.141-1.026.194-1.105.268-.155.144-.035.286.185.222.06-.018.307-.066.547-.107.24-.041.608-.117.816-.164.208-.05.384-.083.393-.074.009.009-.026.177-.082.373l-.1.351-.22.098a3.03 3.03 0 00-.383.205c-.275.182-.33.41-.137.557.106.079.4.075.58-.004.161-.073.253-.177.38-.444.066-.138.118-.21.16-.218.031-.01.323-.067.646-.135.322-.064.614-.126.652-.135.062-.015.068-.01.05.047a1.818 1.818 0 01-.12.228.658.658 0 00-.1.243c0 .09.077.182.139.158a.264.264 0 01.068-.018c.015 0 .08-.046.145-.105.12-.108.41-.64.41-.75 0-.056.044-.072.07-.028.01.015.076.043.149.06.103.027.132.048.132.095 0 .09.15.222.282.248a.698.698 0 00.375-.063c.05-.02.053-.014.035.063a1.959 1.959 0 01-.19.334c-.193.287-.427.744-.488.947-.05.173-.028.302.063.363.082.053.217.03.287-.047.062-.067.394-.773.517-1.095.088-.226.13-.287.328-.498.164-.173.217-.216.182-.149-.059.126-.055.223.01.281.138.126.337.005.51-.312.103-.188.18-.245.56-.424l.2-.09-.022.108a2.27 2.27 0 01-.148.369c-.138.29-.164.475-.082.633.056.108.112.11.382.017.375-.126.867-.415.993-.582.173-.234.225-.46.119-.537-.108-.079-.169-.046-.307.156-.185.275-.415.489-.635.598-.103.053-.192.087-.2.078-.013-.012.223-.641.349-.937a.595.595 0 00.047-.17c0-.082-.105-.176-.192-.176-.04 0-.234.08-.428.18-.402.199-.373.216-.271-.159.062-.23.04-.293-.102-.308-.135-.015-.187.03-.31.25-.08.149-.185.272-.387.459-.267.246-.278.255-.34.21-.094-.066-.147-.058-.375.057-.223.111-.295.126-.351.059-.047-.056.025-.085.433-.164.396-.076.446-.098.446-.18 0-.132-.11-.257-.303-.342-.334-.149-.373-.159-.52-.12-.158.04-.391.268-.423.408-.032.147-.133.103-.133-.06 0-.066-.082-.237-.13-.267-.1-.067-.259.08-.382.35l-.098.207-.216.047a75.83 75.83 0 01-1.208.246c-.07.012-.083.006-.068-.035.012-.03.047-.157.082-.29.091-.362.118-.41.25-.456.158-.056.691-.285.828-.356a1.74 1.74 0 00.293-.22c.296-.275.344-.53.133-.717a.871.871 0 00-.17-.117.927.927 0 00-.244-.041zm-.145.345c.155.01.216.024.26.07.06.06.06.063.006.174a.688.688 0 01-.22.223c-.18.123-.738.35-.756.309-.024-.067.154-.469.27-.598.151-.173.196-.192.44-.178zm-1.654 2.453c.022.002.021.02.004.055-.038.073-.138.127-.193.107-.064-.026-.047-.063.056-.115a.34.34 0 01.133-.047z" opacity=".4"/><path d="M8 2a2.99 2.99 0 00-2.123.877c-.031.031-.02.09-.05.123H20V2z" color="#000" opacity=".5" fill="#fff"/><path d="M5.826 29c.03.033.02.092.051.123A2.99 2.99 0 008 30h16a2.99 2.99 0 002.123-.877c.031-.031.02-.09.05-.123z" color="#000" opacity=".25"/><path d="M20 2H8C6.338 2 5 3.338 5 5v22c0 1.662 1.338 3 3 3h16c1.662 0 3-1.338 3-3V9z" opacity=".4" fill="url(#b)"/><path d="M27 9l-7-7v7z" opacity=".4" fill-rule="evenodd"/><path d="M27 16l-7-7h7z" opacity=".2" fill="url(#c)" fill-rule="evenodd"/></svg>