<svg xmlns="http://www.w3.org/2000/svg" xmlns:xlink="http://www.w3.org/1999/xlink" viewBox="0 0 32 32"><defs><linearGradient id="c" y1="9" x1="20" y2="16" x2="27" gradientUnits="userSpaceOnUse"><stop stop-color="#383e51"/><stop offset="1" stop-color="#655c6f" stop-opacity="0"/></linearGradient><linearGradient xlink:href="#a" id="b" x1="5" y1="30" x2="5" y2="2" gradientUnits="userSpaceOnUse" gradientTransform="translate(-20)"/><linearGradient id="a" y1="392.36" y2="365.36" x2="0" gradientUnits="userSpaceOnUse" gradientTransform="translate(309.57 152.44)"><stop stop-color="#fff" stop-opacity="0"/><stop offset="1" stop-color="#fff" stop-opacity=".2"/></linearGradient></defs><path d="M20 2H8C6.338 2 5 3.338 5 5v22c0 1.662 1.338 3 3 3h16c1.662 0 3-1.338 3-3V9z" fill="#51db51"/><path d="M8 2a2.99 2.99 0 00-2.123.877c-.031.031-.02.09-.05.123H20V2z" color="#000" opacity=".5" fill="#fff"/><path d="M5.826 29c.03.033.02.092.051.123A2.99 2.99 0 008 30h16a2.99 2.99 0 002.123-.877c.031-.031.02-.09.05-.123z" color="#000" opacity=".25"/><path d="M20 2H8C6.338 2 5 3.338 5 5v22c0 1.662 1.338 3 3 3h16c1.662 0 3-1.338 3-3V9z" opacity=".4" fill="url(#b)"/><g fill-rule="evenodd"><path opacity=".5" fill="#fff" d="M27 9l-7-7v7z"/><path opacity=".2" fill="url(#c)" d="M27 16l-7-7h7z"/></g><g fill="#fff"><path opacity=".75" d="M18.04 11.967a3.925 3.925 0 00-3.926 3.924 3.9 3.9 0 00.365 1.646l-.672.795-.059.746c-.006.006-.73.025-.73.025l-.373.271s.003.812 0 .801l-.002.002-.799.014-.338.385-.008.729s-.688-.043-.758.021c-.441.406-.738.695-.738.695l.004 1.908.373-.002 5.084-5.082c.305.266.658.471 1.035.633.475.205.991.334 1.541.334a3.925 3.925 0 003.928-3.922 3.926 3.926 0 00-3.928-3.924m.75 1.869a1.309 1.309 0 110 2.618 1.309 1.309 0 010-2.618"/><path opacity=".5" d="M18.793 13.836a1.309 1.309 0 100 2.618 1.309 1.309 0 000-2.618m0 .748a.56.56 0 110 1.122.56.56 0 010-1.122m-3.326 4.262l-5.086 5.084h1.869l4.439-4.361a3.926 3.926 0 01-1.223-.723"/></g></svg>