<svg xmlns="http://www.w3.org/2000/svg" xmlns:xlink="http://www.w3.org/1999/xlink" width="32" height="32"><defs><linearGradient id="a" y1="392.36" y2="320.48" gradientUnits="userSpaceOnUse" x2="0" gradientTransform="matrix(.5 0 0 .42294 378.57 378.93)"><stop stop-color="#fff" stop-opacity="0"/><stop offset="1" stop-color="#fff" stop-opacity=".2"/></linearGradient><linearGradient id="b" y1="17" x1="47" y2="24" gradientUnits="userSpaceOnUse" x2="54" gradientTransform="translate(360.57 510.8)"><stop stop-color="#060606"/><stop offset="1" stop-opacity="0"/></linearGradient><linearGradient xlink:href="#a" id="c" x1="-1.511" y1="28.888" x2="-1.511" y2="-1.163" gradientUnits="userSpaceOnUse" gradientTransform="translate(-12)"/></defs><path d="M23 5H5C3.338 5 2 6.338 2 8v19c0 1.662 1.338 3 3 3h22c1.662 0 3-1.338 3-3V12z" fill="#fc7676"/><g fill-rule="evenodd"><path d="M30 12l-7-7v7z" color="#000" opacity=".6"/><path d="M407.57 527.8l7 7v-7z" opacity=".2" fill="url(#b)" transform="translate(-384.57 -515.8)"/></g><path d="M2.826 29c.03.033.02.092.051.123A2.99 2.99 0 005 30h22a2.99 2.99 0 002.123-.877c.031-.031.02-.09.05-.123z" color="#000" opacity=".25"/><path d="M5 5a2.99 2.99 0 00-2.123.877c-.031.031-.02.09-.05.123H23V5H5z" color="#000" opacity=".3" fill="#fff"/><path d="M7.75 8.49c-.041-.003-.073.004-.093.025-.661.661 8.376 8.957 8.376 8.957l3.386 3.222c-1.092 2.548 2.33 2.589 3.068 3.881.324.567-.07 1.336-.66 1.375 1.172.387 2.75-1.863 2.275-3.134-.566-1.517-1.14-2.175-2.218-2.635-.445-.19-1.575-.205-1.97.017l-3.138-3.469S9.033 8.601 7.746 8.49m1.427 8.05c-.3.001-.392.435-.392 1.028.057 1.174.799 4.598 4.486 7.092 3.105 2.101 8.787 1.343 8.695.149-1.249-1.552-3.34-.584-3.367-4.3-1.215.009-2.524-.18-2.475.331.204 2.143-3.193.597-4.51-1.588-1.322-2-2.051-2.715-2.437-2.713m4.841 2.643c-.201 0-.363.066-.44.199-.153.265.095.697.556.963.461.266.959.267 1.112.001.153-.265-.096-.697-.557-.963-.231-.133-.671.001-.671-.2" opacity=".6"/><path d="M23 5H5C3.338 5 2 6.338 2 8v19c0 1.662 1.338 3 3 3h22c1.662 0 3-1.338 3-3V12z" opacity=".429" fill="url(#c)"/><path d="M23 5H5C3.338 5 2 6.338 2 8v19c0 1.662 1.338 3 3 3h22c1.662 0 3-1.338 3-3V12z" fill="none"/></svg>