<svg xmlns="http://www.w3.org/2000/svg" xmlns:xlink="http://www.w3.org/1999/xlink" width="32" height="32"><defs><linearGradient id="c" y1="524.8" x1="404.57" y2="531.8" x2="411.57" gradientUnits="userSpaceOnUse"><stop stop-color="#383e51"/><stop offset="1" stop-color="#655c6f" stop-opacity="0"/></linearGradient><linearGradient xlink:href="#a" id="b" x1="5" y1="30" x2="5" y2="2" gradientUnits="userSpaceOnUse" gradientTransform="translate(-20)"/><linearGradient id="a" y1="392.36" y2="365.36" x2="0" gradientUnits="userSpaceOnUse" gradientTransform="translate(309.57 152.44)"><stop stop-color="#fff" stop-opacity="0"/><stop offset="1" stop-color="#fff" stop-opacity=".2"/></linearGradient></defs><path d="M20 2H8C6.338 2 5 3.338 5 5v22c0 1.662 1.338 3 3 3h16c1.662 0 3-1.338 3-3V9z" fill="#8542c2"/><path d="M8 2a2.99 2.99 0 00-2.123.877c-.031.031-.02.09-.05.123H20V2z" color="#000" opacity=".5" fill="#fff"/><path d="M5.826 29c.03.033.02.092.051.123A2.99 2.99 0 008 30h16a2.99 2.99 0 002.123-.877c.031-.031.02-.09.05-.123z" color="#000" opacity=".25"/><path d="M20 2H8C6.338 2 5 3.338 5 5v22c0 1.662 1.338 3 3 3h16c1.662 0 3-1.338 3-3V9z" opacity=".4" fill="url(#b)"/><path opacity=".5" fill="#fff" d="M5 3h15V2H5z"/><path opacity=".25" d="M5 30h22v-1H5z"/><g fill-rule="evenodd"><path d="M27 9l-7-7v7z" opacity=".5" fill="#fff"/><path d="M411.57 531.8l-7-7h7z" opacity=".2" fill="url(#c)" transform="translate(-384.57 -515.8)"/></g><path d="M18.5 10L16 13h1v1h-5v8h-1l2.5 3 2.5-3h-1v-1h5v-8h1zm0 1.5l.5.5v8h-4v-1h3v-7zM13 15h4v1h-3v7l-.5.5-.5-.5v-1zm2 2h2v1h-2z" color="#4d4d4d" opacity=".75" fill="#fff"/></svg>