<svg xmlns="http://www.w3.org/2000/svg" xmlns:xlink="http://www.w3.org/1999/xlink" width="32" height="32"><defs><linearGradient xlink:href="#a" id="d" y1="31" x1="54" y2="16.5" x2="39.5" gradientUnits="userSpaceOnUse" gradientTransform="matrix(0 -.48276 -.48276 0 419.537 550.867)"/><linearGradient id="a"><stop stop-color="#383e51"/><stop offset="1" stop-color="#655c6f" stop-opacity="0"/></linearGradient><linearGradient xlink:href="#b" id="c" x1="5" y1="30" x2="5" y2="2" gradientUnits="userSpaceOnUse" gradientTransform="translate(364.571 515.798)"/><linearGradient id="b" y1="392.36" y2="365.36" x2="0" gradientUnits="userSpaceOnUse" gradientTransform="translate(309.57 152.44)"><stop stop-color="#fff" stop-opacity="0"/><stop offset="1" stop-color="#fff" stop-opacity=".2"/></linearGradient></defs><path d="M20 2H8C6.338 2 5 3.338 5 5v22c0 1.662 1.338 3 3 3h16c1.662 0 3-1.338 3-3V9z" fill="#f0a83c"/><path d="M8 2a2.99 2.99 0 00-2.123.877c-.031.031-.02.09-.05.123H20V2z" color="#000" opacity=".5" fill="#fff"/><path d="M5.826 29c.03.033.02.092.051.123A2.99 2.99 0 008 30h16a2.99 2.99 0 002.123-.877c.031-.031.02-.09.05-.123z" color="#000" opacity=".25"/><path d="M404.571 517.798h-12c-1.662 0-3 1.338-3 3v22c0 1.662 1.338 3 3 3h16c1.662 0 3-1.338 3-3v-18z" opacity=".4" fill="url(#c)" transform="translate(-384.571 -515.798)"/><path d="M27 9l-7-7v7z" fill-rule="evenodd" opacity=".4"/><path d="M411.571 531.798l-7-7h7z" opacity=".2" fill="url(#d)" fill-rule="evenodd" transform="translate(-384.571 -515.798)"/><path style="line-height:125%;-inkscape-font-specification:'Oxygen Italic'" d="M14.2 22.562c-1.02 0-1.715-.495-1.53-1.753.232-1.573 1.205-2.09 4.286-2.517.023 0 .973-.157.973-.157l-.394 2.786c-.834 1.012-2.34 1.64-3.336 1.64zm3.173-.135l.046 1.303h1.32l1.205-8.427C20.314 12.742 18.809 12 16.7 12c-1.506 0-2.988.427-3.868.921l.254 1.394a8.494 8.494 0 013.429-.764c1.459 0 1.992.696 1.806 2.045l-.208 1.28-1.089.135c-2.803.427-5.536.854-5.976 3.865-.324 2.158.996 3.124 2.757 3.124a4.867 4.867 0 003.567-1.573z" font-style="italic" font-weight="400" font-family="Oxygen" letter-spacing="0" word-spacing="0" opacity=".4"/></svg>