<svg xmlns="http://www.w3.org/2000/svg" xmlns:xlink="http://www.w3.org/1999/xlink" width="32" height="32"><defs><linearGradient xlink:href="#a" id="b" x1="5" y1="30" x2="5" y2="2" gradientUnits="userSpaceOnUse" gradientTransform="translate(-20)"/><linearGradient id="a" y1="392.36" y2="365.36" x2="0" gradientUnits="userSpaceOnUse" gradientTransform="translate(309.57 152.44)"><stop stop-color="#fff" stop-opacity="0"/><stop offset="1" stop-color="#fff" stop-opacity=".2"/></linearGradient></defs><path d="M20 2H8C6.338 2 5 3.338 5 5v22c0 1.662 1.338 3 3 3h16c1.662 0 3-1.338 3-3V9z" fill="#2e6ea9"/><path d="M8 2a2.99 2.99 0 00-2.123.877c-.031.031-.02.09-.05.123H20V2z" color="#000" opacity=".5" fill="#fff"/><path d="M5.826 29c.03.033.02.092.051.123A2.99 2.99 0 008 30h16a2.99 2.99 0 002.123-.877c.031-.031.02-.09.05-.123z" color="#000" opacity=".25"/><path d="M20 2H8C6.338 2 5 3.338 5 5v22c0 1.662 1.338 3 3 3h16c1.662 0 3-1.338 3-3V9z" opacity=".4" fill="url(#b)"/><g fill-rule="evenodd" opacity=".4"><path d="M27 9l-7-7v7z"/><path d="M27 16l-7-7h7z" opacity=".2"/></g><path d="M12.69 23.89c-.239-.062-.215-.129.179-.498.679-.635.792-1.267.599-3.347-.154-1.659-.189-1.786-.448-1.647-.562.301-1.263-.087-2.06-1.138-.394-.519-.431-.672-.364-1.481.041-.496.126-1.095.188-1.331.095-.362.065-.429-.198-.429a.75.75 0 01-.507-.237c-.272-.328.213-.855.787-.855.233 0 .512-.105.619-.234.276-.332.697-.29 1.17.117.503.433.674 1.435.392 2.291-.319.968-.098 1.063.349.149.25-.511.603-.957.894-1.129.264-.156.65-.553.858-.882.208-.329.468-.656.579-.727.34-.217 1.274-.516 1.622-.519.475-.01 1.112.552 1.225 1.069.054.244.34.82.636 1.279.296.46.538.916.538 1.014 0 .098.21.443.468.767.385.485.467.729.461 1.386-.007.901-.492 2.049-.67 1.586-.056-.146-.033-.395.052-.553.177-.331.021-1.799-.171-1.607-.134.134-.221 1.566-.184 3.01.049 1.874-.042 3.64-.19 3.688-.378.12-.543-.191-.388-.732.233-.814.185-2.979-.074-3.321-.12-.158-.264-.561-.32-.896-.057-.335-.164-.646-.239-.692-.246-.152-.617.832-.617 1.635 0 .629-.095.919-.468 1.434-.528.729-.569.944-.234 1.222.261.217.312.713.087.852-.081.05-.291-.064-.468-.254-.25-.268-.321-.29-.321-.1 0 .285-.578.479-.897.3-.171-.095-.13-.18.183-.386.559-.366.505-.666-.242-1.349-.582-.532-.634-.639-.538-1.112.302-1.498.301-1.537-.048-1.537-.228 0-.329.098-.329.322 0 .177-.077.467-.172.644-.167.312-.217.563-.621 3.127-.201 1.278-.251 1.327-1.121 1.1m4.186-2.721c.202-.392.232-.727.145-1.654-.115-1.231-.2-1.274-.537-.272-.115.343-.34.791-.5.995-.371.476-.364.62.049 1.06.443.471.539.457.843-.13" opacity=".4"/></svg>