<?xml version="1.0" encoding="UTF-8" standalone="no"?>
<svg
   xmlns:dc="http://purl.org/dc/elements/1.1/"
   xmlns:cc="http://creativecommons.org/ns#"
   xmlns:rdf="http://www.w3.org/1999/02/22-rdf-syntax-ns#"
   xmlns:svg="http://www.w3.org/2000/svg"
   xmlns="http://www.w3.org/2000/svg"
   xmlns:xlink="http://www.w3.org/1999/xlink"
   xmlns:sodipodi="http://sodipodi.sourceforge.net/DTD/sodipodi-0.dtd"
   xmlns:inkscape="http://www.inkscape.org/namespaces/inkscape"
   width="32"
   height="32"
   version="1.1"
   id="svg33"
   sodipodi:docname="application-epub+zip.svg"
   inkscape:version="0.92.4 (5da689c313, 2019-01-14)">
  <metadata
     id="metadata37">
    <rdf:RDF>
      <cc:Work
         rdf:about="">
        <dc:format>image/svg+xml</dc:format>
        <dc:type
           rdf:resource="http://purl.org/dc/dcmitype/StillImage" />
        <dc:title></dc:title>
      </cc:Work>
    </rdf:RDF>
  </metadata>
  <sodipodi:namedview
     pagecolor="#ffffff"
     bordercolor="#666666"
     borderopacity="1"
     objecttolerance="10"
     gridtolerance="10"
     guidetolerance="10"
     inkscape:pageopacity="0"
     inkscape:pageshadow="2"
     inkscape:window-width="1366"
     inkscape:window-height="711"
     id="namedview35"
     showgrid="false"
     inkscape:zoom="15.40625"
     inkscape:cx="16"
     inkscape:cy="16"
     inkscape:window-x="0"
     inkscape:window-y="25"
     inkscape:window-maximized="1"
     inkscape:current-layer="svg33" />
  <defs
     id="defs9">
    <linearGradient
       id="a"
       y1="392.36"
       y2="336.36"
       gradientUnits="userSpaceOnUse"
       x2="0"
       gradientTransform="translate(268.33 166.62)">
      <stop
         stop-color="#ffffff"
         stop-opacity="0"
         id="stop2" />
      <stop
         offset="1"
         stop-color="#ffffff"
         stop-opacity=".2"
         id="stop4" />
    </linearGradient>
    <linearGradient
       xlink:href="#a"
       id="b"
       y1="392.36"
       y2="365.2"
       gradientUnits="userSpaceOnUse"
       x2="0"
       gradientTransform="translate(-39,-363.36)" />
    <linearGradient
       xlink:href="#a"
       id="c"
       y1="392.36"
       y2="336.36"
       gradientUnits="userSpaceOnUse"
       x2="0"
       gradientTransform="matrix(0.5,0,0,0.48276,-7,-159.9)" />
  </defs>
  <g
     id="g861">
    <path
       inkscape:connector-curvature="0"
       id="path862"
       d="M 5,2 V 5.6113281 26.388672 30 h 3.611328 6.462891 8.314453 C 25.389654,30 27,28.389654 27,26.388672 V 5.6113281 C 27,3.6103459 25.389654,2 23.388672,2 H 17.222656 13 8.611328 Z"
       style="color:#000000;color-interpolation:sRGB;color-interpolation-filters:linearRGB;fill:#f9d24c;color-rendering:auto;image-rendering:auto;shape-rendering:auto;text-rendering:auto" />
    <rect
       width="1"
       x="8.0000076"
       y="2.9999878"
       height="26"
       id="rect19"
       style="fill:#ffffff;fill-opacity:0.25200004" />
    <rect
       style="color:#000000;color-interpolation:sRGB;color-interpolation-filters:linearRGB;fill-opacity:0.05899999;color-rendering:auto;image-rendering:auto;shape-rendering:auto;text-rendering:auto"
       id="rect21"
       height="26"
       width="1"
       y="2.9999878"
       x="9.0000076" />
    <path
       d="M 18,19.77 14.228,15.997 18,12.228 l 1.258,1.255 -2.517,2.514 1.258,1.259 3.772,-3.773 -3.287,-3.284 c -0.267,-0.267 -0.704,-0.267 -0.971,0 l -5.312,5.313 c -0.27,0.267 -0.27,0.704 0,0.974 l 5.312,5.313 c 0.267,0.267 0.704,0.267 0.971,0 l 5.312,-5.313 c 0.27,-0.27 0.27,-0.707 0,-0.974 l -0.77,-0.77 z m 0,0"
       id="path27"
       inkscape:connector-curvature="0"
       style="opacity:0.75;fill:#ffffff" />
    <path
       d="M 5,2 V 30 H 27 V 2 h -7 z"
       id="path29"
       style="color:#000000;color-interpolation:sRGB;color-interpolation-filters:linearRGB;fill:url(#c);color-rendering:auto;image-rendering:auto;shape-rendering:auto;text-rendering:auto"
       inkscape:connector-curvature="0" />
    <path
       inkscape:connector-curvature="0"
       id="path905"
       d="m 27,25.234375 c 0,0.500245 -0.100968,0.975845 -0.283203,1.408203 -0.182235,0.432358 -0.44513,0.822083 -0.771485,1.148438 -0.326354,0.326354 -0.716079,0.589249 -1.148437,0.771484 -0.432358,0.182235 -0.907958,0.283203 -1.408203,0.283203 H 15.074219 8.611328 5 V 30 h 3.611328 6.462891 8.314453 C 25.389654,30 27,28.389654 27,26.388672 Z"
       style="color:#000000;opacity:0.25;color-interpolation:sRGB;color-interpolation-filters:linearRGB;fill:#000000;color-rendering:auto;image-rendering:auto;shape-rendering:auto;text-rendering:auto" />
    <path
       inkscape:connector-curvature="0"
       id="path862-3"
       d="M 5,2 V 3.0136719 H 8.611328 13 h 4.222656 6.166016 c 0.500245,0 0.975845,0.1009678 1.408203,0.2832031 0.432358,0.1822353 0.822083,0.4451297 1.148437,0.7714844 0.326355,0.3263546 0.58925,0.7160794 0.771485,1.1484375 C 26.899032,5.6491549 27,6.1247545 27,6.625 V 5.6113281 C 27,3.6103459 25.389654,2 23.388672,2 H 17.222656 13 8.611328 Z"
       style="color:#000000;opacity:0.5;color-interpolation:sRGB;color-interpolation-filters:linearRGB;fill:#ffffff;color-rendering:auto;image-rendering:auto;shape-rendering:auto;text-rendering:auto" />
  </g>
</svg>
