<svg xmlns="http://www.w3.org/2000/svg" xmlns:xlink="http://www.w3.org/1999/xlink" width="32" height="32"><defs><linearGradient id="c" y1="17" x1="47" y2="24" gradientUnits="userSpaceOnUse" x2="54" gradientTransform="translate(-24 -5)"><stop stop-color="#060606"/><stop offset="1" stop-opacity="0"/></linearGradient><linearGradient spreadMethod="pad" x1="0" gradientTransform="matrix(1 0 0 .84587 11 536.63)" x2="0" gradientUnits="userSpaceOnUse" y2="320.48" y1="392.36" id="a"><stop stop-opacity="0" stop-color="#fff"/><stop stop-color="#fff" offset="1"/></linearGradient><linearGradient xlink:href="#b" id="d" x1="-.978" y1="29.155" x2="-.978" y2="-1.341" gradientUnits="userSpaceOnUse" gradientTransform="translate(-20.002 .002)"/><linearGradient id="b" y1="392.36" y2="320.48" gradientUnits="userSpaceOnUse" x2="0" gradientTransform="matrix(.5 0 0 .42294 418.57 378.93)"><stop stop-color="#fff" stop-opacity="0"/><stop offset="1" stop-color="#fff" stop-opacity=".2"/></linearGradient></defs><path d="M23.002 5.002H4.998c-1.662 0-3 1.338-3 3v19c0 1.662 1.338 3 3 3h22c1.662 0 3-1.338 3-3V11.998l-6.996-6.996z" fill="#0c2d63"/><path d="M30 12l-7-7v7z" style="isolation:auto;mix-blend-mode:normal;solid-color:#000;solid-opacity:1;filter-blend-mode:normal;filter-gaussianBlur-deviation:0" fill="#1d70f7" color="#000" overflow="visible"/><path d="M23 12l7 7v-7z" opacity=".2" fill="url(#c)" fill-rule="evenodd"/><path style="isolation:auto;mix-blend-mode:normal;solid-color:#000;solid-opacity:1" d="M12.157 12.013A3.689 3.689 0 008.46 15.71c0 .675.182 1.305.496 1.848l-.003-.001.051.08c.036.058.07.117.108.172l4.894 7.757v-6.16h4.312a3.689 3.689 0 003.697-3.698 3.689 3.689 0 00-3.697-3.696zm6.16 1.232a2.464 2.464 0 012.465 2.465 2.464 2.464 0 01-2.464 2.464 2.464 2.464 0 01-2.465-2.464 2.464 2.464 0 012.465-2.465" color="#000" overflow="visible" fill="#1d70f7"/><path d="M23.002 5.002H4.998c-1.662 0-3 1.338-3 3v19c0 1.662 1.338 3 3 3h22c1.662 0 3-1.338 3-3V11.998z" fill="url(#d)"/><path d="M29.998 25.758a2.99 2.99 0 01-3 3h-22a2.99 2.99 0 01-3-3v1.244c0 1.662 1.338 3 3 3h22c1.662 0 3-1.338 3-3z" opacity=".25"/><path d="M23 5.002H4.998c-1.662 0-3 1.338-3 3v1.156a2.99 2.99 0 013-3H23z" opacity=".5" fill="#fff"/></svg>