<svg xmlns="http://www.w3.org/2000/svg" xmlns:xlink="http://www.w3.org/1999/xlink" width="32" height="32"><defs><linearGradient id="c" y1="17" x1="47" y2="24" gradientUnits="userSpaceOnUse" x2="54" gradientTransform="translate(360.57 510.8)"><stop stop-color="#060606"/><stop offset="1" stop-opacity="0"/></linearGradient><linearGradient xlink:href="#a" id="b" x1="-.978" y1="29.155" x2="-.978" y2="-1.341" gradientUnits="userSpaceOnUse" gradientTransform="translate(-20.002 .002)"/><linearGradient id="a" y1="392.36" y2="320.48" gradientUnits="userSpaceOnUse" x2="0" gradientTransform="matrix(.5 0 0 .42294 418.57 378.93)"><stop stop-color="#fff" stop-opacity="0"/><stop offset="1" stop-color="#fff" stop-opacity=".2"/></linearGradient></defs><path d="M23.002 5.002H4.998c-1.662 0-3 1.338-3 3v19c0 1.662 1.338 3 3 3h22c1.662 0 3-1.338 3-3V11.998l-6.996-6.996z" fill="#4bc94b"/><path d="M23.002 5.002H4.998c-1.662 0-3 1.338-3 3v19c0 1.662 1.338 3 3 3h22c1.662 0 3-1.338 3-3V11.998l-6.996-6.996z" fill="url(#b)"/><path d="M29.998 25.758a2.99 2.99 0 01-3 3h-22a2.99 2.99 0 01-3-3v1.244c0 1.662 1.338 3 3 3h22c1.662 0 3-1.338 3-3z" opacity=".25"/><path d="M23 5.002H4.998c-1.662 0-3 1.338-3 3v1.156a2.99 2.99 0 013-3H23V5.002z" opacity=".5" fill="#fff"/><g fill-rule="evenodd"><path d="M30 12l-7-7v7z" opacity=".5" fill="#fff"/><path d="M407.57 527.8l7 7v-7z" opacity=".2" fill="url(#c)" transform="translate(-384.57 -515.8)"/></g><path d="M11.5 13a1.5 1.5 0 00-1.5 1.5 1.5 1.5 0 001.5 1.5 1.5 1.5 0 001.5-1.5 1.5 1.5 0 00-1.5-1.5m0 1a.5.5 0 01.5.5.5.5 0 01-.5.5.5.5 0 01-.5-.5.5.5 0 01.5-.5m9.5 1l-5.6 5.58L12.801 18l-6 6h1.406l3.119-3.082 1.408-1.404 1.565 1.418L15.4 22l5.6-5.398L24.594 20H26z" color="#000" opacity=".75" fill="#fff"/></svg>