<?xml version="1.0" encoding="UTF-8" standalone="no"?>
<svg
   xmlns:dc="http://purl.org/dc/elements/1.1/"
   xmlns:cc="http://creativecommons.org/ns#"
   xmlns:rdf="http://www.w3.org/1999/02/22-rdf-syntax-ns#"
   xmlns:svg="http://www.w3.org/2000/svg"
   xmlns="http://www.w3.org/2000/svg"
   xmlns:xlink="http://www.w3.org/1999/xlink"
   xmlns:sodipodi="http://sodipodi.sourceforge.net/DTD/sodipodi-0.dtd"
   xmlns:inkscape="http://www.inkscape.org/namespaces/inkscape"
   width="32"
   height="32"
   version="1.1"
   id="svg37"
   sodipodi:docname="image-vnd.djvu.svg"
   inkscape:version="0.92.4 (5da689c313, 2019-01-14)">
  <metadata
     id="metadata41">
    <rdf:RDF>
      <cc:Work
         rdf:about="">
        <dc:format>image/svg+xml</dc:format>
        <dc:type
           rdf:resource="http://purl.org/dc/dcmitype/StillImage" />
        <dc:title></dc:title>
      </cc:Work>
    </rdf:RDF>
  </metadata>
  <sodipodi:namedview
     pagecolor="#ffffff"
     bordercolor="#666666"
     borderopacity="1"
     objecttolerance="10"
     gridtolerance="10"
     guidetolerance="10"
     inkscape:pageopacity="0"
     inkscape:pageshadow="2"
     inkscape:window-width="1366"
     inkscape:window-height="711"
     id="namedview39"
     showgrid="false"
     inkscape:zoom="3.9453125"
     inkscape:cx="15.746535"
     inkscape:cy="16"
     inkscape:window-x="0"
     inkscape:window-y="25"
     inkscape:window-maximized="1"
     inkscape:current-layer="svg37" />
  <defs
     id="defs7">
    <linearGradient
       id="a"
       y1="61"
       y2="3"
       x2="0"
       gradientUnits="userSpaceOnUse"
       gradientTransform="matrix(0.5,0,0,0.48276,0,0.55)">
      <stop
         stop-color="#f39c12"
         id="stop2" />
      <stop
         offset="1"
         stop-color="#f9a11f"
         id="stop4" />
    </linearGradient>
    <linearGradient
       xlink:href="#a-3"
       id="c"
       y1="392.35999"
       y2="336.35999"
       gradientUnits="userSpaceOnUse"
       x2="0"
       gradientTransform="matrix(0.5,0,0,0.48276,37,-159.9)" />
    <linearGradient
       id="a-3"
       y1="392.35999"
       y2="336.35999"
       gradientUnits="userSpaceOnUse"
       x2="0"
       gradientTransform="translate(268.33,166.62)">
      <stop
         stop-color="#ffffff"
         stop-opacity="0"
         id="stop2-6" />
      <stop
         offset="1"
         stop-color="#ffffff"
         stop-opacity=".2"
         id="stop4-7" />
    </linearGradient>
    <linearGradient
       inkscape:collect="always"
       xlink:href="#a"
       id="linearGradient902"
       x1="45"
       y1="30"
       x2="45"
       y2="2"
       gradientUnits="userSpaceOnUse"
       gradientTransform="translate(-40)" />
  </defs>
  <path
     style="color:#000000;color-interpolation:sRGB;color-interpolation-filters:linearRGB;fill:url(#linearGradient902);fill-opacity:1;color-rendering:auto;image-rendering:auto;shape-rendering:auto;text-rendering:auto"
     d="M 5,2 V 5.6113281 26.388672 30 h 3.611328 6.462891 8.314453 C 25.389654,30 27,28.389654 27,26.388672 V 5.6113281 C 27,3.6103459 25.389654,2 23.388672,2 H 17.222656 13 8.611328 Z"
     id="path862"
     inkscape:connector-curvature="0" />
  <g
     style="color:#4d4d4d;fill:#fddda3"
     id="g33"
     transform="translate(-413.71,-524.793)">
    <path
       inkscape:connector-curvature="0"
       id="path15"
       transform="translate(421.71,531.79)"
       d="M 2,3 V 14 H 14 V 3 Z m 1,1 h 10 v 9 H 3 Z" />
    <rect
       id="rect17"
       height="1"
       y="533.78998"
       x="433.70999"
       width="1" />
    <rect
       id="rect19"
       height="1"
       y="533.78998"
       x="424.70999"
       width="1" />
    <rect
       id="rect21"
       height="1"
       y="533.78998"
       x="426.70999"
       width="1" />
    <rect
       id="rect23"
       height="1"
       y="533.78998"
       x="431.70999"
       width="1" />
    <rect
       id="rect25"
       height="1"
       y="536.78998"
       x="425.70999"
       width="8" />
    <rect
       id="rect27"
       height="1"
       y="538.78998"
       x="425.70999"
       width="4" />
    <rect
       id="rect29"
       height="1"
       y="542.78998"
       x="431.70999"
       width="2" />
    <rect
       id="rect31"
       height="1"
       y="540.78998"
       x="425.70999"
       width="6" />
  </g>
  <path
     style="color:#000000;opacity:0.25;color-interpolation:sRGB;color-interpolation-filters:linearRGB;fill:#000000;color-rendering:auto;image-rendering:auto;shape-rendering:auto;text-rendering:auto"
     d="m 27,25.234375 c 0,0.500245 -0.100968,0.975845 -0.283203,1.408203 -0.182235,0.432358 -0.44513,0.822083 -0.771485,1.148438 -0.326354,0.326354 -0.716079,0.589249 -1.148437,0.771484 -0.432358,0.182235 -0.907958,0.283203 -1.408203,0.283203 H 15.074219 8.611328 5 V 30 h 3.611328 6.462891 8.314453 C 25.389654,30 27,28.389654 27,26.388672 Z"
     id="path905"
     inkscape:connector-curvature="0" />
  <path
     style="color:#000000;opacity:0.5;color-interpolation:sRGB;color-interpolation-filters:linearRGB;fill:#ffffff;color-rendering:auto;image-rendering:auto;shape-rendering:auto;text-rendering:auto"
     d="M 5,2 V 3.0136719 H 8.611328 13 h 4.222656 6.166016 c 0.500245,0 0.975845,0.1009678 1.408203,0.2832031 0.432358,0.1822353 0.822083,0.4451297 1.148437,0.7714844 0.326355,0.3263546 0.58925,0.7160794 0.771485,1.1484375 C 26.899032,5.6491549 27,6.1247545 27,6.625 V 5.6113281 C 27,3.6103459 25.389654,2 23.388672,2 H 17.222656 13 8.611328 Z"
     id="path862-3"
     inkscape:connector-curvature="0" />
</svg>
