<svg xmlns="http://www.w3.org/2000/svg" xmlns:xlink="http://www.w3.org/1999/xlink" width="32" height="32"><defs><linearGradient id="c"><stop offset="0" stop-color="#f73768"/><stop offset="1" stop-color="#f62459"/></linearGradient><linearGradient id="a"><stop stop-color="#ffd6af"/><stop offset="1" stop-color="#fffcf9"/></linearGradient><linearGradient xlink:href="#a" id="e" y1="61" y2="47" x2="0" gradientUnits="userSpaceOnUse" gradientTransform="matrix(.48276 0 0 -.48276 385.261 547.488)"/><linearGradient xlink:href="#b" id="f" y1="31" x1="54" y2="16.5" x2="39.5" gradientUnits="userSpaceOnUse" gradientTransform="matrix(0 -.48276 -.48276 0 419.537 550.867)"/><linearGradient id="b"><stop stop-color="#383e51"/><stop offset="1" stop-color="#655c6f" stop-opacity="0"/></linearGradient><linearGradient xlink:href="#c" id="d" x1="5" y1="30" x2="5" y2="2" gradientUnits="userSpaceOnUse" gradientTransform="translate(364.571 515.798)"/></defs><path d="M404.571 517.798h-12c-1.662 0-3 1.338-3 3v22c0 1.662 1.338 3 3 3h16c1.662 0 3-1.338 3-3v-18z" fill="url(#d)" transform="translate(-384.571 -515.798)"/><path d="M8 2a2.99 2.99 0 00-2.123.877c-.031.031-.02.09-.05.123H20V2z" color="#000" opacity=".5" fill="#fff"/><path d="M5.826 29c.03.033.02.092.051.123A2.99 2.99 0 008 30h16a2.99 2.99 0 002.123-.877c.031-.031.02-.09.05-.123z" color="#000" opacity=".25"/><path d="M411.571 524.798l-7-7v7z" fill="url(#e)" fill-rule="evenodd" transform="translate(-384.571 -515.798)"/><path d="M411.571 531.798l-7-7h7z" opacity=".2" fill="url(#f)" fill-rule="evenodd" transform="translate(-384.571 -515.798)"/><path style="line-height:normal;-inkscape-font-specification:Sans;text-indent:0;text-align:start;text-decoration-line:none;text-transform:none;block-progression:tb;marker:none" d="M10 14v10h5.9v-1H11v-.063l3.906-3.343.75.75.244.265v-1.396L15.687 19H14.11L11 21.656v-5.969l2.328 2.329.344-1.032L11.687 15h2.647l.332-1H10zm6 0v1h4.313l-1.618 1.617-.687 2.063L21 15.688v5.968l-3.102-2.65-.332.994L21 22.938V23h-4.434l-.332 1H22V14h-6z" color="#000" font-weight="400" font-family="Sans" overflow="visible" fill="#fffcf9"/></svg>