<svg xmlns="http://www.w3.org/2000/svg" xmlns:xlink="http://www.w3.org/1999/xlink" width="32" height="32"><defs><linearGradient gradientTransform="matrix(.5 0 0 -.48276 8 31.45)" gradientUnits="userSpaceOnUse" x2="0" y2="3" y1="61" id="a"><stop offset="0" stop-color="#3fc380"/><stop stop-color="#26c281" offset="1"/></linearGradient><linearGradient id="c" y1="518.04" y2="524.8" x2="0" gradientUnits="userSpaceOnUse"><stop stop-color="#036b53"/><stop offset="1" stop-color="#036b53"/></linearGradient><linearGradient id="d" y1="524.8" x1="404.57" y2="531.8" x2="411.57" gradientUnits="userSpaceOnUse"><stop stop-color="#383e51"/><stop offset="1" stop-color="#655c6f" stop-opacity="0"/></linearGradient><linearGradient xlink:href="#a" id="b" x1="5" y1="30" x2="5" y2="2" gradientUnits="userSpaceOnUse" gradientTransform="translate(-20)"/></defs><path d="M20 2H8C6.338 2 5 3.338 5 5v22c0 1.662 1.338 3 3 3h16c1.662 0 3-1.338 3-3V9z" fill="url(#b)"/><path d="M8 2a2.99 2.99 0 00-2.123.877c-.031.031-.02.09-.05.123H20V2z" color="#000" opacity=".5" fill="#fff"/><path d="M5.826 29c.03.033.02.092.051.123A2.99 2.99 0 008 30h16a2.99 2.99 0 002.123-.877c.031-.031.02-.09.05-.123z" color="#000" opacity=".25"/><g fill-rule="evenodd"><path d="M411.57 524.8l-7-7v7z" fill="url(#c)" transform="translate(-384.57 -515.8)"/><path d="M411.57 531.8l-7-7h7z" opacity=".2" fill="url(#d)" transform="translate(-384.57 -515.8)"/></g><path d="M10 12v12h7v-1h-3v-3h3v-1h-3v-3h4v2h1v-2h2v2h1v-6H11zm1 1h10v2H11zm0 3h2v3h-2zm8.5 3c-.831 0-1.5.638-1.5 1.43 0 .763.623 1.376 1.412 1.42.058.262.087.528.088.795A3.77 3.77 0 0119.242 24c1.1-.734 1.756-1.933 1.758-3.213v-.357c0-.792-.669-1.43-1.5-1.43M11 20h2v3h-2z" fill="#036b53"/></svg>