<svg xmlns="http://www.w3.org/2000/svg" xmlns:xlink="http://www.w3.org/1999/xlink" height="32" width="32"><defs><linearGradient id="c" gradientUnits="userSpaceOnUse" x1="20" x2="27" y1="9" y2="16"><stop offset="0" stop-color="#060606"/><stop offset="1" stop-opacity="0"/></linearGradient><linearGradient xlink:href="#a" id="b" x1="5" y1="30" x2="5" y2="2" gradientUnits="userSpaceOnUse" gradientTransform="translate(-20)"/><linearGradient id="a" y1="392.36" y2="365.36" x2="0" gradientUnits="userSpaceOnUse" gradientTransform="translate(309.57 152.44)"><stop stop-color="#fff" stop-opacity="0"/><stop offset="1" stop-color="#fff" stop-opacity=".2"/></linearGradient></defs><path d="M20 2H8C6.338 2 5 3.338 5 5v22c0 1.662 1.338 3 3 3h16c1.662 0 3-1.338 3-3V9z" fill="#1d70f7"/><path d="M8 2a2.99 2.99 0 00-2.123.877c-.031.031-.02.09-.05.123H20V2z" color="#000" opacity=".5" fill="#fff"/><path d="M5.826 29c.03.033.02.092.051.123A2.99 2.99 0 008 30h16a2.99 2.99 0 002.123-.877c.031-.031.02-.09.05-.123z" color="#000" opacity=".25"/><path d="M20 2H8C6.338 2 5 3.338 5 5v22c0 1.662 1.338 3 3 3h16c1.662 0 3-1.338 3-3V9z" opacity=".4" fill="url(#b)"/><path d="M27 9l-7-7v7z" fill-rule="evenodd" opacity=".6"/><path d="M20 9l7 7V9z" fill="url(#c)" fill-rule="evenodd" opacity=".1"/><g opacity=".7"><path d="M16 10v1h-1v1h1v1h1v-1h1v-1h-1v-1zm4 0v1h-1v1h1v1h1v-1h1v-1h-1v-1z"/><path d="M14 14a4 4 0 00-4 4 4 4 0 004 4 4 4 0 002.826-1.174l-.707-.707A3 3 0 0114 21a3 3 0 01-3-3 3 3 0 013-3 3 3 0 012.12.88l.706-.706A4 4 0 0014 14z" fill-rule="evenodd"/></g></svg>