<svg xmlns="http://www.w3.org/2000/svg" xmlns:xlink="http://www.w3.org/1999/xlink" width="32" height="32"><defs><linearGradient id="b" y1="17" y2="24" x1="47" x2="54" gradientUnits="userSpaceOnUse" gradientTransform="translate(357.57 507.8)"><stop stop-color="#060606"/><stop offset="1" stop-opacity="0"/></linearGradient><linearGradient xlink:href="#a" id="c" x1="5" y1="30" x2="5" y2="2" gradientUnits="userSpaceOnUse" gradientTransform="translate(-20)"/><linearGradient id="a" y1="392.36" y2="365.36" x2="0" gradientUnits="userSpaceOnUse" gradientTransform="translate(309.57 152.44)"><stop stop-color="#fff" stop-opacity="0"/><stop offset="1" stop-color="#fff" stop-opacity=".2"/></linearGradient></defs><path d="M20 2H8C6.338 2 5 3.338 5 5v22c0 1.662 1.338 3 3 3h16c1.662 0 3-1.338 3-3V9z" fill="#febf10"/><path d="M8 2c-.391 0-.658.277-1 .412v1.586H5.414c-.135.341-.411.608-.412.998v.002H7v2H5.002v1H7v2H5.002v1H7v2H5.002v1H7v2H5.002v1H7v2H5.002v1H7v2H5.002v1H7v2H5.002v1H7v2H5.412c.135.343.17.733.414 1H7v.59c.34.134.607.41.996.41H8v-1h2v1h1v-1h2v1h1v-1h2v1h1v-1h2v1h1v-1h2v1h1v-1h2v.59c.342-.135.733-.17 1-.414v-.176h.174c.244-.267.279-.657.414-1H26v-2h1v-1h-1v-2h1v-1h-1v-2h1v-1h-1v-2h1v-1h-1v-2h1v-1h-1v-2h1v-1h-1V9h-1v.998h-2V9h-1v.998h-2V2h-1v1.998h-2V2h-1v1.998h-2V2h-1v1.998h-2V2h-1v1.998H8zm0 2.998h2v2H8zm3 0h2v2h-2zm3 0h2v2h-2zm3 0h2v2h-2zm-9 3h2v2H8zm3 0h2v2h-2zm3 0h2v2h-2zm3 0h2v2h-2zm-9 3h2v2H8zm3 0h2v2h-2zm3 0h2v2h-2zm3 0h2v2h-2zm3 0h2v2h-2zm3 0h2v2h-2zm-15 3h2v2H8zm3 0h2v2h-2zm3 0h2v2h-2zm3 0h2v2h-2zm3 0h2v2h-2zm3 0h2v2h-2zm-15 3h2v2H8zm3 0h2v2h-2zm3 0h2v2h-2zm3 0h2v2h-2zm3 0h2v2h-2zm3 0h2v2h-2zm-15 3h2v2H8zm3 0h2v2h-2zm3 0h2v2h-2zm3 0h2v2h-2zm3 0h2v2h-2zm3 0h2v2h-2zm-15 3h2v2H8v-1zm3 0h2v2h-2v-1zm3 0h2v2h-2v-1zm3 0h2v2h-2v-1zm3 0h2v2h-2v-1zm3 0h2v2h-2v-1zm-15 3h2v2H8v-1zm3 0h2v2h-2v-1zm3 0h2v2h-2v-1zm3 0h2v2h-2v-1zm3 0h2v2h-2v-1zm3 0h2v2h-2v-1z" color="#000" opacity=".15" fill="#fff"/><g fill-rule="evenodd"><path d="M404.57 524.8l7 7v-7z" opacity=".1" fill="url(#b)" transform="translate(-384.57 -515.8)"/><g fill="#fff"><path d="M11 10v3h1v1.65a1.5 1.5 0 00-1 1.412 1.5 1.5 0 001 1.412V19h-1v3h3V20.19A7 6 0 0019 22v-1a6 5 0 01-5.77-3.631A1.5 1.5 0 0014 16.06a1.5 1.5 0 00-.799-1.322A6 5 0 0119 10.999v-1a7 6 0 00-5 1.803V9.999zm1 1h1v1h-1zm0 9h1v1h-1z" color="#4d4d4d" opacity=".9"/><path d="M27 9l-7-7v7z" color="#000" opacity=".5"/></g></g><path d="M8 2a2.99 2.99 0 00-2.123.877c-.031.031-.02.09-.05.123H20V2z" color="#000" opacity=".5" fill="#fff"/><path d="M5.826 29c.03.033.02.092.051.123A2.99 2.99 0 008 30h16a2.99 2.99 0 002.123-.877c.031-.031.02-.09.05-.123z" color="#000" opacity=".25"/><path d="M20 2H8C6.338 2 5 3.338 5 5v22c0 1.662 1.338 3 3 3h16c1.662 0 3-1.338 3-3V9z" opacity=".4" fill="url(#c)"/></svg>