<svg xmlns="http://www.w3.org/2000/svg" xmlns:xlink="http://www.w3.org/1999/xlink" width="48" height="48">
  <defs id="acyl-settings">
    <linearGradient id="acyl-gradient" x1="0%" x2="0%" y1="0%" y2="100%">
      <stop offset="100%" style="stop-color:#A0A0A0;stop-opacity:1.000000"/>
    </linearGradient>
    <g id="acyl-filter">
  </g>
    <g id="acyl-drawing">
      <path d="m 2,4.279 0,0 0,12.609 5.179,0 0,2.533 0,9.904 c 0,8.176 7.101,14.402 15.284,14.402 l 23.537,0 0,-24.961 C 46,10.584 38.908,4.393 30.717,4.393 L 23.858,4.363 2,4.273 Z m 11.915,7.391 3.415,0 0,17.447 c 0,2.336 1.576,4.155 3.444,4.155 l 3.842,0.03 0,3.557 -4.468,0 c -1.582,-0.169 -2.985,-0.922 -4.155,-2.077 -1.37,-1.365 -2.078,-3.057 -2.078,-4.981 l 0,-18.13 z m 12.836,2.989 c 1.517,0 2.828,0.562 3.899,1.594 1.074,-1.034 2.41,-1.594 3.928,-1.594 1.546,0 2.909,0.564 4.013,1.679 1.103,1.115 1.679,2.5 1.679,4.07 l 0.03,7.884 -3.614,0 0,-7.884 c 0,-0.602 -0.197,-1.074 -0.626,-1.509 -0.431,-0.435 -0.887,-0.626 -1.48,-0.626 -0.605,0 -1.077,0.19 -1.509,0.626 -0.429,0.435 -0.626,0.907 -0.626,1.509 l 0,7.941 -3.586,0 0,-7.941 c 0,-0.602 -0.196,-1.074 -0.626,-1.509 -0.432,-0.436 -0.875,-0.626 -1.48,-0.626 -0.593,0 -1.049,0.191 -1.48,0.626 -0.43,0.435 -0.626,0.907 -0.626,1.509 l 0,7.941 -3.615,0 0,-7.941 c 0,-1.57 0.576,-2.955 1.679,-4.07 1.104,-1.115 2.496,-1.679 4.042,-1.679 z m 9.945,13.641 3.591,0 0,2.018 c -0.17,1.659 -0.868,3.13 -2.066,4.36 l -0.01,0 c -1.407,1.434 -3.142,2.174 -5.129,2.174 l -8.455,0 0,-3.555 7.771,0.02 c 1.613,0 2.985,-0.738 3.721,-1.816 0,0 0,0 0,0 0.03,-0.05 0.06,-0.09 0.09,-0.14 0,0 0,0 0,0 0.31,-0.505 0.486,-1.076 0.486,-1.678 l 0,-1.381 z m 3.602,2.012 c -0.04,0.383 -0.103,0.748 -0.199,1.11 0.09,-0.355 0.161,-0.735 0.199,-1.11 z" id="path-main"/>
    </g>
  </defs>
  <g id="acyl-visual">
    <use id="visible1" style="fill:url(#acyl-gradient)" xlink:href="#acyl-drawing"/>
  </g>
</svg>
