<svg xmlns="http://www.w3.org/2000/svg" width="64" height="64" viewBox="0 0 16.933 16.933"><g fill="none" stroke="#ff4973" stroke-linecap="round" stroke-linejoin="round"><path d="M5.292 286.417h6.614" transform="matrix(.4675 0 0 .36733 2.358 -99.425)" stroke-width="3.192"/><path d="M5.292 291.708h6.614" transform="matrix(1.07556 0 0 .84509 -.768 -234.933)" stroke-width="1.388"/><path d="M5.292 289.062h6.614" transform="matrix(1.06394 0 0 .83595 -.762 -232.958)" stroke-width="1.403"/><path d="M10.867 1.767v3.969h3.969z" stroke-width="1.323"/><path d="M15.854 7.839a7.296 7.297 0 0 1-3.917 7.14 7.296 7.297 0 0 1-8.09-.935 7.296 7.297 0 0 1-2.184-7.846 7.296 7.297 0 0 1 6.442-4.983" stroke-width="1.323"/></g></svg>