<svg xmlns="http://www.w3.org/2000/svg" width="64" height="64"><rect ry="0" y="27" x="27" height="10" width="10" fill="#3074ff"/><g stroke="#00f263" fill="none" stroke-linecap="round" stroke-linejoin="round"><path d="M27 14V4" transform="matrix(1 0 0 .7 11 2.2)" stroke-width="5.976"/><path transform="matrix(1 0 0 .7 -1 2.2)" d="M27 14V4" stroke-width="5.976"/><path transform="matrix(1 0 0 .75637 11 48.415)" d="M27 14V4" stroke-width="5.749"/><path d="M27 14V4" transform="matrix(1 0 0 .75637 -1 48.415)" stroke-width="5.749"/><path transform="matrix(0 1 -1.20001 0 63.8 11)" d="M27 14V4" stroke-width="4.564"/><path d="M27 14V4" transform="matrix(0 1 -1.20001 0 63.8 -1)" stroke-width="4.564"/><path d="M27 14V4" transform="matrix(0 1 -1.19999 0 21.8 11)" stroke-width="4.564"/><rect ry="4.978" y="12.492" x="12.492" height="39.017" width="39.017" stroke-width="5"/><path transform="matrix(0 1 -1.19999 0 21.8 -1)" d="M27 14V4" stroke-width="4.564"/></g></svg>