<svg xmlns="http://www.w3.org/2000/svg" xmlns:xlink="http://www.w3.org/1999/xlink" width="64" height="64" viewBox="0 0 16.933 16.933"><defs><linearGradient id="a"><stop stop-color="#ff5508" offset="0"/><stop stop-color="#ffa208" offset="1"/></linearGradient><linearGradient gradientUnits="userSpaceOnUse" y2="3.254" x2="42.369" y1="44.745" x1="4.573" id="b" xlink:href="#a"/><linearGradient xlink:href="#a" id="c" gradientUnits="userSpaceOnUse" x1="4.573" y1="44.745" x2="42.369" y2="3.254" gradientTransform="translate(-3.083 2.593)"/><linearGradient xlink:href="#a" id="d" gradientUnits="userSpaceOnUse" x1="4.573" y1="44.745" x2="42.369" y2="3.254" gradientTransform="translate(-3.083 2.593)"/><linearGradient xlink:href="#a" id="e" gradientUnits="userSpaceOnUse" x1="4.573" y1="44.745" x2="42.369" y2="3.254" gradientTransform="matrix(1.26444 0 0 1.26445 2.09 .907)"/></defs><g fill="none" stroke-linecap="round"><path d="M-29.116.011a1.953 1.953 0 0 1 1.884 2.011 1.953 1.953 0 0 1-2.002 1.894 1.953 1.953 0 0 1-1.904-1.993A1.953 1.953 0 0 1-29.155.01" stroke="#ff3f5c" stroke-width="1.323" stroke-linejoin="round"/><path d="M-29.116.011a1.953 1.953 0 0 1 1.884 2.011 1.953 1.953 0 0 1-2.002 1.894 1.953 1.953 0 0 1-1.904-1.993A1.953 1.953 0 0 1-29.155.01m-.072-2.216a4.17 4.17 0 0 1 3 1.231 4.17 4.17 0 0 1 1.211 3.01m-4.088-6.268a6.197 6.197 0 0 1 6.116 6.175" stroke="#ff5608" stroke-width="1.323" stroke-linejoin="round"/><path d="M-20.478-3.758l-.029 9.355c0 .217-.004.438-.056.649a1.223 1.223 0 0 1-.312.566 1.218 1.218 0 0 1-.566.313 2.658 2.658 0 0 1-.65.056h-10.825c-.219 0-.44-.003-.651-.056a1.219 1.219 0 0 1-.566-.312 1.219 1.219 0 0 1-.311-.566 2.67 2.67 0 0 1-.057-.65V-5.23c0-.219.003-.44.057-.65a1.21 1.21 0 0 1 .311-.567c.154-.154.354-.26.566-.312.211-.053.432-.056.65-.056h9.506" stroke="#ff6c01" stroke-width="1.32332148" stroke-linejoin="round"/><g transform="translate(1.31 .637) scale(.31827)" stroke="url(#b)" stroke-width="4.157"><path d="M11.845 28.373l7.704-2.135m-1.084 9.853l4.02-7.335m7.517 9.039l-3.95-8.94" stroke="url(#c)" stroke-linejoin="bevel"/><path d="M10.559 18.53l8.282 3.729" stroke="url(#d)" stroke-linejoin="round"/><path d="M57.834 51.534c2.757-3.625 3.005-7.754-.563-10.72-4.178-3.47-11.877-5.958-19.934-13.945C28.837 18.44 26.42 10.46 22.86 6.34 21.392 4.642 19.603 3.917 17.726 4h-.002v0c-5.203.23-11.094 6.64-12.836 15.573-.414 2.238-.496 4.032-.506 6.054.004.184.004.366.013.55.703 18.153 15.481 32.816 33.682 33.344l.277.009c1.193.045 2.55-.06 3.64-.134C49.076 58.705 46 59 50 58" transform="translate(-4.117 -2.002) scale(.8313)" stroke="url(#e)" stroke-width="5" stroke-linejoin="bevel"/></g></g></svg>