<?xml version="1.0" encoding="UTF-8" standalone="no"?>
<svg
   xmlns:dc="http://purl.org/dc/elements/1.1/"
   xmlns:cc="http://creativecommons.org/ns#"
   xmlns:rdf="http://www.w3.org/1999/02/22-rdf-syntax-ns#"
   xmlns:svg="http://www.w3.org/2000/svg"
   xmlns="http://www.w3.org/2000/svg"
   xmlns:xlink="http://www.w3.org/1999/xlink"
   xmlns:sodipodi="http://sodipodi.sourceforge.net/DTD/sodipodi-0.dtd"
   xmlns:inkscape="http://www.inkscape.org/namespaces/inkscape"
   width="64"
   height="64"
   viewBox="0 0 16.933 16.933"
   version="1.1"
   id="svg19"
   sodipodi:docname="color-picker.svg"
   inkscape:version="0.92.4 5da689c313, 2019-01-14">
  <metadata
     id="metadata23">
    <rdf:RDF>
      <cc:Work
         rdf:about="">
        <dc:format>image/svg+xml</dc:format>
        <dc:type
           rdf:resource="http://purl.org/dc/dcmitype/StillImage" />
      </cc:Work>
    </rdf:RDF>
  </metadata>
  <sodipodi:namedview
     pagecolor="#ffffff"
     bordercolor="#666666"
     borderopacity="1"
     objecttolerance="10"
     gridtolerance="10"
     guidetolerance="10"
     inkscape:pageopacity="0"
     inkscape:pageshadow="2"
     inkscape:window-width="1366"
     inkscape:window-height="698"
     id="namedview21"
     showgrid="false"
     inkscape:zoom="1.84375"
     inkscape:cx="83.399031"
     inkscape:cy="50.045207"
     inkscape:window-x="0"
     inkscape:window-y="24"
     inkscape:window-maximized="1"
     inkscape:current-layer="g873">
    <inkscape:grid
       type="xygrid"
       id="grid834" />
  </sodipodi:namedview>
  <defs
     id="defs9">
    <inkscape:path-effect
       is_visible="true"
       id="path-effect888"
       effect="spiro" />
    <inkscape:path-effect
       effect="spiro"
       id="path-effect884"
       is_visible="true" />
    <inkscape:path-effect
       effect="spiro"
       id="path-effect880"
       is_visible="true" />
    <inkscape:path-effect
       is_visible="true"
       id="path-effect875"
       effect="spiro" />
    <inkscape:path-effect
       effect="spiro"
       id="path-effect871"
       is_visible="true" />
    <inkscape:path-effect
       effect="spiro"
       id="path-effect867"
       is_visible="true" />
    <inkscape:path-effect
       effect="spiro"
       id="path-effect863"
       is_visible="true" />
    <inkscape:path-effect
       is_visible="true"
       id="path-effect851"
       effect="spiro" />
    <inkscape:path-effect
       is_visible="true"
       id="path-effect846"
       effect="spiro" />
    <inkscape:path-effect
       effect="spiro"
       id="path-effect842"
       is_visible="true" />
    <inkscape:path-effect
       effect="spiro"
       id="path-effect838"
       is_visible="true" />
    <inkscape:path-effect
       effect="simplify"
       id="path-effect920"
       is_visible="true"
       steps="1"
       threshold="0.00931723"
       smooth_angles="360"
       helper_size="0"
       simplify_individual_paths="false"
       simplify_just_coalesce="false"
       simplifyindividualpaths="false"
       simplifyJustCoalesce="false" />
    <linearGradient
       id="a">
      <stop
         stop-color="#ff5508"
         offset="0"
         id="stop2" />
      <stop
         stop-color="#ffa208"
         offset="1"
         id="stop4"
         style="stop-color:#f74433;stop-opacity:1" />
    </linearGradient>
    <linearGradient
       xlink:href="#a"
       id="b"
       gradientUnits="userSpaceOnUse"
       x1="4.573"
       y1="44.745"
       x2="42.369"
       y2="3.254"
       gradientTransform="translate(.001 280.314) scale(.26458)" />
    <linearGradient
       xlink:href="#a"
       id="c"
       gradientUnits="userSpaceOnUse"
       x1="4.573"
       y1="44.745"
       x2="42.369"
       y2="3.254"
       gradientTransform="translate(.001 280.314) scale(.26458)" />
    <linearGradient
       id="b-3">
      <stop
         id="stop830"
         stop-color="#cdfb1b"
         offset="0" />
      <stop
         id="stop832"
         stop-color="#ff0037"
         offset="1" />
    </linearGradient>
    <linearGradient
       gradientTransform="translate(-60.474577,-988.09081)"
       gradientUnits="userSpaceOnUse"
       y2="1016.362"
       x2="52"
       y1="996.362"
       x1="52"
       id="c-6"
       xlink:href="#a-7" />
    <linearGradient
       id="a-7">
      <stop
         id="stop836"
         stop-color="#d80d9d"
         offset="0" />
      <stop
         id="stop838"
         stop-color="#a84873"
         offset="1" />
    </linearGradient>
    <linearGradient
       gradientUnits="userSpaceOnUse"
       y2="33.593"
       x2="56.977"
       y1="33.593"
       x1="7.023"
       id="d"
       xlink:href="#b-3" />
  </defs>
  <g
     id="g873"
     transform="matrix(0.26457812,0,0,0.26457812,-0.61752367,-0.22353547)"
     style="stroke:#000000;stroke-width:5;stroke-miterlimit:4;stroke-dasharray:none;stroke-opacity:1">
    <path
       transform="matrix(1.3316852,1.2833283,-1.2835527,1.3314809,-56.543112,-123.13146)"
       sodipodi:nodetypes="cccczcccscsccczcccc"
       inkscape:original-d="m 87.995867,41.722706 -2.436268,-2.923521 0.02442,-12.390701 h -4.872534 c 0,0 -1.486111,-2.876574 -1.486176,-3.688662 -6.5e-5,-0.812088 1.46176,-1.949014 1.46176,-1.949014 l 3.898028,-9.65e-4 -0.04136,-4.699417 c 0,0 -0.04064,-1.537029 0.487254,-1.949013 1.280263,-0.999153 3.517309,-4.043991 5.39783,-3.036595 -12.760303,-1.8915251 -52.007823,-8.5478397 5.546624,3.172906 0.65626,0.133645 0.439429,1.960555 0.439429,1.960555 l -0.137431,4.69719 3.896817,0.09805 c 0,0 1.43357,1.172989 1.41364,1.984828 -0.0199,0.811839 -1.57595,3.650522 -1.57595,3.650522 l -4.871057,-0.12136 -0.278687,12.387533 -2.507041,2.86195"
       inkscape:path-effect="#path-effect846"
       inkscape:connector-curvature="0"
       id="path844"
       d="m 87.995867,41.722706 -2.436268,-2.923521 0.02442,-12.390701 h -4.872534 c -0.610307,-0.365801 -1.096396,-0.934864 -1.362306,-1.594846 -0.265909,-0.659982 -0.310108,-1.407085 -0.12387,-2.093816 0.217722,-0.802828 0.752007,-1.515208 1.46176,-1.949014 l 3.898028,-9.65e-4 -0.04136,-4.699417 c -0.003,-0.340155 0.0071,-0.68332 0.08858,-1.013574 0.08153,-0.330255 0.226856,-0.641851 0.398671,-0.935439 0.546487,-0.933807 1.344801,-1.718624 2.28779,-2.249111 0.942988,-0.530486 2.028224,-0.805275 3.11004,-0.787484 1.133236,-0.138742 2.309298,0.0983 3.300307,0.665201 0.991009,0.5669 1.791483,1.460518 2.246317,2.507705 0.26841,0.617974 0.418393,1.287136 0.439429,1.960555 l -0.137431,4.69719 3.89682,0.09805 c 0.69904,0.451199 1.21576,1.176692 1.41364,1.984828 0.1692,0.690985 0.10664,1.436613 -0.17532,2.089748 -0.28196,0.653136 -0.78171,1.210024 -1.40063,1.560774 l -4.87106,-0.12136 -0.278687,12.387533 -2.507041,2.86195"
       style="fill:none;stroke:#86f466;stroke-width:2.70355916;stroke-linecap:round;stroke-linejoin:round;stroke-miterlimit:4;stroke-dasharray:none;stroke-opacity:1" />
    <path
       transform="matrix(0.95017108,0.96244048,-0.96155359,0.95104748,-33.935605,-95.689583)"
       inkscape:original-d="m 98.457627,47.694328 c 0.001,-5.667667 0.001,-11.334333 0,-17"
       inkscape:path-effect="#path-effect851"
       inkscape:connector-curvature="0"
       id="path849"
       d="m 98.457627,47.694328 v -17"
       style="fill:none;stroke:#ff0b6c;stroke-width:3.69701982;stroke-linecap:round;stroke-linejoin:round;stroke-miterlimit:4;stroke-dasharray:none;stroke-opacity:1" />
    <path
       style="fill:none;fill-opacity:1;stroke:#ff0b6c;stroke-width:5;stroke-linecap:butt;stroke-linejoin:miter;stroke-miterlimit:4;stroke-dasharray:none;stroke-opacity:1"
       d="m 134.45763,43.694328 c 0.56736,1.976249 2.04915,3.537013 3.48476,5.00891 1.43561,1.471896 2.92507,3.021531 3.51524,4.99109 0.30308,1.011449 0.35287,2.092096 0.72695,3.079491 0.18704,0.493698 0.45875,0.963482 0.84628,1.322004 0.38754,0.358522 0.89883,0.598505 1.42677,0.598505 0.52794,0 1.03923,-0.239983 1.42677,-0.598505 0.38753,-0.358522 0.65924,-0.828306 0.84628,-1.322004 0.37408,-0.987395 0.42387,-2.068042 0.72695,-3.079491 0.59017,-1.969559 2.07963,-3.519194 3.51524,-4.99109 1.43561,-1.471897 2.9174,-3.032661 3.48476,-5.00891 0.37866,-1.318968 0.31195,-2.752331 -0.12893,-4.051827 -0.44087,-1.299496 -1.2473,-2.464462 -2.26702,-3.38274 -2.03944,-1.836555 -4.85956,-2.640709 -7.60405,-2.640709 -2.74449,0 -5.56461,0.804154 -7.60405,2.640709 -1.01972,0.918278 -1.82615,2.083244 -2.26702,3.38274 -0.44088,1.299496 -0.50759,2.732859 -0.12893,4.051827 z"
       id="path865"
       inkscape:connector-curvature="0"
       inkscape:path-effect="#path-effect867"
       inkscape:original-d="m 134.45763,43.694328 c -3.33433,3.334333 5.33433,6.665667 7,10 1.66567,3.334333 1.33433,3.332333 3,5 1.66567,1.667667 1.33433,-3.334333 3,-5 1.66567,-1.665667 5.33433,-6.667667 7,-10 1.66567,-3.332333 -8,-10.075276 -10,-10.075276 -1,0 -6.66567,6.740943 -10,10.075276 z"
       transform="matrix(1,0,0,-1,-91.562657,94.689751)"
       sodipodi:nodetypes="ssssscs" />
  </g>
</svg>
