<svg xmlns="http://www.w3.org/2000/svg" height="64" viewBox="0 0 16.933 16.933" width="64"><path d="M70.394 107.175c-5.546.202-11.384.029-16.513 2.537-1.772.709-.638.529-2.502.947.462-.785 4.329-10.678 2.67-9.049-5.041 4.36-13.077 19.014-13.723 25.51-.493 3.798-1.099 7.836-.453 11.508 4.145 4.024 9.853 8.702 15.794 8.806.436-.747 1.882-1.533 1.725-2.246-4.693-1.812-8.45-7.541-10.367-12.077 7.267 3.7 14.947 6.855 23.579 6.752 7.083.755 15.234-3.728 21.315-6.752 1.732.58-1.897 3.399-2.496 4.203-1.95 2.76-4.976 6.528-8 7.983.807 1.506 2.402 2.912 4.224 1.983 5.182-.806 10.108-5.255 13.714-8.98-.08-9.26-2.104-18.818-7.656-27.386-.596-1.17-3.902-7.002-6.81-9.304-1.26.005 4.426 9.24 2.67 9.049-6.412-2.942-11.481-3.508-17.171-3.484z" fill="none" stroke="#7567eb" stroke-linecap="round" stroke-linejoin="round" stroke-width="5.155" transform="matrix(.2567 0 0 .25654 -9.367 -23.383)"/><path d="M5.998 6.9c1.023.064 1.516 1.25 1.102 2.033-.285.778-1.608 1.013-2.11.292-.703-.79-.25-2.353 1.008-2.325zm5.012 0c1.024.064 1.517 1.25 1.102 2.033-.285.778-1.608 1.013-2.11.292-.703-.79-.25-2.353 1.008-2.325z" fill="#7367eb"/></svg>