<svg xmlns="http://www.w3.org/2000/svg" width="64" height="64" viewBox="0 0 16.933 16.933"><path d="M29.104 297a71.19 71.19 0 0 1-6.614 11.906c-.716 1.04-1.507 2.101-2.646 2.646a3.252 3.252 0 0 1-1.327.33 2.496 2.496 0 0 1-1.32-.33 2.41 2.41 0 0 1-.858-.886 2.856 2.856 0 0 1-.353-1.187c-.065-.83.207-1.66.645-2.368.55-.887 1.35-1.597 2.226-2.164.876-.567 1.83-1 2.782-1.427 1.591-.713 3.188-1.416 4.82-2.032 3.983-1.503 8.143-2.475 12.295-3.419 2.99-.68 6.13-1.345 9.087-.534.712.194 1.41.48 1.983.945.573.465 1.01 1.128 1.09 1.86a2.24 2.24 0 0 1-.21 1.233 2.102 2.102 0 0 1-.858.906c-.38.21-.819.293-1.252.296-.433.003-.863-.072-1.287-.162-4.001-.85-7.613-3.053-10.691-5.747-2.342-2.049-4.459-4.46-5.613-7.35-1.03-2.579-1.242-5.397-1.603-8.151-.108-.818-.229-1.646-.117-2.462.055-.409.17-.812.365-1.175a2.46 2.46 0 0 1 .82-.907 2.338 2.338 0 0 1 1.508-.335c.521.058 1.02.279 1.433.602.678.532 1.12 1.324 1.342 2.157.221.833.236 1.708.176 2.568a15.208 15.208 0 0 1-3.137 8.207" transform="matrix(.37533 0 0 .37566 -4.144 -102.19)" fill="none" stroke="#ff3f5c" stroke-width="3.523" stroke-linecap="round" stroke-linejoin="round"/></svg>