<svg height="64" width="64" xmlns="http://www.w3.org/2000/svg" xmlns:xlink="http://www.w3.org/1999/xlink"><linearGradient id="a" gradientTransform="matrix(0 -1 1 0 0 48)" gradientUnits="userSpaceOnUse" x1="1" x2="47"><stop offset="0" stop-color="#3cc4f7"/><stop offset="1" stop-color="#2b92e3"/></linearGradient><linearGradient gradientUnits="userSpaceOnUse" x1="5.409" x2="44.201" xlink:href="#a" y1="5.494" y2="44.342"/><linearGradient id="b" gradientTransform="matrix(1.30112 0 0 1.301 .644 2.034)" gradientUnits="userSpaceOnUse" x1="5.409" x2="44.201" xlink:href="#a" y1="5.494" y2="44.342"/><g fill="none" stroke="url(#b)" stroke-linecap="round" stroke-linejoin="round" stroke-width="5" transform="matrix(1.30112316 0 0 1.300992524 .64414275 2.03393776)"><path d="m32.522 37.19v22.793" transform="matrix(.76857 0 0 .76864 -.495 -1.563)"/><path d="m45.22 52.339 4.004-2.308v-6.384" transform="matrix(.76857 0 0 .76864 -.495 -1.563)"/><path d="m15.82 43.646v6.387l16.702 9.95 4.427-2.627" transform="matrix(.76857 0 0 .76864 -.495 -1.563)"/><path d="m32.522 37.166-16.703-9.977-11.135 9.263 16.703 10.682z" transform="matrix(.76857 0 0 .76864 -.495 -1.563)"/><path d="m49.224 27.191-16.702 9.975 11.135 9.968 16.702-10.681z" transform="matrix(.76857 0 0 .76864 -.495 -1.563)"/><path d="m32.522 17.213 16.702 9.978 11.135-9.978-16.006-10.69z" transform="matrix(.76857 0 0 .76864 -.495 -1.563)"/><path d="m9.35 14.115-4.666 3.098 11.136 9.977 16.703-9.978-11.833-10.689-4.426 2.779" transform="matrix(.76857 0 0 .76864 -.495 -1.563)"/></g></svg>