<svg xmlns="http://www.w3.org/2000/svg" xmlns:xlink="http://www.w3.org/1999/xlink" version="1.1" id="svg12" width="64" height="64"><defs id="defs8"><linearGradient id="linearGradient1037"><stop offset="0" id="stop1033" stop-color="#7400b4" stop-opacity="1"/><stop offset="1" id="stop1035" stop-color="#7400b4" stop-opacity="0"/></linearGradient><linearGradient id="a"><stop offset="0" stop-color="#ffd900" id="stop2"/><stop offset="1" stop-color="#ff000a" id="stop4"/></linearGradient><linearGradient xlink:href="#a" id="b" gradientUnits="userSpaceOnUse" x1="14.002" y1="23.995" x2="34.001" y2="23.995" gradientTransform="matrix(2.11747 0 0 2.11064 -17.039 -19.211)"/><linearGradient gradientTransform="translate(-71.795 -19.28) scale(1.4928)" y2="23.995" x2="34.001" y1="23.995" x1="14.002" gradientUnits="userSpaceOnUse" id="b-3" xlink:href="#a"/><linearGradient id="linearGradient4461"><stop offset="0" id="stop4463" stop-color="#000" stop-opacity=".914"/><stop offset="1" id="stop4465" stop-color="#000" stop-opacity="0"/></linearGradient><linearGradient id="linearGradient4455"><stop offset="0" id="stop4457" stop-color="#dbdbdb" stop-opacity="1"/><stop offset="1" id="stop4459" stop-color="#fff" stop-opacity=".996"/></linearGradient><linearGradient id="linearGradient4369"><stop id="stop4371" offset="0" stop-color="#909090" stop-opacity="1"/><stop id="stop4373" offset="1" stop-color="#bbb" stop-opacity=".996"/></linearGradient><linearGradient id="linearGradient4272"><stop id="stop4274" offset="0" stop-color="#fb7600" stop-opacity="1"/><stop id="stop4276" offset="1" stop-color="#ffb00f" stop-opacity="1"/></linearGradient><linearGradient id="linearGradient4214"><stop id="stop4216" offset="0" stop-color="#fff" stop-opacity="1"/><stop id="stop4218" offset="1" stop-color="#fff" stop-opacity="0"/></linearGradient><linearGradient x1="428.816" gradientTransform="translate(-384.57 -499.8)" gradientUnits="userSpaceOnUse" x2="388.865" y2="499.679" y1="547.634" id="a-3"><stop id="stop7" stop-color="#2a2c2f"/><stop id="stop9" stop-color="#536161" offset="1"/></linearGradient><linearGradient x1="36" gradientUnits="userSpaceOnUse" x2="14" y2="12" y1="44" id="b-6"><stop id="stop12" stop-color="#bfc9c9" stop-opacity="1"/><stop id="stop14" stop-color="#fbfbfb" offset="1" stop-opacity="1"/></linearGradient><linearGradient gradientTransform="translate(-384.57 -499.8)" gradientUnits="userSpaceOnUse" x2="419.974" y2="539.825" x1="418.57" y1="529.8" id="c"><stop id="stop17" stop-color="#292c2f"/><stop id="stop19" stop-opacity="0" offset="1"/></linearGradient><style type="text/css" id="current-color-scheme"/><linearGradient gradientUnits="userSpaceOnUse" y2="27.5" x2="28.5" y1="3" x1="15.25" id="linearGradient4220" xlink:href="#linearGradient4214"/><linearGradient gradientTransform="translate(-404.99 -523.8)" gradientUnits="userSpaceOnUse" x2="419.974" y2="539.825" x1="406.501" y1="527.014" id="c-6"><stop id="stop17-7" stop-color="#292c2f"/><stop id="stop19-5" stop-opacity="0" offset="1"/></linearGradient><linearGradient gradientTransform="translate(6.243 -2)" gradientUnits="userSpaceOnUse" y2="36.243" x2="25.024" y1="15.257" x1="20.279" id="linearGradient4304" xlink:href="#linearGradient4461"/><style type="text/css" id="current-color-scheme-6"/><style type="text/css" id="current-color-scheme-7"/><style type="text/css" id="current-color-scheme-5"/><linearGradient gradientTransform="translate(-107.895 -15.107)" gradientUnits="userSpaceOnUse" y2="6.765" x2="15.496" y1="32.021" x1="31.46" id="linearGradient4278" xlink:href="#linearGradient4272"/><linearGradient gradientTransform="translate(-2.25)" gradientUnits="userSpaceOnUse" y2="31.744" x2="10.161" y1="41.378" x1="14.709" id="linearGradient4375" xlink:href="#linearGradient4455"/><linearGradient gradientTransform="translate(-.5)" y2="30.948" x2="20.856" y1="42.439" x1="28.055" gradientUnits="userSpaceOnUse" id="linearGradient4400" xlink:href="#linearGradient4455"/><linearGradient gradientUnits="userSpaceOnUse" y2="31.744" x2="10.161" y1="41.378" x1="14.709" id="linearGradient4375-0" xlink:href="#linearGradient4369" gradientTransform="translate(-9.229 -32.78)"/><linearGradient gradientTransform="translate(1.25)" y2="31.832" x2="32.965" y1="41.466" x1="39.192" gradientUnits="userSpaceOnUse" id="linearGradient4435" xlink:href="#linearGradient4455"/><linearGradient id="a-7"><stop id="stop887" stop-color="#ff9b00" offset="0"/><stop id="stop889" stop-color="#ff1200" offset="1"/></linearGradient><linearGradient gradientUnits="userSpaceOnUse" y2="14.847" x2="30.393" y1="38.644" x1="18.624" id="b-5" xlink:href="#a-7" gradientTransform="matrix(1.239 0 0 1.26487 3.147 1.294)"/><linearGradient xlink:href="#a-7" id="linearGradient929" x1="2.788" y1="32.981" x2="63.047" y2="32.981" gradientUnits="userSpaceOnUse"/><linearGradient xlink:href="#a-7" id="linearGradient872" gradientUnits="userSpaceOnUse" gradientTransform="matrix(1.27718 0 0 1.27688 -13.903 -6.654)" x1="18.985" y1="33.998" x2="58.863" y2="32.027"/><style id="current-color-scheme-2" type="text/css"/><style id="current-color-scheme-6-5" type="text/css"/><style id="current-color-scheme-7-9" type="text/css"/><style id="current-color-scheme-5-2" type="text/css"/><linearGradient xlink:href="#a-7" id="linearGradient1031" x1="19.557" y1="57.699" x2="76.509" y2="57.02" gradientUnits="userSpaceOnUse" gradientTransform="translate(-14.813 -20.422)"/><linearGradient xlink:href="#linearGradient1037" id="linearGradient1039" x1="20.008" y1="38.458" x2="47.889" y2="38.458" gradientUnits="userSpaceOnUse" gradientTransform="translate(-14.813 -20.422)"/></defs><path id="path904" d="M21.033 32.516a13.276 13.273 0 0 1 13.344-12.39 13.276 13.273 0 0 1 13.16 12.584 13.276 13.273 0 0 1-11.786 13.88 13.276 13.273 0 0 1-14.556-10.942" opacity="1" fill="#7426c2" fill-opacity="1" stroke="none" stroke-width="5" stroke-linecap="round" stroke-linejoin="round" stroke-miterlimit="4" stroke-dasharray="none" stroke-dashoffset="0" stroke-opacity="1"/><path d="M41.801 21.801a14.143 14.14 0 0 1 5.752 18.54 14.143 14.14 0 0 1-18.181 6.811" id="path870" opacity="1" fill="none" fill-opacity="1" stroke="url(#linearGradient872)" stroke-width="5" stroke-linecap="round" stroke-linejoin="round" stroke-miterlimit="4" stroke-dasharray="none" stroke-dashoffset="0" stroke-opacity="1"/><path d="M41.326 4.531c.855 1.838 2.39 3.682 3.482 5.13 3.969 2.851 4.859 6.622 9.184 6.733 4.134 4.122 6.552 13.58 6.545 17.608-.001 3.055-.244 4.907-.976 7.457-.807 2.806-2.24 5.806-3.887 8.137-4.374 6.19-10.894 10.29-18.265 11.485-1.582.256-4.043.414-5.425.347v0c-4.31-.207-7.943-1.149-11.628-3.013C13.25 54.82 8.004 48.25 6.06 40.503c-.586-2.335-.775-3.915-.77-6.463.002-1.798.025-2.16.217-3.405.56-3.646 1.091-5.448 2.375-8.049a23.007 23.007 0 0 1 3.518-5.24c1.664-1.864 4.167-3.907 4.589-3.745.088.034.108.322.108 1.517 0 2.183.234 3.931.646 4.829l.193.422 1.111-1.098c1.127-1.114 2.127-1.928 3.32-2.702.94-.61 2.17-1.251 2.246-1.17.036.036-.008.415-.097.84-.221 1.053-.241 3.609-.036 4.606.224 1.094.272 1.21 1.126 1.945 0 0 3.424 3.018 5.071 3.995.929.55 2.69.255 2.968 1.297.346 1.3-1.255 2.55-2.411 3.24-1.448.866-3.484.017-5.008.742-1.896.902-4.197 2.203-4.643 4.254-.456 2.1 1.251 4.196 2.514 5.934 1.2 1.652 4.627 4.016 4.627 4.016m12.755-25.696c-6.723-5.147-2.978-11.724.848-16.04" id="path898" fill="none" stroke="url(#linearGradient929)" stroke-width="5" stroke-linecap="round" stroke-linejoin="round" stroke-miterlimit="4" stroke-dasharray="none" stroke-opacity="1"/><path d="M23.967 43.124c8.258-2.11-.04-5.447 9.262-5.264" id="path1007" fill="url(#linearGradient1039)" fill-opacity="1" stroke="url(#linearGradient1031)" stroke-width="5" stroke-linecap="round" stroke-linejoin="round" stroke-miterlimit="4" stroke-dasharray="none" stroke-opacity="1"/></svg>