<svg xmlns="http://www.w3.org/2000/svg" width="64" height="64" viewBox="0 0 16.933 16.933"><g fill="none" stroke-width="1.323" stroke-linecap="round" stroke-linejoin="round"><path d="M11.119 9.028a2.737 2.737 0 0 1-3.276 2.05A2.737 2.737 0 0 1 5.781 7.81a2.737 2.737 0 0 1 3.26-2.074 2.737 2.737 0 0 1 2.087 3.252" stroke="#3c9fff"/><path d="M12.677 5.513l1.082-1.61m-10.515-.09a6.954 6.954-.001 0 1 5.278-2.358 6.954 6.954-.001 0 1 5.237 2.448" stroke="#fd1660"/><path d="M8.907 13.714l.847 1.745m5.368-9.043a6.954 6.954-.218 0 1-.618 5.748 6.954 6.954-.218 0 1-4.75 3.295" stroke="#23d792"/><path d="M3.774 6.486l-1.936-.115m5.261 9.105a6.954 6.954.22 0 1-4.71-3.35 6.954 6.954.22 0 1-.551-5.755" stroke="#ff713a"/></g></svg>