<svg xmlns="http://www.w3.org/2000/svg" xmlns:xlink="http://www.w3.org/1999/xlink" width="64" height="64"><defs><linearGradient y2="21.669" y1="21.669" x2="-15.602" x1="-44.602" gradientUnits="userSpaceOnUse" id="b"><stop offset="0" stop-color="#00e9ff"/><stop offset="1" stop-color="#0070ff"/></linearGradient><linearGradient xlink:href="#a" id="c" gradientUnits="userSpaceOnUse" x1="-44.602" y1="21.669" x2="-15.602" y2="21.669"/><linearGradient xlink:href="#a" id="d" x1="1.836" y1="31.282" x2="62.165" y2="31.282" gradientUnits="userSpaceOnUse"/><linearGradient xlink:href="#b" id="e" x1="-35.943" y1="23.559" x2="-21.394" y2="23.559" gradientUnits="userSpaceOnUse"/></defs><linearGradient id="a" gradientUnits="userSpaceOnUse" x1="-44.602" x2="-15.602" y1="21.669" y2="21.669"><stop offset="0" stop-color="#0070ff"/><stop offset="1" stop-color="#00e9ff"/></linearGradient><g transform="matrix(-1.9418 0 0 1.94175 -26.338 -10.102)" fill="none" stroke="url(#c)" stroke-width="2.575" stroke-linecap="round" stroke-linejoin="round"><path d="M20.454 27.465C24.493 21.753 31.801 11.383 32 11.383v0c.277 0 13.97 19.438 14.108 19.636.139.198 13.693 19.701 13.555 19.899-.138.198-27.386.264-27.663.264-.276 0-27.524-.066-27.663-.264-.138-.198 8.357-12.884 8.357-12.884" transform="matrix(-.51499 0 0 .515 -13.564 5.203)" stroke="url(#d)" stroke-width="5"/><path d="M-22.694 22.125l-2.892 3.413-3.517-3.959-2.937 3.668-2.601-2.351" stroke="url(#e)"/></g></svg>