<svg height="64" width="64" xmlns="http://www.w3.org/2000/svg" xmlns:xlink="http://www.w3.org/1999/xlink"><linearGradient id="a" gradientTransform="matrix(.91363843 0 0 .92253187 87.222721 -135.42661)" gradientUnits="userSpaceOnUse" x1="-92.469" x2="-25.412" y1="182.407" y2="182.407"><stop offset="0" stop-color="#00d320"/><stop offset="1" stop-color="#78ca26"/></linearGradient><path d="m53.914714 13.308465c-3.301038-.667148-6.66154-.826325-10.023635-.790317-5.670266.02695-11.270743 1.310263-16.52599 3.321252-4.443591 1.762348-8.719219 4.058979-12.2867 7.185302-.380255.344527-.746762.70383-1.090517 1.082891 3.55726 8.935764 10.413047 16.384181 18.412425 21.864033 3.653528 2.525778 7.583949 4.642629 11.664061 6.44611m17.506317-33.40192c-1.127914-.11608-2.290172-.160761-3.43606-.155587-8.507832-.0036-17.086499 2.888438-23.502603 8.404044-.88858.735332-1.744604 1.514237-2.490373 2.388504 1.388955 3.894551 3.721993 7.539872 6.787573 10.431448m-27.160462-4.598313c-2.5580209 1.281561-5.16556 2.4727-7.6693193 3.854246 1.1656622 1.106017 2.4601406 2.105424 3.7309714 3.111922 4.6344599 3.566893 9.8558149 6.412182 15.4310839 8.343518.986129.339482 3.040863.894682 3.040863.894682" fill="none" stroke="url(#a)" stroke-linecap="round" stroke-linejoin="round" stroke-width="5"/></svg>