<svg xmlns="http://www.w3.org/2000/svg" xmlns:xlink="http://www.w3.org/1999/xlink" width="64" height="64" viewBox="0 0 16.933 16.933"><defs><linearGradient id="a"><stop stop-color="#ff0622" offset="0"/><stop stop-color="#ff1076" offset="1"/></linearGradient><linearGradient xlink:href="#a" id="b" x1=".265" y1="8.459" x2="16.666" y2="8.459" gradientUnits="userSpaceOnUse"/><linearGradient xlink:href="#a" id="c" gradientUnits="userSpaceOnUse" x1=".265" y1="8.459" x2="16.666" y2="8.459"/><linearGradient xlink:href="#a" id="d" gradientUnits="userSpaceOnUse" x1=".265" y1="8.459" x2="16.666" y2="8.459"/></defs><g transform="matrix(1.00025 0 0 1 -.001 .001)" fill="none" stroke="url(#b)" stroke-width="1.323" stroke-linecap="round" stroke-linejoin="round"><path d="M3.389 2.878a7.54 7.549 0 0 1 10.125-.027 7.54 7.549 0 0 1 1.024 10.084 7.54 7.549 0 0 1-9.924 2.013 7.54 7.549 0 0 1-2.978-9.687" stroke="url(#c)"/><path d="M6.975 2.747c-1.93.809-2.916 3.94-1.106 5.273 3.3-.08 1.882 5.274-.933 3.664-1.606.14-.17 1.625.781 1.584 1.76.552 4.635-1.045 3.565-3.057-.344-2.306 3.571-2.93 3.84-.534.066 1.308 1.678.687 1.196-.428-.091-1.853-2.21-3.699-3.971-2.916-1.063 2.28-4.67.283-3.455-1.797.436-.598 1.819-1.839.083-1.789z" stroke="url(#d)"/></g></svg>