<svg xmlns="http://www.w3.org/2000/svg" width="64" height="64"><path d="M38.747 43.013c-1.107.141-2.294-.1-3.362.136-.158 2.106-.57 4.99 1.474 6.37 2.185 1.535 5.844-.283 5.474-3.087-.118-1.81-1.738-3.465-3.586-3.42z" fill="#ff9a00" stroke-width="5" stroke-linecap="round" stroke-linejoin="round"/><path d="M43.34 26.22c.142 1.107-.099 2.293.137 3.36 2.107.158 4.993.57 6.374-1.472 1.536-2.184-.283-5.841-3.089-5.471-1.81.118-3.467 1.737-3.422 3.583z" fill="#61dd32" stroke-width="5" stroke-linecap="round" stroke-linejoin="round"/><path d="M37.507 14.424v15.113" fill="none" stroke="#61dd32" stroke-width="5" stroke-linecap="round" stroke-linejoin="round"/><path d="M51.164 37.78H35.316" fill="none" stroke="#ff9a00" stroke-width="5" stroke-linecap="round" stroke-linejoin="round"/><path d="M25.471 21.616c1.107-.142 2.294.098 3.363-.137.157-2.106.57-4.99-1.474-6.37-2.185-1.535-5.845.283-5.475 3.087.118 1.81 1.739 3.465 3.586 3.42z" fill="#0096e8" stroke-width="5" stroke-linecap="round" stroke-linejoin="round"/><path d="M21.721 38.711c-.142-1.107.099-2.293-.137-3.36-2.107-.158-4.993-.57-6.374 1.472-1.536 2.184.283 5.841 3.089 5.471 1.811-.118 3.467-1.737 3.422-3.583z" fill="#fb3976" stroke-width="5" stroke-linecap="round" stroke-linejoin="round"/><path d="M28.974 27.606H14.75" fill="none" stroke="#0096e8" stroke-width="5" stroke-linecap="round" stroke-linejoin="round"/><path d="M27.524 50.141v-14.75" fill="none" stroke="#fb3976" stroke-width="5" stroke-linecap="round" stroke-linejoin="round"/><path d="M5 30.152a27.656 27.66 90 0 0 19.886 28.383 27.656 27.66 90 0 0 31.999-13.318 27.656 27.66 90 0 0-6.131-34.107A27.656 27.66 90 0 0 16.12 9.766" fill="none" stroke="#595959" stroke-width="5" stroke-linecap="round" stroke-linejoin="round"/></svg>