<svg xmlns="http://www.w3.org/2000/svg" width="64" height="64"><path d="M-29.016-12.474a18.034 10.372 0 0 1-14.488 3.215 18.034 10.372 0 0 1-13.462-4.453" transform="rotate(-159.836) skewX(.096)" fill="none" stroke="#4fbe73" stroke-width="5" stroke-linecap="round" stroke-linejoin="round"/><path d="M55.724 46.376a27.66 27.656 0 0 0-6.953-36.539 27.66 27.656 0 0 0-37.043 3.427 27.66 27.656 0 0 0-.13 37.195 27.66 27.656 0 0 0 37.019 3.684" fill="none" stroke="#0adf57" stroke-width="5" stroke-linecap="round" stroke-linejoin="round"/><path transform="rotate(-159.836) skewX(.096)" d="M-32.2-20.942a14.355 8.257 0 0 1-10.348 2.226 14.355 8.257 0 0 1-10.033-2.66m17.821-7.704a12.679 6.577 0 0 1-13.394-.204" fill="none" stroke="#4fbe73" stroke-width="5" stroke-linecap="round" stroke-linejoin="round"/></svg>