<?xml version="1.0" encoding="UTF-8" standalone="no"?>
<svg
   xmlns:dc="http://purl.org/dc/elements/1.1/"
   xmlns:cc="http://creativecommons.org/ns#"
   xmlns:rdf="http://www.w3.org/1999/02/22-rdf-syntax-ns#"
   xmlns:svg="http://www.w3.org/2000/svg"
   xmlns="http://www.w3.org/2000/svg"
   xmlns:xlink="http://www.w3.org/1999/xlink"
   xmlns:sodipodi="http://sodipodi.sourceforge.net/DTD/sodipodi-0.dtd"
   xmlns:inkscape="http://www.inkscape.org/namespaces/inkscape"
   width="64"
   height="64"
   version="1.1"
   id="svg23"
   sodipodi:docname="steam.svg"
   inkscape:version="0.92.4 5da689c313, 2019-01-14">
  <metadata
     id="metadata27">
    <rdf:RDF>
      <cc:Work
         rdf:about="">
        <dc:format>image/svg+xml</dc:format>
        <dc:type
           rdf:resource="http://purl.org/dc/dcmitype/StillImage" />
      </cc:Work>
    </rdf:RDF>
  </metadata>
  <sodipodi:namedview
     pagecolor="#ffffff"
     bordercolor="#666666"
     borderopacity="1"
     objecttolerance="10"
     gridtolerance="10"
     guidetolerance="10"
     inkscape:pageopacity="0"
     inkscape:pageshadow="2"
     inkscape:window-width="1312"
     inkscape:window-height="744"
     id="namedview25"
     showgrid="false"
     inkscape:zoom="5.2149125"
     inkscape:cx="47.264905"
     inkscape:cy="24.934591"
     inkscape:window-x="54"
     inkscape:window-y="24"
     inkscape:window-maximized="1"
     inkscape:current-layer="g924">
    <inkscape:grid
       type="xygrid"
       id="grid843" />
  </sodipodi:namedview>
  <defs
     id="defs10">
    <linearGradient
       y2="21.669"
       y1="21.669"
       x2="-15.602"
       x1="-44.602"
       gradientUnits="userSpaceOnUse"
       id="b">
      <stop
         stop-color="#0070ff"
         offset="0"
         id="stop2" />
      <stop
         stop-color="#23b4da"
         offset="1"
         id="stop4" />
    </linearGradient>
    <linearGradient
       xlink:href="#a"
       id="c"
       gradientUnits="userSpaceOnUse"
       x1="-44.602"
       y1="21.669"
       x2="-15.602"
       y2="21.669" />
    <linearGradient
       xlink:href="#b"
       id="d"
       x1="-22.314"
       y1="23.578"
       x2="-34.993"
       y2="23.578"
       gradientUnits="userSpaceOnUse"
       gradientTransform="matrix(1.11556,0,0,2.57795,3.137,-39.847)" />
    <linearGradient
       xlink:href="#b"
       id="e"
       x1="14.092"
       y1="19.727"
       x2="42.643"
       y2="19.727"
       gradientUnits="userSpaceOnUse"
       gradientTransform="scale(-1,1)" />
  </defs>
  <linearGradient
     id="a"
     gradientUnits="userSpaceOnUse"
     x1="-44.602"
     x2="-15.602"
     y1="21.669"
     y2="21.669">
    <stop
       offset="0"
       stop-color="#0070ff"
       id="stop12" />
    <stop
       offset="1"
       stop-color="#00e9ff"
       id="stop14" />
  </linearGradient>
  <g
     id="g924"
     transform="matrix(1.0338874,0,0,1.0352377,-2.8383329,-1.8782541)"
     style="stroke:#0084ff;stroke-width:0.96659225;stroke-opacity:1">
    <path
       transform="matrix(0.71797237,-0.6960716,0.7046341,0.70957085,0,0)"
       d="m -18.193281,54.565287 a 6.1240935,6.1227012 0 0 1 6.223748,-5.986939 6.1240935,6.1227012 0 0 1 6.0225816,6.189174 6.1240935,6.1227012 0 0 1 -6.1572246,6.055302 6.1240935,6.1227012 0 0 1 -6.090592,-6.122289"
       sodipodi:open="true"
       sodipodi:end="3.1415403"
       sodipodi:start="3.1636316"
       sodipodi:ry="6.1227012"
       sodipodi:rx="6.1240935"
       sodipodi:cy="54.700214"
       sodipodi:cx="-12.070675"
       sodipodi:type="arc"
       id="path893"
       style="opacity:1;fill:none;fill-opacity:1;stroke:#0084ff;stroke-width:4.83313513;stroke-linecap:round;stroke-linejoin:round;stroke-miterlimit:4;stroke-dasharray:none;stroke-dashoffset:0;stroke-opacity:1;paint-order:normal" />
    <path
       style="fill:none;stroke:#0084ff;stroke-width:4.83296108;stroke-linecap:round;stroke-linejoin:miter;stroke-miterlimit:4;stroke-dasharray:none;stroke-opacity:1"
       d="M 31.321605,40.68978 43.79848,28.596363"
       id="path897"
       inkscape:connector-curvature="0" />
    <path
       inkscape:connector-curvature="0"
       id="path899"
       d="M 36.60711,46.011055 49.083985,33.917637"
       style="fill:none;stroke:#0084ff;stroke-width:4.83296108;stroke-linecap:round;stroke-linejoin:miter;stroke-miterlimit:4;stroke-dasharray:none;stroke-opacity:1" />
    <path
       transform="matrix(0.71797237,-0.6960716,0.7046341,0.70957085,0,0)"
       style="opacity:1;fill:none;fill-opacity:1;stroke:#0084ff;stroke-width:4.83313513;stroke-linecap:round;stroke-linejoin:round;stroke-miterlimit:4;stroke-dasharray:none;stroke-dashoffset:0;stroke-opacity:1;paint-order:normal"
       id="path903"
       sodipodi:type="arc"
       sodipodi:cx="20.79492"
       sodipodi:cy="54.351589"
       sodipodi:rx="1.7804985"
       sodipodi:ry="1.7800747"
       sodipodi:start="3.1636316"
       sodipodi:end="3.1415403"
       sodipodi:open="true"
       d="m 19.014854,54.312361 a 1.7804985,1.7800747 0 0 1 1.809472,-1.740604 1.7804985,1.7800747 0 0 1 1.750985,1.799401 1.7804985,1.7800747 0 0 1 -1.790131,1.760479 1.7804985,1.7800747 0 0 1 -1.770759,-1.779955" />
    <path
       style="opacity:1;fill:none;fill-opacity:1;stroke:#00c6ff;stroke-width:4.83324432;stroke-linecap:round;stroke-linejoin:round;stroke-miterlimit:4;stroke-dasharray:none;stroke-dashoffset:0;stroke-opacity:1;paint-order:normal"
       id="path891"
       sodipodi:type="arc"
       sodipodi:cx="-20.678093"
       sodipodi:cy="-54.205551"
       sodipodi:rx="10.107574"
       sodipodi:ry="10.104641"
       sodipodi:start="4.5884497"
       sodipodi:end="3.3495986"
       d="m -21.927614,-64.232683 a 10.107574,10.104641 0 0 1 10.421511,5.781287 10.107574,10.104641 0 0 1 -2.331498,11.684836 10.107574,10.104641 0 0 1 -11.842722,1.341441 10.107574,10.104641 0 0 1 -4.887472,-10.867134"
       transform="matrix(-0.71911656,0.69488947,-0.70580112,-0.70841004,0,0)"
       sodipodi:open="true" />
    <path
       inkscape:connector-curvature="0"
       id="path905"
       d="M 14.017926,31.585407 24.935315,42.872994"
       style="fill:none;stroke:#0084ff;stroke-width:4.83296061;stroke-linecap:round;stroke-linejoin:miter;stroke-miterlimit:4;stroke-dasharray:none;stroke-opacity:1" />
    <path
       style="opacity:1;fill:none;fill-opacity:1;stroke:#00c6ff;stroke-width:4.83318615;stroke-linecap:round;stroke-linejoin:round;stroke-miterlimit:4;stroke-dasharray:none;stroke-dashoffset:0;stroke-opacity:1;paint-order:normal"
       id="path895"
       sodipodi:type="arc"
       sodipodi:cx="-11.815118"
       sodipodi:cy="27.380575"
       sodipodi:rx="5.1381173"
       sodipodi:ry="5.1367917"
       sodipodi:start="3.1636316"
       sodipodi:end="3.1276852"
       sodipodi:open="true"
       d="m -16.951987,27.267375 a 5.1381173,5.1367917 0 0 1 5.203932,-5.023154 5.1381173,5.1367917 0 0 1 5.071012,5.157239 5.1381173,5.1367917 0 0 1 -5.112791,5.115845 5.1381173,5.1367917 0 0 1 -5.162904,-5.065292"
       transform="matrix(0.71854315,-0.69548238,0.70521623,0.70899229,0,0)" />
  </g>
</svg>
