<svg xmlns="http://www.w3.org/2000/svg" xmlns:xlink="http://www.w3.org/1999/xlink" width="64" height="64" viewBox="0 0 16.933 16.933"><defs><linearGradient id="a"><stop offset="0" stop-color="#29da84"/><stop offset="1" stop-color="#61ec5f"/></linearGradient><linearGradient xlink:href="#a" id="b" x1="2.372" y1="294.795" x2="13.865" y2="283.77" gradientUnits="userSpaceOnUse"/></defs><path d="M9.956 290.586c-.49.33-1.1.479-1.688.412a2.54 2.54 0 0 1-1.553-.78 2.475 2.475 0 0 1-.666-1.68 2.353 2.353 0 0 1 .7-1.66 2.459 2.459 0 0 1 1.77-.669c.575.017 1.142.23 1.585.596.444.365.761.881.887 1.442.066.396.024.81-.12 1.183-.145.375-.392.71-.706.958-.082.065-.169.124-.243.198a.997.997 0 0 0-.277.751c.013.275.128.54.3.755.172.214.398.382.643.509.244.127.506.215.771.29.899.254 1.84.356 2.773.3l1.336-2.639a2.327 2.327 0 0 1-.958-.829 2.327 2.327 0 0 1-.378-1.209 2.33 2.33 0 0 1 .356-1.293 2.33 2.33 0 0 1 1.014-.878l-1.637-2.573a2.476 2.476 0 0 1-1.465.443 2.476 2.476 0 0 1-1.442-.51 2.47 2.47 0 0 1-.772-1.01 2.47 2.47 0 0 1-.163-1.261l-3.208-.034c.067.432.018.882-.139 1.29a2.531 2.531 0 0 1-.763 1.049 2.529 2.529 0 0 1-1.503.56 2.539 2.539 0 0 1-1.537-.46l-1.403 2.372a2.563 2.563 0 0 1 1.27 2.405 2.602 2.602 0 0 1-1.303 2.038l1.403 2.606a2.705 2.705 0 0 1 2.839-.033c.41.247.752.605.98 1.025.227.42.34.902.323 1.38l3.04.134" transform="matrix(1 0 0 -1 0 297.095)" fill="none" stroke="url(#b)" stroke-width="1.323" stroke-linecap="round" stroke-linejoin="round"/></svg>