<svg xmlns="http://www.w3.org/2000/svg" xmlns:xlink="http://www.w3.org/1999/xlink" width="64" height="64"><defs><linearGradient id="a"><stop offset="0" stop-color="red"/><stop offset="1" stop-color="red" stop-opacity="0"/></linearGradient><linearGradient xlink:href="#a" id="b" gradientUnits="userSpaceOnUse" x1="79.216" y1="60.363" x2="94.854" y2="60.363" gradientTransform="matrix(2.45345 0 0 2.4687 -24.439 -24.929)"/></defs><g fill="none" stroke="red" stroke-width="3.987" stroke-linecap="round" stroke-linejoin="round"><path d="M24.275 8.383c-5.272 0-13.01.305-15.342.38-2.535.223-3.487.352-4.88 1.517-2.115 1.85-2.602 5.503-2.602 11.06v5.313c0 6.349.867 9.555 2.277 10.734 1.628 1.376 2.712 1.464 3.796 1.628.42.06 3.381.615 16.59.615 8.232 0 15.313-.399 16.046-.487 1.18-.15 2.846-.338 4.12-1.735 1.89-2.114 2.277-5.652 2.277-10.74m0-7.708c0-3.292-.196-6.386-2.277-8.338-1.572-1.308-2.162-1.68-5.422-1.844-.92-.04-8.965-.38-14.582-.38" transform="matrix(1.25016 0 0 1.25793 2.077 3.54)"/><path d="M27.081 32.271v-7.829 0l17.174 9.875-17.174 9.875v-3.92" stroke="url(#b)" stroke-width="5"/></g></svg>