<?xml version="1.0" encoding="UTF-8" standalone="no"?>
<!-- Created with Inkscape (http://www.inkscape.org/) -->

<svg
   xmlns:dc="http://purl.org/dc/elements/1.1/"
   xmlns:cc="http://creativecommons.org/ns#"
   xmlns:rdf="http://www.w3.org/1999/02/22-rdf-syntax-ns#"
   xmlns:svg="http://www.w3.org/2000/svg"
   xmlns="http://www.w3.org/2000/svg"
   xmlns:sodipodi="http://sodipodi.sourceforge.net/DTD/sodipodi-0.dtd"
   xmlns:inkscape="http://www.inkscape.org/namespaces/inkscape"
   width="16px"
   height="16px"
   viewBox="0 0 16 16"
   version="1.1"
   id="SVGRoot"
   inkscape:version="0.92.1 r15371"
   sodipodi:docname="checkbox-checked-insensitive.svg">
  <sodipodi:namedview
     id="base"
     pagecolor="#ffffff"
     bordercolor="#666666"
     borderopacity="1.0"
     inkscape:pageopacity="0.0"
     inkscape:pageshadow="2"
     inkscape:zoom="16"
     inkscape:cx="-10.02875"
     inkscape:cy="8.1556869"
     inkscape:document-units="px"
     inkscape:current-layer="layer1"
     showgrid="false"
     inkscape:window-width="1920"
     inkscape:window-height="1020"
     inkscape:window-x="0"
     inkscape:window-y="28"
     inkscape:window-maximized="1"
     inkscape:grid-bbox="true" />
  <defs
     id="defs4503" />
  <metadata
     id="metadata4506">
    <rdf:RDF>
      <cc:Work
         rdf:about="">
        <dc:format>image/svg+xml</dc:format>
        <dc:type
           rdf:resource="http://purl.org/dc/dcmitype/StillImage" />
        <dc:title></dc:title>
      </cc:Work>
    </rdf:RDF>
  </metadata>
  <g
     id="layer1"
     inkscape:groupmode="layer"
     inkscape:label="Laag 1">
    <g
       id="g5158">
      <path
         style="fill:#b7bec8;fill-opacity:1;stroke-width:0.15363453"
         inkscape:connector-curvature="0"
         id="path2"
         d="m 7.8311241,11.876394 c -0.3230094,0 -0.6337824,-0.123678 -0.8654894,-0.344101 L 3.8952415,8.5847961 c -0.477533,-0.4578475 -0.477533,-1.2002136 0,-1.6591144 0.4784743,-0.4589007 1.2523477,-0.4589007 1.730822,0 L 7.6466369,8.8628448 12.884597,1.3932944 c 0.377603,-0.53759099 1.137985,-0.68022637 1.69929,-0.3179205 0.561148,0.3605005 0.709083,1.0905288 0.333991,1.6288721 l -6.0708196,8.652612 c -0.205038,0.29174 -0.5330675,0.479363 -0.8971786,0.513066 -0.039219,0.0033 -0.078438,0.0065 -0.1187557,0.0065" />
      <path
         style="fill:#b7bec8;fill-opacity:1;stroke-width:0.15363453"
         inkscape:connector-curvature="0"
         id="path4"
         d="m 12.546574,9.0558382 v 3.4716968 c 0,0.433473 -0.365523,0.782539 -0.816701,0.782539 H 3.5727492 c -0.4502364,0 -0.8167007,-0.349066 -0.8167007,-0.782539 V 4.703202 c 0,-0.4309154 0.3664643,-0.7823882 0.8167007,-0.7823882 H 9.2523176 L 10.340729,2.3557364 H 3.5727492 c -1.3481994,0 -2.447749,1.0545691 -2.447749,2.3474656 v 7.824333 c 0,1.294552 1.0995496,2.347465 2.447749,2.347465 h 8.1571238 c 1.349768,0 2.447749,-1.052913 2.447749,-2.347465 V 6.7082222 Z" />
    </g>
  </g>
</svg>
