<?xml version="1.0" encoding="UTF-8" standalone="no"?>
<!-- Created with Inkscape (http://www.inkscape.org/) -->

<svg
   xmlns:dc="http://purl.org/dc/elements/1.1/"
   xmlns:cc="http://creativecommons.org/ns#"
   xmlns:rdf="http://www.w3.org/1999/02/22-rdf-syntax-ns#"
   xmlns:svg="http://www.w3.org/2000/svg"
   xmlns="http://www.w3.org/2000/svg"
   xmlns:sodipodi="http://sodipodi.sourceforge.net/DTD/sodipodi-0.dtd"
   xmlns:inkscape="http://www.inkscape.org/namespaces/inkscape"
   width="32"
   height="32"
   viewBox="0 0 32 32"
   version="1.1"
   id="SVGRoot"
   inkscape:version="0.92.1 r15371"
   sodipodi:docname="checkbox-unchecked@2.svg">
  <sodipodi:namedview
     id="base"
     pagecolor="#ffffff"
     bordercolor="#666666"
     borderopacity="1.0"
     inkscape:pageopacity="0.0"
     inkscape:pageshadow="2"
     inkscape:zoom="16"
     inkscape:cx="-7.8125"
     inkscape:cy="9.0799131"
     inkscape:document-units="px"
     inkscape:current-layer="layer1"
     showgrid="true"
     inkscape:window-width="1920"
     inkscape:window-height="1020"
     inkscape:window-x="0"
     inkscape:window-y="28"
     inkscape:window-maximized="1"
     inkscape:grid-bbox="true">
    <inkscape:grid
       type="xygrid"
       id="grid4483" />
  </sodipodi:namedview>
  <defs
     id="defs4503" />
  <metadata
     id="metadata4506">
    <rdf:RDF>
      <cc:Work
         rdf:about="">
        <dc:format>image/svg+xml</dc:format>
        <dc:type
           rdf:resource="http://purl.org/dc/dcmitype/StillImage" />
        <dc:title></dc:title>
      </cc:Work>
    </rdf:RDF>
  </metadata>
  <g
     id="layer1"
     inkscape:groupmode="layer"
     inkscape:label="Laag 1"
     transform="translate(0,16)">
    <path
       inkscape:connector-curvature="0"
       d="M 24,-12.4 H 7.75 c -2.68125,0 -4.875,2.098828 -4.875,4.6640624 V 7.810938 C 2.875,10.376172 5.06875,12.475 7.75,12.475 H 24 c 2.68125,0 4.875,-2.098828 4.875,-4.664062 V -7.7359376 C 28.875,-10.301172 26.68125,-12.4 24,-12.4 Z m 1.625,20.210938 c 0,0.84264 -0.74425,1.554688 -1.625,1.554688 H 7.75 c -0.88075,0 -1.625,-0.712048 -1.625,-1.554688 V -7.7359376 c 0,-0.8426406 0.74425,-1.5546874 1.625,-1.5546874 H 24 c 0.88075,0 1.625,0.7120468 1.625,1.5546874 z"
       id="path2-4"
       style="fill:#333333;stroke-width:1.58945501" />
  </g>
</svg>
