<svg xmlns="http://www.w3.org/2000/svg" viewBox="0 0 16 16" id="svg5">
  <defs id="defs3051">
    <style id="current-color-scheme">
      .ColorScheme-Text {
        color:#232629;
      }
	  </style>
	</defs>
  <path style="fill:currentColor;fill-opacity:1;stroke:none"
    d="M8 2.03a6.12 6.12 0 0 0-6.12 6.12 6.137 6.137 0 0 0 4.186 5.812c.306.05.404-.14.404-.306v-1.034c-1.695.367-2.056-.82-2.056-.82-.282-.71-.68-.9-.68-.9-.557-.379.043-.367.043-.367.612.043.937.631.937.631.532.93 1.43.654 1.781.507.054-.398.214-.667.385-.82-1.36-.153-2.785-.679-2.785-3.01 0-.68.233-1.224.631-1.659-.062-.153-.275-.789.06-1.616 0 0 .515-.165 1.685.624A5.792 5.792 0 0 1 8 4.99c.52 0 1.046.068 1.53.203 1.169-.788 1.683-.625 1.683-.625.335.826.122 1.463.06 1.616.399.435.63.98.63 1.658 0 2.338-1.431 2.852-2.796 3.005.221.19.423.563.423 1.132v1.677c0 .165.097.361.41.306a6.138 6.138 0 0 0 4.18-5.814A6.12 6.12 0 0 0 8 2.028zm0 0"
    class="ColorScheme-Text"
        />
</svg>
