<svg xmlns="http://www.w3.org/2000/svg" viewBox="0 0 16 16" id="svg6">
  <defs id="defs3051">
    <style type="text/css" id="current-color-scheme">
      .ColorScheme-Text {
        color:#232629;
      }
      </style>
  </defs>
 <path style="fill:currentColor;fill-opacity:1;stroke:none" 
     d="M4.424 2.04a2.398 2.398 0 0 0-2.385 2.384v7.152a2.398 2.398 0 0 0 2.385 2.385H9v-.795H4.424c-.88 0-1.59-.71-1.59-1.59v-4.79h10.332V9h.795V6.166a2.395 2.395 0 0 0-2.35-2.38c-.012-.002-.023-.005-.035-.005H8.758l-.947-.947-.403-.402-.392-.393H4.424zm0 .794h1.97l.954.951h-.594v.008l-.008-.008-2 2H2.834V4.424c0-.88.71-1.59 1.59-1.59zM11.5 9A2.5 2.5 0 0 0 9 11.5a2.5 2.5 0 0 0 .416 1.377l.732-.732A1.5 1.5 0 0 1 10 11.5a1.5 1.5 0 0 1 1.5-1.5 1.5 1.5 0 0 1 .645.148l.732-.732A2.5 2.5 0 0 0 11.5 9zm2.084 1.123l-.732.732A1.5 1.5 0 0 1 13 11.5a1.5 1.5 0 0 1-1.5 1.5 1.5 1.5 0 0 1-.645-.148l-.732.732A2.5 2.5 0 0 0 11.5 14a2.5 2.5 0 0 0 2.5-2.5 2.5 2.5 0 0 0-.416-1.377z"
     class="ColorScheme-Text"
     />
</svg>
