<svg xmlns="http://www.w3.org/2000/svg" width="16" height="16"><g fill="#f5f5f5"><path d="M3.25 3.004h3.5c.137 0 .25.113.25.25v3.5c0 .137-.113.25-.25.25h-3.5a.252.252 0 0 1-.25-.25v-3.5c0-.137.113-.25.25-.25zm0 0M9.25 3.004h3.5c.137 0 .25.113.25.25v3.5c0 .137-.113.25-.25.25h-3.5a.252.252 0 0 1-.25-.25v-3.5c0-.137.113-.25.25-.25zm0 0M3.25 9.008h3.5c.137 0 .25.11.25.25v3.5c0 .137-.113.25-.25.25h-3.5a.252.252 0 0 1-.25-.25v-3.5c0-.14.113-.25.25-.25zm0 0M9.25 9.008h3.5c.137 0 .25.11.25.25v3.5c0 .137-.113.25-.25.25h-3.5a.252.252 0 0 1-.25-.25v-3.5c0-.14.113-.25.25-.25zm0 0"/></g></svg>