<svg xmlns="http://www.w3.org/2000/svg" width="16" height="16"><path d="M14 1c.555 0 1.004.45 1.004 1.004v2.004A1.003 1.003 0 0 1 14 5.004H2.004a1 1 0 0 1-1-1v-2c0-.555.45-1.004 1-1.004zm-.996 1.004a1.003 1.003 0 1 0-.002 2.005 1.003 1.003 0 0 0 .002-2.005zM14 5.879a1 1 0 0 1 1.004 1v2.125c0 .266-.106.52-.293.71a.988.988 0 0 1-.711.29H2.004a1 1 0 0 1-1-1V6.879a1 1 0 0 1 1-1zm-.996 1.125a1.003 1.003 0 1 0-.002 2.005 1.003 1.003 0 0 0 .002-2.005zm.996 4a1 1 0 0 1 1.004 1v2c0 .266-.106.523-.293.71a1.008 1.008 0 0 1-.711.294H2.004a1.003 1.003 0 0 1-1-1.004V12c0-.55.45-.996 1-.996zm-.996 1c-.555 0-1 .445-1.004 1 0 .55.45 1 1.004 1a1.001 1.001 0 0 0 0-2zm0 0" fill="#f5f5f5"/></svg>