<svg xmlns="http://www.w3.org/2000/svg" xmlns:xlink="http://www.w3.org/1999/xlink" width="16" height="16"><defs><filter id="a" filterUnits="objectBoundingBox" x="0%" y="0%" width="100%" height="100%"><feColorMatrix in="SourceGraphic" values="0 0 0 0 1 0 0 0 0 1 0 0 0 0 1 0 0 0 1 0"/></filter><mask id="d"><g filter="url(#a)"><path fill-opacity=".5" d="M0 0h16v16H0z"/></g></mask><clipPath id="b"><path d="M0 0h16v16H0z"/></clipPath><g id="c" clip-path="url(#b)"><path d="M4 5.004v4l1.5-1.5 1.5 1.5 2.5-2.5 2.5 2.5v-4zm0 0" fill="#f5f5f5"/></g></defs><path d="M4 2.004A3.015 3.015 0 0 0 1 5v6.004A3.007 3.007 0 0 0 4 14h8a3.015 3.015 0 0 0 3-2.996V5a3.014 3.014 0 0 0-3-2.992zm0 2.004h8c.57 0 1.004.422 1.004.992v6.004a.988.988 0 0 1-.29.71A.972.972 0 0 1 12 12H4a.957.957 0 0 1-.715-.285.97.97 0 0 1-.285-.711V5c0-.566.426-.992 1-.992zm0 0" fill="#f5f5f5"/><use xlink:href="#c" mask="url(#d)"/><path d="M8 7.004l4 4H4zm0 0" fill="#f5f5f5"/></svg>