<svg xmlns="http://www.w3.org/2000/svg" width="16" height="16"><g transform="matrix(5 0 0 5 -3.365 -3.054)"><filter id="a" color-interpolation-filters="sRGB"><feBlend mode="darken" in2="BackgroundImage"/></filter><g transform="translate(-143.747 104.59) scale(.26458)" filter="url(#a)"><path d="M551.892-390.731a3.773 3.773 0 0 0-3.473 2.315 3.01 3.01 0 0 0-2.575 2.976 3.024 3.024 0 0 0 3.024 3.024h.756a266.112 266.112 0 0 1 4.661 0h1.008a2.646 2.646 0 0 0 2.646-2.646 2.638 2.638 0 0 0-2.339-2.622 3.788 3.788 0 0 0-3.708-3.047z" fill="#f5f5f5"/></g></g></svg>