<svg xmlns="http://www.w3.org/2000/svg" width="16" height="16"><g transform="translate(-65.133 -528.894) scale(1.3229)" filter="url(#filter7554)" fill="#f5f5f5"><path d="M50.1 403.255c-.433 0-.865.432-.865.864v3.455c0 .432.432.864.864.864h.864v-1.728h8.639v1.728h.864c.432 0 .864-.432.864-.864v-3.455c0-.432-.432-.864-.864-.864zm1.727.869c.479 0 .864.385.864.864a.862.862 0 0 1-.864.863.862.862 0 0 1-.864-.863c0-.479.385-.864.864-.864zm0-3.461v1.728h6.911v-1.728z"/><path d="M51.827 407.574v4.32h6.911v-4.32z"/></g></svg>