<svg xmlns="http://www.w3.org/2000/svg" width="16" height="16"><g fill="#f5f5f5"><path d="M2.285 0h3.43L8 2.285h5.715A2.28 2.28 0 0 1 16 4.57v9.145A2.28 2.28 0 0 1 13.715 16H2.285A2.28 2.28 0 0 1 0 13.715V2.285A2.28 2.28 0 0 1 2.285 0zm0 0" fill-opacity=".841"/><path d="M3.43 6.855h9.14a2.286 2.286 0 0 1 2.285 2.29v3.425a2.286 2.286 0 0 1-2.285 2.285H3.43a2.286 2.286 0 0 1-2.285-2.285V9.145a2.286 2.286 0 0 1 2.285-2.29zm0 0"/><path d="M3.43 8h9.14a2.286 2.286 0 0 1 2.285 2.285v3.43A2.286 2.286 0 0 1 12.57 16H3.43a2.286 2.286 0 0 1-2.285-2.285v-3.43A2.286 2.286 0 0 1 3.43 8zm0 0"/></g></svg>