<svg xmlns="http://www.w3.org/2000/svg" xmlns:xlink="http://www.w3.org/1999/xlink" width="16" height="16"><defs><filter id="a" filterUnits="objectBoundingBox" x="0%" y="0%" width="100%" height="100%"><feColorMatrix in="SourceGraphic" values="0 0 0 0 1 0 0 0 0 1 0 0 0 0 1 0 0 0 1 0"/></filter><mask id="e"><g filter="url(#a)"><path fill-opacity=".5" d="M0 0h16v16H0z"/></g></mask><clipPath id="b"><path d="M0 0h16v16H0z"/></clipPath><g id="d" clip-path="url(#b)"><path d="M2.004 2.004A1.994 1.994 0 0 0 0 4v1c0-1.11.89-2.004 2.004-2.004h11.992C15.102 2.996 16 3.895 16 5V4c0-.531-.21-1.043-.586-1.418A1.988 1.988 0 0 0 13.996 2zm0 0" fill="#f5f5f5"/></g><mask id="g"><g filter="url(#a)"><path fill-opacity=".5" d="M0 0h16v16H0z"/></g></mask><clipPath id="c"><path d="M0 0h16v16H0z"/></clipPath><g id="f" clip-path="url(#c)"><path d="M2.004 0A1.975 1.975 0 0 0 .586.586C.207.96-.004 1.473 0 2.004V3C0 1.89.89.996 2.004.996h11.992C15.102.996 16 1.895 16 3V2c0-.531-.21-1.043-.586-1.418A2.003 2.003 0 0 0 13.992 0zm0 0" fill="#f5f5f5"/></g></defs><path d="M2.004 4a1.988 1.988 0 0 0-1.418.582C.207 4.957-.004 5.469 0 6v7.996C0 15.106.89 16 2.004 16H7v-1h1v-1.004H7V13h1v-1H7v-1.004h1L2 8V5.996l6 3 5.996-3V8L8 10.996V12h.996v1H8v.996h.996V15H8v.996h5.996c1.11 0 2.004-.89 2.004-2v-8c0-.531-.21-1.039-.586-1.414A1.988 1.988 0 0 0 13.996 4zM4 9.996l1.25.637L2 13.996v-2zm8 0l2 2v2l-3.25-3.363zm0 0" fill="#f5f5f5"/><use xlink:href="#d" mask="url(#e)"/><use xlink:href="#f" mask="url(#g)"/></svg>