<svg xmlns="http://www.w3.org/2000/svg" width="16" height="16"><g fill="#f5f5f5"><path d="M6.5.996A1.517 1.517 0 0 0 4.996 2.5v1.996c0 .82.68 1.508 1.504 1.508h3A1.515 1.515 0 0 0 11 4.496v-2a1.508 1.508 0 0 0-1.5-1.5zm0 1.008h3c.285 0 .5.207.5.492v2A.486.486 0 0 1 9.5 5h-3a.486.486 0 0 1-.496-.504v-2c0-.285.215-.492.496-.492zM2.504 9.996c-.828.008-1.5.68-1.504 1.508v2a1.52 1.52 0 0 0 1.504 1.5H5.5a1.507 1.507 0 0 0 1.496-1.5v-2A1.516 1.516 0 0 0 5.5 9.996zm0 1.008H5.5a.492.492 0 0 1 .504.5v2a.488.488 0 0 1-.504.492H2.504a.488.488 0 0 1-.36-.137.486.486 0 0 1-.144-.355v-2a.489.489 0 0 1 .504-.5zm8-1.008A1.52 1.52 0 0 0 9 11.504v2c.008.828.68 1.492 1.504 1.5H13.5a1.508 1.508 0 0 0 1.5-1.5v-2a1.517 1.517 0 0 0-1.5-1.508zm0 1.008H13.5a.486.486 0 0 1 .504.5v2a.483.483 0 0 1-.504.492h-2.996a.49.49 0 0 1-.504-.492v-2a.492.492 0 0 1 .504-.5zM1 7v2.004h14V7zm0 0"/><path d="M6.996 5.5v2.504H9V5.5zM3.004 8.004V10.5h1.992V8.004zm7.996 0V10.5h2.004V8.004zm0 0"/></g></svg>