<svg xmlns="http://www.w3.org/2000/svg" xmlns:xlink="http://www.w3.org/1999/xlink" width="16" height="16"><defs><filter id="a" filterUnits="objectBoundingBox" x="0" y="0" width="1" height="1"><feColorMatrix in="SourceGraphic" values="0 0 0 0 1 0 0 0 0 1 0 0 0 0 1 0 0 0 1 0"/></filter><mask id="d"><g filter="url(#a)"><path fill-opacity=".5" d="M0 0h16v12H0z"/></g></mask><clipPath id="b"><path d="M0 0h16v12H0z"/></clipPath><g id="c" clip-path="url(#b)"><path d="M1 11.004c0 .55.445.996.996.996h12c.266 0 .52-.105.707-.29.188-.187.293-.444.293-.706V1H1zm0 0" fill="#f5f5f5"/></g></defs><g transform="translate(-.113 2.53)"><path d="M15.11.47a.98.98 0 0 0-.29-.707 1.015 1.015 0 0 0-.71-.293H2.112a1 1 0 0 0-.707.293.98.98 0 0 0-.289.707v1h13.996zm0 0" fill="#f5f5f5"/><use xlink:href="#c" mask="url(#d)" width="100%" height="100%" transform="translate(.113 -.53)" opacity=".3"/></g></svg>