<?xml version="1.0" encoding="UTF-8"?>
<svg version="1.1" viewBox="-4 -4 24 24" width="48" height="48" xmlns="http://www.w3.org/2000/svg"><path d="m16.001 1.812c-0.0226-0.1139-0.0649-0.2229-0.125-0.3223-0.0026-0.0043-0.0032-0.0094-0.0059-0.0136-0.0588-0.0958-0.1335-0.181-0.2207-0.252-0.0877-0.0708-0.1867-0.1263-0.2929-0.1641-0.0041-0.0014-0.0077-0.0025-0.0117-0.0039-0.1104-0.0388-0.2268-0.058-0.3438-0.0566h-14c-0.133-1.6e-4 -0.266 0.0264-0.389 0.0781-0.118 0.05-0.225 0.1223-0.316 0.2129-1e-3 0.0013-3e-3 0.0026-4e-3 0.0039-0.088 0.089-0.158 0.1937-0.207 0.3086-2e-3 0.0055-6e-3 0.0102-8e-3 0.0156-0.05 0.1208-0.076 0.2502-0.076 0.3809v12c0 0.133 0.026 0.266 0.078 0.389 0.05 0.118 0.122 0.225 0.213 0.316l4e-3 4e-3c0.089 0.088 0.194 0.158 0.309 0.207 5e-3 2e-3 0.01 6e-3 0.015 8e-3 0.121 0.05 0.25 0.076 0.381 0.076h11.438c0.1309 2e-3 0.2609-0.021 0.3828-0.068h0.0039c0.0014-1e-3 0.0026-2e-3 0.0039-2e-3 0.1222-0.048 0.2337-0.12 0.3281-0.211l2.564-2.5622c0.0916-0.095 0.1633-0.2082 0.2109-0.3318 0.0482-0.1231 0.0714-0.2545 0.0684-0.3867v-9.4382c0.0015-0.0312 0.0015-0.0624 0-0.0938 0.0015-0.0312 0.0015-0.0625 0-0.0937zm-1 0.7871v6.8012c0 0.3324-0.2672 0.5996-0.5996 0.5996h-1.951v0.0098c-0.234 0.0245-0.415 0.2051-0.439 0.4394h-0.01v2.9504c0 0.333-0.2672 0.6-0.5996 0.6h-9.7998c-0.333 0-0.6-0.267-0.6-0.6v-10.8c0-0.3324 0.267-0.5996 0.6-0.5996h7.8005c0.0353 0 0.066 0.0137 0.0996 0.0195 0.0336-0.0058 0.0643-0.0195 0.0996-0.0195h4.8008c0.3324 0 0.5996 0.2672 0.5996 0.5996zm0 8.4011-2.0002 1.9996v-0.9999c-1e-4 -1 0-1 1-1z" fill="#f1f2f2" style="text-decoration-line:none;text-indent:0;text-transform:none"/><g transform="translate(-1,1.9997)" fill="#f1f2f2"><rect x="4" y="8.0003" width="3" height="3" color="#000000" fill-rule="evenodd" stroke-width=".67082"/><rect x="10" y="2.0003" width="3" height="3" color="#000000" fill-rule="evenodd" stroke-width=".67082"/><path d="m10 3c-1.2083 0-2.4112 0.70414-3.3535 1.6465-0.94234 0.94234-1.6465 2.1452-1.6465 3.3535h1c0-0.79167 0.54586-1.8388 1.3535-2.6465 0.80766-0.80766 1.8548-1.3535 2.6465-1.3535z" color="#000000" color-rendering="auto" dominant-baseline="auto" image-rendering="auto" shape-rendering="auto" solid-color="#000000" style="font-feature-settings:normal;font-variant-alternates:normal;font-variant-caps:normal;font-variant-ligatures:normal;font-variant-numeric:normal;font-variant-position:normal;isolation:auto;mix-blend-mode:normal;shape-padding:0;text-decoration-color:#000000;text-decoration-line:none;text-decoration-style:solid;text-indent:0;text-orientation:mixed;text-transform:none;white-space:normal"/></g></svg>
