<svg xmlns="http://www.w3.org/2000/svg" viewBox="0 0 24 24" id="svg6">
  <defs id="defs3051">
    <style type="text/css" id="current-color-scheme">
      .ColorScheme-Text {
        color:#232629;
      }
      </style>
  </defs>
 <path 
     style="fill:currentColor;fill-opacity:1;stroke:none" 
     d="M6.58 4.078A2.515 2.515 0 0 0 4.078 6.58v10.84a2.515 2.515 0 0 0 2.502 2.502h10.84a2.515 2.515 0 0 0 2.502-2.502V8.297a2.515 2.515 0 0 0-2.502-2.502h-4.617l-.883-.883-.434-.433-.4-.4H6.58zm3.3 4.795h9.208v8.547c0 .924-.744 1.668-1.668 1.668H6.58a1.664 1.664 0 0 1-1.668-1.668v-6.547h2.961v-.008l.008.008 2-2z"
	 class="ColorScheme-Text"
     />
</svg>
