<svg xmlns="http://www.w3.org/2000/svg" viewBox="0 0 24 24" id="svg6">
  <defs id="defs3051">
    <style type="text/css" id="current-color-scheme">
      .ColorScheme-Text {
        color:#232629;
      }
      </style>
  </defs>
 <path 
     style="fill:currentColor;fill-opacity:1;stroke:none" 
     d="M6.58 4.078A2.515 2.515 0 0 0 4.078 6.58v10.84a2.515 2.515 0 0 0 2.502 2.502h8.305v-.834H6.58a1.664 1.664 0 0 1-1.668-1.668v-6.547h2.961v-.008l.008.008 2-2h9.207v6.006h.834V8.297a2.515 2.515 0 0 0-2.502-2.502h-4.617l-.883-.883-.434-.433-.4-.4H6.58zm10.305 10.8v2h-2v1h2v2h1v-2h2v-1h-2v-2z"
	 class="ColorScheme-Text"
     />
</svg>
