<svg xmlns="http://www.w3.org/2000/svg" viewBox="0 0 24 24" id="svg6">
  <defs id="defs3051">
    <style type="text/css" id="current-color-scheme">
      .ColorScheme-Text {
        color:#232629;
      }
      </style>
  </defs>
 <path 
     style="fill:currentColor;fill-opacity:1;stroke:none" 
     d="M6.541 4.039a2.515 2.515 0 0 0-2.502 2.502v10.84a2.515 2.515 0 0 0 2.502 2.502h6.42v-.834h-6.42a1.664 1.664 0 0 1-1.668-1.668v-6.547h2.961v-.008l.008.008 2-2h9.207v4.127h.834V8.258a2.515 2.515 0 0 0-2.502-2.502h-4.617l-.883-.883-.434-.433-.4-.4H6.541zm9.92 8.715l-.707.707-2.793 2.793.707.707 2.293-2.293v5.293h1v-5.293l2.293 2.293.707-.707-2.793-2.793z"
	 class="ColorScheme-Text"
     />
</svg>
