<svg xmlns="http://www.w3.org/2000/svg" xmlns:xlink="http://www.w3.org/1999/xlink" width="48" height="48">
  <defs id="acyl-settings">
    <linearGradient id="acyl-gradient" x1="0%" x2="0%" y1="0%" y2="100%">
      <stop offset="100%" style="stop-color:#A0A0A0;stop-opacity:1.000000"/>
    </linearGradient>
    <g id="acyl-filter">
  </g>
    <g id="acyl-drawing">
      <path d="M 23.9863,2 C 12.3271,2 2.78667,11.0706 2.0332,22.5391 c 0.004,0.01 0.006,0.011 0.01,0.017 l 0,-0.01 11.81833,4.8672 c 0.3216,-0.2115 0.6655,-0.3939 1.0313,-0.543 0.8298,-0.3418 1.7042,-0.4951 2.5762,-0.4551 l 5.3847,-7.8203 0,-0.1094 0,-0 c 0,-4.6153 3.7478,-8.3691 8.3555,-8.3691 4.6096,0 8.3555,3.7538 8.3555,8.3691 0,4.6149 -3.7459,8.3731 -8.3555,8.3731 l -0.1895,0 -7.7031,5.5039 c 0.023,0.8497 -0.1325,1.7017 -0.4687,2.5137 -1.2916,3.1065 -4.8735,4.5844 -7.9786,3.2871 -1.8978,-0.7913 -3.1839,-2.4354 -3.6035,-4.3106 L 2.94141,30.4199 C 5.68894,39.4381 14.0698,46 23.9863,46 c 12.1501,0 22,-9.85 22,-22 0,-12.1502 -9.8499,-22 -22,-22 z M 2.94141,30.4199 c -1.96094,11.7201 -0.98047,5.86 0,0 z M 31.209,12.9141 c -3.0686,0 -5.5664,2.5027 -5.5664,5.5761 0,3.0758 2.4978,5.5782 5.5664,5.5782 3.0706,0 5.5683,-2.5024 5.5683,-5.5782 0,-3.0734 -2.4977,-5.5761 -5.5683,-5.5761 z m 0.01,1.3769 c 2.3094,0 4.1816,1.8775 4.1816,4.1914 0,2.3141 -1.8722,4.1875 -4.1816,4.1875 -2.3078,0 -4.1817,-1.8734 -4.1817,-4.1875 0,-2.3139 1.874,-4.1914 4.1817,-4.1914 z M 17.2656,27.8125 c -0.588,-0 -1.1664,0.1027 -1.709,0.3086 l 2.8125,1.1641 c 1.7673,0.7364 2.6026,2.7696 1.8653,4.539 -0.735,1.7676 -2.7632,2.6057 -4.5313,1.8692 l -2.7207,-1.127 c 0.4818,1.0065 1.3178,1.8498 2.4238,2.3106 2.3975,0.9989 5.1546,-0.139 6.1543,-2.5391 l -0,0 c 0.4859,-1.1595 0.4876,-2.4441 0.01,-3.6074 -0.4778,-1.1633 -1.3792,-2.0733 -2.5411,-2.5567 -0.5762,-0.2399 -1.1736,-0.3566 -1.7617,-0.3613 z" id="path-main"/>
    </g>
  </defs>
  <g id="acyl-visual">
    <use id="visible1" style="fill:url(#acyl-gradient)" xlink:href="#acyl-drawing"/>
  </g>
</svg>
