<?xml version="1.0" encoding="UTF-8" standalone="no"?>
<svg
   xmlns:dc="http://purl.org/dc/elements/1.1/"
   xmlns:cc="http://creativecommons.org/ns#"
   xmlns:rdf="http://www.w3.org/1999/02/22-rdf-syntax-ns#"
   xmlns:svg="http://www.w3.org/2000/svg"
   xmlns="http://www.w3.org/2000/svg"
   id="theFolder"
   height="32"
   width="32"
   version="1.1">
  <metadata
     id="metadata26">
    <rdf:RDF>
      <cc:Work
         rdf:about="">
        <dc:format>image/svg+xml</dc:format>
        <dc:type
           rdf:resource="http://purl.org/dc/dcmitype/StillImage" />
        <dc:title></dc:title>
      </cc:Work>
    </rdf:RDF>
  </metadata>
  <defs
     id="folderDefs">
    <linearGradient
       id="folderGradient"
       x1="416.57001"
       gradientUnits="userSpaceOnUse"
       y1="515.79999"
       gradientTransform="translate(-384.57,-483.8)"
       x2="416.57001"
       y2="553.46002">
      <stop
         stop-color="#9ac5f1"
         offset="0"
         id="stop2" />
      <stop
         stop-color="#77abea"
         offset="1"
         id="stop4" />
    </linearGradient>
  </defs>
  <g
     id="g841"
     transform="scale(0.5)">
    <g
       id="originalFolder">
      <path
         style="fill:url(#folderGradient)"
         id="path10"
         d="m 26,22 -4,4 H 2 V 58 H 62 V 26 l -2,-4 z" />
      <g
         id="g18">
        <path
           style="fill:#7ca3d5;stroke-width:0.5"
           d="M 3,5 C 1.8954305,5 1,5.8954305 1,7 V 29 H 31 V 12 c 0,-0.552285 -0.447716,-1 -1,-1 V 8 H 18 L 15,5 Z m 26,7 h 1 V 28 H 2 V 13 9 h 27"
           transform="scale(2)"
           id="path12" />
        <path
           style="fill:#dce9fa;fill-opacity:0.71957672"
           id="path20"
           d="m 26,22 -4,4 H 4 v 2 h 19 l 3.984376,-4 H 58 v -2 z" />
      </g>
      <path
         style="fill:#ffffff;fill-opacity:1;stroke:none;stroke-width:2px;stroke-linecap:butt;stroke-linejoin:miter;stroke-opacity:1"
         d="M 58,22 V 18 H 4 v 8 h 18 l 4,-4 z"
         id="path829" />
    </g>
  </g>
</svg>
