<?xml version="1.0" encoding="UTF-8" standalone="no"?>
<svg
   xmlns:dc="http://purl.org/dc/elements/1.1/"
   xmlns:cc="http://creativecommons.org/ns#"
   xmlns:rdf="http://www.w3.org/1999/02/22-rdf-syntax-ns#"
   xmlns:svg="http://www.w3.org/2000/svg"
   xmlns="http://www.w3.org/2000/svg"
   xmlns:xlink="http://www.w3.org/1999/xlink"
   xmlns:sodipodi="http://sodipodi.sourceforge.net/DTD/sodipodi-0.dtd"
   xmlns:inkscape="http://www.inkscape.org/namespaces/inkscape"
   width="48"
   height="48"
   version="1.1"
   id="svg40"
   sodipodi:docname="filezilla.svg"
   inkscape:version="0.92.4 (5da689c313, 2019-01-14)">
  <metadata
     id="metadata44">
    <rdf:RDF>
      <cc:Work
         rdf:about="">
        <dc:format>image/svg+xml</dc:format>
        <dc:type
           rdf:resource="http://purl.org/dc/dcmitype/StillImage" />
        <dc:title></dc:title>
      </cc:Work>
    </rdf:RDF>
  </metadata>
  <sodipodi:namedview
     pagecolor="#ffffff"
     bordercolor="#666666"
     borderopacity="1"
     objecttolerance="10"
     gridtolerance="10"
     guidetolerance="10"
     inkscape:pageopacity="0"
     inkscape:pageshadow="2"
     inkscape:window-width="896"
     inkscape:window-height="480"
     id="namedview42"
     showgrid="false"
     inkscape:zoom="4.9166667"
     inkscape:cx="2.1355932"
     inkscape:cy="24"
     inkscape:window-x="0"
     inkscape:window-y="0"
     inkscape:window-maximized="0"
     inkscape:current-layer="svg40" />
  <defs
     id="defs22">
    <linearGradient
       id="d"
       y1="32"
       y2="16"
       x2="0"
       gradientUnits="userSpaceOnUse"
       gradientTransform="translate(0,5)">
      <stop
         stop-color="#f7abb2"
         id="stop2" />
      <stop
         offset="1"
         stop-color="#f9dce0"
         id="stop4" />
    </linearGradient>
    <linearGradient
       id="c"
       y1="17"
       x1="18"
       y2="32"
       x2="33"
       gradientUnits="userSpaceOnUse"
       gradientTransform="translate(0,5)">
      <stop
         stop-color="#383e51"
         id="stop7" />
      <stop
         offset="1"
         stop-color="#655c6f"
         stop-opacity="0"
         id="stop9" />
    </linearGradient>
    <linearGradient
       id="a"
       y1="543.8"
       y2="509.8"
       gradientUnits="userSpaceOnUse"
       x2="0"
       gradientTransform="matrix(-1 0 0 1 372.57 -499.8)">
      <stop
         stop-color="#c61423"
         id="stop12" />
      <stop
         offset="1"
         stop-color="#dc2b41"
         id="stop14" />
    </linearGradient>
    <linearGradient
       id="b"
       y1="543.8"
       y2="509.8"
       x2="0"
       gradientUnits="userSpaceOnUse"
       gradientTransform="matrix(-1,0,0,1,432.571,-499.8)"
       xlink:href="#a">
      <stop
         stop-color="#c61423"
         id="stop17" />
      <stop
         offset="1"
         stop-color="#dc2b41"
         id="stop19" />
    </linearGradient>
  </defs>
  <path
     d="m 43.571,4 a 4.42,4.42 0 0 1 4.43,4.43 v 5.571 h -48 v -1.987 l 0.016,0.02 C 0.017,12.019 10e-4,12.011 10e-4,11.997 10e-4,10.89 0.891,10 1.997,10 h 15.004 l 6,-6 H 41.69 Z"
     id="path24"
     inkscape:connector-curvature="0"
     style="fill:#a8202e" />
  <path
     d="m 48.001,14 v 12.922 l -0.03,0.002 v 10.284 c 0,0.114 -0.028,0.219 -0.032,0.33 v 0.033 a 6.258,6.04 0 0 1 -6.256,6.055 H 6.303 c -0.054,0 -0.097,-0.03 -0.152,-0.032 A 6.237,6.02 0 0 1 0.031,37.571 V 28.348 H 0 V 14.001 Z"
     id="path26"
     style="fill:url(#b)"
     inkscape:connector-curvature="0" />
  <path
     d="m 45.628,4.57 c 0.386,0.207 0.772,0.419 1.078,0.725 A 4.42,4.42 0 0 1 48.001,8.43 V 14 h -48 v -1.986 l 0.016,0.02 c 0,-0.015 -0.016,-0.023 -0.016,-0.037 0,-0.553 0.223,-1.052 0.584,-1.413 0.36,-0.36 0.86,-0.583 1.412,-0.583 h 21.004 z"
     id="path28"
     inkscape:connector-curvature="0"
     style="fill:#5f5f5f;fill-opacity:0.11799999;fill-rule:evenodd" />
  <path
     d="m 43.571,4 c 0.313,0 0.587,0.117 0.881,0.178 L 28.001,5 l -11,6 -15.252,-0.896 c 0.093,-0.013 0.15,-0.103 0.248,-0.103 h 15.004 l 6,-6 z"
     id="path30"
     inkscape:connector-curvature="0"
     style="fill:#ffffff;fill-opacity:0.05899999;fill-rule:evenodd" />
  <path
     overflow="visible"
     d="m 46.268,41.624 c -0.063,0.066 -0.09,0.162 -0.156,0.225 a 6.263,6.045 0 0 1 -4.43,1.774 H 6.304 c -0.054,0 -0.1,-0.026 -0.153,-0.028 A 6.258,6.04 0 0 1 1.815,41.794 C 1.755,41.732 1.727,41.646 1.668,41.582 Z"
     style="color:#000000;overflow:visible;isolation:auto;mix-blend-mode:normal;fill:#a8202e;marker:none"
     id="path32"
     inkscape:connector-curvature="0" />
  <path
     d="m 0,14 h 48 v 1 H 0 Z"
     id="path34"
     inkscape:connector-curvature="0"
     style="fill:#bc2233" />
  <path
     d="m 30,21 -9,3 -1,5 -4,6 9.34,8.524 20.928,-1.9 1.596,-3.032 L 41,32 Z"
     id="path36"
     style="opacity:0.2;fill:url(#c);fill-rule:evenodd"
     inkscape:connector-curvature="0" />
  <path
     d="m 19,21 -3,14 h 3 l 1.301,-6 h 7.365 L 21,35 l 2,2 c 3,-2 6,1.6 9,-1.4 L 31.4,33.199 30.5,33.9 c -1.359,0.781 -2.475,-0.098 -4.061,-0.34 L 31,28.999 l 1,-3 H 21 l 0.5,-2 H 29 l 1,-3 z"
     id="path38"
     style="fill:url(#d);fill-rule:evenodd"
     inkscape:connector-curvature="0" />
</svg>
