<?xml version="1.0" encoding="UTF-8" standalone="no"?>
<svg
   xmlns:dc="http://purl.org/dc/elements/1.1/"
   xmlns:cc="http://creativecommons.org/ns#"
   xmlns:rdf="http://www.w3.org/1999/02/22-rdf-syntax-ns#"
   xmlns:svg="http://www.w3.org/2000/svg"
   xmlns="http://www.w3.org/2000/svg"
   xmlns:xlink="http://www.w3.org/1999/xlink"
   xmlns:sodipodi="http://sodipodi.sourceforge.net/DTD/sodipodi-0.dtd"
   xmlns:inkscape="http://www.inkscape.org/namespaces/inkscape"
   width="48"
   height="48"
   version="1.1"
   id="svg102"
   sodipodi:docname="imagewriter.svg"
   inkscape:version="0.92.4 (5da689c313, 2019-01-14)">
  <metadata
     id="metadata106">
    <rdf:RDF>
      <cc:Work
         rdf:about="">
        <dc:format>image/svg+xml</dc:format>
        <dc:type
           rdf:resource="http://purl.org/dc/dcmitype/StillImage" />
        <dc:title></dc:title>
      </cc:Work>
    </rdf:RDF>
  </metadata>
  <sodipodi:namedview
     pagecolor="#ffffff"
     bordercolor="#666666"
     borderopacity="1"
     objecttolerance="10"
     gridtolerance="10"
     guidetolerance="10"
     inkscape:pageopacity="0"
     inkscape:pageshadow="2"
     inkscape:window-width="896"
     inkscape:window-height="480"
     id="namedview104"
     showgrid="false"
     inkscape:zoom="2.4583333"
     inkscape:cx="2.1355932"
     inkscape:cy="24"
     inkscape:window-x="0"
     inkscape:window-y="0"
     inkscape:window-maximized="0"
     inkscape:current-layer="svg102" />
  <defs
     id="defs58">
    <linearGradient
       id="i"
       y1="525.26"
       x1="395.91"
       y2="513.95"
       x2="425.21"
       gradientUnits="userSpaceOnUse"
       gradientTransform="translate(-384.57,-499.8)">
      <stop
         stop-color="#da4453"
         id="stop2" />
      <stop
         offset="1"
         stop-color="#ff7336"
         id="stop4" />
    </linearGradient>
    <linearGradient
       id="g"
       y1="44.09"
       x1="26.362"
       y2="33.75"
       x2="44"
       gradientUnits="userSpaceOnUse">
      <stop
         stop-color="#c0392b"
         id="stop7" />
      <stop
         offset="1"
         stop-color="#c0392b"
         stop-opacity="0"
         id="stop9" />
    </linearGradient>
    <linearGradient
       id="n"
       y1="519.85"
       x1="388.57"
       y2="528.52"
       x2="398.82"
       gradientUnits="userSpaceOnUse">
      <stop
         stop-color="#4d4d4d"
         id="stop12" />
      <stop
         offset="1"
         stop-color="#31363b"
         id="stop14" />
    </linearGradient>
    <linearGradient
       id="a"
       y1="509.8"
       x1="394.57"
       y2="537.95"
       x2="422.73"
       gradientUnits="userSpaceOnUse">
      <stop
         stop-color="#e5e7e8"
         id="stop17" />
      <stop
         offset="1"
         stop-color="#dcdee0"
         id="stop19" />
    </linearGradient>
    <linearGradient
       id="f"
       x1="389.57"
       x2="427.57"
       gradientUnits="userSpaceOnUse"
       gradientTransform="rotate(45,408.574,523.795)">
      <stop
         stop-color="#fcfcfc"
         id="stop22" />
      <stop
         offset="1"
         stop-color="#eff0f1"
         id="stop24" />
    </linearGradient>
    <linearGradient
       xlink:href="#a"
       id="h"
       y1="133.33"
       x1="771.7"
       y2="160.66"
       gradientUnits="userSpaceOnUse"
       x2="799.04" />
    <linearGradient
       id="k"
       y1="551.8"
       y2="528.8"
       gradientUnits="userSpaceOnUse"
       x2="0"
       gradientTransform="matrix(0.49677,0,0,0.76923,-190,-402.77)">
      <stop
         stop-color="#c6cdd1"
         id="stop28" />
      <stop
         offset="1"
         stop-color="#e0e5e7"
         id="stop30" />
    </linearGradient>
    <linearGradient
       id="c"
       y1="557.8"
       y2="505.8"
       gradientUnits="userSpaceOnUse"
       x2="0"
       gradientTransform="matrix(.61141 0 0 .76923 -297.65 -385.08)">
      <stop
         stop-color="#42a603"
         id="stop33" />
      <stop
         offset="1"
         stop-color="#78da06"
         id="stop35" />
    </linearGradient>
    <linearGradient
       id="b"
       x1="398.57"
       x2="400.57"
       gradientUnits="userSpaceOnUse"
       gradientTransform="matrix(1.5625 0 0 1.53847 -227.95 -292.82)">
      <stop
         stop-color="#faae2a"
         id="stop38" />
      <stop
         offset="1"
         stop-color="#ffc35a"
         id="stop40" />
    </linearGradient>
    <linearGradient
       xlink:href="#b"
       id="m"
       x1="398.57"
       gradientUnits="userSpaceOnUse"
       x2="400.57"
       gradientTransform="matrix(1.5625,0,0,1.53847,-603.14,-792.62)" />
    <linearGradient
       id="o"
       y1="539.88"
       x1="410.5"
       y2="529.73"
       x2="390.65"
       gradientUnits="userSpaceOnUse"
       gradientTransform="translate(-384.57,-499.8)">
      <stop
         stop-color="#bcfd93"
         id="stop44" />
      <stop
         offset="1"
         stop-color="#fafff5"
         id="stop46" />
    </linearGradient>
    <linearGradient
       id="d"
       y1="34.612"
       x1="14.187"
       y2="54.612"
       x2="34.19"
       gradientUnits="userSpaceOnUse"
       gradientTransform="translate(-80)">
      <stop
         stop-color="#383e51"
         id="stop49" />
      <stop
         offset="1"
         stop-color="#655c6f"
         stop-opacity="0"
         id="stop51" />
    </linearGradient>
    <linearGradient
       xlink:href="#a"
       id="e"
       gradientUnits="userSpaceOnUse"
       x1="394.57"
       y1="509.8"
       x2="422.73"
       y2="537.95" />
    <linearGradient
       xlink:href="#b"
       id="l"
       gradientUnits="userSpaceOnUse"
       gradientTransform="matrix(1.5625,0,0,1.53847,-612.52,-792.62)"
       x1="398.57"
       x2="400.57" />
    <linearGradient
       xlink:href="#c"
       id="j"
       gradientUnits="userSpaceOnUse"
       gradientTransform="matrix(0.61141,0,0,0.76923,-237.65,-385.08)"
       y1="557.8"
       x2="0"
       y2="505.8" />
    <linearGradient
       xlink:href="#d"
       id="p"
       gradientUnits="userSpaceOnUse"
       x1="14.187"
       y1="34.612"
       x2="34.19"
       y2="54.612" />
  </defs>
  <g
     id="g74"
     style="stroke-width:8.58699989;stroke-opacity:0.55">
    <path
       d="m 408.57,503.8 a 19.953,19.953 0 0 0 -19.996,19.846 l 1.123,0.023 4.684,12.02 10.166,5.922 11.4,-0.707 7.779,-5.48 3.623,-12.02 -2.121,-8.662 -6.189,-7.631 -1.563,-1.156 -0.266,-0.186 a 19.958,19.958 0 0 0 -8.641,-1.971 m 0,5 c 8.31,0 15,6.69 15,15 0,8.31 -6.69,15 -15,15 -8.31,0 -15,-6.69 -15,-15 0,-8.31 6.69,-15 15,-15"
       transform="translate(-384.57,-499.8)"
       id="path60"
       style="fill:url(#e)"
       inkscape:connector-curvature="0" />
    <path
       d="m 408.57,504.78 a 18.944,18.944 0 0 0 -13.436,5.582 18.96,18.96 0 0 0 0,26.871 18.96,18.96 0 0 0 26.871,0 18.96,18.96 0 0 0 0,-26.871 18.943,18.943 0 0 0 -13.436,-5.582 m 0,13.02 c 1.532,0 3.064,0.588 4.238,1.762 a 5.981,5.981 0 0 1 0,8.477 5.981,5.981 0 0 1 -8.477,0 5.981,5.981 0 0 1 0,-8.477 5.976,5.976 0 0 1 4.238,-1.762"
       transform="translate(-384.57,-499.8)"
       id="path62"
       style="fill:url(#f)"
       inkscape:connector-curvature="0" />
    <path
       d="m 4.01,23.5 c -0.004,0.167 -0.012,0.332 -0.012,0.5 0,11.08 8.92,20 20,20 11.08,0 20,-8.92 20,-20 0,-0.168 -0.008,-0.333 -0.012,-0.5 A 19.954,19.954 0 0 1 23.998,43 19.951,19.951 0 0 1 4.01,23.5"
       id="path64"
       style="fill:url(#g)"
       inkscape:connector-curvature="0" />
    <path
       d="m 24,17 a 6.969,6.969 0 0 0 -4.945,2.055 6.978,6.978 0 0 0 0,9.891 6.978,6.978 0 0 0 9.891,0 6.978,6.978 0 0 0 0,-9.891 A 6.972,6.972 0 0 0 24.001,17 m -0.002,3.955 a 3.003,3.003 0 0 1 3.002,3.004 3.003,3.003 0 0 1 -3.002,3.002 A 3.003,3.003 0 0 1 20.995,23.959 3.003,3.003 0 0 1 24,20.955"
       id="path66"
       inkscape:connector-curvature="0"
       style="opacity:0.4;fill:#f9f9f9" />
    <path
       d="m 408.759,512.798 a 11,11 0 0 0 -0.78,0.027 11,11 0 0 0 -1.09,0.133 11,11 0 0 0 -1.073,0.24 11,11 0 0 0 -1.043,0.348 11,11 0 0 0 -1.004,0.447 11,11 0 0 0 -0.953,0.55 11,11 0 0 0 -0.895,0.638 11,11 0 0 0 -0.826,0.726 11,11 0 0 0 -0.748,0.805 11,11 0 0 0 -0.666,0.875 11,11 0 0 0 -0.574,0.938 11,11 0 0 0 -0.479,0.99 11,11 0 0 0 -0.379,1.033 11,11 0 0 0 -0.271,1.064 11,11 0 0 0 -0.164,1.086 11,11 0 0 0 -0.055,1.1 11,11 0 0 0 0.027,0.78 11,11 0 0 0 0.133,1.09 11,11 0 0 0 0.242,1.073 11,11 0 0 0 0.346,1.043 11,11 0 0 0 0.447,1.004 11,11 0 0 0 0.549,0.953 11,11 0 0 0 0.64,0.895 11,11 0 0 0 0.725,0.826 11,11 0 0 0 0.805,0.748 11,11 0 0 0 0.875,0.666 11,11 0 0 0 0.937,0.574 11,11 0 0 0 0.99,0.479 11,11 0 0 0 1.034,0.379 11,11 0 0 0 1.064,0.271 11,11 0 0 0 1.086,0.164 11,11 0 0 0 1.1,0.055 11,11 0 0 0 0.78,-0.027 11,11 0 0 0 1.089,-0.133 11,11 0 0 0 1.074,-0.242 11,11 0 0 0 1.043,-0.346 11,11 0 0 0 1.004,-0.447 11,11 0 0 0 0.953,-0.55 11,11 0 0 0 0.895,-0.64 11,11 0 0 0 0.826,-0.724 11,11 0 0 0 0.748,-0.805 11,11 0 0 0 0.666,-0.875 11,11 0 0 0 0.574,-0.938 11,11 0 0 0 0.479,-0.99 11,11 0 0 0 0.379,-1.033 11,11 0 0 0 0.271,-1.064 11,11 0 0 0 0.164,-1.086 11,11 0 0 0 0.055,-1.1 11,11 0 0 0 -0.027,-0.78 11,11 0 0 0 -0.133,-1.09 11,11 0 0 0 -0.242,-1.073 11,11 0 0 0 -0.346,-1.043 11,11 0 0 0 -0.447,-1.004 11,11 0 0 0 -0.55,-0.953 11,11 0 0 0 -0.638,-0.895 11,11 0 0 0 -0.726,-0.826 11,11 0 0 0 -0.805,-0.748 11,11 0 0 0 -0.875,-0.666 11,11 0 0 0 -0.938,-0.574 11,11 0 0 0 -0.99,-0.479 11,11 0 0 0 -1.033,-0.379 11,11 0 0 0 -1.065,-0.271 11,11 0 0 0 -1.085,-0.164 11,11 0 0 0 -1.1,-0.055 m -0.191,4.998 c 1.533,0 3.068,0.585 4.242,1.76 a 5.988,5.988 0 0 1 0,8.484 5.985,5.985 0 0 1 -8.482,0 5.988,5.988 0 0 1 0,-8.484 5.974,5.974 0 0 1 4.24,-1.76"
       transform="translate(-384.57,-499.8)"
       id="path68"
       style="fill:url(#h)"
       inkscape:connector-curvature="0" />
    <path
       d="m 24,20.95 a 3,3 0 0 0 -2.957,3.516 3.004,3.004 0 0 1 2.961,-2.52 c 1.46,0 2.709,1.05 2.959,2.488 0.027,-0.16 0.042,-0.322 0.043,-0.484 a 2.998,2.998 0 0 0 -3,-3"
       id="path70"
       inkscape:connector-curvature="0"
       style="opacity:0.1" />
    <path
       d="M 28,24 A 3.983,3.983 0 0 1 26.826,26.826 3.983,3.983 0 0 1 24,28 v 1 A 4.977,4.977 0 0 0 27.533,27.533 4.982,4.982 0 0 0 29,24 Z"
       id="path72"
       inkscape:connector-curvature="0"
       style="fill:#95a5a6" />
  </g>
  <path
     d="m 32.467,5.887 v 0.004 l 0.008,0.004 z m 0.008,0.008 c 0.625,0.574 1.432,1.399 1.931,2.293 0.875,1.563 0.75,4.28 -1.937,4.78 -2.688,0.5 -2.79,-0.414 -2.782,-1.5 -1.428,0.198 -2.068,3.364 0.438,4.47 2.125,0.937 2.906,0.564 6.906,0.314 4,-0.25 4.469,4.625 2.594,5.375 -1.875,0.75 -2.59,-0.588 -2.469,-1.314 -1.503,0.587 -1.685,2.224 -0.937,3 5.847,6.06 3.042,10.738 1.437,11.218 -1.989,0.594 -3.39,-0.582 -2.375,-2.154 0.828,-1.281 0.114,-3.396 -0.892,-4.145 -1.01,-0.748 -2.96,-0.568 -3.795,-0.013 1.204,0.455 2.969,1.155 2.5,2.718 -0.362,1.207 -1.55,1.969 -3.032,1.94 A 3.904,3.904 0 0 1 29,32.725 v 6.498 l -3.178,2.228 1.555,1.666 1.623,0.235 c 8.64,-2.212 15,-10 15,-19.35 C 44,15.955 39.288,9.072 32.475,5.895 Z"
     id="path76"
     style="fill:url(#i);fill-rule:evenodd"
     inkscape:connector-curvature="0" />
  <path
     d="M 4,22 V 39.104 A 4.885,4.885 0 0 0 8.896,44 H 24.104 A 4.885,4.885 0 0 0 29,39.104 V 22 Z"
     id="path78"
     style="fill:url(#j)"
     inkscape:connector-curvature="0" />
  <rect
     height="18"
     rx="0"
     y="4"
     x="6"
     width="21"
     id="rect80"
     style="fill:url(#k)" />
  <g
     id="g84"
     style="fill:#23262c">
    <path
       d="m 9,7 h 6 v 6 H 9 Z m 9,0 h 6 v 6 h -6 z"
       id="path82"
       inkscape:connector-curvature="0" />
  </g>
  <path
     d="m 10,7 h 4 v 6 h -4 z"
     id="path86"
     style="fill:url(#l)"
     inkscape:connector-curvature="0" />
  <path
     d="m 19,7 h 4 v 6 h -4 z"
     id="path88"
     style="fill:url(#m)"
     inkscape:connector-curvature="0" />
  <g
     transform="translate(-384.57,-499.8)"
     id="g94"
     style="color:#000000;stroke-width:3;stroke-linejoin:round">
    <path
       d="m 388.94,519.85 a 21.239,21.239 0 0 0 -0.373,3.943 c 0,1.349 0.132,2.666 0.373,3.943 l 11.627,-1.943 c 1.095,-0.168 2,-0.892 2,-2 0,-1.108 -0.905,-1.832 -2,-2 z"
       id="path90"
       style="fill:url(#n)"
       inkscape:connector-curvature="0" />
    <circle
       r="1"
       cy="523.79999"
       cx="400.57001"
       id="circle92"
       style="fill:#27ae60" />
  </g>
  <path
     d="m 25.82,34.09 0.087,-0.016 c 0.024,0.019 0.02,0.057 0.013,0.091 -0.016,0.08 -0.055,0.224 -0.081,0.292 l -0.022,0.056 a 0.482,0.482 0 0 1 -0.12,0.211 c -0.162,0.148 -0.422,0.266 -0.829,0.443 -0.629,0.275 -1.648,0.448 -2.594,0.443 -0.339,-0.007 -0.667,-0.045 -0.955,-0.078 -0.882,-0.101 -1.519,-0.173 -1.651,0.629 -0.167,1 0.777,2.225 0.787,2.236 v 0.033 l -0.031,0.007 c 0,0 -1.506,-0.694 -1.543,-0.714 L 18.833,37.689 18.795,37.652 C 18.681,37.543 18.453,37.298 17.99,36.761 17.092,35.723 16.041,35.586 15.232,35.784 a 1.44,1.44 0 0 0 -0.612,0.354 c -0.423,0.417 -0.375,1.257 -0.351,1.562 0.028,0.346 0.046,0.372 0.054,0.4 l -0.005,0.035 -0.03,0.004 -0.017,-0.012 -1.235,-0.604 -0.047,-0.202 a 3.605,3.605 0 0 0 -0.138,-0.466 c -0.442,-1.164 -1.434,-2.04 -2.528,-2.229 -0.739,-0.127 -2.086,-0.142 -2.799,1.205 -0.298,0.562 -0.28,1.294 0.047,1.911 a 2.08,2.08 0 0 0 1.633,1.114 c 0.699,0.076 1.224,-0.086 1.519,-0.467 0.297,-0.385 0.353,-0.91 0.142,-1.337 C 10.639,36.593 10.297,36.35 9.822,36.31 9.461,36.277 9.192,36.428 9.096,36.582 a 0.512,0.512 0 0 0 -0.08,0.263 v 0.005 c 0,0.344 0.315,0.438 0.379,0.443 a 1.1,1.1 0 0 0 0.24,-0.034 L 9.738,37.225 9.769,37.22 a 0.446,0.446 0 0 1 0.33,0.808 L 10.07,38.046 A 0.752,0.752 0 0 1 9.88,38.131 1.558,1.558 0 0 1 9.382,38.217 C 8.837,38.216 8.078,37.747 8.067,36.866 8.062,36.369 8.311,35.916 8.75,35.625 c 0.506,-0.334 1.38,-0.448 2.19,0.049 0.998,0.611 1.258,1.807 0.998,2.623 C 11.56,39.478 10.495,40.11 9.09,39.984 8.095,39.895 7.17,39.37 6.62,38.579 A 3.498,3.498 0 0 1 6.097,37.449 C 5.872,36.558 6.1,35.611 6.269,35.192 6.807,33.858 7.837,32.711 9.328,31.781 l 0.094,-0.059 c 3.171,-1.949 5.415,-1.87 7.06,-1.813 1.938,0.067 4,0.736 4.289,0.83 l 0.012,-0.642 0.008,-0.02 0.022,-0.005 c 0.13,0.018 2.914,0.431 4.087,1.115 0.145,0.086 0.217,0.174 0.307,0.267 0.324,0.335 0.753,1.73 0.798,2.02 l -0.017,0.029 c -0.017,0.005 -0.057,0.036 -0.111,0.072 -0.273,0.191 -0.913,0.639 -1.733,0.566 -0.737,-0.065 -1.7,-0.488 -2.861,-1.252 l 0.334,0.789 0.015,0.019 c 0.168,0.087 1.781,0.909 2.582,0.893 0.646,-0.013 1.335,-0.328 1.611,-0.494 z m -0.75,-1.609 a 1.195,1.195 0 0 0 -1.15,-1.233 1.18,1.18 0 0 0 -0.853,0.319 1.186,1.186 0 0 0 -0.378,0.829 1.196,1.196 0 0 0 1.149,1.233 1.188,1.188 0 0 0 1.232,-1.148"
     id="path96"
     style="fill:url(#o)"
     inkscape:connector-curvature="0" />
  <path
     d="m 24.113,43.998 a 4.908,4.908 0 0 0 1.9,-0.38 4.882,4.882 0 0 0 1.555,-1.05 4.882,4.882 0 0 0 1.05,-1.554 4.907,4.907 0 0 0 0.382,-1.91 v -3.89 l -3.81,-3.804 0.007,0.04 0.006,0.005 c 0.324,0.335 0.756,1.73 0.8,2.02 l -0.019,0.029 c -0.017,0.005 -0.057,0.035 -0.11,0.07 a 4.681,4.681 0 0 1 -0.345,0.219 l -0.007,0.44 c 0.099,-0.048 0.238,-0.1 0.3,-0.137 v -0.002 l 0.086,-0.02 c 0.024,0.02 0.023,0.06 0.016,0.094 a 2.4,2.4 0 0 1 -0.082,0.293 l -0.022,0.057 a 0.474,0.474 0 0 1 -0.12,0.21 c -0.163,0.149 -0.422,0.267 -0.829,0.444 -0.629,0.275 -1.647,0.445 -2.594,0.44 -0.339,-0.008 -0.667,-0.045 -0.955,-0.077 -0.882,-0.1 -1.52,-0.174 -1.652,0.627 -0.167,1 0.778,2.225 0.787,2.236 v 0.034 l -0.031,0.007 c 0,0 -1.506,-0.693 -1.543,-0.714 l -0.047,-0.034 -0.04,-0.037 c -0.113,-0.109 -0.34,-0.353 -0.804,-0.89 -0.898,-1.038 -1.95,-1.176 -2.76,-0.979 -0.197,0.047 -0.448,0.19 -0.61,0.354 -0.424,0.417 -0.374,1.256 -0.35,1.562 0.028,0.346 0.044,0.373 0.052,0.4 L 14.32,38.137 14.29,38.141 14.272,38.129 13.037,37.525 12.99,37.322 A 3.66,3.66 0 0 0 12.852,36.857 C 12.41,35.693 11.417,34.815 10.324,34.627 9.585,34.5 8.238,34.486 7.525,35.832 c -0.298,0.562 -0.28,1.295 0.047,1.912 a 2.076,2.076 0 0 0 1.633,1.113 c 0.7,0.076 1.225,-0.084 1.52,-0.466 a 1.28,1.28 0 0 0 0.14,-1.338 c -0.226,-0.46 -0.568,-0.702 -1.043,-0.742 -0.36,-0.032 -0.63,0.116 -0.726,0.27 a 0.52,0.52 0 0 0 -0.08,0.265 v 0.004 c 0,0.344 0.315,0.439 0.379,0.443 0.02,0 0.115,-0.002 0.24,-0.033 l 0.06,-0.022 0.043,-0.015 0.03,-0.004 a 0.447,0.447 0 0 1 0.513,0.316 c 0.011,0.041 0.02,0.08 0.02,0.121 a 0.447,0.447 0 0 1 -0.2,0.37 l -0.029,0.019 A 0.755,0.755 0 0 1 9.881,38.129 1.558,1.558 0 0 1 9.383,38.215 C 8.838,38.214 8.078,37.746 8.068,36.865 8.063,36.368 8.314,35.914 8.754,35.623 c 0.506,-0.334 1.38,-0.448 2.19,0.049 0.997,0.61 1.257,1.807 0.996,2.623 -0.378,1.18 -1.442,1.812 -2.848,1.687 A 3.444,3.444 0 0 1 7.705,39.549 l 5.317,4.449 z"
     id="path98"
     style="opacity:0.2;fill:url(#p);fill-rule:evenodd"
     inkscape:connector-curvature="0" />
  <path
     d="m 29,38.078 c 0,0.678 -0.136,1.324 -0.383,1.91 a 4.882,4.882 0 0 1 -1.049,1.555 4.882,4.882 0 0 1 -1.554,1.049 4.907,4.907 0 0 1 -1.91,0.383 H 8.896 A 4.907,4.907 0 0 1 6.986,42.592 4.882,4.882 0 0 1 5.432,41.543 4.882,4.882 0 0 1 4.382,39.988 4.907,4.907 0 0 1 4,38.078 v 1.026 A 4.885,4.885 0 0 0 8.896,44 H 24.104 A 4.885,4.885 0 0 0 29,39.104 Z"
     id="path100"
     inkscape:connector-curvature="0"
     style="fill:#46943b" />
</svg>
