<?xml version="1.0" encoding="UTF-8" standalone="no"?>
<svg
   xmlns:dc="http://purl.org/dc/elements/1.1/"
   xmlns:cc="http://creativecommons.org/ns#"
   xmlns:rdf="http://www.w3.org/1999/02/22-rdf-syntax-ns#"
   xmlns:svg="http://www.w3.org/2000/svg"
   xmlns="http://www.w3.org/2000/svg"
   xmlns:xlink="http://www.w3.org/1999/xlink"
   xmlns:sodipodi="http://sodipodi.sourceforge.net/DTD/sodipodi-0.dtd"
   xmlns:inkscape="http://www.inkscape.org/namespaces/inkscape"
   width="48"
   height="48"
   version="1.1"
   id="svg55"
   sodipodi:docname="kde-im-log-viewer.svg"
   inkscape:version="0.92.4 (5da689c313, 2019-01-14)">
  <metadata
     id="metadata59">
    <rdf:RDF>
      <cc:Work
         rdf:about="">
        <dc:format>image/svg+xml</dc:format>
        <dc:type
           rdf:resource="http://purl.org/dc/dcmitype/StillImage" />
        <dc:title></dc:title>
      </cc:Work>
    </rdf:RDF>
  </metadata>
  <sodipodi:namedview
     pagecolor="#ffffff"
     bordercolor="#666666"
     borderopacity="1"
     objecttolerance="10"
     gridtolerance="10"
     guidetolerance="10"
     inkscape:pageopacity="0"
     inkscape:pageshadow="2"
     inkscape:window-width="862"
     inkscape:window-height="480"
     id="namedview57"
     showgrid="false"
     inkscape:zoom="4.9166667"
     inkscape:cx="24"
     inkscape:cy="24"
     inkscape:window-x="0"
     inkscape:window-y="25"
     inkscape:window-maximized="0"
     inkscape:current-layer="svg55" />
  <defs
     id="defs17">
    <linearGradient
       id="b"
       y1="44"
       y2="4"
       gradientUnits="userSpaceOnUse"
       x2="0"
       gradientTransform="matrix(-1 0 0 1 -32 0)">
      <stop
         stop-color="#197cf1"
         id="stop2" />
      <stop
         offset="1"
         stop-color="#20bcfa"
         id="stop4" />
    </linearGradient>
    <linearGradient
       id="a"
       y1="655.51"
       y2="662.24"
       x2="0"
       gradientUnits="userSpaceOnUse"
       gradientTransform="translate(3.346 -3.716)">
      <stop
         stop-color="#172525"
         id="stop7" />
      <stop
         offset="1"
         stop-color="#172525"
         stop-opacity="0"
         id="stop9" />
    </linearGradient>
    <linearGradient
       xlink:href="#a"
       id="e"
       y1="655.51"
       y2="662.24"
       x2="0"
       gradientUnits="userSpaceOnUse"
       gradientTransform="translate(6.02,-6.688)" />
    <linearGradient
       xlink:href="#a"
       id="d"
       y1="655.51"
       y2="662.24"
       x2="0"
       gradientUnits="userSpaceOnUse"
       gradientTransform="translate(10.04,-11.147)" />
    <linearGradient
       xlink:href="#a"
       id="g"
       y1="655.51"
       y2="662.24"
       x2="0"
       gradientUnits="userSpaceOnUse"
       gradientTransform="translate(0.669,-0.743)" />
    <linearGradient
       xlink:href="#a"
       id="f"
       gradientUnits="userSpaceOnUse"
       gradientTransform="translate(3.346,-3.716)"
       y1="655.51"
       x2="0"
       y2="662.24" />
    <linearGradient
       xlink:href="#b"
       id="c"
       gradientUnits="userSpaceOnUse"
       gradientTransform="matrix(-1,0,0,1,48,0)"
       y1="44"
       x2="0"
       y2="4" />
  </defs>
  <path
     d="m 12.953,7 c -1.24,0 -2.42,0.25 -3.492,0.701 A 8.928,8.928 0 0 0 6.617,9.617 8.928,8.928 0 0 0 4.701,12.461 8.97,8.97 0 0 0 4,15.953 v 9.094 c 0,1.24 0.25,2.42 0.701,3.492 A 8.928,8.928 0 0 0 6.617,31.383 8.928,8.928 0 0 0 9.461,33.299 8.97,8.97 0 0 0 12.953,34 H 13 V 44 L 23,34 h 12.047 c 1.24,0 2.42,-0.25 3.492,-0.701 A 8.928,8.928 0 0 0 41.383,31.383 8.928,8.928 0 0 0 43.299,28.539 8.97,8.97 0 0 0 44,25.047 v -9.094 c 0,-1.24 -0.25,-2.42 -0.701,-3.492 A 8.928,8.928 0 0 0 41.383,9.617 8.928,8.928 0 0 0 38.539,7.701 8.97,8.97 0 0 0 35.047,7 Z"
     id="path19"
     style="fill:url(#c);fill-rule:evenodd"
     inkscape:connector-curvature="0" />
  <g
     id="g23"
     style="fill:#fcfcfc"
     transform="matrix(0.87499997,0,0,0.87499997,3.0000012,2.7314425)">
    <path
       d="m 15,12 h 2 v 1 h -2 z m 3,0 h 3 v 1 h -3 z m 6,0 h 3 v 1 h -3 z m 5,0 h 6 v 1 h -6 z m 7,0 h 4 v 1 h -4 z"
       id="path21"
       inkscape:connector-curvature="0" />
  </g>
  <g
     id="g27"
     style="fill:#7fe9d6"
     transform="matrix(0.87499997,0,0,0.87499997,3.0000012,2.7314425)">
    <path
       d="m 15,15 h 4 v 1 h -4 z m 5,0 h 2 v 1 h -2 z m 4,0 h 8 v 1 h -8 z"
       id="path25"
       inkscape:connector-curvature="0" />
  </g>
  <g
     id="g31"
     style="fill:#fcfcfc"
     transform="matrix(0.87499997,0,0,0.87499997,3.0000012,2.7314425)">
    <path
       d="m 15,18 h 2 v 1 h -2 z m 3,0 h 3 v 1 h -3 z m 6,0 h 4 v 1 h -4 z m 6,0 h 4 v 1 h -4 z m 5,0 h 5 v 1 h -5 z m 0,8 h -2 v 1 h 2 z m -3,0 h -8 v 1 h 8 z m -10,0 h -7 v 1 h 7 z m 18,-4 h -2 v 1 h 2 z m -3,0 h -3 v 1 h 3 z m -4,0 h -9 v 1 h 9 z m -13,0 h -5 v 1 h 5 z"
       id="path29"
       inkscape:connector-curvature="0" />
  </g>
  <g
     transform="matrix(0.87499997,0,0,0.87499997,-333.49874,-434.59354)"
     id="g49"
     style="color:#000000;fill-rule:evenodd">
    <path
       transform="rotate(-42)"
       d="m -51.44,644.4 h 3 v 7 h -3 z"
       id="path33"
       style="opacity:0.2;fill:url(#d)"
       inkscape:connector-curvature="0" />
    <circle
       r="1.5"
       cy="512.29999"
       cx="394.07001"
       id="circle35"
       style="fill:#abdaf9" />
    <path
       transform="rotate(-42)"
       d="m -55.46,648.86 h 3 v 7 h -3 z"
       id="path37"
       style="opacity:0.2;fill:url(#e)"
       inkscape:connector-curvature="0" />
    <circle
       r="1.5"
       cy="518.29999"
       cx="394.07001"
       id="circle39"
       style="fill:#abdaf9" />
    <path
       transform="rotate(-42)"
       d="m -58.13,651.83 h 3 v 7 h -3 z"
       id="path41"
       style="opacity:0.2;fill:url(#f)"
       inkscape:connector-curvature="0" />
    <circle
       r="1.5"
       cy="522.29999"
       cx="394.07001"
       id="circle43"
       style="fill:#abdaf9" />
    <path
       transform="rotate(-42)"
       d="m -60.81,654.8 h 3 v 7 h -3 z"
       id="path45"
       style="opacity:0.2;fill:url(#g)"
       inkscape:connector-curvature="0" />
    <circle
       r="1.5"
       cy="526.29999"
       cx="394.07001"
       id="circle47"
       style="fill:#abdaf9" />
  </g>
  <g
     id="g53"
     style="fill:#7fe9d6"
     transform="matrix(0.87499997,0,0,0.87499997,3.0000012,2.7314425)">
    <path
       d="m 15,29 h 5 v 1 h -5 z m 6,0 h 4 v 1 h -4 z m 5,0 h 12 v 1 H 26 Z"
       id="path51"
       inkscape:connector-curvature="0" />
  </g>
</svg>
