<?xml version="1.0" encoding="UTF-8" standalone="no"?>
<svg
   xmlns:dc="http://purl.org/dc/elements/1.1/"
   xmlns:cc="http://creativecommons.org/ns#"
   xmlns:rdf="http://www.w3.org/1999/02/22-rdf-syntax-ns#"
   xmlns:svg="http://www.w3.org/2000/svg"
   xmlns="http://www.w3.org/2000/svg"
   xmlns:xlink="http://www.w3.org/1999/xlink"
   xmlns:sodipodi="http://sodipodi.sourceforge.net/DTD/sodipodi-0.dtd"
   xmlns:inkscape="http://www.inkscape.org/namespaces/inkscape"
   width="48"
   height="48"
   version="1.1"
   id="svg26"
   sodipodi:docname="kmouth.svg"
   inkscape:version="0.92.4 (5da689c313, 2019-01-14)">
  <metadata
     id="metadata30">
    <rdf:RDF>
      <cc:Work
         rdf:about="">
        <dc:format>image/svg+xml</dc:format>
        <dc:type
           rdf:resource="http://purl.org/dc/dcmitype/StillImage" />
        <dc:title></dc:title>
      </cc:Work>
    </rdf:RDF>
  </metadata>
  <sodipodi:namedview
     pagecolor="#ffffff"
     bordercolor="#666666"
     borderopacity="1"
     objecttolerance="10"
     gridtolerance="10"
     guidetolerance="10"
     inkscape:pageopacity="0"
     inkscape:pageshadow="2"
     inkscape:window-width="862"
     inkscape:window-height="480"
     id="namedview28"
     showgrid="false"
     inkscape:zoom="4.9166667"
     inkscape:cx="2.1355932"
     inkscape:cy="24"
     inkscape:window-x="0"
     inkscape:window-y="25"
     inkscape:window-maximized="0"
     inkscape:current-layer="svg26" />
  <defs
     id="defs18">
    <linearGradient
       id="a"
       y1="44"
       y2="4"
       x2="0"
       gradientUnits="userSpaceOnUse"
       gradientTransform="translate(-60)">
      <stop
         stop-color="#42a603"
         id="stop2" />
      <stop
         offset="1"
         stop-color="#78da06"
         id="stop4" />
    </linearGradient>
    <linearGradient
       id="c"
       y1="514"
       x1="398.57"
       y2="534"
       x2="418.57"
       gradientUnits="userSpaceOnUse"
       gradientTransform="translate(-384.57,-499.8)">
      <stop
         stop-color="#383e51"
         id="stop7" />
      <stop
         offset="1"
         stop-color="#655c6f"
         stop-opacity="0"
         id="stop9" />
    </linearGradient>
    <linearGradient
       id="d"
       y1="19.04"
       y2="3.036"
       x2="0"
       gradientUnits="userSpaceOnUse"
       gradientTransform="translate(13,7.96)">
      <stop
         stop-color="#bcfd93"
         id="stop12" />
      <stop
         offset="1"
         stop-color="#fafff5"
         id="stop14" />
    </linearGradient>
    <linearGradient
       xlink:href="#a"
       id="b"
       gradientUnits="userSpaceOnUse"
       y1="44"
       x2="0"
       y2="4" />
  </defs>
  <path
     d="m 12.953,4 c -1.24,0 -2.42,0.25 -3.492,0.701 A 8.928,8.928 0 0 0 6.617,6.617 8.928,8.928 0 0 0 4.701,9.461 8.97,8.97 0 0 0 4,12.953 v 12.094 c 0,1.24 0.25,2.42 0.701,3.492 A 8.928,8.928 0 0 0 6.617,31.383 8.928,8.928 0 0 0 9.461,33.299 8.97,8.97 0 0 0 12.953,34 H 24 L 35,44 V 34 h 0.047 c 1.24,0 2.42,-0.25 3.492,-0.701 A 8.928,8.928 0 0 0 41.383,31.383 8.928,8.928 0 0 0 43.299,28.539 8.97,8.97 0 0 0 44,25.047 V 12.953 c 0,-1.24 -0.25,-2.42 -0.701,-3.492 A 8.928,8.928 0 0 0 41.383,6.617 8.928,8.928 0 0 0 38.539,4.701 8.97,8.97 0 0 0 35.047,4 Z"
     id="path20"
     style="fill:url(#b);fill-rule:evenodd"
     inkscape:connector-curvature="0" />
  <path
     d="m 35,41 v -7 h 0.047 c 1.24,0 2.42,-0.25 3.492,-0.701 a 8.928,8.928 0 0 0 2.844,-1.916 c 0.68,-0.68 1.176,-1.52 1.61,-2.39 L 36,22 25,11 19,15 v 2 l -1,-1 v 6 h -2 z"
     id="path22"
     style="opacity:0.2;fill:url(#c);fill-rule:evenodd"
     inkscape:connector-curvature="0" />
  <path
     d="M 23.988,11 19,14.996 v 7.968 l 4.988,3.996 H 25 V 10.996 H 24 Z M 24,12.232 v 13.457 l -4,-3.205 v -7.05 z m 6.03,0.158 -0.771,0.631 a 11,11 0 0 1 1.742,5.939 10.999,10.999 0 0 1 -1.75,5.932 l 0.783,0.643 a 11.998,11.998 0 0 0 1.967,-6.574 12.003,12.003 0 0 0 -1.971,-6.57 m -2.34,1.916 -0.781,0.639 a 8.009,8.009 0 0 1 1.092,4.02 8.006,8.006 0 0 1 -1.09,4.02 l 0.781,0.641 a 9.017,9.017 0 0 0 1.309,-4.658 8.991,8.991 0 0 0 -1.311,-4.654 m -11.689,1.69 v 6 h 2 v -6 z"
     id="path24"
     style="fill:url(#d)"
     inkscape:connector-curvature="0" />
</svg>
