<?xml version="1.0" encoding="UTF-8" standalone="no"?>
<svg
   xmlns:dc="http://purl.org/dc/elements/1.1/"
   xmlns:cc="http://creativecommons.org/ns#"
   xmlns:rdf="http://www.w3.org/1999/02/22-rdf-syntax-ns#"
   xmlns:svg="http://www.w3.org/2000/svg"
   xmlns="http://www.w3.org/2000/svg"
   xmlns:xlink="http://www.w3.org/1999/xlink"
   xmlns:sodipodi="http://sodipodi.sourceforge.net/DTD/sodipodi-0.dtd"
   xmlns:inkscape="http://www.inkscape.org/namespaces/inkscape"
   width="48"
   height="48"
   version="1.1"
   id="svg61"
   sodipodi:docname="knotes.svg"
   inkscape:version="0.92.4 (5da689c313, 2019-01-14)">
  <metadata
     id="metadata65">
    <rdf:RDF>
      <cc:Work
         rdf:about="">
        <dc:format>image/svg+xml</dc:format>
        <dc:type
           rdf:resource="http://purl.org/dc/dcmitype/StillImage" />
        <dc:title></dc:title>
      </cc:Work>
    </rdf:RDF>
  </metadata>
  <sodipodi:namedview
     pagecolor="#ffffff"
     bordercolor="#666666"
     borderopacity="1"
     objecttolerance="10"
     gridtolerance="10"
     guidetolerance="10"
     inkscape:pageopacity="0"
     inkscape:pageshadow="2"
     inkscape:window-width="862"
     inkscape:window-height="480"
     id="namedview63"
     showgrid="false"
     inkscape:zoom="4.9166667"
     inkscape:cx="2.1355932"
     inkscape:cy="24"
     inkscape:window-x="0"
     inkscape:window-y="25"
     inkscape:window-maximized="0"
     inkscape:current-layer="svg61" />
  <defs
     id="defs41">
    <linearGradient
       id="a"
       y1="538.8"
       x1="406.57"
       y2="507.52"
       x2="429.12"
       gradientUnits="userSpaceOnUse"
       gradientTransform="matrix(-1.81818 0 0 1.2469 1167.79 -128.03)">
      <stop
         stop-color="#f3ac12"
         id="stop2" />
      <stop
         offset="1"
         stop-color="#f5cb39"
         id="stop4" />
    </linearGradient>
    <linearGradient
       id="h"
       y1="31"
       x1="53"
       y2="18"
       x2="40"
       gradientUnits="userSpaceOnUse"
       gradientTransform="rotate(180,228.285,280.4)">
      <stop
         stop-color="#383e51"
         id="stop7" />
      <stop
         offset="1"
         stop-color="#655c6f"
         stop-opacity="0"
         id="stop9" />
    </linearGradient>
    <linearGradient
       id="g"
       y1="61"
       y2="47"
       x2="0"
       gradientUnits="userSpaceOnUse"
       gradientTransform="matrix(-1,0,0,1,442.57,482.8)">
      <stop
         stop-color="#fddda3"
         id="stop12" />
      <stop
         offset="1"
         stop-color="#fde3a7"
         id="stop14" />
    </linearGradient>
    <linearGradient
       id="d"
       y1="522.46"
       y2="541.2"
       gradientUnits="userSpaceOnUse"
       x2="0"
       gradientTransform="matrix(-1.81818 0 0 1.2469 1167.79 -128.03)">
      <stop
         stop-color="#daae00"
         id="stop17" />
      <stop
         offset="1"
         stop-color="#eca01c"
         id="stop19" />
    </linearGradient>
    <linearGradient
       id="i"
       y1="-512.8"
       x1="403.57"
       y2="-501.8"
       x2="390.57"
       gradientUnits="userSpaceOnUse"
       gradientTransform="matrix(1,0,0,-1,-384.57,-499.8)">
      <stop
         stop-color="#f5cd52"
         id="stop22" />
      <stop
         offset="1"
         stop-color="#f8d474"
         id="stop24" />
    </linearGradient>
    <linearGradient
       id="k"
       x1="394.57"
       x2="435.57"
       gradientUnits="userSpaceOnUse"
       gradientTransform="matrix(1,0,0,-1,-384.57,-499.8)">
      <stop
         stop-color="#e88f21"
         id="stop27" />
      <stop
         offset="1"
         stop-color="#e88f21"
         stop-opacity="0"
         id="stop29" />
    </linearGradient>
    <linearGradient
       id="j"
       x1="393.57"
       x2="439.57"
       gradientUnits="userSpaceOnUse"
       gradientTransform="matrix(1,0,0,-1,-384.57,-499.8)">
      <stop
         stop-color="#fff"
         id="stop32" />
      <stop
         offset="1"
         stop-color="#fff"
         stop-opacity="0"
         id="stop34" />
    </linearGradient>
    <linearGradient
       xlink:href="#a"
       id="f"
       gradientUnits="userSpaceOnUse"
       gradientTransform="matrix(-1.81818,0,0,1.2469,783.22,-627.83)"
       x1="406.57"
       y1="538.8"
       x2="429.12"
       y2="507.52" />
    <linearGradient
       xlink:href="#d"
       id="e"
       gradientUnits="userSpaceOnUse"
       gradientTransform="matrix(-1.81818,0,0,1.2469,783.22,-627.83)"
       y1="522.46"
       x2="0"
       y2="541.2" />
    <linearGradient
       xlink:href="#d"
       id="b"
       gradientUnits="userSpaceOnUse"
       gradientTransform="matrix(-1.81818 0 0 1.2469 1167.79 -128.03)"
       y1="522.46"
       x2="0"
       y2="541.2" />
    <linearGradient
       xlink:href="#a"
       id="c"
       gradientUnits="userSpaceOnUse"
       gradientTransform="matrix(-1.81818 0 0 1.2469 1167.79 -128.03)"
       x1="406.57"
       y1="538.8"
       x2="429.12"
       y2="507.52" />
  </defs>
  <path
     d="M 16,44 H 4 V 32 l 13,-1 z"
     id="path43"
     style="color:#000000;fill:url(#e)"
     inkscape:connector-curvature="0" />
  <path
     d="M 10.156,4 A 6.143,6.143 0 0 0 4,10.156 V 32 L 16,44 H 44 V 10.156 A 6.143,6.143 0 0 0 37.844,4 Z"
     id="path45"
     style="color:#000000;fill:url(#f)"
     inkscape:connector-curvature="0" />
  <path
     d="M 28,16 16.008,27.992 h -0.004 v 4.01 h 4.01 v -0.004 l 11.992,-11.992 -0.002,-0.002 0.002,-0.002 -4,-4 -0.002,0.002 z m -1.998,3.412 2.59,2.59 -7.588,7.588 V 28 h -2 V 26.41 Z M 18.004,27.41 V 29 h 2 v 1.59 L 19.594,31 h -1.59 l -1,-1 v -1.59 z m 5,3.59 -1,1 h 10 v -1 z"
     id="path47"
     inkscape:connector-curvature="0"
     style="color:#4d4d4d;opacity:0.54299999;fill:#560000" />
  <g
     id="g53"
     style="fill-rule:evenodd">
    <path
       d="m 388.57,531.8 12,12 v -12 z"
       transform="translate(-384.57,-499.8)"
       id="path49"
       style="fill:url(#g)"
       inkscape:connector-curvature="0" />
    <path
       d="m 412.57,543.8 -12,-12 v 12 z"
       transform="translate(-384.57,-499.8)"
       id="path51"
       style="opacity:0.2;fill:url(#h)"
       inkscape:connector-curvature="0" />
  </g>
  <path
     d="M 10.156,4 A 6.143,6.143 0 0 0 4,10.156 V 11 H 44 V 10.156 A 6.143,6.143 0 0 0 37.844,4 Z"
     id="path55"
     style="color:#4d4d4d;fill:url(#i)"
     inkscape:connector-curvature="0" />
  <path
     d="M 10.156,4 C 9.304,4 8.493,4.172 7.756,4.482 7.466,4.605 7.251,4.837 6.986,5 H 41.014 C 40.749,4.837 40.534,4.605 40.244,4.482 A 6.163,6.163 0 0 0 37.844,4 Z"
     id="path57"
     style="color:#4d4d4d;opacity:0.444;fill:url(#j)"
     inkscape:connector-curvature="0" />
  <path
     d="M 4,12 H 44 V 11 H 4 Z"
     id="path59"
     style="color:#4d4d4d;opacity:0.22400004;fill:url(#k)"
     inkscape:connector-curvature="0" />
</svg>
