<?xml version="1.0" encoding="UTF-8" standalone="no"?>
<svg
   xmlns:dc="http://purl.org/dc/elements/1.1/"
   xmlns:cc="http://creativecommons.org/ns#"
   xmlns:rdf="http://www.w3.org/1999/02/22-rdf-syntax-ns#"
   xmlns:svg="http://www.w3.org/2000/svg"
   xmlns="http://www.w3.org/2000/svg"
   xmlns:xlink="http://www.w3.org/1999/xlink"
   xmlns:sodipodi="http://sodipodi.sourceforge.net/DTD/sodipodi-0.dtd"
   xmlns:inkscape="http://www.inkscape.org/namespaces/inkscape"
   width="48"
   height="48"
   version="1.1"
   id="svg29"
   sodipodi:docname="kopete.svg"
   inkscape:version="0.92.4 (5da689c313, 2019-01-14)">
  <metadata
     id="metadata33">
    <rdf:RDF>
      <cc:Work
         rdf:about="">
        <dc:format>image/svg+xml</dc:format>
        <dc:type
           rdf:resource="http://purl.org/dc/dcmitype/StillImage" />
        <dc:title></dc:title>
      </cc:Work>
    </rdf:RDF>
  </metadata>
  <sodipodi:namedview
     pagecolor="#ffffff"
     bordercolor="#666666"
     borderopacity="1"
     objecttolerance="10"
     gridtolerance="10"
     guidetolerance="10"
     inkscape:pageopacity="0"
     inkscape:pageshadow="2"
     inkscape:window-width="862"
     inkscape:window-height="480"
     id="namedview31"
     showgrid="false"
     inkscape:zoom="4.9166667"
     inkscape:cx="2.1355932"
     inkscape:cy="24"
     inkscape:window-x="0"
     inkscape:window-y="25"
     inkscape:window-maximized="0"
     inkscape:current-layer="svg29" />
  <defs
     id="defs19">
    <linearGradient
       id="b"
       y1="20.985"
       x1="23.719"
       y2="30.733"
       x2="33.466"
       gradientUnits="userSpaceOnUse"
       gradientTransform="rotate(5.607 34.012 8.98)">
      <stop
         id="stop2" />
      <stop
         offset="1"
         stop-opacity="0"
         id="stop4" />
    </linearGradient>
    <linearGradient
       id="a"
       y1="44"
       y2="4"
       gradientUnits="userSpaceOnUse"
       x2="0"
       gradientTransform="matrix(-1 0 0 1 -12 0)">
      <stop
         stop-color="#2f74c8"
         id="stop7" />
      <stop
         offset="1"
         stop-color="#4699d7"
         id="stop9" />
    </linearGradient>
    <linearGradient
       id="e"
       y1="522.8"
       y2="492.8"
       x2="0"
       gradientUnits="userSpaceOnUse"
       gradientTransform="translate(-353.57,-489.8)">
      <stop
         stop-color="#7cbaf8"
         id="stop12" />
      <stop
         offset="1"
         stop-color="#f4fcff"
         id="stop14" />
    </linearGradient>
    <linearGradient
       xlink:href="#a"
       id="c"
       gradientUnits="userSpaceOnUse"
       gradientTransform="matrix(-1,0,0,1,48,0)"
       y1="44"
       x2="0"
       y2="4" />
    <linearGradient
       xlink:href="#b"
       id="d"
       gradientUnits="userSpaceOnUse"
       gradientTransform="rotate(5.607,34.012,8.9800002)"
       x1="23.719"
       y1="20.985"
       x2="33.466"
       y2="30.733" />
    <linearGradient
       inkscape:collect="always"
       xlink:href="#b"
       id="linearGradient843"
       gradientUnits="userSpaceOnUse"
       gradientTransform="rotate(5.607,34.012,8.9800002)"
       x1="23.719"
       y1="20.985"
       x2="33.466"
       y2="30.733" />
  </defs>
  <path
     d="m 12.953,4 c -1.24,0 -2.42,0.25 -3.492,0.701 A 8.928,8.928 0 0 0 6.617,6.617 8.928,8.928 0 0 0 4.701,9.461 8.97,8.97 0 0 0 4,12.953 v 12.094 c 0,1.24 0.25,2.42 0.701,3.492 A 8.928,8.928 0 0 0 6.617,31.383 8.928,8.928 0 0 0 9.461,33.299 8.97,8.97 0 0 0 12.953,34 H 13 V 44 L 24,34 h 11.047 c 1.24,0 2.42,-0.25 3.492,-0.701 A 8.928,8.928 0 0 0 41.383,31.383 8.928,8.928 0 0 0 43.299,28.539 8.97,8.97 0 0 0 44,25.047 V 12.953 c 0,-1.24 -0.25,-2.42 -0.701,-3.492 A 8.928,8.928 0 0 0 41.383,6.617 8.928,8.928 0 0 0 38.539,4.701 8.97,8.97 0 0 0 35.047,4 Z"
     id="path21"
     style="fill:url(#c);fill-rule:evenodd"
     inkscape:connector-curvature="0" />
  <path
     d="m 31.428,34 h 3.619 c 1.24,0 2.42,-0.25 3.492,-0.701 a 8.928,8.928 0 0 0 2.844,-1.916 8.928,8.928 0 0 0 1.916,-2.844 c 0.353,-0.839 0.466,-1.784 0.549,-2.732 L 30.788,10.26 C 30.354,9.738 29.031,8.512 29.031,8.512 L 29.029,8.51 27.938,9.408 c 0,0 3.067,4.093 3.066,9.09 0,1.043 -0.143,2.027 -0.338,2.957 l -3.662,-4.459 h -4.07 l -4.928,-6 h -3 l -0.002,3 z m -7.43,0.002 3.035,0.002 L 27.03,34 H 24 Z"
     id="path23"
     style="opacity:0.2;fill:url(#linearGradient843)"
     inkscape:connector-curvature="0" />
  <path
     d="M 23.998,34.002 24,34 h 3.03 L 18.002,22.998 h -3 v 2.998 h 0.896 v 0.46 c -0.249,0.531 -0.896,0.542 -0.896,0.542 l -0.004,0.998 7.05,7.373 1.944,-1.367 z"
     id="path25"
     style="opacity:0.2;fill:url(#d)"
     inkscape:connector-curvature="0" />
  <path
     d="m 29.03,8.52 -1.093,0.897 c 0,0 3.066,4.094 3.062,9.09 -0.004,5 -2.838,9.02 -2.838,9.02 l 0.897,1.093 c 0,0 4.934,-3.107 4.939,-10.11 0.005,-7 -4.967,-9.993 -4.967,-9.993 M 18,10.998 h -2.999 l -0.003,3 h 3 z m 8.997,6.01 -6,-0.005 v 3 l 5.999,0.005 z m -9,5.993 h -3 V 26 h 0.999 c -0.001,1 -0.999,1 -0.999,1 l -0.002,0.999 1,0.002 c 2,10e-4 2,-1.999 2,-1.999 z"
     id="path27"
     style="fill:url(#e)"
     inkscape:connector-curvature="0" />
</svg>
