<svg xmlns="http://www.w3.org/2000/svg" xmlns:xlink="http://www.w3.org/1999/xlink" height="48" width="48"><defs><linearGradient id="a"><stop stop-color="#3e3e3e"/><stop offset="1" stop-color="#494949"/></linearGradient><linearGradient xlink:href="#a" id="b" x1="505.44" y1="484.728" x2="505.44" y2="464.045" gradientUnits="userSpaceOnUse" gradientTransform="translate(40)"/><linearGradient id="c" y1="527.014" x1="406.501" y2="539.825" x2="419.974" gradientUnits="userSpaceOnUse" gradientTransform="translate(242.993 110.881) scale(.69328)"><stop stop-color="#292c2f"/><stop offset="1" stop-opacity="0"/></linearGradient></defs><path d="M9.81 4.933a5.932 6.11 0 0 0-5.946 6.125v10.465a5.935 6.113 0 0 0 5.946 6.126h27.978a5.935 6.113 0 0 0 5.946-6.126V13.99a5.932 6.11 0 0 0-5.946-6.124H23.799l-2.848-2.934h-8.946z" fill="#2d2d2d" fill-rule="evenodd"/><path d="M41.645 9.333a6.557 6.754 0 0 0-1.538-.988 5.824 5.824 0 0 0-2.32-.478H23.8l-2.848-2.934 1.424 4.4z" fill="#fff" fill-opacity=".235" fill-rule="evenodd"/><path d="M19.527 12.3l-2.847 1.468h-.159c.411 0 .751.189 1.061.418-.306-.227-.645-.411-1.05-.415H7.388a3.55 3.55 0 0 0-3.281 2.172c-.144.34-.192.723-.223 1.108h.06c.023-.025.033-.06.057-.084.108-.111.235-.199.352-.299h13.75l.796-2.459c-.084-.044-.146-.121-.234-.158-.183-.077-.39-.097-.594-.127l1.332-1.371.123-.252z" fill-opacity=".235"/><path d="M19.527 12.268l-1.59 1.636c.245.048.505.053.729.147.088.037.15.114.234.158l.627-1.941z"/><path transform="matrix(1.42392 0 0 1.46667 -730.27 -667.97)" d="M526.571 463.798l-2 2h-6.253a3.75 3.75 0 0 0-1.461.293c-.449.19-.851.464-1.19.803-.338.338-.614.74-.803 1.19a3.75 3.75 0 0 0-.293 1.46v11.998a3.249 3.249 0 0 0 3.256 3.256h23.488a3.249 3.249 0 0 0 3.256-3.256v-14.488a3.249 3.249 0 0 0-3.255-3.256z" fill="url(#b)" fill-rule="evenodd"/><path d="M2.758 39.916c.025.074.017.164.047.238a4.625 4.764 0 0 0 4.271 2.913h33.446a4.642 4.781 0 0 0 3.282-1.395c.418-.431.754-.948.99-1.518.03-.074.02-.163.046-.238z" fill-opacity=".235"/><path d="M20.24 12.267L17.39 15.2h2.848zm0 2.933v2.933h2.847V15.2zm2.847 0h2.848v-2.933h-2.848zm2.848 0v2.933h2.848V15.2zm2.848 0h2.848v-2.933h-2.848zm2.848 0v2.933h2.847V15.2zm2.847 0h2.848v-2.933h-2.848zm2.848 0v2.933h2.848V15.2zm2.848 0h2.848v-2.08c-.234-.158-.431-.365-.692-.478a4.642 4.781 0 0 0-1.808-.375h-.348zm2.848 0v2.933h2.136v-1.09a4.9 4.9 0 0 0-.362-1.843zm0 2.933h-2.848v2.934h2.848zm-2.848 2.934h-2.848V24h2.848zm0 2.933v2.933h2.848V24zm0 2.933h-2.848v2.934h2.848zm-2.848 0V24h-2.848v2.933zM34.478 24v-2.933h-2.847V24zm-2.847-2.933v-2.934h-2.848v2.934zm-2.848 0h-2.848V24h2.848zm-2.848 0v-2.934h-2.848v2.934zm8.543 0h2.848v-2.934h-2.848zM20.24 18.133h-2.848v2.934h2.848zm-2.848 2.934h-2.847V24h2.847zm0 2.933v2.933h2.848V24zm0 2.933h-2.847v2.934h2.847zm-2.847 0V24h-2.848v2.933zM11.696 24v-2.933H8.848V24zm-2.848-2.933v-2.934H6v2.934zM6 18.133v-2.566c-.097.035-.212.022-.306.063-.638.278-1.21.68-1.695 1.177-.057.06-.08.147-.135.209v1.117zm2.848 0h2.848V15.2H8.848zm2.848 0v2.934h2.848v-2.934zm2.848 0h2.847V15.2h-2.847z" opacity=".6" fill="#5f5f5f"/><path transform="matrix(1.42392 0 0 1.46667 -730.27 -667.97)" d="M523.764 480.952l3.645 3.646h12.706l3.875-4.91-12.418-11.77 1.87 9.098z" opacity=".4" fill="url(#c)" fill-rule="evenodd"/><path d="M23.799 17.303c-3.397 0-5.696 2.467-5.696 6.058l1.424.045c0-2.581 2.125-4.54 4.272-4.54 2.149 0 4.272 1.96 4.272 4.54v3.527H15.256V37.2h17.087V26.933h-2.847v-3.527c0-3.407-2.298-6.103-5.696-6.103z" fill="#d1d8d8"/><path d="M19.527 12.27h-.002l-2.847 2.93H7.773a5.34 5.5 0 0 0-.533.028 5.34 5.5 0 0 0-.527.08 5.34 5.5 0 0 0-.518.134 5.34 5.5 0 0 0-.502.188c-.592.258-1.112.644-1.572 1.092l13.983-.055 1.423-4.398z" fill="#fff" fill-opacity=".235"/></svg>