<?xml version="1.0" encoding="UTF-8" standalone="no"?>
<svg
   xmlns:dc="http://purl.org/dc/elements/1.1/"
   xmlns:cc="http://creativecommons.org/ns#"
   xmlns:rdf="http://www.w3.org/1999/02/22-rdf-syntax-ns#"
   xmlns:svg="http://www.w3.org/2000/svg"
   xmlns="http://www.w3.org/2000/svg"
   xmlns:xlink="http://www.w3.org/1999/xlink"
   xmlns:sodipodi="http://sodipodi.sourceforge.net/DTD/sodipodi-0.dtd"
   xmlns:inkscape="http://www.inkscape.org/namespaces/inkscape"
   width="48"
   height="48"
   version="1.1"
   id="svg65"
   sodipodi:docname="QOwnNotes.svg"
   inkscape:version="0.92.4 (5da689c313, 2019-01-14)">
  <metadata
     id="metadata69">
    <rdf:RDF>
      <cc:Work
         rdf:about="">
        <dc:format>image/svg+xml</dc:format>
        <dc:type
           rdf:resource="http://purl.org/dc/dcmitype/StillImage" />
        <dc:title></dc:title>
      </cc:Work>
    </rdf:RDF>
  </metadata>
  <sodipodi:namedview
     pagecolor="#ffffff"
     bordercolor="#666666"
     borderopacity="1"
     objecttolerance="10"
     gridtolerance="10"
     guidetolerance="10"
     inkscape:pageopacity="0"
     inkscape:pageshadow="2"
     inkscape:window-width="862"
     inkscape:window-height="480"
     id="namedview67"
     showgrid="false"
     inkscape:zoom="1.2291667"
     inkscape:cx="2.1355932"
     inkscape:cy="24"
     inkscape:window-x="0"
     inkscape:window-y="25"
     inkscape:window-maximized="0"
     inkscape:current-layer="svg65" />
  <defs
     id="defs43">
    <linearGradient
       id="c"
       y1="538.8"
       x1="406.57"
       y2="507.52"
       gradientUnits="userSpaceOnUse"
       x2="429.12"
       gradientTransform="matrix(-1.81818,0,0,1.2469,783.22,-627.83)">
      <stop
         stop-color="#1d1d5b"
         id="stop2" />
      <stop
         offset="1"
         stop-color="#1f4778"
         id="stop4" />
    </linearGradient>
    <linearGradient
       id="d"
       y1="-516.3"
       x1="433.32"
       y2="-498.05"
       gradientUnits="userSpaceOnUse"
       x2="382.57"
       gradientTransform="matrix(1,0,0,-1,-384.57,-499.8)">
      <stop
         stop-color="#363d68"
         id="stop7" />
      <stop
         offset="1"
         stop-color="#5272a2"
         stop-opacity=".427"
         id="stop9" />
    </linearGradient>
    <linearGradient
       id="e"
       y1="61.25"
       y2="49.25"
       x1="46"
       gradientUnits="userSpaceOnUse"
       x2="45.75"
       gradientTransform="matrix(-1,0,0,1,442.57,482.8)">
      <stop
         stop-color="#3e5172"
         id="stop12" />
      <stop
         offset="1"
         stop-color="#6f7da0"
         id="stop14" />
    </linearGradient>
    <linearGradient
       id="f"
       y1="23.375"
       x1="52.625"
       y2="13.25"
       gradientUnits="userSpaceOnUse"
       x2="41.38"
       gradientTransform="rotate(180,228.285,280.4)">
      <stop
         id="stop17" />
      <stop
         offset="1"
         stop-color="#655c6f"
         stop-opacity="0"
         id="stop19" />
    </linearGradient>
    <linearGradient
       id="g"
       x1="393.57"
       gradientUnits="userSpaceOnUse"
       x2="439.57"
       gradientTransform="matrix(1,0,0,-1,-384.57,-499.8)">
      <stop
         stop-color="#fff"
         stop-opacity=".573"
         id="stop22" />
      <stop
         offset="1"
         stop-color="#fff"
         stop-opacity="0"
         id="stop24" />
    </linearGradient>
    <linearGradient
       id="h"
       x1="394.57"
       gradientUnits="userSpaceOnUse"
       x2="435.57"
       gradientTransform="matrix(1,0,0,-1,-384.57,-499.8)">
      <stop
         stop-color="#0b084e"
         id="stop27" />
      <stop
         offset="1"
         stop-color="#e88f21"
         stop-opacity="0"
         id="stop29" />
    </linearGradient>
    <linearGradient
       id="b"
       y1="548.89"
       x1="393.74"
       y2="525.05"
       x2="393.57"
       gradientUnits="userSpaceOnUse"
       gradientTransform="translate(-384.57,-499.8)">
      <stop
         stop-color="#2a3561"
         id="stop32" />
      <stop
         offset="1"
         stop-color="#192656"
         id="stop34" />
    </linearGradient>
    <linearGradient
       xlink:href="#a"
       id="i"
       gradientUnits="userSpaceOnUse"
       gradientTransform="matrix(-1.81818 0 0 1.2469 723.22 -627.83)"
       x1="406.57"
       y1="538.8"
       x2="429.12"
       y2="507.52" />
    <linearGradient
       id="a"
       y1="538.8"
       x1="406.57"
       y2="507.52"
       x2="429.12"
       gradientUnits="userSpaceOnUse"
       gradientTransform="matrix(-1.81818 0 0 1.2469 1167.79 -128.03)">
      <stop
         stop-color="#f3ac12"
         id="stop38" />
      <stop
         offset="1"
         stop-color="#f5cb39"
         id="stop40" />
    </linearGradient>
  </defs>
  <path
     d="M 16,44 H 4 V 32 l 13,-1 z"
     id="path45"
     style="color:#000000;fill:url(#b)"
     inkscape:connector-curvature="0" />
  <path
     d="M 10.156,4 A 6.143,6.143 0 0 0 4,10.156 V 32 L 16,44 H 44 V 10.156 A 6.143,6.143 0 0 0 37.844,4 Z"
     id="path47"
     style="color:#000000;fill:url(#c)"
     inkscape:connector-curvature="0" />
  <path
     d="M 10.156,4 A 6.143,6.143 0 0 0 4,10.156 V 11 H 44 V 10.156 A 6.143,6.143 0 0 0 37.844,4 Z"
     id="path49"
     style="color:#4d4d4d;fill:url(#d)"
     inkscape:connector-curvature="0" />
  <path
     d="m 23.84,16.125 a 6.222,6.222 0 0 0 -6.221,6.221 6.222,6.222 0 0 0 0.071,0.89 4.444,4.444 0 0 0 -0.071,-0.001 4.444,4.444 0 0 0 -4.444,4.444 4.444,4.444 0 0 0 4.444,4.444 H 29.173 A 5.333,5.333 0 0 0 34.506,26.79 5.333,5.333 0 0 0 30,21.526 6.222,6.222 0 0 0 23.84,16.124 m 0,0.89 a 5.333,5.333 0 0 1 0.532,0.025 5.333,5.333 0 0 1 2.477,0.906 5.333,5.333 0 0 1 0.002,0 5.333,5.333 0 0 1 1.165,1.085 5.333,5.333 0 0 1 0,0.002 5.333,5.333 0 0 1 1.08,2.429 5.333,5.333 0 0 1 0.076,0.885 4.444,4.444 0 0 1 0.885,0.089 4.444,4.444 0 0 1 0.43,0.11 4.444,4.444 0 0 1 0.001,0 4.444,4.444 0 0 1 0.415,0.152 4.444,4.444 0 0 1 0.002,0 4.444,4.444 0 0 1 0.398,0.193 4.444,4.444 0 0 1 0.004,0.002 4.444,4.444 0 0 1 0.375,0.23 4.444,4.444 0 0 1 0.004,0.002 4.444,4.444 0 0 1 0.35,0.268 4.444,4.444 0 0 1 0.002,0.002 4.444,4.444 0 0 1 0.323,0.3 4.444,4.444 0 0 1 0.002,0.002 4.444,4.444 0 0 1 0.55,0.695 4.444,4.444 0 0 1 0.003,0.002 4.444,4.444 0 0 1 0.218,0.383 4.444,4.444 0 0 1 0.002,0.002 4.444,4.444 0 0 1 0.18,0.403 4.444,4.444 0 0 1 0.003,0.002 4.444,4.444 0 0 1 0.139,0.42 4.444,4.444 0 0 1 0,0.002 4.444,4.444 0 0 1 0.097,0.432 4.444,4.444 0 0 1 0,0.002 4.444,4.444 0 0 1 0.054,0.44 4.444,4.444 0 0 1 0.01,0.313 4.444,4.444 0 0 1 -4.444,4.444 H 17.622 a 3.555,3.555 0 0 1 -3.555,-3.555 3.555,3.555 0 0 1 0.017,-0.354 3.555,3.555 0 0 1 3.538,-3.201 3.555,3.555 0 0 1 0.265,0.012 3.555,3.555 0 0 1 0,0.002 3.555,3.555 0 0 1 1.028,0.233 5.333,5.333 0 0 1 -0.304,-1.02 5.333,5.333 0 0 1 -0.066,-0.45 5.333,5.333 0 0 1 -0.012,-0.103 5.333,5.333 0 0 1 -0.023,-0.451 5.333,5.333 0 0 1 0.026,-0.533 5.333,5.333 0 0 1 5.307,-4.8 z"
     id="path51"
     inkscape:connector-curvature="0"
     style="color:#4d4d4d;opacity:0.38999999;fill:#8bddff" />
  <g
     id="g57"
     style="fill-rule:evenodd">
    <path
       d="m 388.57,531.8 12,12 v -12 z"
       transform="translate(-384.57,-499.8)"
       id="path53"
       style="fill:url(#e)"
       inkscape:connector-curvature="0" />
    <path
       d="m 412.57,543.8 -12,-12 v 12 z"
       transform="translate(-384.57,-499.8)"
       id="path55"
       style="opacity:0.2;fill:url(#f)"
       inkscape:connector-curvature="0" />
  </g>
  <path
     d="M 10.156,4 C 9.304,4 8.493,4.172 7.756,4.482 7.466,4.605 7.251,4.837 6.986,5 H 41.014 C 40.749,4.837 40.534,4.605 40.244,4.482 A 6.163,6.163 0 0 0 37.844,4 Z"
     id="path59"
     style="color:#4d4d4d;opacity:0.25600011;fill:url(#g)"
     inkscape:connector-curvature="0" />
  <path
     d="M 4,12 H 44 V 11 H 4 Z"
     id="path61"
     style="color:#4d4d4d;opacity:0.144;fill:url(#h)"
     inkscape:connector-curvature="0" />
</svg>
