<?xml version="1.0" encoding="UTF-8" standalone="no"?>
<svg
   xmlns:dc="http://purl.org/dc/elements/1.1/"
   xmlns:cc="http://creativecommons.org/ns#"
   xmlns:rdf="http://www.w3.org/1999/02/22-rdf-syntax-ns#"
   xmlns:svg="http://www.w3.org/2000/svg"
   xmlns="http://www.w3.org/2000/svg"
   xmlns:xlink="http://www.w3.org/1999/xlink"
   xmlns:sodipodi="http://sodipodi.sourceforge.net/DTD/sodipodi-0.dtd"
   xmlns:inkscape="http://www.inkscape.org/namespaces/inkscape"
   width="48"
   height="48"
   version="1.1"
   id="svg60"
   sodipodi:docname="ubuntusoftware.svg"
   inkscape:version="0.92.4 (5da689c313, 2019-01-14)">
  <metadata
     id="metadata64">
    <rdf:RDF>
      <cc:Work
         rdf:about="">
        <dc:format>image/svg+xml</dc:format>
        <dc:type
           rdf:resource="http://purl.org/dc/dcmitype/StillImage" />
        <dc:title></dc:title>
      </cc:Work>
    </rdf:RDF>
  </metadata>
  <sodipodi:namedview
     pagecolor="#ffffff"
     bordercolor="#666666"
     borderopacity="1"
     objecttolerance="10"
     gridtolerance="10"
     guidetolerance="10"
     inkscape:pageopacity="0"
     inkscape:pageshadow="2"
     inkscape:window-width="862"
     inkscape:window-height="480"
     id="namedview62"
     showgrid="false"
     inkscape:zoom="4.9166667"
     inkscape:cx="2.1355932"
     inkscape:cy="24"
     inkscape:window-x="0"
     inkscape:window-y="25"
     inkscape:window-maximized="0"
     inkscape:current-layer="svg60" />
  <defs
     id="defs36">
    <linearGradient
       gradientTransform="matrix(1.125 0 0 1 -51.07 0)"
       gradientUnits="userSpaceOnUse"
       x2="0"
       y2="513.8"
       y1="543.8"
       id="a">
      <stop
         stop-color="#a40"
         id="stop2" />
      <stop
         stop-color="#f95"
         offset="1"
         id="stop4" />
    </linearGradient>
    <linearGradient
       xlink:href="#a"
       id="e"
       y1="44"
       y2="11"
       x2="0"
       gradientUnits="userSpaceOnUse" />
    <linearGradient
       id="i"
       y1="10"
       y2="14"
       x2="0"
       gradientUnits="userSpaceOnUse">
      <stop
         stop-color="#1d1e1e"
         id="stop8" />
      <stop
         offset="1"
         stop-color="#44484c"
         id="stop10" />
    </linearGradient>
    <linearGradient
       xlink:href="#a"
       id="h"
       y1="14"
       y2="10"
       gradientUnits="userSpaceOnUse"
       x2="0" />
    <linearGradient
       xlink:href="#a"
       id="j"
       y1="516.8"
       y2="503.8"
       x2="0"
       gradientUnits="userSpaceOnUse"
       gradientTransform="translate(-384.57,-499.8)" />
    <linearGradient
       id="b"
       y1="18"
       y2="15"
       x2="0"
       gradientUnits="userSpaceOnUse">
      <stop
         stop-color="#c6cdd1"
         id="stop15" />
      <stop
         offset="1"
         stop-color="#e0e5e7"
         id="stop17" />
    </linearGradient>
    <linearGradient
       xlink:href="#b"
       id="k"
       y1="517.8"
       y2="514.8"
       x2="0"
       gradientUnits="userSpaceOnUse"
       gradientTransform="translate(-384.57,-499.8)" />
    <linearGradient
       id="d"
       y1="23"
       x1="16"
       y2="39"
       x2="32"
       gradientUnits="userSpaceOnUse"
       gradientTransform="translate(45.881 -11.424)">
      <stop
         stop-color="#292c2f"
         id="stop21" />
      <stop
         offset="1"
         stop-opacity="0"
         id="stop23" />
    </linearGradient>
    <linearGradient
       xlink:href="#b"
       id="l"
       gradientUnits="userSpaceOnUse"
       y1="18"
       x2="0"
       y2="15" />
    <linearGradient
       xlink:href="#a"
       id="f"
       gradientUnits="userSpaceOnUse"
       gradientTransform="matrix(1.125,0,0,1,-435.64,-499.8)"
       y1="543.8"
       x2="0"
       y2="513.8" />
    <linearGradient
       xlink:href="#c"
       id="n"
       x1="-19.255"
       y1="22.296"
       x2="-19.255"
       y2="-2.488"
       gradientUnits="userSpaceOnUse"
       gradientTransform="matrix(0.8,0,0,0.8,27.464,22.85)" />
    <linearGradient
       id="c"
       y1="19"
       y2="3"
       x2="0"
       gradientUnits="userSpaceOnUse"
       gradientTransform="translate(13 18)">
      <stop
         stop-color="#f95"
         id="stop29" />
      <stop
         offset="1"
         stop-color="#f4fcff"
         id="stop31" />
    </linearGradient>
    <linearGradient
       xlink:href="#d"
       id="m"
       x1="27.555"
       y1="15.555"
       x2="46.062"
       y2="34.062"
       gradientUnits="userSpaceOnUse" />
    <path
       fill-rule="evenodd"
       id="g"
       d="M10 10l-1 1 1 1-4 2h36l-4-2 1-1-1-1H24z" />
  </defs>
  <path
     d="m 9,11 v 2 l 1,-1 z m 30,0 -1,1 1,1 z"
     id="path38"
     style="fill:url(#e);fill-rule:evenodd"
     inkscape:connector-curvature="0" />
  <path
     d="M 6,14 V 37.844 A 6.143,6.143 0 0 0 12.156,44 H 35.844 A 6.143,6.143 0 0 0 42,37.844 V 14 H 12.156 Z"
     id="path40"
     style="fill:url(#f)"
     inkscape:connector-curvature="0" />
  <use
     height="100%"
     width="100%"
     xlink:href="#g"
     id="use42"
     style="fill:url(#h)"
     x="0"
     y="0" />
  <use
     height="100%"
     width="100%"
     xlink:href="#g"
     id="use44"
     style="opacity:0.6;fill:url(#i)"
     x="0"
     y="0" />
  <path
     d="M 10,10 9,11 H 39 L 38,10 H 24 Z"
     id="path46"
     inkscape:connector-curvature="0"
     style="opacity:0.2" />
  <path
     d="m 16,17 v -5 c 0,-4.432 3.568,-8 8,-8 4.432,0 8,3.568 8,8 v 5 H 31 V 12 C 31,8.122 27.878,5 24,5 20.122,5 17,8.122 17,12 v 5 z"
     id="path48"
     style="fill:url(#j)"
     inkscape:connector-curvature="0" />
  <path
     d="m 16.501,14.998 a 1.5,1.5 0 0 1 1.5,1.5 1.5,1.5 0 0 1 -1.5,1.5 1.5,1.5 0 0 1 -1.5,-1.5 1.5,1.5 0 0 1 1.5,-1.5 m 0,1 a 0.5,0.5 0 0 0 -0.5,0.5 0.5,0.5 0 0 0 0.5,0.5 0.5,0.5 0 0 0 0.5,-0.5 0.5,0.5 0 0 0 -0.5,-0.5"
     id="path50"
     style="fill:url(#k)"
     inkscape:connector-curvature="0" />
  <path
     d="M 31.5,15 A 1.5,1.5 0 0 0 30,16.5 1.5,1.5 0 0 0 31.5,18 1.5,1.5 0 0 0 33,16.5 1.5,1.5 0 0 0 31.5,15 m 0,1 A 0.5,0.5 0 0 1 32,16.5 0.5,0.5 0 0 1 31.5,17 0.5,0.5 0 0 1 31,16.5 0.5,0.5 0 0 1 31.5,16"
     id="path52"
     style="fill:url(#l)"
     inkscape:connector-curvature="0" />
  <path
     d="m 42,36.725 a 6.143,6.143 0 0 1 -6.156,6.156 H 12.156 A 6.143,6.143 0 0 1 6,36.725 v 1.119 A 6.143,6.143 0 0 0 12.156,44 H 35.844 A 6.143,6.143 0 0 0 42,37.844 Z"
     id="path54"
     inkscape:connector-curvature="0"
     style="fill:#803300" />
  <path
     d="m 22,44 h 13.844 a 6.143,6.143 0 0 0 0.613,-0.03 6.143,6.143 0 0 0 0.607,-0.09 6.143,6.143 0 0 0 0.596,-0.151 6.143,6.143 0 0 0 0.576,-0.21 6.143,6.143 0 0 0 0.555,-0.265 6.143,6.143 0 0 0 0.523,-0.32 6.143,6.143 0 0 0 0.49,-0.37 6.143,6.143 0 0 0 0.45,-0.418 6.143,6.143 0 0 0 0.406,-0.46 6.143,6.143 0 0 0 0.36,-0.498 6.143,6.143 0 0 0 0.306,-0.534 6.143,6.143 0 0 0 0.252,-0.558 6.143,6.143 0 0 0 0.195,-0.582 6.143,6.143 0 0 0 0.135,-0.6 6.143,6.143 0 0 0 0.076,-0.61 A 6.143,6.143 0 0 0 42,37.844 V 37.6 L 26.4,22 21.88,22.434 21.6,27.6 25.791,31.791 24.006,34 27.68,37.686 18.723,37.523 16.8,35.6 16,38 Z"
     id="path56"
     style="opacity:0.2;fill:url(#m)"
     inkscape:connector-curvature="0" />
  <path
     d="m 21.6,22 v 5.6 h 0.8 v -4.8 h 3.2 v 4.8 h 0.8 V 22 Z m -2.634,5.84 -0.566,0.566 3.434,3.435 0.007,-0.007 2.165,2.166 2.16,-2.16 3.434,-3.433 -0.566,-0.565 -3.434,3.433 -1.6,1.6 -1.6,-1.6 z M 16,35.6 V 38 h 16 v -2.4 h -0.8 v 1.6 H 16.8 v -1.6 z"
     id="path58"
     style="fill:url(#n)"
     inkscape:connector-curvature="0" />
</svg>
