<?xml version="1.0" encoding="UTF-8" standalone="no"?>
<svg
   xmlns:dc="http://purl.org/dc/elements/1.1/"
   xmlns:cc="http://creativecommons.org/ns#"
   xmlns:rdf="http://www.w3.org/1999/02/22-rdf-syntax-ns#"
   xmlns:svg="http://www.w3.org/2000/svg"
   xmlns="http://www.w3.org/2000/svg"
   xmlns:xlink="http://www.w3.org/1999/xlink"
   xmlns:sodipodi="http://sodipodi.sourceforge.net/DTD/sodipodi-0.dtd"
   xmlns:inkscape="http://www.inkscape.org/namespaces/inkscape"
   width="48"
   height="48"
   version="1.1"
   id="svg26"
   sodipodi:docname="xchat.svg"
   inkscape:version="0.92.4 (5da689c313, 2019-01-14)">
  <metadata
     id="metadata30">
    <rdf:RDF>
      <cc:Work
         rdf:about="">
        <dc:format>image/svg+xml</dc:format>
        <dc:type
           rdf:resource="http://purl.org/dc/dcmitype/StillImage" />
        <dc:title></dc:title>
      </cc:Work>
    </rdf:RDF>
  </metadata>
  <sodipodi:namedview
     pagecolor="#ffffff"
     bordercolor="#666666"
     borderopacity="1"
     objecttolerance="10"
     gridtolerance="10"
     guidetolerance="10"
     inkscape:pageopacity="0"
     inkscape:pageshadow="2"
     inkscape:window-width="896"
     inkscape:window-height="480"
     id="namedview28"
     showgrid="false"
     inkscape:zoom="4.9166667"
     inkscape:cx="2.1355932"
     inkscape:cy="24"
     inkscape:window-x="0"
     inkscape:window-y="0"
     inkscape:window-maximized="0"
     inkscape:current-layer="svg26" />
  <defs
     id="defs18">
    <linearGradient
       id="a"
       y1="62.5"
       x1="19.33"
       y2="3.807"
       x2="19.472"
       gradientUnits="userSpaceOnUse"
       gradientTransform="translate(-58.857 1.339) scale(.71429)">
      <stop
         stop-color="#212329"
         id="stop2" />
      <stop
         offset="1"
         stop-color="#31363b"
         id="stop4" />
    </linearGradient>
    <linearGradient
       id="c"
       y1="10"
       y2="32"
       x2="0"
       gradientUnits="userSpaceOnUse"
       gradientTransform="translate(1)">
      <stop
         stop-color="#f67400"
         id="stop7" />
      <stop
         offset="1"
         stop-color="#ed1515"
         id="stop9" />
    </linearGradient>
    <linearGradient
       id="d"
       y1="12.997"
       y2="41"
       x1="16"
       x2="43.999"
       gradientUnits="userSpaceOnUse">
      <stop
         stop-color="#292c2f"
         id="stop12" />
      <stop
         offset="1"
         stop-opacity="0"
         id="stop14" />
    </linearGradient>
    <linearGradient
       xlink:href="#a"
       id="b"
       gradientUnits="userSpaceOnUse"
       gradientTransform="matrix(0.71429,0,0,0.71429,1.143,1.339)"
       x1="19.33"
       y1="62.5"
       x2="19.472"
       y2="3.807" />
  </defs>
  <path
     d="m 12.953,4 c -1.24,0 -2.42,0.25 -3.492,0.701 A 8.928,8.928 0 0 0 6.617,6.617 8.928,8.928 0 0 0 4.701,9.461 8.97,8.97 0 0 0 4,12.953 v 16.094 c 0,1.24 0.25,2.42 0.701,3.492 a 8.928,8.928 0 0 0 1.916,2.844 8.928,8.928 0 0 0 2.844,1.916 8.925,8.925 0 0 0 2.533,0.648 L 12.002,38 11.998,46 20,38 h 15.047 c 1.24,0 2.42,-0.25 3.492,-0.701 A 8.928,8.928 0 0 0 41.383,35.383 8.928,8.928 0 0 0 43.299,32.539 8.97,8.97 0 0 0 44,29.047 V 12.953 c 0,-1.24 -0.25,-2.42 -0.701,-3.492 A 8.928,8.928 0 0 0 41.383,6.617 8.928,8.928 0 0 0 38.539,4.701 8.97,8.97 0 0 0 35.047,4 Z"
     id="path20"
     style="fill:url(#b)"
     inkscape:connector-curvature="0" />
  <path
     d="m 13,13 3,-3 8,8 8,-8 3,3 -8,8 8,8 -3,3 -8,-8 -8,8 -3,-3 8,-8 z"
     id="path22"
     style="fill:url(#c)"
     inkscape:connector-curvature="0" />
  <path
     d="m 22,38 h 13.047 c 1.24,0 2.42,-0.25 3.492,-0.701 A 8.928,8.928 0 0 0 41.383,35.383 8.928,8.928 0 0 0 43.299,32.539 8.97,8.97 0 0 0 44,29.047 V 23 l -9,-10 -8,8 8,8 -3,3 -8,-8 -8,8 z"
     id="path24"
     style="fill:url(#d)"
     inkscape:connector-curvature="0" />
</svg>
