<?xml version="1.0" encoding="UTF-8" standalone="no"?>
<svg
   xmlns:dc="http://purl.org/dc/elements/1.1/"
   xmlns:cc="http://creativecommons.org/ns#"
   xmlns:rdf="http://www.w3.org/1999/02/22-rdf-syntax-ns#"
   xmlns:svg="http://www.w3.org/2000/svg"
   xmlns="http://www.w3.org/2000/svg"
   xmlns:xlink="http://www.w3.org/1999/xlink"
   xmlns:sodipodi="http://sodipodi.sourceforge.net/DTD/sodipodi-0.dtd"
   xmlns:inkscape="http://www.inkscape.org/namespaces/inkscape"
   height="48"
   width="48"
   version="1.1"
   id="svg60"
   sodipodi:docname="yast-sw_single.svg"
   inkscape:version="0.92.4 (5da689c313, 2019-01-14)">
  <metadata
     id="metadata66">
    <rdf:RDF>
      <cc:Work
         rdf:about="">
        <dc:format>image/svg+xml</dc:format>
        <dc:type
           rdf:resource="http://purl.org/dc/dcmitype/StillImage" />
        <dc:title></dc:title>
      </cc:Work>
    </rdf:RDF>
  </metadata>
  <defs
     id="defs64">
    <linearGradient
       inkscape:collect="always"
       xlink:href="#a-3"
       id="linearGradient876"
       gradientUnits="userSpaceOnUse"
       gradientTransform="translate(-384.57,-499.8)"
       y1="543.79999"
       x2="0"
       y2="512.79999" />
    <linearGradient
       id="a-3"
       y1="543.79999"
       y2="512.79999"
       x2="0"
       gradientUnits="userSpaceOnUse">
      <stop
         stop-color="#cea476"
         id="stop2-6" />
      <stop
         offset="1"
         stop-color="#dab58b"
         id="stop4-7" />
    </linearGradient>
    <linearGradient
       xlink:href="#a-3"
       id="d-5"
       y1="512.79999"
       y2="503.79999"
       x2="0"
       gradientUnits="userSpaceOnUse"
       gradientTransform="translate(-324.57,-499.8)" />
    <linearGradient
       id="linearGradient855"
       y1="543.79999"
       y2="512.79999"
       x2="0"
       gradientUnits="userSpaceOnUse">
      <stop
         stop-color="#cea476"
         id="stop851" />
      <stop
         offset="1"
         stop-color="#dab58b"
         id="stop853" />
    </linearGradient>
    <linearGradient
       id="b-3"
       y1="512.79999"
       y2="503.79999"
       x2="0"
       gradientUnits="userSpaceOnUse">
      <stop
         stop-color="#ebc69a"
         id="stop7" />
      <stop
         offset="1"
         stop-color="#f4e0c8"
         stop-opacity="0"
         id="stop9" />
    </linearGradient>
    <linearGradient
       xlink:href="#b-3"
       id="c-5"
       y1="512.79999"
       y2="503.79999"
       gradientUnits="userSpaceOnUse"
       x2="0"
       gradientTransform="translate(-324.57,-525.8)" />
    <linearGradient
       id="linearGradient866"
       y1="512.79999"
       y2="503.79999"
       x2="0"
       gradientUnits="userSpaceOnUse">
      <stop
         stop-color="#ebc69a"
         id="stop862" />
      <stop
         offset="1"
         stop-color="#f4e0c8"
         stop-opacity="0"
         id="stop864" />
    </linearGradient>
    <linearGradient
       id="e-6"
       y1="516.79999"
       x1="399.57001"
       y2="534.79999"
       x2="417.57001"
       gradientUnits="userSpaceOnUse"
       gradientTransform="translate(-324.57,-499.8)">
      <stop
         stop-color="#292c2f"
         id="stop14" />
      <stop
         offset="1"
         stop-opacity="0"
         id="stop16" />
    </linearGradient>
    <linearGradient
       id="a-3-9"
       y1="543.79999"
       y2="512.79999"
       x2="0"
       gradientUnits="userSpaceOnUse">
      <stop
         stop-color="#cea476"
         id="stop2-6-1" />
      <stop
         offset="1"
         stop-color="#dab58b"
         id="stop4-7-2" />
    </linearGradient>
    <linearGradient
       id="a-3-93"
       y1="543.79999"
       y2="512.79999"
       x2="0"
       gradientUnits="userSpaceOnUse">
      <stop
         stop-color="#cea476"
         id="stop2-6-6" />
      <stop
         offset="1"
         stop-color="#dab58b"
         id="stop4-7-0" />
    </linearGradient>
    <linearGradient
       inkscape:collect="always"
       xlink:href="#g"
       id="linearGradient965"
       gradientUnits="userSpaceOnUse"
       gradientTransform="matrix(0.50313,0,0,1,-171.625,-499.8)"
       x1="411.427"
       y1="543.8"
       x2="411.427"
       y2="512.8" />
    <linearGradient
       id="a-3-92"
       y1="543.79999"
       y2="512.79999"
       x2="0"
       gradientUnits="userSpaceOnUse">
      <stop
         stop-color="#cea476"
         id="stop2-6-0" />
      <stop
         offset="1"
         stop-color="#dab58b"
         id="stop4-7-23" />
    </linearGradient>
    <linearGradient
       id="linearGradient900"
       gradientTransform="matrix(0.50313,0,0,1,-231.625,-499.8)"
       gradientUnits="userSpaceOnUse"
       x1="411.427"
       x2="411.427"
       y1="543.79999"
       y2="512.79999">
      <stop
         offset="0"
         stop-color="#73ba25"
         id="stop22-6" />
      <stop
         offset="1"
         stop-color="#81c13b"
         stop-opacity=".85"
         id="stop24-7" />
    </linearGradient>
  </defs>
  <sodipodi:namedview
     pagecolor="#ffffff"
     bordercolor="#666666"
     borderopacity="1"
     objecttolerance="10"
     gridtolerance="10"
     guidetolerance="10"
     inkscape:pageopacity="0"
     inkscape:pageshadow="2"
     inkscape:window-width="1366"
     inkscape:window-height="711"
     id="namedview62"
     showgrid="false"
     inkscape:window-x="0"
     inkscape:window-y="25"
     inkscape:window-maximized="1"
     inkscape:current-layer="svg60"
     inkscape:zoom="10.729167"
     inkscape:cx="24"
     inkscape:cy="24">
    <inkscape:grid
       type="xygrid"
       id="grid873" />
  </sodipodi:namedview>
  <linearGradient
     id="a">
    <stop
       offset="0"
       stop-color="#cea476"
       id="stop2" />
    <stop
       offset="1"
       stop-color="#dab58b"
       id="stop4" />
  </linearGradient>
  <linearGradient
     id="c"
     gradientUnits="userSpaceOnUse"
     x2="0"
     xlink:href="#a"
     y1="543.8"
     y2="512.8" />
  <linearGradient
     id="h"
     gradientUnits="userSpaceOnUse"
     x1="21"
     x2="21"
     xlink:href="#a"
     y1="13"
     y2="4" />
  <linearGradient
     id="j"
     gradientTransform="matrix(1 0 0 -.55556 -384.57 297.89)"
     gradientUnits="userSpaceOnUse"
     x1="408.57"
     x2="408.57"
     xlink:href="#b"
     y1="512.798"
     y2="505.598" />
  <linearGradient
     id="e"
     gradientTransform="translate(-444.57,-499.8)"
     gradientUnits="userSpaceOnUse"
     x2="0"
     xlink:href="#a"
     y1="543.8"
     y2="512.8" />
  <linearGradient
     id="i"
     gradientTransform="translate(-384.57 -499.801)"
     gradientUnits="userSpaceOnUse"
     x1="411.57"
     x2="411.57"
     xlink:href="#b"
     y1="512.801"
     y2="503.801">
    <stop
       offset="0"
       stop-color="#ebc69a"
       id="stop11" />
    <stop
       offset="1"
       stop-color="#f4e0c8"
       stop-opacity="0"
       id="stop13" />
  </linearGradient>
  <linearGradient
     id="f"
     gradientTransform="matrix(1.41667,0,0,1.4091,1.167,1.727)"
     gradientUnits="userSpaceOnUse"
     x2="0"
     xlink:href="#d"
     y1="30"
     y2="8" />
  <linearGradient
     id="d"
     gradientUnits="userSpaceOnUse"
     x2="0"
     y1="30"
     y2="8">
    <stop
       offset="0"
       stop-color="#cfd2d5"
       id="stop17" />
    <stop
       offset="1"
       stop-color="#eff0f1"
       id="stop19" />
  </linearGradient>
  <linearGradient
     id="g"
     gradientTransform="matrix(0.50313,0,0,1,-231.625,-499.8)"
     gradientUnits="userSpaceOnUse"
     x1="411.427"
     x2="411.427"
     y1="543.8"
     y2="512.8">
    <stop
       offset="0"
       stop-color="#73ba25"
       id="stop22" />
    <stop
       offset="1"
       stop-color="#81c13b"
       stop-opacity=".85"
       id="stop24" />
  </linearGradient>
  <linearGradient
     id="l"
     gradientUnits="userSpaceOnUse"
     x1="44"
     x2="44"
     xlink:href="#d"
     y1="44"
     y2="13" />
  <linearGradient
     id="k"
     gradientUnits="userSpaceOnUse"
     x1="42"
     x2="62"
     y1="24"
     y2="44">
    <stop
       offset="0"
       stop-color="#292c2f"
       id="stop28" />
    <stop
       offset="1"
       stop-opacity="0"
       id="stop30" />
  </linearGradient>
  <linearGradient
     id="b"
     gradientTransform="matrix(.66667 0 0 -.37037 -256.38 197.926)"
     gradientUnits="userSpaceOnUse"
     x1="408.57"
     x2="408.57"
     y1="512.798"
     y2="504.698">
    <stop
       offset="0"
       stop-color="#ebc69a"
       id="stop33" />
    <stop
       offset="1"
       stop-color="#73ba25"
       stop-opacity="0"
       id="stop35" />
  </linearGradient>
  <path
     style="fill:url(#linearGradient876);stroke-width:2.79999995;stroke-opacity:0.55"
     d="m 4,13.000006 v 5.318359 20.363282 c 0,0.736536 0.147625,1.43756 0.416016,2.074218 0.26839,0.636659 0.658062,1.208844 1.138672,1.689453 0.480609,0.48061 1.052794,0.870282 1.689453,1.138672 0.636658,0.268391 1.337682,0.416016 2.074218,0.416016 h 29.363282 c 0.736536,0 1.437559,-0.147625 2.074219,-0.416016 0.63666,-0.26839 1.20884,-0.658061 1.68945,-1.138672 0.48061,-0.480609 0.87028,-1.052794 1.13867,-1.689453 C 43.85237,40.119207 44,39.418183 44,38.681647 V 18.318365 13.000006 H 38.681641 9.318359 Z"
     id="path870"
     inkscape:connector-curvature="0" />
  <path
     style="fill:url(#f)"
     d="m 4,13 v 25.681641 c 0,0.736536 0.147625,1.43756 0.416016,2.074218 0.26839,0.636659 0.658061,1.208844 1.138672,1.689453 0.480609,0.48061 1.052794,0.870282 1.689453,1.138672 C 7.880799,43.852375 8.581823,44 9.318359,44 H 21 V 13 Z"
     id="path40"
     inkscape:connector-curvature="0" />
  <path
     style="fill:url(#linearGradient965)"
     d="m 21,44 h 17.681641 c 0.736536,0 1.437558,-0.147625 2.074218,-0.416016 0.63666,-0.26839 1.208844,-0.65806 1.689453,-1.138672 0.48061,-0.480609 0.870282,-1.052794 1.138672,-1.689453 C 43.852374,40.119201 44,39.418177 44,38.681641 V 13 H 21 Z"
     id="path42"
     inkscape:connector-curvature="0" />
  <path
     d="M4 13l6-9h29l5 9z"
     fill="url(#h)"
     fill-rule="evenodd"
     id="path44" />
  <path
     d="M21 4v14l1-1 1 1 1-1 1 1 1-1 1 1V4z"
     fill="#f4e0c8"
     id="path46" />
  <path
     d="M21 4h6v9h-6z"
     fill="url(#i)"
     id="path48" />
  <path
     d="M21 18h6v-5h-6z"
     fill="url(#j)"
     id="path50" />
  <path
     style="opacity:0.2;fill:url(#k)"
     d="M 30 44 L 38.681641 44 C 39.418177 44 40.119199 43.852375 40.755859 43.583984 C 41.392519 43.315594 41.964703 42.925924 42.445312 42.445312 C 42.925922 41.964703 43.315594 41.392518 43.583984 40.755859 C 43.852374 40.119201 44 39.418177 44 38.681641 L 44 32 L 36 24 L 30 24 L 30 30 L 35 35 L 33 38 L 34 39 L 28 39 L 27 38 L 26 40 L 30 44 z "
     id="path54" />
  <path
     d="M30 24v6h1v-5h4v5h1v-6h-5zm-2.207 7l-.793.816L33 38l6-6.184-.793-.816L33 36.367zM26 38v2h14v-2h-1v1H27v-1z"
     id="path56"
     fill="url(#l)" />
  <path
     d="m 7,33 v 8 h 8 v -8 z m 3,1 v 2 h 2 v -2 h 2 v 4 h -2 v 2 H 10 V 38 H 8 v -4 z"
     id="path58"
     inkscape:connector-curvature="0"
     style="fill:#5c4c3e"
     sodipodi:nodetypes="cccccccccccccccccc" />
  <path
     style="fill:#999999;stroke-width:4.6608634;stroke-opacity:0.55"
     d="M 21 41.228516 L 4.734375 41.228516 C 4.974853 41.659586 5.2085105 42.099137 5.5546875 42.445312 C 6.0352965 42.925922 6.6074816 43.315594 7.2441406 43.583984 C 7.8807986 43.852375 8.5818234 44 9.3183594 44 L 21 44 L 21 41.228516 z "
     id="path904" />
  <path
     style="fill:#447821;stroke-width:4.6608634;stroke-opacity:0.55"
     d="M 21 41.228516 L 21 44 L 38.681641 44 C 39.418177 44 40.119199 43.852375 40.755859 43.583984 C 41.392519 43.315594 41.964703 42.925924 42.445312 42.445312 C 42.791492 42.099137 43.025145 41.659586 43.265625 41.228516 L 21 41.228516 z "
     id="rect37" />
</svg>
