<svg xmlns="http://www.w3.org/2000/svg" height="48" width="48">
    <path d="M35.413 4.5H11.706C8.837 4.5 6.5 6.995 6.5 10.058V46.5h29.794c2.869 0 5.206-2.495 5.206-5.558v-30.22" fill="#757575" fill-opacity=".05" stroke="#757575" stroke-width="1.2" stroke-linecap="round" stroke-linejoin="round"/>
      <g
     transform="matrix(1.3 0 0 1.3 9.8 11.7)"
     id="g2522">     <path d="M10.945 2.723a4.942 4.942 0 0 0-4.953 4.953c0 1.601.754 3.015 1.926 3.918v7.636l3.027-2.199 3.028 2.2v-7.637a4.93 4.93 0 0 0 1.925-3.918 4.942 4.942 0 0 0-4.953-4.953" fill="#FE1919"/>
    </g>
</svg>
