<svg xmlns="http://www.w3.org/2000/svg" height="48" width="48">
    <path d="M35.413 4.5H11.706C8.837 4.5 6.5 6.995 6.5 10.058V46.5h29.794c2.869 0 5.206-2.495 5.206-5.558v-30.22" fill="#757575" fill-opacity=".05" stroke="#757575" stroke-width="1.2" stroke-linecap="round" stroke-linejoin="round"/>
      <g
     transform="matrix(1.3 0 0 1.3 9.8 11.7)"
     id="g2522">     <path d="M18.563 19.246l-5.063.004-3.445-4.957s-.555-.93-.899-1.2c-.285-.222-.406-.304-.687-.304h-.64l.003 6.453-4.394.004V2.75H13s3.879.695 3.957 4.43c.086 4.164-3.746 5.386-3.746 5.386.523.211 4.754 5.715 5.351 6.676M10.98 6.328l-3.105-.004-.004 2.805h3.11s1.437-.004 1.437-1.426c0-1.45-1.438-1.375-1.438-1.375" fill-rule="evenodd" fill="#7F8080"/>
    </g>
</svg>
