<svg xmlns="http://www.w3.org/2000/svg" height="48" width="48">
    <path d="M35.413 4.5H11.706C8.837 4.5 6.5 6.995 6.5 10.058V46.5h29.794c2.869 0 5.206-2.495 5.206-5.558v-30.22" fill="#757575" fill-opacity=".05" stroke="#757575" stroke-width="1.2" stroke-linecap="round" stroke-linejoin="round"/>
      <g
     transform="matrix(1.3 0 0 1.3 9.8 11.7)"
     id="g2522">     <path d="M2.75 2.75v16.5h16.5V2.75zm1.375 1.375h5.5V5.5H11V4.125h6.875v13.75H4.125zM11 5.5v1.375h1.375V5.5zm0 1.375H9.625V8.25H11zm0 1.375v1.375h1.375V8.25zm0 1.375H9.625V11H11zM11 11v1.375h1.375V11zm0 1.375H9.625v2.75h2.75V13.75H11zm0 0" fill="#19C5FE"/>
    </g>
</svg>
