<svg xmlns="http://www.w3.org/2000/svg" height="48" width="48">
    <path d="M35.413 4.5H11.706C8.837 4.5 6.5 6.995 6.5 10.058V46.5h29.794c2.869 0 5.206-2.495 5.206-5.558v-30.22" fill="#757575" fill-opacity=".05" stroke="#757575" stroke-width="1.2" stroke-linecap="round" stroke-linejoin="round"/>
      <g
     transform="matrix(1.3 0 0 1.3 9.8 11.7)"
     id="g2522">     <path d="M6.875 2.75c-.758 0-1.375.617-1.375 1.375S6.117 5.5 6.875 5.5 8.25 4.883 8.25 4.125 7.633 2.75 6.875 2.75m6.875 0l-2.668 2.148 3.57 4.426-3.351 3.352 2.449 2.449 5.5-5.5zm-8.938 5.5a2.06 2.06 0 0 0-2.062 2.063 2.06 2.06 0 0 0 2.063 2.062 2.06 2.06 0 0 0 2.062-2.063A2.06 2.06 0 0 0 4.812 8.25m4.125 6.875a2.06 2.06 0 0 0-2.062 2.063 2.06 2.06 0 0 0 2.063 2.062A2.06 2.06 0 0 0 11 17.187a2.06 2.06 0 0 0-2.063-2.062" fill="#FF19C5"/>
    </g>
</svg>
