<svg xmlns="http://www.w3.org/2000/svg" height="48" width="48">
    <path d="M35.413 4.5H11.706C8.837 4.5 6.5 6.995 6.5 10.058V46.5h29.794c2.869 0 5.206-2.495 5.206-5.558v-30.22" fill="#757575" fill-opacity=".05" stroke="#757575" stroke-width="1.2" stroke-linecap="round" stroke-linejoin="round"/>
      <g
     transform="matrix(1.3 0 0 1.3 9.8 11.7)"
     id="g2522">     <path d="M16.91 6.133l-4.113.676c.062 2.558-2.664 4.336-5.223-.485l-4.84.68c.754 2.605 3.457 2.926 5.262 4.293-.902 1.289-5 .512-4.89 4.523l4.113-.675c-.059-2.56 4.687-4.711 7.246.105l4.836-.676c-.754-2.613-3.625-2.863-5.43-4.242.895-1.867 3.852-.187 3.04-4.203" fill="#FE1919"/>
    </g>
</svg>
