<svg xmlns="http://www.w3.org/2000/svg" height="48" width="48">
    <path d="M35.413 4.5H11.706C8.837 4.5 6.5 6.995 6.5 10.058V46.5h29.794c2.869 0 5.206-2.495 5.206-5.558v-30.22" fill="#757575" fill-opacity=".05" stroke="#757575" stroke-width="1.2" stroke-linecap="round" stroke-linejoin="round"/>
      <g
     transform="matrix(1.3 0 0 1.3 9.8 11.7)"
     id="g2522">     <path d="M10.313 4.125a7.564 7.564 0 0 0 0 15.125 7.564 7.564 0 0 0 0-15.125m0 1.375a6.184 6.184 0 0 1 6.187 6.188 6.184 6.184 0 0 1-6.188 6.187 6.184 6.184 0 0 1-6.187-6.188A6.184 6.184 0 0 1 10.313 5.5m-.688 1.375V8.25H11V6.875zm0 2.75V16.5H11V9.625zm0 0" fill="#19FEC5"/>
    </g>
</svg>
