<svg xmlns="http://www.w3.org/2000/svg" height="48" width="48">
    <path d="M35.413 4.5H11.706C8.837 4.5 6.5 6.995 6.5 10.058V46.5h29.794c2.869 0 5.206-2.495 5.206-5.558v-30.22" fill="#757575" fill-opacity=".05" stroke="#757575" stroke-width="1.2" stroke-linecap="round" stroke-linejoin="round"/>
      <g
     transform="matrix(1.3 0 0 1.3 9.8 11.7)"
     id="g2522">     <path d="M9.625 2.75V5.5h2.75V2.75zm-.18 3.242l-2.722.73 1.125 1.126 1.777-.48V5.991zm2.93 0v1.375l4.203 1.125-4.203 1.125v9.625h.18l6.683-1.789h.012v-9.68l-.012.004-6.683-1.793zM4.551 7.301l-1.801.484v10.09L11 19.25V9.625L4.96 8.617l.716-.191zm13.324 2.273v6.094l-4.125-1.11V10.68zm-4.125 6.41l2.828.758-2.828.762zm0 0" fill-rule="evenodd" fill="#7F8080"/>
    </g>
</svg>
