<svg xmlns="http://www.w3.org/2000/svg" height="48" width="48">
    <path d="M35.413 4.5H11.706C8.837 4.5 6.5 6.995 6.5 10.058V46.5h29.794c2.869 0 5.206-2.495 5.206-5.558v-30.22" fill="#757575" fill-opacity=".05" stroke="#757575" stroke-width="1.2" stroke-linecap="round" stroke-linejoin="round"/>
      <g
     transform="matrix(1.3 0 0 1.3 9.8 11.7)"
     id="g2522">     <path d="M4.125 2.75v5.5H2.75v8.25h4.125v2.75h8.25V16.5h4.125V8.25h-1.375v-5.5zM5.5 4.125h11V8.25h-1.375V6.875h-8.25V8.25H5.5zm1.375 0V5.5h8.25V4.125zm-2.75 5.5h13.75v5.5H16.5V13.75h-11v1.375H4.125zM13.75 11v1.375h2.75V11zm-5.5 5.5h5.5v1.375h-5.5zm0 0" fill="#FE1952"/>
    </g>
</svg>
