<svg xmlns="http://www.w3.org/2000/svg" height="48" width="48">
    <path d="M35.413 4.5H11.706C8.837 4.5 6.5 6.995 6.5 10.058V46.5h29.794c2.869 0 5.206-2.495 5.206-5.558v-30.22" fill="#757575" fill-opacity=".05" stroke="#757575" stroke-width="1.2" stroke-linecap="round" stroke-linejoin="round"/>
      <g
     transform="matrix(1.3 0 0 1.3 9.8 11.7)"
     id="g2522">     <path d="M19.246 5.023l-9.625.008-3.36 9.2-2.136-3.708H2.75v1.375h.59l2.93 5.079 4.156-10.579h8.824zm-5.5 2.75a4.116 4.116 0 0 0-4.125 4.125 4.116 4.116 0 0 0 4.125 4.125c1.063 0 2.02-.41 2.75-1.066v1.066h1.375v-8.25h-1.375V8.84a4.098 4.098 0 0 0-2.75-1.067m0 1.375a2.744 2.744 0 0 1 2.75 2.75 2.744 2.744 0 0 1-2.75 2.75 2.744 2.744 0 0 1-2.75-2.75 2.744 2.744 0 0 1 2.75-2.75" fill="#7F8080"/>
    </g>
</svg>
