<svg xmlns="http://www.w3.org/2000/svg" height="48" width="48">
    <path d="M35.413 4.5H11.706C8.837 4.5 6.5 6.995 6.5 10.058V46.5h29.794c2.869 0 5.206-2.495 5.206-5.558v-30.22" fill="#757575" fill-opacity=".05" stroke="#757575" stroke-width="1.2" stroke-linecap="round" stroke-linejoin="round"/>
      <g
     transform="matrix(1.3 0 0 1.3 9.8 11.7)"
     id="g2522">     <path d="M2.75 2.75v16.5h16.5V2.75zm1.375 4.125h13.75v11H4.125zM8.25 8.25v4.125H6.875v.023l4.102 4.102h.043l4.105-4.102v-.023H13.75V8.25zm1.375 1.375h2.75v2.75h.824L11 14.578l-2.2-2.203h.825zm0 0" fill="#7F8080"/>
    </g>
</svg>
