<svg xmlns="http://www.w3.org/2000/svg" height="48" width="48">
    <path d="M35.413 4.5H11.706C8.837 4.5 6.5 6.995 6.5 10.058V46.5h29.794c2.869 0 5.206-2.495 5.206-5.558v-30.22" fill="#757575" fill-opacity=".05" stroke="#757575" stroke-width="1.2" stroke-linecap="round" stroke-linejoin="round"/>
      <g
     transform="matrix(1.3 0 0 1.3 9.8 11.7)"
     id="g2522">     <path d="M2.75 2.75L6.875 11 2.75 19.25H5.5L9.625 11 5.5 2.75zm4.125 0L11 11l-4.125 8.25h2.75l2.75-5.5 2.75 5.5h2.75l-8.25-16.5zm8.25 5.5L16.5 11h2.75V8.25zm2.063 4.125l1.375 2.75h.687v-2.75zm0 0" fill-rule="evenodd" fill="#7F8080"/>
    </g>
</svg>
