<svg xmlns="http://www.w3.org/2000/svg" height="48" width="48">
    <path d="M35.413 4.5H11.706C8.837 4.5 6.5 6.995 6.5 10.058V46.5h29.794c2.869 0 5.206-2.495 5.206-5.558v-30.22" fill="#757575" fill-opacity=".05" stroke="#757575" stroke-width="1.2" stroke-linecap="round" stroke-linejoin="round"/>
      <g
     transform="matrix(1.3 0 0 1.3 9.8 11.7)"
     id="g2522">     <path d="M6.875 2.75v16.5H8.25v-4.813A3.428 3.428 0 0 1 11.688 11a3.428 3.428 0 0 1 3.437 3.438v4.812H16.5v-4.813a4.8 4.8 0 0 0-4.813-4.812 4.783 4.783 0 0 0-3.437 1.45V2.753zm0 0" fill="#FF19C5"/>
    </g>
</svg>
