<svg xmlns="http://www.w3.org/2000/svg" height="48" width="48">
    <path d="M35.413 4.5H11.706C8.837 4.5 6.5 6.995 6.5 10.058V46.5h29.794c2.869 0 5.206-2.495 5.206-5.558v-30.22" fill="#757575" fill-opacity=".05" stroke="#757575" stroke-width="1.2" stroke-linecap="round" stroke-linejoin="round"/>
      <g
     transform="matrix(1.3 0 0 1.3 9.8 11.7)"
     id="g2522">     <g fill="#198CFE">
        <path d="M11 2.75v1.375H9.625V5.5H11v1.375h1.375V5.5h1.375V4.125h-1.375V2.75zm5.5 0v1.375h-1.375V5.5H16.5v1.375h1.375V5.5h1.375V4.125h-1.375V2.75zm0 0"/>
        <path d="M8.25 8.25c-3.04 0-5.5 2.46-5.5 5.5a5.498 5.498 0 0 0 9.387 3.887l-.973-.973a4.122 4.122 0 0 1-2.914 1.211 4.126 4.126 0 0 1 0-8.25c1.094 0 2.14.438 2.914 1.21l.973-.972A5.5 5.5 0 0 0 8.25 8.25zm0 0" fill-rule="evenodd"/>
    </g>
    </g>
</svg>
