<svg xmlns="http://www.w3.org/2000/svg" height="48" width="48">
    <path d="M35.413 4.5H11.706C8.837 4.5 6.5 6.995 6.5 10.058V46.5h29.794c2.869 0 5.206-2.495 5.206-5.558v-30.22" fill="#757575" fill-opacity=".05" stroke="#757575" stroke-width="1.2" stroke-linecap="round" stroke-linejoin="round"/>
      <g
     transform="matrix(1.3 0 0 1.3 9.8 11.7)"
     id="g2522">     <path d="M2.75 2.75v16.5h16.5V2.75H16.5v1.375h-2.75V2.75h-5.5v1.375H5.5V2.75zm1.375 4.125h13.75v11H4.125zM5.5 8.25V11h2.75V8.25zm4.125 0V11h2.75V8.25zm4.125 0V11h2.75V8.25zm-4.125 4.125v2.75h2.75v-2.75zm4.125 0v2.75h2.75v-2.75zm0 0" fill="#7F8080"/>
    </g>
</svg>
