<svg xmlns="http://www.w3.org/2000/svg" xmlns:xlink="http://www.w3.org/1999/xlink" width="16" height="16"><defs><linearGradient id="b"><stop offset="0"/><stop offset="1" stop-opacity="0"/></linearGradient><linearGradient id="d"><stop stop-color="#127bdc"/><stop offset="1" stop-color="#64b4f4"/></linearGradient><linearGradient xlink:href="#a" id="f" gradientUnits="userSpaceOnUse" x1="396.571" y1="498.798" x2="426.571" y2="511.798" gradientTransform="matrix(.26437 0 0 .26378 -102.286 909.427)"/><linearGradient id="a"><stop offset="0" stop-color="#f5f5f5"/><stop offset="1" stop-color="#f9f9f9"/></linearGradient><linearGradient id="c"><stop offset="0" stop-color="#1d5e8c"/><stop offset="1" stop-color="#2675a7"/></linearGradient><linearGradient xlink:href="#b" id="h" x1="5" y1="1037.362" x2="10.088" y2="1053.021" gradientUnits="userSpaceOnUse" gradientTransform="translate(0 -1036.362)"/><linearGradient xlink:href="#c" id="e" gradientUnits="userSpaceOnUse" gradientTransform="matrix(.2757 0 0 .2757 -106.844 -134.371)" x1="388.571" y1="487.798" x2="416.571" y2="507.798"/><linearGradient xlink:href="#b" id="i" gradientUnits="userSpaceOnUse" x1="5" y1="1037.362" x2="10.088" y2="1053.021"/><linearGradient xlink:href="#d" id="g" x1="14.245" y1="1055.18" x2="2.567" y2="1038.502" gradientUnits="userSpaceOnUse"/></defs><g transform="translate(0 -1036.362)"><path d="M1.666 0C.743 0 0 .743 0 1.666v5.668C0 8.257.743 9 1.666 9h4.652a1.6 1.6 0 0 0 .754-.209L16 9V3.382A1.38 1.38 0 0 0 14.617 2H9L8 0H1.666z" transform="translate(0 1036.362)" fill="url(#e)"/><rect ry=".762" rx=".697" y="1040.362" x=".221" height="5" width="15.58" style="isolation:auto;mix-blend-mode:normal;marker:none" color="#000" overflow="visible" fill="url(#f)"/><path d="M8 1036.362V1038.902h.002c.005.255.211.46.469.46H16v-1H9l-1-2z" opacity=".3" fill="#fff" fill-rule="evenodd"/><rect width="16.031" height="10" y="1042.362" ry="1.29" fill="url(#g)" fill-rule="evenodd" stroke-width=".8" stroke-linejoin="round"/><path d="M.094 7H0l.066.066C.071 7.042.088 7.024.094 7z" transform="translate(0 1036.362)" opacity=".181" fill="url(#h)" fill-rule="evenodd"/><path d="M.094 1043.362c-.006.024-.023.042-.028.066L8 1051.362l7.275.767c.114-.06.264-.056.354-.146.233-.233.377-.557.377-.914v-7.42c0-.124-.099-.203-.131-.316z" opacity=".181" fill="url(#i)" fill-rule="evenodd"/><path style="isolation:auto;mix-blend-mode:normal;marker:none" d="M0 1050.374v.7a1.284 1.284 0 0 0 1.285 1.286h13.46c.355 0 .677-.143.91-.375.225-.225.356-.539.365-.883l.003-.705c-.007.516-.526.973-1.027.963H1.006c-.499 0-1.006-.481-1.006-.986z" color="#000" overflow="visible" opacity=".2"/><path d="M1.29 1042.362c-.358 0-.68.144-.913.377-.169.169-.287.39-.342.631l15.97-.01a1.441 1.441 0 0 0-.35-.623 1.288 1.288 0 0 0-.915-.377z" opacity=".3" fill="#fff" fill-rule="evenodd"/></g></svg>