<?xml version="1.0" encoding="UTF-8" standalone="no"?>
<svg
   xmlns:dc="http://purl.org/dc/elements/1.1/"
   xmlns:cc="http://creativecommons.org/ns#"
   xmlns:rdf="http://www.w3.org/1999/02/22-rdf-syntax-ns#"
   xmlns:svg="http://www.w3.org/2000/svg"
   xmlns="http://www.w3.org/2000/svg"
   xmlns:sodipodi="http://sodipodi.sourceforge.net/DTD/sodipodi-0.dtd"
   xmlns:inkscape="http://www.inkscape.org/namespaces/inkscape"
   width="22"
   height="22"
   version="1.1"
   id="svg8"
   sodipodi:docname="folder-wifi.svg">
  <metadata
     id="metadata14">
    <rdf:RDF>
      <cc:Work
         rdf:about="">
        <dc:format>image/svg+xml</dc:format>
        <dc:type
           rdf:resource="http://purl.org/dc/dcmitype/StillImage" />
      </cc:Work>
    </rdf:RDF>
  </metadata>
  <defs
     id="defs12" />
  <sodipodi:namedview
     pagecolor="#ffffff"
     bordercolor="#666666"
     borderopacity="1"
     objecttolerance="10"
     gridtolerance="10"
     guidetolerance="10"
     inkscape:pageopacity="0"
     inkscape:pageshadow="2"
     inkscape:window-width="640"
     inkscape:window-height="480"
     id="namedview10" />
  <path
     d="M4.571 3A2.571 2.615 0 0 0 2 5.615v11.77A2.571 2.615 0 0 0 4.571 20H17.43A2.571 2.615 0 0 0 20 17.385V8.23a2.571 2.615 0 0 0-2.571-2.616h-5.143L9.714 3zm8.478 7.846c1.683 0 3.198.613 4.46 1.552l-3.295 3.679c-.586.654-1.748.662-2.345 0L8.59 12.44c1.267-.95 2.765-1.594 4.46-1.594z"
     font-weight="400"
     overflow="visible"
     style="line-height:normal;-inkscape-font-specification:Sans;text-indent:0;text-align:start;text-decoration-line:none;text-transform:none;marker:none"
     color="#000"
     font-family="Sans"
     fill="#48b9c7"
     id="path2" />
  <path
     d="M3 1.5h3.793l2 2H13c.831 0 1.5.669 1.5 1.5v7c0 .831-.669 1.5-1.5 1.5H3c-.831 0-1.5-.669-1.5-1.5V3c0-.831.669-1.5 1.5-1.5z"
     fill="none"
     stroke="#000"
     stroke-linecap="round"
     stroke-opacity=".392"
     transform="matrix(1.28571 0 0 1.3077 .714 1.692)"
     id="path4" />
  <path
     d="M12.931 9.63a7.253 7.377 0 0 0-5.143 2.167l4.208 5.185H12a1.286 1.308 0 0 0 1.858 0h.003l4.213-5.181a7.253 7.377 0 0 0-5.143-2.167z"
     fill="#33302f"
     id="path6" />
</svg>
