<?xml version="1.0" encoding="UTF-8" standalone="no"?>
<svg
   xmlns:dc="http://purl.org/dc/elements/1.1/"
   xmlns:cc="http://creativecommons.org/ns#"
   xmlns:rdf="http://www.w3.org/1999/02/22-rdf-syntax-ns#"
   xmlns:svg="http://www.w3.org/2000/svg"
   xmlns="http://www.w3.org/2000/svg"
   xmlns:sodipodi="http://sodipodi.sourceforge.net/DTD/sodipodi-0.dtd"
   xmlns:inkscape="http://www.inkscape.org/namespaces/inkscape"
   width="22"
   height="22"
   version="1.1"
   id="svg4"
   sodipodi:docname="folder-script.svg">
  <metadata
     id="metadata10">
    <rdf:RDF>
      <cc:Work
         rdf:about="">
        <dc:format>image/svg+xml</dc:format>
        <dc:type
           rdf:resource="http://purl.org/dc/dcmitype/StillImage" />
      </cc:Work>
    </rdf:RDF>
  </metadata>
  <defs
     id="defs8" />
  <sodipodi:namedview
     pagecolor="#ffffff"
     bordercolor="#666666"
     borderopacity="1"
     objecttolerance="10"
     gridtolerance="10"
     guidetolerance="10"
     inkscape:pageopacity="0"
     inkscape:pageshadow="2"
     inkscape:window-width="640"
     inkscape:window-height="480"
     id="namedview6" />
  <path
     d="M5.79 1.825A1.32 1.32 0 0 0 4.47 3.15v1.325H1.82A1.32 1.32 0 0 0 .5 5.795V16.38c0 .73.59 1.32 1.325 1.32H4.47v1.325a1.322 1.322 0 1 0 2.645 0V17.7h2.65v1.325a1.32 1.32 0 1 0 2.64 0V17.7h2.65v1.325a1.322 1.322 0 1 0 2.645 0V17.7h2.645a1.32 1.32 0 0 0 1.32-1.32V5.795a1.32 1.32 0 0 0-1.315-1.32H17.7V3.15a1.322 1.322 0 1 0-2.645 0v1.325H12.41V3.15a1.322 1.322 0 1 0-2.645 0v1.325h-2.65V3.15a1.32 1.32 0 0 0-1.32-1.325zM3.15 7.12h15.875v1.32a2.65 2.65 0 0 0-2.645 2.65 2.65 2.65 0 0 0 2.65 2.645v1.32H3.14z"
     fill="#f5f5f5"
     id="path2" />
</svg>
