<?xml version="1.0" encoding="UTF-8" standalone="no"?>
<svg
   xmlns:dc="http://purl.org/dc/elements/1.1/"
   xmlns:cc="http://creativecommons.org/ns#"
   xmlns:rdf="http://www.w3.org/1999/02/22-rdf-syntax-ns#"
   xmlns:svg="http://www.w3.org/2000/svg"
   xmlns="http://www.w3.org/2000/svg"
   xmlns:sodipodi="http://sodipodi.sourceforge.net/DTD/sodipodi-0.dtd"
   xmlns:inkscape="http://www.inkscape.org/namespaces/inkscape"
   width="22"
   height="22"
   version="1.1"
   id="svg4"
   sodipodi:docname="folder-github.svg">
  <metadata
     id="metadata10">
    <rdf:RDF>
      <cc:Work
         rdf:about="">
        <dc:format>image/svg+xml</dc:format>
        <dc:type
           rdf:resource="http://purl.org/dc/dcmitype/StillImage" />
      </cc:Work>
    </rdf:RDF>
  </metadata>
  <defs
     id="defs8" />
  <sodipodi:namedview
     pagecolor="#ffffff"
     bordercolor="#666666"
     borderopacity="1"
     objecttolerance="10"
     gridtolerance="10"
     guidetolerance="10"
     inkscape:pageopacity="0"
     inkscape:pageshadow="2"
     inkscape:window-width="640"
     inkscape:window-height="480"
     id="namedview6" />
  <path
     d="M19.21.5c-1.4-.05-2.715 1.3-3.575 1.905a14.385 14.385 0 0 0-3.645-.49 13.835 13.835 0 0 0-3.775.49C7.075 1.87 5.945.47 4.665.53c-.725 1.9-.265 3.3-.13 3.65-.85.96-.985 2.195-.985 3.7 0 5.28 2.73 6.46 5.7 6.81-.38.34-.61.95-.73 1.84-.765.355-2.235 1.31-3.43-.79 0 0-.19-1.535-1.535-1.635 0 0-2.915.095-1.7.95 0 0 1.675.17 2.285 1.765 0 0 .63 2.68 4.35 1.85 0 .305.08 2.955.08 2.955l7.035.04s.425-2.34.425-2.985c0-1.285-.935-3.575-1.415-4 2.98-.34 5.9-1.51 5.9-6.8 0-1.51-.1-2.735-.95-3.7.135-.35.595-1.75-.135-3.65 0 0-.075-.02-.22-.03z"
     fill="#f5f5f5"
     id="path2" />
</svg>
