<?xml version="1.0" encoding="UTF-8" standalone="no"?>
<svg
   xmlns:dc="http://purl.org/dc/elements/1.1/"
   xmlns:cc="http://creativecommons.org/ns#"
   xmlns:rdf="http://www.w3.org/1999/02/22-rdf-syntax-ns#"
   xmlns:svg="http://www.w3.org/2000/svg"
   xmlns="http://www.w3.org/2000/svg"
   xmlns:sodipodi="http://sodipodi.sourceforge.net/DTD/sodipodi-0.dtd"
   xmlns:inkscape="http://www.inkscape.org/namespaces/inkscape"
   width="22"
   height="22"
   version="1.1"
   id="svg10"
   sodipodi:docname="user-trash-full.svg">
  <metadata
     id="metadata16">
    <rdf:RDF>
      <cc:Work
         rdf:about="">
        <dc:format>image/svg+xml</dc:format>
        <dc:type
           rdf:resource="http://purl.org/dc/dcmitype/StillImage" />
      </cc:Work>
    </rdf:RDF>
  </metadata>
  <defs
     id="defs14" />
  <sodipodi:namedview
     pagecolor="#ffffff"
     bordercolor="#666666"
     borderopacity="1"
     objecttolerance="10"
     gridtolerance="10"
     guidetolerance="10"
     inkscape:pageopacity="0"
     inkscape:pageshadow="2"
     inkscape:window-width="640"
     inkscape:window-height="480"
     id="namedview12" />
  <path
     d="M4.94 1h11.613c1.073 0 2.021.867 1.936 1.935l-1.29 16.13c-3.226 2.58-9.678 2.58-12.903 0l-1.29-16.13C2.92 1.867 3.87 1 4.94 1z"
     fill="#898989"
     stroke-linecap="square"
     stroke-opacity=".5"
     id="path2" />
  <path
     d="M4.94 1c-1.07 0-2.02.867-1.935 1.935l1.29 16.13c3.226 2.58 9.678 2.58 12.904 0l1.29-16.13C18.574 1.867 17.626 1 16.553 1zm0 1.29h11.613c.358 0 .677.29.646.645l-1.29 14.84c-3.226 2.58-7.097 2.58-10.323 0l-1.29-14.84c-.031-.356.287-.645.645-.645z"
     fill-opacity=".5"
     stroke-linecap="square"
     stroke-opacity=".5"
     id="path4" />
  <path
     d="M8.982 14.19l-2.254.755-.924-3.977 1.526-.276-.196-4.455 3.352-2.68 2.901.51-.602 4.253 2.531 1.957-.67 3.575-2.104-.309-1.4 4.052-2.103-.309z"
     fill="#ededed"
     stroke-width=".866"
     id="path6" />
  <path
     d="M6.636 10.222l-.044-2.4M5.356 7.51l2.167-.393 1.827.204m.233-1.648L7.004 4m2.391 5.721l-1.63-.24"
     fill="none"
     stroke="#898989"
     stroke-width=".866"
     transform="matrix(1.2903 0 0 1.29032 .42 1)"
     id="path8" />
</svg>
