<?xml version="1.0" encoding="UTF-8" standalone="no"?>
<svg
   xmlns:dc="http://purl.org/dc/elements/1.1/"
   xmlns:cc="http://creativecommons.org/ns#"
   xmlns:rdf="http://www.w3.org/1999/02/22-rdf-syntax-ns#"
   xmlns:svg="http://www.w3.org/2000/svg"
   xmlns="http://www.w3.org/2000/svg"
   xmlns:sodipodi="http://sodipodi.sourceforge.net/DTD/sodipodi-0.dtd"
   xmlns:inkscape="http://www.inkscape.org/namespaces/inkscape"
   width="22"
   height="22"
   version="1.1"
   id="svg6"
   sodipodi:docname="user-bookmarks.svg">
  <metadata
     id="metadata11">
    <rdf:RDF>
      <cc:Work
         rdf:about="">
        <dc:format>image/svg+xml</dc:format>
        <dc:type
           rdf:resource="http://purl.org/dc/dcmitype/StillImage" />
      </cc:Work>
    </rdf:RDF>
  </metadata>
  <defs
     id="defs9" />
  <sodipodi:namedview
     pagecolor="#ffffff"
     bordercolor="#666666"
     borderopacity="1"
     objecttolerance="10"
     gridtolerance="10"
     guidetolerance="10"
     inkscape:pageopacity="0"
     inkscape:pageshadow="2"
     inkscape:window-width="640"
     inkscape:window-height="480"
     id="namedview7" />
  <g
     id="layer1"
     transform="matrix(1.24994 0 0 1.24995 1 .996)">
    <defs
       id="defs3">
      <style
         id="current-color-scheme"
         type="text/css" />
    </defs>
    <path
       d="M8 .5c-.677.01-1.159.405-1.385 1.062l.007-.03-1.062 3.67H1.952a1.472 1.472 0 0 0-1.087.529 1.452 1.452 0 0 0 .284 2.182l2.818 2.005-1.093 3.737-.004.011a1.377 1.377 0 0 0 .41 1.462l.011.008a1.482 1.482 0 0 0 1.785.13l.033-.02L8 13.213l2.891 2.033.033.02c.57.362 1.28.307 1.785-.13.003-.003.008-.005.01-.008.421-.376.578-.927.411-1.462l-.004-.01-1.093-3.738 2.818-2.005c.746-.49.872-1.525.284-2.182a1.472 1.472 0 0 0-1.11-.529H10.44l-1.062-3.67.007.03C9.16.905 8.677.509 8 .5z"
       id="path5"
       stroke-miterlimit="4"
       color="#444"
       opacity="1"
       fill="#ffce51"
       fill-opacity="1"
       stroke="#d1a023"
       stroke-width="1"
       stroke-dasharray="none"
       stroke-opacity="1" />
  </g>
</svg>
