<?xml version="1.0" encoding="UTF-8" standalone="no"?>
<svg
   xmlns:dc="http://purl.org/dc/elements/1.1/"
   xmlns:cc="http://creativecommons.org/ns#"
   xmlns:rdf="http://www.w3.org/1999/02/22-rdf-syntax-ns#"
   xmlns:svg="http://www.w3.org/2000/svg"
   xmlns="http://www.w3.org/2000/svg"
   xmlns:sodipodi="http://sodipodi.sourceforge.net/DTD/sodipodi-0.dtd"
   xmlns:inkscape="http://www.inkscape.org/namespaces/inkscape"
   id="theFolder"
   height="64"
   width="64"
   version="1.1"
   sodipodi:docname="system-file-manager.svg"
   inkscape:version="0.92.2 5c3e80d, 2017-08-06">
  <metadata
     id="metadata26">
    <rdf:RDF>
      <cc:Work
         rdf:about="">
        <dc:format>image/svg+xml</dc:format>
        <dc:type
           rdf:resource="http://purl.org/dc/dcmitype/StillImage" />
        <dc:title></dc:title>
      </cc:Work>
    </rdf:RDF>
  </metadata>
  <sodipodi:namedview
     pagecolor="#ffffff"
     bordercolor="#666666"
     borderopacity="1"
     objecttolerance="10"
     gridtolerance="10"
     guidetolerance="10"
     inkscape:pageopacity="0"
     inkscape:pageshadow="2"
     inkscape:window-width="1366"
     inkscape:window-height="748"
     id="namedview24"
     showgrid="true"
     inkscape:zoom="10.429825"
     inkscape:cx="21.058615"
     inkscape:cy="28.745444"
     inkscape:window-x="0"
     inkscape:window-y="20"
     inkscape:window-maximized="1"
     inkscape:current-layer="originalFolder">
    <inkscape:grid
       type="xygrid"
       id="grid825" />
  </sodipodi:namedview>
  <defs
     id="folderDefs">
    <linearGradient
       id="folderGradient"
       x1="416.57"
       gradientUnits="userSpaceOnUse"
       y1="515.8"
       gradientTransform="translate(-384.57,-483.8)"
       x2="416.57"
       y2="553.46">
      <stop
         stop-color="#9ac5f1"
         offset="0"
         id="stop2" />
      <stop
         stop-color="#77abea"
         offset="1"
         id="stop4" />
    </linearGradient>
  </defs>
  <g
     id="originalFolder">
    <path
       d="m 26,23 -4,4 H 3 c 0,-1.2e-4 10e-4,19.061 0,31 H 61 V 25 c 0,-1.104569 -0.895431,-2 -2,-2 z"
       id="path10"
       inkscape:connector-curvature="0"
       style="fill:url(#folderGradient)"
       sodipodi:nodetypes="cccccssc" />
    <g
       id="g18">
      <path
         style="fill:#7ca3d5"
         d="M 5,12 C 3.8954,12 3,12.89543 3,14 V 58 H 61 V 25 c 0,-1.1046 -0.89543,-2 -2,-2 V 16 H 31 L 27,12 H 10 Z m -1,5 h 54 v 6 H 26 l -4,4 H 4 Z m 22.525391,7 H 59 c 0.552285,0 1,0.447715 1,1 V 57 H 4 V 28 h 18.513672 z"
         id="path12"
         inkscape:connector-curvature="0"
         sodipodi:nodetypes="scccscccccsccccccccssccccc" />
      <path
         d="M 4,28 H 22.514 L 25.9996,23 22,27 Z"
         id="path16"
         inkscape:connector-curvature="0"
         style="fill:#648bbe;fill-opacity:1"
         sodipodi:nodetypes="ccccc" />
      <path
         d="m 26.525,24 -4.0117,4 H 4.0003 v 1 h 19 l 4,-4 h 33 c 0,-0.55228 -0.44772,-1 -1,-1 z"
         id="path20"
         inkscape:connector-curvature="0"
         style="fill:#ffffff;fill-opacity:0.23529412" />
    </g>
    <path
       style="fill:#ffffff;stroke:none;stroke-width:1px;stroke-linecap:butt;stroke-linejoin:miter;stroke-opacity:1;fill-opacity:1"
       d="M 4,27 V 17 h 54 v 6 H 26 l -4,4 z"
       id="path821"
       inkscape:connector-curvature="0" />
  </g>
</svg>
