<svg xmlns="http://www.w3.org/2000/svg" xmlns:xlink="http://www.w3.org/1999/xlink" width="48" height="48">
  <defs id="acyl-settings">
    <linearGradient id="acyl-gradient" x1="0%" x2="0%" y1="0%" y2="100%">
      <stop offset="100%" style="stop-color:#A0A0A0;stop-opacity:1.000000"/>
    </linearGradient>
    <g id="acyl-filter">
  </g>
    <g id="acyl-drawing">
      <path d="M 3.84375 7.125 C 2.823171 7.125 2 7.948173 2 8.96875 L 2 39.03125 C 2 40.05183 2.823171 40.875 3.84375 40.875 L 44.15625 40.875 C 45.176828 40.875 46 40.05183 46 39.03125 L 46 10.78125 C 46 9.7606715 45.176828 8.9375 44.15625 8.9375 L 15.6875 8.9375 L 14.0625 7.125 L 3.84375 7.125 z M 18.78125 14.4375 C 24.172488 14.4375 28.593749 18.827512 28.59375 24.21875 C 28.59375 25.167145 28.441339 26.100186 28.1875 26.96875 C 28.19872 26.97415 28.20761 26.96315 28.21875 26.96875 L 37.96875 31.6875 C 38.890362 32.133141 39.258139 33.203385 38.8125 34.125 C 38.366861 35.046612 37.234112 35.44564 36.3125 35 L 26.59375 30.3125 C 26.55516 30.29463 26.5369 30.27024 26.5 30.25 C 24.704502 32.542349 21.905548 34 18.78125 34 C 13.390014 34 9 29.609986 9 24.21875 C 9 18.827512 13.390014 14.4375 18.78125 14.4375 z M 18.78125 17.5 C 15.057725 17.5 12.09375 20.495223 12.09375 24.21875 C 12.09375 27.942276 15.057724 30.937498 18.78125 30.9375 C 22.504777 30.9375 25.53125 27.942276 25.53125 24.21875 C 25.53125 20.495223 22.504777 17.500001 18.78125 17.5 z " id="path-main"/>
    </g>
  </defs>
  <g id="acyl-visual">
    <use id="visible1" style="fill:url(#acyl-gradient)" xlink:href="#acyl-drawing"/>
  </g>
</svg>
