<svg xmlns="http://www.w3.org/2000/svg" xmlns:xlink="http://www.w3.org/1999/xlink" width="48" height="48">
  <defs id="acyl-settings">
    <linearGradient id="acyl-gradient" x1="0%" x2="0%" y1="0%" y2="100%">
      <stop offset="100%" style="stop-color:#A0A0A0;stop-opacity:1.000000"/>
    </linearGradient>
    <g id="acyl-filter">
  </g>
    <g id="acyl-drawing">
      <path d="M 3.8418 7.22852 C 2.82122 7.22852 2 8.04974 2 9.07031 L 2 39.1582 C 2 40.1788 2.82122 41 3.8418 41 L 44.1582 41 C 45.1788 41 46 40.1788 46 39.1582 L 46 10.9004 C 46 9.87981 45.1788 9.05859 44.1582 9.05859 L 15.6953 9.05859 L 14.0566 7.22852 L 3.8418 7.22852 z M 36 17.5801 L 35.416 19.7188 L 35.4434 19.7461 L 35.3945 19.7949 L 33.9395 25.1172 L 32.1035 24.6152 L 32.6797 22.5098 L 27.9023 27.2871 L 26.3086 25.6934 L 31.0918 20.9102 L 28.9844 21.4922 L 28.4785 19.6562 L 33.8223 18.1816 L 33.8516 18.1523 L 33.8672 18.168 L 36 17.5801 z M 12 17.5957 L 14.1387 18.1797 L 14.1641 18.1523 L 14.2148 18.2012 L 19.5371 19.6562 L 19.0352 21.4922 L 16.9297 20.916 L 21.707 25.6934 L 20.1152 27.2871 L 15.332 22.5039 L 15.9141 24.6113 L 14.0781 25.1172 L 12.6016 19.7734 L 12.5742 19.748 L 12.5898 19.7305 L 12 17.5957 z M 24.0078 26.3555 C 24.8384 26.3555 25.6687 26.6705 26.2969 27.2988 C 27.5533 28.5552 27.5533 30.6206 26.2969 31.877 C 25.0406 33.1334 22.975 33.1334 21.7188 31.877 C 20.4624 30.6206 20.4624 28.5552 21.7188 27.2988 C 22.347 26.6706 23.1773 26.3555 24.0078 26.3555 z M 24.0078 28.248 C 23.6686 28.248 23.3307 28.3802 23.0664 28.6445 C 22.5379 29.1731 22.5379 30.0026 23.0664 30.5312 C 23.595 31.0599 24.4226 31.0599 24.9512 30.5312 C 25.4798 30.0027 25.4798 29.1731 24.9512 28.6445 C 24.6869 28.3802 24.347 28.248 24.0078 28.248 z " id="path-main"/>
    </g>
  </defs>
  <g id="acyl-visual">
    <use id="visible1" style="fill:url(#acyl-gradient)" xlink:href="#acyl-drawing"/>
  </g>
</svg>
