<svg xmlns="http://www.w3.org/2000/svg" xmlns:xlink="http://www.w3.org/1999/xlink" width="48" height="48">
  <defs id="acyl-settings">
    <linearGradient id="acyl-gradient" x1="0%" x2="0%" y1="0%" y2="100%">
      <stop offset="100%" style="stop-color:#A0A0A0;stop-opacity:1.000000"/>
    </linearGradient>
    <g id="acyl-filter">
  </g>
    <g id="acyl-drawing">
      <path d="M 3.8418 7.22852 C 2.82122 7.22852 2 8.04974 2 9.07031 L 2 39.1582 C 2 40.1788 2.82122 41 3.8418 41 L 44.1582 41 C 45.1788 41 46 40.1788 46 39.1582 L 46 10.9004 C 46 9.87981 45.1788 9.05859 44.1582 9.05859 L 15.6953 9.05859 L 14.0566 7.22852 L 3.8418 7.22852 z M 17.4805 16.4727 L 18.5957 16.4727 L 27.1641 16.4727 L 30.5195 19.8281 L 30.5195 33.3574 L 30.5195 34.4727 L 28.4648 34.4727 L 28.2891 34.4727 L 26.2363 34.4727 L 26.2363 32.2441 L 28.2891 32.2441 L 28.2891 20.752 L 26.2402 18.7031 L 19.7109 18.7031 L 19.7109 20.9316 L 17.4805 20.9316 L 17.4805 18.7031 L 17.4805 16.4727 z M 17.4805 23.1621 L 19.7109 23.1621 L 19.7109 25.3906 L 17.4805 25.3906 L 17.4805 23.1621 z M 17.4805 27.6211 L 19.7109 27.6211 L 19.7109 29.8516 L 17.4805 29.8516 L 17.4805 27.6211 z M 17.4805 32.0801 L 19.7109 32.0801 C 19.7109 32.8777 19.711 33.6751 19.7109 34.4727 L 18.5957 34.4727 L 17.4805 34.4727 L 17.4805 33.3574 L 17.4805 32.0801 z M 21.7773 32.2441 L 24.0059 32.2441 L 24.0059 34.4727 L 21.7773 34.4727 L 21.7773 32.2441 z " id="path-main"/>
    </g>
  </defs>
  <g id="acyl-visual">
    <use id="visible1" style="fill:url(#acyl-gradient)" xlink:href="#acyl-drawing"/>
  </g>
</svg>
