<svg xmlns="http://www.w3.org/2000/svg" xmlns:xlink="http://www.w3.org/1999/xlink" width="48" height="48">
  <defs id="acyl-settings">
    <linearGradient id="acyl-gradient" x1="0%" x2="0%" y1="0%" y2="100%">
      <stop offset="100%" style="stop-color:#A0A0A0;stop-opacity:1.000000"/>
    </linearGradient>
    <g id="acyl-filter">
  </g>
    <g id="acyl-drawing">
      <path d="M 3.84375 7.125 C 2.823171 7.125 2 7.948173 2 8.96875 L 2 39.03125 C 2 40.05183 2.823171 40.875 3.84375 40.875 L 44.15625 40.875 C 45.176828 40.875 46 40.05183 46 39.03125 L 46 10.78125 C 46 9.7606715 45.176828 8.9375 44.15625 8.9375 L 15.6875 8.9375 L 14.0625 7.125 L 3.84375 7.125 z M 24.5 14.40625 L 35.21875 25.5 L 33.09375 25.46875 L 33.1875 34.375 L 16.5625 34.40625 L 16.53125 25.53125 L 14.0625 25.53125 L 24.5 14.40625 z " id="path-main"/>
    </g>
  </defs>
  <g id="acyl-visual">
    <use id="visible1" style="fill:url(#acyl-gradient)" xlink:href="#acyl-drawing"/>
  </g>
</svg>
