<svg xmlns="http://www.w3.org/2000/svg" xmlns:xlink="http://www.w3.org/1999/xlink" width="48" height="48">
  <defs id="acyl-settings">
    <linearGradient id="acyl-gradient" x1="0%" x2="0%" y1="0%" y2="100%">
      <stop offset="100%" style="stop-color:#A0A0A0;stop-opacity:1.000000"/>
    </linearGradient>
    <g id="acyl-filter">
  </g>
    <g id="acyl-drawing">
      <path d="M 23.59 2.025 C 22.75 2.048 21.84 2.127 20.84 2.262 C 19.96 2.382 18.03 2.771 17.88 2.871 C 17.85 2.891 17.58 2.972 17.28 3.072 C 16 3.462 14.62 4.051 13.47 4.691 C 13.16 4.861 12.87 5.012 12.87 5.012 C 12.84 5.012 12.13 5.463 12.01 5.562 C 11.98 5.593 11.81 5.693 11.65 5.793 C 11.39 5.993 11.34 5.993 11.2 5.893 C 10.29 5.343 9.57 5.162 8.66 5.342 C 7.86 5.502 7.271 5.903 6.781 6.633 C 6.231 7.483 6.211 9.012 6.781 9.852 C 6.911 9.992 6.91 10.2 6.91 10.2 C 6.89 10.24 6.62 10.6 6.32 10.98 C 6.03 11.38 5.791 11.76 5.691 11.86 C 5.661 11.95 5.561 12.07 5.561 12.07 C 5.531 12.09 5.452 12.23 5.352 12.38 C 5.272 12.54 5.1 12.82 4.98 13.01 C 3.72 15.06 2.602 18.32 2.252 20.96 C 1.972 23.23 1.972 24.87 2.252 27 C 2.352 27.76 2.791 29.94 2.891 30.08 C 2.911 30.1 2.992 30.38 3.092 30.67 C 3.462 31.9 3.981 33.16 4.541 34.19 C 4.901 34.86 5.521 35.91 5.781 36.28 C 5.921 36.48 6.082 36.73 6.182 36.85 C 6.312 37.04 7.08 38.01 7.32 38.3 C 7.42 38.4 7.401 38.45 7.191 38.69 C 6.821 39.12 6.671 39.36 6.551 39.73 C 6.041 41.3 6.761 42.89 8.281 43.51 C 8.691 43.72 8.86 43.72 9.4 43.72 C 9.999 43.72 10.09 43.7 10.58 43.47 C 10.96 43.29 11.24 43.09 11.53 42.8 L 11.95 42.38 L 12.65 42.8 C 13.51 43.31 14.77 43.97 15.25 44.15 C 15.45 44.22 15.64 44.36 15.74 44.36 C 15.82 44.41 16.38 44.61 16.97 44.81 C 18.17 45.21 19.82 45.6 20.81 45.72 C 21.16 45.77 21.69 45.78 22 45.88 C 22.31 45.88 22.78 45.98 23.06 45.98 C 23.63 45.98 25.41 45.98 25.69 45.88 C 25.79 45.88 26.16 45.78 26.5 45.78 C 28.57 45.54 30.25 45.11 32.26 44.3 C 33 44.01 34.47 43.27 35.15 42.85 L 35.69 42.53 L 35.98 42.81 C 36.64 43.45 37.28 43.69 38.17 43.69 C 38.74 43.68 38.86 43.66 39.33 43.45 C 39.98 43.14 40.48 42.66 40.81 42.02 C 40.97 41.62 41.07 41.46 41.07 40.96 C 41.12 40.13 41 39.63 40.62 39.06 L 40.32 38.6 L 40.58 38.31 C 41.29 37.52 42.32 36.08 42.89 35.09 C 44.68 31.96 45.57 29 45.88 25.18 C 45.99 24.35 45.98 22.57 45.88 22.14 C 45.86 22.05 45.81 21.48 45.71 20.87 C 45.63 20.27 45.5 19.71 45.5 19.61 C 45.47 19.52 45.42 19.18 45.32 18.85 C 45.19 18.22 44.53 16.2 44.17 15.37 C 43.48 13.73 42.26 11.68 41.22 10.39 C 40.94 10.05 40.81 9.832 40.81 9.732 C 40.84 9.662 40.89 9.442 40.99 9.232 C 41.11 8.762 41.14 7.901 40.99 7.361 C 40.82 6.711 40.4 6.153 39.75 5.723 C 39.31 5.423 38.99 5.352 38.34 5.252 C 37.77 5.192 37.28 5.292 36.68 5.592 L 36.24 5.812 L 35.98 5.633 C 35.15 5.083 33.84 4.361 33.07 4.021 C 32.78 3.901 32.43 3.782 32.3 3.682 C 32.17 3.612 31.93 3.573 31.77 3.473 C 31.62 3.423 31.34 3.352 31.14 3.252 C 29.69 2.722 28.32 2.423 25.94 2.133 C 25.2 2.038 24.43 2.003 23.59 2.025 z M 24.58 5.184 C 24.98 5.186 25.35 5.202 25.66 5.232 C 26.54 5.322 28.28 5.621 28.82 5.781 C 31.14 6.471 32.86 7.252 34.44 8.332 C 38.41 11.03 41.01 14.7 42.28 19.38 C 42.4 19.85 42.47 20.19 42.72 21.63 C 42.82 22.23 42.82 25.8 42.72 26.41 C 42.47 27.84 42.4 28.18 42.28 28.66 C 42.09 29.36 41.66 30.66 41.51 31.01 C 40.53 33.25 39.85 34.39 38.47 36.07 C 36.74 38.17 34.27 40.07 31.88 41.13 C 31.55 41.27 31.18 41.49 31.07 41.49 C 30.23 41.87 28.42 42.37 27.06 42.61 L 27.06 42.58 C 26.17 42.69 25.75 42.79 24.36 42.79 L 22.14 42.79 C 21.42 42.71 19.63 42.39 19.22 42.26 C 17.83 41.82 17.25 41.63 17.01 41.52 C 15.41 40.82 14.49 40.33 13.56 39.71 C 11.24 38.12 9.311 36.1 7.941 33.87 C 6.661 31.75 5.85 29.6 5.4 27.04 C 5.21 26.03 5.211 25.82 5.211 24.02 C 5.211 22.22 5.22 22.01 5.4 20.99 C 6.21 16.38 8.361 12.6 11.83 9.672 C 12.26 9.302 12.69 8.961 12.81 8.861 C 15.13 7.131 17.94 5.942 20.95 5.422 C 21.89 5.279 23.37 5.176 24.58 5.184 z M 23.24 6.176 C 22.72 6.195 22.72 6.316 22.72 6.781 C 22.72 7.061 22.82 7.342 22.82 7.342 C 22.94 7.462 24.86 7.462 24.97 7.342 C 25.07 7.242 25.07 6.463 24.97 6.303 C 24.92 6.183 24.7 6.182 23.96 6.182 C 23.65 6.174 23.42 6.169 23.24 6.176 z M 38.74 6.75 C 38.9 6.768 39.06 6.827 39.2 6.932 C 39.82 7.402 39.81 8.213 39.2 8.643 L 39.18 8.643 C 38.76 8.943 38.26 8.873 37.88 8.473 C 37.61 8.213 37.51 7.902 37.61 7.572 C 37.74 7.017 38.25 6.697 38.74 6.75 z M 9.191 6.793 C 9.36 6.8 9.529 6.846 9.682 6.941 C 10.3 7.311 10.34 8.223 9.781 8.643 L 9.752 8.652 C 9.332 8.972 8.841 8.933 8.451 8.553 C 8.151 8.273 8.15 8.142 8.15 7.652 C 8.188 7.12 8.687 6.773 9.191 6.793 z M 24 8.592 C 22.41 8.592 22.29 8.601 20.63 8.941 C 19.12 9.251 17.17 10.04 15.78 10.92 C 13.85 12.14 12.14 13.86 10.87 15.85 C 10.51 16.42 9.811 17.83 9.561 18.5 C 8.221 22.04 8.221 25.98 9.561 29.53 C 9.761 30.08 10.46 31.54 10.64 31.81 C 10.71 31.91 10.95 32.28 11.17 32.61 C 12.65 34.86 14.69 36.64 17.16 37.87 C 18.87 38.71 20.48 39.17 22.49 39.41 C 23.28 39.5 25.57 39.44 26.29 39.31 C 28.35 38.92 29.23 38.65 30.75 37.93 C 31.55 37.54 31.58 37.53 32.61 36.85 C 33.5 36.25 34.16 35.71 34.94 34.93 C 35.86 34.01 36.29 33.47 37.36 31.82 C 37.55 31.52 38.27 30.03 38.42 29.61 C 38.49 29.39 38.59 29.05 38.69 28.85 C 39.09 27.71 39.45 25.93 39.45 24.51 C 39.48 23.27 39.43 22.51 39.2 21.19 C 38.49 17.18 36.05 13.48 32.61 11.19 C 31.57 10.5 31.55 10.48 30.75 10.1 C 29.59 9.562 28.42 9.151 27.38 8.941 C 25.72 8.591 25.6 8.592 24 8.592 z M 12.31 10.87 C 12.14 10.87 10.79 12.25 10.79 12.42 C 10.79 12.49 10.92 12.7 11.08 12.87 C 11.24 13.05 11.39 13.19 11.49 13.19 C 11.55 13.19 11.9 12.89 12.25 12.54 C 12.93 11.86 13.04 11.73 13.04 11.59 C 13.04 11.46 12.44 10.87 12.31 10.87 z M 35.48 10.87 C 35.32 10.87 34.76 11.43 34.76 11.6 C 34.76 11.69 35.04 12.03 35.48 12.47 C 35.88 12.87 36.28 13.19 36.28 13.19 C 36.41 13.19 37.01 12.56 37.01 12.42 C 37.01 12.24 35.65 10.87 35.48 10.87 z M 23.9 15.85 C 24.38 15.84 24.88 15.88 25.38 15.96 C 27.78 16.33 30.04 17.96 31.2 20.16 C 31.89 21.46 32.16 22.56 32.16 24.02 C 32.16 25.45 31.89 26.56 31.23 27.83 C 30.13 29.93 28.19 31.42 25.8 32 C 25.39 32.13 23.32 32.23 22.95 32.13 C 22.85 32.12 22.58 32.12 22.35 32.02 C 21.12 31.81 19.53 31.01 18.56 30.13 C 17.48 29.14 16.76 28.04 16.26 26.62 C 15.58 24.73 15.74 22.31 16.66 20.42 C 17.3 19.1 18.57 17.7 19.75 17.02 C 21.07 16.22 22.44 15.85 23.9 15.85 z M 24 19.64 A 4.359 4.359 0 0 0 19.64 24 A 4.359 4.359 0 0 0 24 28.36 A 4.359 4.359 0 0 0 28.36 24 A 4.359 4.359 0 0 0 24 19.64 z M 6.752 21.91 C 6.122 21.91 6.121 21.94 6.121 23.04 C 6.121 23.54 6.221 23.99 6.221 24.09 L 6.182 24.1 C 6.242 24.24 6.331 24.24 6.721 24.24 C 7.011 24.24 7.191 24.24 7.291 24.14 C 7.391 24.09 7.391 23.75 7.391 23.1 C 7.391 21.91 7.372 21.91 6.752 21.91 z M 41.19 21.94 C 40.95 21.94 40.68 21.94 40.68 22.04 C 40.58 22.1 40.58 22.44 40.58 23.12 C 40.58 23.79 40.58 24.09 40.68 24.19 L 40.7 24.23 C 40.78 24.23 41.5 24.33 41.7 24.23 C 41.81 24.2 41.81 24.04 41.81 23.16 C 41.81 22.45 41.71 22.14 41.71 22.04 C 41.66 21.94 41.43 21.94 41.19 21.94 z M 11.48 34.84 C 11.32 34.84 10.79 35.44 10.79 35.62 C 10.79 35.7 11.06 36.03 11.5 36.46 C 11.89 36.85 12.21 37.16 12.31 37.16 C 12.44 37.16 13.04 36.58 13.04 36.45 C 13.04 36.3 12.94 36.18 12.25 35.5 C 11.9 35.14 11.58 34.84 11.48 34.84 z M 36.28 34.84 C 36.14 34.84 34.76 36.28 34.76 36.42 C 34.76 36.49 34.9 36.69 35.08 36.86 C 35.25 37.03 35.49 37.16 35.49 37.16 C 35.66 37.16 37.01 35.78 37.01 35.6 C 37.01 35.45 36.43 34.84 36.28 34.84 z M 38.55 40.21 C 38.77 40.21 38.98 40.25 39.11 40.34 C 39.66 40.73 39.63 41.81 39.01 42.09 C 38.68 42.27 38.49 42.28 38.2 42.18 C 37.39 41.9 37.26 40.77 37.98 40.34 C 38.12 40.25 38.34 40.21 38.55 40.21 z M 9.104 40.22 C 9.629 40.26 10.04 40.66 10.04 41.25 C 10.04 41.63 9.891 41.9 9.551 42.09 L 9.551 42.1 C 9.171 42.31 9.021 42.31 8.531 42.1 C 8.251 41.98 7.98 41.54 7.98 41.2 C 7.98 40.9 8.291 40.43 8.551 40.32 C 8.741 40.24 8.928 40.21 9.104 40.22 z M 23.92 40.59 C 23.24 40.59 22.94 40.59 22.84 40.69 C 22.74 40.74 22.74 40.98 22.74 41.25 C 22.74 41.69 22.75 41.8 22.9 41.8 L 22.9 41.75 C 22.99 41.85 23.48 41.85 23.99 41.85 C 24.73 41.84 24.89 41.83 24.99 41.73 C 25.11 41.58 25.09 40.79 24.99 40.69 C 24.94 40.59 24.59 40.59 23.92 40.59 z" id="path-main"/>
    </g>
  </defs>
  <g id="acyl-visual">
    <use id="visible1" style="fill:url(#acyl-gradient)" xlink:href="#acyl-drawing"/>
  </g>
</svg>
