<svg xmlns="http://www.w3.org/2000/svg" xmlns:xlink="http://www.w3.org/1999/xlink" width="48" height="48">
  <defs id="acyl-settings">
    <linearGradient id="acyl-gradient" x1="0%" x2="0%" y1="0%" y2="100%">
      <stop offset="100%" style="stop-color:#A0A0A0;stop-opacity:1.000000"/>
    </linearGradient>
    <g id="acyl-filter">
  </g>
    <g id="acyl-drawing">
      <path id="path-main" d="M 2.928 5.676 C 2.422 5.676 2.01 6.087 2.01 6.592 C 2.01 7.098 2.422 7.51 2.928 7.51 L 5.676 7.51 L 5.676 14.84 L 2.928 14.84 C 2.422 14.84 2.01 15.25 2.01 15.75 L 2.01 23.08 C 2.01 23.59 2.422 24 2.928 24 L 5.676 24 L 5.676 25.83 L 2.928 25.83 C 2.422 25.83 2.01 26.24 2.01 26.75 L 2.01 34.08 C 2.01 34.58 2.422 35 2.928 35 L 5.676 35 L 5.676 41.41 C 5.676 41.92 6.087 42.32 6.592 42.32 C 7.098 42.32 7.508 41.92 7.508 41.41 L 7.508 36.83 L 11.18 36.83 L 11.18 39.58 C 11.18 40.08 11.58 40.49 12.09 40.49 L 28.58 40.49 C 29.09 40.49 29.5 40.08 29.5 39.58 L 29.5 36.83 L 31.33 36.83 L 31.33 39.58 C 31.33 40.08 31.74 40.49 32.25 40.49 L 41.41 40.49 C 41.92 40.49 42.32 40.08 42.32 39.58 L 42.32 36.83 L 43.24 36.83 C 44.75 36.83 45.99 35.6 45.99 34.08 L 45.99 15.75 C 45.99 14.24 44.75 13.01 43.24 13.01 L 7.508 13.01 L 7.508 6.592 C 7.508 6.087 7.098 5.676 6.592 5.676 L 2.928 5.676 z M 7.508 14.84 L 43.24 14.84 C 43.75 14.84 44.16 15.25 44.16 15.75 L 44.16 34.08 C 44.16 34.58 43.75 35 43.24 35 L 7.508 35 L 7.508 14.84 z M 39.46 18.19 L 31.66 20.44 L 31.66 21.73 L 31.66 23.08 L 31.66 26.88 C 31.32 26.67 30.93 26.55 30.5 26.55 C 29.27 26.55 28.27 27.55 28.27 28.78 C 28.27 30.01 29.27 31.01 30.5 31.01 C 31.73 31.01 32.73 30.01 32.73 28.78 L 32.73 22.77 L 38.4 21.14 L 38.4 24.96 C 38.07 24.75 37.67 24.62 37.24 24.62 C 36.01 24.62 35.01 25.62 35.01 26.85 C 35.01 28.09 36.01 29.09 37.24 29.09 C 38.4 29.09 39.35 28.2 39.46 27.06 L 39.46 20.83 L 39.46 19.88 L 39.46 18.19 z M 12.41 18.2 C 11.99 18.2 11.65 18.61 11.65 19.11 C 11.65 19.62 11.99 20.03 12.41 20.03 L 23 20.03 C 23.42 20.03 23.76 19.62 23.76 19.11 C 23.76 18.61 23.42 18.2 23 18.2 L 12.41 18.2 z M 12.41 21.86 C 11.99 21.86 11.65 22.27 11.65 22.77 C 11.65 23.28 11.99 23.69 12.41 23.69 L 23 23.69 C 23.42 23.69 23.76 23.28 23.76 22.77 C 23.76 22.27 23.42 21.86 23 21.86 L 12.41 21.86 z M 12.41 25.52 C 11.99 25.52 11.65 25.94 11.65 26.44 C 11.65 26.95 11.99 27.36 12.41 27.36 L 23 27.36 C 23.42 27.36 23.76 26.95 23.76 26.44 C 23.76 25.94 23.42 25.52 23 25.52 L 12.41 25.52 z M 12.41 29.19 C 11.99 29.19 11.65 29.6 11.65 30.11 C 11.65 30.62 11.99 31.02 12.41 31.02 L 23 31.02 C 23.42 31.02 23.76 30.62 23.76 30.11 C 23.76 29.6 23.42 29.19 23 29.19 L 12.41 29.19 z"/>
    </g>
  </defs>
  <g id="acyl-visual">
    <use id="visible1" style="fill:url(#acyl-gradient)" xlink:href="#acyl-drawing"/>
  </g>
</svg>
