<svg xmlns="http://www.w3.org/2000/svg" xmlns:xlink="http://www.w3.org/1999/xlink" width="48" height="48">
  <defs id="acyl-settings">
    <linearGradient id="acyl-gradient" x1="0%" x2="0%" y1="0%" y2="100%">
      <stop offset="100%" style="stop-color:#A0A0A0;stop-opacity:1.000000"/>
    </linearGradient>
    <g id="acyl-filter">
  </g>
    <g id="acyl-drawing">
      <path id="path-main" d="M 20.5 3.312 C 19.7 3.331 19.01 3.741 18.59 4.25 C 18.17 4.759 17.94 5.344 17.94 5.969 L 17.91 7 L 14.34 7 C 11.95 7 10 8.946 10 11.34 L 10 41.41 C 10 43.78 11.91 45.74 14.28 45.78 L 14.38 45.78 L 33.6 45.78 C 36 45.78 37.98 43.8 37.98 41.41 L 37.98 11.34 C 37.94 8.946 35.96 7 33.56 7 L 30.16 7 L 30.16 5.875 L 30.16 5.844 C 30.16 4.508 29.06 3.333 27.66 3.344 L 20.5 3.312 z M 20.5 5.312 L 27.63 5.342 C 27.86 5.342 28.12 5.611 28.13 5.902 L 28.13 8 L 28.13 9 L 29.13 9 L 33.53 9 C 34.86 9 35.91 10.02 35.91 11.34 L 35.91 41.41 C 35.91 42.73 34.86 43.78 33.53 43.78 L 14.34 43.78 C 13.01 43.76 12 42.72 12 41.41 L 12 11.34 C 12 10.02 13.02 9 14.34 9 L 18.91 9 L 19.91 9 L 19.91 8 L 19.91 6 L 19.91 5.971 C 19.91 5.86 20.01 5.666 20.09 5.531 C 20.21 5.396 20.31 5.317 20.5 5.314 L 20.5 5.312 z M 25.97 7 L 21.97 7.029 L 21.97 10.97 L 14.94 10.97 C 14.43 10.97 14 11.25 14 11.97 L 14 39.94 C 14 41.4 14.67 42 16.09 42 L 32 42 C 33.33 42 34.06 41.29 34.06 39.97 C 34 30.65 34 21.33 34 11.94 C 34 11.28 33.55 10.97 33.06 10.97 L 26 10.97 L 25.97 7 z M 25.81 14.85 L 24.74 23.79 L 30.35 23.03 L 22.41 37.17 L 23.52 27.66 L 17.65 29.15 L 25.81 14.85 z"/>
    </g>
  </defs>
  <g id="acyl-visual">
    <use id="visible1" style="fill:url(#acyl-gradient)" xlink:href="#acyl-drawing"/>
  </g>
</svg>
