<svg xmlns="http://www.w3.org/2000/svg" xmlns:xlink="http://www.w3.org/1999/xlink" width="48" height="48">
  <defs id="acyl-settings">
    <linearGradient id="acyl-gradient" x1="0%" x2="0%" y1="0%" y2="100%">
      <stop offset="100%" style="stop-color:#A0A0A0;stop-opacity:1.000000"/>
    </linearGradient>
    <g id="acyl-filter">
  </g>
    <g id="acyl-drawing">
      <path d="m 15.5953,2.00005 c -0.9057,0 -1.6341,0.714 -1.6341,1.6005 l 0,32.32655 c 0,0.8864 0.7284,1.5986 1.6341,1.5986 l 1.2438,0 c -2e-4,0.01 0,0.013 0,0.02 l 0,7.485 c 0,0.5462 0.4725,0.9692 1.0046,0.9692 l 12.2957,0 c 0.5285,4e-4 1.001,-0.4226 1.001,-0.9688 l 0,-7.485 c 0,-0.01 0,-0.013 0,-0.02 l 1.2644,0 c 0.9056,0 1.634,-0.7122 1.634,-1.5986 l 0,-32.32655 c 0,-0.8865 -0.7284,-1.6005 -1.634,-1.6005 l -16.8058,0 z m 0.366,1.0384 16.0569,0 c 0.5874,0 1.0757,0.488 1.0757,1.0757 l 0,31.31425 c 0,0.5876 -0.4883,1.0757 -1.0757,1.0757 l -16.0569,0 c -0.5874,0 -1.0757,-0.4881 -1.0757,-1.0757 l 0,-31.31425 c 0,-0.5877 0.4883,-1.0757 1.0757,-1.0757 z m 0,0.9562 c -0.075,0 -0.1195,0.046 -0.1195,0.1195 l 0,31.31425 c 0,0.074 0.045,0.1196 0.1195,0.1196 l 16.0569,0 c 0.075,0 0.1195,-0.046 0.1195,-0.1196 l 0,-31.31425 c 0,-0.074 -0.045,-0.1195 -0.1195,-0.1195 l -16.0569,0 z m 7.3748,6.99565 5.0554,5.3969 -3.7164,3.7724 0,0.028 3.7183,3.8005 -5.0573,5.313 0,-7.7819 -3.3074,3.3559 -0.9542,-0.9412 3.7107,-3.7649 -3.7126,-3.7929 0.9581,-0.9375 3.3054,3.3802 0,-7.8285 z m 1.339,3.3876 0,3.8732 1.8601,-1.8862 -1.8601,-1.987 z m 0,7.724 0,3.8526 1.8582,-1.9534 -1.8582,-1.8992 z m -6.9023,15.4238 12.4301,0 c 0.01,0.01 0.011,0.014 0.011,0.02 l 0,7.485 c 0,0.014 -0.011,0.043 -0.078,0.043 l -12.2957,0 c -0.067,0 -0.078,-0.029 -0.078,-0.043 l 0,-7.485 c 0,-0.01 0.01,-0.013 0.011,-0.02 z m 2.002,1.9086 0,3.4101 3.3709,0 0,-3.4101 -3.3709,0 z m 5.2832,0 0,3.4101 3.3709,0 0,-3.4101 -3.3709,0 z" id="path-main"/>
    </g>
  </defs>
  <g id="acyl-visual">
    <use id="visible1" style="fill:url(#acyl-gradient)" xlink:href="#acyl-drawing"/>
  </g>
</svg>
