<svg xmlns="http://www.w3.org/2000/svg" xmlns:xlink="http://www.w3.org/1999/xlink" width="48" height="48">
  <defs id="acyl-settings">
    <linearGradient id="acyl-gradient" x1="0%" x2="0%" y1="0%" y2="100%">
      <stop offset="100%" style="stop-color:#A0A0A0;stop-opacity:1.000000"/>
    </linearGradient>
    <g id="acyl-filter">
  </g>
    <g id="acyl-drawing">
      <path d="m 19.9949,2.00001 0,0.73424 0,5.83001 -4.721,-0.017 -0.055,14.20884 3.916,0.01 1.5469,-2.7821 c 1.0816,-0.03 5.179,0.076 4.1454,0.046 l 1.1894,9.6885 4.7152,0 1.2906,-9.5069 4.7899,0.082 1.2754,2.4724 3.916,0 c 0,-4.6353 -0.057,-16.52575 -0.057,-14.12474 l -4.6197,-0.015 0,-6.62545 -17.3312,0 z m 1.4685,1.46849 14.3942,0 0,5.15116 -14.3942,-0.052 0,-5.09956 z m -6.245,19.754 0.979,9.7192 1.958,0 0.979,-9.7192 -3.916,0 z m 22.8688,0 0.979,9.7192 1.958,0 0.979,-9.7192 -3.916,0 z m -8.6504,6.7688 -2.3442,0.1778 c 0.3106,4.1017 0,7.3372 -2.6559,9.6714 -2.6528,2.3343 -8.0839,3.9474 -18.40596,3.7994 l -0.0344,2.3499 C 16.5668,46.1415 22.58,44.6035 25.9893,41.6035 c 3.4093,-2.9999 3.7756,-7.2806 3.4475,-11.6122 z" id="path-main"/>
    </g>
  </defs>
  <g id="acyl-visual">
    <use id="visible1" style="fill:url(#acyl-gradient)" xlink:href="#acyl-drawing"/>
  </g>
</svg>
