<svg xmlns="http://www.w3.org/2000/svg" xmlns:xlink="http://www.w3.org/1999/xlink" width="48" height="48">
  <defs id="acyl-settings">
    <linearGradient id="acyl-gradient" x1="0%" x2="0%" y1="0%" y2="100%">
      <stop offset="100%" style="stop-color:#A0A0A0;stop-opacity:1.000000"/>
    </linearGradient>
    <g id="acyl-filter">
  </g>
    <g id="acyl-drawing">
      <path id="path-main" d="M 46,9.5103878 32.714681,16.640582 32.470914,31.936981 46,39.25 46,9.5103878 z M 5.4736842,10.24169 C 3.5440127,10.24169 2,11.785703 2,13.715374 l 0,21.908587 c 0,1.929671 1.5440128,3.473687 3.4736842,3.473684 l 21.9085868,0 c 1.929672,0 3.473683,-1.544013 3.473685,-3.473684 l 0,-21.908587 c 0,-1.929672 -1.544013,-3.473684 -3.473685,-3.473684 l -21.9085868,0 z m 1.1274238,2.041551 c 1.4216922,0 2.5290859,1.137864 2.5290859,2.559557 3e-7,1.421694 -1.1073936,2.590027 -2.5290859,2.590027 -1.4216924,0 -2.5900277,-1.168335 -2.5900277,-2.590027 0,-1.421691 1.1683354,-2.559557 2.5900277,-2.559557 z"/>
    </g>
  </defs>
  <g id="acyl-visual">
    <use id="visible1" style="fill:url(#acyl-gradient)" xlink:href="#acyl-drawing"/>
  </g>
</svg>
