<svg xmlns="http://www.w3.org/2000/svg" xmlns:xlink="http://www.w3.org/1999/xlink" width="48" height="48">
  <defs id="acyl-settings">
    <linearGradient id="acyl-gradient" x1="0%" x2="0%" y1="0%" y2="100%">
      <stop offset="100%" style="stop-color:#A0A0A0;stop-opacity:1.000000"/>
    </linearGradient>
    <g id="acyl-filter">
  </g>
    <g id="acyl-drawing">
      <path id="path-main" d="M 24 2.01 C 14.53 2.01 6.744 9.381 6.082 18.68 L 15.07 18.68 C 15.69 14.32 19.46 10.95 24 10.95 C 28.54 10.95 32.31 14.32 32.93 18.68 L 41.92 18.68 C 41.26 9.381 33.47 2.01 24 2.01 z M 24 13.53 C 20.44 13.53 17.56 16.42 17.56 19.97 C 17.56 23.53 20.44 26.42 24 26.42 C 27.56 26.42 30.44 23.53 30.44 19.97 C 30.44 16.42 27.56 13.53 24 13.53 z M 24 16.11 C 26.13 16.11 27.87 17.84 27.87 19.97 C 27.87 22.11 26.13 23.85 24 23.85 C 21.87 23.85 20.13 22.11 20.13 19.97 C 20.13 17.84 21.87 16.11 24 16.11 z M 24 18.68 C 23.29 18.68 22.71 19.27 22.71 19.97 C 22.71 20.69 23.29 21.27 24 21.27 C 24.71 21.27 25.29 20.69 25.29 19.97 C 25.29 19.27 24.71 18.68 24 18.68 z M 6.082 21.26 C 6.744 30.57 14.53 37.94 24 37.94 C 33.47 37.94 41.26 30.57 41.92 21.26 L 32.93 21.26 C 32.31 25.63 28.54 29 24 29 C 19.46 29 15.69 25.63 15.07 21.26 L 6.082 21.26 z M 12.85 37.22 L 10.7 45.99 L 37.31 45.99 L 35.16 37.22 C 31.94 39.31 28.11 40.52 24 40.52 C 19.89 40.52 16.06 39.31 12.85 37.22 z"/>
    </g>
  </defs>
  <g id="acyl-visual">
    <use id="visible1" style="fill:url(#acyl-gradient)" xlink:href="#acyl-drawing"/>
  </g>
</svg>
