<svg xmlns="http://www.w3.org/2000/svg" xmlns:xlink="http://www.w3.org/1999/xlink" width="48" height="48">
  <defs id="acyl-settings">
    <linearGradient id="acyl-gradient" x1="0%" x2="0%" y1="0%" y2="100%">
      <stop offset="100%" style="stop-color:#A0A0A0;stop-opacity:1.000000"/>
    </linearGradient>
    <g id="acyl-filter">
  </g>
    <g id="acyl-drawing">
      <path d="M 10.42 1.994 C 9.354 1.994 8.394 2.776 8.289 3.729 L 4.809 16.4 C 4.809 16.4 4.789 16.5 4.789 16.51 L 4.789 20 C 4.789 20.9 5.147 21.72 5.715 22.33 L 4.809 27.59 C 4.809 27.59 4.787 27.59 4.787 27.77 L 4.787 31.26 C 4.787 32.15 5.145 32.97 5.713 33.61 L 4.807 38.85 C 4.807 38.85 4.787 38.85 4.787 39.03 L 4.787 42.52 C 4.787 44.44 6.353 46 8.275 46 L 39.69 46 C 41.61 46 43.17 44.44 43.17 42.52 L 43.17 39.03 L 43.17 38.85 L 42.26 33.61 C 42.84 32.97 43.19 32.15 43.19 31.26 L 43.19 27.77 L 43.19 27.59 L 42.28 22.33 C 42.86 21.72 43.21 20.9 43.21 20 L 43.17 16.5 L 43.17 16.39 L 39.67 3.729 C 39.56 2.776 38.61 1.994 37.54 1.994 L 10.42 1.994 z M 8.277 14.76 L 39.69 14.76 C 40.64 14.76 41.42 15.54 41.42 16.5 L 41.42 19.99 C 41.42 20.95 40.64 21.73 39.69 21.73 L 8.277 21.73 C 7.319 21.73 6.533 20.95 6.533 19.99 L 6.533 16.5 C 6.533 15.54 7.319 14.76 8.277 14.76 z M 10.3 17 A 1.254 1.254 0 0 0 9.047 18.25 A 1.254 1.254 0 0 0 10.3 19.5 A 1.254 1.254 0 0 0 11.55 18.25 A 1.254 1.254 0 0 0 10.3 17 z M 8.277 25.95 L 39.69 25.95 C 40.64 25.95 41.42 26.73 41.42 27.68 L 41.42 31.19 C 41.42 32.14 40.64 32.92 39.69 32.92 L 8.277 32.92 C 7.319 32.92 6.533 32.14 6.533 31.19 L 6.533 27.68 C 6.533 26.73 7.319 25.95 8.277 25.95 z M 10.3 28.18 A 1.254 1.254 0 0 0 9.047 29.43 A 1.254 1.254 0 0 0 10.3 30.68 A 1.254 1.254 0 0 0 11.55 29.43 A 1.254 1.254 0 0 0 10.3 28.18 z M 8.277 37.13 L 39.69 37.13 C 40.64 37.13 41.42 37.91 41.42 38.86 L 41.42 42.37 C 41.42 43.32 40.64 44.1 39.69 44.1 L 8.277 44.1 C 7.319 44.1 6.533 43.32 6.533 42.37 L 6.533 38.86 C 6.533 37.91 7.319 37.13 8.277 37.13 z M 10.3 39.37 A 1.254 1.254 0 0 0 9.047 40.62 A 1.254 1.254 0 0 0 10.3 41.87 A 1.254 1.254 0 0 0 11.55 40.62 A 1.254 1.254 0 0 0 10.3 39.37 z" id="path-main"/>
    </g>
  </defs>
  <g id="acyl-visual">
    <use id="visible1" style="fill:url(#acyl-gradient)" xlink:href="#acyl-drawing"/>
  </g>
</svg>
