<svg xmlns="http://www.w3.org/2000/svg" xmlns:xlink="http://www.w3.org/1999/xlink" width="48" height="48">
  <defs id="acyl-settings">
    <linearGradient id="acyl-gradient" x1="0%" x2="0%" y1="0%" y2="100%">
      <stop offset="100%" style="stop-color:#A0A0A0;stop-opacity:1.000000"/>
    </linearGradient>
    <g id="acyl-filter">
  </g>
    <g id="acyl-drawing">
      <path id="path-main" d="M 13.82 2.842 C 8.33 2.842 3.842 7.33 3.842 12.82 L 3.842 35.18 C 3.842 40.67 8.33 45.16 13.82 45.16 L 34.18 45.16 C 39.67 45.16 44.16 40.67 44.16 35.18 L 44.16 12.82 C 44.16 7.33 39.67 2.842 34.18 2.842 L 13.82 2.842 z M 13.82 7.158 L 34.18 7.158 C 37.35 7.158 39.84 9.648 39.84 12.82 L 39.84 35.18 C 39.84 38.35 37.35 40.84 34.18 40.84 L 13.82 40.84 C 10.65 40.84 8.158 38.35 8.158 35.18 L 8.158 12.82 C 8.158 9.648 10.65 7.158 13.82 7.158 z M 14.11 10.78 C 13.31 10.78 12.67 11.43 12.67 12.22 L 12.67 14.15 C 12.67 14.94 13.31 15.6 14.11 15.6 L 17 15.6 C 17.79 15.6 18.45 14.94 18.45 14.15 L 18.45 12.22 C 18.45 11.43 17.79 10.78 17 10.78 L 14.11 10.78 z M 22.55 10.78 C 21.76 10.78 21.1 11.43 21.1 12.22 L 21.1 14.15 C 21.1 14.94 21.76 15.6 22.55 15.6 L 25.44 15.6 C 26.24 15.6 26.89 14.94 26.89 14.15 L 26.89 12.22 C 26.89 11.43 26.24 10.78 25.44 10.78 L 22.55 10.78 z M 31 10.78 C 30.2 10.78 29.55 11.43 29.55 12.22 L 29.55 14.15 C 29.55 14.94 30.2 15.6 31 15.6 L 33.89 15.6 C 34.68 15.6 35.33 14.94 35.33 14.15 L 35.33 12.22 C 35.33 11.43 34.68 10.78 33.89 10.78 L 31 10.78 z M 14.11 18 C 13.31 18 12.67 18.66 12.67 19.45 L 12.67 21.38 C 12.67 22.17 13.31 22.82 14.11 22.82 L 17 22.82 C 17.79 22.82 18.45 22.17 18.45 21.38 L 18.45 19.45 C 18.45 18.66 17.79 18 17 18 L 14.11 18 z M 22.55 18 C 21.76 18 21.1 18.66 21.1 19.45 L 21.1 21.38 C 21.1 22.17 21.76 22.82 22.55 22.82 L 25.44 22.82 C 26.24 22.82 26.89 22.17 26.89 21.38 L 26.89 19.45 C 26.89 18.66 26.24 18 25.44 18 L 22.55 18 z M 31 18 C 30.2 18 29.55 18.66 29.55 19.45 L 29.55 21.38 C 29.55 22.17 30.2 22.82 31 22.82 L 33.89 22.82 C 34.68 22.82 35.33 22.17 35.33 21.38 L 35.33 19.45 C 35.33 18.66 34.68 18 33.89 18 L 31 18 z M 14.11 25.17 C 13.31 25.17 12.67 25.82 12.67 26.62 L 12.67 28.55 C 12.67 29.34 13.31 29.99 14.11 29.99 L 17 29.99 C 17.79 29.99 18.45 29.34 18.45 28.55 L 18.45 26.62 C 18.45 25.82 17.79 25.17 17 25.17 L 14.11 25.17 z M 22.55 25.17 C 21.76 25.17 21.1 25.82 21.1 26.62 L 21.1 28.55 C 21.1 29.34 21.76 29.99 22.55 29.99 L 25.44 29.99 C 26.24 29.99 26.89 29.34 26.89 28.55 L 26.89 26.62 C 26.89 25.82 26.24 25.17 25.44 25.17 L 22.55 25.17 z M 31 25.17 C 30.2 25.17 29.55 25.82 29.55 26.62 L 29.55 28.55 C 29.55 29.34 30.2 29.99 31 29.99 L 33.89 29.99 C 34.68 29.99 35.33 29.34 35.33 28.55 L 35.33 26.62 C 35.33 25.82 34.68 25.17 33.89 25.17 L 31 25.17 z M 22.56 32.4 C 21.76 32.4 21.11 33.05 21.11 33.84 L 21.11 35.77 C 21.11 36.57 21.76 37.22 22.56 37.22 L 25.45 37.22 C 26.25 37.22 26.89 36.57 26.89 35.77 L 26.89 33.84 C 26.89 33.05 26.25 32.4 25.45 32.4 L 22.56 32.4 z"/>
    </g>
  </defs>
  <g id="acyl-visual">
    <use id="visible1" style="fill:url(#acyl-gradient)" xlink:href="#acyl-drawing"/>
  </g>
</svg>
