<svg xmlns="http://www.w3.org/2000/svg" xmlns:xlink="http://www.w3.org/1999/xlink" width="48" height="48">
  <defs id="acyl-settings">
    <linearGradient id="acyl-gradient" x1="0%" x2="0%" y1="0%" y2="100%">
      <stop offset="100%" style="stop-color:#A0A0A0;stop-opacity:1.000000"/>
    </linearGradient>
    <g id="acyl-filter">
  </g>
    <g id="acyl-drawing">
      <path d="m 21.99,2 c -4.43,0 -8,3.569 -8,7.993 V 15.99 H 12 c -1.11,0 -2.004,0.89 -2.004,1.99 v 18 c 0,1.11 0.894,2 2.004,2 h 6.39 c 0.1,0 0.12,0 0.18,0 h 4.48 v 3.22 c -0.56,0.25 -1.01,0.71 -1.25,1.28 H 3.035 2.945 c -0.539,0 -0.971,0.51 -0.947,1.06 0.03,0.55 0.5,0.97 1.039,0.94 H 21.8 c 0.38,0.88 1.23,1.5 2.23,1.5 1,0 1.85,-0.62 2.23,-1.5 h 18.73 c 0.35,0 0.67,-0.19 0.85,-0.5 0.19,-0.31 0.19,-0.69 0,-1 -0.18,-0.31 -0.5,-0.51 -0.85,-0.5 H 26.25 C 26.01,41.93 25.56,41.47 25,41.22 V 38 h 4.49 c 0.1,0 0.12,0 0.17,0 h 6.32 c 1.11,0 2,-0.89 2,-2 V 18 c 0,-1.1 -0.89,-1.99 -2,-1.99 H 33.99 V 9.993 C 33.99,5.569 30.42,2 25.99,2 Z m 0,3.991 h 4 c 2.21,0 4,1.78 4,4.002 v 5.997 h -12 V 9.993 c 0,-2.222 1.79,-4.002 4,-4.002 z" id="path-main"/>
    </g>
  </defs>
  <g id="acyl-visual">
    <use id="visible1" style="fill:url(#acyl-gradient)" xlink:href="#acyl-drawing"/>
  </g>
</svg>
