<svg xmlns="http://www.w3.org/2000/svg" xmlns:xlink="http://www.w3.org/1999/xlink" width="48" height="48">
  <defs id="acyl-settings">
    <linearGradient id="acyl-gradient" x1="0%" x2="0%" y1="0%" y2="100%">
      <stop offset="100%" style="stop-color:#A0A0A0;stop-opacity:1.000000"/>
    </linearGradient>
    <g id="acyl-filter">
  </g>
    <g id="acyl-drawing">
      <path d="M 11.3,2.079 V 26.08 H 36.7 V 13.8 L 26.62,2.079 Z M 4.461,28.08 v 10 H 23.06 v 3.06 c -0.56,0.25 -1.01,0.71 -1.25,1.28 H 3.047 2.948 c -0.538,0 -0.966,0.51 -0.946,1.06 0,0.55 0.498,0.97 1.045,0.94 H 21.81 c 0.38,0.88 1.23,1.5 2.23,1.5 0.99,0 1.84,-0.62 2.22,-1.5 h 18.75 c 0.35,0 0.67,-0.19 0.85,-0.5 0.18,-0.31 0.18,-0.69 0,-1 -0.18,-0.31 -0.5,-0.51 -0.85,-0.5 H 26.26 c -0.24,-0.57 -0.69,-1.03 -1.25,-1.28 v -3.06 h 18.52 v -10 z M 36.05,33.3 h 4.58 v 2.19 h -4.58 z" id="path-main"/>
    </g>
  </defs>
  <g id="acyl-visual">
    <use id="visible1" style="fill:url(#acyl-gradient)" xlink:href="#acyl-drawing"/>
  </g>
</svg>
