<svg xmlns="http://www.w3.org/2000/svg" xmlns:xlink="http://www.w3.org/1999/xlink" width="48" height="48">
  <defs id="acyl-settings">
    <linearGradient id="acyl-gradient" x1="0%" x2="0%" y1="0%" y2="100%">
      <stop offset="100%" style="stop-color:#A0A0A0;stop-opacity:1.000000"/>
    </linearGradient>
    <g id="acyl-filter">
  </g>
    <g id="acyl-drawing">
      <path id="path-main" d="m 14.32,3.84 c -1.72,0 -3.27,0.948 -4.07,2.474 L 5.566,15.35 c -0.15,0.29 -0.135,0.63 0.04,0.91 0.164,0.27 0.458,0.43 0.723,0.42 0.07,0 35.413,0 35.413,0 0.36,0 0.84,-0.4 0.84,-0.91 0,-0.24 -0.13,-0.4 -0.25,-0.62 L 37.75,6.312 C 36.96,4.786 35.4,3.84 33.68,3.84 Z M 6.592,18.5 c -2.525,0 -4.582,2.05 -4.582,4.58 v 16.49 c 0,2.53 2.057,4.59 4.582,4.59 H 41.41 c 2.53,0 4.58,-2.06 4.58,-4.59 V 23.08 c 0,-2.53 -2.05,-4.58 -4.58,-4.58 z m 8.238,3.67 c 5.05,0 9.17,4.11 9.17,9.16 0,5.05 -4.12,9.16 -9.17,9.16 -5.045,0 -9.154,-4.11 -9.154,-9.16 0,-5.05 4.109,-9.16 9.154,-9.16 z m 17.42,0 h 5.49 c 1.52,0 2.75,1.23 2.75,2.75 v 3.66 c 0,0.5 -0.41,0.92 -0.92,0.92 h -9.15 c -0.51,0 -0.92,-0.42 -0.92,-0.92 v -3.66 c 0,-1.52 1.23,-2.75 2.75,-2.75 z M 31.8,24.5 v 3 h 1.5 v -3 z m 4.9,0 v 3 h 1.5 v -3 z m -20.91,0.3 -4.73,7.76 h 3.5 l -0.62,5.43 4.85,-7.66 h -3.53 z m 16.46,6.53 h 5.49 c 1.52,0 2.75,1.23 2.75,2.74 v 3.67 c 0,0.51 -0.41,0.92 -0.92,0.92 h -9.15 c -0.51,0 -0.92,-0.41 -0.92,-0.92 v -3.67 c 0,-1.51 1.23,-2.74 2.75,-2.74 z M 32,33.6 v 3 h 1.5 v -3 z m 4.9,0.1 v 3 h 1.5 v -3 z"/>
    </g>
  </defs>
  <g id="acyl-visual">
    <use id="visible1" style="fill:url(#acyl-gradient)" xlink:href="#acyl-drawing"/>
  </g>
</svg>
