<?xml version="1.0" encoding="UTF-8" standalone="no"?>
<!-- Created with Inkscape (http://www.inkscape.org/) -->

<svg
   xmlns:dc="http://purl.org/dc/elements/1.1/"
   xmlns:cc="http://creativecommons.org/ns#"
   xmlns:rdf="http://www.w3.org/1999/02/22-rdf-syntax-ns#"
   xmlns:svg="http://www.w3.org/2000/svg"
   xmlns="http://www.w3.org/2000/svg"
   xmlns:sodipodi="http://sodipodi.sourceforge.net/DTD/sodipodi-0.dtd"
   xmlns:inkscape="http://www.inkscape.org/namespaces/inkscape"
   width="1920"
   height="1080"
   viewBox="0 0 507.99999 285.75001"
   version="1.1"
   id="svg8"
   sodipodi:docname="Crow.svg"
   inkscape:version="0.92.4 5da689c313, 2019-01-14"
   inkscape:export-filename="/home/gauge/Wallpapers/Crow.png"
   inkscape:export-xdpi="96"
   inkscape:export-ydpi="96">
  <defs
     id="defs2" />
  <sodipodi:namedview
     id="base"
     pagecolor="#161720"
     bordercolor="#666666"
     borderopacity="1.0"
     inkscape:pageopacity="1"
     inkscape:pageshadow="2"
     inkscape:zoom="44.8"
     inkscape:cx="954.3437"
     inkscape:cy="617.6793"
     inkscape:document-units="px"
     inkscape:current-layer="layer2"
     showgrid="false"
     units="px"
     inkscape:window-width="1920"
     inkscape:window-height="1058"
     inkscape:window-x="1440"
     inkscape:window-y="0"
     inkscape:window-maximized="1"
     showguides="true"
     inkscape:guide-bbox="true">
    <sodipodi:guide
       position="254,142.875"
       orientation="1,0"
       inkscape:locked="false"
       id="guide840"
       inkscape:label=""
       inkscape:color="rgb(0,0,255)" />
    <sodipodi:guide
       position="253.99999,142.875"
       orientation="0,1"
       id="guide872"
       inkscape:locked="false" />
  </sodipodi:namedview>
  <metadata
     id="metadata5">
    <rdf:RDF>
      <cc:Work
         rdf:about="">
        <dc:format>image/svg+xml</dc:format>
        <dc:type
           rdf:resource="http://purl.org/dc/dcmitype/StillImage" />
        <dc:title />
        <dc:title />
      </cc:Work>
    </rdf:RDF>
  </metadata>
  <g
     inkscape:groupmode="layer"
     id="layer2"
     inkscape:label="Image">
    <g
       id="g876"
       transform="translate(0,-3.9062501e-6)">
      <path
         sodipodi:nodetypes="cccccccccccccccccccccccccscccccccccccccccccccc"
         inkscape:connector-curvature="0"
         id="path836"
         d="m 254.00001,113.35428 c -5.44057,0 -4.48482,3.18035 -7.97825,5.65613 -7.78282,-0.78853 -13.74625,-3.7337 -21.0649,-4.75428 -10.38185,2.03666 -17.01215,0.33096 -22.69414,-2.32072 0.21386,0.99694 1.30681,1.89047 2.54111,2.76739 -7.2958,-0.60448 -11.38973,-3.63266 -16.60383,-5.98994 1.11405,2.91126 5.16424,4.89401 11.87067,6.83256 -7.32154,0.0771 -13.03385,-2.79567 -18.95476,-5.28609 2.92846,2.85366 5.15942,5.96789 13.41017,6.83323 -4.97667,0.78392 -9.70057,-0.51724 -14.44172,-1.67607 1.96773,3.66047 8.17093,3.94733 13.53911,4.8993 -4.79144,1.04725 -9.54605,2.49054 -14.57067,1.03143 4.32986,4.1988 11.80661,1.93443 18.1811,1.93393 -4.04805,2.62204 -8.78148,3.73421 -13.85756,4.42136 5.57329,2.19027 11.2797,0.30751 17.22507,-2.29079 -2.54492,1.77975 -6.07391,3.90695 -8.49303,4.63821 2.20515,2.04824 8.53035,-1.05563 12.58081,-3.3411 -1.7665,2.23044 -4.7451,3.80638 -7.7447,5.51869 2.36748,1.21294 6.93827,0.21921 8.81435,-0.21684 -0.44788,0.81721 -0.89323,3.60175 0.25615,4.64041 0.65921,0.59571 2.66269,-0.12248 2.66269,-0.12248 -0.13951,1.16236 -0.15468,2.26622 1.14323,2.75223 1.41619,0.6181 2.93629,0.40499 4.43359,0.37429 -0.46258,1.24709 -0.0691,2.91935 0.94882,3.66591 0.95927,0.70357 3.56423,-0.18483 3.56423,-0.18483 0,0 2.09839,1.95481 3.43333,2.12068 0.66397,0.0825 1.91393,-0.60481 1.91393,-0.60481 0.38752,0.9051 1.49824,2.25311 2.69747,2.45951 0.8553,0.14721 1.75072,-0.29611 2.39972,-1.01001 0.55968,0.82587 1.18829,2.03262 2.21694,2.3581 0.87057,0.27547 1.86279,-0.24515 2.68294,-0.5531 0,0 0.71346,0.71218 1.1614,0.9204 0.72787,0.33833 2.35997,0.4786 2.35997,0.4786 -4.77152,3.82962 -8.77269,3.80407 -10.80079,7.74186 l -2.5e-4,4e-5 c -0.35322,0.68584 -0.51252,1.73306 -0.005,2.3143 0.8775,1.00546 2.54145,0.49184 3.96821,0.53304 -0.61639,1.16809 -1.77539,2.56469 -1.20172,3.74277 0.64721,1.32909 2.77934,1.38117 4.1604,1.53706 -0.18445,1.65679 -0.13294,4.10264 0.66142,4.89691 1.01415,1.01403 4.91603,0.85117 4.91603,0.85117 0.82809,1.44042 1.78398,3.4915 3.45521,4.18257 0.83189,0.34399 2.68819,-0.25917 2.68819,-0.25917 0,0 2.00091,1.37231 3.16092,1.54442 0.6496,0.0964 1.94499,-0.31367 1.94499,-0.31367 0,0 1.86386,0.87855 3.41914,0.96028"
         style="fill:#1d1e29;fill-opacity:1;stroke:none;stroke-width:0.26458335px;stroke-linecap:butt;stroke-linejoin:miter;stroke-opacity:1" />
      <path
         sodipodi:nodetypes="cccccccccccccccccccccccccscccccccccccccccccccc"
         inkscape:connector-curvature="0"
         id="path836-6"
         d="m 254,113.35427 c 5.44057,0 4.48482,3.18035 7.97825,5.65613 7.78282,-0.78853 13.74625,-3.7337 21.0649,-4.75428 10.38185,2.03666 17.01215,0.33096 22.69414,-2.32072 -0.21386,0.99694 -1.30681,1.89047 -2.54111,2.76739 7.2958,-0.60448 11.38973,-3.63266 16.60383,-5.98994 -1.11405,2.91126 -5.16424,4.89401 -11.87067,6.83256 7.32154,0.0771 13.03385,-2.79567 18.95476,-5.28609 -2.92846,2.85366 -5.15942,5.96789 -13.41017,6.83323 4.97667,0.78392 9.70057,-0.51724 14.44172,-1.67607 -1.96773,3.66047 -8.17093,3.94733 -13.53911,4.8993 4.79144,1.04725 9.54605,2.49054 14.57067,1.03143 -4.32986,4.1988 -11.80661,1.93443 -18.1811,1.93393 4.04805,2.62204 8.78148,3.73421 13.85756,4.42136 -5.57329,2.19027 -11.2797,0.30751 -17.22507,-2.29079 2.54492,1.77975 6.07391,3.90695 8.49303,4.63821 -2.20515,2.04824 -8.53035,-1.05563 -12.58081,-3.3411 1.7665,2.23044 4.7451,3.80638 7.7447,5.51869 -2.36748,1.21294 -6.93827,0.21921 -8.81435,-0.21684 0.44788,0.81721 0.89323,3.60175 -0.25615,4.64041 -0.65921,0.59571 -2.66269,-0.12248 -2.66269,-0.12248 0.13951,1.16236 0.15468,2.26622 -1.14323,2.75223 -1.41619,0.6181 -2.93629,0.40499 -4.43359,0.37429 0.46258,1.24709 0.0691,2.91935 -0.94882,3.66591 -0.95927,0.70357 -3.56423,-0.18483 -3.56423,-0.18483 0,0 -2.09839,1.95481 -3.43333,2.12068 -0.66397,0.0825 -1.91393,-0.60481 -1.91393,-0.60481 -0.38752,0.9051 -1.49824,2.25311 -2.69747,2.45951 -0.8553,0.14721 -1.75072,-0.29611 -2.39972,-1.01001 -0.55968,0.82587 -1.18829,2.03262 -2.21694,2.3581 -0.87057,0.27547 -1.86279,-0.24515 -2.68294,-0.5531 0,0 -0.71346,0.71218 -1.1614,0.9204 -0.72787,0.33833 -2.35997,0.4786 -2.35997,0.4786 4.77152,3.82962 8.77269,3.80407 10.80079,7.74186 l 2.5e-4,4e-5 c 0.35322,0.68584 0.51252,1.73306 0.005,2.3143 -0.87749,1.00546 -2.54145,0.49184 -3.96821,0.53304 0.6164,1.16809 1.77539,2.56469 1.20172,3.74277 -0.64721,1.32909 -2.77933,1.38117 -4.1604,1.53706 0.18446,1.65679 0.13294,4.10264 -0.66141,4.89691 -1.01416,1.01403 -4.91603,0.85117 -4.91603,0.85117 -0.82809,1.44042 -1.78398,3.4915 -3.45521,4.18257 -0.8319,0.34399 -2.68819,-0.25917 -2.68819,-0.25917 0,0 -2.00092,1.37231 -3.16093,1.54442 -0.6496,0.0964 -1.94499,-0.31367 -1.94499,-0.31367 0,0 -1.86386,0.87855 -3.41913,0.96028"
         style="fill:#1d1e29;fill-opacity:1;stroke:none;stroke-width:0.26458335px;stroke-linecap:butt;stroke-linejoin:miter;stroke-opacity:1" />
    </g>
    <path
       style="fill:#1d1e29;fill-opacity:1;stroke:none;stroke-width:0.26458335px;stroke-linecap:butt;stroke-linejoin:miter;stroke-opacity:1"
       d="m 256.22546,113.90018 c -0.27354,-0.0222 -0.56506,-0.0338 -0.87621,-0.0338"
       id="path838" />
    <path
       style="fill:#202130;fill-opacity:1;stroke:none;stroke-width:0.26458335px;stroke-linecap:butt;stroke-linejoin:miter;stroke-opacity:1"
       d="m 253.55573,120.15543 c 0.30277,-0.0906 0.58435,-0.066 0.88854,3e-5 0,0.81106 -0.0456,3.39249 -0.51308,4.78646 -0.31237,-1.66822 -0.37546,-3.29636 -0.37546,-4.78649 z"
       id="path827"
       inkscape:connector-curvature="0"
       sodipodi:nodetypes="cccc" />
  </g>
</svg>
