<svg xmlns="http://www.w3.org/2000/svg" viewBox="0 0 16 16" id="svg6"><defs id="defs3051"><style id="current-color-scheme"/></defs><path d="M8.015 1.657c-.187 0-.25.085-.29.124a.532.532 0 0 0-.077.096 1.41 1.41 0 0 0-.097.177c-.063.13-.132.296-.211.495-.159.399-.351.921-.542 1.446-.19.526-.378 1.054-.527 1.454-.074.2-.14.368-.187.483-.002.006-.005.007-.008.013l-.013.001c-.124.01-.304.02-.518.03-.425.02-.985.037-1.544.056-.559.02-1.115.04-1.543.069a7.931 7.931 0 0 0-.537.05 1.459 1.459 0 0 0-.197.037c-.033.009-.066.018-.116.043-.05.026-.148.06-.205.238-.058.178.001.265.026.315.025.05.048.077.069.104.043.053.084.095.136.144.104.1.241.22.406.356a54.977 54.977 0 0 0 1.21.961c.44.344.885.687 1.219.952.166.132.307.247.401.328l.01.009-.003.014c-.029.121-.075.296-.132.5-.113.412-.27.951-.423 1.489a54.97 54.97 0 0 0-.411 1.489 7.492 7.492 0 0 0-.12.525 1.45 1.45 0 0 0-.026.2.533.533 0 0 0 .007.123c.009.055.013.16.164.27.151.109.25.08.305.07.056-.008.087-.021.12-.033.063-.024.118-.05.182-.084.127-.069.28-.163.462-.278a54.794 54.794 0 0 0 1.287-.853c.463-.314.927-.628 1.282-.864.17-.112.31-.204.414-.268l.002.001c.107.064.258.164.436.282.355.235.818.55 1.282.863a55 55 0 0 0 1.287.854c.182.114.335.208.462.277.064.034.12.06.182.084.032.012.065.025.12.034.055.008.154.038.305-.072.15-.109.155-.214.164-.27a.532.532 0 0 0 .007-.123 1.468 1.468 0 0 0-.026-.2 7.984 7.984 0 0 0-.12-.524 55.126 55.126 0 0 0-.41-1.489c-.154-.537-.311-1.077-.425-1.488a15.32 15.32 0 0 1-.13-.5l-.005-.015.01-.01c.095-.08.235-.195.402-.327.334-.265.778-.608 1.22-.952a54.978 54.978 0 0 0 1.209-.96c.165-.137.302-.256.406-.356.051-.05.093-.092.136-.145.02-.026.043-.053.069-.103.025-.05.084-.137.026-.315-.057-.178-.156-.212-.205-.238-.05-.026-.084-.034-.117-.044a1.459 1.459 0 0 0-.196-.038 7.903 7.903 0 0 0-.538-.049 54.549 54.549 0 0 0-1.542-.068c-.559-.02-1.119-.037-1.544-.056-.214-.01-.394-.02-.518-.03l-.013-.001c-.003-.006-.006-.007-.008-.014a15.215 15.215 0 0 1-.187-.482c-.15-.4-.338-.928-.528-1.454a54.505 54.505 0 0 0-.54-1.447 7.903 7.903 0 0 0-.212-.495 1.478 1.478 0 0 0-.097-.177.532.532 0 0 0-.078-.095c-.037-.037-.098-.111-.258-.12v-.018h-.001zM7.997 2.98c.144.367.312.816.484 1.292.19.523.378 1.053.53 1.46.076.204.142.378.197.51.027.067.053.123.078.173.013.025.024.049.042.076.017.029.022.059.117.127.095.07.125.065.157.073.032.008.058.01.085.014.056.009.116.015.188.021.142.012.327.024.545.034.435.02.996.034 1.552.053.519.018 1.017.04 1.417.065-.31.254-.7.562-1.111.881-.439.342-.883.685-1.224.956-.17.135-.314.253-.423.346a2.745 2.745 0 0 0-.139.128c-.02.02-.039.037-.06.062-.021.026-.05.04-.086.15-.036.112-.02.14-.018.173a.998.998 0 0 0 .01.085c.008.055.022.115.039.184.033.14.08.322.139.531.115.42.272.958.426 1.493.142.498.276.978.376 1.365a56.688 56.688 0 0 1-1.18-.78c-.462-.314-.924-.63-1.287-.87a14.937 14.937 0 0 0-.461-.295 3.245 3.245 0 0 0-.163-.095.953.953 0 0 0-.078-.038c-.026-.01-.058-.025-.133-.03v-.017c-.11 0-.135.02-.165.033-.03.012-.054.025-.079.038-.05.025-.1.057-.162.094-.123.074-.28.175-.46.295-.364.24-.826.557-1.287.87-.43.29-.843.565-1.18.78.099-.387.232-.867.375-1.365.154-.536.31-1.072.426-1.492.058-.21.106-.391.14-.53.016-.07.03-.13.038-.186a.82.82 0 0 0 .01-.084c.003-.033.018-.061-.018-.173-.037-.111-.065-.125-.086-.15-.021-.025-.04-.043-.06-.062a2.745 2.745 0 0 0-.14-.128 13.19 13.19 0 0 0-.423-.347c-.34-.27-.784-.613-1.223-.956a57.718 57.718 0 0 1-1.111-.88 56.635 56.635 0 0 1 1.417-.065c.556-.02 1.117-.035 1.552-.053.217-.01.402-.022.545-.034.072-.006.132-.013.187-.021.028-.004.054-.006.086-.015.032-.008.062-.003.157-.072.095-.07.1-.099.117-.127a2.83 2.83 0 0 0 .12-.25c.055-.132.12-.305.197-.509.152-.408.34-.937.53-1.461.17-.47.336-.912.478-1.278z" id="path22" color="#fff" stroke-width=".57" fill="#eff0f1" opacity=".5"/></svg>
