<svg xmlns="http://www.w3.org/2000/svg" viewBox="0 0 16 16" id="svg6"><defs id="defs3051"><style id="current-color-scheme"/></defs><path d="M7.998 1.664a.387.387 0 0 0-.273.117.532.532 0 0 0-.077.096c-.037.056-.066.11-.097.176-.063.13-.132.296-.211.496-.159.398-.35.922-.541 1.447-.19.526-.379 1.054-.528 1.453-.074.2-.14.368-.187.483-.002.006-.006.008-.008.013l-.013.002c-.124.01-.305.02-.518.03-.426.018-.985.037-1.543.056-.559.02-1.115.04-1.543.069a7.931 7.931 0 0 0-.537.048 1.459 1.459 0 0 0-.197.037c-.033.01-.068.018-.118.043-.05.026-.147.061-.205.239-.057.178.003.266.028.316.024.05.048.077.068.104.043.052.085.095.137.144.104.1.24.219.406.356a54.977 54.977 0 0 0 1.209.96c.441.344.885.687 1.219.952.166.133.308.247.402.328l.01.01-.004.013a13.77 13.77 0 0 1-.13.5c-.115.411-.27.951-.425 1.489a55.386 55.386 0 0 0-.412 1.49 7.453 7.453 0 0 0-.119.525c-.013.07-.022.131-.025.2a.533.533 0 0 0 .005.123c.01.054.014.16.165.269.15.11.25.079.306.07a.48.48 0 0 0 .12-.033c.062-.024.117-.05.181-.084.126-.068.28-.163.46-.277a54.794 54.794 0 0 0 1.29-.854c.463-.313.926-.628 1.281-.863.169-.112.31-.205.414-.27l.002.002.008.006v-.836a.407.407 0 0 0-.146.03c-.031.012-.055.026-.08.039-.05.025-.101.056-.163.093a15 15 0 0 0-.46.295c-.364.24-.825.557-1.286.87-.43.29-.844.565-1.181.78.1-.387.234-.866.377-1.364.153-.536.31-1.073.425-1.493.058-.21.106-.391.139-.53.017-.071.03-.131.04-.186a.82.82 0 0 0 .009-.084c.002-.033.018-.06-.018-.172-.036-.111-.065-.126-.086-.15-.021-.026-.04-.043-.06-.063a2.745 2.745 0 0 0-.139-.13 15.86 15.86 0 0 0-.424-.345c-.34-.27-.785-.612-1.224-.955a57.718 57.718 0 0 1-1.11-.88 56.635 56.635 0 0 1 1.416-.067c.557-.02 1.118-.034 1.553-.053.217-.01.402-.021.545-.033.071-.006.132-.013.188-.022.027-.004.054-.005.085-.013.033-.008.062-.004.157-.072.094-.07.1-.1.117-.127a2.789 2.789 0 0 0 .121-.25c.055-.133.12-.306.195-.51.153-.408.34-.937.53-1.461.17-.47.338-.912.48-1.277V1.664z" id="path850" color="#fff" stroke-width=".57" fill="#eff0f1"/><path d="M7.998 1.664V2.98c.144.366.312.817.484 1.292.19.524.377 1.053.53 1.461.075.204.14.377.195.51.027.066.053.122.078.172a.914.914 0 0 0 .043.076c.017.029.022.058.117.127.095.07.125.064.157.072.032.008.058.01.085.014.056.009.116.016.188.022.142.012.327.025.545.035.435.02.997.033 1.553.053.519.017 1.016.04 1.416.064-.31.254-.701.562-1.112.88-.438.343-.882.687-1.222.958-.17.135-.315.252-.424.346a2.745 2.745 0 0 0-.139.127c-.02.019-.039.036-.06.062-.021.026-.05.039-.086.15-.037.111-.02.14-.018.172.002.034.006.058.01.086.009.055.022.114.039.184.033.14.08.321.139.531.115.42.272.957.425 1.492.143.499.277.979.377 1.365a56.688 56.688 0 0 1-1.181-.779c-.462-.313-.922-.63-1.285-.87a14.937 14.937 0 0 0-.461-.296 3.17 3.17 0 0 0-.164-.094c-.025-.012-.048-.024-.079-.037-.026-.01-.058-.026-.132-.031v-.018c-.012 0-.008.004-.018.004v.836c.106.065.253.16.428.276.355.235.818.55 1.281.863.463.313.927.624 1.29.854.18.113.333.208.46.277.064.034.119.06.182.084a.547.547 0 0 0 .12.033c.055.009.154.04.305-.07.151-.11.155-.215.165-.27a.532.532 0 0 0 .005-.123 1.468 1.468 0 0 0-.025-.201 7.984 7.984 0 0 0-.12-.523 55.561 55.561 0 0 0-.411-1.489c-.154-.537-.31-1.077-.424-1.488-.057-.205-.102-.38-.131-.502l-.004-.014.01-.01c.094-.08.235-.195.402-.328.334-.264.778-.607 1.219-.95a54.978 54.978 0 0 0 1.209-.962 7.84 7.84 0 0 0 .406-.355c.052-.05.095-.092.137-.145.021-.026.043-.053.068-.103.025-.05.085-.137.028-.315-.058-.177-.158-.212-.207-.238a.567.567 0 0 0-.116-.045 1.459 1.459 0 0 0-.197-.037 7.889 7.889 0 0 0-.537-.049 54.549 54.549 0 0 0-1.543-.068c-.558-.02-1.117-.037-1.543-.057a12.465 12.465 0 0 1-.518-.03l-.013-.001c-.003-.006-.006-.007-.008-.014a15.215 15.215 0 0 1-.187-.482c-.15-.4-.338-.928-.528-1.453a54.505 54.505 0 0 0-.54-1.447 7.903 7.903 0 0 0-.212-.495 1.478 1.478 0 0 0-.097-.177.532.532 0 0 0-.079-.096c-.037-.037-.097-.11-.257-.12v-.019c-.012 0-.007.007-.018.008z" id="path22" color="#fff" stroke-width=".57" fill="#eff0f1" opacity=".5"/></svg>
