<svg xmlns="http://www.w3.org/2000/svg" xmlns:xlink="http://www.w3.org/1999/xlink" width="48" height="48">
  <defs id="acyl-settings">
    <linearGradient id="acyl-gradient" x1="0%" x2="0%" y1="0%" y2="100%">
      <stop offset="100%" style="stop-color:#A0A0A0;stop-opacity:1.000000"/>
    </linearGradient>
    <g id="acyl-filter">
  </g>
    <g id="acyl-drawing">
      <path d="M 46,24.000003 C 46,36.144 36.144001,46 24,46 11.856,46 2,36.144 2,24.000003 2,11.856005 11.856,2.0000055 24,2.0000055 c 12.144001,0 22,9.8559995 22,21.9999975 z M 33.274512,24 c 0,5.119529 -4.15498,9.27451 -9.274509,9.27451 -5.119529,0 -9.27451,-4.154981 -9.27451,-9.27451 0,-5.119533 4.154981,-9.274512 9.27451,-9.274512 5.119529,0 9.274509,4.154979 9.274509,9.274512 z m -1.294118,-1e-6 c 0,4.405177 -3.575216,7.980392 -7.980392,7.980392 -4.405177,0 -7.980393,-3.575215 -7.980393,-7.980392 0,-4.405177 3.575216,-7.980392 7.980393,-7.980392 4.405176,0 7.980392,3.575215 7.980392,7.980392 z m -1.941179,0 c 0,3.333647 -2.705568,6.039215 -6.039215,6.039215 -3.333647,0 -6.039216,-2.705568 -6.039216,-6.039215 0,-3.333647 2.705569,-6.039216 6.039216,-6.039216 3.333647,0 6.039215,2.705569 6.039215,6.039216 z" id="path-main"/>
    </g>
  </defs>
  <g id="acyl-visual">
    <use id="visible1" style="fill:url(#acyl-gradient)" xlink:href="#acyl-drawing"/>
  </g>
</svg>
