<svg xmlns="http://www.w3.org/2000/svg" xmlns:xlink="http://www.w3.org/1999/xlink" width="48" height="48">
  <defs id="acyl-settings">
    <linearGradient id="acyl-gradient" x1="0%" x2="0%" y1="0%" y2="100%">
      <stop offset="100%" style="stop-color:#A0A0A0;stop-opacity:1.000000"/>
    </linearGradient>
    <g id="acyl-filter">
  </g>
    <g id="acyl-drawing">
      <path d="m 24.01,2.318 c -0.5,0 -0.9,0.1 -1.4,0.1 -4.1,0.7 -7.3,3.5 -8.7,7.602 -1.8,5.2 0.9,12.7 5.7,15.9 1.6,1.1 2.5,1.4 4.4,1.4 1.9,0 2.8,-0.3 4.4,-1.4 3.7,-2.4 6.2,-7.5 6.3,-12.2 0,-2.8 -0.7,-4.802 -2.3,-7.002 -1.8,-2.6 -5.3,-4.4 -8.4,-4.4 z m 8.3,23.602 -0.7,0.7 c -1.5,1.4 -3.3,2.5 -5.2,2.9 -1.5,0.4 -4.2,0.3 -5.6,-0.2 -1.4,-0.5 -3,-1.4 -4.2,-2.5 -0.5,-0.5 -0.9,-0.9 -1,-0.9 0,0 -1,0.4 -2.1,0.8 -4.195,1.7 -7.895,3.6 -9.295,5.1 -0.6,0.6 -0.8,0.9 -1.3,2.4 -0.3,1 -0.7,2.3 -0.8,2.9 -0.2,0.9 -0.1,1.1 0.1,1.8 1.9,5 16.895,8.1 29.995,6.2 7.2,-1.1 12.6,-3.5 13.6,-6.2 0.3,-0.9 0.3,-1.7 -0.6,-4.3 -0.6,-2.1 -1,-2.6 -2.3,-3.6 -1.3,-1.1 -5.8,-3.3 -8.6,-4.3 z" id="path-main"/>
    </g>
  </defs>
  <g id="acyl-visual">
    <use id="visible1" style="fill:url(#acyl-gradient)" xlink:href="#acyl-drawing"/>
  </g>
</svg>
