<svg xmlns="http://www.w3.org/2000/svg" xmlns:xlink="http://www.w3.org/1999/xlink" width="48" height="48">
  <defs id="acyl-settings">
    <linearGradient id="acyl-gradient" x1="0%" x2="0%" y1="0%" y2="100%">
      <stop offset="100%" style="stop-color:#A0A0A0;stop-opacity:1.000000"/>
    </linearGradient>
    <g id="acyl-filter">
  </g>
    <g id="acyl-drawing">
      <path d="M 3.60931,4.0000202 C 2.717752,4.0000202 2,4.723483 2,5.6221392 L 2,42.377881 C 2,43.276537 2.717752,44 3.60931,44 l 40.78138,0 c 0.111445,0 0.224227,-0.01532 0.329177,-0.03689 C 45.454523,43.812348 46,43.16418 46,42.377861 l 0,-24.884783 c 0,-0.898656 -0.717752,-1.622119 -1.60931,-1.622119 l -34.34414,0 c -0.891557,0 -1.60931,0.723463 -1.60931,1.622119 0,0.898656 0.717753,1.622119 1.60931,1.622119 l 32.73483,0 0,21.640545 -37.56276,0 0,-33.5115039 12.874481,0 0,4.8663569 c 0,0.898656 0.717752,1.622119 1.60931,1.622119 l 21.469659,0 c 0.891558,0 1.60931,-0.723463 1.60931,-1.622119 0,-0.898656 -0.717752,-1.622119 -1.60931,-1.622119 l -19.860349,0 0,-4.866357 C 21.311721,4.7234628 20.593968,4 19.702411,4 L 3.60931,4 z" id="path-main"/>
    </g>
  </defs>
  <g id="acyl-visual">
    <use id="visible1" style="fill:url(#acyl-gradient)" xlink:href="#acyl-drawing"/>
  </g>
</svg>
