<svg xmlns="http://www.w3.org/2000/svg" xmlns:xlink="http://www.w3.org/1999/xlink" width="48" height="48">
  <defs id="acyl-settings">
    <linearGradient id="acyl-gradient" x1="0%" x2="0%" y1="0%" y2="100%">
      <stop offset="100%" style="stop-color:#A0A0A0;stop-opacity:1.000000"/>
    </linearGradient>
    <g id="acyl-filter">
  </g>
    <g id="acyl-drawing">
      <path d="M 3.59375 4 C 2.702192 4 2 4.7263438 2 5.625 L 2 42.375 C 2 43.273656 2.702192 44 3.59375 44 L 44.40625 44 C 44.517695 44 44.6138 43.9903 44.71875 43.96875 C 45.453406 43.817988 46 43.161319 46 42.375 L 46 17.5 C 46 16.601344 45.297808 15.875 44.40625 15.875 L 10.03125 15.875 C 9.139693 15.875 8.4375 16.601344 8.4375 17.5 C 8.4375 18.398656 9.139693 19.125 10.03125 19.125 L 42.78125 19.125 L 42.78125 40.75 L 5.21875 40.75 L 5.21875 7.25 L 18.09375 7.25 L 18.09375 12.125 C 18.09375 13.023656 18.795942 13.71875 19.6875 13.71875 L 41.1875 13.71875 C 42.079058 13.71875 42.78125 13.023656 42.78125 12.125 C 42.78125 11.226344 42.079058 10.5 41.1875 10.5 L 21.3125 10.5 L 21.3125 5.625 C 21.3125 4.7263438 20.579057 4 19.6875 4 L 3.59375 4 z M 19.5 21.5 C 18.701383 21.54748 18.736938 22.477404 18.78125 23.0625 C 18.78365 27.615415 18.770578 32.165839 18.78125 36.71875 C 18.84939 37.377164 19.598936 37.472891 20.125 37.40625 L 30.09375 37.40625 C 30.745526 37.33661 30.903019 36.602146 30.8125 36.0625 L 30.8125 25.9375 C 30.593443 25.223554 29.896519 24.831455 29.4375 24.28125 C 28.606519 23.413834 27.755702 22.562222 26.9375 21.6875 C 26.423998 21.361468 25.793164 21.546675 25.21875 21.5 L 19.5 21.5 z M 20.3125 23.125 L 26.1875 23.125 L 29.25 26.34375 L 29.25 35.8125 L 20.3125 35.8125 L 20.3125 23.125 z " id="path-main"/>
    </g>
  </defs>
  <g id="acyl-visual">
    <use id="visible1" style="fill:url(#acyl-gradient)" xlink:href="#acyl-drawing"/>
  </g>
</svg>
