<svg xmlns="http://www.w3.org/2000/svg" xmlns:xlink="http://www.w3.org/1999/xlink" width="48" height="48">
  <defs id="acyl-settings">
    <linearGradient id="acyl-gradient" x1="0%" x2="0%" y1="0%" y2="100%">
      <stop offset="100%" style="stop-color:#A0A0A0;stop-opacity:1.000000"/>
    </linearGradient>
    <g id="acyl-filter">
  </g>
    <g id="acyl-drawing">
      <path d="M 3.60938 4 C 2.71782 4 2 4.72439 2 5.62305 L 2 42.377 C 2 43.2756 2.71782 44 3.60938 44 L 44.3906 44 C 44.5021 44 44.6158 43.9845 44.7207 43.9629 C 45.4554 43.8121 46 43.1633 46 42.377 L 46 17.4922 C 46 16.5935 45.2822 15.8711 44.3906 15.8711 L 10.0469 15.8711 C 9.15532 15.8711 8.4375 16.5935 8.4375 17.4922 C 8.4375 18.3908 9.15532 19.1152 10.0469 19.1152 L 42.7812 19.1152 L 42.7812 40.7559 L 5.21875 40.7559 L 5.21875 7.24414 L 18.0938 7.24414 L 18.0938 12.1113 C 18.0938 13.01 18.8116 13.7324 19.7031 13.7324 L 41.1719 13.7324 C 42.0634 13.7324 42.7813 13.01 42.7812 12.1113 C 42.7812 11.2127 42.0634 10.4883 41.1719 10.4883 L 21.3125 10.4883 L 21.3125 5.62305 C 21.3125 4.72439 20.5947 4 19.7031 4 L 3.60938 4 z M 36 22.6797 L 33.8672 23.2676 L 33.8516 23.252 L 33.8223 23.2812 L 28.4785 24.7559 L 28.9844 26.5918 L 31.0918 26.0098 L 26.3086 30.793 L 27.9023 32.3867 L 32.6797 27.6094 L 32.1035 29.7148 L 33.9395 30.2168 L 35.3945 24.8945 L 35.4434 24.8457 L 35.416 24.8184 L 36 22.6797 z M 12 22.6953 L 12 22.6973 L 12.5898 24.832 L 12.5742 24.8477 L 12.6016 24.875 L 14.0781 30.2188 L 15.9141 29.7129 L 15.332 27.6055 L 20.1152 32.3887 L 21.707 30.7949 L 16.9297 26.0176 L 19.0352 26.5938 L 19.5371 24.7578 L 14.2148 23.3027 L 14.1641 23.2539 L 14.1387 23.2793 L 12 22.6953 z M 24.0078 31.457 C 23.1773 31.457 22.347 31.7722 21.7188 32.4004 C 20.4624 33.6568 20.4624 35.7221 21.7188 36.9785 C 22.975 38.2349 25.0406 38.2349 26.2969 36.9785 C 27.5533 35.7221 27.5533 33.6568 26.2969 32.4004 C 25.6687 31.7722 24.8384 31.457 24.0078 31.457 z M 24.0078 33.3496 C 24.347 33.3496 24.6869 33.4818 24.9512 33.7461 C 25.4798 34.2747 25.4798 35.1042 24.9512 35.6328 C 24.4226 36.1614 23.595 36.1614 23.0664 35.6328 C 22.5379 35.1042 22.5379 34.2747 23.0664 33.7461 C 23.3307 33.4818 23.6686 33.3496 24.0078 33.3496 z " id="path-main"/>
    </g>
  </defs>
  <g id="acyl-visual">
    <use id="visible1" style="fill:url(#acyl-gradient)" xlink:href="#acyl-drawing"/>
  </g>
</svg>
