<svg xmlns="http://www.w3.org/2000/svg" xmlns:xlink="http://www.w3.org/1999/xlink" width="48" height="48">
  <defs id="acyl-settings">
    <linearGradient id="acyl-gradient" x1="0%" x2="0%" y1="0%" y2="100%">
      <stop offset="100%" style="stop-color:#A0A0A0;stop-opacity:1.000000"/>
    </linearGradient>
    <g id="acyl-filter">
  </g>
    <g id="acyl-drawing">
      <path d="M 3.60938 4 C 2.71782 4 2 4.72439 2 5.62305 L 2 42.377 C 2 43.2756 2.71782 44 3.60938 44 L 44.3906 44 C 44.5021 44 44.6158 43.9845 44.7207 43.9629 C 45.4554 43.8121 46 43.1633 46 42.377 L 46 17.4922 C 46 16.5935 45.2822 15.8711 44.3906 15.8711 L 10.0469 15.8711 C 9.15532 15.8711 8.4375 16.5935 8.4375 17.4922 C 8.4375 18.3908 9.15532 19.1152 10.0469 19.1152 L 42.7812 19.1152 L 42.7812 40.7559 L 5.21875 40.7559 L 5.21875 7.24414 L 18.0938 7.24414 L 18.0938 12.1113 C 18.0938 13.01 18.8116 13.7324 19.7031 13.7324 L 41.1719 13.7324 C 42.0634 13.7324 42.7813 13.01 42.7812 12.1113 C 42.7812 11.2127 42.0634 10.4883 41.1719 10.4883 L 21.3125 10.4883 L 21.3125 5.62305 C 21.3125 4.72439 20.5947 4 19.7031 4 L 3.60938 4 z M 17.8438 21.1992 L 17.8438 23.3066 L 17.8438 25.4121 L 19.9492 25.4121 L 19.9492 23.3066 L 26.1152 23.3066 L 28.0508 25.2402 L 28.0508 36.0938 L 26.1113 36.0938 L 26.1113 38.1992 L 28.0508 38.1992 L 28.2188 38.1992 L 30.1562 38.1992 L 30.1562 37.1465 L 30.1562 24.3691 L 26.9883 21.1992 L 18.8965 21.1992 L 17.8438 21.1992 z M 17.8438 27.5176 L 17.8438 29.623 L 19.9492 29.623 L 19.9492 27.5176 L 17.8438 27.5176 z M 17.8438 31.7285 L 17.8438 33.834 L 19.9492 33.834 L 19.9492 31.7285 L 17.8438 31.7285 z M 17.8438 35.9395 L 17.8438 37.1465 L 17.8438 38.1992 L 18.8965 38.1992 L 19.9492 38.1992 C 19.9493 37.4459 19.9492 36.6927 19.9492 35.9395 L 17.8438 35.9395 z M 21.9004 36.0938 L 21.9004 38.1992 L 24.0059 38.1992 L 24.0059 36.0938 L 21.9004 36.0938 z" id="path-main"/>
    </g>
  </defs>
  <g id="acyl-visual">
    <use id="visible1" style="fill:url(#acyl-gradient)" xlink:href="#acyl-drawing"/>
  </g>
</svg>
