<svg xmlns="http://www.w3.org/2000/svg" xmlns:xlink="http://www.w3.org/1999/xlink" width="48" height="48">
  <defs id="acyl-settings">
    <linearGradient id="acyl-gradient" x1="0%" x2="0%" y1="0%" y2="100%">
      <stop offset="100%" style="stop-color:#A0A0A0;stop-opacity:1.000000"/>
    </linearGradient>
    <g id="acyl-filter">
  </g>
    <g id="acyl-drawing">
      <path d="M 37.3848 2 C 34.8441 2 32.7851 4.06067 32.7852 6.60156 C 32.7852 9.14228 34.8441 11.2012 37.3848 11.2012 C 39.9282 11.2012 41.9824 9.14228 41.9824 6.60156 C 41.9824 4.06067 39.9282 2 37.3848 2 z M 27.6914 5.73828 C 24.8504 5.73828 22.1642 6.40767 19.7832 7.5918 L 23.3145 13.8105 C 24.6502 13.2088 26.1319 12.8711 27.6914 12.8711 C 33.1467 12.8711 37.6434 16.98 38.2578 22.2715 L 45.4043 22.0527 C 45.0887 18.1507 43.5085 14.6062 41.0762 11.8223 C 40.0349 12.5596 38.7608 12.9961 37.3848 12.9961 C 33.8502 12.9961 30.9883 10.134 30.9883 6.60156 C 30.9883 6.41394 30.9975 6.23287 31.0117 6.05078 C 29.9372 5.84506 28.8256 5.73828 27.6914 5.73828 z M 17.3359 9.06445 C 14.1571 11.3475 11.7652 14.6515 10.6367 18.498 C 12.4033 19.6351 13.5762 21.6228 13.5762 23.8809 C 13.5762 26.0588 12.4923 27.979 10.8301 29.1348 C 12.0434 32.7784 14.4081 35.8978 17.4922 38.0625 L 21.0195 31.7871 C 18.6025 29.8397 17.0566 26.8541 17.0566 23.5078 C 17.0566 20.1088 18.6507 17.0828 21.1289 15.1348 L 17.3359 9.06445 z M 7.17969 19.2812 C 4.63906 19.2813 2.57812 21.3421 2.57812 23.8809 C 2.57812 26.421 4.63906 28.4805 7.17969 28.4805 C 9.71907 28.4805 11.7832 26.4209 11.7832 23.8809 C 11.7832 21.3421 9.71907 19.2812 7.17969 19.2812 z M 38.2734 24.6055 C 37.7232 29.9657 33.1954 34.1406 27.6914 34.1406 C 26.168 34.1406 24.7143 33.8217 23.4023 33.2422 L 19.8496 39.457 C 22.218 40.6224 24.8767 41.2773 27.6914 41.2773 C 28.9061 41.2773 30.0982 41.1542 31.2461 40.9199 C 31.491 37.6141 34.253 35.0059 37.625 35.0059 C 38.6953 35.0059 39.7025 35.2676 40.5879 35.7324 C 43.3455 32.8262 45.1272 28.9917 45.4219 24.7441 L 38.2734 24.6055 z M 37.625 36.8008 C 35.0842 36.8008 33.0234 38.859 33.0234 41.4004 C 33.0234 43.9399 35.0842 46 37.625 46 C 40.1658 46 42.2227 43.9399 42.2227 41.4004 C 42.2227 38.859 40.1658 36.8008 37.625 36.8008 z " id="path-main"/>
    </g>
  </defs>
  <g id="acyl-visual">
    <use id="visible1" style="fill:url(#acyl-gradient)" xlink:href="#acyl-drawing"/>
  </g>
</svg>
