<svg xmlns="http://www.w3.org/2000/svg" height="64" width="64">
    <path d="M48.63 3.5H14.086C9.906 3.5 6.5 7.005 6.5 11.308V62.5h43.414c4.18 0 7.586-3.505 7.586-7.808V12.241" fill="#757575" fill-opacity=".05" stroke="#757575" stroke-width="1.2" stroke-linecap="round" stroke-linejoin="round"/>
      <g
     transform="scale(1.5 1.5) translate(11 12)"
     id="g2522">     <path d="M2.75 2.75v11h4.125V4.125H11v2.75h4.125V2.75zm1.375 1.375H5.5V5.5H4.125zm8.25 0h1.375V5.5h-1.375zm-8.25 2.75H5.5v2.75H4.125zM8.25 8.25v8.25L11 19.25V16.5h8.25V8.25zm1.375 1.375h8.25v5.5h-8.25zM4.125 11H5.5v1.375H4.125zm0 0" fill="#7F8080"/>
    </g>
</svg>
