<svg xmlns="http://www.w3.org/2000/svg" height="64" width="64">
    <path d="M48.63 3.5H14.086C9.906 3.5 6.5 7.005 6.5 11.308V62.5h43.414c4.18 0 7.586-3.505 7.586-7.808V12.241" fill="#757575" fill-opacity=".05" stroke="#757575" stroke-width="1.2" stroke-linecap="round" stroke-linejoin="round"/>
      <g
     transform="scale(1.5 1.5) translate(11 12)"
     id="g2522">     <path d="M11 2.75C9.527 8 5.5 11.102 5.5 14c0 2.898 2.46 5.25 5.5 5.25s5.5-2.352 5.5-5.25S12.473 8 11 2.75m3.781 8.57c.606.774.93 1.715.934 2.68 0 2.484-2.11 4.5-4.715 4.5a4.849 4.849 0 0 1-2.8-.887c.402.09.816.137 1.23.137 3.035 0 5.5-2.352 5.5-5.25a5.218 5.218 0 0 0-.149-1.18" fill="#19FEFE"/>
    </g>
</svg>
