<svg xmlns="http://www.w3.org/2000/svg" height="64" width="64">
    <path d="M48.63 3.5H14.086C9.906 3.5 6.5 7.005 6.5 11.308V62.5h43.414c4.18 0 7.586-3.505 7.586-7.808V12.241" fill="#757575" fill-opacity=".05" stroke="#757575" stroke-width="1.2" stroke-linecap="round" stroke-linejoin="round"/>
      <g
     transform="scale(1.5 1.5) translate(11 12)"
     id="g2522">     <g fill="#7F8080">
        <path d="M2.75 2.75v16.5h16.5V2.75zm1.375 4.125h13.75v11c-4.883-.05-8.867-.105-13.75 0zm0 0"/>
        <path d="M11 8.25c-.766 0-1.477.234-1.98.672a2.29 2.29 0 0 0-.77 1.734h1.57c0-.363.125-.597.313-.761.183-.16.453-.27.867-.27s.684.11.867.27c.188.164.313.398.313.761 0 .317-.075.45-.168.567-.41.363-.907.672-1.305.968-.45.297-.887.68-.887 1.215v.344h1.57v-.344c.56-.5 1.391-.937 1.91-1.394.274-.344.45-.813.45-1.356a2.29 2.29 0 0 0-.77-1.734c-.503-.438-1.218-.672-1.98-.672m-1.18 6.875V16.5h1.57v-1.375zm0 0"/>
    </g>
    </g>
</svg>
