<svg xmlns="http://www.w3.org/2000/svg" height="64" width="64">
    <path d="M48.63 3.5H14.086C9.906 3.5 6.5 7.005 6.5 11.308V62.5h43.414c4.18 0 7.586-3.505 7.586-7.808V12.241" fill="#757575" fill-opacity=".05" stroke="#757575" stroke-width="1.2" stroke-linecap="round" stroke-linejoin="round"/>
      <g
     transform="scale(1.5 1.5) translate(11 12)"
     id="g2522">     <path d="M2.75 2.75v16.5h16.5V2.75zm1.375 1.375h13.75v11H4.125zM5.5 5.5v4.125h4.125v-2.75H8.25L7.012 5.5zm-1.375 11H5.5v1.375H4.125zm2.75 0h5.5v1.375h-5.5zm6.875 0h1.375v1.375H13.75zm2.75 0h1.375v1.375H16.5zm0 0" fill="#7F8080"/>
    </g>
</svg>
