<svg xmlns="http://www.w3.org/2000/svg" height="64" width="64">
    <path d="M48.63 3.5H14.086C9.906 3.5 6.5 7.005 6.5 11.308V62.5h43.414c4.18 0 7.586-3.505 7.586-7.808V12.241" fill="#757575" fill-opacity=".05" stroke="#757575" stroke-width="1.2" stroke-linecap="round" stroke-linejoin="round"/>
      <g
     transform="scale(1.5 1.5) translate(11 12)"
     id="g2522">     <path d="M5.5 2.75v4.125h1.375v2.27a2.055 2.055 0 0 0-1.375 1.94c0 .872.55 1.65 1.375 1.942v2.098H5.5v4.125h4.125v-2.488c1.809 1.586 4.285 2.484 6.875 2.488v-1.375c-3.688-.004-6.926-2.04-7.934-4.992a2.063 2.063 0 0 0 1.059-1.797 2.06 2.06 0 0 0-1.098-1.82c.946-3.024 4.223-5.137 7.973-5.141V2.75c-2.586 0-5.066.89-6.875 2.477v-2.48zm1.375 1.375H8.25V5.5H6.875zm0 12.375H8.25v1.375H6.875zm0 0" fill-rule="evenodd" fill="#FEC519"/>
    </g>
</svg>
