<svg xmlns="http://www.w3.org/2000/svg" height="64" width="64">
    <path d="M48.63 3.5H14.086C9.906 3.5 6.5 7.005 6.5 11.308V62.5h43.414c4.18 0 7.586-3.505 7.586-7.808V12.241" fill="#757575" fill-opacity=".05" stroke="#757575" stroke-width="1.2" stroke-linecap="round" stroke-linejoin="round"/>
      <g
     transform="scale(1.5 1.5) translate(11 12)"
     id="g2522">     <path d="M16.074 3.012l-2.23 2.226H7.016a2.064 2.064 0 0 0-4.008.688 2.066 2.066 0 0 0 1.375 1.941v9.746h4.125v1.375h4.125v-1.375h4.125V8.156l2.23-2.23zm0 1.941l.969.973-.969.972-.972-.972zm-11 .285a.689.689 0 1 1-.002 1.377.689.689 0 0 1 .002-1.377m1.942 1.375h6.828l1.543 1.543v8.082h-2.75v-1.375H8.512v1.375h-2.75v-8.37a2.076 2.076 0 0 0 1.254-1.255m2.87 9.625h1.376v1.375H9.887zm0 0" fill="#198CFE"/>
    </g>
</svg>
