<svg xmlns="http://www.w3.org/2000/svg" height="64" width="64">
    <path d="M48.63 3.5H14.086C9.906 3.5 6.5 7.005 6.5 11.308V62.5h43.414c4.18 0 7.586-3.505 7.586-7.808V12.241" fill="#757575" fill-opacity=".05" stroke="#757575" stroke-width="1.2" stroke-linecap="round" stroke-linejoin="round"/>
      <g
     transform="scale(1.5 1.5) translate(11 12)"
     id="g2522">     <path d="M10.313 4.125a7.564 7.564 0 0 0 0 15.125 7.564 7.564 0 0 0 0-15.125m0 1.375a6.184 6.184 0 0 1 6.187 6.188 6.184 6.184 0 0 1-6.188 6.187 6.184 6.184 0 0 1-6.187-6.188A6.184 6.184 0 0 1 10.313 5.5m-.688 1.375V8.25H11V6.875zm0 2.75V16.5H11V9.625zm0 0" fill="#19FEC5"/>
    </g>
</svg>
