<svg xmlns="http://www.w3.org/2000/svg" height="64" width="64">
    <path d="M48.63 3.5H14.086C9.906 3.5 6.5 7.005 6.5 11.308V62.5h43.414c4.18 0 7.586-3.505 7.586-7.808V12.241" fill="#757575" fill-opacity=".05" stroke="#757575" stroke-width="1.2" stroke-linecap="round" stroke-linejoin="round"/>
      <g
     transform="scale(1.5 1.5) translate(11 12)"
     id="g2522">     <path d="M16.91 6.133l-4.113.676c.062 2.558-2.664 4.336-5.223-.485l-4.84.68c.754 2.605 3.457 2.926 5.262 4.293-.902 1.289-5 .512-4.89 4.523l4.113-.675c-.059-2.56 4.687-4.711 7.246.105l4.836-.676c-.754-2.613-3.625-2.863-5.43-4.242.895-1.867 3.852-.187 3.04-4.203" fill="#FE1919"/>
    </g>
</svg>
