<svg xmlns="http://www.w3.org/2000/svg" height="64" width="64">
    <path d="M48.63 3.5H14.086C9.906 3.5 6.5 7.005 6.5 11.308V62.5h43.414c4.18 0 7.586-3.505 7.586-7.808V12.241" fill="#757575" fill-opacity=".05" stroke="#757575" stroke-width="1.2" stroke-linecap="round" stroke-linejoin="round"/>
      <g
     transform="scale(1.5 1.5) translate(11 12)"
     id="g2522">     <path d="M2.75 2.75v16.5h16.5V2.75zm1.375 1.375h13.75v13.75H4.125zM5.5 5.5v2.75h11V5.5zm0 4.125V11h4.125V9.625zm6.875 0V11H16.5V9.625zM5.5 12.375v1.375h4.125v-1.375zm6.875 0v1.375H16.5v-1.375zM5.5 15.125V16.5h4.125v-1.375zm6.875 0V16.5H16.5v-1.375zm0 0" fill="#7F8080"/>
    </g>
</svg>
