<svg xmlns="http://www.w3.org/2000/svg" height="64" width="64">
    <path d="M48.63 3.5H14.086C9.906 3.5 6.5 7.005 6.5 11.308V62.5h43.414c4.18 0 7.586-3.505 7.586-7.808V12.241" fill="#757575" fill-opacity=".05" stroke="#757575" stroke-width="1.2" stroke-linecap="round" stroke-linejoin="round"/>
      <g
     transform="scale(1.5 1.5) translate(11 12)"
     id="g2522">     <path d="M16.5 5.902L11.402 11l5.098 5.098.488-.485L21.598 11zm0 0" fill="#FE8C19"/>
    <path d="M5.5 2.75v16.5h4.813a.689.689 0 0 0 .687-.688v-11a.689.689 0 0 0-.688-.687H6.876V2.75zm1.375 5.5h2.75v9.625h-2.75zm-4.813-5.5a.689.689 0 0 0-.687.688v3.437H0V8.25h1.375v11H2.75v-11h1.375V6.875H2.75v-2.75h1.375V2.75zm0 0" fill="#7F8080"/>
    </g>
</svg>
