<svg xmlns="http://www.w3.org/2000/svg" height="64" width="64">
    <path d="M48.63 3.5H14.086C9.906 3.5 6.5 7.005 6.5 11.308V62.5h43.414c4.18 0 7.586-3.505 7.586-7.808V12.241" fill="#757575" fill-opacity=".05" stroke="#757575" stroke-width="1.2" stroke-linecap="round" stroke-linejoin="round"/>
      <g
     transform="scale(1.5 1.5) translate(11 12)"
     id="g2522">     <path d="M2.75 2.75v16.5h16.5V2.75zm1.375 1.375h2.629c.078.219.121.453.121.688a2.066 2.066 0 0 1-2.063 2.062c-.234 0-.468-.043-.687-.121zm4.05 0h9.696v13.75H4.121v-1.078l1.824-1.785 1.934-1.93.777.574 1.516 1.469 3.574-3.297 5.5 5.348-1.375-3.426-4.125-4.125-3.574 3.574L7.972 11l-3.85 3.852V8.18a3.438 3.438 0 0 0 4.125-3.367 3.703 3.703 0 0 0-.075-.688" fill="#7F8080"/>
    </g>
</svg>
