<svg xmlns="http://www.w3.org/2000/svg" height="64" width="64">
    <path d="M48.63 3.5H14.086C9.906 3.5 6.5 7.005 6.5 11.308V62.5h43.414c4.18 0 7.586-3.505 7.586-7.808V12.241" fill="#757575" fill-opacity=".05" stroke="#757575" stroke-width="1.2" stroke-linecap="round" stroke-linejoin="round"/>
      <g
     transform="scale(1.5 1.5) translate(11 12)"
     id="g2522">     <path d="M2.75 4.125v13.75h16.5V4.125zM5.07 5.5h11.86L11 11.43zm-.945.945l4.426 4.426-4.426 3.781zm13.75 0v8.207l-4.426-3.78zm-8.379 5.371l1.031 1.032.473.515.473-.515 1.03-1.032 5.372 4.598v.086H4.125v-.086zm0 0" fill="#19C5FE"/>
    </g>
</svg>
