<svg xmlns="http://www.w3.org/2000/svg" height="64" width="64">
    <path d="M48.63 3.5H14.086C9.906 3.5 6.5 7.005 6.5 11.308V62.5h43.414c4.18 0 7.586-3.505 7.586-7.808V12.241" fill="#757575" fill-opacity=".05" stroke="#757575" stroke-width="1.2" stroke-linecap="round" stroke-linejoin="round"/>
      <g
     transform="scale(1.5 1.5) translate(11 12)"
     id="g2522">     <path d="M11 2.75a4.116 4.116 0 0 0-4.125 4.125h2.75V8.25h-2.75V11h2.75v1.375h-2.5A4.103 4.103 0 0 0 11 15.125c1.8 0 3.309-1.148 3.875-2.75h-2.5V11h2.75V8.25h-2.75V6.875h2.75A4.116 4.116 0 0 0 11 2.75m-6.738 9.625a6.852 6.852 0 0 0 5.363 5.352v.148L8.25 19.25h5.5l-1.375-1.375v-.148a6.847 6.847 0 0 0 5.363-5.352h-1.43A5.47 5.47 0 0 1 11 16.5a5.47 5.47 0 0 1-5.309-4.125zm0 0" fill="#FF19C5"/>
    </g>
</svg>
