<svg xmlns="http://www.w3.org/2000/svg" height="64" width="64">
    <path d="M48.63 3.5H14.086C9.906 3.5 6.5 7.005 6.5 11.308V62.5h43.414c4.18 0 7.586-3.505 7.586-7.808V12.241" fill="#757575" fill-opacity=".05" stroke="#757575" stroke-width="1.2" stroke-linecap="round" stroke-linejoin="round"/>
      <g
     transform="scale(1.5 1.5) translate(11 12)"
     id="g2522">     <path d="M11 2.75A8.247 8.247 0 0 0 2.75 11 8.247 8.247 0 0 0 11 19.25 8.247 8.247 0 0 0 19.25 11 8.247 8.247 0 0 0 11 2.75m0 1.375a6.875 6.875 0 1 1 0 13.75 6.875 6.875 0 0 1 0-13.75m0 2.75a4.126 4.126 0 0 0 0 8.25 4.126 4.126 0 0 0 3.297-1.652l-1.102-.825A2.744 2.744 0 0 1 11 13.75a2.749 2.749 0 1 1 0-5.5c.867 0 1.68.406 2.2 1.102l1.097-.825A4.126 4.126 0 0 0 11 6.875" fill="#7F8080"/>
    </g>
</svg>
