<svg xmlns="http://www.w3.org/2000/svg" height="64" width="64">
    <path d="M48.63 3.5H14.086C9.906 3.5 6.5 7.005 6.5 11.308V62.5h43.414c4.18 0 7.586-3.505 7.586-7.808V12.241" fill="#757575" fill-opacity=".05" stroke="#757575" stroke-width="1.2" stroke-linecap="round" stroke-linejoin="round"/>
      <g
     transform="scale(1.5 1.5) translate(11 12)"
     id="g2522">     <path d="M2.75 2.75V5.5c7.594 0 13.75 6.156 13.75 13.75h2.75v-.086a16.4 16.4 0 0 0-.086-1.59c-.004-.027.004-.058 0-.086a16.805 16.805 0 0 0-.258-1.547c-.008-.027.004-.058 0-.086a16.07 16.07 0 0 0-1.636-4.468c-.004-.012.007-.035 0-.043A16.404 16.404 0 0 0 7.645 3.48a14.619 14.619 0 0 0-1.504-.386c-.028-.008-.059.004-.086 0a16.591 16.591 0 0 0-1.547-.262c-.028 0-.059.004-.086 0a17.82 17.82 0 0 0-1.59-.086h-.086m0 5.5v2.75a8.252 8.252 0 0 1 8.25 8.25h2.75c0-6.074-4.926-11-11-11m2.75 5.5a2.749 2.749 0 1 0 0 5.5 2.749 2.749 0 1 0 0-5.5" fill="#FE8C19"/>
    </g>
</svg>
