<svg xmlns="http://www.w3.org/2000/svg" xmlns:xlink="http://www.w3.org/1999/xlink" width="48" height="48">
  <defs id="acyl-settings">
    <linearGradient id="acyl-gradient" x1="0%" x2="0%" y1="0%" y2="100%">
      <stop offset="100%" style="stop-color:#A0A0A0;stop-opacity:1.000000"/>
    </linearGradient>
    <g id="acyl-filter">
  </g>
    <g id="acyl-drawing">
      <path d="m 15.493825,12.269371 c -0.695312,0 -1.290572,0.291496 -1.70853,0.783076 l -5.1255893,6.051042 -4.5560789,0 c -1.2574778,0 -2.2780394,1.020562 -2.2780394,2.27804 -0.014283,2.269089 0.00506,4.589222 0,6.834118 0,1.257478 1.0205619,2.27804 2.2780394,2.27804 l 4.5560789,0 4.9120233,5.623909 c 0.390361,0.694618 1.069094,1.210209 1.922096,1.210209 1.257477,0 2.27804,-1.020562 2.278039,-2.27804 l 0,-20.502354 c 0,-1.257478 -1.020562,-2.27804 -2.278039,-2.27804 z" id="path-main"/>
    </g>
  </defs>
  <g id="acyl-visual">
    <use id="visible1" style="fill:url(#acyl-gradient)" xlink:href="#acyl-drawing"/>
  </g>
</svg>
