<svg xmlns="http://www.w3.org/2000/svg" xmlns:xlink="http://www.w3.org/1999/xlink" width="48" height="48">
  <defs id="acyl-settings">
    <linearGradient id="acyl-gradient" x1="0%" x2="0%" y1="0%" y2="100%">
      <stop offset="100%" style="stop-color:#A0A0A0;stop-opacity:1.000000"/>
    </linearGradient>
    <g id="acyl-filter">
  </g>
    <g id="acyl-drawing">
      <path d="m 37.839674,5.5108696 -1.82337,1.8233696 c 4.558848,4.4641788 7.413043,10.6664608 7.413043,17.5461958 2e-6,6.879735 -2.854194,13.082019 -7.413043,17.546195 L 37.839674,44.25 C 42.866516,39.317325 45.999998,32.474149 46,24.880435 46.000001,17.286719 42.866517,10.443544 37.839674,5.5108696 z M 20.114131,8.0516304 8.4864131,19.709238 2,19.709238 2,30.05163 l 6.4864131,0 11.6277179,11.657608 0,-33.6576076 z m 12.225543,2.9592396 -1.82337,1.823368 c 3.153804,3.058391 5.141304,7.309373 5.141304,12.046197 0,4.736821 -1.9875,8.987805 -5.141304,12.046195 l 1.82337,1.82337 c 3.621576,-3.526956 5.888589,-8.418913 5.888587,-13.869565 -1e-6,-5.450652 -2.267011,-10.342609 -5.888587,-13.869565 z m -5.470109,5.470107 -1.853261,1.853261 c 1.745905,1.651632 2.869565,3.954997 2.869565,6.546197 -1e-6,2.5912 -1.12366,4.894565 -2.869565,6.546195 l 1.853261,1.853261 c 2.216487,-2.120827 3.616848,-5.091897 3.616848,-8.399456 -10e-7,-3.307558 -1.40036,-6.278631 -3.616848,-8.399458 z" id="path-main"/>
    </g>
  </defs>
  <g id="acyl-visual">
    <use id="visible1" style="fill:url(#acyl-gradient)" xlink:href="#acyl-drawing"/>
  </g>
</svg>
