<svg xmlns="http://www.w3.org/2000/svg" xmlns:xlink="http://www.w3.org/1999/xlink" width="48" height="48">
  <defs id="acyl-settings">
    <linearGradient id="acyl-gradient" x1="0%" x2="0%" y1="0%" y2="100%">
      <stop offset="100%" style="stop-color:#A0A0A0;stop-opacity:1.000000"/>
    </linearGradient>
    <g id="acyl-filter">
  </g>
    <g id="acyl-drawing">
      <path d="M 20.51 3.312 C 19.71 3.329 19.02 3.741 18.6 4.25 C 18.18 4.759 17.95 5.344 17.95 5.969 L 17.92 7 L 14.35 7 C 11.96 7 10.01 8.946 10.01 11.34 L 10.01 41.41 C 10.01 43.78 11.92 45.74 14.29 45.78 L 14.39 45.78 L 33.61 45.78 C 36.01 45.78 37.99 43.8 37.99 41.41 L 37.99 11.34 C 37.95 8.946 35.97 7 33.57 7 L 30.17 7 L 30.17 5.875 L 30.17 5.844 C 30.17 4.508 29.07 3.333 27.67 3.344 L 20.51 3.312 z M 20.51 5.312 L 27.64 5.342 C 27.87 5.342 28.13 5.613 28.14 5.904 L 28.14 8 L 28.14 9 L 29.14 9 L 33.54 9 C 34.87 9 35.92 10.02 35.92 11.34 L 35.92 41.41 C 35.92 42.73 34.87 43.78 33.54 43.78 L 14.35 43.78 C 13.02 43.78 12.01 42.72 12.01 41.41 L 12.01 11.34 C 12.01 10.02 13.03 9 14.35 9 L 18.92 9 L 19.92 9 L 19.92 8 L 19.92 6 L 19.92 5.971 C 19.92 5.86 20.02 5.666 20.1 5.531 C 20.22 5.396 20.32 5.317 20.51 5.312 z M 24.01 15.28 C 17.99 15.28 13.1 20.17 13.1 26.19 C 13.1 32.21 17.99 37.09 24.01 37.09 C 30.03 37.09 34.92 32.21 34.92 26.19 C 34.92 20.17 30.03 15.28 24.01 15.28 z M 20.86 19.08 C 21.28 19.08 21.61 19.42 21.61 19.83 L 21.61 23.04 L 26.39 23.04 L 26.39 19.83 C 26.39 19.42 26.72 19.08 27.15 19.08 C 27.55 19.08 27.89 19.42 27.89 19.83 L 27.89 23.04 L 29.6 23.04 L 29.6 26.42 C 29.6 29.8 24.88 30.44 24.88 30.44 L 24.88 34.4 L 23.11 34.4 L 23.11 30.37 C 23.11 30.37 18.4 29.73 18.4 26.35 L 18.4 23.04 L 20.12 23.04 L 20.12 19.83 C 20.12 19.42 20.45 19.08 20.86 19.08 z" id="path-main"/>
    </g>
  </defs>
  <g id="acyl-visual">
    <use id="visible1" style="fill:url(#acyl-gradient)" xlink:href="#acyl-drawing"/>
  </g>
</svg>
