<svg xmlns="http://www.w3.org/2000/svg" xmlns:xlink="http://www.w3.org/1999/xlink" width="48" height="48">
  <defs id="acyl-settings">
    <linearGradient id="acyl-gradient" x1="0%" x2="0%" y1="0%" y2="100%">
      <stop offset="100%" style="stop-color:#A0A0A0;stop-opacity:1.000000"/>
    </linearGradient>
    <g id="acyl-filter">
  </g>
    <g id="acyl-drawing">
      <path d="M 24,2 C 15.0647,2 7.87088,9.1939 7.87088,18.1291 l 0,11.7418 C 7.87088,38.8062 15.0647,46 24,46 32.9352,46 40.1291,38.8062 40.1291,29.8709 l 0,-11.7418 C 40.1291,9.1939 32.9352,2 24,2 Z m -1.8704,3.74887 12.3066,12.13063 -6.7508,5.965 6.8613,5.0217 -12.4478,12.147 0.012,-12.237 -6.2741,5.5434 -1.9378,-2.1936 8.2139,-7.2603 0,-1.4714 -8.2467,-6.0366 1.7291,-2.3615 6.5216,4.772 0.012,-14.01933 z m 2.9222,6.99033 -0.01,9.1716 0.2272,0.1657 4.8804,-4.3136 -5.0973,-5.0237 z m 0.3888,13.0902 0,0 0,0 0,0 z m 0,0 -0.4012,0.3541 -0.01,7.8763 4.9951,-4.8764 -4.5838,-3.354 z" id="path-main"/>
    </g>
  </defs>
  <g id="acyl-visual">
    <use id="visible1" style="fill:url(#acyl-gradient)" xlink:href="#acyl-drawing"/>
  </g>
</svg>
