<svg xmlns="http://www.w3.org/2000/svg" xmlns:xlink="http://www.w3.org/1999/xlink" width="48" height="48">
  <defs id="acyl-settings">
    <linearGradient id="acyl-gradient" x1="0%" x2="0%" y1="0%" y2="100%">
      <stop offset="100%" style="stop-color:#A0A0A0;stop-opacity:1.000000"/>
    </linearGradient>
    <g id="acyl-filter">
  </g>
    <g id="acyl-drawing">
      <path d="m 23.763708,2.0351016 a 1.94272,1.94272 0 0 0 -1.462233,1.6342599 1.3763565,1.3763565 0 0 0 0,0.086014 1.94272,1.94272 0 0 0 -0.08601,0.086014 1.3763565,1.3763565 0 0 0 0,0.1720274 1.3763565,1.3763565 0 0 0 -0.08601,0.4300684 l 0.08601,14.8803667 -4.988793,-5.074807 a 1.94272,1.94272 0 1 0 -2.752438,2.666424 l 6.967108,7.053122 -6.967108,6.967108 a 1.9462676,1.9462676 0 1 0 2.752438,2.752438 l 5.074807,-5.160821 0.08601,14.880367 a 1.3763565,1.3763565 0 0 0 0.08601,0.344055 1.9472175,1.9472175 0 0 0 0,0.08601 1.9472175,1.9472175 0 0 0 3.26852,1.63426 l 9.633532,-10.321642 a 1.94272,1.94272 0 0 0 -0.08601,-2.666424 L 26.8602,23.968588 35.289541,15.36722 a 1.94272,1.94272 0 0 0 0.08601,-2.666424 L 25.569995,2.6371974 A 1.94272,1.94272 0 0 0 23.763708,2.0351016 z m 1.118177,5.4188619 6.365013,6.5370395 -6.278999,6.365012 -0.08601,-12.9020515 z m 0.172028,20.2132145 6.192985,6.192985 -6.106972,6.53704 -0.08601,-12.730025 z" id="path-main"/>
    </g>
  </defs>
  <g id="acyl-visual">
    <use id="visible1" style="fill:url(#acyl-gradient)" xlink:href="#acyl-drawing"/>
  </g>
</svg>
