<svg xmlns="http://www.w3.org/2000/svg" xmlns:xlink="http://www.w3.org/1999/xlink" width="48" height="48">
  <defs id="acyl-settings">
    <linearGradient id="acyl-gradient" x1="0%" x2="0%" y1="0%" y2="100%">
      <stop offset="100%" style="stop-color:#A0A0A0;stop-opacity:1.000000"/>
    </linearGradient>
    <g id="acyl-filter">
  </g>
    <g id="acyl-drawing">
      <path d="M 2.885 4.357 C 2.404 4.357 2 4.687 2 5.143 L 2 35 C 2 35.45 2.404 35.78 2.885 35.78 L 20.86 35.78 L 20.86 40.5 L 16.54 40.5 C 16.32 40.5 16.14 40.67 16.14 40.89 L 16.14 43.25 C 16.14 43.47 16.32 43.64 16.54 43.64 L 31.46 43.64 C 31.68 43.64 31.86 43.47 31.86 43.25 L 31.86 40.89 C 31.86 40.67 31.68 40.5 31.46 40.5 L 27.14 40.5 L 27.14 35.78 L 45.12 35.78 C 45.59 35.78 46 35.45 46 35 L 46 5.143 C 46 4.687 45.59 4.357 45.12 4.357 L 2.885 4.357 z M 18 11.46 C 19.78 11.46 20.99 12.95 20.99 14.45 L 20.99 17.45 C 20.99 19.23 19.78 20.44 18 20.44 C 16.15 20.44 15.01 19.23 15.01 17.45 L 15.01 14.45 C 15.01 12.95 16.15 11.46 18 11.46 z M 29.98 11.46 C 31.78 11.46 32.97 12.95 32.97 14.45 L 32.97 17.45 C 32.97 19.23 31.78 20.44 29.98 20.44 C 28.19 20.44 26.99 19.23 26.99 17.45 L 26.99 14.45 C 26.99 12.95 28.19 11.46 29.98 11.46 z M 23.99 23.43 C 33.87 23.43 38.97 26.15 38.97 27.65 L 38.97 29.14 C 35.98 27.34 26.99 26.44 23.99 26.44 C 20.99 26.44 12.59 26.44 9.031 29.14 L 9.031 27.65 C 9.031 25.84 14.16 23.43 23.99 23.43 z" id="path-main"/>
    </g>
  </defs>
  <g id="acyl-visual">
    <use id="visible1" style="fill:url(#acyl-gradient)" xlink:href="#acyl-drawing"/>
  </g>
</svg>
