<svg xmlns="http://www.w3.org/2000/svg" xmlns:xlink="http://www.w3.org/1999/xlink" width="48" height="48">
  <defs id="acyl-settings">
    <linearGradient id="acyl-gradient" x1="0%" x2="0%" y1="0%" y2="100%">
      <stop offset="100%" style="stop-color:#A0A0A0;stop-opacity:1.000000"/>
    </linearGradient>
    <g id="acyl-filter">
  </g>
    <g id="acyl-drawing">
      <path id="path-main" d="m 18.714653,31.491892 -0.118919,-1.664865 c -0.118919,-3.210811 0.832433,-6.540541 3.686487,-9.87027 2.021621,-2.378379 3.686486,-4.518919 3.686486,-6.65946 0,-2.14054 -1.427027,-3.686486 -4.518919,-3.686486 -2.14054,0 -4.637837,0.713513 -6.302702,1.783783 L 13.006545,4.6162161 c 2.25946,-1.3081081 6.064865,-2.6162163 10.583784,-2.6162163 8.324324,0 12.12973,4.6378379 12.12973,9.7513512 0,4.875676 -3.091892,7.967568 -5.470271,10.702703 -2.259459,2.497297 -3.329729,4.994594 -3.21081,7.848649 l 0,1.189189 -8.324325,0 0,0 z M 22.638978,46 c -3.32973,0 -5.58919,-2.497297 -5.58919,-5.708108 0,-3.448649 2.378379,-5.708108 5.58919,-5.708108 3.448648,0 5.589189,2.378378 5.708108,5.708108 0,3.329729 -2.25946,5.708108 -5.589189,5.708108 l -0.118919,0 z"/>
    </g>
  </defs>
  <g id="acyl-visual">
    <use id="visible1" style="fill:url(#acyl-gradient)" xlink:href="#acyl-drawing"/>
  </g>
</svg>
