<svg xmlns="http://www.w3.org/2000/svg" xmlns:xlink="http://www.w3.org/1999/xlink" width="48" height="48">
  <defs id="acyl-settings">
    <linearGradient id="acyl-gradient" x1="0%" x2="0%" y1="0%" y2="100%">
      <stop offset="100%" style="stop-color:#A0A0A0;stop-opacity:1.000000"/>
    </linearGradient>
    <g id="acyl-filter">
  </g>
    <g id="acyl-drawing">
      <path id="path-main" d="m 24.011321,2 c -7.7,0 -13.2,4.591295 -13.2,12.1 l 0,6.6 -2.2000002,0 c -2.2,0 -3.3,1.1 -3.3,3.3 l 0,18.7 c 0,1.078358 1.1,3.3 3.3,3.3 l 32.3224172,0 c 1.777583,-0.0104 2.877583,-2.221643 2.877583,-3.3 l 0,-18.7 c 0,-2.2 -1.1,-3.3104 -3.3,-3.3104 l -2.2,0.0104 0,-6.6 c 0,-7.7 -5.5,-12.1 -13.2,-12.1 l -1.1,0 z m 0,5.5 1.1,0 c 7.7,0 7.7,6.6 7.7,8.8 l 0,4.4 -16.5,0 0,-4.4 c 0,-2.2 0,-8.8 7.7,-8.8 z"/>
    </g>
  </defs>
  <g id="acyl-visual">
    <use id="visible1" style="fill:url(#acyl-gradient)" xlink:href="#acyl-drawing"/>
  </g>
</svg>
