<svg xmlns="http://www.w3.org/2000/svg" xmlns:xlink="http://www.w3.org/1999/xlink" width="48" height="48">
  <defs id="acyl-settings">
    <linearGradient id="acyl-gradient" x1="0%" x2="0%" y1="0%" y2="100%">
      <stop offset="100%" style="stop-color:#A0A0A0;stop-opacity:1.000000"/>
    </linearGradient>
    <g id="acyl-filter">
  </g>
    <g id="acyl-drawing">
      <path d="M 21.375,2 C 18.051262,2 15.039221,2.970585 12.78125,4.6640625 10.523279,6.35754 9,8.8477723 9,11.625 l 0,24.75 c 0,2.777228 1.523279,5.26746 3.78125,6.960937 C 15.039221,45.029415 18.051262,46 21.375,46 l 5.5,0 c 3.323738,0 6.33578,-0.970585 8.59375,-2.664063 C 37.72672,41.64246 39.25,39.152228 39.25,36.375 l 0,-24.75 C 39.25,8.8477723 37.72672,6.35754 35.46875,4.6640625 33.21078,2.970585 30.198738,2 26.875,2 L 24.640625,2 23.953125,2 21.375,2 z m 0,2.75 1.460937,0 0,9.625 a 1.3751374,1.3751374 0 1 0 2.75,0 l 0,-9.625 1.289063,0 c 2.770262,0 5.242407,0.85954 6.960937,2.1484375 C 35.554467,8.187335 36.5,9.8317277 36.5,11.625 l 0,24.75 c 0,1.793272 -0.945533,3.437665 -2.664063,4.726562 C 32.117407,42.39046 29.645262,43.25 26.875,43.25 l -5.5,0 c -2.770262,0 -5.242408,-0.85954 -6.960937,-2.148438 C 12.695533,39.812665 11.75,38.168272 11.75,36.375 l 0,-24.75 c 0,-1.7932723 0.945533,-3.437665 2.664063,-4.7265625 C 16.132592,5.60954 18.604738,4.75 21.375,4.75 z" id="path-main"/>
    </g>
  </defs>
  <g id="acyl-visual">
    <use id="visible1" style="fill:url(#acyl-gradient)" xlink:href="#acyl-drawing"/>
  </g>
</svg>
