<svg xmlns="http://www.w3.org/2000/svg" xmlns:xlink="http://www.w3.org/1999/xlink" width="48" height="48">
  <defs id="acyl-settings">
    <linearGradient id="acyl-gradient" x1="0%" x2="0%" y1="0%" y2="100%">
      <stop offset="100%" style="stop-color:#A0A0A0;stop-opacity:1.000000"/>
    </linearGradient>
    <g id="acyl-filter">
  </g>
    <g id="acyl-drawing">
      <path id="path-main" d="m 24.413723,2.0004002 c -5.678566,-0.048081 -11.021031,4.2409916 -12.069202,9.6248068 -1.048172,5.383815 1.79407,10.432019 7.104024,12.374751 l 0,14.666372 c 0,4.888791 2.762355,7.373565 4.88879,7.333186 2.126436,-0.04038 4.888791,-2.444395 4.888791,-7.333186 l 4.888791,-2.444395 -7.333186,-2.444396 7.333186,-4.88879 -4.888791,-2.444396 0,-2.444395 c 5.34448,-1.852512 8.130472,-6.744852 7.180411,-12.145589 C 35.456477,6.4536313 30.092288,2.0484839 24.413723,2.0004002 z m 0,7.2567985 c 1.42935,0 2.520783,1.0914273 2.520783,2.5207833 0,1.429355 -1.091433,2.520782 -2.520783,2.520782 -1.429351,0 -2.520783,-1.091427 -2.520783,-2.520782 0,-1.429356 1.091432,-2.5207833 2.520783,-2.5207833 z m 0,2.4443953 c 0.05334,0 -0.07639,0.129724 -0.07639,0.07639 0,-0.05334 0.129725,0.07639 0.07639,0.07639 -0.05334,0 0.07639,-0.129724 0.07639,-0.07639 0,0.05334 -0.129724,-0.07639 -0.07639,-0.07639 z"/>
    </g>
  </defs>
  <g id="acyl-visual">
    <use id="visible1" style="fill:url(#acyl-gradient)" xlink:href="#acyl-drawing"/>
  </g>
</svg>
