<svg xmlns="http://www.w3.org/2000/svg" xmlns:xlink="http://www.w3.org/1999/xlink" width="48" height="48">
  <defs id="acyl-settings">
    <linearGradient id="acyl-gradient" x1="0%" x2="0%" y1="0%" y2="100%">
      <stop offset="100%" style="stop-color:#A0A0A0;stop-opacity:1.000000"/>
    </linearGradient>
    <g id="acyl-filter">
  </g>
    <g id="acyl-drawing">
      <path d="M 34.265625,14.666667 4.5520833,14.727431 C 3.3671268,14.727431 2,16.202291 2,17.279514 L 2,35.326389 C 2,36.747734 3.5636023,38 4.8559028,38 L 34.083333,38 C 35.633726,38 37,36.684083 37,35.326389 l 0,-17.80382 c 0,-1.507993 -1.334371,-2.855902 -2.734375,-2.855902 z m -28.6805556,2.491319 13.3072916,13.307292 1.154514,0 13.368056,-13.307292 1.336804,1.336806 -7.960068,8.081597 6.015625,6.137152 -1.336806,1.336806 -6.137153,-6.137153 -4.435764,4.496528 -2.795138,0 L 13.666666,27.913194 7.5295139,34.11111 6.1927083,32.713541 12.269097,26.576389 4.2482639,18.494792 5.5850694,17.157986 z" id="path-main"/>
    </g>
  </defs>
  <g id="acyl-visual">
    <use id="visible1" style="fill:url(#acyl-gradient)" xlink:href="#acyl-drawing"/>
  </g>
</svg>
