<svg xmlns="http://www.w3.org/2000/svg" xmlns:xlink="http://www.w3.org/1999/xlink" width="48" height="48">
  <defs id="acyl-settings">
    <linearGradient id="acyl-gradient" x1="0%" x2="0%" y1="0%" y2="100%">
      <stop offset="100%" style="stop-color:#A0A0A0;stop-opacity:1.000000"/>
    </linearGradient>
    <g id="acyl-filter">
  </g>
    <g id="acyl-drawing">
      <path d="M 36.1 3 C 31.68 2.999 28.1 6.581 28.1 11 C 28.1 15.42 31.68 19 36.1 19 C 40.52 19 44.1 15.42 44.1 11 C 44.1 6.581 40.52 2.999 36.1 3 z M 36.11 6.123 C 36.82 6.123 37.6 6.526 38.01 7.115 C 38.37 7.611 38.53 8.057 38.53 8.688 C 38.5 9.749 37.93 10.91 37.1 11.44 C 36.74 11.66 36.54 11.76 36.11 11.76 C 35.69 11.76 35.48 11.7 35.12 11.44 C 34.04 10.72 33.43 9.025 33.84 7.855 C 34.15 6.935 34.88 6.303 35.79 6.145 L 36.11 6.145 L 36.11 6.123 z M 4.092 8.666 L 24 28.58 L 32.29 20.28 C 28.49 18.76 26 15.09 26 11 C 26 10.21 26.1 9.43 26.29 8.666 L 4.092 8.666 z M 2 10.76 L 2 35.91 L 14.58 23.33 L 2 10.76 z M 46 10.76 L 46 10.99 L 46 10.76 z M 46 11 C 46 16.52 41.52 21 36 21 L 35.77 21 L 33.42 23.34 L 36 25.92 C 41.52 25.92 46 30.4 46 35.92 L 46 11 z M 34.22 11.41 C 34.24 11.41 34.33 11.5 34.44 11.62 C 34.71 11.86 35.08 12.06 35.39 12.18 C 35.71 12.38 36.32 12.38 36.66 12.28 C 37.09 12.19 37.5 11.93 37.83 11.63 L 37.99 11.47 L 38.41 11.59 C 39.05 11.82 40.05 12.31 40.35 12.57 C 40.65 12.79 40.73 12.89 40.87 13.37 C 41.1 13.96 41.1 14.14 41 14.34 C 40.78 14.95 39.56 15.5 37.93 15.74 C 34.98 16.18 31.61 15.47 31.18 14.34 C 31.18 14.19 31.08 14.14 31.18 13.93 C 31.2 13.8 31.26 13.51 31.36 13.28 C 31.47 12.95 31.52 12.88 31.66 12.74 C 31.98 12.4 32.8 11.98 33.74 11.59 C 34 11.51 34.22 11.41 34.22 11.41 z M 16.67 25.42 L 4.092 38 L 26.23 38 C 26.08 37.31 26 36.61 26 35.91 C 26 31.75 28.58 28.03 32.47 26.56 L 31.33 25.42 L 24 32.76 L 16.67 25.42 z M 36.11 28.1 C 31.69 28.1 28.11 31.68 28.11 36.1 C 28.11 40.52 31.69 44.1 36.11 44.1 C 40.53 44.1 44.1 40.52 44.1 36.1 C 44.1 31.68 40.53 28.1 36.11 28.1 z M 40.12 32.32 L 42.07 33.88 L 36.07 41.36 L 30.6 35.99 L 32.36 34.21 L 35.85 37.64 L 40.12 32.32 z" id="path-main"/>
    </g>
  </defs>
  <g id="acyl-visual">
    <use id="visible1" style="fill:url(#acyl-gradient)" xlink:href="#acyl-drawing"/>
  </g>
</svg>
