<svg xmlns="http://www.w3.org/2000/svg" xmlns:xlink="http://www.w3.org/1999/xlink" width="48" height="48">
  <defs id="acyl-settings">
    <linearGradient id="acyl-gradient" x1="0%" x2="0%" y1="0%" y2="100%">
      <stop offset="100%" style="stop-color:#A0A0A0;stop-opacity:1.000000"/>
    </linearGradient>
    <g id="acyl-filter">
  </g>
    <g id="acyl-drawing">
      <path d="m 38.95,2 a 5.893,5.858 0 0 0 -5.8,5.855 5.893,5.858 0 0 0 5.8,5.865 A 5.893,5.858 0 0 0 44.84,7.855 5.893,5.858 0 0 0 38.95,2 Z m -22.3,0.03 c -4.07,0 -7.339,3.277 -7.339,7.323 V 24.02 c 0,4.08 3.269,7.32 7.339,7.32 4.11,0 7.31,-3.24 7.31,-7.32 V 9.353 c 0,-4.046 -3.2,-7.324 -7.31,-7.324 z M 4.796,13.74 a 1.473,1.465 0 0 0 -1.379,1.47 1.473,1.465 0 0 0 0,0.1 v 0 8.2 c 0,5.77 3.726,10.57 8.873,12.39 v 4.25 H 6.084 c -1.608,0 -2.927,1.31 -2.927,2.92 V 46 h 9.133 8.77 8.8 v -2.64 c 0.3,-1.73 -1.2,-3.21 -2.9,-3.21 h -5.9 v -4.28 c 5.2,-1.82 8.9,-6.62 8.9,-12.36 v -8.2 a 1.473,1.465 0 0 0 0,-0.1 1.473,1.465 0 0 0 -1.5,-1.47 1.473,1.465 0 0 0 -1.5,1.47 1.473,1.465 0 0 0 0,0.15 v 8.11 c 0,5.57 -4.6,10.25 -10.31,10.25 -5.77,0 -10.326,-4.68 -10.326,-10.25 v -8.05 a 1.473,1.465 0 0 0 0,-0.21 1.473,1.465 0 0 0 -1.459,-1.47 1.473,1.465 0 0 0 -0.1,0 z m 34.154,2.91 a 5.893,5.858 0 0 0 -5.8,5.85 5.893,5.858 0 0 0 5.8,5.86 5.893,5.858 0 0 0 5.89,-5.86 5.893,5.858 0 0 0 -5.89,-5.85 z m 0,14.63 a 5.893,5.858 0 0 0 -5.8,5.87 5.893,5.858 0 0 0 5.8,5.85 5.893,5.858 0 0 0 5.89,-5.85 5.893,5.858 0 0 0 -5.89,-5.87 z" id="path-main"/>
    </g>
  </defs>
  <g id="acyl-visual">
    <use id="visible1" style="fill:url(#acyl-gradient)" xlink:href="#acyl-drawing"/>
  </g>
</svg>
