<svg xmlns="http://www.w3.org/2000/svg" xmlns:xlink="http://www.w3.org/1999/xlink" width="48" height="48">
  <defs id="acyl-settings">
    <linearGradient id="acyl-gradient" x1="0%" x2="0%" y1="0%" y2="100%">
      <stop offset="100%" style="stop-color:#A0A0A0;stop-opacity:1.000000"/>
    </linearGradient>
    <g id="acyl-filter">
  </g>
    <g id="acyl-drawing">
      <path d="M 16.65 2.029 C 12.58 2.029 9.311 5.308 9.311 9.354 L 9.311 24.02 C 9.311 28.1 12.58 31.34 16.65 31.34 C 20.76 31.34 23.96 28.1 23.96 24.02 L 23.96 9.354 C 23.96 5.308 20.76 2.029 16.65 2.029 z M 4.797 13.74 A 1.473 1.465 0 0 0 3.418 15.21 A 1.473 1.465 0 0 0 3.418 15.31 L 3.418 23.51 C 3.418 29.28 7.142 34.08 12.29 35.9 L 12.29 40.15 L 6.084 40.15 C 4.476 40.15 3.156 41.46 3.156 43.07 L 3.156 46 L 12.29 46 L 21.06 46 L 29.86 46 L 29.86 43.36 C 30.16 41.63 28.66 40.15 26.96 40.15 L 21.06 40.15 L 21.06 35.87 C 26.26 34.05 29.96 29.25 29.96 23.51 L 29.96 15.31 A 1.473 1.465 0 0 0 29.96 15.21 A 1.473 1.465 0 0 0 28.46 13.74 A 1.473 1.465 0 0 0 26.96 15.21 A 1.473 1.465 0 0 0 26.96 15.36 L 26.96 23.47 C 26.96 29.04 22.36 33.72 16.65 33.72 C 10.88 33.72 6.324 29.04 6.324 23.47 L 6.324 15.42 A 1.473 1.465 0 0 0 6.324 15.21 A 1.473 1.465 0 0 0 4.865 13.74 A 1.473 1.465 0 0 0 4.797 13.74 z M 33.05 18.06 L 33.05 21.63 L 35.69 24 L 33.05 26.61 L 33.05 29.94 L 36.41 29.94 L 39 27.33 L 41.61 29.94 L 44.94 29.94 L 44.94 26.61 L 42.33 24 L 44.94 21.63 L 44.94 18.06 L 41.61 18.06 L 39 20.67 L 36.41 18.06 L 33.05 18.06 z" id="path-main"/>
    </g>
  </defs>
  <g id="acyl-visual">
    <use id="visible1" style="fill:url(#acyl-gradient)" xlink:href="#acyl-drawing"/>
  </g>
</svg>
