<svg xmlns="http://www.w3.org/2000/svg" xmlns:xlink="http://www.w3.org/1999/xlink" width="48" height="48">
  <defs id="acyl-settings">
    <linearGradient id="acyl-gradient" x1="0%" x2="0%" y1="0%" y2="100%">
      <stop offset="100%" style="stop-color:#A0A0A0;stop-opacity:1.000000"/>
    </linearGradient>
    <g id="acyl-filter">
  </g>
    <g id="acyl-drawing">
      <path d="M 14.74 1.996 C 12.97 1.996 11.54 3.436 11.54 5.201 L 11.54 42.79 C 11.54 44.55 12.97 46 14.74 46 L 33.26 46 C 35.03 46 36.46 44.55 36.46 42.79 L 36.46 5.201 C 36.46 3.436 35.03 1.996 33.26 1.996 L 14.74 1.996 z M 13.94 7.404 L 34.05 7.404 L 34.05 24.79 L 13.94 24.79 L 13.94 7.404 z M 2 17 L 2 31 L 9 24 L 2 17 z M 46 17 L 39 24 L 46 31 L 46 17 z M 14.45 26.24 L 20 26.24 L 20 29.02 L 14.45 29.02 L 14.45 26.24 z M 21.23 26.24 L 26.77 26.24 L 26.77 29.02 L 21.23 29.02 L 21.23 26.24 z M 28 26.24 L 33.54 26.24 L 33.54 29.02 L 28 29.02 L 28 26.24 z M 14.45 30.46 L 20 30.46 L 20 33.23 L 14.45 33.23 L 14.45 30.46 z M 21.23 30.46 L 26.77 30.46 L 26.77 33.23 L 21.23 33.23 L 21.23 30.46 z M 28 30.46 L 33.54 30.46 L 33.54 33.23 L 28 33.23 L 28 30.46 z M 14.45 34.79 L 20 34.79 L 20 37.58 L 14.45 37.58 L 14.45 34.79 z M 21.23 34.79 L 26.77 34.79 L 26.77 37.58 L 21.23 37.58 L 21.23 34.79 z M 28 34.79 L 33.54 34.79 L 33.54 37.58 L 28 37.58 L 28 34.79 z M 14.45 39.12 L 20 39.12 L 20 41.91 L 14.45 41.91 L 14.45 39.12 z M 21.23 39.12 L 26.77 39.12 L 26.77 41.91 L 21.23 41.91 L 21.23 39.12 z M 28 39.12 L 33.54 39.12 L 33.54 41.91 L 28 41.91 L 28 39.12 z" id="path-main"/>
    </g>
  </defs>
  <g id="acyl-visual">
    <use id="visible1" style="fill:url(#acyl-gradient)" xlink:href="#acyl-drawing"/>
  </g>
</svg>
