<svg xmlns="http://www.w3.org/2000/svg" xmlns:xlink="http://www.w3.org/1999/xlink" width="48" height="48">
  <defs id="acyl-settings">
    <linearGradient id="acyl-gradient" x1="0%" x2="0%" y1="0%" y2="100%">
      <stop offset="100%" style="stop-color:#A0A0A0;stop-opacity:1.000000"/>
    </linearGradient>
    <g id="acyl-filter">
  </g>
    <g id="acyl-drawing">
      <path d="M 6.26758 2 C 3.90616 2 2 3.9063 2 6.26758 L 2 26.3496 C 2 28.711 3.90616 30.5879 6.26758 30.5879 L 15.2051 30.5879 L 15.2051 41.7324 C 15.2051 44.0938 17.1132 46 19.4746 46 L 41.7324 46 C 44.0937 46 46 44.0938 46 41.7324 L 46 21.6504 C 46 19.2888 44.0937 17.4121 41.7324 17.4121 L 32.7949 17.4121 L 32.7949 6.26758 C 32.7949 3.9063 30.8868 2 28.5254 2 L 6.26758 2 z M 7.78711 5.29492 L 27.0371 5.29492 C 28.4082 5.29492 29.5 6.41608 29.5 7.78711 L 29.5 17.4121 L 26.2051 17.4121 L 26.2051 8.58789 L 8.58789 8.58789 L 8.58789 24 L 15.2051 24 L 15.2051 27.2949 L 7.78711 27.2949 C 6.41596 27.2949 5.29492 26.2013 5.29492 24.8301 L 5.29492 7.78711 C 5.29492 6.41608 6.41597 5.29492 7.78711 5.29492 z M 20.9629 20.7051 L 40.2129 20.7051 C 41.5839 20.7051 42.7051 21.7987 42.7051 23.1699 L 42.7051 40.2129 C 42.7051 41.5839 41.5839 42.7051 40.2129 42.7051 L 20.9629 42.7051 C 19.5918 42.7051 18.5 41.5839 18.5 40.2129 L 18.5 23.1699 C 18.5 21.7987 19.5918 20.7051 20.9629 20.7051 z M 30.666 23.793 L 30.666 23.7969 C 27.9358 23.7969 25.9863 25.4257 25.9863 28.0879 L 25.9863 30.4277 L 25.2051 30.4277 C 24.425 30.4277 24.0352 30.8177 24.0352 31.5977 L 24.0352 38.2285 C 24.0352 38.6109 24.425 39.3984 25.2051 39.3984 L 36.666 39.3984 C 37.2958 39.3984 37.6875 38.6109 37.6875 38.2285 L 37.6875 31.5977 C 37.6875 30.8177 37.2955 30.4238 36.5156 30.4238 L 35.7363 30.4238 L 35.7363 28.084 C 35.7363 25.3539 33.787 23.793 31.0566 23.793 L 30.666 23.793 z M 30.666 25.748 L 31.0566 25.748 C 33.787 25.748 33.7871 28.0872 33.7871 28.8672 L 33.7871 30.4277 L 27.9355 30.4277 L 27.9355 28.8672 C 27.9355 28.0872 27.9358 25.748 30.666 25.748 z" id="path-main"/>
    </g>
  </defs>
  <g id="acyl-visual">
    <use id="visible1" style="fill:url(#acyl-gradient)" xlink:href="#acyl-drawing"/>
  </g>
</svg>
