<svg xmlns="http://www.w3.org/2000/svg" xmlns:xlink="http://www.w3.org/1999/xlink" width="48" height="48">
  <defs id="acyl-settings">
    <linearGradient id="acyl-gradient" x1="0%" x2="0%" y1="0%" y2="100%">
      <stop offset="100%" style="stop-color:#A0A0A0;stop-opacity:1.000000"/>
    </linearGradient>
    <g id="acyl-filter">
  </g>
    <g id="acyl-drawing">
      <path d="M 24 10.1035 C 15.4684 10.1035 7.74349 13.5768 2.14844 19.1719 C 2.05581 19.2615 2 19.3711 2 19.5 C 2 19.6289 2.05581 19.7658 2.14844 19.8555 L 5.21094 22.918 C 5.30056 23.0106 5.43947 23.0664 5.56836 23.0664 C 5.69725 23.0664 5.80491 23.0106 5.89453 22.918 C 10.5321 18.2804 16.9266 15.3965 24 15.3965 C 29.2001 15.3965 34.0187 16.9782 38.0566 19.6465 C 38.0639 19.6465 38.0708 19.6426 38.0781 19.6426 C 38.9829 19.6426 39.8999 19.7886 40.7695 20.1016 C 41.6392 20.4145 42.4625 20.8935 43.1777 21.5547 C 43.3435 21.7079 43.4244 21.9586 43.5762 22.1309 L 45.8516 19.8555 C 45.9442 19.7658 46 19.6289 46 19.5 C 46 19.3711 45.9442 19.2615 45.8516 19.1719 C 40.2565 13.5768 32.5316 10.1035 24 10.1035 z M 24 18.8145 C 17.8688 18.8145 12.3232 21.3057 8.30273 25.3262 C 8.2101 25.4158 8.1543 25.5547 8.1543 25.6836 C 8.1543 25.8125 8.2101 25.9201 8.30273 26.0098 L 11.3652 29.0723 C 11.4549 29.1649 11.5625 29.2207 11.6914 29.2207 C 11.8203 29.2207 11.9592 29.1649 12.0488 29.0723 C 15.112 26.0091 19.3273 24.1074 24 24.1074 C 26.5057 24.1074 28.8605 24.6884 30.9961 25.668 C 31.1059 25.1244 31.1115 24.5236 31.3145 24.041 C 31.7269 23.0603 32.318 22.2159 33.0332 21.5547 C 33.2358 21.3675 33.4905 21.3009 33.707 21.1426 C 30.764 19.6987 27.4992 18.8145 24 18.8145 z M 38.0566 24 C 36.7606 24 35.4661 24.422 34.4414 25.3691 C 33.4168 26.3162 32.748 27.7869 32.748 29.5195 L 32.748 32.1426 L 32.6738 32.1426 C 31.1966 32.1426 30 33.3861 30 34.9219 L 30 43.2207 C 30 44.7565 31.1969 46 32.6738 46 L 43.3262 46 C 44.8031 46 46 44.7565 46 43.2207 L 46 34.9219 C 46 33.413 44.8432 32.1849 43.4023 32.1426 L 43.4023 29.5195 C 43.4023 27.7869 42.7337 26.3162 41.709 25.3691 C 40.6844 24.422 39.3526 24 38.0566 24 z M 38.0566 26.7793 C 38.7601 26.7793 39.4645 27.0063 39.9395 27.4453 C 40.4145 27.8844 40.7285 28.4799 40.7285 29.5195 L 40.7285 32.1426 L 35.4219 32.1426 L 35.4219 29.5195 C 35.4219 28.4799 35.7359 27.8844 36.2109 27.4453 C 36.6858 27.0063 37.353 26.7793 38.0566 26.7793 z M 24 27.4961 C 20.2689 27.4961 16.9025 29.035 14.457 31.4805 C 14.3644 31.5701 14.3086 31.6777 14.3086 31.8066 C 14.3086 31.9355 14.3644 32.0744 14.457 32.1641 L 17.5195 35.1973 C 17.703 35.3709 17.9904 35.3709 18.1738 35.1973 C 19.6627 33.7084 21.728 32.7891 24 32.7891 C 25.1036 32.7891 26.1514 33.0223 27.1152 33.416 C 27.1198 33.4045 27.1184 33.3903 27.123 33.3789 C 27.3118 32.9146 27.5862 32.4975 27.9238 32.1465 C 28.2615 31.7954 28.6628 31.5107 29.1094 31.3145 C 29.556 31.1182 30.0469 31.0098 30.5625 31.0098 L 30.668 31.0098 L 30.668 29.3457 C 28.6947 28.2053 26.4414 27.4961 24 27.4961 z M 24 36.207 C 22.6665 36.207 21.4792 36.7669 20.6113 37.6348 C 20.4377 37.8182 20.4377 38.1056 20.6113 38.2891 L 23.6738 41.3496 C 23.8573 41.5232 24.1427 41.5232 24.3262 41.3496 L 26.8301 38.8477 L 27.3887 38.2891 C 27.5623 38.1056 27.5623 37.8182 27.3887 37.6348 C 27.229 37.4751 27.0103 37.3891 26.8301 37.252 C 26.0306 36.6433 25.0882 36.207 24 36.207 z " id="path-main"/>
    </g>
  </defs>
  <g id="acyl-visual">
    <use id="visible1" style="fill:url(#acyl-gradient)" xlink:href="#acyl-drawing"/>
  </g>
</svg>
