<svg xmlns="http://www.w3.org/2000/svg" xmlns:xlink="http://www.w3.org/1999/xlink" width="48" height="48">
  <defs id="acyl-settings">
    <linearGradient id="acyl-gradient" x1="0%" x2="0%" y1="0%" y2="100%">
      <stop offset="100%" style="stop-color:#A0A0A0;stop-opacity:1.000000"/>
    </linearGradient>
    <g id="acyl-filter">
  </g>
    <g id="acyl-drawing">
      <path d="M 24 18.8145 C 17.8688 18.8145 12.3232 21.3057 8.30273 25.3262 C 8.2101 25.4158 8.1543 25.5547 8.1543 25.6836 C 8.1543 25.8125 8.2101 25.9201 8.30273 26.0098 L 11.3652 29.0723 C 11.4549 29.1649 11.5625 29.2207 11.6914 29.2207 C 11.8203 29.2207 11.9592 29.1649 12.0488 29.0723 C 15.112 26.0091 19.3273 24.1074 24 24.1074 C 26.6695 24.1074 29.157 24.7834 31.3984 25.8867 C 31.4832 25.5279 31.475 25.1171 31.6113 24.793 C 31.9437 24.0028 32.4217 23.3238 32.998 22.791 C 33.5274 22.3017 34.1318 21.9684 34.7598 21.7168 C 31.5598 19.9254 27.9276 18.8145 24 18.8145 z M 38.0566 24 C 36.7606 24 35.4661 24.422 34.4414 25.3691 C 33.4168 26.3162 32.748 27.7869 32.748 29.5195 L 32.748 32.1426 L 32.6738 32.1426 C 31.1966 32.1426 30 33.3861 30 34.9219 L 30 43.2207 C 30 44.7565 31.1969 46 32.6738 46 L 43.3262 46 C 44.8031 46 46 44.7565 46 43.2207 L 46 34.9219 C 46 33.413 44.8432 32.1849 43.4023 32.1426 L 43.4023 29.5195 C 43.4023 27.7869 42.7337 26.3162 41.709 25.3691 C 40.6844 24.422 39.3526 24 38.0566 24 z M 38.0566 26.7793 C 38.7601 26.7793 39.4645 27.0063 39.9395 27.4453 C 40.4145 27.8844 40.7285 28.4799 40.7285 29.5195 L 40.7285 32.1426 L 35.4219 32.1426 L 35.4219 29.5195 C 35.4219 28.4799 35.7359 27.8844 36.2109 27.4453 C 36.6858 27.0063 37.353 26.7793 38.0566 26.7793 z M 24 27.4961 C 20.2689 27.4961 16.9025 29.035 14.457 31.4805 C 14.3644 31.5701 14.3086 31.6777 14.3086 31.8066 C 14.3086 31.9355 14.3644 32.0744 14.457 32.1641 L 17.5195 35.1973 C 17.703 35.3709 17.9904 35.3709 18.1738 35.1973 C 19.6627 33.7084 21.728 32.7891 24 32.7891 C 25.4798 32.7891 26.7975 33.2835 28 33.9668 L 28 33.5371 C 28 32.6732 28.3367 31.8919 28.8809 31.3262 C 29.425 30.7604 30.1768 30.4102 31.0078 30.4102 L 31.0918 30.4102 L 31.0918 29.5781 C 29.0271 28.2851 26.6139 27.4961 24 27.4961 z M 24 36.207 C 22.6665 36.207 21.4792 36.7669 20.6113 37.6348 C 20.4377 37.8182 20.4377 38.1056 20.6113 38.2891 L 23.6738 41.3496 C 23.8573 41.5232 24.1427 41.5232 24.3262 41.3496 L 27.3887 38.2891 C 27.5623 38.1056 27.5623 37.8182 27.3887 37.6348 C 26.5208 36.7669 25.3335 36.207 24 36.207 z " id="path-main"/>
    </g>
  </defs>
  <g id="acyl-visual">
    <use id="visible1" style="fill:url(#acyl-gradient)" xlink:href="#acyl-drawing"/>
  </g>
</svg>
