<svg xmlns="http://www.w3.org/2000/svg" xmlns:xlink="http://www.w3.org/1999/xlink" width="48" height="48">
  <defs id="acyl-settings">
    <linearGradient id="acyl-gradient" x1="0%" x2="0%" y1="0%" y2="100%">
      <stop offset="100%" style="stop-color:#A0A0A0;stop-opacity:1.000000"/>
    </linearGradient>
    <g id="acyl-filter">
  </g>
    <g id="acyl-drawing">
      <path d="M 38.0566 24 C 36.7606 24 35.4661 24.422 34.4414 25.3691 C 33.4168 26.3162 32.748 27.7869 32.748 29.5195 L 32.748 32.1426 L 32.6738 32.1426 C 31.1966 32.1426 30 33.3861 30 34.9219 L 30 43.2207 C 30 44.7565 31.1969 46 32.6738 46 L 43.3262 46 C 44.8031 46 46 44.7565 46 43.2207 L 46 34.9219 C 46 33.413 44.8432 32.1849 43.4023 32.1426 L 43.4023 29.5195 C 43.4023 27.7869 42.7337 26.3162 41.709 25.3691 C 40.6844 24.422 39.3526 24 38.0566 24 z M 38.0566 26.7793 C 38.7601 26.7793 39.4645 27.0063 39.9395 27.4453 C 40.4145 27.8844 40.7285 28.4799 40.7285 29.5195 L 40.7285 32.1426 L 35.4219 32.1426 L 35.4219 29.5195 C 35.4219 28.4799 35.7359 27.8844 36.2109 27.4453 C 36.6858 27.0063 37.353 26.7793 38.0566 26.7793 z M 24 36.207 C 22.6665 36.207 21.4792 36.7669 20.6113 37.6348 C 20.4377 37.8182 20.4377 38.1056 20.6113 38.2891 L 23.6738 41.3496 C 23.8573 41.5232 24.1427 41.5232 24.3262 41.3496 L 27.3887 38.2891 C 27.5623 38.1056 27.5623 37.8182 27.3887 37.6348 C 26.5208 36.7669 25.3335 36.207 24 36.207 z " id="path-main"/>
    </g>
  </defs>
  <g id="acyl-visual">
    <use id="visible1" style="fill:url(#acyl-gradient)" xlink:href="#acyl-drawing"/>
  </g>
</svg>
