<svg xmlns="http://www.w3.org/2000/svg" xmlns:xlink="http://www.w3.org/1999/xlink" width="48" height="48">
  <defs id="acyl-settings">
    <linearGradient id="acyl-gradient" x1="0%" x2="0%" y1="0%" y2="100%">
      <stop offset="100%" style="stop-color:#A0A0A0;stop-opacity:1.000000"/>
    </linearGradient>
    <g id="acyl-filter">
  </g>
    <g id="acyl-drawing">
      <path id="path-main" d="M 22.004206,2 C 16.587319,2 12.22643,6.360889 12.22643,11.777777 l 0,7.333333 -2.4444446,0 c -1.3542221,0 -2.4444443,1.090222 -2.4444443,2.444444 l 0,22.000002 C 7.3375411,44.909778 8.4277633,46 9.7819854,46 l 29.3333316,0 c 1.354222,0 2.444444,-1.090222 2.444444,-2.444444 l 0,-22.000002 c 0,-1.354222 -1.090222,-2.444444 -2.444444,-2.444444 l -2.444445,0 0,-7.333333 C 36.670872,6.360889 32.309984,2 26.893095,2 l -4.888889,0 z m 0,4.888889 4.888889,0 c 2.708444,0 4.888889,2.180444 4.888889,4.888888 l 0,7.333333 -14.666665,0 0,-7.333333 c 0,-2.708444 2.180444,-4.888888 4.888887,-4.888888 z"/>
    </g>
  </defs>
  <g id="acyl-visual">
    <use id="visible1" style="fill:url(#acyl-gradient)" xlink:href="#acyl-drawing"/>
  </g>
</svg>
