<svg xmlns="http://www.w3.org/2000/svg" xmlns:xlink="http://www.w3.org/1999/xlink" width="48" height="48">
  <defs id="acyl-settings">
    <linearGradient id="acyl-gradient" x1="0%" x2="0%" y1="0%" y2="100%">
      <stop offset="100%" style="stop-color:#A0A0A0;stop-opacity:1.000000"/>
    </linearGradient>
    <g id="acyl-filter">
  </g>
    <g id="acyl-drawing">
      <path d="m 23.96,2.05 c -0.7,0 -1.4,0.6 -1.8,1.3 l -4.9,13.3 H 3.86 c -0.7,0 -1.5,0.6 -1.8,1.3 -0.2,0.8 0.2,1.5 0.7,2 l 10.6,7.9 -5.7,15.7 c -0.3,0.8 -0.1,1.5 0.6,2 0.4,0.2 0.7,0.4 1.1,0.4 0.4,0 0.7,-0.2 0.9,-0.4 l 13.6,-10 13.6,10 c 0.4,0.2 0.8,0.4 1.1,0.4 0.4,0 0.8,-0.2 1.3,-0.5 0.6,-0.4 0.9,-1.3 0.6,-2.1 l -5.8,-15.7 10.5,-7.7 c 0.8,-0.3 0.9,-1.2 0.8,-2 -0.4,-0.7 -1.1,-1.3 -1.9,-1.3 h -13.6 l -4.8,-13.3 c -0.2,-0.7 -1,-1.3 -1.7,-1.3 z m 0,7.1 3.7,9.9 c 0.2,0.7 0.9,1.3 1.6,1.3 h 0.1 c 0,0 0.1,0 0.1,0 h 9.1 l -6.9,5 c -0.2,0.1 -0.4,0.3 -0.5,0.4 -0.6,0.6 -0.7,1.8 -0.2,2.5 0,0 0,0 0,0 l 3.8,10.8 -9.7,-7.2 c -0.3,-0.2 -0.8,-0.3 -1.2,-0.3 -0.4,0 -0.8,0.1 -1.2,0.3 l -9.7,7.2 4.2,-11.4 c 0.4,-0.7 0.2,-1.5 -0.5,-2 l -7.3,-5.3 h 9.1 c 0.8,0 1.3,-0.3 1.6,-0.9 0.1,-0.1 0.2,-0.2 0.3,-0.4 z" id="path-main"/>
    </g>
  </defs>
  <g id="acyl-visual">
    <use id="visible1" style="fill:url(#acyl-gradient)" xlink:href="#acyl-drawing"/>
  </g>
</svg>
