<svg xmlns="http://www.w3.org/2000/svg" xmlns:xlink="http://www.w3.org/1999/xlink" width="48" height="48">
  <defs id="acyl-settings">
    <linearGradient id="acyl-gradient" x1="0%" x2="0%" y1="0%" y2="100%">
      <stop offset="100%" style="stop-color:#A0A0A0;stop-opacity:1.000000"/>
    </linearGradient>
    <g id="acyl-filter">
  </g>
    <g id="acyl-drawing">
      <path d="M 23.625,8.25 C 23.484558,8.2708112 23.359584,8.3503406 23.28125,8.46875 L 10.46875,26.21875 C 10.365282,26.370855 10.352629,26.555537 10.4375,26.71875 C 10.522371,26.881964 10.691058,26.997348 10.875,27 L 36.5,27 C 36.683942,26.997348 36.852629,26.881964 36.9375,26.71875 C 37.022373,26.555537 37.009718,26.370855 36.90625,26.21875 L 24.09375,8.46875 C 23.990281,8.3144029 23.809757,8.2301586 23.625,8.25 z M 10.125,30 L 10.125,30.5 L 10.125,35.46875 L 10.125,35.96875 L 10.625,35.96875 L 36.5,35.96875 L 37,35.96875 L 37,35.46875 L 37,30.5 L 37,30 L 36.5,30 L 10.625,30 L 10.125,30 z" id="path-main"/>
    </g>
  </defs>
  <g id="acyl-visual">
    <use id="visible1" style="fill:url(#acyl-gradient)" xlink:href="#acyl-drawing"/>
  </g>
</svg>
