<svg xmlns="http://www.w3.org/2000/svg" xmlns:xlink="http://www.w3.org/1999/xlink" width="48" height="48">
  <defs id="acyl-settings">
    <linearGradient id="acyl-gradient" x1="0%" x2="0%" y1="0%" y2="100%">
      <stop offset="100%" style="stop-color:#A0A0A0;stop-opacity:1.000000"/>
    </linearGradient>
    <g id="acyl-filter">
  </g>
    <g id="acyl-drawing">
      <path d="m 23.96,2.051 c -0.7,0 -1.4,0.599 -1.8,1.299 l -0.14,0.371 h -0 v 0.06 L 17.26,16.65 H 3.859 c -0.7,0 -1.498,0.6 -1.798,1.3 -0.2,0.8 0.199,1.5 0.699,2 l 10.6,7.9 -5.7,15.7 c -0.3,0.8 -0.1,1.5 0.6,2 0.4,0.2 0.699,0.4 1.099,0.4 0.4,0 0.701,-0.2 0.901,-0.4 l 13.6,-10 13.6,10 c 0.4,0.2 0.8,0.4 1.1,0.4 0.4,0 0.8,-0.2 1.3,-0.5 0.6,-0.4 0.9,-1.3 0.6,-2.1 l -5.8,-15.7 10.5,-7.7 c 0.8,-0.3 0.9,-1.2 0.8,-2 -0.4,-0.7 -1.1,-1.3 -1.9,-1.3 h -13.6 l -4.8,-13.3 c -0.2,-0.7 -1,-1.299 -1.7,-1.299 z m 0,7.205 3.66,9.794 c 0.2,0.7 0.9,1.3 1.6,1.3 h 0.1 0.1 9.1 l -6.9,5 c -0.2,0.1 -0.4,0.3 -0.5,0.4 -0.6,0.6 -0.7,1.8 -0.2,2.5 l 3.8,10.8 -9.7,-7.2 C 24.79,31.67 24.37,31.59 24,31.57 Z" id="path-main"/>
    </g>
  </defs>
  <g id="acyl-visual">
    <use id="visible1" style="fill:url(#acyl-gradient)" xlink:href="#acyl-drawing"/>
  </g>
</svg>
