<svg xmlns="http://www.w3.org/2000/svg" xmlns:xlink="http://www.w3.org/1999/xlink" width="48" height="48">
  <defs id="acyl-settings">
    <linearGradient id="acyl-gradient" x1="0%" x2="0%" y1="0%" y2="100%">
      <stop offset="100%" style="stop-color:#A0A0A0;stop-opacity:1.000000"/>
    </linearGradient>
    <g id="acyl-filter">
  </g>
    <g id="acyl-drawing">
      <path id="path-main" d="m 22.375,4.375 0,5.90625 -4.75,-2.71875 -1.25,2.15625 6,3.4375 0,8.0625 -7,-4.03125 0,-6.90625 -2.46875,0 0,5.46875 -5.125,-2.9375 -1.65625,2.8125 5.125,2.96875 -4.75,2.75 1.25,2.15625 6,-3.46875 7,4.03125 -7,4.03125 -6,-3.46875 -1.25,2.15625 4.75,2.75 -5.125,2.96875 1.65625,2.8125 5.125,-2.9375 0,5.46875 2.46875,0 0,-6.90625 7,-4.03125 0,8.0625 -6,3.4375 1.25,2.15625 4.75,-2.71875 0,5.90625 3.25,0 0,-5.90625 4.75,2.71875 1.25,-2.15625 -6,-3.4375 0,-8.0625 7,4.03125 0,6.90625 2.46875,0 0,-5.46875 5.125,2.9375 L 41.875,32.5 36.75,29.53125 l 4.75,-2.75 -1.25,-2.15625 -6,3.46875 -7,-4.03125 7,-4.03125 6,3.46875 1.25,-2.15625 -4.75,-2.75 5.125,-2.96875 -1.65625,-2.8125 -5.125,2.9375 0,-5.46875 -2.46875,0 0,6.90625 -7,4.03125 0,-8.0625 6,-3.4375 -1.25,-2.15625 -4.75,2.71875 0,-5.90625 -3.25,0 z"/>
    </g>
  </defs>
  <g id="acyl-visual">
    <use id="visible1" style="fill:url(#acyl-gradient)" xlink:href="#acyl-drawing"/>
  </g>
</svg>
