<svg xmlns="http://www.w3.org/2000/svg" xmlns:xlink="http://www.w3.org/1999/xlink" width="48" height="48">
  <defs id="acyl-settings">
    <linearGradient id="acyl-gradient" x1="0%" x2="0%" y1="0%" y2="100%">
      <stop offset="100%" style="stop-color:#A0A0A0;stop-opacity:1.000000"/>
    </linearGradient>
    <g id="acyl-filter">
  </g>
    <g id="acyl-drawing">
      <path id="path-main" d="M 14.65625 4 C 10.65625 4.222222 4 6.6562502 4 14.65625 L 4 22.65625 C 4 30.65625 10.582176 33.260414 14.65625 33.34375 L 22.65625 33.34375 L 34.21875 44 L 36 44 C 34.623584 40.598173 29.610219 33.30596 36 33.34375 C 39.962963 33.34375 44 30.65625 44 22.65625 L 44 14.65625 C 44 6.6562502 37.34375 4.305554 33.34375 4 L 14.65625 4 z M 20 7.1875 L 28 7.1875 L 28 19.40625 L 32.78125 19.40625 L 24.59375 30.8125 L 15 19.40625 L 20 19.40625 L 20 7.1875 z "/>
    </g>
  </defs>
  <g id="acyl-visual">
    <use id="visible1" style="fill:url(#acyl-gradient)" xlink:href="#acyl-drawing"/>
  </g>
</svg>
