<svg xmlns="http://www.w3.org/2000/svg" xmlns:xlink="http://www.w3.org/1999/xlink" width="48" height="48">
  <defs id="acyl-settings">
    <linearGradient id="acyl-gradient" x1="0%" x2="0%" y1="0%" y2="100%">
      <stop offset="100%" style="stop-color:#A0A0A0;stop-opacity:1.000000"/>
    </linearGradient>
    <g id="acyl-filter">
  </g>
    <g id="acyl-drawing">
      <path d="M 27.280899,2 C 23.741086,2 20.741286,3.8661091 19.129113,6.6160714 18.221308,5.9688126 17.062056,5.6339286 15.789828,5.6339286 c -2.891428,0 -5.303572,1.9412768 -5.303572,4.4196424 0,0.556604 0.176544,1.07943 0.392857,1.571429 -3.2884919,1.259443 -5.5982141,4.167039 -5.5982141,7.464286 0,4.477223 4.205143,8.053571 9.4285711,8.053571 l 3.142858,0 0,-12.473214 c 0,-1.608731 1.337697,-2.946429 2.946428,-2.946429 l 6.678572,0 c 1.608731,0 2.946428,1.337698 2.946428,2.946429 l 0,12.473214 3.142857,0 c 5.223429,0 9.428572,-3.576348 9.428572,-8.053571 0,-3.54635 -2.691028,-6.567063 -6.383929,-7.660715 0.0082,-0.153434 0.09821,-0.33572 0.09821,-0.491071 C 36.70947,5.9807649 32.48547,2 27.280899,2 z m -6.285714,12.571429 0,15.714285 1.571428,6.285715 3.142857,0 1.571429,-6.285715 0,-15.714285 -6.285714,0 z m 0,25.142857 0,6.285714 6.285714,0 0,-6.285714 -6.285714,0 z" id="path-main"/>
    </g>
  </defs>
  <g id="acyl-visual">
    <use id="visible1" style="fill:url(#acyl-gradient)" xlink:href="#acyl-drawing"/>
  </g>
</svg>
