<svg style="" viewBox="0 0 16 16" xmlns="http://www.w3.org/2000/svg">
    <path id="rect4170" d="m8 3a8.9999925 9.0000023 0 0 0 -7.87695312 4.6679688c.12894502.363749.35743875.6766037.65625.9082031a7.9999935 8.0000021 0 0 1 7.22070312-4.5761719 3.9999996 4.0000004 0 0 0 -4 4 3.9999996 4.0000004 0 0 0 4 4 3.9999996 4.0000004 0 0 0 4-4 3.9999996 4.0000004 0 0 0 -3.6503906-3.9824219 7.9999935 8.0000021 0 0 1 6.8710936 4.5585938c.301515-.2336994.531909-.5500947.660156-.9179688a8.9999925 9.0000023 0 0 0 -7.880859-4.6582031zm0 2a2.9999996 3.0000002 0 0 1 3 3 2.9999996 3.0000002 0 0 1 -3 3 2.9999996 3.0000002 0 0 1 -3-3 2.9999996 3.0000002 0 0 1 3-3zm0 1a1.9999999 2.0000003 0 0 0 -2 2 1.9999999 2.0000003 0 0 0 2 2 1.9999999 2.0000003 0 0 0 2-2 1.9999999 2.0000003 0 0 0 -.0898438-.5878906.9999999 1 0 0 1 -.9101562.5878906.9999999 1 0 0 1 -1-1 .9999999 1 0 0 1 .5898438-.9101562 1.9999999 2.0000003 0 0 0 -.5898438-.0898438z" style="fill:#252622" transform="matrix(.999999975 0 0 1.00000003166 -.00000025 -.00001240058)"/>
</svg>
