<?xml version="1.0" encoding="UTF-8" standalone="no"?>
<!-- Created with Inkscape (http://www.inkscape.org/) -->

<svg
   xmlns:dc="http://purl.org/dc/elements/1.1/"
   xmlns:cc="http://creativecommons.org/ns#"
   xmlns:rdf="http://www.w3.org/1999/02/22-rdf-syntax-ns#"
   xmlns:svg="http://www.w3.org/2000/svg"
   xmlns="http://www.w3.org/2000/svg"
   xmlns:xlink="http://www.w3.org/1999/xlink"
   xmlns:sodipodi="http://sodipodi.sourceforge.net/DTD/sodipodi-0.dtd"
   xmlns:inkscape="http://www.inkscape.org/namespaces/inkscape"
   id="svg2"
   version="1.1"
   inkscape:version="0.92.2 5c3e80d, 2017-08-06"
   width="32"
   height="32"
   viewBox="0 0 32 32"
   sodipodi:docname="user-trash-full.svg">
  <metadata
     id="metadata8">
    <rdf:RDF>
      <cc:Work
         rdf:about="">
        <dc:format>image/svg+xml</dc:format>
        <dc:type
           rdf:resource="http://purl.org/dc/dcmitype/StillImage" />
        <dc:title></dc:title>
      </cc:Work>
    </rdf:RDF>
  </metadata>
  <defs
     id="defs6">
    <linearGradient
       id="linearGradient927"
       inkscape:collect="always">
      <stop
         id="stop923"
         offset="0"
         style="stop-color:#93989e;stop-opacity:1" />
      <stop
         style="stop-color:#767676;stop-opacity:1"
         offset="0.5"
         id="stop929" />
      <stop
         id="stop925"
         offset="1"
         style="stop-color:#838990;stop-opacity:1" />
    </linearGradient>
    <linearGradient
       inkscape:collect="always"
       id="linearGradient898">
      <stop
         style="stop-color:#838990;stop-opacity:1"
         offset="0"
         id="stop894" />
      <stop
         style="stop-color:#161616;stop-opacity:1"
         offset="1"
         id="stop896" />
    </linearGradient>
    <linearGradient
       inkscape:collect="always"
       xlink:href="#linearGradient898"
       id="linearGradient900"
       x1="32"
       y1="6"
       x2="32"
       y2="22"
       gradientUnits="userSpaceOnUse" />
    <linearGradient
       inkscape:collect="always"
       xlink:href="#linearGradient927"
       id="linearGradient921"
       x1="32"
       y1="7"
       x2="32"
       y2="21"
       gradientUnits="userSpaceOnUse" />
    <radialGradient
       inkscape:collect="always"
       xlink:href="#linearGradient904-6"
       id="radialGradient906-3"
       cx="32.049038"
       cy="24.110518"
       fx="32.049038"
       fy="24.110518"
       r="21"
       gradientTransform="matrix(1.2380953,1.3635122e-7,-3.6044529e-8,0.32729126,-7.6797649,6.9819504)"
       gradientUnits="userSpaceOnUse" />
    <linearGradient
       inkscape:collect="always"
       id="linearGradient904-6">
      <stop
         style="stop-color:#717173;stop-opacity:1"
         offset="0"
         id="stop900-7" />
      <stop
         style="stop-color:#9e9ea8;stop-opacity:1"
         offset="1"
         id="stop902-5" />
    </linearGradient>
  </defs>
  <sodipodi:namedview
     pagecolor="#ffffff"
     bordercolor="#666666"
     borderopacity="1"
     objecttolerance="10"
     gridtolerance="10"
     guidetolerance="10"
     inkscape:pageopacity="0"
     inkscape:pageshadow="2"
     inkscape:window-width="1366"
     inkscape:window-height="748"
     id="namedview4"
     showgrid="false"
     inkscape:zoom="32.000001"
     inkscape:cx="10.663011"
     inkscape:cy="24.170715"
     inkscape:window-x="0"
     inkscape:window-y="20"
     inkscape:window-maximized="1"
     inkscape:current-layer="g838"
     inkscape:snap-others="true"
     inkscape:snap-nodes="true"
     showborder="true"
     inkscape:snap-grids="true"
     inkscape:snap-page="true">
    <inkscape:grid
       type="xygrid"
       id="grid834" />
  </sodipodi:namedview>
  <g
     id="g838"
     transform="scale(0.5)">
    <path
       id="path831"
       d="M 32,4 A 24,10 0 0 0 8,14 v 1 l 7,38 a 17,7 0 0 0 17,7 17,7 0 0 0 17,-7 L 56,15 V 14 A 24,10 0 0 0 32,4 Z"
       style="fill:#ccd3dc;fill-opacity:1;stroke:none;stroke-width:1px;stroke-linecap:butt;stroke-linejoin:miter;stroke-opacity:1"
       inkscape:connector-curvature="0" />
    <path
       style="opacity:1;vector-effect:none;fill:#ffffff;fill-opacity:0.37647059;fill-rule:nonzero;stroke:none;stroke-width:2;stroke-linecap:round;stroke-linejoin:round;stroke-miterlimit:4;stroke-dasharray:none;stroke-dashoffset:0;stroke-opacity:1;paint-order:normal"
       d="M 32,4 A 24,10 0 0 0 8.09375,13.175781 24,10.75 0 0 0 8,14 24,10.75 0 0 0 32,24.75 24,10.75 0 0 0 56,14 a 24,10 0 0 0 -0.1211,-0.984375 24,10.75 0 0 0 0,-0.01562 24,10 0 0 0 -0.0078,-0.02344 A 24,10 0 0 0 32,4 Z"
       id="path877"
       inkscape:connector-curvature="0" />
    <ellipse
       cx="32"
       cy="14"
       id="path825-18-3"
       style="opacity:1;vector-effect:none;fill:url(#radialGradient906-3);fill-opacity:1;fill-rule:nonzero;stroke:none;stroke-width:1;stroke-linecap:round;stroke-linejoin:round;stroke-miterlimit:4;stroke-dasharray:none;stroke-dashoffset:0;stroke-opacity:1;paint-order:normal"
       ry="8"
       rx="20" />
    <path
       id="path836"
       d="m 26,10 -6,6 2,3.6875 c 3.275435,0.777938 6.066034,1.13903 10,1.140625 3.428962,-0.0034 7.014667,-0.538347 10,-1.140625 L 46,16 42,12 38,14 34,10 Z"
       style="opacity:1;vector-effect:none;fill:#ffffff;fill-opacity:1;fill-rule:nonzero;stroke:none;stroke-width:1;stroke-linecap:round;stroke-linejoin:round;stroke-miterlimit:4;stroke-dasharray:none;stroke-dashoffset:0;stroke-opacity:1;paint-order:normal"
       inkscape:connector-curvature="0"
       sodipodi:nodetypes="cccccccccc" />
    <path
       id="path836-3"
       d="m 44,12 4,4 -4,3.326594 C 46,18.786842 48.996581,16.929171 50,16 v -4 z"
       style="opacity:1;vector-effect:none;fill:#ffffff;fill-opacity:1;fill-rule:nonzero;stroke:none;stroke-width:1;stroke-linecap:round;stroke-linejoin:round;stroke-miterlimit:4;stroke-dasharray:none;stroke-dashoffset:0;stroke-opacity:1;paint-order:normal"
       inkscape:connector-curvature="0"
       sodipodi:nodetypes="cccccc" />
    <path
       id="path836-3-7"
       d="m 22,10 -8,4 c -0.136555,0.327881 1.375,2 1.375,2 1.0625,1.231712 2.625,2 4.625,3 l -2,-3 5,-5 z"
       style="opacity:1;vector-effect:none;fill:#ffe089;fill-opacity:1;fill-rule:nonzero;stroke:none;stroke-width:1;stroke-linecap:round;stroke-linejoin:round;stroke-miterlimit:4;stroke-dasharray:none;stroke-dashoffset:0;stroke-opacity:1;paint-order:normal"
       inkscape:connector-curvature="0"
       sodipodi:nodetypes="ccccccc" />
  </g>
  <ellipse
     style="opacity:1;vector-effect:none;fill:#ccd3dc;fill-opacity:1;fill-rule:nonzero;stroke:none;stroke-width:1;stroke-linecap:round;stroke-linejoin:round;stroke-miterlimit:4;stroke-dasharray:none;stroke-dashoffset:0;stroke-opacity:1;paint-order:normal"
     id="path844"
     cx="16"
     cy="27"
     rx="8"
     ry="3" />
</svg>
