<?xml version="1.0" encoding="UTF-8" standalone="no"?>
<svg
   xmlns:dc="http://purl.org/dc/elements/1.1/"
   xmlns:cc="http://creativecommons.org/ns#"
   xmlns:rdf="http://www.w3.org/1999/02/22-rdf-syntax-ns#"
   xmlns:svg="http://www.w3.org/2000/svg"
   xmlns="http://www.w3.org/2000/svg"
   xmlns:xlink="http://www.w3.org/1999/xlink"
   xmlns:sodipodi="http://sodipodi.sourceforge.net/DTD/sodipodi-0.dtd"
   xmlns:inkscape="http://www.inkscape.org/namespaces/inkscape"
   width="48"
   height="48"
   version="1.1"
   id="svg60"
   sodipodi:docname="ark.svg"
   inkscape:version="0.92.4 (5da689c313, 2019-01-14)">
  <metadata
     id="metadata64">
    <rdf:RDF>
      <cc:Work
         rdf:about="">
        <dc:format>image/svg+xml</dc:format>
        <dc:type
           rdf:resource="http://purl.org/dc/dcmitype/StillImage" />
        <dc:title></dc:title>
      </cc:Work>
    </rdf:RDF>
  </metadata>
  <sodipodi:namedview
     pagecolor="#ffffff"
     bordercolor="#666666"
     borderopacity="1"
     objecttolerance="10"
     gridtolerance="10"
     guidetolerance="10"
     inkscape:pageopacity="0"
     inkscape:pageshadow="2"
     inkscape:window-width="862"
     inkscape:window-height="480"
     id="namedview62"
     showgrid="false"
     inkscape:zoom="4.9166667"
     inkscape:cx="2.1355932"
     inkscape:cy="24"
     inkscape:window-x="0"
     inkscape:window-y="25"
     inkscape:window-maximized="0"
     inkscape:current-layer="svg60" />
  <defs
     id="defs28">
    <linearGradient
       id="a"
       y1="543.8"
       y2="503.8"
       x2="0"
       gradientUnits="userSpaceOnUse"
       gradientTransform="matrix(1.125 0 0 1 -51.07 0)">
      <stop
         stop-color="#c6cdd1"
         id="stop2" />
      <stop
         offset="1"
         stop-color="#e0e5e7"
         id="stop4" />
    </linearGradient>
    <linearGradient
       id="c"
       y1="543.8"
       y2="503.8"
       x2="0"
       gradientUnits="userSpaceOnUse"
       gradientTransform="translate(-384.57,-499.8)">
      <stop
         stop-color="#1d1e1e"
         id="stop7" />
      <stop
         offset="1"
         stop-color="#44484c"
         id="stop9" />
    </linearGradient>
    <linearGradient
       xlink:href="#a"
       id="e"
       y1="506.8"
       y2="504.8"
       x2="0"
       gradientUnits="userSpaceOnUse" />
    <linearGradient
       xlink:href="#a"
       id="f"
       y1="508.8"
       y2="506.8"
       gradientUnits="userSpaceOnUse"
       x2="0" />
    <linearGradient
       xlink:href="#a"
       id="g"
       y1="510.8"
       y2="508.8"
       gradientUnits="userSpaceOnUse"
       x2="0" />
    <linearGradient
       xlink:href="#a"
       id="h"
       y1="512.8"
       y2="510.8"
       gradientUnits="userSpaceOnUse"
       x2="0" />
    <linearGradient
       xlink:href="#a"
       id="i"
       y1="514.8"
       y2="512.8"
       gradientUnits="userSpaceOnUse"
       x2="0" />
    <linearGradient
       xlink:href="#a"
       id="j"
       y1="516.8"
       y2="514.8"
       gradientUnits="userSpaceOnUse"
       x2="0" />
    <linearGradient
       xlink:href="#a"
       id="k"
       y1="518.8"
       y2="516.8"
       gradientUnits="userSpaceOnUse"
       x2="0" />
    <linearGradient
       xlink:href="#a"
       id="l"
       y1="520.8"
       y2="518.8"
       gradientUnits="userSpaceOnUse"
       x2="0" />
    <linearGradient
       xlink:href="#a"
       id="m"
       y1="523.8"
       y2="520.8"
       gradientUnits="userSpaceOnUse"
       x2="0" />
    <linearGradient
       xlink:href="#a"
       id="n"
       y1="33"
       y2="25"
       x2="0"
       gradientUnits="userSpaceOnUse" />
    <linearGradient
       id="d"
       y1="7"
       x1="10"
       y2="32"
       x2="35"
       gradientUnits="userSpaceOnUse">
      <stop
         stop-color="#383e51"
         id="stop22" />
      <stop
         offset="1"
         stop-color="#655c6f"
         stop-opacity="0"
         id="stop24" />
    </linearGradient>
    <linearGradient
       xlink:href="#a"
       id="b"
       gradientUnits="userSpaceOnUse"
       gradientTransform="matrix(1.125,0,0,1,-435.64,-499.8)"
       y1="543.8"
       x2="0"
       y2="503.8" />
  </defs>
  <path
     d="M 11.504,4 A 5.487,5.487 0 0 0 7.609,5.61 5.487,5.487 0 0 0 6,9.503 V 44 H 42 V 9.504 A 5.487,5.487 0 0 0 40.39,5.609 5.487,5.487 0 0 0 36.497,4 Z"
     id="path30"
     style="fill:url(#b)"
     inkscape:connector-curvature="0" />
  <path
     d="m 20,4 h 8 v 40 h -8 z"
     id="path32"
     style="fill:url(#c)"
     inkscape:connector-curvature="0" />
  <path
     d="m 28,7 v 3 h -3 l 3,3 v 1 h -3 l 3,3 v 1 h -3 l 3,3 v 1 H 25 L 42,39 V 21 l -2,-2 z m -2,18 v 4 h -1 v 4 h -2 l 11,11 h 8 v -3 l -2,-2 z"
     id="path34"
     style="opacity:0.2;fill:url(#d);fill-rule:evenodd"
     inkscape:connector-curvature="0" />
  <g
     id="g58"
     style="stroke-width:2.79999995;stroke-opacity:0.55">
    <path
       d="m 404.57,504.8 v 3 h 3 v -1 h 1 v -1 h -1 v -1 z"
       transform="translate(-384.57,-499.8)"
       id="path36"
       style="fill:url(#e)"
       inkscape:connector-curvature="0" />
    <path
       d="m 412.57,506.8 v 3 h -3 v -1 h -1 v -1 h 1 v -1 z"
       transform="translate(-384.57,-499.8)"
       id="path38"
       style="fill:url(#f)"
       inkscape:connector-curvature="0" />
    <path
       d="m 404.57,508.8 v 3 h 3 v -1 h 1 v -1 h -1 v -1 z"
       transform="translate(-384.57,-499.8)"
       id="path40"
       style="fill:url(#g)"
       inkscape:connector-curvature="0" />
    <path
       d="m 412.57,510.8 v 3 h -3 v -1 h -1 v -1 h 1 v -1 z"
       transform="translate(-384.57,-499.8)"
       id="path42"
       style="fill:url(#h)"
       inkscape:connector-curvature="0" />
    <path
       d="m 404.57,512.8 v 3 h 3 v -1 h 1 v -1 h -1 v -1 z"
       transform="translate(-384.57,-499.8)"
       id="path44"
       style="fill:url(#i)"
       inkscape:connector-curvature="0" />
    <path
       d="m 412.57,514.8 v 3 h -3 v -1 h -1 v -1 h 1 v -1 z"
       transform="translate(-384.57,-499.8)"
       id="path46"
       style="fill:url(#j)"
       inkscape:connector-curvature="0" />
    <path
       d="m 404.57,516.8 v 3 h 3 v -1 h 1 v -1 h -1 v -1 z"
       transform="translate(-384.57,-499.8)"
       id="path48"
       style="fill:url(#k)"
       inkscape:connector-curvature="0" />
    <path
       d="m 412.57,518.8 v 3 h -3 v -1 h -1 v -1 h 1 v -1 z"
       transform="translate(-384.57,-499.8)"
       id="path50"
       style="fill:url(#l)"
       inkscape:connector-curvature="0" />
    <path
       d="m 404.57,520.8 v 3 h 3 v -1 h 1 v -1 h -1 v -1 z"
       transform="translate(-384.57,-499.8)"
       id="path52"
       style="fill:url(#m)"
       inkscape:connector-curvature="0" />
    <path
       d="m 22,25 v 4 h 1 v 4 h 2 v -4 h 1 v -4 z m 1,1 h 2 v 2 h -2 z"
       id="path54"
       style="fill:url(#n)"
       inkscape:connector-curvature="0" />
    <path
       d="m 6,43 h 36 v 1 H 6 Z"
       id="path56"
       inkscape:connector-curvature="0"
       style="fill:#99a1a7" />
  </g>
</svg>
