<?xml version="1.0" encoding="UTF-8" standalone="no"?>
<svg
   xmlns:dc="http://purl.org/dc/elements/1.1/"
   xmlns:cc="http://creativecommons.org/ns#"
   xmlns:rdf="http://www.w3.org/1999/02/22-rdf-syntax-ns#"
   xmlns:svg="http://www.w3.org/2000/svg"
   xmlns="http://www.w3.org/2000/svg"
   xmlns:xlink="http://www.w3.org/1999/xlink"
   xmlns:sodipodi="http://sodipodi.sourceforge.net/DTD/sodipodi-0.dtd"
   xmlns:inkscape="http://www.inkscape.org/namespaces/inkscape"
   width="48"
   height="48"
   version="1.1"
   id="svg51"
   sodipodi:docname="calibre-ebook-edit.svg"
   inkscape:version="0.92.4 (5da689c313, 2019-01-14)">
  <metadata
     id="metadata55">
    <rdf:RDF>
      <cc:Work
         rdf:about="">
        <dc:format>image/svg+xml</dc:format>
        <dc:type
           rdf:resource="http://purl.org/dc/dcmitype/StillImage" />
        <dc:title></dc:title>
      </cc:Work>
    </rdf:RDF>
  </metadata>
  <sodipodi:namedview
     pagecolor="#ffffff"
     bordercolor="#666666"
     borderopacity="1"
     objecttolerance="10"
     gridtolerance="10"
     guidetolerance="10"
     inkscape:pageopacity="0"
     inkscape:pageshadow="2"
     inkscape:window-width="862"
     inkscape:window-height="480"
     id="namedview53"
     showgrid="false"
     inkscape:zoom="4.9166667"
     inkscape:cx="2.1355932"
     inkscape:cy="24"
     inkscape:window-x="0"
     inkscape:window-y="25"
     inkscape:window-maximized="0"
     inkscape:current-layer="svg51" />
  <defs
     id="defs31">
    <linearGradient
       id="d">
      <stop
         offset="0"
         stop-color="#ffa92d"
         id="stop2" />
      <stop
         offset="1"
         stop-color="#ffdaa5"
         id="stop4" />
    </linearGradient>
    <linearGradient
       id="b">
      <stop
         offset="0"
         stop-color="#fff"
         id="stop7" />
      <stop
         offset="1"
         stop-color="#fff"
         stop-opacity="0"
         id="stop9" />
    </linearGradient>
    <linearGradient
       id="a">
      <stop
         stop-color="#426467"
         id="stop12" />
      <stop
         offset="1"
         stop-color="#525b58"
         id="stop14" />
    </linearGradient>
    <linearGradient
       id="c"
       y1="-.883"
       x1="-41.26"
       y2="37.956"
       x2="-2.994"
       gradientUnits="userSpaceOnUse"
       gradientTransform="translate(-1.01 -1.022)">
      <stop
         stop-color="#21c9fb"
         id="stop17" />
      <stop
         offset="1"
         stop-color="#1a86f2"
         id="stop19" />
    </linearGradient>
    <linearGradient
       xlink:href="#c"
       id="g"
       x1="45"
       y1="36"
       x2="14"
       y2="12"
       gradientUnits="userSpaceOnUse" />
    <linearGradient
       id="i"
       y1="4"
       x1="8"
       y2="18"
       gradientUnits="userSpaceOnUse"
       x2="22">
      <stop
         stop-color="#292c2f"
         id="stop23" />
      <stop
         offset="1"
         stop-opacity="0"
         id="stop25" />
    </linearGradient>
    <linearGradient
       xlink:href="#b"
       id="h"
       y1="527.798"
       x2="0"
       y2="504.798"
       gradientUnits="userSpaceOnUse"
       gradientTransform="translate(-384.571,-499.798)" />
    <linearGradient
       xlink:href="#d"
       id="f"
       x1="14"
       y1="21"
       x2="14"
       y2="4"
       gradientUnits="userSpaceOnUse"
       gradientTransform="translate(-2)" />
    <linearGradient
       xlink:href="#a"
       id="e"
       gradientUnits="userSpaceOnUse"
       gradientTransform="matrix(1.125,0,0,1,-435.643,-499.798)"
       y1="543.798"
       x2="0"
       y2="503.798" />
  </defs>
  <path
     d="M 6,4 V 44 H 35.355 A 6.63,6.63 0 0 0 42,37.355 V 10.645 A 6.63,6.63 0 0 0 35.355,4 h -22.71 z"
     id="path33"
     style="fill:url(#e)"
     inkscape:connector-curvature="0" />
  <path
     d="m 6,43 v 1 h 29.355 c 0.92,0 1.797,-0.184 2.592,-0.52 0.269,-0.113 0.464,-0.334 0.713,-0.48 z"
     id="path35"
     inkscape:connector-curvature="0"
     style="opacity:0.15" />
  <path
     d="M 6,4 H 8 V 44 H 6 Z"
     id="path37"
     inkscape:connector-curvature="0"
     style="opacity:0.6;fill:#080809" />
  <path
     d="m 38.66,43 c 0.489,-0.287 1.001,-0.544 1.399,-0.941 0.016,-0.017 0.022,-0.042 0.039,-0.059 H 8 v 1 z"
     id="path39"
     inkscape:connector-curvature="0"
     style="fill:#8b8f8f" />
  <path
     d="m 40.098,42 c 0.281,-0.287 0.448,-0.665 0.673,-1 H 8 v 1 z"
     id="path41"
     inkscape:connector-curvature="0"
     style="fill:#212323;fill-opacity:0.45199998" />
  <path
     d="M 8,4 V 21 L 12,18.691 16,21 V 4 Z"
     id="path43"
     style="fill:url(#f)"
     inkscape:connector-curvature="0" />
  <path
     d="m 41.018,11.809 -7.99,5.806 0.56,0.77 6.74,-4.897 c 0.234,0.3 0.409,0.512 0.586,0.639 l -23.24,16.887 1.943,2.677 25.324,-18.401 -1.943,-2.676 -0.947,0.69 c -0.081,-0.205 -0.25,-0.43 -0.473,-0.723 z m -23.61,19.36 -3.488,4.427 5.5,-1.698 z"
     id="path45"
     style="fill:url(#g);fill-rule:evenodd"
     inkscape:connector-curvature="0" />
  <path
     d="m 9,4 h 6 v 15 l -3,-2 -3,2 z"
     id="path47"
     style="opacity:0.15;fill:url(#h)"
     inkscape:connector-curvature="0" />
  <path
     d="m 31,44 h 4.355 A 6.63,6.63 0 0 0 42,37.355 V 30 L 16,4 V 21 L 12,18.691 8,21 Z"
     id="path49"
     style="opacity:0.2;fill:url(#i);fill-rule:evenodd"
     inkscape:connector-curvature="0" />
</svg>
