<?xml version="1.0" encoding="UTF-8" standalone="no"?>
<svg
   xmlns:dc="http://purl.org/dc/elements/1.1/"
   xmlns:cc="http://creativecommons.org/ns#"
   xmlns:rdf="http://www.w3.org/1999/02/22-rdf-syntax-ns#"
   xmlns:svg="http://www.w3.org/2000/svg"
   xmlns="http://www.w3.org/2000/svg"
   xmlns:xlink="http://www.w3.org/1999/xlink"
   xmlns:sodipodi="http://sodipodi.sourceforge.net/DTD/sodipodi-0.dtd"
   xmlns:inkscape="http://www.inkscape.org/namespaces/inkscape"
   width="48"
   height="48"
   version="1.1"
   id="svg76"
   sodipodi:docname="choqok.svg"
   inkscape:version="0.92.4 (5da689c313, 2019-01-14)">
  <metadata
     id="metadata80">
    <rdf:RDF>
      <cc:Work
         rdf:about="">
        <dc:format>image/svg+xml</dc:format>
        <dc:type
           rdf:resource="http://purl.org/dc/dcmitype/StillImage" />
        <dc:title></dc:title>
      </cc:Work>
    </rdf:RDF>
  </metadata>
  <sodipodi:namedview
     pagecolor="#ffffff"
     bordercolor="#666666"
     borderopacity="1"
     objecttolerance="10"
     gridtolerance="10"
     guidetolerance="10"
     inkscape:pageopacity="0"
     inkscape:pageshadow="2"
     inkscape:window-width="862"
     inkscape:window-height="480"
     id="namedview78"
     showgrid="false"
     inkscape:zoom="4.9166667"
     inkscape:cx="2.1355932"
     inkscape:cy="24"
     inkscape:window-x="0"
     inkscape:window-y="25"
     inkscape:window-maximized="0"
     inkscape:current-layer="svg76" />
  <defs
     id="defs34">
    <linearGradient
       id="c"
       y1="44"
       y2="8.07"
       x2="0"
       gradientUnits="userSpaceOnUse">
      <stop
         stop-color="#42a603"
         id="stop2" />
      <stop
         offset="1"
         stop-color="#78da06"
         id="stop4" />
    </linearGradient>
    <linearGradient
       id="k"
       y1="519.46"
       x1="406.13"
       y2="525.15"
       x2="416.44"
       gradientUnits="userSpaceOnUse"
       gradientTransform="matrix(1.27402,-0.19577,0.10158,1,-551.34,-414.68)">
      <stop
         stop-color="#ffc35a"
         id="stop7" />
      <stop
         offset="1"
         stop-color="#faae2a"
         id="stop9" />
    </linearGradient>
    <linearGradient
       id="b"
       y1="529.48"
       x1="410.03"
       y2="538.67"
       x2="417.08"
       gradientUnits="userSpaceOnUse">
      <stop
         id="stop12" />
      <stop
         offset="1"
         stop-opacity="0"
         id="stop14" />
    </linearGradient>
    <linearGradient
       id="a"
       y1="511.8"
       x1="388.57"
       y2="527.59"
       x2="400.57"
       gradientUnits="userSpaceOnUse">
      <stop
         stop-color="#fff"
         id="stop17" />
      <stop
         offset="1"
         stop-color="#d9fafd"
         id="stop19" />
    </linearGradient>
    <linearGradient
       xlink:href="#a"
       id="i"
       y1="507.8"
       x1="418.57"
       y2="523.31"
       x2="430.07"
       gradientUnits="userSpaceOnUse"
       gradientTransform="translate(-384.57,-499.8)" />
    <linearGradient
       id="g"
       y1="529.39"
       x1="417.19"
       y2="532.27"
       x2="420.64"
       gradientUnits="userSpaceOnUse"
       gradientTransform="translate(-384.57,-499.8)">
      <stop
         stop-color="#f39c12"
         id="stop23" />
      <stop
         offset="1"
         stop-color="#f5ab35"
         id="stop25" />
    </linearGradient>
    <linearGradient
       xlink:href="#b"
       id="f"
       y1="518.99"
       x1="393.76"
       y2="525.91"
       x2="400.69"
       gradientUnits="userSpaceOnUse"
       gradientTransform="translate(-384.57,-499.8)" />
    <linearGradient
       xlink:href="#b"
       id="e"
       y1="518.8"
       x1="418.57"
       y2="525.8"
       x2="425.57"
       gradientUnits="userSpaceOnUse"
       gradientTransform="translate(-384.57,-499.8)" />
    <linearGradient
       xlink:href="#c"
       id="l"
       y1="508.05"
       x1="419.63"
       y2="504.42"
       x2="422.26"
       gradientUnits="userSpaceOnUse"
       gradientTransform="translate(-384.57,-499.8)" />
    <linearGradient
       xlink:href="#a"
       id="h"
       gradientUnits="userSpaceOnUse"
       x1="388.57"
       y1="511.8"
       x2="400.57"
       y2="527.59"
       gradientTransform="translate(-384.57,-499.8)" />
    <linearGradient
       xlink:href="#b"
       id="j"
       gradientUnits="userSpaceOnUse"
       x1="410.03"
       y1="529.48"
       x2="417.08"
       y2="538.67"
       gradientTransform="translate(-384.57,-499.8)" />
    <linearGradient
       xlink:href="#c"
       id="d"
       gradientUnits="userSpaceOnUse"
       y1="44"
       x2="0"
       y2="8.07" />
  </defs>
  <path
     d="m 12.953,8 c -1.24,0 -2.42,0.25 -3.492,0.701 A 8.928,8.928 0 0 0 6.617,10.617 8.928,8.928 0 0 0 4.701,13.461 8.97,8.97 0 0 0 4,16.953 v 12.094 c 0,1.24 0.25,2.42 0.701,3.492 A 8.928,8.928 0 0 0 6.617,35.383 8.928,8.928 0 0 0 9.461,37.299 8.97,8.97 0 0 0 12.953,38 H 28 l 7,6 v -6 h 0.047 c 1.24,0 2.42,-0.25 3.492,-0.701 A 8.928,8.928 0 0 0 41.383,35.383 8.928,8.928 0 0 0 43.299,32.539 8.97,8.97 0 0 0 44,29.047 V 8 h -8.953 z"
     id="path36"
     style="fill:url(#d);fill-rule:evenodd"
     inkscape:connector-curvature="0" />
  <path
     d="M 34,19 44,29 V 19 Z"
     id="path38"
     style="opacity:0.1;fill:url(#e);fill-rule:evenodd"
     inkscape:connector-curvature="0" />
  <path
     d="m 14.25,13.87 10,10 -11.25,9.625 -9,-9 z"
     id="path40"
     style="opacity:0.1;fill:url(#f);fill-rule:evenodd"
     inkscape:connector-curvature="0" />
  <path
     d="m 16,30 c 7.883,7.515 15.183,7.239 18.736,2.951 C 38.29,28.663 35.631,25 35.631,25 Z"
     id="path42"
     style="fill:url(#g);fill-rule:evenodd"
     inkscape:connector-curvature="0" />
  <path
     d="M 6.151,11.088 A 8.801,8.801 0 0 0 4.701,13.461 8.97,8.97 0 0 0 4,16.953 V 24.49 A 7.457,7.457 0 0 0 8.5,26 c 4.142,0 8.531,-1.858 8.531,-6 0,-4.142 -4.389,-9 -8.531,-9 -0.781,0 -1.641,-0.018 -2.349,0.088 z"
     id="path44"
     style="color:#000000;fill:url(#h)"
     inkscape:connector-curvature="0" />
  <path
     d="m 35,8 c -2.132,2.607 -3.492,5.765 -2.482,8.842 1.413,4.304 6.287,4.841 10.289,3.527 A 7.097,7.097 0 0 0 44,19.844 V 8.001 Z"
     id="path46"
     style="color:#000000;fill:url(#i)"
     inkscape:connector-curvature="0" />
  <g
     transform="translate(-384.57,-499.8)"
     id="g52"
     style="color:#000000;fill:#31363b;stroke-width:3;stroke-linecap:round;stroke-linejoin:round">
    <circle
       cx="395.07001"
       cy="518.29999"
       r="3.5"
       id="circle48" />
    <circle
       cx="421.07001"
       cy="514.29999"
       r="3.5"
       id="circle50" />
  </g>
  <path
     d="m 17,30 c 5.99,6.172 13.883,5.86 16.583,2.339 2.701,-3.522 0.68,-6.53 0.68,-6.53 z"
     id="path54"
     inkscape:connector-curvature="0"
     style="fill:#192629;fill-rule:evenodd" />
  <path
     d="m 31.45,31.85 c -2.06,0.073 -4.539,0.715 -6.829,1.883 3.244,0.942 5.47,0.429 7.243,-0.677 0.643,-0.401 1.115,-0.693 1.269,-1.121 A 9.263,9.263 0 0 0 31.45,31.85"
     id="path56"
     inkscape:connector-curvature="0"
     style="fill:#da4453;fill-rule:evenodd" />
  <path
     d="m 24,38 h 4 l 7,6 v -6 h 0.047 c 1.24,0 2.42,-0.25 3.492,-0.701 a 8.928,8.928 0 0 0 2.844,-1.916 8.928,8.928 0 0 0 1.916,-2.844 c 0.026,-0.061 0.016,-0.137 0.04,-0.2 L 36,25 16,30 Z"
     id="path58"
     style="opacity:0.2;fill:url(#j);fill-rule:evenodd"
     inkscape:connector-curvature="0" />
  <path
     d="m 16,30 c 0,0 1.432,-4.319 8.931,-6.267 7.499,-1.948 11.07,1.267 11.07,1.267 0.999,2.908 -8.664,7.427 -8.664,7.427 0,0 -10.699,0.576 -11.334,-2.427"
     id="path60"
     style="fill:url(#k);fill-rule:evenodd"
     inkscape:connector-curvature="0" />
  <path
     d="m 44,8 c 0,-3 -4.75,-4 -4.75,-4 0,0 -0.589,1.268 0,2 C 37,4 35,5 35,5 c 0,0 0.504,1.312 1.25,2 -1.199,-0.575 -2.5,0 -2.5,0 0,0 0.679,1 1.25,1 z"
     id="path62"
     style="fill:url(#l);fill-rule:evenodd"
     inkscape:connector-curvature="0" />
  <g
     id="g68"
     style="fill:#31363b;fill-rule:evenodd">
    <path
       d="m 44.002,20 c 0,0 4.255,-0.491 3.81,-1.531 C 47.369,17.43 44.003,20 44.003,20 m -10e-4,0 c 0,0 3.067,-2.902 2.063,-3.464 C 45.06,15.974 44.002,20 44.002,20"
       id="path64"
       inkscape:connector-curvature="0" />
    <path
       d="m 44.002,20 c 0,0 3.685,2.122 3.985,1.035 C 48.287,19.948 44.002,20 44.002,20"
       id="path66"
       inkscape:connector-curvature="0" />
  </g>
  <g
     id="g74"
     style="fill:#31363b;fill-rule:evenodd">
    <path
       d="m 4.001,27 c 0,0 -3.685,2.122 -3.985,1.035 C -0.284,26.948 4.001,27 4.001,27 m 0,0 c 0,0 -4.255,-0.491 -3.811,-1.531 C 0.634,24.43 4.001,27 4.001,27"
       id="path70"
       inkscape:connector-curvature="0" />
    <path
       d="m 4.001,27 c 0,0 -1.591,3.858 -2.511,3.173 C 0.569,29.488 4,27 4,27"
       id="path72"
       inkscape:connector-curvature="0" />
  </g>
</svg>
