<?xml version="1.0" encoding="UTF-8" standalone="no"?>
<svg
   xmlns:dc="http://purl.org/dc/elements/1.1/"
   xmlns:cc="http://creativecommons.org/ns#"
   xmlns:rdf="http://www.w3.org/1999/02/22-rdf-syntax-ns#"
   xmlns:svg="http://www.w3.org/2000/svg"
   xmlns="http://www.w3.org/2000/svg"
   xmlns:sodipodi="http://sodipodi.sourceforge.net/DTD/sodipodi-0.dtd"
   xmlns:inkscape="http://www.inkscape.org/namespaces/inkscape"
   width="48"
   height="48"
   version="1.1"
   id="svg35"
   sodipodi:docname="knetattach.svg"
   inkscape:version="0.92.4 (5da689c313, 2019-01-14)">
  <metadata
     id="metadata39">
    <rdf:RDF>
      <cc:Work
         rdf:about="">
        <dc:format>image/svg+xml</dc:format>
        <dc:type
           rdf:resource="http://purl.org/dc/dcmitype/StillImage" />
        <dc:title></dc:title>
      </cc:Work>
    </rdf:RDF>
  </metadata>
  <sodipodi:namedview
     pagecolor="#ffffff"
     bordercolor="#666666"
     borderopacity="1"
     objecttolerance="10"
     gridtolerance="10"
     guidetolerance="10"
     inkscape:pageopacity="0"
     inkscape:pageshadow="2"
     inkscape:window-width="896"
     inkscape:window-height="480"
     id="namedview37"
     showgrid="false"
     inkscape:zoom="4.9166667"
     inkscape:cx="2.1355932"
     inkscape:cy="24"
     inkscape:window-x="0"
     inkscape:window-y="0"
     inkscape:window-maximized="0"
     inkscape:current-layer="svg35" />
  <defs
     id="defs17">
    <linearGradient
       id="b"
       y1="543.8"
       y2="509.8"
       x2="0"
       gradientUnits="userSpaceOnUse"
       gradientTransform="translate(-384.57,-499.8)">
      <stop
         stop-color="#2f74c8"
         id="stop2" />
      <stop
         offset="1"
         stop-color="#4699d7"
         id="stop4" />
    </linearGradient>
    <linearGradient
       id="c"
       y1="17"
       x1="18"
       y2="32"
       x2="33"
       gradientUnits="userSpaceOnUse"
       gradientTransform="translate(0,5)">
      <stop
         stop-color="#383e51"
         id="stop7" />
      <stop
         offset="1"
         stop-color="#655c6f"
         stop-opacity="0"
         id="stop9" />
    </linearGradient>
    <linearGradient
       id="a">
      <stop
         stop-color="#127bdc"
         id="stop12" />
      <stop
         offset="1"
         stop-color="#64b4f4"
         id="stop14" />
    </linearGradient>
  </defs>
  <path
     d="M 4.43,4 A 4.42,4.42 0 0 0 0,8.43 V 14 h 48 v -1.986 l -0.016,0.02 C 47.984,12.019 48,12.011 48,11.996 48,10.89 47.11,10 46.004,10 H 31 L 25,4 H 6.311 Z"
     id="path19"
     inkscape:connector-curvature="0"
     style="fill:#084883" />
  <path
     d="m 0,14 v 12.922 l 0.03,0.002 v 10.283 c 0,0.114 0.028,0.22 0.033,0.33 v 0.033 a 6.258,6.04 0 0 0 6.255,6.055 h 35.38 c 0.054,0 0.097,-0.03 0.152,-0.031 A 6.237,6.02 0 0 0 47.97,37.57 V 28.348 H 48 V 14 Z"
     id="path21"
     style="fill:url(#b)"
     inkscape:connector-curvature="0" />
  <path
     d="m 0,14 h 48 v 1 H 0 Z"
     id="path23"
     inkscape:connector-curvature="0"
     style="fill:#2f77c2" />
  <path
     d="M 2.373,4.57 C 1.987,4.776 1.601,4.989 1.295,5.295 A 4.42,4.42 0 0 0 0,8.43 V 14 h 48 v -1.986 l -0.016,0.02 C 47.984,12.019 48,12.011 48,11.996 48,11.443 47.777,10.945 47.416,10.584 47.056,10.224 46.556,10 46.004,10 H 25 Z"
     id="path25"
     inkscape:connector-curvature="0"
     style="fill:#5f5f5f;fill-opacity:0.11799999;fill-rule:evenodd" />
  <path
     d="M 4.43,4 C 4.117,4 3.843,4.117 3.549,4.178 L 20,5 31,11 46.252,10.104 C 46.159,10.09 46.102,10 46.004,10 H 31 L 25,4 Z"
     id="path27"
     inkscape:connector-curvature="0"
     style="fill:#ffffff;fill-opacity:0.05899999;fill-rule:evenodd" />
  <path
     d="m 32.16,19.56 -15.544,9.184 -0.065,0.614 -1.052,0.823 16.718,13.145 14.116,-1.744 1.188,-3.064 0.456,-3.499 z"
     id="path29"
     style="opacity:0.2;fill:url(#c);fill-rule:evenodd"
     inkscape:connector-curvature="0" />
  <path
     d="m 31.001,18.998 a 2,2 0 0 0 -2,2 2,2 0 0 0 2,2 2,2 0 0 0 2,-2 2,2 0 0 0 -2,-2 m -3.5,3 a 0.5,0.5 0 0 0 -0.5,0.5 0.5,0.5 0 0 0 0.5,0.5 0.5,0.5 0 0 0 0.5,-0.5 0.5,0.5 0 0 0 -0.5,-0.5 m -3,2 a 0.5,0.5 0 0 0 -0.5,0.5 0.5,0.5 0 0 0 0.5,0.5 0.5,0.5 0 0 0 0.5,-0.5 0.5,0.5 0 0 0 -0.5,-0.5 m -3,2 a 0.5,0.5 0 0 0 -0.5,0.5 0.5,0.5 0 0 0 0.5,0.5 0.5,0.5 0 0 0 0.5,-0.5 0.5,0.5 0 0 0 -0.5,-0.5 m -4.5,1 a 2,2 0 0 0 -2,2 2,2 0 0 0 2,2 2,2 0 0 0 2,-2 2,2 0 0 0 -2,-2 m 4.5,4 a 0.5,0.5 0 0 0 -0.5,0.5 0.5,0.5 0 0 0 0.5,0.5 0.5,0.5 0 0 0 0.5,-0.5 0.5,0.5 0 0 0 -0.5,-0.5 m 3,2 a 0.5,0.5 0 0 0 -0.5,0.5 0.5,0.5 0 0 0 0.5,0.5 0.5,0.5 0 0 0 0.5,-0.5 0.5,0.5 0 0 0 -0.5,-0.5 m 3,2 a 0.5,0.5 0 0 0 -0.5,0.5 0.5,0.5 0 0 0 0.5,0.5 0.5,0.5 0 0 0 0.5,-0.5 0.5,0.5 0 0 0 -0.5,-0.5 m 3.5,0 a 2,2 0 0 0 -2,2 2,2 0 0 0 2,2 2,2 0 0 0 2,-2 2,2 0 0 0 -2,-2"
     id="path31"
     inkscape:connector-curvature="0"
     style="color:#000000;fill:#ffffff;fill-rule:evenodd" />
  <path
     overflow="visible"
     d="m 1.733,41.624 c 0.063,0.066 0.09,0.162 0.156,0.225 a 6.263,6.045 0 0 0 4.43,1.774 h 35.378 c 0.054,0 0.1,-0.026 0.153,-0.028 a 6.258,6.04 0 0 0 4.336,-1.802 c 0.06,-0.061 0.088,-0.148 0.147,-0.211 z"
     style="color:#000000;overflow:visible;isolation:auto;mix-blend-mode:normal;fill:#2f5cc2;marker:none"
     id="path33"
     inkscape:connector-curvature="0" />
</svg>
