<?xml version="1.0" encoding="UTF-8" standalone="no"?>
<svg
   xmlns:dc="http://purl.org/dc/elements/1.1/"
   xmlns:cc="http://creativecommons.org/ns#"
   xmlns:rdf="http://www.w3.org/1999/02/22-rdf-syntax-ns#"
   xmlns:svg="http://www.w3.org/2000/svg"
   xmlns="http://www.w3.org/2000/svg"
   xmlns:xlink="http://www.w3.org/1999/xlink"
   xmlns:sodipodi="http://sodipodi.sourceforge.net/DTD/sodipodi-0.dtd"
   xmlns:inkscape="http://www.inkscape.org/namespaces/inkscape"
   width="48"
   height="48"
   version="1.1"
   id="svg30"
   sodipodi:docname="konversation.svg"
   inkscape:version="0.92.4 (5da689c313, 2019-01-14)">
  <metadata
     id="metadata34">
    <rdf:RDF>
      <cc:Work
         rdf:about="">
        <dc:format>image/svg+xml</dc:format>
        <dc:type
           rdf:resource="http://purl.org/dc/dcmitype/StillImage" />
        <dc:title></dc:title>
      </cc:Work>
    </rdf:RDF>
  </metadata>
  <sodipodi:namedview
     pagecolor="#ffffff"
     bordercolor="#666666"
     borderopacity="1"
     objecttolerance="10"
     gridtolerance="10"
     guidetolerance="10"
     inkscape:pageopacity="0"
     inkscape:pageshadow="2"
     inkscape:window-width="862"
     inkscape:window-height="480"
     id="namedview32"
     showgrid="false"
     inkscape:zoom="4.9166667"
     inkscape:cx="2.1355932"
     inkscape:cy="24"
     inkscape:window-x="0"
     inkscape:window-y="25"
     inkscape:window-maximized="0"
     inkscape:current-layer="svg30" />
  <defs
     id="defs20">
    <linearGradient
       id="f"
       y1="34"
       y2="4"
       x2="0"
       gradientUnits="userSpaceOnUse">
      <stop
         stop-color="#7cbaf8"
         id="stop2" />
      <stop
         offset="1"
         stop-color="#f4fcff"
         id="stop4" />
    </linearGradient>
    <linearGradient
       id="a"
       y1="509.8"
       x1="405.57"
       y2="533.8"
       x2="427.57"
       gradientUnits="userSpaceOnUse">
      <stop
         stop-opacity=".286"
         id="stop7" />
      <stop
         offset="1"
         stop-opacity="0"
         id="stop9" />
    </linearGradient>
    <linearGradient
       xlink:href="#a"
       id="e"
       y1="514.8"
       x1="412.57"
       y2="527.8"
       x2="425.57"
       gradientUnits="userSpaceOnUse"
       gradientTransform="translate(-384.57,-499.8)" />
    <linearGradient
       id="b"
       y1="44"
       y2="4"
       x2="0"
       gradientUnits="userSpaceOnUse"
       gradientTransform="matrix(-1 0 0 1 -12 0)">
      <stop
         stop-color="#2f74c8"
         id="stop13" />
      <stop
         offset="1"
         stop-color="#4699d7"
         id="stop15" />
    </linearGradient>
    <linearGradient
       xlink:href="#a"
       id="d"
       gradientUnits="userSpaceOnUse"
       x1="405.57"
       y1="509.8"
       x2="427.57"
       y2="533.8"
       gradientTransform="translate(-384.57,-499.8)" />
    <linearGradient
       xlink:href="#b"
       id="c"
       gradientUnits="userSpaceOnUse"
       gradientTransform="matrix(-1,0,0,1,48,0)"
       y1="44"
       x2="0"
       y2="4" />
  </defs>
  <path
     d="m 12.953,4 c -1.24,0 -2.42,0.25 -3.492,0.701 A 8.928,8.928 0 0 0 6.617,6.617 8.928,8.928 0 0 0 4.701,9.461 8.97,8.97 0 0 0 4,12.953 v 12.094 c 0,1.24 0.25,2.42 0.701,3.492 A 8.928,8.928 0 0 0 6.617,31.383 8.928,8.928 0 0 0 9.461,33.299 8.97,8.97 0 0 0 12.953,34 H 13 V 44 L 24,34 h 11.047 c 1.24,0 2.42,-0.25 3.492,-0.701 A 8.928,8.928 0 0 0 41.383,31.383 8.928,8.928 0 0 0 43.299,28.539 8.97,8.97 0 0 0 44,25.047 V 12.953 c 0,-1.24 -0.25,-2.42 -0.701,-3.492 A 8.928,8.928 0 0 0 41.383,6.617 8.928,8.928 0 0 0 38.539,4.701 8.97,8.97 0 0 0 35.047,4 Z"
     id="path22"
     style="fill:url(#c);fill-rule:evenodd"
     inkscape:connector-curvature="0" />
  <path
     d="m 24,34 h 11.047 c 1.24,0 2.42,-0.25 3.492,-0.701 A 8.928,8.928 0 0 0 41.383,31.383 8.928,8.928 0 0 0 43.299,28.539 8.97,8.97 0 0 0 44,25.047 V 15.46 L 34,8 14,14 v 1 L 13,14 H 9 v 9 l 3,3 v 3 l 6,6 v -1 z"
     id="path24"
     style="opacity:0.2;fill:url(#d);fill-rule:evenodd"
     inkscape:connector-curvature="0" />
  <path
     d="m 35,22 9,9 V 20 l -5,-5 h -4 z"
     id="path26"
     style="opacity:0.2;fill:url(#e);fill-rule:evenodd"
     inkscape:connector-curvature="0" />
  <path
     d="m 34,8 -20,6 v 9 l 20,6 V 14 Z M 9,14 v 9 h 4 v -9 z m 26,1 v 7 h 4 v -7 z m -23,9 v 5 h 3 v -5 z"
     id="path28"
     style="fill:url(#f);fill-rule:evenodd"
     inkscape:connector-curvature="0" />
</svg>
