<?xml version="1.0" encoding="UTF-8" standalone="no"?>
<svg
   xmlns:dc="http://purl.org/dc/elements/1.1/"
   xmlns:cc="http://creativecommons.org/ns#"
   xmlns:rdf="http://www.w3.org/1999/02/22-rdf-syntax-ns#"
   xmlns:svg="http://www.w3.org/2000/svg"
   xmlns="http://www.w3.org/2000/svg"
   xmlns:xlink="http://www.w3.org/1999/xlink"
   xmlns:sodipodi="http://sodipodi.sourceforge.net/DTD/sodipodi-0.dtd"
   xmlns:inkscape="http://www.inkscape.org/namespaces/inkscape"
   width="48"
   height="48"
   version="1.1"
   id="svg40"
   sodipodi:docname="office-address-book.svg"
   inkscape:version="0.92.4 (5da689c313, 2019-01-14)">
  <metadata
     id="metadata44">
    <rdf:RDF>
      <cc:Work
         rdf:about="">
        <dc:format>image/svg+xml</dc:format>
        <dc:type
           rdf:resource="http://purl.org/dc/dcmitype/StillImage" />
        <dc:title></dc:title>
      </cc:Work>
    </rdf:RDF>
  </metadata>
  <sodipodi:namedview
     pagecolor="#ffffff"
     bordercolor="#666666"
     borderopacity="1"
     objecttolerance="10"
     gridtolerance="10"
     guidetolerance="10"
     inkscape:pageopacity="0"
     inkscape:pageshadow="2"
     inkscape:window-width="862"
     inkscape:window-height="480"
     id="namedview42"
     showgrid="false"
     inkscape:zoom="4.9166667"
     inkscape:cx="2.1355932"
     inkscape:cy="24"
     inkscape:window-x="0"
     inkscape:window-y="25"
     inkscape:window-maximized="0"
     inkscape:current-layer="svg40" />
  <defs
     id="defs24">
    <linearGradient
       id="a"
       y1="538.8"
       y2="505.8"
       x2="0"
       gradientUnits="userSpaceOnUse"
       gradientTransform="matrix(1.45455 0 0 1 -198.81 -31)">
      <stop
         stop-color="#bd8d48"
         id="stop2" />
      <stop
         offset="1"
         stop-color="#e8b971"
         id="stop4" />
    </linearGradient>
    <linearGradient
       id="c"
       x1="428.57"
       x2="406.57"
       gradientUnits="userSpaceOnUse"
       gradientTransform="matrix(1.45455,0,0,1,-583.38,-498.8)">
      <stop
         stop-color="#e3dfd6"
         id="stop7" />
      <stop
         offset="1"
         stop-color="#f4f1e8"
         id="stop9" />
    </linearGradient>
    <linearGradient
       id="e"
       y1="531.79"
       y2="544.79"
       x2="0"
       gradientUnits="userSpaceOnUse"
       gradientTransform="rotate(-45,-388.224,769.755)">
      <stop
         id="stop12" />
      <stop
         offset="1"
         stop-opacity="0"
         id="stop14" />
    </linearGradient>
    <linearGradient
       id="f"
       y1="541.51"
       x1="428.76"
       y2="528.51"
       gradientUnits="userSpaceOnUse"
       x2="430.47"
       gradientTransform="translate(-408.71,-510.793)">
      <stop
         stop-color="#ebc69a"
         id="stop17" />
      <stop
         offset="1"
         stop-color="#f4e0c8"
         id="stop19" />
    </linearGradient>
    <linearGradient
       xlink:href="#a"
       id="b"
       gradientUnits="userSpaceOnUse"
       gradientTransform="matrix(1.45455,0,0,1,-583.38,-530.8)"
       y1="538.8"
       x2="0"
       y2="505.8" />
    <linearGradient
       xlink:href="#a"
       id="d"
       gradientUnits="userSpaceOnUse"
       gradientTransform="matrix(1.45455,0,0,1.12221,-583.38,-560.64)"
       y1="538.8"
       x2="0"
       y2="506.72" />
  </defs>
  <path
     d="M 8,6 V 8 H 40 V 6 Z"
     id="path26"
     style="color:#000000;fill:url(#b)"
     inkscape:connector-curvature="0" />
  <path
     d="M 8,7 V 8 H 40 V 7 Z"
     id="path28"
     style="color:#000000;fill:url(#c)"
     inkscape:connector-curvature="0" />
  <path
     d="M 8,8 V 39.8 A 4.2,4.2 0 0 0 9.227,42.773 4.196,4.196 0 0 0 12.199,44 H 35.801 A 4.2,4.2 0 0 0 38.773,42.773 4.196,4.196 0 0 0 40,39.801 V 8 H 12.2 Z"
     id="path30"
     style="color:#000000;fill:url(#d)"
     inkscape:connector-curvature="0" />
  <path
     d="m 29.996,44 h 5.805 a 4.2,4.2 0 0 0 2.972,-1.227 c 0.38,-0.38 0.687,-0.833 0.899,-1.336 0.21,-0.5 0.325,-1.049 0.326,-1.626 v -6.809 l -13.879,-14.121 -4.24,4.24 2.637,2.639 -3.893,0.146 -0.625,1.096 -1,6 z"
     id="path32"
     style="color:#000000;opacity:0.2;fill:url(#e)"
     inkscape:connector-curvature="0" />
  <path
     d="m 24,18 c -1.662,0 -3,1.338 -3,3 0,1.662 1.338,3 3,3 1.662,0 3,-1.338 3,-3 0,-1.662 -1.338,-3 -3,-3 m 0,7 c -2.77,0 -5,0.892 -5,2 v 6 h 10 v -6 c 0,-1.108 -2.23,-2 -5,-2 m 0,1 c 2.216,0 4,0.636 4,1.428 V 32 H 20 V 27.428 C 20,26.637 21.784,26 24,26"
     id="path34"
     style="fill:url(#f)"
     inkscape:connector-curvature="0" />
  <g
     id="g38"
     style="color:#000000;fill:#7f8c8d;stroke-linecap:round;stroke-linejoin:round">
    <path
       d="m 21,4 h 1 v 6 H 21 Z M 11,4 h 1 v 6 h -1 z m 5,0 h 1 v 6 h -1 z m 10,0 h 1 v 6 h -1 z m 5,0 h 1 v 6 h -1 z m 5,0 h 1 v 6 h -1 z"
       id="path36"
       inkscape:connector-curvature="0" />
  </g>
</svg>
