<svg xmlns="http://www.w3.org/2000/svg" xmlns:xlink="http://www.w3.org/1999/xlink" width="48" height="48"><defs><linearGradient id="a"><stop offset="0"/><stop offset="1" stop-opacity="0"/></linearGradient><linearGradient id="b"><stop offset="0" stop-color="#fff"/><stop offset="1" stop-color="#fff" stop-opacity=".488"/></linearGradient><linearGradient id="c"><stop stop-color="#127bdc"/><stop offset="1" stop-color="#64b4f4"/></linearGradient><linearGradient id="d"><stop offset="0" stop-color="#f5f5f5"/><stop offset="1" stop-color="#f9f9f9"/></linearGradient><linearGradient id="e"><stop offset="0" stop-color="#1d5e8c"/><stop offset="1" stop-color="#2675a7"/></linearGradient><linearGradient gradientTransform="translate(-176.18 -222.038) scale(.4615)" xlink:href="#e" id="g" x1="388.571" y1="487.798" x2="416.571" y2="507.798" gradientUnits="userSpaceOnUse"/><linearGradient xlink:href="#d" id="h" gradientUnits="userSpaceOnUse" x1="396.571" y1="498.798" x2="426.571" y2="511.798" gradientTransform="translate(-176.18 -222.115) scale(.4615)"/><linearGradient xlink:href="#f" id="i" gradientUnits="userSpaceOnUse" gradientTransform="translate(-178.18 2124.652) scale(.4615)" x1="390.571" y1="498.298" x2="442.571" y2="498.298"/><linearGradient id="f"><stop offset="0" stop-color="#fff"/><stop offset="1" stop-color="#fff" stop-opacity=".488"/></linearGradient><linearGradient xlink:href="#c" id="j" x1="59.907" y1="30.665" x2="44.215" y2="3.879" gradientUnits="userSpaceOnUse" gradientTransform="translate(-40)"/><linearGradient xlink:href="#a" id="k" gradientUnits="userSpaceOnUse" gradientTransform="translate(-186.795 -221.731) scale(.4615)" x1="430.51" y1="501.608" x2="452.873" y2="527.82"/></defs><g transform="matrix(1.3314 0 0 1.28516 2.651 3.425)"><path d="M4.713 2A3.704 3.704 0 0 0 1 5.713V23.52a3.706 3.706 0 0 0 3.713 3.715h2.78c.2.034.403.062.614.062h19.18A3.706 3.706 0 0 0 31 23.582V7.712A3.704 3.704 0 0 0 27.287 4H16l-2-2H7.687z" fill="url(#g)"/><path d="M29.791 5a3.688 3.688 0 0 0-1.057-.709 3.716 3.716 0 0 0-1.447-.29H16l-2-2 1 3h2z" opacity=".3" fill="#fff" fill-rule="evenodd"/><rect ry=".667" rx=".667" y="7" x="2" height="8" width="28" style="isolation:auto;mix-blend-mode:normal;marker:none" overflow="visible" color="#000" fill="url(#h)"/><path style="isolation:auto;mix-blend-mode:normal;marker:none" d="M2.666 7A.664.664 0 0 0 2 7.666v1c0-.37.297-.666.666-.666h26.668c.37 0 .666.297.666.666v-1A.664.664 0 0 0 29.334 7z" overflow="visible" color="#000" opacity=".85" fill="url(#i)"/><path d="M13 11l-2 1H5.162A4.153 4.153 0 0 0 1 16.162v9.698c0 .074.018.142.021.214v.022a3.916 3.916 0 0 0 3.915 3.924h22.138c.034 0 .062-.019.096-.02A3.903 3.903 0 0 0 31 26.096v-11.17A3.917 3.917 0 0 0 27.074 11z" fill="url(#j)" fill-rule="evenodd" stroke-width=".823" stroke-linejoin="round"/><path d="M13 11l-1 2H2.54c-.1.083-.232.125-.323.217-.17.17-.264.4-.403.598L17 29h12.639c.074-.065.174-.098.244-.168A3.886 3.886 0 0 0 31 26.096v-11.17A3.919 3.919 0 0 0 27.074 11z" opacity=".099" fill="url(#k)" fill-rule="evenodd"/><path d="M13 11l-2 1H5.162a4.17 4.17 0 0 0-1.623.326c-.377.16-.69.417-1 .674H12z" opacity=".3" fill="#fff" fill-rule="evenodd"/><path style="isolation:auto;mix-blend-mode:normal;marker:none" d="M2.066 28.723c.04.043.057.105.098.146a3.919 3.919 0 0 0 2.772 1.15h22.138c.034 0 .062-.017.096-.018a3.916 3.916 0 0 0 2.713-1.168c.038-.04.055-.096.092-.137z" overflow="visible" color="#000" opacity=".3" stroke-width="1.266"/></g></svg>