<?xml version="1.0" encoding="UTF-8" standalone="no"?>
<svg
   xmlns:dc="http://purl.org/dc/elements/1.1/"
   xmlns:cc="http://creativecommons.org/ns#"
   xmlns:rdf="http://www.w3.org/1999/02/22-rdf-syntax-ns#"
   xmlns:svg="http://www.w3.org/2000/svg"
   xmlns="http://www.w3.org/2000/svg"
   xmlns:xlink="http://www.w3.org/1999/xlink"
   xmlns:sodipodi="http://sodipodi.sourceforge.net/DTD/sodipodi-0.dtd"
   xmlns:inkscape="http://www.inkscape.org/namespaces/inkscape"
   width="48"
   height="48"
   version="1.1"
   id="svg34"
   sodipodi:docname="telepathy-kde.svg"
   inkscape:version="0.92.4 (5da689c313, 2019-01-14)">
  <metadata
     id="metadata38">
    <rdf:RDF>
      <cc:Work
         rdf:about="">
        <dc:format>image/svg+xml</dc:format>
        <dc:type
           rdf:resource="http://purl.org/dc/dcmitype/StillImage" />
        <dc:title></dc:title>
      </cc:Work>
    </rdf:RDF>
  </metadata>
  <sodipodi:namedview
     pagecolor="#ffffff"
     bordercolor="#666666"
     borderopacity="1"
     objecttolerance="10"
     gridtolerance="10"
     guidetolerance="10"
     inkscape:pageopacity="0"
     inkscape:pageshadow="2"
     inkscape:window-width="862"
     inkscape:window-height="480"
     id="namedview36"
     showgrid="false"
     inkscape:zoom="4.9166667"
     inkscape:cx="24"
     inkscape:cy="24"
     inkscape:window-x="0"
     inkscape:window-y="25"
     inkscape:window-maximized="0"
     inkscape:current-layer="svg34" />
  <defs
     id="defs24">
    <linearGradient
       id="b"
       y1="44"
       y2="4"
       gradientUnits="userSpaceOnUse"
       x2="0"
       gradientTransform="matrix(-1 0 0 1 -12 0)">
      <stop
         stop-color="#197cf1"
         id="stop2" />
      <stop
         offset="1"
         stop-color="#20bcfa"
         id="stop4" />
    </linearGradient>
    <linearGradient
       id="d"
       y1="515.8"
       y2="509.8"
       x2="0"
       gradientUnits="userSpaceOnUse"
       gradientTransform="translate(-360.638,-504.732)">
      <stop
         stop-color="#c61423"
         id="stop7" />
      <stop
         offset="1"
         stop-color="#dc2b41"
         id="stop9" />
    </linearGradient>
    <linearGradient
       id="a"
       y1="503.8"
       x1="388.57"
       y2="533.8"
       x2="418.57"
       gradientUnits="userSpaceOnUse"
       gradientTransform="translate(-359.57 -505.8)">
      <stop
         stop-color="#292c2f"
         id="stop12" />
      <stop
         offset="1"
         stop-opacity="0"
         id="stop14" />
    </linearGradient>
    <linearGradient
       id="f"
       y1="9"
       y2="5"
       x2="0"
       gradientUnits="userSpaceOnUse"
       gradientTransform="translate(-1.068,1.068)">
      <stop
         stop-color="#f7aeb4"
         id="stop17" />
      <stop
         offset="1"
         stop-color="#f8d4d9"
         id="stop19" />
    </linearGradient>
    <linearGradient
       xlink:href="#a"
       id="e"
       y1="504.87"
       x1="422.85"
       y2="510.8"
       x2="428.78"
       gradientUnits="userSpaceOnUse"
       gradientTransform="translate(-385.638,-498.732)" />
    <linearGradient
       xlink:href="#b"
       id="c"
       gradientUnits="userSpaceOnUse"
       gradientTransform="matrix(-1,0,0,1,48,0)"
       y1="44"
       x2="0"
       y2="4" />
  </defs>
  <path
     d="m 12.953,7 c -1.24,0 -2.42,0.25 -3.492,0.701 A 8.928,8.928 0 0 0 6.617,9.617 8.928,8.928 0 0 0 4.701,12.461 8.97,8.97 0 0 0 4,15.953 v 9.094 c 0,1.24 0.25,2.42 0.701,3.492 A 8.928,8.928 0 0 0 6.617,31.383 8.928,8.928 0 0 0 9.461,33.299 8.97,8.97 0 0 0 12.953,34 H 13 V 44 L 23,34 h 9.047 c 1.24,0 2.42,-0.25 3.492,-0.701 A 8.928,8.928 0 0 0 38.383,31.383 8.928,8.928 0 0 0 40.299,28.539 8.97,8.97 0 0 0 41,25.047 v -9.094 c 0,-1.24 -0.25,-2.42 -0.701,-3.492 A 8.928,8.928 0 0 0 38.383,9.617 8.928,8.928 0 0 0 35.539,7.701 8.97,8.97 0 0 0 32.047,7 Z"
     id="path26"
     style="fill:url(#c);fill-rule:evenodd"
     inkscape:connector-curvature="0" />
  <circle
     r="3"
     cy="8.0679998"
     cx="39.931999"
     id="circle28"
     style="fill:url(#d)" />
  <path
     d="m 41.932,8.068 -1,0.33 -2,0.67 -0.35,0.465 1.529,1.529 a 3,3 0 0 0 2.69,-2.125 z"
     id="path30"
     style="opacity:0.2;fill:url(#e);fill-rule:evenodd"
     inkscape:connector-curvature="0" />
  <path
     d="m 39.932,6.068 c -0.277,0 -0.5,0.223 -0.5,0.5 V 6.861 L 39.225,6.654 a 0.499,0.499 0 0 0 -0.707,0 0.499,0.499 0 0 0 0,0.707 l 0.207,0.207 h -0.293 a 0.5,0.5 0 1 0 0,1 h 0.293 l -0.207,0.207 a 0.499,0.499 0 0 0 0,0.707 0.499,0.499 0 0 0 0.707,0 l 0.207,-0.207 v 0.293 a 0.5,0.5 0 1 0 1,0 V 9.275 l 0.207,0.207 a 0.499,0.499 0 0 0 0.707,0 0.499,0.499 0 0 0 0,-0.707 L 41.139,8.568 h 0.293 a 0.5,0.5 0 1 0 0,-1 h -0.293 l 0.207,-0.207 a 0.499,0.499 0 0 0 0,-0.707 0.499,0.499 0 0 0 -0.707,0 L 40.432,6.861 V 6.568 c 0,-0.277 -0.223,-0.5 -0.5,-0.5"
     id="path32"
     style="fill:url(#f)"
     inkscape:connector-curvature="0" />
</svg>
