<?xml version="1.0" encoding="UTF-8" standalone="no"?>
<svg
   xmlns:dc="http://purl.org/dc/elements/1.1/"
   xmlns:cc="http://creativecommons.org/ns#"
   xmlns:rdf="http://www.w3.org/1999/02/22-rdf-syntax-ns#"
   xmlns:svg="http://www.w3.org/2000/svg"
   xmlns="http://www.w3.org/2000/svg"
   xmlns:sodipodi="http://sodipodi.sourceforge.net/DTD/sodipodi-0.dtd"
   xmlns:inkscape="http://www.inkscape.org/namespaces/inkscape"
   width="48"
   height="48"
   version="1.1"
   id="svg35"
   sodipodi:docname="usb-creator-kde.svg"
   inkscape:version="0.92.4 (5da689c313, 2019-01-14)">
  <metadata
     id="metadata39">
    <rdf:RDF>
      <cc:Work
         rdf:about="">
        <dc:format>image/svg+xml</dc:format>
        <dc:type
           rdf:resource="http://purl.org/dc/dcmitype/StillImage" />
        <dc:title></dc:title>
      </cc:Work>
    </rdf:RDF>
  </metadata>
  <sodipodi:namedview
     pagecolor="#ffffff"
     bordercolor="#666666"
     borderopacity="1"
     objecttolerance="10"
     gridtolerance="10"
     guidetolerance="10"
     inkscape:pageopacity="0"
     inkscape:pageshadow="2"
     inkscape:window-width="896"
     inkscape:window-height="480"
     id="namedview37"
     showgrid="false"
     inkscape:zoom="4.9166667"
     inkscape:cx="2.1355932"
     inkscape:cy="24"
     inkscape:window-x="0"
     inkscape:window-y="0"
     inkscape:window-maximized="0"
     inkscape:current-layer="svg35" />
  <defs
     id="defs17">
    <linearGradient
       id="b"
       y1="525.8"
       y2="503.8"
       x2="0"
       gradientUnits="userSpaceOnUse"
       gradientTransform="translate(-384.57,-499.8)">
      <stop
         stop-color="#c6cdd1"
         id="stop2" />
      <stop
         offset="1"
         stop-color="#e0e5e7"
         id="stop4" />
    </linearGradient>
    <linearGradient
       id="c"
       y1="14"
       x1="5"
       y2="36"
       x2="27"
       gradientUnits="userSpaceOnUse">
      <stop
         stop-color="#383e51"
         id="stop7" />
      <stop
         offset="1"
         stop-color="#655c6f"
         stop-opacity="0"
         id="stop9" />
    </linearGradient>
    <linearGradient
       id="a"
       y1="543.8"
       y2="515.8"
       gradientUnits="userSpaceOnUse"
       x2="0"
       gradientTransform="matrix(1.16129,0,0,1,-449.95,-499.8)">
      <stop
         stop-color="#197cf1"
         id="stop12" />
      <stop
         offset="1"
         stop-color="#20bcfa"
         id="stop14" />
    </linearGradient>
  </defs>
  <path
     d="M 8,26 V 37.65 A 6.336,6.336 0 0 0 14.35,44 h 19.3 A 6.336,6.336 0 0 0 40,37.65 V 26 Z"
     id="path19"
     style="fill:url(#a)"
     inkscape:connector-curvature="0" />
  <path
     d="M 11,4 H 37 V 26 H 11 Z"
     id="path21"
     style="fill:url(#b)"
     inkscape:connector-curvature="0" />
  <path
     d="m 22,11 -7,7 24,24.25 V 26.002 h -2 v -11 l -4,-4 h -7 v 4 z"
     id="path23"
     style="opacity:0.2;fill:url(#c);fill-rule:evenodd"
     inkscape:connector-curvature="0" />
  <g
     id="g27"
     style="fill:#202224;stroke-width:2.79999995;stroke-opacity:0.55">
    <path
       d="m 15,11 h 7 v 7 h -7 z m 11,0 h 7 v 7 h -7 z"
       id="path25"
       inkscape:connector-curvature="0" />
  </g>
  <g
     id="g31"
     style="fill:#fdbc4a;stroke-width:2.79999995;stroke-opacity:0.55">
    <path
       d="m 17,11 h 3 v 7 h -3 z m 11,0 h 3 v 7 h -3 z"
       id="path29"
       inkscape:connector-curvature="0" />
  </g>
  <path
     d="M 22.5,32 A 0.5,0.5 0 0 0 22,32.5 0.5,0.5 0 0 0 22.5,33 0.5,0.5 0 0 0 23,32.5 0.5,0.5 0 0 0 22.5,32 m 2.5,0 -1,1 1,1 -1,1 1,1 2,-2 z m -3.5,2.1 A 0.5,0.5 0 0 0 21,34.6 0.5,0.5 0 0 0 21.5,35.1 0.5,0.5 0 0 0 22,34.6 0.5,0.5 0 0 0 21.5,34.1 M 23,36 a 1,1 0 0 0 -1,1 1,1 0 0 0 1,1 1,1 0 0 0 1,-1 1,1 0 0 0 -1,-1"
     id="path33"
     inkscape:connector-curvature="0"
     style="fill:#085ba7;fill-rule:evenodd" />
</svg>
