<?xml version="1.0" encoding="UTF-8" standalone="no"?>
<svg
   xmlns:dc="http://purl.org/dc/elements/1.1/"
   xmlns:cc="http://creativecommons.org/ns#"
   xmlns:rdf="http://www.w3.org/1999/02/22-rdf-syntax-ns#"
   xmlns:svg="http://www.w3.org/2000/svg"
   xmlns="http://www.w3.org/2000/svg"
   xmlns:xlink="http://www.w3.org/1999/xlink"
   xmlns:sodipodi="http://sodipodi.sourceforge.net/DTD/sodipodi-0.dtd"
   xmlns:inkscape="http://www.inkscape.org/namespaces/inkscape"
   height="48"
   width="48"
   version="1.1"
   id="svg33"
   sodipodi:docname="folder-temp.svg">
  <metadata
     id="metadata39">
    <rdf:RDF>
      <cc:Work
         rdf:about="">
        <dc:format>image/svg+xml</dc:format>
        <dc:type
           rdf:resource="http://purl.org/dc/dcmitype/StillImage" />
      </cc:Work>
    </rdf:RDF>
  </metadata>
  <defs
     id="defs37" />
  <sodipodi:namedview
     pagecolor="#ffffff"
     bordercolor="#666666"
     borderopacity="1"
     objecttolerance="10"
     gridtolerance="10"
     guidetolerance="10"
     inkscape:pageopacity="0"
     inkscape:pageshadow="2"
     inkscape:window-width="640"
     inkscape:window-height="480"
     id="namedview35" />
  <linearGradient
     id="a">
    <stop
       offset="0"
       stop-color="#0c6adc"
       id="stop2" />
    <stop
       offset="1"
       stop-color="#0eecef"
       id="stop4" />
  </linearGradient>
  <linearGradient
     id="b"
     gradientUnits="userSpaceOnUse"
     x1="-54.435"
     x2="-19.412"
     xlink:href="#a"
     y1="14.268"
     y2="39.284" />
  <linearGradient
     id="c"
     gradientUnits="userSpaceOnUse"
     x1="-54.435"
     x2="-14.409"
     xlink:href="#a"
     y1="11.618"
     y2="44.287" />
  <linearGradient
     id="e"
     gradientUnits="userSpaceOnUse"
     x1="-54.437"
     x2="-14.411"
     xlink:href="#a"
     y1="13.314"
     y2="45.983" />
  <linearGradient
     id="d"
     gradientUnits="userSpaceOnUse"
     x1="-54.435"
     x2="-16.41"
     y1="19.271"
     y2="45.288">
    <stop
       offset="0"
       stop-color="#0c6adc"
       stop-opacity=".2"
       id="stop10" />
    <stop
       offset="1"
       stop-color="#0eecef"
       stop-opacity=".2"
       id="stop12" />
  </linearGradient>
  <g
     transform="translate(59.9 -1.758) scale(.99935)"
     fill="#dfffff"
     fill-opacity=".078"
     stroke-width="1.401"
     stroke-linecap="round"
     stroke-linejoin="round"
     stroke="url(#b)"
     id="g23">
    <path
       d="M-19.412 17.27v-2.002l-1-1h-20.014"
       fill="none"
       stroke="#aaa"
       stroke-width="1.001"
       id="path15" />
    <g
       clip-rule="evenodd"
       stroke="url(#c)"
       stroke-width="1.201"
       transform="translate(0 -2.001)"
       id="g21">
      <path
         d="M-38.424 19.271l-4.003-5.003-12.98.021c-2.03-.021-3.03.98-3.03 2.98 0 0 .013 17.915 0 27.018 0 2.002 1 3.002 2.869 3.002h39.158c2.001 0 3.002-1 3.002-3.002V22.273c.017-1.87-.946-2.955-3.002-3.002z"
         fill="url(#d)"
         fill-opacity="1"
         fill-rule="evenodd"
         id="path17" />
      <path
         d="M-16.41 15.268V9.264h-12.008l-2.001 2.002h-23.015"
         fill="none"
         stroke="url(#e)"
         id="path19" />
    </g>
  </g>
  <path
     d="M34.652 39.712H15.18V20.24h19.472z"
     fill="none"
     id="path25" />
  <g
     fill="#f5f5f5"
     id="g31">
    <path
       d="M20.047 21.45a3.67 3.67 0 0 0-3.648 3.657v9.733c0 2.001 1.647 3.653 3.648 3.653h9.738c2.006 0 3.648-1.656 3.648-3.653v-9.733a3.67 3.67 0 0 0-3.648-3.657zm0 2.438h9.738c.7 0 1.214.524 1.214 1.219v9.733a1.191 1.191 0 0 1-1.214 1.22h-9.738a1.191 1.191 0 0 1-1.21-1.22v-9.733c0-.69.515-1.22 1.21-1.22z"
       id="path27" />
    <path
       d="M22.48 25.107v5.57l5.483 3.165 1.215-2.116-4.26-2.456v-4.163zm-1.214-4.872h7.3v1.22h-7.3zm0 18.258h7.3v1.219h-7.3z"
       id="path29" />
  </g>
</svg>
