<?xml version="1.0" encoding="UTF-8" standalone="no"?>
<svg
   xmlns:dc="http://purl.org/dc/elements/1.1/"
   xmlns:cc="http://creativecommons.org/ns#"
   xmlns:rdf="http://www.w3.org/1999/02/22-rdf-syntax-ns#"
   xmlns:svg="http://www.w3.org/2000/svg"
   xmlns="http://www.w3.org/2000/svg"
   xmlns:xlink="http://www.w3.org/1999/xlink"
   xmlns:sodipodi="http://sodipodi.sourceforge.net/DTD/sodipodi-0.dtd"
   xmlns:inkscape="http://www.inkscape.org/namespaces/inkscape"
   height="48"
   width="48"
   version="1.1"
   id="svg33"
   sodipodi:docname="network-workgroup.svg">
  <metadata
     id="metadata39">
    <rdf:RDF>
      <cc:Work
         rdf:about="">
        <dc:format>image/svg+xml</dc:format>
        <dc:type
           rdf:resource="http://purl.org/dc/dcmitype/StillImage" />
      </cc:Work>
    </rdf:RDF>
  </metadata>
  <defs
     id="defs37" />
  <sodipodi:namedview
     pagecolor="#ffffff"
     bordercolor="#666666"
     borderopacity="1"
     objecttolerance="10"
     gridtolerance="10"
     guidetolerance="10"
     inkscape:pageopacity="0"
     inkscape:pageshadow="2"
     inkscape:window-width="640"
     inkscape:window-height="480"
     id="namedview35" />
  <linearGradient
     id="a">
    <stop
       offset="0"
       stop-color="#0c6adc"
       id="stop2" />
    <stop
       offset="1"
       stop-color="#0eecef"
       id="stop4" />
  </linearGradient>
  <linearGradient
     id="b"
     gradientUnits="userSpaceOnUse"
     x1="-54.435"
     x2="-19.412"
     xlink:href="#a"
     y1="14.268"
     y2="39.284" />
  <linearGradient
     id="c"
     gradientUnits="userSpaceOnUse"
     x1="-54.435"
     x2="-14.409"
     xlink:href="#a"
     y1="11.618"
     y2="44.287" />
  <linearGradient
     id="e"
     gradientUnits="userSpaceOnUse"
     x1="-54.437"
     x2="-14.411"
     xlink:href="#a"
     y1="13.314"
     y2="45.983" />
  <linearGradient
     id="d"
     gradientUnits="userSpaceOnUse"
     x1="-54.435"
     x2="-16.41"
     y1="19.271"
     y2="45.288">
    <stop
       offset="0"
       stop-color="#0c6adc"
       stop-opacity=".2"
       id="stop10" />
    <stop
       offset="1"
       stop-color="#0eecef"
       stop-opacity=".2"
       id="stop12" />
  </linearGradient>
  <g
     transform="translate(59.9 -1.758) scale(.99935)"
     fill="#dfffff"
     fill-opacity=".078"
     stroke-width="1.401"
     stroke-linecap="round"
     stroke-linejoin="round"
     stroke="url(#b)"
     id="g23">
    <path
       d="M-19.412 17.27v-2.002l-1-1h-20.014"
       fill="none"
       stroke="#aaa"
       stroke-width="1.001"
       id="path15" />
    <g
       clip-rule="evenodd"
       stroke="url(#c)"
       stroke-width="1.201"
       transform="translate(0 -2.001)"
       id="g21">
      <path
         d="M-38.424 19.271l-4.003-5.003-12.98.021c-2.03-.021-3.03.98-3.03 2.98 0 0 .013 17.915 0 27.018 0 2.002 1 3.002 2.869 3.002h39.158c2.001 0 3.002-1 3.002-3.002V22.273c.017-1.87-.946-2.955-3.002-3.002z"
         fill="url(#d)"
         fill-opacity="1"
         fill-rule="evenodd"
         id="path17" />
      <path
         d="M-16.41 15.268V9.264h-12.008l-2.001 2.002h-23.015"
         fill="none"
         stroke="url(#e)"
         id="path19" />
    </g>
  </g>
  <path
     d="M15.18 20.24h19.472v19.472H15.18z"
     fill="none"
     id="path25" />
  <g
     fill="#f5f5f5"
     id="g31">
    <path
       d="M23.092 21.454a1.84 1.84 0 0 0-1.83 1.827v2.433c0 .998.827 1.83 1.83 1.83h3.648a1.84 1.84 0 0 0 1.826-1.83v-2.438a1.83 1.83 0 0 0-1.826-1.822zm0 1.224h3.648c.35 0 .612.253.612.598v2.438a.598.598 0 0 1-.612.612h-3.648a.598.598 0 0 1-.607-.612v-2.438c0-.345.262-.598.607-.598zm-4.867 9.729a1.84 1.84 0 0 0-1.826 1.83v2.439a1.84 1.84 0 0 0 1.826 1.821h3.648a1.83 1.83 0 0 0 1.822-1.821v-2.438a1.84 1.84 0 0 0-1.822-1.831zm0 1.224h3.648a.598.598 0 0 1 .612.607v2.438a.592.592 0 0 1-.612.598h-3.648a.589.589 0 0 1-.612-.598v-2.438a.598.598 0 0 1 .612-.607zm9.738-1.224a1.85 1.85 0 0 0-1.83 1.83v2.439a1.84 1.84 0 0 0 1.83 1.821h3.648a1.83 1.83 0 0 0 1.822-1.821v-2.438a1.84 1.84 0 0 0-1.822-1.831zm0 1.224h3.648a.598.598 0 0 1 .612.607v2.438c0 .345-.262.598-.612.598h-3.648a.589.589 0 0 1-.611-.598v-2.438a.598.598 0 0 1 .611-.607zM16.4 28.759v2.438h17.034V28.76z"
       id="path27" />
    <path
       d="M23.695 26.933v3.05h2.438v-3.05zm-4.858 3.05v3.036h2.424v-3.036zm9.729 0v3.036h2.438v-3.036z"
       id="path29" />
  </g>
</svg>
