/* XPM */
static char * close_prelight_xpm[] = {
"24 26 74 1",
" 	c None",
".	c #F2F2F2",
"+	c #F1F1F1",
"@	c #F0F0F0",
"#	c #EFEFEF",
"$	c #EEEEEE",
"%	c #ECECEC",
"&	c #EBEBEB",
"*	c #EAEAEA",
"=	c #E8D9DB",
"-	c #DF8289",
";	c #E04C56",
">	c #E33E48",
",	c #E04D57",
"'	c #DF838A",
")	c #E9E9E9",
"!	c #E2A7AC",
"~	c #E23E48",
"{	c #F04D54",
"]	c #F25056",
"^	c #E13E48",
"/	c #E2A8AC",
"(	c #E8E8E8",
"_	c #E8414A",
":	c #E7414A",
"<	c #E6E6E6",
"[	c #E4D5D7",
"}	c #EB4E54",
"|	c #EF4F55",
"1	c #E23F49",
"2	c #E5D6D7",
"3	c #E5E5E5",
"4	c #DD8087",
"5	c #EC4E54",
"6	c #812B2E",
"7	c #8E2F33",
"8	c #E84D52",
"9	c #822B2E",
"0	c #F04E54",
"a	c #E4E4E4",
"b	c #79282B",
"c	c #8D2F32",
"d	c #DF4E56",
"e	c #E3E3E3",
"f	c #E33E49",
"g	c #8C2E32",
"h	c #E74C52",
"i	c #E1E1E1",
"j	c #E64C52",
"k	c #E0E0E0",
"l	c #DFDFDF",
"m	c #DA7E85",
"n	c #DC8188",
"o	c #DEDEDE",
"p	c #DDCED0",
"q	c #E24049",
"r	c #DED0D1",
"s	c #DDDDDD",
"t	c #DAA0A4",
"u	c #DAA2A6",
"v	c #DBDBDB",
"w	c #D99FA3",
"x	c #D9A1A5",
"y	c #DADADA",
"z	c #DACBCC",
"A	c #D97D84",
"B	c #DE4C56",
"C	c #D97E85",
"D	c #DACCCD",
"E	c #D9D9D9",
"F	c #D8D8D8",
"G	c #D7D7D7",
"H	c #D5D5D5",
"I	c #D4D4D4",
"........................",
"++++++++++++++++++++++++",
"@@@@@@@@@@@@@@@@@@@@@@@@",
"########################",
"$$$$$$$$$$$$$$$$$$$$$$$$",
"%%%%%%%%%%%%%%%%%%%%%%%%",
"&&&&&&&&&&&&&&&&&&&&&&&&",
"********=-;>>,'=********",
")))))))!~{]]]]{^/)))))))",
"((((((!_]]]]]]]]:/((((((",
"<<<<<[~]]}|]]|}]]12<<<<<",
"333334{]56788795]0'33333",
"aaaaa;]]|7bccb7|]]daaaaa",
"eeeeef]]]87bbgh]]]~eeeee",
"iiiii~]]]87bbgj]]]1iiiii",
"kkkkk;]]|7bccb7|]]dkkkkk",
"lllllm{]59788795]{nlllll",
"ooooop^]]5|]]|5]]qrooooo",
"sssssst:]]]]]]]]:ussssss",
"vvvvvvvw10]]]]{qxvvvvvvv",
"yyyyyyyyzAB~~BCDyyyyyyyy",
"EEEEEEEEEEEEEEEEEEEEEEEE",
"FFFFFFFFFFFFFFFFFFFFFFFF",
"GGGGGGGGGGGGGGGGGGGGGGGG",
"HHHHHHHHHHHHHHHHHHHHHHHH",
"IIIIIIIIIIIIIIIIIIIIIIII"};
