/* XPM */
static char * close_active_xpm[] = {
"24 26 62 1",
" 	c None",
".	c #F2F2F2",
"+	c #F1F1F1",
"@	c #F0F0F0",
"#	c #EFEFEF",
"$	c #EEEEEE",
"%	c #ECECEC",
"&	c #EBEBEB",
"*	c #EAEAEA",
"=	c #E8D9DB",
"-	c #DF8289",
";	c #E04C56",
">	c #E33E48",
",	c #E04D57",
"'	c #DF838A",
")	c #E9E9E9",
"!	c #E2A7AC",
"~	c #E23E48",
"{	c #F04D54",
"]	c #F25056",
"^	c #E13E48",
"/	c #E2A8AC",
"(	c #E8E8E8",
"_	c #E8414A",
":	c #E7414A",
"<	c #E6E6E6",
"[	c #E4D5D7",
"}	c #E23F49",
"|	c #E5D6D7",
"1	c #E5E5E5",
"2	c #DD8087",
"3	c #F04E54",
"4	c #E4E4E4",
"5	c #DF4E56",
"6	c #E3E3E3",
"7	c #E33E49",
"8	c #E1E1E1",
"9	c #E0E0E0",
"0	c #DFDFDF",
"a	c #DA7E85",
"b	c #DC8188",
"c	c #DEDEDE",
"d	c #DDCED0",
"e	c #E24049",
"f	c #DED0D1",
"g	c #DDDDDD",
"h	c #DAA0A4",
"i	c #DAA2A6",
"j	c #DBDBDB",
"k	c #D99FA3",
"l	c #D9A1A5",
"m	c #DADADA",
"n	c #DACBCC",
"o	c #D97D84",
"p	c #DE4C56",
"q	c #D97E85",
"r	c #DACCCD",
"s	c #D9D9D9",
"t	c #D8D8D8",
"u	c #D7D7D7",
"v	c #D5D5D5",
"w	c #D4D4D4",
"........................",
"++++++++++++++++++++++++",
"@@@@@@@@@@@@@@@@@@@@@@@@",
"########################",
"$$$$$$$$$$$$$$$$$$$$$$$$",
"%%%%%%%%%%%%%%%%%%%%%%%%",
"&&&&&&&&&&&&&&&&&&&&&&&&",
"********=-;>>,'=********",
")))))))!~{]]]]{^/)))))))",
"((((((!_]]]]]]]]:/((((((",
"<<<<<[~]]]]]]]]]]}|<<<<<",
"111112{]]]]]]]]]]3'11111",
"44444;]]]]]]]]]]]]544444",
"666667]]]]]]]]]]]]~66666",
"88888~]]]]]]]]]]]]}88888",
"99999;]]]]]]]]]]]]599999",
"00000a{]]]]]]]]]]{b00000",
"cccccd^]]]]]]]]]]efccccc",
"ggggggh:]]]]]]]]:igggggg",
"jjjjjjjk}3]]]]{eljjjjjjj",
"mmmmmmmmnop~~pqrmmmmmmmm",
"ssssssssssssssssssssssss",
"tttttttttttttttttttttttt",
"uuuuuuuuuuuuuuuuuuuuuuuu",
"vvvvvvvvvvvvvvvvvvvvvvvv",
"wwwwwwwwwwwwwwwwwwwwwwww"};
