/* XPM */
static char * close_pressed_xpm[] = {
"24 26 76 1",
" 	c None",
".	c #F2F2F2",
"+	c #F1F1F1",
"@	c #F0F0F0",
"#	c #EFEFEF",
"$	c #EEEEEE",
"%	c #ECECEC",
"&	c #EBEBEB",
"*	c #EAEAEA",
"=	c #E8D9DB",
"-	c #DF858C",
";	c #D94C57",
">	c #D62F3D",
",	c #D94D58",
"'	c #DF868D",
")	c #E9E9E9",
"!	c #E2A8AD",
"~	c #D6313E",
"{	c #D52735",
"]	c #E2A9AD",
"^	c #E8E8E8",
"/	c #D52836",
"(	c #E6E6E6",
"_	c #E4D5D7",
":	c #CF2634",
"<	c #D22734",
"[	c #D6323F",
"}	c #E5D6D7",
"|	c #E5E5E5",
"1	c #DC8289",
"2	c #D02634",
"3	c #72151C",
"4	c #7D171F",
"5	c #CC2533",
"6	c #DD848B",
"7	c #E4E4E4",
"8	c #D84A55",
"9	c #6A131A",
"0	c #7C171F",
"a	c #D84C57",
"b	c #E3E3E3",
"c	c #D6303E",
"d	c #7B161F",
"e	c #CB2533",
"f	c #E1E1E1",
"g	c #D5303D",
"h	c #CA2532",
"i	c #D5313E",
"j	c #E0E0E0",
"k	c #D74A55",
"l	c #D74B56",
"m	c #DFDFDF",
"n	c #D98087",
"o	c #DA8289",
"p	c #DEDEDE",
"q	c #DDCED0",
"r	c #D5323F",
"s	c #DED0D1",
"t	c #DDDDDD",
"u	c #DAA1A5",
"v	c #DAA3A7",
"w	c #DBDBDB",
"x	c #D9A0A4",
"y	c #D9A2A6",
"z	c #DADADA",
"A	c #DACBCC",
"B	c #D87F86",
"C	c #D64A56",
"D	c #D52F3D",
"E	c #D88087",
"F	c #DACCCD",
"G	c #D9D9D9",
"H	c #D8D8D8",
"I	c #D7D7D7",
"J	c #D5D5D5",
"K	c #D4D4D4",
"........................",
"++++++++++++++++++++++++",
"@@@@@@@@@@@@@@@@@@@@@@@@",
"########################",
"$$$$$$$$$$$$$$$$$$$$$$$$",
"%%%%%%%%%%%%%%%%%%%%%%%%",
"&&&&&&&&&&&&&&&&&&&&&&&&",
"********=-;>>,'=********",
")))))))!~{{{{{{~])))))))",
"^^^^^^!/{{{{{{{{/]^^^^^^",
"(((((_~{{:<{{<:{{[}(((((",
"|||||1{{23455432{{6|||||",
"777778{{<490094<{{a77777",
"bbbbbc{{{5499de{{{~bbbbb",
"fffffg{{{5499dh{{{ifffff",
"jjjjjk{{<490094<{{ljjjjj",
"mmmmmn{{23455432{{ommmmm",
"pppppqg{{2<{{<2{{rsppppp",
"ttttttu/{{{{{{{{/vtttttt",
"wwwwwwwxi{{{{{{rywwwwwww",
"zzzzzzzzABCDDCEFzzzzzzzz",
"GGGGGGGGGGGGGGGGGGGGGGGG",
"HHHHHHHHHHHHHHHHHHHHHHHH",
"IIIIIIIIIIIIIIIIIIIIIIII",
"JJJJJJJJJJJJJJJJJJJJJJJJ",
"KKKKKKKKKKKKKKKKKKKKKKKK"};
