/* XPM */
static char * hide_pressed_xpm[] = {
"24 26 69 1",
" 	c None",
".	c #F2F2F2",
"+	c #F1F1F1",
"@	c #F0F0F0",
"#	c #EFEFEF",
"$	c #EEEEEE",
"%	c #ECECEC",
"&	c #EBEBEB",
"*	c #EAEAEA",
"=	c #E9E4D7",
"-	c #E2C379",
";	c #DDAC39",
">	c #DBA119",
",	c #DDAD3A",
"'	c #E2C37A",
")	c #E9E9E9",
"!	c #E4D0A0",
"~	c #DBA21B",
"{	c #DA9E10",
"]	c #E4D0A1",
"^	c #E8E8E8",
"/	c #DA9E11",
"(	c #E6E6E6",
"_	c #E5E0D3",
":	c #DBA21C",
"<	c #E5E0D4",
"[	c #E5E5E5",
"}	c #DFC076",
"|	c #DFC178",
"1	c #E4E4E4",
"2	c #DCAB37",
"3	c #DCAC39",
"4	c #E3E3E3",
"5	c #DBA21A",
"6	c #85610A",
"7	c #6D4F08",
"8	c #86610A",
"9	c #E1E1E1",
"0	c #DAA11A",
"a	c #87620A",
"b	c #DAA11B",
"c	c #E0E0E0",
"d	c #DBAA37",
"e	c #DBAB38",
"f	c #DFDFDF",
"g	c #DCBD74",
"h	c #DCBE76",
"i	c #DEDEDE",
"j	c #DED9CC",
"k	c #DAA21C",
"l	c #DED9CE",
"m	c #DDDDDD",
"n	c #DCC899",
"o	c #DCC99B",
"p	c #DBDBDB",
"q	c #DBC798",
"r	c #DBC89A",
"s	c #DADADA",
"t	c #DAD5C9",
"u	c #DABC73",
"v	c #DAAA38",
"w	c #DAA119",
"x	c #DABC74",
"y	c #DAD5CA",
"z	c #D9D9D9",
"A	c #D8D8D8",
"B	c #D7D7D7",
"C	c #D5D5D5",
"D	c #D4D4D4",
"........................",
"++++++++++++++++++++++++",
"@@@@@@@@@@@@@@@@@@@@@@@@",
"########################",
"$$$$$$$$$$$$$$$$$$$$$$$$",
"%%%%%%%%%%%%%%%%%%%%%%%%",
"&&&&&&&&&&&&&&&&&&&&&&&&",
"********=-;>>,'=********",
")))))))!~{{{{{{~])))))))",
"^^^^^^!/{{{{{{{{/]^^^^^^",
"(((((_~{{{{{{{{{{:<(((((",
"[[[[[}{{{{{{{{{{{{|[[[[[",
"111112{{{{{{{{{{{{311111",
"444445{{67777778{{~44444",
"999990{{8777777a{{b99999",
"cccccd{{{{{{{{{{{{eccccc",
"fffffg{{{{{{{{{{{{hfffff",
"iiiiij0{{{{{{{{{{kliiiii",
"mmmmmmn/{{{{{{{{/ommmmmm",
"pppppppqb{{{{{{krppppppp",
"sssssssstuvwwvxyssssssss",
"zzzzzzzzzzzzzzzzzzzzzzzz",
"AAAAAAAAAAAAAAAAAAAAAAAA",
"BBBBBBBBBBBBBBBBBBBBBBBB",
"CCCCCCCCCCCCCCCCCCCCCCCC",
"DDDDDDDDDDDDDDDDDDDDDDDD"};
