/* XPM */
static char * hide_inactive_xpm[] = {
"24 26 42 1",
" 	c None",
".	c #F2F2F2",
"+	c #F1F1F1",
"@	c #F0F0F0",
"#	c #EFEFEF",
"$	c #EEEEEE",
"%	c #ECECEC",
"&	c #EBEBEB",
"*	c #EAEAEA",
"=	c #E6E6E6",
"-	c #D0D0D0",
";	c #C4C4C4",
">	c #C1C1C1",
",	c #C2C2C2",
"'	c #D1D1D1",
")	c #E9E9E9",
"!	c #D9D9D9",
"~	c #C7C7C7",
"{	c #C8C8C8",
"]	c #E8E8E8",
"^	c #C3C3C3",
"/	c #E2E2E2",
"(	c #E5E5E5",
"_	c #CECECE",
":	c #E4E4E4",
"<	c #E3E3E3",
"[	c #E1E1E1",
"}	c #E0E0E0",
"|	c #DFDFDF",
"1	c #CCCCCC",
"2	c #CDCDCD",
"3	c #DEDEDE",
"4	c #DBDBDB",
"5	c #DCDCDC",
"6	c #DDDDDD",
"7	c #D2D2D2",
"8	c #DADADA",
"9	c #D7D7D7",
"0	c #CACACA",
"a	c #D8D8D8",
"b	c #D5D5D5",
"c	c #D4D4D4",
"........................",
"++++++++++++++++++++++++",
"@@@@@@@@@@@@@@@@@@@@@@@@",
"########################",
"$$$$$$$$$$$$$$$$$$$$$$$$",
"%%%%%%%%%%%%%%%%%%%%%%%%",
"&&&&&&&&&&&&&&&&&&&&&&&&",
"********=-;>,;'=********",
")))))))!>~{{{{~,!)))))))",
"]]]]]]!^{{{{{{{{^!]]]]]]",
"=====/>{{{{{{{{{{,/=====",
"(((((_~{{{{{{{{{{~-(((((",
":::::;{{{{{{{{{{{{;:::::",
"<<<<<>{{{{{{{{{{{{><<<<<",
"[[[[[>{{{{{{{{{{{{,[[[[[",
"}}}}}^{{{{{{{{{{{{;}}}}}",
"|||||1~{{{{{{{{{{~2|||||",
"333334,{{{{{{{{{{,533333",
"666666'^{{{{{{{{,7666666",
"4444444-,~{{{{~,'4444444",
"8888888890^,,^0a88888888",
"!!!!!!!!!!!!!!!!!!!!!!!!",
"aaaaaaaaaaaaaaaaaaaaaaaa",
"999999999999999999999999",
"bbbbbbbbbbbbbbbbbbbbbbbb",
"cccccccccccccccccccccccc"};
