/* XPM */
static char * hide_active_xpm[] = {
"24 26 65 1",
" 	c None",
".	c #F2F2F2",
"+	c #F1F1F1",
"@	c #F0F0F0",
"#	c #EFEFEF",
"$	c #EEEEEE",
"%	c #ECECEC",
"&	c #EBEBEB",
"*	c #EAEAEA",
"=	c #E9E4D7",
"-	c #E3C376",
";	c #E5B338",
">	c #EAB126",
",	c #E9B126",
"'	c #E5B439",
")	c #E3C377",
"!	c #E9E9E9",
"~	c #E4D09F",
"{	c #F8C334",
"]	c #FAC536",
"^	c #E8B126",
"/	c #E4D0A0",
"(	c #E8E8E8",
"_	c #EEB729",
":	c #E6E6E6",
"<	c #E5E0D3",
"[	c #E9B227",
"}	c #E5E0D4",
"|	c #E5E5E5",
"1	c #E1C174",
"2	c #F8C333",
"3	c #E1C277",
"4	c #E4E4E4",
"5	c #E5B337",
"6	c #E3E3E3",
"7	c #E1E1E1",
"8	c #E9B127",
"9	c #E0E0E0",
"0	c #E5B237",
"a	c #DFDFDF",
"b	c #DEBE72",
"c	c #F7C233",
"d	c #DEBF75",
"e	c #DEDEDE",
"f	c #DED9CC",
"g	c #E9B228",
"h	c #DED9CE",
"i	c #DDDDDD",
"j	c #DCC898",
"k	c #EEB628",
"l	c #DCC99A",
"m	c #DBDBDB",
"n	c #DBC797",
"o	c #DBC899",
"p	c #DADADA",
"q	c #DAD5C9",
"r	c #DBBC71",
"s	c #E4B237",
"t	c #DBBC72",
"u	c #DAD5CA",
"v	c #D9D9D9",
"w	c #D8D8D8",
"x	c #D7D7D7",
"y	c #D5D5D5",
"z	c #D4D4D4",
"........................",
"++++++++++++++++++++++++",
"@@@@@@@@@@@@@@@@@@@@@@@@",
"########################",
"$$$$$$$$$$$$$$$$$$$$$$$$",
"%%%%%%%%%%%%%%%%%%%%%%%%",
"&&&&&&&&&&&&&&&&&&&&&&&&",
"********=-;>,')=********",
"!!!!!!!~,{]]]]{^/!!!!!!!",
"((((((~_]]]]]]]]_/((((((",
":::::<,]]]]]]]]]][}:::::",
"|||||1{]]]]]]]]]]23|||||",
"444445]]]]]]]]]]]];44444",
"66666[]]]]]]]]]]]]^66666",
"77777,]]]]]]]]]]]]877777",
"999990]]]]]]]]]]]];99999",
"aaaaab{]]]]]]]]]]cdaaaaa",
"eeeeef^]]]]]]]]]]gheeeee",
"iiiiiij_]]]]]]]]kliiiiii",
"mmmmmmmn82]]]]cgommmmmmm",
"ppppppppqrs,,stupppppppp",
"vvvvvvvvvvvvvvvvvvvvvvvv",
"wwwwwwwwwwwwwwwwwwwwwwww",
"xxxxxxxxxxxxxxxxxxxxxxxx",
"yyyyyyyyyyyyyyyyyyyyyyyy",
"zzzzzzzzzzzzzzzzzzzzzzzz"};
