/* XPM */
static char * maximize_pressed_xpm[] = {
"24 26 69 1",
" 	c None",
".	c #F2F2F2",
"+	c #F1F1F1",
"@	c #F0F0F0",
"#	c #EFEFEF",
"$	c #EEEEEE",
"%	c #ECECEC",
"&	c #EBEBEB",
"*	c #EAEAEA",
"=	c #D8E7D9",
"-	c #7BD581",
";	c #3BC944",
">	c #1CC327",
",	c #3CC945",
"'	c #7CD581",
")	c #E9E9E9",
"!	c #A1DBA5",
"~	c #1EC328",
"{	c #13C11E",
"]	c #A2DCA6",
"^	c #E8E8E8",
"/	c #14C11F",
"(	c #E6E6E6",
"_	c #D4E3D5",
":	c #1FC329",
"<	c #D5E3D5",
"[	c #E5E5E5",
"}	c #78D27E",
"|	c #11B01B",
"1	c #0A6810",
"2	c #09600F",
"3	c #0D8114",
"4	c #7AD27F",
"5	c #E4E4E4",
"6	c #39C742",
"7	c #3BC844",
"8	c #E3E3E3",
"9	c #1DC328",
"0	c #12B21C",
"a	c #0A6A10",
"b	c #E1E1E1",
"c	c #1DC227",
"d	c #1EC228",
"e	c #E0E0E0",
"f	c #3AC743",
"g	c #DFDFDF",
"h	c #76CF7B",
"i	c #78D07D",
"j	c #DEDEDE",
"k	c #CDDCCE",
"l	c #CEDCCF",
"m	c #DDDDDD",
"n	c #9AD49E",
"o	c #9CD4A0",
"p	c #DBDBDB",
"q	c #99D39D",
"r	c #9BD39F",
"s	c #DADADA",
"t	c #CAD8CA",
"u	c #75CD7A",
"v	c #3AC643",
"w	c #1CC227",
"x	c #76CE7B",
"y	c #CAD8CB",
"z	c #D9D9D9",
"A	c #D8D8D8",
"B	c #D7D7D7",
"C	c #D5D5D5",
"D	c #D4D4D4",
"........................",
"++++++++++++++++++++++++",
"@@@@@@@@@@@@@@@@@@@@@@@@",
"########################",
"$$$$$$$$$$$$$$$$$$$$$$$$",
"%%%%%%%%%%%%%%%%%%%%%%%%",
"&&&&&&&&&&&&&&&&&&&&&&&&",
"********=-;>>,'=********",
")))))))!~{{{{{{~])))))))",
"^^^^^^!/{{{{{{{{/]^^^^^^",
"(((((_~{{{{{{{{{{:<(((((",
"[[[[[}{{{{|1223{{{4[[[[[",
"555556{{{|{|122{{{755555",
"888889{{{1|{0a2{{{~88888",
"bbbbbc{{{21|{0a{{{dbbbbb",
"eeeee6{{{221|{|{{{feeeee",
"gggggh{{{3221|{{{{iggggg",
"jjjjjkc{{{{{{{{{{:ljjjjj",
"mmmmmmn/{{{{{{{{/ommmmmm",
"pppppppqd{{{{{{:rppppppp",
"sssssssstuvwwvxyssssssss",
"zzzzzzzzzzzzzzzzzzzzzzzz",
"AAAAAAAAAAAAAAAAAAAAAAAA",
"BBBBBBBBBBBBBBBBBBBBBBBB",
"CCCCCCCCCCCCCCCCCCCCCCCC",
"DDDDDDDDDDDDDDDDDDDDDDDD"};
