/* XPM */
static char * maximize_prelight_xpm[] = {
"24 26 70 1",
" 	c None",
".	c #F2F2F2",
"+	c #F1F1F1",
"@	c #F0F0F0",
"#	c #EFEFEF",
"$	c #EEEEEE",
"%	c #ECECEC",
"&	c #EBEBEB",
"*	c #EAEAEA",
"=	c #D8E7D9",
"-	c #78D57E",
";	c #39D345",
">	c #29D537",
",	c #29D536",
"'	c #3AD346",
")	c #79D57E",
"!	c #E9E9E9",
"~	c #A0DBA4",
"{	c #2AD436",
"]	c #36E746",
"^	c #39EA49",
"/	c #29D436",
"(	c #A1DCA5",
"_	c #E8E8E8",
":	c #2CDB3A",
"<	c #2BDB3A",
"[	c #E6E6E6",
"}	c #D4E3D5",
"|	c #2AD437",
"1	c #D5E3D5",
"2	c #E5E5E5",
"3	c #76D37C",
"4	c #34D643",
"5	c #1F7F28",
"6	c #1C7524",
"7	c #269D31",
"8	c #79D47E",
"9	c #E4E4E4",
"0	c #3BD245",
"a	c #E3E3E3",
"b	c #34D542",
"c	c #35D843",
"d	c #1F8028",
"e	c #E1E1E1",
"f	c #E0E0E0",
"g	c #DFDFDF",
"h	c #74D079",
"i	c #77D27C",
"j	c #DEDEDE",
"k	c #CDDCCE",
"l	c #2BD437",
"m	c #CEDCCF",
"n	c #DDDDDD",
"o	c #99D49D",
"p	c #2BDB39",
"q	c #9BD49F",
"r	c #DBDBDB",
"s	c #98D39C",
"t	c #9AD39E",
"u	c #DADADA",
"v	c #CAD8CA",
"w	c #73CE78",
"x	c #3AD145",
"y	c #74CF79",
"z	c #CAD8CB",
"A	c #D9D9D9",
"B	c #D8D8D8",
"C	c #D7D7D7",
"D	c #D5D5D5",
"E	c #D4D4D4",
"........................",
"++++++++++++++++++++++++",
"@@@@@@@@@@@@@@@@@@@@@@@@",
"########################",
"$$$$$$$$$$$$$$$$$$$$$$$$",
"%%%%%%%%%%%%%%%%%%%%%%%%",
"&&&&&&&&&&&&&&&&&&&&&&&&",
"********=-;>,')=********",
"!!!!!!!~{]^^^^]/(!!!!!!!",
"______~:^^^^^^^^<(______",
"[[[[[}{^^^^^^^^^^|1[[[[[",
"222223]^^^45667^^]822222",
"99999;^^^4^4566^^^099999",
"aaaaa|^^^5b^cd6^^^/aaaaa",
"eeeee{^^^65b^cd^^^|eeeee",
"fffff;^^^6654^4^^^0fffff",
"gggggh]^^76654^^^]iggggg",
"jjjjjk/^^^^^^^^^^lmjjjjj",
"nnnnnno<^^^^^^^^pqnnnnnn",
"rrrrrrrs|]^^^^]ltrrrrrrr",
"uuuuuuuuvwx//xyzuuuuuuuu",
"AAAAAAAAAAAAAAAAAAAAAAAA",
"BBBBBBBBBBBBBBBBBBBBBBBB",
"CCCCCCCCCCCCCCCCCCCCCCCC",
"DDDDDDDDDDDDDDDDDDDDDDDD",
"EEEEEEEEEEEEEEEEEEEEEEEE"};
