/* XPM */
static char * maximize_active_xpm[] = {
"24 26 63 1",
" 	c None",
".	c #F2F2F2",
"+	c #F1F1F1",
"@	c #F0F0F0",
"#	c #EFEFEF",
"$	c #EEEEEE",
"%	c #ECECEC",
"&	c #EBEBEB",
"*	c #EAEAEA",
"=	c #D8E7D9",
"-	c #78D57E",
";	c #39D345",
">	c #29D537",
",	c #29D536",
"'	c #3AD346",
")	c #79D57E",
"!	c #E9E9E9",
"~	c #A0DBA4",
"{	c #2AD436",
"]	c #36E746",
"^	c #39EA49",
"/	c #29D436",
"(	c #A1DCA5",
"_	c #E8E8E8",
":	c #2CDB3A",
"<	c #2BDB3A",
"[	c #E6E6E6",
"}	c #D4E3D5",
"|	c #2AD437",
"1	c #D5E3D5",
"2	c #E5E5E5",
"3	c #76D37C",
"4	c #79D47E",
"5	c #E4E4E4",
"6	c #3BD245",
"7	c #E3E3E3",
"8	c #E1E1E1",
"9	c #E0E0E0",
"0	c #DFDFDF",
"a	c #74D079",
"b	c #77D27C",
"c	c #DEDEDE",
"d	c #CDDCCE",
"e	c #2BD437",
"f	c #CEDCCF",
"g	c #DDDDDD",
"h	c #99D49D",
"i	c #2BDB39",
"j	c #9BD49F",
"k	c #DBDBDB",
"l	c #98D39C",
"m	c #9AD39E",
"n	c #DADADA",
"o	c #CAD8CA",
"p	c #73CE78",
"q	c #3AD145",
"r	c #74CF79",
"s	c #CAD8CB",
"t	c #D9D9D9",
"u	c #D8D8D8",
"v	c #D7D7D7",
"w	c #D5D5D5",
"x	c #D4D4D4",
"........................",
"++++++++++++++++++++++++",
"@@@@@@@@@@@@@@@@@@@@@@@@",
"########################",
"$$$$$$$$$$$$$$$$$$$$$$$$",
"%%%%%%%%%%%%%%%%%%%%%%%%",
"&&&&&&&&&&&&&&&&&&&&&&&&",
"********=-;>,')=********",
"!!!!!!!~{]^^^^]/(!!!!!!!",
"______~:^^^^^^^^<(______",
"[[[[[}{^^^^^^^^^^|1[[[[[",
"222223]^^^^^^^^^^]422222",
"55555;^^^^^^^^^^^^655555",
"77777|^^^^^^^^^^^^/77777",
"88888{^^^^^^^^^^^^|88888",
"99999;^^^^^^^^^^^^699999",
"00000a]^^^^^^^^^^]b00000",
"cccccd/^^^^^^^^^^efccccc",
"ggggggh<^^^^^^^^ijgggggg",
"kkkkkkkl|]^^^^]emkkkkkkk",
"nnnnnnnnopq//qrsnnnnnnnn",
"tttttttttttttttttttttttt",
"uuuuuuuuuuuuuuuuuuuuuuuu",
"vvvvvvvvvvvvvvvvvvvvvvvv",
"wwwwwwwwwwwwwwwwwwwwwwww",
"xxxxxxxxxxxxxxxxxxxxxxxx"};
