/* XPM */
static char * top_left_inactive_xpm[] = {
"5 26 26 1",
" 	c None",
".	c #E1E1E1",
"+	c #F1F1F1",
"@	c #F0F0F0",
"#	c #EFEFEF",
"$	c #EEEEEE",
"%	c #ECECEC",
"&	c #EBEBEB",
"*	c #EAEAEA",
"=	c #E9E9E9",
"-	c #E8E8E8",
";	c #E6E6E6",
">	c #E5E5E5",
",	c #E4E4E4",
"'	c #E3E3E3",
")	c #E0E0E0",
"!	c #DFDFDF",
"~	c #DEDEDE",
"{	c #DDDDDD",
"]	c #DBDBDB",
"^	c #DADADA",
"/	c #D9D9D9",
"(	c #D8D8D8",
"_	c #D7D7D7",
":	c #D5D5D5",
"<	c #D4D4D4",
"    .",
"  .++",
" .@@@",
" ####",
".$$$$",
".%%%%",
"&&&&&",
"*****",
"=====",
"-----",
";;;;;",
">>>>>",
",,,,,",
"'''''",
".....",
")))))",
"!!!!!",
"~~~~~",
"{{{{{",
"]]]]]",
"^^^^^",
"/////",
"(((((",
"_____",
":::::",
"<<<<<"};
