<svg xmlns="http://www.w3.org/2000/svg" xmlns:xlink="http://www.w3.org/1999/xlink" width="32" height="32"><defs><linearGradient id="a"><stop stop-color="#3daee9"/><stop offset="1" stop-color="#6cc1ef"/></linearGradient><linearGradient id="b"><stop stop-color="#21bbd7"/><stop offset="1" stop-color="#3dc8e1"/></linearGradient><linearGradient xlink:href="#a" id="c" gradientUnits="userSpaceOnUse" gradientTransform="matrix(.51054 0 0 .48036 424.235 516.492)" x1="65.965" y1="58.048" x2="65.965" y2="16.036"/></defs><path d="M3.443 3.68c-.865 0-1.56.712-1.56 1.597v3.256c-.665.228-1.141.827-1.164 1.543H.707v8.235c0 .939.785 1.695 1.762 1.695h17.1c.976 0 1.763-.756 1.763-1.695V8.53c0-.74-.492-1.359-1.176-1.592v-.207h-.01c-.026-.86-.704-1.55-1.552-1.55h-6.598L10.494 3.68h-7.05zm.735 1.039h5.97l1.315 1.316H17.859a1.4 1.4 0 0 1 1.403 1.36h.008v.181c.617.204 1.062.746 1.062 1.395v8.572c0 .824-.71 1.486-1.592 1.486H3.3c-.882 0-1.592-.663-1.592-1.486v-7.219h.01c.02-.628.452-1.152 1.053-1.351V6.119a1.4 1.4 0 0 1 1.408-1.4z" fill="#167b8d" fill-rule="evenodd"/><g fill-rule="evenodd" stroke-linejoin="round"><path d="M20.33 11.803h-7.134c-.876 0-1.58.721-1.58 1.617v9.315c0 .895.704 1.616 1.58 1.616h15.328c.876 0 1.58-.72 1.58-1.616V14.89h-.01c-.026-.87-.712-1.568-1.57-1.568h-6.675z" fill="#147eb8"/><path d="M20.256 14.957l-1.022.505-1.199.594h-5.444c-.232 0-.451.047-.651.132-.122.052-.219.142-.324.22v.54c.105-.078.202-.168.324-.22.2-.085.42-.132.651-.132h6.062z" fill-opacity=".235"/><path d="M20.33 11.803l.34.833.482 1.18h7.372a1.539 1.539 0 0 1 1.097.457 1.65 1.65 0 0 1 .474 1.11h.01v-.493h-.01c-.027-.87-.713-1.568-1.571-1.568h-6.675z" fill="#fff" fill-opacity=".235"/><path d="M439.634 524.279l-2.488 2.395h-9.413c-1.438 0-2.587 1.097-2.63 2.47h-.017v12.365c0 1.41 1.18 2.547 2.647 2.547h25.678c1.466 0 2.646-1.136 2.646-2.547v-14.683c0-1.41-1.18-2.547-2.646-2.547z" transform="matrix(.67374 0 0 .67374 -275.969 -338.23)" fill="url(#c)"/><path d="M20.228 14.996l-1.676 1.613h-6.341c-.97 0-1.743.74-1.772 1.664h-.012v.442h.012a1.67 1.67 0 0 1 .533-1.18 1.817 1.817 0 0 1 1.238-.486h6.939l.61-1.16.222-.422.004-.005z" fill="#fff" fill-opacity=".235"/><path d="M31.083 27.389H10.637c.237.517.786.931 1.574.931h17.3c.788 0 1.335-.414 1.572-.931z" opacity=".2"/></g></svg>