<svg xmlns="http://www.w3.org/2000/svg" xmlns:xlink="http://www.w3.org/1999/xlink" width="32" height="32"><defs><linearGradient xlink:href="#a" id="b" x1="65.965" y1="58.048" x2="65.965" y2="16.036" gradientUnits="userSpaceOnUse" gradientTransform="matrix(.51054 0 0 .37146 384.235 522.741)"/><linearGradient id="a"><stop stop-color="#3daee9"/><stop offset="1" stop-color="#6cc1ef"/></linearGradient></defs><g fill-rule="evenodd" stroke-linejoin="round"><path d="M15.213 3.742H4.624c-1.3 0-2.344 1.071-2.344 2.4v13.826c0 1.329 1.045 2.399 2.344 2.399h22.751c1.3 0 2.345-1.07 2.345-2.399V8.325h-.014c-.039-1.293-1.057-2.328-2.331-2.328h-9.907z" fill="#147eb8" stroke-width=".397"/><path d="M15.062 12.965l-1.46.5-1.794.59H3.727c-.344 0-.716-.007-1.013.12-.18.076-.301.148-.457.264l.023.94c.156-.116.3-.25.48-.326.297-.127.623-.196.967-.196h8.998z" fill-opacity=".235" stroke-width=".397"/><path d="M15.213 3.742l.505 1.237.715 1.75h10.943a2.284 2.284 0 0 1 1.628.68c.21.21.38.46.5.739.122.279.193.585.203.909h.014v-.732h-.014c-.04-1.293-1.058-2.328-2.332-2.328h-9.907z" fill="#fff" fill-opacity=".235" stroke-width=".397"/><path d="M399.634 528.762l-2.488 1.852h-9.412c-1.438 0-2.587.85-2.631 1.91h-.017v9.563c0 1.09 1.18 1.969 2.647 1.969h25.678c1.466 0 2.646-.879 2.646-1.97v-11.354c0-1.09-1.18-1.97-2.646-1.97z" fill="url(#b)" stroke-width=".382" transform="translate(-384.571 -515.798)"/><path d="M15.062 12.965l-2.487 1.852H3.162c-1.438 0-2.586.849-2.63 1.91H.515v.506h.017c.01-.265.09-.518.226-.746.137-.23.33-.434.566-.607.236-.172.516-.312.827-.408.31-.096.651-.15 1.011-.15H13.46l.906-1.332.329-.484.007-.006z" fill="#fff" fill-opacity=".235" stroke-width=".382"/><path d="M31.174 27.19H.826c.353.592 1.167 1.068 2.336 1.068H28.84c1.17 0 1.982-.476 2.334-1.069z" opacity=".2" stroke-width=".334"/></g></svg>