<svg xmlns="http://www.w3.org/2000/svg" xmlns:xlink="http://www.w3.org/1999/xlink" width="32" height="32"><defs><linearGradient id="b"><stop stop-color="#1abc9c"/><stop offset="1" stop-color="#2980b9"/></linearGradient><linearGradient id="c"><stop stop-color="#cc4a5e"/><stop offset="1" stop-color="#aa478a"/></linearGradient><linearGradient id="a"><stop stop-color="#334545"/><stop offset="1" stop-color="#536161"/></linearGradient><linearGradient xlink:href="#a" id="g" y1="568.798" x1="431.571" y2="562.798" x2="439.571" gradientUnits="userSpaceOnUse" gradientTransform="matrix(-.66667 0 0 .85555 687.619 52.55)"/><linearGradient xlink:href="#a" id="i" y1="581.87" x1="406.537" y2="572.678" x2="423.32" gradientUnits="userSpaceOnUse" gradientTransform="matrix(-.66667 0 0 .85555 687.619 52.55)"/><linearGradient xlink:href="#a" id="h" y1="572.334" x1="423.054" y2="566.766" x2="431.225" gradientUnits="userSpaceOnUse" gradientTransform="matrix(-.66667 0 0 .85555 687.619 52.55)"/><linearGradient xlink:href="#a" id="j" y1="577.102" x1="431.313" y2="571.445" x2="440.632" gradientUnits="userSpaceOnUse" gradientTransform="matrix(-.66667 0 0 .85555 687.619 52.55)"/><linearGradient xlink:href="#a" id="k" y1="577.362" x1="430.567" y2="591.328" x2="423.75" gradientUnits="userSpaceOnUse" gradientTransform="matrix(-.66667 0 0 .85555 687.619 52.55)"/><linearGradient xlink:href="#b" id="d" x1="438" y1="520.73" x2="457.443" y2="539.215" gradientUnits="userSpaceOnUse" gradientTransform="matrix(1 0 0 1.16666 -841.144 -86.298)"/><linearGradient xlink:href="#c" id="e" gradientUnits="userSpaceOnUse" gradientTransform="matrix(.66667 0 0 .85555 128.19 86.771)" x1="404.045" y1="521.633" x2="430.736" y2="528.35"/><linearGradient xlink:href="#a" id="f" gradientUnits="userSpaceOnUse" gradientTransform="matrix(.66667 0 0 .85555 128.19 86.771)" x1="398.092" y1="542.224" x2="394.003" y2="524.9"/></defs><g transform="translate(-384.571 -515.798)"><rect width="32" height="28" x="-416.571" y="517.798" ry="3.669" transform="scale(-1 1)" fill="url(#d)" fill-rule="evenodd"/><path d="M410.318 545.798h2.585a3.669 3.669 0 0 0 2.596-1.072 3.662 3.662 0 0 0 1.072-2.596v-20.664a3.669 3.669 0 0 0-1.072-2.596c-.056-.056-.137-.08-.197-.133l-20.754 15.377z" fill="url(#e)"/><path d="M416.571 525.769v-4.303a3.669 3.669 0 0 0-1.072-2.596c-.056-.056-.137-.08-.197-.133l-20.754 15.377z" fill="#aa478a"/><path d="M384.571 541.464v.666a3.669 3.669 0 0 0 1.073 2.596 3.662 3.662 0 0 0 2.595 1.072h22.227l-15.895-11.744z" fill="url(#f)"/><path d="M400.077 538.133l-5.506-4.08v8.16z" fill="url(#g)"/><path d="M400.077 538.133v7.665h.666l4.84-3.586z" fill="url(#h)"/><path d="M405.583 542.21v3.588h4.84z" fill="url(#i)"/><path d="M394.571 542.212v3.586h4.84z" fill="url(#j)"/><path d="M405.583 542.21l-4.841 3.588h4.84z" fill="url(#k)"/><path d="M384.571 541.798v.332a3.669 3.669 0 0 0 1.073 2.596 3.662 3.662 0 0 0 2.595 1.072h24.664a3.669 3.669 0 0 0 2.596-1.072 3.662 3.662 0 0 0 1.072-2.596v-.332z" fill="#fff" fill-opacity=".784"/><circle cx="413.311" cy="543.798" r="1" fill="#4d4d4d"/><path d="M386.571 542.798v1h1v-1zm1 1v1h1v-1z" fill="#4d4d4d"/></g></svg>