<svg xmlns="http://www.w3.org/2000/svg" height="32" width="32">
    <path d="M23.5 3.5H7.921C6.036 3.5 4.5 5.104 4.5 7.073V30.5h19.579c1.885 0 3.421-1.604 3.421-3.573V7.5" fill="#757575" stroke="#757575" stroke-linecap="round" stroke-linejoin="round" stroke-width="1.2" fill-opacity=".05"/>
      <g
      transform="scale(1 1) translate(5 6.3)"
     id="g2522">     <path d="M16.91 6.133l-4.113.676c.062 2.558-2.664 4.336-5.223-.485l-4.84.68c.754 2.605 3.457 2.926 5.262 4.293-.902 1.289-5 .512-4.89 4.523l4.113-.675c-.059-2.56 4.687-4.711 7.246.105l4.836-.676c-.754-2.613-3.625-2.863-5.43-4.242.895-1.867 3.852-.187 3.04-4.203" fill="#FE1919"/>
    </g>
</svg>
