<svg xmlns="http://www.w3.org/2000/svg" height="32" width="32">
    <path d="M23.5 3.5H7.921C6.036 3.5 4.5 5.104 4.5 7.073V30.5h19.579c1.885 0 3.421-1.604 3.421-3.573V7.5" fill="#757575" stroke="#757575" stroke-linecap="round" stroke-linejoin="round" stroke-width="1.2" fill-opacity=".05"/>
      <g
      transform="scale(1 1) translate(5 6.3)"
     id="g2522">     <path d="M2.75 2.75v11h4.125V4.125H11v2.75h4.125V2.75zm1.375 1.375H5.5V5.5H4.125zm8.25 0h1.375V5.5h-1.375zm-8.25 2.75H5.5v2.75H4.125zM8.25 8.25v8.25L11 19.25V16.5h8.25V8.25zm1.375 1.375h8.25v5.5h-8.25zM4.125 11H5.5v1.375H4.125zm0 0" fill="#7F8080"/>
    </g>
</svg>
