<svg xmlns="http://www.w3.org/2000/svg" height="32" width="32">
    <path d="M23.5 3.5H7.921C6.036 3.5 4.5 5.104 4.5 7.073V30.5h19.579c1.885 0 3.421-1.604 3.421-3.573V7.5" fill="#757575" stroke="#757575" stroke-linecap="round" stroke-linejoin="round" stroke-width="1.2" fill-opacity=".05"/>
      <g
      transform="scale(1 1) translate(5 6.3)"
     id="g2522">     <path d="M2.75 4.125c-.762 0-1.375.613-1.375 1.375v11c0 .762.613 1.375 1.375 1.375h16.5c.762 0 1.375-.613 1.375-1.375v-11c0-.762-.613-1.375-1.375-1.375zm0 1.375h.402l5.008 5.008L3.023 16.5H2.75zm2.348 0h11.804L11 11.402zm13.75 0h.402v11h-.27l-5.136-5.992zM9.14 11.48l1.863 1.868 1.867-1.868 4.3 5.02H4.837zm0 0" fill="#198CFE"/>
    </g>
</svg>
