<svg xmlns="http://www.w3.org/2000/svg" height="32" width="32">
    <path d="M23.5 3.5H7.921C6.036 3.5 4.5 5.104 4.5 7.073V30.5h19.579c1.885 0 3.421-1.604 3.421-3.573V7.5" fill="#757575" stroke="#757575" stroke-linecap="round" stroke-linejoin="round" stroke-width="1.2" fill-opacity=".05"/>
      <g
      transform="scale(1 1) translate(5 6.3)"
     id="g2522">     <path d="M11 2.75C9.527 8 5.5 11.102 5.5 14c0 2.898 2.46 5.25 5.5 5.25s5.5-2.352 5.5-5.25S12.473 8 11 2.75m3.781 8.57c.606.774.93 1.715.934 2.68 0 2.484-2.11 4.5-4.715 4.5a4.849 4.849 0 0 1-2.8-.887c.402.09.816.137 1.23.137 3.035 0 5.5-2.352 5.5-5.25a5.218 5.218 0 0 0-.149-1.18" fill="#19FEFE"/>
    </g>
</svg>
