<svg xmlns="http://www.w3.org/2000/svg" height="32" width="32">
    <path d="M23.5 3.5H7.921C6.036 3.5 4.5 5.104 4.5 7.073V30.5h19.579c1.885 0 3.421-1.604 3.421-3.573V7.5" fill="#757575" stroke="#757575" stroke-linecap="round" stroke-linejoin="round" stroke-width="1.2" fill-opacity=".05"/>
      <g
      transform="scale(1 1) translate(5 6.3)"
     id="g2522">     <path d="M2.75 2.75v1.375h16.5V2.75zM8.617 5.5l.028.668 4.714 6.207-5.109 6.113v.762h11v-3.816h-.785c0 .761.207 1.234-.465 1.691-.734.504-1.703.598-2.555.598h-4.05l3.93-5.348-3.93-6.113h2.308c1.64 0 3.969-.145 4.617 1.77.114.323.117.945.145 1.288h.785V5.5zM2.75 6.875V8.25h5.5V6.875zm0 2.75V11h6.875V9.625zm0 4.125v1.375h6.875V13.75zm0 2.75v1.375h5.5V16.5zm0 0" fill="#19C5FE"/>
    </g>
</svg>
