<svg xmlns="http://www.w3.org/2000/svg" height="32" width="32">
    <path d="M23.5 3.5H7.921C6.036 3.5 4.5 5.104 4.5 7.073V30.5h19.579c1.885 0 3.421-1.604 3.421-3.573V7.5" fill="#757575" stroke="#757575" stroke-linecap="round" stroke-linejoin="round" stroke-width="1.2" fill-opacity=".05"/>
      <g
      transform="scale(1 1) translate(5 6.3)"
     id="g2522">     <g fill="#FE8C19">
        <path d="M2.75 2.75v16.5h16.5V2.75H16.5V5.5h-2.75V2.75h-5.5V5.5H5.5V2.75zm1.375 4.125h13.75v11H4.125zm0 0"/>
        <path d="M9.625 12.375V16.5H11v-1.375h4.125V16.5H16.5v-4.125h-1.375v1.375H11v-1.375zM5.5 8.25v4.125h1.375V11h5.5v1.375h1.375V8.25h-1.375v1.375h-5.5V8.25zm0 0"/>
    </g>
    </g>
</svg>
