<svg xmlns="http://www.w3.org/2000/svg" height="32" width="32">
    <path d="M23.5 3.5H7.921C6.036 3.5 4.5 5.104 4.5 7.073V30.5h19.579c1.885 0 3.421-1.604 3.421-3.573V7.5" fill="#757575" stroke="#757575" stroke-linecap="round" stroke-linejoin="round" stroke-width="1.2" fill-opacity=".05"/>
      <g
      transform="scale(1 1) translate(5 6.3)"
     id="g2522">     <path d="M10.313 4.125a7.564 7.564 0 0 0 0 15.125 7.564 7.564 0 0 0 0-15.125m0 1.375a6.184 6.184 0 0 1 6.187 6.188 6.184 6.184 0 0 1-6.188 6.187 6.184 6.184 0 0 1-6.187-6.188A6.184 6.184 0 0 1 10.313 5.5m-.688 1.375V8.25H11V6.875zm0 2.75V16.5H11V9.625zm0 0" fill="#19FEC5"/>
    </g>
</svg>
