<svg xmlns="http://www.w3.org/2000/svg" height="32" width="32">
    <path d="M23.5 3.5H7.921C6.036 3.5 4.5 5.104 4.5 7.073V30.5h19.579c1.885 0 3.421-1.604 3.421-3.573V7.5" fill="#757575" stroke="#757575" stroke-linecap="round" stroke-linejoin="round" stroke-width="1.2" fill-opacity=".05"/>
      <g
      transform="scale(1 1) translate(5 6.3)"
     id="g2522">     <path d="M9.625 2.75V5.5h2.75V2.75zm-.18 3.242l-2.722.73 1.125 1.126 1.777-.48V5.991zm2.93 0v1.375l4.203 1.125-4.203 1.125v9.625h.18l6.683-1.789h.012v-9.68l-.012.004-6.683-1.793zM4.551 7.301l-1.801.484v10.09L11 19.25V9.625L4.96 8.617l.716-.191zm13.324 2.273v6.094l-4.125-1.11V10.68zm-4.125 6.41l2.828.758-2.828.762zm0 0" fill-rule="evenodd" fill="#198CFE"/>
    </g>
</svg>
