<svg xmlns="http://www.w3.org/2000/svg" height="32" width="32">
    <path d="M23.5 3.5H7.921C6.036 3.5 4.5 5.104 4.5 7.073V30.5h19.579c1.885 0 3.421-1.604 3.421-3.573V7.5" fill="#757575" stroke="#757575" stroke-linecap="round" stroke-linejoin="round" stroke-width="1.2" fill-opacity=".05"/>
      <g
      transform="scale(1 1) translate(5 6.3)"
     id="g2522">     <path d="M2.75 2.75v16.5h16.5V2.75zm1.375 1.375h13.75v11H4.125zM6.875 5.5v2.75h2.75V5.5zm5.5 0v2.75h2.75V5.5zm-5.5 5.5v2.75h2.75V11zm5.5 0v2.75h2.75V11zm-8.25 5.5h13.75v1.375H4.125zm0 0" fill="#19C5FE"/>
    </g>
</svg>
