<svg xmlns="http://www.w3.org/2000/svg" height="32" width="32">
    <path d="M23.5 3.5H7.921C6.036 3.5 4.5 5.104 4.5 7.073V30.5h19.579c1.885 0 3.421-1.604 3.421-3.573V7.5" fill="#757575" stroke="#757575" stroke-linecap="round" stroke-linejoin="round" stroke-width="1.2" fill-opacity=".05"/>
      <g
      transform="scale(1 1) translate(5 6.3)"
     id="g2522">     <g fill="#FEC519">
        <path d="M2.75 4.125V19.25h16.5V4.125zM4.125 5.5h13.75v12.375H4.125zM16.5 2.75h1.375v1.375H16.5zm-12.375 0H5.5v1.375H4.125zm2.75 0H8.25v1.375H6.875zm6.875 0h1.375v1.375H13.75zm0 0"/>
        <path d="M5.5 6.875h11V8.25h-11zm0 2.75H11V11H5.5zm8.25 5.5h2.75V16.5h-2.75zm-8.25-2.75h8.25v1.375H5.5zm0 0"/>
    </g>
    </g>
</svg>
