<svg xmlns="http://www.w3.org/2000/svg" height="32" width="32">
    <path d="M23.5 3.5H7.921C6.036 3.5 4.5 5.104 4.5 7.073V30.5h19.579c1.885 0 3.421-1.604 3.421-3.573V7.5" fill="#757575" stroke="#757575" stroke-linecap="round" stroke-linejoin="round" stroke-width="1.2" fill-opacity=".05"/>
      <g
      transform="scale(1 1) translate(5 6.3)"
     id="g2522">     <path d="M11 2.75c-4.555 0-8.25 1.23-8.25 2.75v11c0 1.52 3.695 2.75 8.25 2.75s8.25-1.23 8.25-2.75v-11c0-1.52-3.695-2.75-8.25-2.75m0 1.375c3.797 0 6.875.617 6.875 1.375S14.797 6.875 11 6.875 4.125 6.258 4.125 5.5 7.203 4.125 11 4.125m-6.875 2.89C5.648 7.786 8.23 8.25 11 8.25c2.766 0 5.348-.465 6.875-1.234V11c0 .758-3.078 1.375-6.875 1.375S4.125 11.758 4.125 11zm0 5.5c1.523.77 4.105 1.235 6.875 1.235 2.766 0 5.348-.465 6.875-1.234V16.5c0 .758-3.078 1.375-6.875 1.375s-6.875-.617-6.875-1.375zm0 0" fill="#FF19C5"/>
    </g>
</svg>
