<svg xmlns="http://www.w3.org/2000/svg" height="32" width="32">
    <path d="M23.5 3.5H7.921C6.036 3.5 4.5 5.104 4.5 7.073V30.5h19.579c1.885 0 3.421-1.604 3.421-3.573V7.5" fill="#757575" stroke="#757575" stroke-linecap="round" stroke-linejoin="round" stroke-width="1.2" fill-opacity=".05"/>
      <g
      transform="scale(1 1) translate(5 6.3)"
     id="g2522">     <path d="M4.125 2.75v4.125h-2.75v10.313c0 1.144.918 2.062 2.063 2.062h17.187V2.75zM5.5 4.125h13.75v13.75H5.5zM6.875 5.5v1.375h11V5.5zM2.75 8.25h1.375v9.625h-.688a.684.684 0 0 1-.687-.688zm4.125 0v5.5h5.5v-5.5zm6.875 0v1.375h4.125V8.25zm0 4.125v1.375h4.125v-1.375zm-6.875 2.75V16.5h11v-1.375zm0 0" fill="#7F8080"/>
    </g>
</svg>
