<svg xmlns="http://www.w3.org/2000/svg" height="32" width="32">
    <path d="M23.5 3.5H7.921C6.036 3.5 4.5 5.104 4.5 7.073V30.5h19.579c1.885 0 3.421-1.604 3.421-3.573V7.5" fill="#757575" stroke="#757575" stroke-linecap="round" stroke-linejoin="round" stroke-width="1.2" fill-opacity=".05"/>
      <g
      transform="scale(1 1) translate(5 6.3)"
     id="g2522">     <path d="M9.625 2.75v16.5H11v-8.32a4.8 4.8 0 0 0 3.438 1.449 4.8 4.8 0 0 0 4.812-4.813 4.802 4.802 0 0 0-4.813-4.812A4.783 4.783 0 0 0 11 4.204v-1.45zm4.813 1.375a3.428 3.428 0 0 1 3.437 3.438A3.428 3.428 0 0 1 14.437 11 3.428 3.428 0 0 1 11 7.562a3.428 3.428 0 0 1 3.438-3.437m-10.313 5.5c-.758 0-1.375.617-1.375 1.375s.617 1.375 1.375 1.375S5.5 11.758 5.5 11s-.617-1.375-1.375-1.375" fill="#FE1952"/>
    </g>
</svg>
