<svg xmlns="http://www.w3.org/2000/svg" height="32" width="32">
    <path d="M23.5 3.5H7.921C6.036 3.5 4.5 5.104 4.5 7.073V30.5h19.579c1.885 0 3.421-1.604 3.421-3.573V7.5" fill="#757575" stroke="#757575" stroke-linecap="round" stroke-linejoin="round" stroke-width="1.2" fill-opacity=".05"/>
      <g
      transform="scale(1 1) translate(5 6.3)"
     id="g2522">     <path d="M2.75 2.75L6.875 11 2.75 19.25H5.5L9.625 11 5.5 2.75zm4.125 0L11 11l-4.125 8.25h2.75l2.75-5.5 2.75 5.5h2.75l-8.25-16.5zm8.25 5.5L16.5 11h2.75V8.25zm2.063 4.125l1.375 2.75h.687v-2.75zm0 0" fill-rule="evenodd" fill="#7F8080"/>
    </g>
</svg>
