<svg xmlns="http://www.w3.org/2000/svg" height="32" width="32">
    <path d="M23.5 3.5H7.921C6.036 3.5 4.5 5.104 4.5 7.073V30.5h19.579c1.885 0 3.421-1.604 3.421-3.573V7.5" fill="#757575" stroke="#757575" stroke-linecap="round" stroke-linejoin="round" stroke-width="1.2" fill-opacity=".05"/>
      <g
      transform="scale(1 1) translate(5 6.3)"
     id="g2522">     <path d="M6.875 2.75v4.125H2.75V8.25h4.125v5.5H2.75v1.375h4.125v4.125H8.25v-4.125h5.5v4.125h1.375v-4.125h4.125V13.75h-4.125v-5.5h4.125V6.875h-4.125V2.75H13.75v4.125h-5.5V2.75zm1.375 5.5h5.5v5.5h-5.5zm0 0" fill="#7F8080"/>
    </g>
</svg>
