<?xml version="1.0" encoding="UTF-8" standalone="no"?>
<svg
   xmlns:dc="http://purl.org/dc/elements/1.1/"
   xmlns:cc="http://creativecommons.org/ns#"
   xmlns:rdf="http://www.w3.org/1999/02/22-rdf-syntax-ns#"
   xmlns:svg="http://www.w3.org/2000/svg"
   xmlns="http://www.w3.org/2000/svg"
   xmlns:sodipodi="http://sodipodi.sourceforge.net/DTD/sodipodi-0.dtd"
   xmlns:inkscape="http://www.inkscape.org/namespaces/inkscape"
   width="22"
   height="22"
   version="1.1"
   id="svg10"
   sodipodi:docname="folder-temp.svg">
  <metadata
     id="metadata16">
    <rdf:RDF>
      <cc:Work
         rdf:about="">
        <dc:format>image/svg+xml</dc:format>
        <dc:type
           rdf:resource="http://purl.org/dc/dcmitype/StillImage" />
      </cc:Work>
    </rdf:RDF>
  </metadata>
  <defs
     id="defs14" />
  <sodipodi:namedview
     pagecolor="#ffffff"
     bordercolor="#666666"
     borderopacity="1"
     objecttolerance="10"
     gridtolerance="10"
     guidetolerance="10"
     inkscape:pageopacity="0"
     inkscape:pageshadow="2"
     inkscape:window-width="640"
     inkscape:window-height="480"
     id="namedview12" />
  <path
     d="M21.665 21.665H.5V.5h21.165z"
     fill="none"
     id="path2" />
  <g
     fill="#f5f5f5"
     id="g8">
    <path
       d="M5.79 1.815A3.99 3.99 0 0 0 1.825 5.79v10.58c0 2.175 1.79 3.97 3.965 3.97h10.585c2.18 0 3.965-1.8 3.965-3.97V5.79a3.99 3.99 0 0 0-3.965-3.975zm0 2.65h10.585c.76 0 1.32.57 1.32 1.325v10.58a1.295 1.295 0 0 1-1.32 1.325H5.79a1.295 1.295 0 0 1-1.315-1.325V5.79c0-.75.56-1.325 1.315-1.325z"
       id="path4" />
    <path
       d="M8.435 5.79v6.055l5.96 3.44 1.32-2.3-4.63-2.67V5.79zM7.115.495h7.935V1.82H7.115zm0 19.845h7.935v1.325H7.115z"
       id="path6" />
  </g>
</svg>
