<?xml version="1.0" encoding="UTF-8" standalone="no"?>
<svg
   xmlns:dc="http://purl.org/dc/elements/1.1/"
   xmlns:cc="http://creativecommons.org/ns#"
   xmlns:rdf="http://www.w3.org/1999/02/22-rdf-syntax-ns#"
   xmlns:svg="http://www.w3.org/2000/svg"
   xmlns="http://www.w3.org/2000/svg"
   xmlns:sodipodi="http://sodipodi.sourceforge.net/DTD/sodipodi-0.dtd"
   xmlns:inkscape="http://www.inkscape.org/namespaces/inkscape"
   width="22"
   height="22"
   version="1.1"
   id="svg12"
   sodipodi:docname="folder-development.svg">
  <metadata
     id="metadata18">
    <rdf:RDF>
      <cc:Work
         rdf:about="">
        <dc:format>image/svg+xml</dc:format>
        <dc:type
           rdf:resource="http://purl.org/dc/dcmitype/StillImage" />
      </cc:Work>
    </rdf:RDF>
  </metadata>
  <defs
     id="defs16" />
  <sodipodi:namedview
     pagecolor="#ffffff"
     bordercolor="#666666"
     borderopacity="1"
     objecttolerance="10"
     gridtolerance="10"
     guidetolerance="10"
     inkscape:pageopacity="0"
     inkscape:pageshadow="2"
     inkscape:window-width="640"
     inkscape:window-height="480"
     id="namedview14" />
  <g
     fill="#f5f5f5"
     id="g8">
    <path
       d="M.5 16.375a1.4 1.4 0 0 1 .4-.93l2.865-2.8c.305-.325 1.04-.39 1.335-.21.11 0 1.5.835 1.705 1.15.815 1.25-.45 2.415-1.55 2.04l-.465-.275-2.12 2.08c-.84.7-2.235.125-2.165-1.05zM15.87.655A4.69 4.69 0 0 1 17.42.55l-1.8 3.05a1.29 1.29 0 0 0 .47 1.785l1.155.67a1.31 1.31 0 0 0 1.8-.465l1.795-3.05a4.61 4.61 0 0 1 .66 1.385 4.59 4.59 0 0 1-3.3 5.6 4.69 4.69 0 0 1-1.55.11l-1.065 1.475-4.51-.03s2.01-3.41 2.15-3.435a4.61 4.61 0 0 1-.66-1.395 4.59 4.59 0 0 1 3.3-5.6zM5.26 1.45a4.77 4.77 0 0 0-.86.29c-.03.825.11 1.91-.21 2.19S2.815 3.98 2 3.89a4.8 4.8 0 0 0-.415.99c.635.525 1.51 1.11 1.53 1.53.02.425-.83 1.065-1.4 1.655.13.34.325.65.53.95.805-.165 1.805-.495 2.15-.25.35.25.35 1.335.45 2.15.335.1.68.14 1.035.17.37-.735.75-1.75 1.155-1.86.42-.12 1.275.6 1.98 1.03a4.765 4.765 0 0 0 .785-.7c-.335-.76-.95-1.71-.785-2.11.17-.4 1.29-.62 2.065-.91.005-.1.045-.19.045-.29 0-.25-.05-.5-.085-.745-.8-.21-1.94-.315-2.15-.7-.2-.38.325-1.4.58-2.19a4.87 4.87 0 0 0-.865-.62c-.66.495-1.435 1.315-1.86 1.24-.415-.08-.875-1.085-1.32-1.78-.05.01-.11-.01-.165 0zm.825 2.48a2.232 2.232 0 1 1 0 4.465 2.232 2.232 0 0 1 0-4.465z"
       id="path2" />
    <path
       d="M4.465 12.405h13.21l.01 8.02c0 .65-.625 1.24-1.315 1.24H5.795a1.32 1.32 0 0 1-1.32-1.32z"
       id="path4" />
    <path
       d="M21.615 16.345a1.4 1.4 0 0 0-.4-.93l-2.86-2.8c-.31-.325-1.04-.39-1.34-.21-.105 0-1.5.835-1.7 1.15-.82 1.25.45 2.415 1.55 2.04l.46-.28 2.12 2.08c.845.7 2.24.125 2.17-1.05z"
       id="path6" />
  </g>
  <path
     d="M.5.5h21.165v21.165H.5z"
     fill="none"
     id="path10" />
</svg>
