<?xml version="1.0" encoding="UTF-8" standalone="no"?>
<svg
   xmlns:dc="http://purl.org/dc/elements/1.1/"
   xmlns:cc="http://creativecommons.org/ns#"
   xmlns:rdf="http://www.w3.org/1999/02/22-rdf-syntax-ns#"
   xmlns:svg="http://www.w3.org/2000/svg"
   xmlns="http://www.w3.org/2000/svg"
   xmlns:sodipodi="http://sodipodi.sourceforge.net/DTD/sodipodi-0.dtd"
   xmlns:inkscape="http://www.inkscape.org/namespaces/inkscape"
   width="22"
   height="22"
   version="1.1"
   id="svg6"
   sodipodi:docname="folder-root.svg">
  <metadata
     id="metadata12">
    <rdf:RDF>
      <cc:Work
         rdf:about="">
        <dc:format>image/svg+xml</dc:format>
        <dc:type
           rdf:resource="http://purl.org/dc/dcmitype/StillImage" />
      </cc:Work>
    </rdf:RDF>
  </metadata>
  <defs
     id="defs10" />
  <sodipodi:namedview
     pagecolor="#ffffff"
     bordercolor="#666666"
     borderopacity="1"
     objecttolerance="10"
     gridtolerance="10"
     guidetolerance="10"
     inkscape:pageopacity="0"
     inkscape:pageshadow="2"
     inkscape:window-width="640"
     inkscape:window-height="480"
     id="namedview8" />
  <path
     d="M.5.5h21.165v21.165H.5z"
     fill="none"
     id="path2" />
  <path
     d="M5.79 11.085a3.97 3.97 0 0 0 0 7.935 3.96 3.96 0 0 0 3.93-3.6 2.665 2.665 0 0 1 2.73 0 3.96 3.96 0 0 0 7.895-.37 3.97 3.97 0 0 0-3.97-3.965 3.95 3.95 0 0 0-3.8 2.975 3.875 3.875 0 0 0-1.49-.33 3.875 3.875 0 0 0-1.49.33 3.95 3.95 0 0 0-3.8-2.975zm0 1.65a2.315 2.315 0 1 1 0 4.63 2.315 2.315 0 0 1 0-4.63zm10.585 0a2.315 2.315 0 1 1 0 4.63 2.315 2.315 0 0 1 0-4.63zM5.79 1.825L4.8 5.79h12.565l-.99-3.965-5.29.66zm-1.32 5.29L.5 9.765h21.165L17.7 7.115z"
     fill="#f5f5f5"
     id="path4" />
</svg>
