<?xml version="1.0" encoding="UTF-8" standalone="no"?>
<svg
   xmlns:dc="http://purl.org/dc/elements/1.1/"
   xmlns:cc="http://creativecommons.org/ns#"
   xmlns:rdf="http://www.w3.org/1999/02/22-rdf-syntax-ns#"
   xmlns:svg="http://www.w3.org/2000/svg"
   xmlns="http://www.w3.org/2000/svg"
   xmlns:sodipodi="http://sodipodi.sourceforge.net/DTD/sodipodi-0.dtd"
   xmlns:inkscape="http://www.inkscape.org/namespaces/inkscape"
   width="22"
   height="22"
   version="1.1"
   id="svg8"
   sodipodi:docname="folder-games.svg">
  <metadata
     id="metadata14">
    <rdf:RDF>
      <cc:Work
         rdf:about="">
        <dc:format>image/svg+xml</dc:format>
        <dc:type
           rdf:resource="http://purl.org/dc/dcmitype/StillImage" />
      </cc:Work>
    </rdf:RDF>
  </metadata>
  <defs
     id="defs12" />
  <sodipodi:namedview
     pagecolor="#ffffff"
     bordercolor="#666666"
     borderopacity="1"
     objecttolerance="10"
     gridtolerance="10"
     guidetolerance="10"
     inkscape:pageopacity="0"
     inkscape:pageshadow="2"
     inkscape:window-width="640"
     inkscape:window-height="480"
     id="namedview10" />
  <g
     fill="#f5f5f5"
     fill-opacity=".557"
     id="g6">
    <path
       d="M.5.5h21.16v21.165H.5z"
       fill="none"
       id="path2" />
    <path
       d="M3.15.5A2.64 2.64 0 0 0 .5 3.15v15.87a2.647 2.647 0 1 0 5.295 0v-5.29h10.58v5.29a2.645 2.645 0 1 0 5.29 0V3.15A2.64 2.64 0 0 0 19.02.5zm1.985 2.65h1.32c.37 0 .665.29.665.655V5.79H9.1c.37 0 .665.3.665.665v1.32a.66.66 0 0 1-.665.66H7.12v1.985a.66.66 0 0 1-.665.665h-1.32a.66.66 0 0 1-.66-.665V8.435H2.49a.66.66 0 0 1-.665-.66v-1.32c0-.37.3-.665.665-.665h1.985V3.805a.65.65 0 0 1 .66-.655zm10.58 0h1.32c.37 0 .665.29.665.655V5.13a.66.66 0 0 1-.665.66h-1.32a.66.66 0 0 1-.66-.66V3.805a.66.66 0 0 1 .66-.66zm-2.65 2.64h1.325c.37 0 .665.3.665.665v1.32a.66.66 0 0 1-.665.66h-1.32a.66.66 0 0 1-.66-.66v-1.32a.66.66 0 0 1 .66-.665zm5.295 0h1.325c.365 0 .66.3.66.665v1.32a.66.66 0 0 1-.66.66H18.36a.66.66 0 0 1-.66-.66v-1.32a.66.66 0 0 1 .66-.665zm-2.645 2.65h1.32a.66.66 0 0 1 .665.66v1.32a.66.66 0 0 1-.665.665h-1.32a.66.66 0 0 1-.66-.665V9.1c0-.365.295-.665.66-.665z"
       fill-opacity="1"
       id="path4" />
  </g>
</svg>
