<?xml version="1.0" encoding="UTF-8" standalone="no"?>
<svg
   xmlns:dc="http://purl.org/dc/elements/1.1/"
   xmlns:cc="http://creativecommons.org/ns#"
   xmlns:rdf="http://www.w3.org/1999/02/22-rdf-syntax-ns#"
   xmlns:svg="http://www.w3.org/2000/svg"
   xmlns="http://www.w3.org/2000/svg"
   xmlns:sodipodi="http://sodipodi.sourceforge.net/DTD/sodipodi-0.dtd"
   xmlns:inkscape="http://www.inkscape.org/namespaces/inkscape"
   width="22"
   height="22"
   version="1.1"
   id="svg13"
   sodipodi:docname="folder-cloud.svg">
  <metadata
     id="metadata19">
    <rdf:RDF>
      <cc:Work
         rdf:about="">
        <dc:format>image/svg+xml</dc:format>
        <dc:type
           rdf:resource="http://purl.org/dc/dcmitype/StillImage" />
      </cc:Work>
    </rdf:RDF>
  </metadata>
  <defs
     id="defs17" />
  <sodipodi:namedview
     pagecolor="#ffffff"
     bordercolor="#666666"
     borderopacity="1"
     objecttolerance="10"
     gridtolerance="10"
     guidetolerance="10"
     inkscape:pageopacity="0"
     inkscape:pageshadow="2"
     inkscape:window-width="640"
     inkscape:window-height="480"
     id="namedview15" />
  <g
     transform="matrix(5 0 0 5 .5 .5)"
     id="g11">
    <filter
       id="a"
       color-interpolation-filters="sRGB">
      <feBlend
         in2="BackgroundImage"
         mode="darken"
         id="feBlend2" />
    </filter>
    <g
       filter="url(#a)"
       transform="translate(-144.072 104.726) scale(.26458)"
       id="g9">
      <path
         d="M545-395.003h16v16h-16z"
         fill="none"
         id="path5" />
      <path
         d="M552.526-392.815c-2.071 0-3.835 1.268-4.594 3.063a3.981 3.981 0 0 0-3.406 3.937 4 4 0 0 0 4 4h1a352.04 352.04 0 0 1 6.166 0h1.334a3.5 3.5 0 0 0 3.5-3.5 3.49 3.49 0 0 0-3.094-3.469 5.011 5.011 0 0 0-4.906-4.031z"
         fill="#f5f5f5"
         id="path7" />
    </g>
  </g>
</svg>
