<?xml version="1.0" encoding="UTF-8" standalone="no"?>
<svg
   xmlns:dc="http://purl.org/dc/elements/1.1/"
   xmlns:cc="http://creativecommons.org/ns#"
   xmlns:rdf="http://www.w3.org/1999/02/22-rdf-syntax-ns#"
   xmlns:svg="http://www.w3.org/2000/svg"
   xmlns="http://www.w3.org/2000/svg"
   xmlns:sodipodi="http://sodipodi.sourceforge.net/DTD/sodipodi-0.dtd"
   xmlns:inkscape="http://www.inkscape.org/namespaces/inkscape"
   width="22"
   height="22"
   version="1.1"
   id="svg12"
   sodipodi:docname="folder-templates.svg">
  <metadata
     id="metadata18">
    <rdf:RDF>
      <cc:Work
         rdf:about="">
        <dc:format>image/svg+xml</dc:format>
        <dc:type
           rdf:resource="http://purl.org/dc/dcmitype/StillImage" />
      </cc:Work>
    </rdf:RDF>
  </metadata>
  <defs
     id="defs16" />
  <sodipodi:namedview
     pagecolor="#ffffff"
     bordercolor="#666666"
     borderopacity="1"
     objecttolerance="10"
     gridtolerance="10"
     guidetolerance="10"
     inkscape:pageopacity="0"
     inkscape:pageshadow="2"
     inkscape:window-width="640"
     inkscape:window-height="480"
     id="namedview14" />
  <path
     d="M.5.5h21.165v21.165H.5z"
     fill="none"
     id="path2" />
  <g
     fill="#f5f5f5"
     id="g10">
    <path
       d="M.5 20.345v-2.65l10.585-10.58 10.58 10.58v2.65L19.02 19.02l-7.935-7.935-7.94 7.935z"
       id="path4" />
    <path
       d="M19.9 9.95a1.325 1.325 0 0 0-1.27.94 7.916 7.916 0 0 1-6.035 5.335 7.915 7.915 0 0 1-7.59-2.685 1.325 1.325 0 1 0-2.03 1.7 10.59 10.59 0 0 0 18.175-3.525 1.325 1.325 0 0 0-1.25-1.76z"
       id="path6" />
    <path
       d="M11.085 1.825a5.29 5.29 0 0 0-5.295 5.29 5.29 5.29 0 0 0 5.295 5.285 5.29 5.29 0 0 0 5.29-5.29 5.29 5.29 0 0 0-5.29-5.285zm0 2.645a2.65 2.65 0 0 1 2.645 2.645 2.65 2.65 0 0 1-2.65 2.645 2.65 2.65 0 0 1-2.64-2.65 2.65 2.65 0 0 1 2.645-2.64z"
       id="path8" />
  </g>
</svg>
