<?xml version="1.0" encoding="UTF-8" standalone="no"?>
<svg
   xmlns:dc="http://purl.org/dc/elements/1.1/"
   xmlns:cc="http://creativecommons.org/ns#"
   xmlns:rdf="http://www.w3.org/1999/02/22-rdf-syntax-ns#"
   xmlns:svg="http://www.w3.org/2000/svg"
   xmlns="http://www.w3.org/2000/svg"
   xmlns:sodipodi="http://sodipodi.sourceforge.net/DTD/sodipodi-0.dtd"
   xmlns:inkscape="http://www.inkscape.org/namespaces/inkscape"
   width="22"
   height="22"
   version="1.1"
   id="svg10"
   sodipodi:docname="mail-folder-inbox.svg">
  <metadata
     id="metadata16">
    <rdf:RDF>
      <cc:Work
         rdf:about="">
        <dc:format>image/svg+xml</dc:format>
        <dc:type
           rdf:resource="http://purl.org/dc/dcmitype/StillImage" />
      </cc:Work>
    </rdf:RDF>
  </metadata>
  <defs
     id="defs14" />
  <sodipodi:namedview
     pagecolor="#ffffff"
     bordercolor="#666666"
     borderopacity="1"
     objecttolerance="10"
     gridtolerance="10"
     guidetolerance="10"
     inkscape:pageopacity="0"
     inkscape:pageshadow="2"
     inkscape:window-width="640"
     inkscape:window-height="480"
     id="namedview12" />
  <path
     d="M.5.5h21.165v21.165H.5z"
     fill="none"
     id="path2" />
  <g
     fill="#f5f5f5"
     id="g8">
    <path
       d="M8.435 1.825v5.29H5.79l5.295 6.615 5.29-6.615h-2.65v-5.29z"
       id="path4" />
    <path
       d="M3.125 8.42a1.32 1.32 0 0 0-1.3 1.34v9.26c0 .73.59 1.325 1.32 1.325H19.02a1.325 1.325 0 0 0 1.325-1.325V9.76c0-1.75-2.65-1.75-2.65 0v5.29H4.475V9.76A1.325 1.325 0 0 0 3.13 8.42zm1.345 7.955H17.7V17.7H4.47z"
       id="path6" />
  </g>
</svg>
