<?xml version="1.0" encoding="UTF-8" standalone="no"?>
<svg
   xmlns:dc="http://purl.org/dc/elements/1.1/"
   xmlns:cc="http://creativecommons.org/ns#"
   xmlns:rdf="http://www.w3.org/1999/02/22-rdf-syntax-ns#"
   xmlns:svg="http://www.w3.org/2000/svg"
   xmlns="http://www.w3.org/2000/svg"
   xmlns:sodipodi="http://sodipodi.sourceforge.net/DTD/sodipodi-0.dtd"
   xmlns:inkscape="http://www.inkscape.org/namespaces/inkscape"
   width="22"
   height="22"
   version="1.1"
   id="svg10"
   sodipodi:docname="network-server.svg">
  <metadata
     id="metadata16">
    <rdf:RDF>
      <cc:Work
         rdf:about="">
        <dc:format>image/svg+xml</dc:format>
        <dc:type
           rdf:resource="http://purl.org/dc/dcmitype/StillImage" />
      </cc:Work>
    </rdf:RDF>
  </metadata>
  <defs
     id="defs14" />
  <sodipodi:namedview
     pagecolor="#ffffff"
     bordercolor="#666666"
     borderopacity="1"
     objecttolerance="10"
     gridtolerance="10"
     guidetolerance="10"
     inkscape:pageopacity="0"
     inkscape:pageshadow="2"
     inkscape:window-width="640"
     inkscape:window-height="480"
     id="namedview12" />
  <path
     d="M.5.5h21.165v21.165H.5z"
     fill="none"
     id="path2" />
  <g
     fill="#f5f5f5"
     id="g8">
    <path
       d="M9.1 1.82a2 2 0 0 0-1.99 1.985V6.45c0 1.085.9 1.99 1.99 1.99h3.965a2 2 0 0 0 1.985-1.99V3.8a1.99 1.99 0 0 0-1.985-1.98zm0 1.33h3.965c.38 0 .665.275.665.65v2.65a.65.65 0 0 1-.665.665H9.1a.65.65 0 0 1-.66-.665V3.8c0-.375.285-.65.66-.65zM3.81 13.725a2 2 0 0 0-1.985 1.99v2.65a2 2 0 0 0 1.985 1.98h3.965a1.99 1.99 0 0 0 1.98-1.98v-2.65a2 2 0 0 0-1.98-1.99zm0 1.33h3.965a.65.65 0 0 1 .665.66v2.65c0 .375-.29.65-.665.65H3.81a.64.64 0 0 1-.665-.65v-2.65a.65.65 0 0 1 .665-.66zm10.585-1.33a2.01 2.01 0 0 0-1.99 1.99v2.65a2 2 0 0 0 1.99 1.98h3.965a1.99 1.99 0 0 0 1.98-1.98v-2.65a2 2 0 0 0-1.98-1.99zm0 1.33h3.965a.65.65 0 0 1 .665.66v2.65c0 .375-.285.65-.665.65h-3.965a.64.64 0 0 1-.665-.65v-2.65a.65.65 0 0 1 .665-.66zM1.825 9.76v2.65H20.34V9.76z"
       id="path4" />
    <path
       d="M9.755 7.775v3.315h2.65V7.775zm-5.28 3.315v3.3H7.11v-3.3zm10.575 0v3.3h2.65v-3.3z"
       id="path6" />
  </g>
</svg>
