<?xml version="1.0" encoding="UTF-8" standalone="no"?>
<svg
   xmlns:dc="http://purl.org/dc/elements/1.1/"
   xmlns:cc="http://creativecommons.org/ns#"
   xmlns:rdf="http://www.w3.org/1999/02/22-rdf-syntax-ns#"
   xmlns:svg="http://www.w3.org/2000/svg"
   xmlns="http://www.w3.org/2000/svg"
   xmlns:sodipodi="http://sodipodi.sourceforge.net/DTD/sodipodi-0.dtd"
   xmlns:inkscape="http://www.inkscape.org/namespaces/inkscape"
   width="22"
   height="22"
   version="1.1"
   id="svg27"
   sodipodi:docname="user-trash.svg">
  <metadata
     id="metadata33">
    <rdf:RDF>
      <cc:Work
         rdf:about="">
        <dc:format>image/svg+xml</dc:format>
        <dc:type
           rdf:resource="http://purl.org/dc/dcmitype/StillImage" />
      </cc:Work>
    </rdf:RDF>
  </metadata>
  <defs
     id="defs31" />
  <sodipodi:namedview
     pagecolor="#ffffff"
     bordercolor="#666666"
     borderopacity="1"
     objecttolerance="10"
     gridtolerance="10"
     guidetolerance="10"
     inkscape:pageopacity="0"
     inkscape:pageshadow="2"
     inkscape:window-width="640"
     inkscape:window-height="480"
     id="namedview29" />
  <g
     transform="translate(.42 1) scale(1.29036)"
     id="g25">
    <defs
       id="defs5">
      <filter
         id="a"
         color-interpolation-filters="sRGB">
        <feBlend
           mode="multiply"
           in2="BackgroundImage"
           id="feBlend2" />
      </filter>
    </defs>
    <path
       d="M3.504 0h9c.83 0 1.566.672 1.5 1.5l-1 12.5c-2.5 2-7.5 2-10 0l-1-12.5c-.066-.828.67-1.5 1.5-1.5z"
       fill="#898989"
       stroke-linecap="square"
       stroke-opacity=".5"
       enable-background="new"
       id="path7" />
    <path
       d="M3.504 0c-.83 0-1.566.672-1.5 1.5l1 12.5c2.5 2 7.5 2 10 0l1-12.5c.066-.828-.67-1.5-1.5-1.5zm0 1h9c.277 0 .524.224.5.5l-1 11.5c-2.5 2-5.5 2-8 0l-1-11.5c-.024-.276.223-.5.5-.5z"
       fill-opacity=".5"
       stroke-linecap="square"
       stroke-opacity=".5"
       enable-background="new"
       id="path9" />
    <g
       transform="matrix(.25 0 0 .25 -56.12 -55.245)"
       fill="none"
       stroke-width="4"
       filter="url(#a)"
       id="g23">
      <g
         opacity=".35"
         id="g15">
        <path
           d="M270.5 228.978l-4 44"
           stroke="#000"
           id="path11" />
        <path
           d="M266.5 228.978l-4 44"
           stroke="#fff"
           id="path13" />
      </g>
      <g
         opacity=".35"
         id="g21">
        <path
           d="M242.5 228.978l4 44"
           stroke="#000"
           id="path17" />
        <path
           d="M246.5 228.978l4 44"
           stroke="#fff"
           id="path19" />
      </g>
    </g>
  </g>
</svg>
