#define iconify_pressed_width 14
#define iconify_pressed_height 14
static unsigned char iconify_pressed_bits[] = {
   0x00, 0x00, 0xe0, 0x01, 0xf8, 0x07, 0xfc, 0x0f, 0xfc, 0x0f, 0xfe, 0x1f,
   0x0e, 0x1c, 0x0e, 0x1c, 0xfe, 0x1f, 0xfc, 0x0f, 0xfc, 0x0f, 0xf8, 0x07,
   0xe0, 0x01, 0x00, 0x00 };
