#define max_pressed_width 14
#define max_pressed_height 14
static unsigned char max_pressed_bits[] = {
   0x00, 0x00, 0xe0, 0x01, 0xf8, 0x07, 0xfc, 0x0f, 0x3c, 0x0c, 0x7e, 0x1c,
   0xee, 0x1c, 0xce, 0x1d, 0x8e, 0x1f, 0x0c, 0x0f, 0xfc, 0x0f, 0xf8, 0x07,
   0xe0, 0x01, 0x00, 0x00 };
