<svg xmlns="http://www.w3.org/2000/svg" xmlns:xlink="http://www.w3.org/1999/xlink" width="48" height="48">
  <defs id="acyl-settings">
    <linearGradient id="acyl-gradient" x1="0%" x2="0%" y1="0%" y2="100%">
      <stop offset="100%" style="stop-color:#A0A0A0;stop-opacity:1.000000"/>
    </linearGradient>
    <g id="acyl-filter">
  </g>
    <g id="acyl-drawing">
      <path d="M 19,8.34375 L 19,9.4375 L 19,16.9375 L 4.5,16.9375 L 4,16.9375 L 4,17.4375 L 4,34.5 L 4,35 L 4.5,35 L 19,35 L 19,42.375 L 19,43.46875 L 19.84375,42.75 L 38.84375,26.3125 L 39,26.1875 L 39,42.5 L 39,43 L 39.5,43 L 43.5,43 L 44,43 L 44,42.5 L 44,9.5 L 44,9 L 43.5,9 L 39.5,9 L 39,9 L 39,9.5 L 39,25.6875 L 38.84375,25.5625 L 19.84375,9.0625 L 19,8.34375 z" id="path-main"/>
    </g>
  </defs>
  <g id="acyl-visual">
    <use id="visible1" style="fill:url(#acyl-gradient)" xlink:href="#acyl-drawing"/>
  </g>
</svg>
