<svg xmlns="http://www.w3.org/2000/svg" xmlns:xlink="http://www.w3.org/1999/xlink" width="48" height="48">
  <defs id="acyl-settings">
    <linearGradient id="acyl-gradient" x1="0%" x2="0%" y1="0%" y2="100%">
      <stop offset="100%" style="stop-color:#A0A0A0;stop-opacity:1.000000"/>
    </linearGradient>
    <g id="acyl-filter">
  </g>
    <g id="acyl-drawing">
      <path id="path-main" d="M 19.91 2.01 L 19.4 5.145 C 17.47 5.614 15.65 6.37 13.96 7.4 L 11.36 5.545 L 5.562 11.34 L 7.416 13.93 C 6.385 15.63 5.629 17.45 5.158 19.36 L 2.01 19.89 L 2.01 28.09 L 5.152 28.61 C 5.62 30.53 6.375 32.35 7.402 34.04 L 5.545 36.64 L 11.34 42.44 L 13.93 40.59 C 15.63 41.62 17.45 42.38 19.37 42.85 L 19.89 45.99 L 28.09 45.99 L 28.61 42.86 C 30.53 42.39 32.36 41.64 34.06 40.61 L 36.64 42.46 L 42.44 36.66 L 40.6 34.09 C 41.64 32.39 42.39 30.56 42.86 28.63 L 45.99 28.11 L 45.99 19.91 L 42.87 19.4 C 42.4 17.46 41.64 15.64 40.61 13.94 L 42.46 11.36 L 36.66 5.562 L 34.08 7.406 C 32.38 6.373 30.56 5.615 28.63 5.145 L 28.11 2.01 L 19.91 2.01 z M 24 8.453 C 32.57 8.453 39.55 15.43 39.55 24 C 39.55 32.57 32.57 39.55 24 39.55 C 15.43 39.55 8.453 32.57 8.453 24 C 8.453 15.43 15.43 8.453 24 8.453 z M 24 12 C 17.38 12 12 17.37 12 23.99 C 12 28.44 14.44 32.33 18.05 34.41 L 18.05 29.28 L 15.57 26.89 L 15.57 22.8 L 17.96 22.8 L 17.96 25.87 L 20.43 28.26 L 20.43 35.45 C 21.2 35.68 22 35.86 22.81 35.93 L 22.81 23.76 C 20.76 23.24 19.23 21.37 19.23 19.15 C 19.23 16.52 21.37 14.39 24 14.39 C 26.62 14.39 28.76 16.52 28.76 19.15 C 28.76 21.37 27.24 23.23 25.2 23.76 L 25.2 35.92 C 26.01 35.86 26.8 35.68 27.56 35.45 L 27.56 28.26 L 30.04 25.87 L 30.04 22.8 L 32.42 22.8 L 32.42 26.89 L 29.95 29.28 L 29.95 34.41 C 33.55 32.33 35.99 28.44 35.99 23.99 C 35.99 17.37 30.61 12 24 12 z M 24 16.76 C 22.69 16.76 21.61 17.83 21.61 19.15 C 21.61 20.46 22.69 21.54 24 21.54 C 25.31 21.54 26.38 20.46 26.38 19.15 C 26.38 17.83 25.31 16.76 24 16.76 z"/>
    </g>
  </defs>
  <g id="acyl-visual">
    <use id="visible1" style="fill:url(#acyl-gradient)" xlink:href="#acyl-drawing"/>
  </g>
</svg>
