<svg xmlns="http://www.w3.org/2000/svg" xmlns:xlink="http://www.w3.org/1999/xlink" width="48" height="48">
  <defs id="acyl-settings">
    <linearGradient id="acyl-gradient" x1="0%" x2="0%" y1="0%" y2="100%">
      <stop offset="100%" style="stop-color:#A0A0A0;stop-opacity:1.000000"/>
    </linearGradient>
    <g id="acyl-filter">
  </g>
    <g id="acyl-drawing">
      <path id="path-main" d="M 4.643 4.014 C 3.184 4.014 1.998 5.199 1.998 6.658 L 1.998 41.35 C 1.998 42.81 3.184 43.99 4.643 43.99 L 43.35 43.99 C 44.81 43.99 46 42.81 46 41.35 L 46 6.658 C 46 5.199 44.81 4.014 43.35 4.014 L 4.643 4.014 z M 31.82 7.479 L 32.8 7.479 C 33.34 7.479 33.77 7.915 33.77 8.455 L 33.77 9.561 C 33.77 10.1 33.34 10.54 32.8 10.54 L 31.82 10.54 C 31.28 10.54 30.84 10.1 30.84 9.561 L 30.84 8.455 C 30.84 7.915 31.28 7.479 31.82 7.479 z M 36.36 7.479 L 37.34 7.479 C 37.88 7.479 38.32 7.915 38.32 8.455 L 38.32 9.561 C 38.32 10.1 37.88 10.54 37.34 10.54 L 36.36 10.54 C 35.83 10.54 35.39 10.1 35.39 9.561 L 35.39 8.455 C 35.39 7.915 35.83 7.479 36.36 7.479 z M 40.9 7.479 L 41.87 7.479 C 42.41 7.479 42.85 7.915 42.85 8.455 L 42.85 9.561 C 42.85 10.1 42.41 10.54 41.87 10.54 L 40.9 10.54 C 40.36 10.54 39.92 10.1 39.92 9.561 L 39.92 8.455 C 39.92 7.915 40.36 7.479 40.9 7.479 z M 5.172 13.47 L 42.83 13.47 L 42.83 40.82 L 5.172 40.82 L 5.172 13.47 z M 25.19 17.01 L 24.3 19.6 C 23.42 19.6 22.58 19.7 21.78 19.94 L 20.24 17.66 C 19.12 18.02 18.58 18.33 17.7 19.13 L 18.9 21.59 C 18.28 22.16 17.76 22.84 17.36 23.6 L 14.68 23.09 C 14.48 23.53 14.31 23.99 14.19 24.47 C 14.06 24.96 13.97 25.43 13.91 25.91 L 16.5 26.8 C 16.4 27.68 16.6 28.52 16.83 29.32 L 14.56 30.86 C 14.92 31.98 15.23 32.52 16.02 33.4 L 18.49 32.2 C 19.06 32.82 19.73 33.34 20.5 33.74 L 19.99 36.42 C 20.43 36.62 20.89 36.8 21.37 36.91 C 21.86 37.04 22.33 37.14 22.81 37.19 L 23.7 34.61 C 24.58 34.71 25.42 34.51 26.22 34.27 L 27.76 36.54 C 28.88 36.18 29.42 35.87 30.3 35.08 L 29.1 32.61 C 29.72 32.04 30.24 31.37 30.64 30.6 L 33.32 31.12 C 33.52 30.67 33.69 30.21 33.81 29.73 C 33.94 29.24 34.03 28.77 34.09 28.29 L 31.5 27.4 C 31.6 26.52 31.4 25.69 31.17 24.88 L 33.44 23.34 C 33.13 22.24 32.77 21.68 31.98 20.8 L 29.51 22 C 28.94 21.38 28.27 20.86 27.5 20.46 L 28.01 17.78 C 27.57 17.58 27.11 17.41 26.63 17.3 C 26.14 17.17 25.67 17.07 25.19 17.01 z M 24 23.56 A 3.54 3.54 0 0 1 27.54 27.1 A 3.54 3.54 0 0 1 24 30.64 A 3.54 3.54 0 0 1 20.46 27.1 A 3.54 3.54 0 0 1 24 23.56 z"/>
    </g>
  </defs>
  <g id="acyl-visual">
    <use id="visible1" style="fill:url(#acyl-gradient)" xlink:href="#acyl-drawing"/>
  </g>
</svg>
