<svg xmlns="http://www.w3.org/2000/svg" xmlns:xlink="http://www.w3.org/1999/xlink" width="48" height="48">
  <defs id="acyl-settings">
    <linearGradient id="acyl-gradient" x1="0%" x2="0%" y1="0%" y2="100%">
      <stop offset="100%" style="stop-color:#A0A0A0;stop-opacity:1.000000"/>
    </linearGradient>
    <g id="acyl-filter">
  </g>
    <g id="acyl-drawing">
      <path id="path-main" d="M 46.03,22.54 C 45.32,11.54 36.51,2.745 25.53,2.025 v 0 h -1.47 -1.47 v 0 C 11.59,2.745 2.795,11.54 2.075,22.54 h -0.1 v 1.47 1.47 h 0.1 c 0.72,10.98 9.515,19.79 20.515,20.5 v 0 h 1.47 1.47 v 0 c 10.98,-0.71 19.79,-9.52 20.5,-20.5 v 0 -1.47 z M 15.82,6.775 c -1.42,1.89 -2.6,4.255 -3.45,6.955 H 7.965 C 9.875,10.74 12.6,8.325 15.82,6.775 Z M 6.425,16.67 h 5.165 c -0.39,1.85 -0.64,3.82 -0.72,5.87 H 5.025 c 0.15,-2.07 0.64,-4.04 1.4,-5.87 z m -1.4,8.81 h 5.845 c 0.1,2.05 0.33,4.02 0.72,5.87 H 6.425 c -0.76,-1.83 -1.25,-3.8 -1.4,-5.87 z m 2.94,8.81 h 4.395 c 0.86,2.7 2.04,5.05 3.46,6.96 C 12.6,39.69 9.875,37.28 7.965,34.29 Z M 22.58,42.92 C 19.57,42.1 16.97,38.87 15.4,34.29 h 7.18 z m 0,-11.57 h -8.02 c -0.4,-1.83 -0.68,-3.8 -0.75,-5.87 h 8.77 z m 0,-8.81 h -8.77 c 0.1,-2.07 0.35,-4.04 0.75,-5.87 h 8.02 z m 0,-8.81 H 15.4 c 1.57,-4.575 4.17,-7.815 7.18,-8.625 z m 17.56,0 h -4.4 c -0.85,-2.7 -2.03,-5.065 -3.44,-6.955 3.2,1.55 5.94,3.965 7.84,6.955 z M 25.52,5.105 c 3.01,0.81 5.62,4.05 7.2,8.625 h -7.19 z m 0,11.565 h 8.03 c 0.41,1.83 0.67,3.8 0.76,5.87 h -8.78 z m 0,8.81 h 8.78 c 0,2.07 -0.34,4.04 -0.76,5.87 h -8.02 z m 0,17.44 v -8.63 h 7.2 c -1.57,4.58 -4.18,7.81 -7.2,8.63 z m 6.78,-1.67 c 1.41,-1.91 2.59,-4.26 3.44,-6.96 h 4.4 c -1.9,2.99 -4.64,5.4 -7.84,6.96 z m 9.37,-9.9 H 36.5 c 0.41,-1.85 0.66,-3.82 0.74,-5.87 h 5.84 c -0.29,2.07 -0.64,4.04 -1.41,5.87 z m -4.42,-8.81 c 0,-2.05 -0.33,-4.02 -0.74,-5.87 h 5.17 c 0.77,1.83 1.26,3.8 1.41,5.87 z"/>
    </g>
  </defs>
  <g id="acyl-visual">
    <use id="visible1" style="fill:url(#acyl-gradient)" xlink:href="#acyl-drawing"/>
  </g>
</svg>
