<svg xmlns="http://www.w3.org/2000/svg" xmlns:xlink="http://www.w3.org/1999/xlink" width="48" height="48">
  <defs id="acyl-settings">
    <linearGradient id="acyl-gradient" x1="0%" x2="0%" y1="0%" y2="100%">
      <stop offset="100%" style="stop-color:#A0A0A0;stop-opacity:1.000000"/>
    </linearGradient>
    <g id="acyl-filter">
  </g>
    <g id="acyl-drawing">
      <path id="path-main" d="M 39.98 2.01 C 38.32 3.744 36.49 5.323 34.97 7.18 C 33.86 8.814 33.65 11.01 34.43 12.82 C 36.29 10.81 39.14 11.5 41.56 11.37 C 43.09 10.87 44.99 12.76 45.68 12.41 C 46.4 10.3 45.83 7.824 44.23 6.262 C 42.81 4.844 41.4 3.427 39.98 2.01 z M 24.75 2.027 C 19.43 1.87 14.05 3.607 9.971 7.088 C 3.592 12.27 0.6152 21.17 2.613 29.14 C 4.605 37.95 12.55 44.99 21.55 45.85 C 24.21 46.03 27.14 46.27 29.55 44.94 C 32.16 43.37 32.86 39.7 31.32 37.14 C 29.44 32.6 30.37 27.05 33.64 23.38 C 33.66 22.33 33.57 21.32 33.17 20.34 C 33.04 18.8 33.11 17.24 33.12 15.69 C 30.53 12.39 30.9 7.27 33.96 4.389 C 31.11 2.899 27.94 2.122 24.75 2.027 z M 22.31 8.396 C 23.86 8.359 25.44 9.17 26.02 10.73 C 27.14 13.18 25.14 16.17 22.46 16.1 C 19.48 16.24 17.46 12.46 19.25 10.07 C 19.92 8.967 21.1 8.425 22.31 8.396 z M 39.55 13.94 C 38.69 13.93 37.83 13.95 37 14.12 C 35.19 14.91 35.79 17.03 35.68 18.59 C 35.42 20.14 36.4 21.96 38.2 21.68 C 39.79 21.6 41.41 21.85 42.96 21.51 C 44.76 20.72 44.17 18.6 44.27 17.04 C 44.44 15.61 43.87 13.94 42.12 13.95 C 41.27 13.99 40.41 13.95 39.55 13.94 z M 14.46 14.29 C 17.44 14.15 19.46 17.94 17.67 20.31 C 16.14 22.85 11.92 22.43 10.9 19.66 C 9.787 17.21 11.78 14.22 14.46 14.29 z M 36.24 23.98 C 36.47 30.43 36.66 36.89 36.92 43.35 C 37.16 45.88 40.75 46.93 42.31 44.93 C 43.47 43.48 42.98 41.52 43.17 39.81 C 43.35 34.53 43.54 29.26 43.72 23.98 C 43.22 24.17 42.67 24.26 42.12 24.26 C 40.17 24.17 38.16 24.48 36.24 23.98 z M 12.52 24.63 C 14.07 24.59 15.65 25.41 16.23 26.96 C 17.34 29.41 15.35 32.4 12.66 32.33 C 9.692 32.48 7.673 28.69 9.459 26.31 C 10.13 25.2 11.31 24.66 12.52 24.63 z M 19.99 31.76 C 21.54 31.72 23.12 32.54 23.7 34.09 C 24.82 36.54 22.82 39.53 20.13 39.46 C 17.16 39.61 15.14 35.82 16.93 33.44 C 17.6 32.33 18.78 31.79 19.99 31.76 z"/>
    </g>
  </defs>
  <g id="acyl-visual">
    <use id="visible1" style="fill:url(#acyl-gradient)" xlink:href="#acyl-drawing"/>
  </g>
</svg>
