<svg xmlns="http://www.w3.org/2000/svg" xmlns:xlink="http://www.w3.org/1999/xlink" width="48" height="48">
  <defs id="acyl-settings">
    <linearGradient id="acyl-gradient" x1="0%" x2="0%" y1="0%" y2="100%">
      <stop offset="100%" style="stop-color:#A0A0A0;stop-opacity:1.000000"/>
    </linearGradient>
    <g id="acyl-filter">
  </g>
    <g id="acyl-drawing">
      <path id="path-main" d="M 18.99 2.059 C 9.63 2.059 2 9.69 2 19.06 C 2 28.43 9.63 36.04 18.99 36.04 C 22.33 36.04 25.44 35.08 28.07 33.4 C 28.18 33.6 28.3 33.78 28.46 33.94 L 39.32 44.79 C 40.84 46.31 43.31 46.31 44.84 44.79 C 46.37 43.28 46.37 40.81 44.84 39.28 L 34 28.41 C 33.84 28.25 33.63 28.11 33.41 27.99 C 35.03 25.39 35.97 22.34 35.97 19.07 C 35.97 9.7 28.33 2.068 18.97 2.068 L 18.99 2.059 z M 18.99 5.836 C 26.32 5.836 32.21 11.74 32.21 19.06 C 32.21 26.38 26.32 32.28 18.99 32.28 C 17.18 32.28 15.45 31.91 13.88 31.26 C 10.3 29.74 7.525 26.71 6.359 22.96 C 6.333 22.87 6.319 22.79 6.293 22.7 C 5.965 21.54 5.775 20.32 5.775 19.06 C 5.775 11.74 11.68 5.836 18.99 5.836 z M 17.73 10.04 C 17.35 10.04 17.04 10.35 17.04 10.72 L 17.04 12.44 C 16.09 12.75 15.21 13.25 14.46 13.95 L 12.97 13.08 C 12.8 12.99 12.62 12.97 12.44 13 C 12.26 13.08 12.12 13.16 12.02 13.32 L 10.64 15.71 C 10.45 16.04 10.56 16.47 10.89 16.66 L 12.39 17.52 C 12.26 18.03 12.2 18.54 12.2 19.01 C 12.2 19.49 12.26 19.98 12.39 20.5 L 10.89 21.37 C 10.56 21.56 10.45 21.98 10.64 22.31 L 12.02 24.71 C 12.12 24.87 12.26 24.97 12.44 25.03 C 12.62 25.11 12.8 25.03 12.97 24.95 L 14.46 24.09 C 15.21 24.78 16.09 25.29 17.04 25.58 L 17.04 27.3 C 17.04 27.69 17.35 28 17.73 28 L 20.5 28 C 20.88 28 21.19 27.69 21.19 27.3 L 21.19 25.58 C 22.15 25.29 23.03 24.78 23.78 24.09 L 25.27 24.95 C 25.43 25.04 25.61 25.07 25.79 25.03 C 25.97 24.95 26.11 24.87 26.21 24.71 L 27.59 22.31 C 27.79 21.98 27.67 21.56 27.34 21.37 L 25.85 20.52 C 25.98 19.99 26.03 19.5 26.03 19.03 C 26.03 18.55 25.98 18.05 25.85 17.54 L 27.34 16.68 C 27.67 16.48 27.79 16.06 27.59 15.72 L 26.21 13.34 C 26.11 13.18 25.97 13.06 25.79 13.01 C 25.61 12.93 25.43 13.01 25.27 13.09 L 23.78 13.95 C 23.03 13.25 22.15 12.75 21.19 12.44 L 21.19 10.72 C 21.19 10.35 20.88 10.04 20.5 10.04 L 17.73 10.04 z M 19.1 15.47 A 3.593 3.593 0 0 1 22.69 19.06 A 3.593 3.593 0 0 1 19.1 22.65 A 3.593 3.593 0 0 1 15.51 19.06 A 3.593 3.593 0 0 1 19.1 15.47 z"/>
    </g>
  </defs>
  <g id="acyl-visual">
    <use id="visible1" style="fill:url(#acyl-gradient)" xlink:href="#acyl-drawing"/>
  </g>
</svg>
