<svg xmlns="http://www.w3.org/2000/svg" xmlns:xlink="http://www.w3.org/1999/xlink" width="48" height="48">
  <defs id="acyl-settings">
    <linearGradient id="acyl-gradient" x1="0%" x2="0%" y1="0%" y2="100%">
      <stop offset="100%" style="stop-color:#A0A0A0;stop-opacity:1.000000"/>
    </linearGradient>
    <g id="acyl-filter">
  </g>
    <g id="acyl-drawing">
      <path id="path-main" d="M 41.88,7.298 C 36.39,1.816 27.47,1.816 21.99,7.298 L 4.946,24.34 c -3.915,3.92 -3.914,10.29 0,14.2 1.958,1.96 4.529,2.94 7.104,2.94 2.57,0 5.14,-0.98 7.1,-2.94 L 34.77,22.92 c 2.35,-2.35 2.35,-6.17 0,-8.52 -2.35,-2.35 -6.17,-2.35 -8.52,0 L 16.04,24.62 c -0.79,0.78 -0.79,2.05 0,2.83 0.78,0.79 2.05,0.79 2.83,0 L 29.09,17.24 c 0.79,-0.78 2.06,-0.78 2.84,0 0.78,0.78 0.78,2.05 0,2.84 L 16.31,35.7 c -2.35,2.35 -6.17,2.35 -8.523,0 -2.349,-2.35 -2.35,-6.17 0,-8.52 L 24.83,10.14 c 3.91,-3.918 10.29,-3.918 14.2,0 1.9,1.89 2.94,4.42 2.94,7.1 0,2.68 -1.04,5.2 -2.94,7.1 L 21.99,41.39 c -0.78,0.78 -0.78,2.05 0,2.83 1.05,0.86 2.17,0.57 2.84,0 L 41.88,27.18 c 2.65,-2.66 4.11,-6.19 4.11,-9.94 0,-3.75 -1.46,-7.287 -4.11,-9.942 z"/>
    </g>
  </defs>
  <g id="acyl-visual">
    <use id="visible1" style="fill:url(#acyl-gradient)" xlink:href="#acyl-drawing"/>
  </g>
</svg>
