<svg xmlns="http://www.w3.org/2000/svg" xmlns:xlink="http://www.w3.org/1999/xlink" width="48" height="48">
  <defs id="acyl-settings">
    <linearGradient id="acyl-gradient" x1="0%" x2="0%" y1="0%" y2="100%">
      <stop offset="100%" style="stop-color:#A0A0A0;stop-opacity:1.000000"/>
    </linearGradient>
    <g id="acyl-filter">
  </g>
    <g id="acyl-drawing">
      <path id="path-main" d="M 26.59 2.002 L 24.64 7.65 C 22.75 7.573 20.91 7.813 19.15 8.361 L 15.8 3.412 C 13.35 4.188 12.17 4.869 10.27 6.605 L 12.88 11.98 C 11.53 13.23 10.4 14.7 9.521 16.38 L 3.65 15.24 C 3.24 16.21 2.88 17.22 2.59 18.26 C 2.31 19.31 2.13 20.36 2 21.41 L 7.652 23.36 C 7.572 25.25 7.815 27.09 8.363 28.85 L 3.41 32.2 C 4.19 34.65 4.871 35.83 6.607 37.73 L 11.98 35.12 C 13.23 36.47 14.7 37.6 16.38 38.48 L 15.24 44.35 C 16.21 44.76 17.22 45.13 18.26 45.41 C 19.31 45.69 20.36 45.88 21.41 46 L 23.36 40.35 C 25.25 40.45 27.09 40.19 28.85 39.64 L 32.2 44.59 C 34.65 43.81 35.83 43.13 37.73 41.4 L 35.12 36.02 C 36.47 34.77 37.6 33.3 38.48 31.62 L 44.35 32.76 C 44.76 31.79 45.13 30.78 45.41 29.74 C 45.69 28.69 45.88 27.64 46 26.59 L 40.35 24.64 C 40.45 22.75 40.19 20.91 39.64 19.15 L 44.59 15.8 C 43.93 13.41 43.13 12.17 41.4 10.27 L 36.02 12.88 C 34.77 11.53 33.3 10.4 31.62 9.521 L 32.76 3.654 C 31.79 3.239 30.78 2.877 29.74 2.596 C 28.69 2.316 27.64 2.126 26.59 2.002 z M 24 16.28 A 7.721 7.721 0 0 1 31.72 24 A 7.721 7.721 0 0 1 24 31.72 A 7.721 7.721 0 0 1 16.28 24 A 7.721 7.721 0 0 1 24 16.28 z"/>
    </g>
  </defs>
  <g id="acyl-visual">
    <use id="visible1" style="fill:url(#acyl-gradient)" xlink:href="#acyl-drawing"/>
  </g>
</svg>
