<svg xmlns="http://www.w3.org/2000/svg" xmlns:xlink="http://www.w3.org/1999/xlink" width="48" height="48">
  <defs id="acyl-settings">
    <linearGradient id="acyl-gradient" x1="0%" x2="0%" y1="0%" y2="100%">
      <stop offset="100%" style="stop-color:#A0A0A0;stop-opacity:1.000000"/>
    </linearGradient>
    <g id="acyl-filter">
  </g>
    <g id="acyl-drawing">
      <path id="path-main" d="M 4.531,7.001 C 3.13,7.001 2,8.268 2,9.841 V 38.16 C 2,39.73 3.13,41 4.531,41 H 43.47 C 44.87,41 46,39.73 46,38.16 V 9.841 c 0,-1.573 -1.13,-2.84 -2.53,-2.84 z m 0.906,2.84 h 3.501 c 0.339,0 0.625,0.289 0.625,0.629 v 3.47 c 0,0.34 -0.286,0.62 -0.625,0.62 H 5.437 c -0.339,0 -0.593,-0.28 -0.593,-0.62 v -3.47 c 0,-0.34 0.254,-0.629 0.593,-0.629 z m 8.593,2.289 h 20.28 c 0.41,0 0.75,0.24 0.75,0.53 v 6 h 5.78 c 0.41,0 0.75,0.24 0.75,0.53 v 12.03 c 0,0.28 -0.34,0.53 -0.75,0.53 H 20.56 c -0.4,0 -0.75,-0.25 -0.75,-0.53 v -6 h -5.78 c -0.41,0 -0.75,-0.25 -0.75,-0.53 V 12.66 c 0,-0.29 0.34,-0.53 0.75,-0.53 z m -8.593,4.31 h 3.501 c 0.339,0 0.625,0.28 0.625,0.62 v 3.5 c 0,0.34 -0.286,0.6 -0.625,0.6 H 5.437 c -0.339,0 -0.593,-0.26 -0.593,-0.6 v -3.5 c 0,-0.34 0.254,-0.62 0.593,-0.62 z M 6.125,38.16 H 42.25 c 0.72,0 1.28,0 1.28,0.1 v 0.84 c 0,0 -0.56,0.1 -1.28,0.1 H 6.125 c -0.723,0 -1.281,-0.1 -1.281,-0.1 v -0.84 c 0,0 0.558,-0.1 1.281,-0.1 z"/>
    </g>
  </defs>
  <g id="acyl-visual">
    <use id="visible1" style="fill:url(#acyl-gradient)" xlink:href="#acyl-drawing"/>
  </g>
</svg>
