<?xml version="1.0" encoding="UTF-8" standalone="no"?>
<svg
   xmlns:dc="http://purl.org/dc/elements/1.1/"
   xmlns:cc="http://creativecommons.org/ns#"
   xmlns:rdf="http://www.w3.org/1999/02/22-rdf-syntax-ns#"
   xmlns:svg="http://www.w3.org/2000/svg"
   xmlns="http://www.w3.org/2000/svg"
   xmlns:xlink="http://www.w3.org/1999/xlink"
   xmlns:sodipodi="http://sodipodi.sourceforge.net/DTD/sodipodi-0.dtd"
   xmlns:inkscape="http://www.inkscape.org/namespaces/inkscape"
   height="32"
   width="32"
   version="1.1"
   id="svg66"
   sodipodi:docname="yast-sw_single.svg"
   inkscape:version="0.92.4 (5da689c313, 2019-01-14)">
  <metadata
     id="metadata70">
    <rdf:RDF>
      <cc:Work
         rdf:about="">
        <dc:format>image/svg+xml</dc:format>
        <dc:type
           rdf:resource="http://purl.org/dc/dcmitype/StillImage" />
        <dc:title></dc:title>
      </cc:Work>
    </rdf:RDF>
  </metadata>
  <sodipodi:namedview
     pagecolor="#ffffff"
     bordercolor="#666666"
     borderopacity="1"
     objecttolerance="10"
     gridtolerance="10"
     guidetolerance="10"
     inkscape:pageopacity="0"
     inkscape:pageshadow="2"
     inkscape:window-width="640"
     inkscape:window-height="480"
     id="namedview68"
     showgrid="false"
     inkscape:zoom="7.375"
     inkscape:cx="13.627119"
     inkscape:cy="16"
     inkscape:window-x="0"
     inkscape:window-y="25"
     inkscape:window-maximized="0"
     inkscape:current-layer="svg66" />
  <defs
     id="defs4">
    <linearGradient
       xlink:href="#a"
       id="f"
       gradientUnits="userSpaceOnUse"
       y1="30"
       x2="0"
       y2="8" />
    <linearGradient
       xlink:href="#b"
       id="e"
       gradientUnits="userSpaceOnUse"
       y1="30"
       x2="0"
       y2="8" />
    <linearGradient
       inkscape:collect="always"
       xlink:href="#c"
       id="linearGradient880"
       gradientUnits="userSpaceOnUse"
       gradientTransform="matrix(0.66667,0,0,-0.37037,-256.38,197.926)"
       x1="408.57"
       y1="512.798"
       x2="408.57"
       y2="504.698" />
    <linearGradient
       inkscape:collect="always"
       xlink:href="#i"
       id="linearGradient882"
       gradientUnits="userSpaceOnUse"
       x1="34"
       y1="16"
       x2="48"
       y2="30" />
    <linearGradient
       inkscape:collect="always"
       xlink:href="#i"
       id="linearGradient884"
       gradientUnits="userSpaceOnUse"
       x1="34"
       y1="16"
       x2="48"
       y2="30" />
  </defs>
  <linearGradient
     id="j"
     gradientUnits="userSpaceOnUse"
     x1="30"
     x2="30"
     xlink:href="#a"
     y1="30"
     y2="8" />
  <linearGradient
     id="i"
     gradientUnits="userSpaceOnUse"
     x1="34"
     x2="48"
     y1="16"
     y2="30">
    <stop
       offset="0"
       stop-color="#292c2f"
       id="stop7" />
    <stop
       offset="1"
       stop-opacity="0"
       id="stop9" />
  </linearGradient>
  <linearGradient
     id="d"
     gradientUnits="userSpaceOnUse"
     x1="10"
     x2="10"
     xlink:href="#b"
     y1="8"
     y2="2" />
  <linearGradient
     id="b"
     gradientUnits="userSpaceOnUse"
     x2="0"
     y1="30"
     y2="8">
    <stop
       offset="0"
       stop-color="#cea476"
       id="stop13" />
    <stop
       offset="1"
       stop-color="#dab58b"
       id="stop15" />
  </linearGradient>
  <linearGradient
     id="g"
     gradientTransform="matrix(0.35,0,0,0.70968,-120,-355.923)"
     gradientUnits="userSpaceOnUse"
     x1="411.427"
     x2="411.427"
     y1="543.8"
     y2="512.8">
    <stop
       offset="0"
       stop-color="#73ba25"
       id="stop18" />
    <stop
       offset="1"
       stop-color="#81c13b"
       stop-opacity=".85"
       id="stop20" />
  </linearGradient>
  <linearGradient
     id="c"
     gradientTransform="matrix(.66667 0 0 -.37037 -256.38 197.926)"
     gradientUnits="userSpaceOnUse"
     x1="408.57"
     x2="408.57"
     y1="512.798"
     y2="504.698">
    <stop
       offset="0"
       stop-color="#ebc69a"
       id="stop23" />
    <stop
       offset="1"
       stop-color="#73ba25"
       stop-opacity="0"
       id="stop25" />
  </linearGradient>
  <linearGradient
     id="h"
     gradientTransform="matrix(0.66667,0,0,0.66667,-256.38,-333.867)"
     gradientUnits="userSpaceOnUse"
     x1="408.57"
     x2="408.57"
     xlink:href="#c"
     y1="512.801"
     y2="503.801">
    <stop
       offset="0"
       stop-color="#ebc69a"
       id="stop28" />
    <stop
       offset="1"
       stop-color="#f4e0c8"
       stop-opacity="0"
       id="stop30" />
  </linearGradient>
  <linearGradient
     id="a"
     gradientUnits="userSpaceOnUse"
     x2="0"
     y1="30"
     y2="8">
    <stop
       offset="0"
       stop-color="#cfd2d5"
       id="stop33" />
    <stop
       offset="1"
       stop-color="#eff0f1"
       id="stop35" />
  </linearGradient>
  <path
     d="M 6,2 2,8 H 30 L 26,2 H 7 Z"
     id="path38"
     style="fill:url(#d);fill-rule:evenodd"
     inkscape:connector-curvature="0" />
  <path
     d="M 2,8 V 27.148 A 2.846,2.846 0 0 0 4.852,30 H 27.148 A 2.846,2.846 0 0 0 30,27.148 V 8 H 4.852 Z"
     id="path40"
     style="fill:url(#e)"
     inkscape:connector-curvature="0" />
  <path
     d="m 2,8 v 19.148 c 0,0.79 0.319,1.503 0.834,2.018 A 2.842,2.842 0 0 0 4.852,30 H 14 V 8 Z"
     id="path42"
     style="fill:url(#f)"
     inkscape:connector-curvature="0" />
  <path
     d="m 14,30 h 13.148 c 0.79,0 1.503,-0.319 2.018,-0.834 A 2.842,2.842 0 0 0 30,27.148 V 8 H 14 Z"
     id="path44"
     style="fill:url(#g)"
     inkscape:connector-curvature="0" />
  <path
     d="m 3,24 v 5 h 5 v -5 z m 1,1 h 1 v 1 h 1 v -1 h 1 v 2 H 6 v 1 H 5 V 27 H 4 Z"
     id="path46"
     inkscape:connector-curvature="0"
     style="fill:#5c4c3e" />
  <g
     id="g54"
     style="stroke-width:1.86699998;stroke-opacity:0.55">
    <path
       d="m 14,2 v 9 l 1,-1 1,1 1,-1 c 0,0 1,1 1,0.972 V 2 Z"
       id="path48"
       inkscape:connector-curvature="0"
       style="fill:#f4e0c8" />
    <path
       d="m 14,2 h 4 v 6 h -4 z"
       id="path50"
       style="fill:url(#h)"
       inkscape:connector-curvature="0" />
    <path
       d="m 14,8 v 3 l 1,-1 1,1 1,-1 c 0,0 1,1 1,0.973 V 8 Z"
       id="path52"
       style="fill:url(#linearGradient880)"
       inkscape:connector-curvature="0" />
  </g>
  <path
     d="m 16,28 2,-1 -1,-1 z"
     id="path56"
     style="opacity:0.2;fill:url(#linearGradient882)"
     inkscape:connector-curvature="0" />
  <path
     d="m 18,30 h 9.148 c 0.79,0 1.503,-0.319 2.018,-0.834 A 2.842,2.842 0 0 0 30,27.148 V 22 l -6,-6 h -4 v 4 L 23.383,23.383 22,26 l 1,1 -7,1 z"
     id="path58"
     style="opacity:0.2;fill:url(#linearGradient884)"
     inkscape:connector-curvature="0" />
  <path
     d="m 20,16 v 4 h 1 v -3 h 2 v 3 h 1 V 16 H 21 Z M 17.805,20 17,20.832 22,26 27,20.832 26.195,20 22,24.338 Z M 16,26 v 2 h 12 v -2 h -1 v 1 H 17 v -1 z"
     id="path60"
     style="fill:url(#j)"
     inkscape:connector-curvature="0" />
  <path
     d="m 2.766,29 c 0.04,0.045 0.026,0.124 0.068,0.166 A 2.842,2.842 0 0 0 4.852,30 H 14 v -1 z"
     id="path62"
     inkscape:connector-curvature="0"
     style="fill:#adb1b3" />
  <path
     d="m 14,29 v 1 h 13.148 c 0.79,0 1.503,-0.319 2.018,-0.834 0.042,-0.042 0.029,-0.121 0.068,-0.166 z"
     id="path64"
     inkscape:connector-curvature="0"
     style="fill:#649e26" />
</svg>
