<svg xmlns="http://www.w3.org/2000/svg" xmlns:xlink="http://www.w3.org/1999/xlink" height="64" width="64"><defs><linearGradient id="a"><stop stop-color="#3e3e3e"/><stop offset="1" stop-color="#494949"/></linearGradient><linearGradient id="c" y1="527.014" x1="406.501" y2="539.825" x2="419.974" gradientUnits="userSpaceOnUse" gradientTransform="translate(-541.118 -690.024) scale(1.38646)"><stop stop-color="#292c2f"/><stop offset="1" stop-opacity="0"/></linearGradient><linearGradient xlink:href="#a" id="b" gradientUnits="userSpaceOnUse" x1="61" y1="58" x2="60.838" y2="7.043" gradientTransform="translate(-60)"/></defs><path d="M11.45 6A7.433 7.433 0 0 0 4 13.45v35.085a7.433 7.433 0 0 0 7.45 7.45h3.921a7.52 7.52 0 0 0 1.326.122h35.854A7.433 7.433 0 0 0 60 48.658V17.45A7.433 7.433 0 0 0 52.55 10H32l-4-4H15.393z" fill="#2d2d2d"/><path d="M26 16l-4 2-2 1-.016.002H9.426a5.456 5.456 0 0 0-5.043 3.336c-.257.608-.377 1.284-.397 1.982l-.004 1.078 2.467-1.86L11.14 20H22l.89-.89L23 19l3-3z" fill-opacity=".235"/><path d="M3.986 21.943v.377c.005-.155.073-.288.088-.441-.023.02-.062.041-.088.064z"/><path d="M56.072 11c-.22-.12-.384-.318-.617-.416A7.457 7.457 0 0 0 52.551 10H32l-4-4 3 5h2z" fill="#fff" fill-opacity=".235" fill-rule="evenodd"/><path d="M26 16l-4 4H10.45a7.432 7.432 0 0 0-6.865 4.545A7.457 7.457 0 0 0 3 27.449v23.102A7.433 7.433 0 0 0 10.45 58h43.1A7.433 7.433 0 0 0 61 50.55v-27.1A7.433 7.433 0 0 0 53.55 16z" fill="url(#b)" fill-rule="evenodd"/><path d="M26 16l-4 4h4zm0 4v4h4v-4zm4 0h4v-4h-4zm4 0v4h4v-4zm4 0h4v-4h-4zm4 0v4h4v-4zm4 0h4v-4h-4zm4 0v4h4v-4zm4 0h4v-2.375c-.495-.378-.963-.796-1.545-1.041-.754-.318-1.597-.44-2.455-.494zm4 0v4h3v-.55a7.457 7.457 0 0 0-.584-2.905c-.087-.205-.263-.35-.367-.545zm0 4h-4v4h4zm-4 4h-4v4h4zm0 4v4h4v-4zm0 4h-4v4h4zm-4 0v-4h-4v4zm-4-4v-4h-4v4zm-4-4v-4h-4v4zm-4 0h-4v4h4zm-4 0v-4h-4v4zm12 0h4v-4h-4zm-20-4h-4v4h4zm-4 4h-4v4h4zm0 4v4h4v-4zm0 4h-4v4h4zm-4 0v-4h-4v4zm-4-4v-4h-4v4zm-4-4v-4H6v4zm-4-4v-2.375c-.263.201-.589.319-.822.553-.518.518-.88 1.169-1.227 1.822zm4 0h4v-4h-4v.09zm4 0v4h4v-4zm4 0h4v-4h-4z" opacity=".6" fill="#5f5f5f"/><path d="M20.384 50.068l7.29 7.29h25.411l7.75-9.818L36 24l3.742 18.195z" opacity=".4" fill="url(#c)" fill-rule="evenodd"/><path d="M32 22.87c-4.772 0-8 3.363-8 8.26l2 .062C26 27.672 28.984 25 32 25s6 2.673 6 6.192V36H20v14h24V36h-4v-4.808c0-4.647-3.228-8.322-8-8.322z" fill="#d1d8d8"/><path d="M26 16l-4 4H10.45a7.457 7.457 0 0 0-2.905.584c-.233.098-.398.296-.617.416H23z" fill="#fff" fill-opacity=".235" fill-rule="evenodd"/><path d="M4.637 55.02c.197.256.312.574.54.802A7.432 7.432 0 0 0 10.45 58h43.102a7.432 7.432 0 0 0 5.271-2.178c.229-.228.344-.546.541-.802z" fill-opacity=".235"/></svg>