<svg xmlns="http://www.w3.org/2000/svg" xmlns:xlink="http://www.w3.org/1999/xlink" width="48" height="48">
  <defs id="acyl-settings">
    <linearGradient id="acyl-gradient" x1="0%" x2="0%" y1="0%" y2="100%">
      <stop offset="100%" style="stop-color:#A0A0A0;stop-opacity:1.000000"/>
    </linearGradient>
    <g id="acyl-filter">
  </g>
    <g id="acyl-drawing">
      <path d="M 34.215621,2.0000003 25.879875,35.41547 c 0,0 -2.89939,-2.75442 -8.408231,-2.536966 -5.508842,0.217454 -10.9451984,3.334299 -10.6552594,6.813567 0.289939,3.479268 5.5088414,6.233689 10.3653204,6.306173 4.856478,0.07249 10.655258,-2.102058 11.525075,-6.088719 0.869817,-3.986661 4.711509,-30.0811717 4.711509,-30.0811717 0,0 1.37721,3.1168437 2.247027,4.1316307 0.869817,1.014786 4.856479,5.581326 5.001448,8.118292 0.14497,2.536966 -0.942301,5.291387 -1.812119,6.668597 3.261814,-3.986661 3.656335,-4.784223 3.624238,-7.031021 -0.07249,-5.073932 -7.610899,-9.785441 -8.263262,-19.7158517 z" id="path-main"/>
    </g>
  </defs>
  <g id="acyl-visual">
    <use id="visible1" style="fill:url(#acyl-gradient)" xlink:href="#acyl-drawing"/>
  </g>
</svg>
