<svg xmlns="http://www.w3.org/2000/svg" xmlns:xlink="http://www.w3.org/1999/xlink" width="48" height="48">
  <defs id="acyl-settings">
    <linearGradient id="acyl-gradient" x1="0%" x2="0%" y1="0%" y2="100%">
      <stop offset="100%" style="stop-color:#A0A0A0;stop-opacity:1.000000"/>
    </linearGradient>
    <g id="acyl-filter">
  </g>
    <g id="acyl-drawing">
      <path d="M 29.40625 2 L 21.0625 35.40625 C 21.0625 35.40625 18.165091 32.657546 12.65625 32.875 C 7.1474082 33.092454 1.710061 36.208232 2 39.6875 C 2.289939 43.166768 7.5185212 45.927516 12.375 46 C 17.231478 46.07249 23.036433 43.892911 23.90625 39.90625 C 24.776067 35.919589 28.625 9.84375 28.625 9.84375 C 28.625 9.84375 30.005183 12.953963 30.875 13.96875 C 31.744817 14.983536 35.730031 19.556784 35.875 22.09375 C 36.01997 24.630716 34.932318 27.37279 34.0625 28.75 C 37.324314 24.763339 37.719597 23.965548 37.6875 21.71875 C 37.61501 16.644818 30.058613 11.930411 29.40625 2 z M 40.21875 31.75 L 36.71875 35.25 L 33.25 31.8125 L 30.125 34.90625 L 33.59375 38.375 L 30.3125 41.625 L 33.375 44.6875 L 36.65625 41.40625 L 40.03125 44.8125 L 43.15625 41.6875 L 39.75 38.3125 L 43.28125 34.78125 L 40.21875 31.75 z " id="path-main"/>
    </g>
  </defs>
  <g id="acyl-visual">
    <use id="visible1" style="fill:url(#acyl-gradient)" xlink:href="#acyl-drawing"/>
  </g>
</svg>
