<svg xmlns="http://www.w3.org/2000/svg" xmlns:xlink="http://www.w3.org/1999/xlink" width="64" height="64"><defs><linearGradient id="c"><stop offset="0"/><stop offset="1" stop-opacity="0"/></linearGradient><linearGradient id="d"><stop offset="0" stop-color="#1d5e8c"/><stop offset="1" stop-color="#2675a7"/></linearGradient><linearGradient id="b"><stop offset="0" stop-color="#f5f5f5"/><stop offset="1" stop-color="#f9f9f9"/></linearGradient><linearGradient id="a"><stop offset="0" stop-color="#fff"/><stop offset="1" stop-color="#fff" stop-opacity=".488"/></linearGradient><linearGradient id="f"><stop stop-color="#127bdc"/><stop offset="1" stop-color="#64b4f4"/></linearGradient><linearGradient xlink:href="#a" id="i" gradientUnits="userSpaceOnUse" gradientTransform="translate(0 3)" x1="390.571" y1="498.298" x2="442.571" y2="498.298"/><linearGradient xlink:href="#b" id="h" gradientUnits="userSpaceOnUse" x1="396.571" y1="498.798" x2="426.571" y2="511.798" gradientTransform="translate(0 1)"/><linearGradient xlink:href="#c" id="j" x1="443.571" y1="510.798" x2="443.571" y2="526.798" gradientUnits="userSpaceOnUse" gradientTransform="translate(-467.571 -538.798)"/><linearGradient id="e"><stop offset="0" stop-color="#fff"/><stop offset="1" stop-color="#fff" stop-opacity=".488"/></linearGradient><linearGradient xlink:href="#d" id="g" x1="388.571" y1="487.798" x2="416.571" y2="507.798" gradientUnits="userSpaceOnUse"/><linearGradient xlink:href="#f" id="k" x1="372.136" y1="548.966" x2="341.007" y2="496.974" gradientUnits="userSpaceOnUse" gradientTransform="translate(60)"/><linearGradient xlink:href="#c" id="l" gradientUnits="userSpaceOnUse" gradientTransform="translate(-23 5)" x1="443.571" y1="510.798" x2="443.571" y2="526.798"/></defs><g transform="translate(-384.571 -483.798)"><path d="M396.638 489.798a8.048 8.048 0 0 0-8.067 8.064v32.622a8.05 8.05 0 0 0 8.067 8.066h5.517c.766 0 1.503-.113 2.204-.31.554.119 1.127.187 1.718.187h30.428a8.05 8.05 0 0 0 8.066-8.066v-28.499a8.048 8.048 0 0 0-8.066-8.064h-19.934l-4-4H397.698z" fill="url(#g)"/><path d="M440.198 494.798c-.197-.103-.342-.282-.548-.37a8.075 8.075 0 0 0-3.145-.63h-19.934l-4-4 3 5h24.627z" fill="#fff" fill-rule="evenodd" opacity=".3"/><rect ry="1" rx="1" y="498.798" x="390.571" height="15" width="52" style="isolation:auto;mix-blend-mode:normal;marker:none" color="#000" overflow="visible" fill="url(#h)"/><path d="M391.571 498.798c-.554 0-1 .446-1 1v1c0-.554.446-1 1-1h50c.554 0 1 .446 1 1v-1c0-.554-.446-1-1-1h-50z" style="isolation:auto;mix-blend-mode:normal;marker:none" color="#000" overflow="visible" opacity=".85" fill="url(#i)"/><path d="M-6.781-36A7.762 7.762 0 0 1 1-28.219V-36h-7.781zM-3.447-3H1v-6.97a7.762 7.762 0 0 1-2.273 5.508C-1.892-3.846-2.65-3.383-3.447-3zM-52.625-31H-57l1.955 1.955c.154-.185.232-.428.402-.598.574-.573 1.292-.977 2.018-1.357z" transform="translate(384.571 483.798)" opacity=".109" fill="url(#j)" fill-rule="evenodd"/><path d="M410.571 507.798l-4 4h-10.933a8.042 8.042 0 0 0-7.434 4.92 8.084 8.084 0 0 0-.633 3.146v14.11c.083 4.238 3.494 7.635 7.752 7.635h42.467c4.31 0 7.781-3.471 7.781-7.782V515.58c0-4.31-3.47-7.781-7.78-7.781z" fill="url(#k)" fill-rule="evenodd" stroke-width=".786" stroke-linejoin="round"/><path d="M410.571 507.798l-4 4h-10.933c-1.117 0-2.181.226-3.147.633-.205.086-.348.264-.545.367h15.625z" opacity=".3" fill="#fff" fill-rule="evenodd"/><path d="M410.571 507.798l-3 5h-15.625c-.726.38-1.443.784-2.017 1.357-.17.17-.248.413-.402.598l26.044 26.045h25.553c.799-.382 1.556-.845 2.174-1.463a7.762 7.762 0 0 0 2.273-5.508V515.58a7.762 7.762 0 0 0-7.781-7.781z" opacity=".109" fill="url(#l)" fill-rule="evenodd"/><path style="isolation:auto;mix-blend-mode:normal;marker:none" d="M389.966 539.437a7.699 7.699 0 0 0 2.361 1.574c.92.385 1.932.598 2.996.598h42.467a7.795 7.795 0 0 0 3.035-.61c.875-.369 1.647-.917 2.323-1.562h-53.182z" color="#000" overflow="visible" opacity=".3" stroke-width="1.537"/></g></svg>