#define bullet_width 8
#define bullet_height 8
static unsigned char bullet_bits[] = {
   0x00, 0x00, 0x18, 0x3c, 0x3c, 0x18, 0x00, 0x00 };
