#define down1_14_width 14
#define down1_14_height 14
static unsigned char down1_14_bits[] = {
   0x00, 0x00, 0x00, 0x00, 0x00, 0x00, 0x04, 0x08, 0x0e, 0x1c, 0x1e, 0x1e,
   0x3c, 0x0f, 0xf8, 0x07, 0xf0, 0x03, 0xe0, 0x01, 0xc0, 0x00, 0x00, 0x00,
   0x00, 0x00, 0x00, 0x00 };
