#define down1_11_width 11
#define down1_11_height 11
static unsigned char down1_11_bits[] = {
   0x00, 0x00, 0x00, 0x00, 0x00, 0x00, 0x06, 0x03, 0x8e, 0x03, 0xfc, 0x01,
   0xf8, 0x00, 0x70, 0x00, 0x20, 0x00, 0x00, 0x00, 0x00, 0x00 };
