<svg xmlns="http://www.w3.org/2000/svg" xmlns:xlink="http://www.w3.org/1999/xlink" width="32" height="32"><defs><linearGradient xlink:href="#a" id="b" x1="65.965" y1="58.048" x2="65.965" y2="16.036" gradientUnits="userSpaceOnUse" gradientTransform="matrix(.51054 0 0 .48036 424.235 516.492)"/><linearGradient id="a"><stop stop-color="#3daee9"/><stop offset="1" stop-color="#6cc1ef"/></linearGradient></defs><g fill-rule="evenodd" stroke-linejoin="round"><path d="M15.213 3.742H4.624c-1.3 0-2.344 1.071-2.344 2.4v13.826c0 1.329 1.045 2.399 2.344 2.399h22.751c1.3 0 2.345-1.07 2.345-2.399V8.325h-.014c-.039-1.293-1.057-2.328-2.331-2.328h-9.907z" fill="#147eb8" stroke-width=".397"/><path d="M15.104 8.423l-1.517.751-1.78.881h-8.08c-.344 0-.67.07-.967.196-.18.077-.324.21-.48.326v.802c.156-.116.3-.25.48-.326.297-.127.623-.196.967-.196h8.998z" fill-opacity=".235" stroke-width=".397"/><path d="M15.213 3.742l.505 1.237.715 1.75h10.943a2.284 2.284 0 0 1 1.628.68c.21.21.38.46.5.739.122.279.193.585.203.909h.014v-.732h-.014c-.04-1.293-1.058-2.328-2.332-2.328h-9.907z" fill="#fff" fill-opacity=".235" stroke-width=".397"/><path d="M439.634 524.279l-2.488 2.395h-9.413c-1.438 0-2.587 1.097-2.63 2.47h-.017v12.365c0 1.41 1.18 2.547 2.647 2.547h25.678c1.466 0 2.646-1.136 2.646-2.547v-14.683c0-1.41-1.18-2.547-2.646-2.547z" fill="url(#b)" stroke-width=".435" transform="translate(-424.571 -515.798)"/><path d="M15.062 8.481l-2.487 2.395H3.162c-1.438 0-2.586 1.098-2.63 2.47H.515v.655h.017c.01-.344.09-.67.226-.966.137-.296.33-.56.566-.784.236-.223.516-.403.827-.527.31-.125.651-.194 1.011-.194H13.46l.906-1.723.329-.626V9.18l.007-.006z" fill="#fff" fill-opacity=".235" stroke-width=".435"/><path d="M31.174 26.876H.826c.353.767 1.167 1.382 2.336 1.382H28.84c1.17 0 1.982-.615 2.334-1.382z" opacity=".2" stroke-width=".379"/></g><g fill="#1272a5"><path d="M13 16.921v1h-1v1h1v1h1v-1h1v-1h-1v-1zm5.5-.1a.6.6 0 0 0-.6.6.6.6 0 0 0 .6.6.6.6 0 0 0 .6-.6.6.6 0 0 0-.6-.6zm-1 1a.6.6 0 0 0-.6.6.6.6 0 0 0 .6.6.6.6 0 0 0 .6-.6.6.6 0 0 0-.6-.6zm2 0a.6.6 0 0 0-.6.6.6.6 0 0 0 .6.6.6.6 0 0 0 .6-.6.6.6 0 0 0-.6-.6zm-1 1a.6.6 0 0 0-.6.6.6.6 0 0 0 .6.6.6.6 0 0 0 .6-.6.6.6 0 0 0-.6-.6z"/><path d="M12 14.921a2 4 0 0 0-2 4v2.5a1.5 1.5 0 0 0 2.56 1.06l.944-.943a1.5 1.5 0 0 0 .996.383 1.5 1.5 0 0 0 1.5-1.5 1.5 1.5 0 0 0 2.498 1.12l.941.94A1.5 1.5 0 0 0 22 21.421v-2.5a2 4 0 0 0-2-4zm0 1h8a1 3 0 0 1 1 3v2.5a.5.5 0 0 1-.854.354l-1.853-1.854H18v.5a.5.5 0 0 1-1 0v-.5h-2v.5a.5.5 0 0 1-1 0v-.5h-.293l-1.853 1.854a.5.5 0 0 1-.854-.354v-2.5a1 3 0 0 1 1-3z"/></g></svg>