<svg xmlns="http://www.w3.org/2000/svg" xmlns:xlink="http://www.w3.org/1999/xlink" width="32" height="32"><defs><linearGradient xlink:href="#a" id="b" x1="65.965" y1="58.048" x2="65.965" y2="16.036" gradientUnits="userSpaceOnUse" gradientTransform="matrix(.51054 0 0 .48036 424.235 516.492)"/><linearGradient id="a"><stop stop-color="#3daee9"/><stop offset="1" stop-color="#6cc1ef"/></linearGradient></defs><g fill-rule="evenodd" stroke-linejoin="round"><path d="M15.213 3.742H4.624c-1.3 0-2.344 1.071-2.344 2.4v13.826c0 1.329 1.045 2.399 2.344 2.399h22.751c1.3 0 2.345-1.07 2.345-2.399V8.325h-.014c-.039-1.293-1.057-2.328-2.331-2.328h-9.907z" fill="#147eb8"/><path d="M15.104 8.423l-1.517.751-1.78.881h-8.08c-.344 0-.67.07-.967.196-.18.077-.324.21-.48.326v.802c.156-.116.3-.25.48-.326a2.45 2.45 0 0 1 .967-.196h8.998z" fill-opacity=".235"/><path d="M15.213 3.742l.505 1.237.715 1.75h10.943a2.284 2.284 0 0 1 1.628.68 2.45 2.45 0 0 1 .703 1.648h.014v-.732h-.014c-.04-1.293-1.058-2.328-2.332-2.328h-9.907z" fill="#fff" fill-opacity=".235"/><path d="M439.634 524.279l-2.488 2.395h-9.413c-1.438 0-2.587 1.097-2.63 2.47h-.017v12.365c0 1.41 1.18 2.547 2.647 2.547h25.678c1.466 0 2.646-1.136 2.646-2.547v-14.683c0-1.41-1.18-2.547-2.646-2.547z" fill="url(#b)" transform="translate(-424.571 -515.798)"/><path d="M15.062 8.481l-2.487 2.395H3.162c-1.438 0-2.586 1.098-2.63 2.47H.515v.655h.017a2.48 2.48 0 0 1 .792-1.75c.236-.223.516-.403.827-.527.31-.125.651-.194 1.011-.194H13.46l.906-1.723.329-.626V9.18l.007-.006z" fill="#fff" fill-opacity=".235"/><path d="M31.174 26.876H.826c.353.767 1.167 1.382 2.336 1.382H28.84c1.17 0 1.982-.615 2.334-1.382z" opacity=".2"/></g><path d="M16 13.935a5.12 5.12 0 0 0-5.12 5.12 5.134 5.134 0 0 0 3.502 4.863c.256.041.338-.118.338-.256v-.865c-1.418.307-1.72-.686-1.72-.686-.236-.594-.569-.753-.569-.753-.466-.317.036-.307.036-.307.512.036.784.528.784.528.445.778 1.197.547 1.49.424.045-.333.179-.558.322-.686-1.137-.128-2.33-.568-2.33-2.519 0-.568.195-1.023.528-1.387-.052-.128-.23-.66.05-1.352 0 0 .431-.138 1.41.522A4.846 4.846 0 0 1 16 16.412c.435 0 .875.057 1.28.17.978-.66 1.408-.523 1.408-.523.28.691.102 1.224.05 1.352.334.364.528.82.528 1.387 0 1.956-1.198 2.386-2.34 2.514.185.159.354.471.354.947v1.403c0 .138.081.302.343.256a5.135 5.135 0 0 0 3.497-4.864 5.12 5.12 0 0 0-5.12-5.12zm0 0" fill="#1272a5"/></svg>