<svg xmlns="http://www.w3.org/2000/svg" xmlns:xlink="http://www.w3.org/1999/xlink" width="32" height="32"><defs><linearGradient xlink:href="#a" id="b" x1="65.965" y1="58.048" x2="65.965" y2="16.036" gradientUnits="userSpaceOnUse" gradientTransform="matrix(.51054 0 0 .48036 424.235 516.492)"/><linearGradient id="a"><stop stop-color="#3daee9"/><stop offset="1" stop-color="#6cc1ef"/></linearGradient></defs><g fill-rule="evenodd" stroke-linejoin="round"><path d="M15.213 3.742H4.624c-1.3 0-2.344 1.071-2.344 2.4v13.826c0 1.329 1.045 2.399 2.344 2.399h22.751c1.3 0 2.345-1.07 2.345-2.399V8.325h-.014c-.039-1.293-1.057-2.328-2.331-2.328h-9.907z" fill="#147eb8" stroke-width=".397"/><path d="M15.104 8.423l-1.517.751-1.78.881h-8.08c-.344 0-.67.07-.967.196-.18.077-.324.21-.48.326v.802c.156-.116.3-.25.48-.326.297-.127.623-.196.967-.196h8.998z" fill-opacity=".235" stroke-width=".397"/><path d="M15.213 3.742l.505 1.237.715 1.75h10.943a2.284 2.284 0 0 1 1.628.68c.21.21.38.46.5.739.122.279.193.585.203.909h.014v-.732h-.014c-.04-1.293-1.058-2.328-2.332-2.328h-9.907z" fill="#fff" fill-opacity=".235" stroke-width=".397"/><path d="M439.634 524.279l-2.488 2.395h-9.413c-1.438 0-2.587 1.097-2.63 2.47h-.017v12.365c0 1.41 1.18 2.547 2.647 2.547h25.678c1.466 0 2.646-1.136 2.646-2.547v-14.683c0-1.41-1.18-2.547-2.646-2.547z" fill="url(#b)" stroke-width=".435" transform="translate(-424.571 -515.798)"/><path d="M15.062 8.481l-2.487 2.395H3.162c-1.438 0-2.586 1.098-2.63 2.47H.515v.655h.017c.01-.344.09-.67.226-.966.137-.296.33-.56.566-.784.236-.223.516-.403.827-.527.31-.125.651-.194 1.011-.194H13.46l.906-1.723.329-.626V9.18l.007-.006z" fill="#fff" fill-opacity=".235" stroke-width=".435"/><path d="M31.174 26.876H.826c.353.767 1.167 1.382 2.336 1.382H28.84c1.17 0 1.982-.615 2.334-1.382z" opacity=".2" stroke-width=".379"/></g><path d="M16 13.921a5 5 0 0 0-.961.094 5 5 0 0 0-.033.006c-.166.03-.329.07-.49.12a4.927 4.927 0 0 0-.825.349 5 5 0 0 0-.135.072c-.106.06-.209.122-.31.19a5 5 0 0 0-.149.103 5.05 5.05 0 0 0-.285.217 5 5 0 0 0-.117.103 5.01 5.01 0 0 0-.281.262c-.213.22-.402.462-.572.717a5 5 0 0 0-.057.08 4.981 4.981 0 0 0-.211.367 5 5 0 0 0-.043.082c-.062.125-.12.251-.172.381a5 5 0 0 0-.043.115c-.032.086-.07.17-.098.258-.013.045-.02.09-.033.135a5 5 0 0 0-.013.053c-.032.12-.061.243-.082.367a5 5 0 0 0-.057.402l-.002.012v.004a5 5 0 0 0-.031.511 5 5 0 0 0 .093.961 5 5 0 0 0 .006.034c.031.166.07.328.12.49a4.927 4.927 0 0 0 .35.824 5 5 0 0 0 .072.135c.06.106.122.21.189.31a5 5 0 0 0 .103.149c.07.097.141.193.217.285a5 5 0 0 0 .104.117c.085.096.17.192.262.281.219.214.461.402.716.573a5 5 0 0 0 .08.056c.12.076.242.145.368.211a5 5 0 0 0 .082.043c.124.063.25.12.38.172a5 5 0 0 0 .116.043c.086.032.17.07.258.098.044.014.09.02.134.033a5 5 0 0 0 .053.014c.121.03.243.06.367.082a5 5 0 0 0 .403.056l.011.002a5 5 0 0 0 .004 0 5 5 0 0 0 .512.031 5 5 0 0 0 .96-.093 5 5 0 0 0 .034-.006c.166-.031.329-.07.49-.12.277-.086.55-.206.805-.34.033-.017.069-.032.102-.05a5 5 0 0 0 .75-.506c.02-.017.043-.031.064-.049a5 5 0 0 0 .574-.574c.04-.046.083-.089.121-.137a5 5 0 0 0 .422-.625c.039-.066.078-.13.113-.199a5 5 0 0 0 .292-.685c.015-.045.04-.086.054-.131.014-.045.021-.09.033-.135l.004-.012a5 5 0 0 0 .01-.04c.032-.122.061-.244.082-.368a5 5 0 0 0 .057-.402 5 5 0 0 0 .002-.012v-.004a5 5 0 0 0 .031-.512 5 5 0 0 0-.093-.96 5 5 0 0 0-.006-.034 4.322 4.322 0 0 0-.12-.49c-.011-.038-.034-.072-.047-.11a5 5 0 0 0-.285-.677 5.08 5.08 0 0 0-.111-.21 5 5 0 0 0-.398-.589c-.03-.037-.05-.081-.08-.117-.053-.064-.113-.12-.17-.178a5 5 0 0 0-.842-.736c-.039-.028-.076-.056-.116-.082a5 5 0 0 0-.09-.057 4.656 4.656 0 0 0-.689-.369c-.045-.019-.094-.033-.14-.05-.11-.043-.219-.088-.329-.122-.044-.014-.09-.02-.134-.033l-.012-.004a5 5 0 0 0-.041-.01 4.576 4.576 0 0 0-.367-.082 5 5 0 0 0-.402-.057 5 5 0 0 0-.012-.002h-.004a5 5 0 0 0-.512-.03zm0 1a4 4 0 0 1 2.117.614c-.002.005-.006.005-.008.011.018.037.064.04.107.05a4 4 0 0 1 .067.044.434.434 0 0 1 .06.11.372.372 0 0 1 0 .14c-.028.073-.103.064-.187.062-.023 0-.042.002-.063 0-.14-.009-.28-.053-.343.047.004.078.017.12 0 .188-.013.049-.066.082-.063.125.001.022.042.064.047.094.004.016-.007.048 0 .062.024.045.083-.007.125 0 .04.006.078.065.078.11a.287.287 0 0 1-.031.124c-.04.06-.115.046-.172.079-.047.027-.066.093-.094.14-.03.051-.058.068-.047.14a.337.337 0 0 1-.171.173.398.398 0 0 0-.14.11c-.033.034-.078.05-.095.077-.013.021-.002.066-.015.094-.02.038-.053.071-.078.11-.012.017-.035.038-.047.062-.03.052-.068.094-.063.14.004.045.06.055.063.094.002.022-.017.039-.016.063.001.034.013.05.016.078.006.067-.035.094-.047.14-.006.022.005.046 0 .063-.011.033-.062.054-.063.093 0 .029.044.054.047.094.002.027-.02.053-.015.078.01.05.102.118.14.157.052.051.102.086.125.14.02.046.027.122.063.156.026.026.075.037.11.063.03.024.075.036.108.062.056.044.131.132.22.125.046-.004.088-.022.14-.03.053-.01.117-.037.172-.032.042.005.081.034.125.031a.522.522 0 0 0 .156-.047c.09-.039.228-.113.36-.093.1.014.101.127.171.171.08.007.14-.015.203 0 .049.012.105.103.11.141.005.04-.026.07-.031.094-.013.053-.023.122-.032.156-.007.026-.016.052-.015.078 0 .024.038.079.062.11.03.038.073.067.11.109.066.076.094.18.14.281.012.026-.01.03 0 .063-.02.152-.072.253-.172.422-.047.054-.094.119-.093.187-.004.164.085.248.078.406v.006A4 4 0 0 1 16 22.921a4 4 0 0 1-1.178-.176c0-.005.006-.006.006-.011-.002-.027-.026-.04-.047-.063-.017-.02-.004-.044-.015-.062-.022-.032-.054-.048-.063-.094.066-.013.156.073.25.047.045-.013.12-.1.14-.14.007-.014-.006-.064 0-.079.009-.017.03-.022.032-.031.006-.025-.005-.032 0-.047.016-.047.067-.076.094-.11.02-.025.043-.051.062-.078.022-.028.033-.037.047-.062.014-.083-.051-.146-.031-.219.022-.082.14-.134.219-.172.027-.013.055-.038.078-.047.054-.019.12-.013.172-.03.085-.032.114-.126.156-.204.02-.036.043-.067.047-.094.003-.023-.005-.05 0-.078.005-.027.008-.048.015-.078a.792.792 0 0 0 .016-.156c0-.036-.015-.045-.016-.078-.006-.118.035-.123.079-.188.021-.031.031-.086.046-.11.074-.108.197-.162.188-.327-.004-.055-.023-.17-.063-.188-.022-.01-.075-.003-.109-.015-.107-.04-.185-.163-.297-.172h-.062c-.044-.001-.092-.042-.14-.047-.032-.004-.092.009-.11 0-.028-.014-.024-.063-.047-.078-.018-.013-.05-.021-.078-.031a.373.373 0 0 0-.125-.032c-.017 0-.06.003-.078 0-.029-.005-.052-.03-.078-.046-.033-.02-.05-.035-.063-.063.03-.098-.074-.115-.094-.172-.009-.026.01-.07 0-.094-.011-.033-.04-.05-.078-.078-.065-.05-.125-.097-.219-.109-.041-.005-.09.003-.14 0a.246.246 0 0 1-.156-.078c-.039-.045-.045-.089-.079-.11-.031-.02-.087-.026-.109-.046-.01-.01-.007-.026-.015-.047-.017-.033-.052-.038-.032-.078-.036-.019-.023.023-.062.015-.036-.05-.06-.078-.14-.062-.037.007-.068.061-.11.062-.036.001-.063-.056-.11-.062-.035-.005-.084.036-.109.03-.039-.006-.043-.054-.078-.077-.026-.017-.08-.064-.094-.063-.045.001-.078.096-.14.063-.031-.04.052-.042.015-.078-.027-.027-.04 0-.062.015-.026.018-.05.037-.078.047-.063.024-.108.022-.157.047-.045.024-.051.063-.078.11-.02.038-.062.091-.093.093-.039.002-.075-.048-.11-.062-.104-.046-.163.03-.25.03-.08.002-.19-.127-.187-.202.002-.047.026-.115.03-.172.006-.046.047-.083.048-.125 0-.056-.089-.103-.125-.11-.052-.008-.112 0-.174.007a4 4 0 0 1 .38-1.153c.004.001.01.006.013.006.029.001.035-.036.062-.031.027.005.074.061.078.094.004.04-.027.08-.015.125.042.043.126.068.187.093.04-.032.006-.109 0-.156-.001-.02.002-.043 0-.062-.005-.033-.016-.066-.016-.094 0-.13.1-.184.188-.234.037-.022.077-.062.11-.079.046-.022.07-.025.109-.046.069-.04.134-.081.187-.125.025-.06-.002-.13 0-.188.025-.015.036.002.063 0 .041-.009.054-.07.078-.094.013-.013.061-.017.078-.03.042-.034.042-.08.078-.095.013-.005.042-.01.062-.015.028-.007.066-.032.11-.047.028-.01.098-.005.11-.016.013-.013-.005-.073 0-.093.021-.103.173-.106.265-.141.063-.024.132-.076.203-.062-.014.049-.074.034-.063.093.016.083.112-.02.141-.031.056-.024.162-.036.234-.062.064-.023.17-.067.11-.141-.05-.003-.066.044-.11.062-.03.005-.037-.013-.062-.015-.025-.001-.038.02-.063.015-.024-.005-.058-.049-.062-.078-.01-.076.078-.1.11-.156-.022-.069-.114-.004-.173-.031.006-.041.03-.086.079-.094a.314.314 0 0 1 .156.031c.013.012-.005.044.015.063.024.02.063.005.094 0 .011-.052-.071-.029-.062-.063.061-.04.174-.02.25-.03.043-.007.086-.042.125-.063.036-.021.07-.05.109-.016.01.037-.026.06-.047.078-.07.062-.133.131-.187.203.033.033.084.01.14.016.022.003.056.012.078.015.028.005.057-.005.078 0 .039.01.04.063.079.063.061 0 .066-.052.03-.094.012-.043.032-.08.016-.11-.028-.055-.135.01-.14-.062-.004-.045.046-.059.062-.093-.007-.087.072-.093.063-.172-.005-.033-.04-.032-.063-.063-.012-.016-.018-.05-.031-.062-.012-.01-.028-.014-.043-.02a4 4 0 0 1 .746-.074zm-2.639 1c.012 0 .031.002.045 0h.063c.022 0 .053-.009.062 0-.014.057-.135.038-.19.018a4 4 0 0 1 .02-.018zm5.344.06a4 4 0 0 1 .451.487c-.033 0-.066.016-.094.016-.04 0-.122-.02-.172-.016-.03.002-.05.014-.078.016-.079.006-.125-.005-.187 0a.657.657 0 0 0-.172.047c-.02.01-.035.033-.063.047-.012.006-.03.008-.046.015-.026.012-.07.04-.094.047-.036.01-.076-.003-.14 0-.047.002-.125-.007-.126-.062 0-.085.155-.048.235-.063.03-.006.041-.041.078-.062.017-.01.03-.02.047-.032.027-.019.073-.056.078-.078.003-.02-.019-.048-.016-.062.004-.02.038-.038.063-.063.038-.038.062-.084.109-.11.032-.016.095-.02.11-.046.003-.03-.002-.036 0-.062l.017-.018zm.53.597a4 4 0 0 1 .17.25h-.015c-.03-.003-.084 0-.109-.016-.025-.015-.087-.042-.094-.063-.01-.033.077-.08.078-.109.002-.022-.026-.03-.03-.062zm-7.22 2.007c.025.036.05.07.079.086.002.03-.01.057 0 .078.023.032.07.042.109.063.046.025.066.09.11.11.015.005.038-.008.062 0 .06.017.073.109.125.093.033-.01.041-.061.047-.094.022-.024.042-.062.078-.062.056-.001.073.07.093.125.012.03.04.06.047.093a.821.821 0 0 1 0 .25c-.014.042-.074.064-.109.11-.016.022-.034.048-.047.062-.022.028-.046.038-.062.063-.01.013-.007.043-.016.062-.027.058-.07.102-.047.172.01.028.047.06.047.094 0 .04-.088.05-.094.094-.005.031.037.098.047.14.007.032.06.057.078.078.032.036.065.08.094.125.057.089.084.195.14.282.03.044.09.077.11.125.01.023-.009.072 0 .093.033.074.192.151.266.188.034.017.062.029.093.047.049.027.148.082.172.125.022.038.036.126.047.187.014.08-.004.148 0 .235.002.047.016.077.016.125v.062c-.001.056.005.115 0 .172-.002.023-.001.047 0 .07a4 4 0 0 1-1.5-3.117 4 4 0 0 1 .015-.336zm1.25.196c.044-.02.036.057 0 .062-.033.005-.032-.047 0-.062z" fill="#1272a5"/></svg>