<svg xmlns="http://www.w3.org/2000/svg" xmlns:xlink="http://www.w3.org/1999/xlink" width="32" height="32"><defs><linearGradient xlink:href="#a" id="b" x1="65.965" y1="58.048" x2="65.965" y2="16.036" gradientUnits="userSpaceOnUse" gradientTransform="matrix(.51054 0 0 .48036 424.235 516.492)"/><linearGradient id="a"><stop stop-color="#3daee9"/><stop offset="1" stop-color="#6cc1ef"/></linearGradient></defs><g fill-rule="evenodd" stroke-linejoin="round"><path d="M15.213 3.742H4.624c-1.3 0-2.344 1.071-2.344 2.4v13.826c0 1.329 1.045 2.399 2.344 2.399h22.751c1.3 0 2.345-1.07 2.345-2.399V8.325h-.014c-.039-1.293-1.057-2.328-2.331-2.328h-9.907z" fill="#147eb8"/><path d="M15.104 8.423l-1.517.751-1.78.881h-8.08c-.344 0-.67.07-.967.196-.18.077-.324.21-.48.326v.802c.156-.116.3-.25.48-.326a2.45 2.45 0 0 1 .967-.196h8.998z" fill-opacity=".235"/><path d="M15.213 3.742l.505 1.237.715 1.75h10.943a2.284 2.284 0 0 1 1.628.68 2.45 2.45 0 0 1 .703 1.648h.014v-.732h-.014c-.04-1.293-1.058-2.328-2.332-2.328h-9.907z" fill="#fff" fill-opacity=".235"/><path d="M439.634 524.279l-2.488 2.395h-9.413c-1.438 0-2.587 1.097-2.63 2.47h-.017v12.365c0 1.41 1.18 2.547 2.647 2.547h25.678c1.466 0 2.646-1.136 2.646-2.547v-14.683c0-1.41-1.18-2.547-2.646-2.547z" fill="url(#b)" transform="translate(-424.571 -515.798)"/><path d="M15.062 8.481l-2.487 2.395H3.162c-1.438 0-2.586 1.098-2.63 2.47H.515v.655h.017a2.48 2.48 0 0 1 .792-1.75c.236-.223.516-.403.827-.527.31-.125.651-.194 1.011-.194H13.46l.906-1.723.329-.626V9.18l.007-.006z" fill="#fff" fill-opacity=".235"/><path d="M31.174 26.876H.826c.353.767 1.167 1.382 2.336 1.382H28.84c1.17 0 1.982-.615 2.334-1.382z" opacity=".2"/></g><path style="line-height:normal;font-variant-ligatures:normal;font-variant-position:normal;font-variant-caps:normal;font-variant-numeric:normal;font-variant-alternates:normal;font-feature-settings:normal;text-indent:0;text-align:start;text-decoration-line:none;text-decoration-style:solid;text-decoration-color:#000;text-transform:none;text-orientation:mixed;shape-padding:0;isolation:auto;mix-blend-mode:normal;marker:none" d="M14.402 13.95a1.698 1.698 0 0 0-.101.003c-.84.062-1.55.597-2.115 1.162-.452.453-.87 1-1.065 1.627-.196.628-.077 1.43.54 1.922.188.15.404.191.612.268-.208.075-.424.116-.613.267-.08.064-.151.13-.213.197-.484.528-.498 1.263-.287 1.84.21.578.602 1.088 1.026 1.512.451.452 1 .869 1.626 1.064.628.197 1.43.078 1.922-.539.15-.188.192-.405.268-.613.076.209.117.424.268.613.49.617 1.294.735 1.921.54.627-.197 1.175-.613 1.627-1.065.452-.452.869-1 1.065-1.627.196-.628.077-1.43-.54-1.922-.188-.15-.404-.192-.613-.267.209-.076.425-.117.614-.268.616-.491.734-1.294.539-1.922-.196-.627-.613-1.174-1.065-1.627-.423-.423-.931-.817-1.51-1.027-.577-.21-1.314-.196-1.841.289a1.88 1.88 0 0 0-.197.213c-.151.188-.192.405-.268.613-.076-.208-.117-.425-.268-.613a1.698 1.698 0 0 0-1.332-.64zm.055.864a.995.995 0 0 1 .893.399c.663.832.136 2.364.652 3.719.516-1.354-.012-2.887.652-3.72.042-.051.084-.096.13-.138.671-.617 1.69-.04 2.404.672.76.76 1.365 1.87.533 2.533-.833.664-2.365.137-3.719.653 1.354.516 2.886-.012 3.719.652.832.664.227 1.773-.533 2.533s-1.87 1.366-2.534.533c-.664-.833-.136-2.364-.652-3.718-.516 1.354.011 2.885-.652 3.718-.664.833-1.773.228-2.534-.533-.712-.713-1.289-1.732-.671-2.404.04-.045.086-.088.138-.129.833-.664 2.365-.136 3.719-.652-1.354-.516-2.886.012-3.719-.653-.832-.664-.227-1.773.533-2.533.476-.475 1.087-.89 1.641-.932z" color="#000" font-weight="400" font-family="sans-serif" white-space="normal" overflow="visible" fill-rule="evenodd" fill="#1272a5"/></svg>