<svg xmlns="http://www.w3.org/2000/svg" xmlns:xlink="http://www.w3.org/1999/xlink" width="32" height="32"><defs><linearGradient xlink:href="#a" id="b" x1="65.965" y1="58.048" x2="65.965" y2="16.036" gradientUnits="userSpaceOnUse" gradientTransform="matrix(.51054 0 0 .28695 -.336 11.792)"/><linearGradient id="a"><stop stop-color="#3daee9"/><stop offset="1" stop-color="#6cc1ef"/></linearGradient></defs><path d="M15.213 3.742H4.624c-1.3 0-2.344 1.071-2.344 2.4v13.826c0 1.329 1.045 2.399 2.344 2.399h22.751c1.3 0 2.345-1.07 2.345-2.399V8.325h-.014c-.039-1.293-1.057-2.328-2.331-2.328h-9.907z" fill="#147eb8" fill-rule="evenodd"/><path d="M15.062 16.444l-1.46.387-1.794.455H3.727c-.344 0-.716-.005-1.013.093-.18.059-.301.114-.457.204l.023.726c.156-.09.3-.193.48-.252.297-.098.623-.151.967-.151h8.998z" fill-opacity=".235" fill-rule="evenodd"/><path d="M15.213 3.742l.505 1.237.715 1.75h10.943a2.284 2.284 0 0 1 1.628.68 2.45 2.45 0 0 1 .703 1.648h.014v-.732h-.014c-.04-1.293-1.058-2.328-2.332-2.328h-9.907z" fill="#fff" fill-opacity=".235" fill-rule="evenodd"/><path d="M15.063 16.444l-2.488 1.43H3.163c-1.438 0-2.587.657-2.631 1.476H.515v7.387c0 .842 1.18 1.521 2.647 1.521H28.84c1.466 0 2.646-.679 2.646-1.522v-8.77c0-.843-1.18-1.522-2.646-1.522z" fill="url(#b)" fill-rule="evenodd"/><path d="M15.062 16.444l-2.487 1.431H3.162c-1.438 0-2.586.656-2.63 1.475H.515v.391h.017c.01-.204.09-.4.226-.576.137-.178.33-.335.566-.469a3.21 3.21 0 0 1 .827-.315 4.36 4.36 0 0 1 1.011-.116H13.46l.906-1.029.329-.374.007-.004z" fill="#fff" fill-opacity=".235" fill-rule="evenodd"/><path d="M31.174 27.433H.826c.353.457 1.167.825 2.336.825H28.84c1.17 0 1.982-.368 2.334-.826z" opacity=".2" fill-rule="evenodd"/></svg>