<?xml version="1.0" encoding="UTF-8" standalone="no"?>
<svg
   xmlns:dc="http://purl.org/dc/elements/1.1/"
   xmlns:cc="http://creativecommons.org/ns#"
   xmlns:rdf="http://www.w3.org/1999/02/22-rdf-syntax-ns#"
   xmlns:svg="http://www.w3.org/2000/svg"
   xmlns="http://www.w3.org/2000/svg"
   xmlns:sodipodi="http://sodipodi.sourceforge.net/DTD/sodipodi-0.dtd"
   xmlns:inkscape="http://www.inkscape.org/namespaces/inkscape"
   width="64"
   viewBox="0 0 64 64"
   height="64"
   version="1.1"
   id="svg35"
   sodipodi:docname="application-x-kdenlivetitle.svg"
   inkscape:version="0.92.4 (5da689c313, 2019-01-14)">
  <metadata
     id="metadata39">
    <rdf:RDF>
      <cc:Work
         rdf:about="">
        <dc:format>image/svg+xml</dc:format>
        <dc:type
           rdf:resource="http://purl.org/dc/dcmitype/StillImage" />
        <dc:title></dc:title>
      </cc:Work>
    </rdf:RDF>
  </metadata>
  <sodipodi:namedview
     pagecolor="#ffffff"
     bordercolor="#666666"
     borderopacity="1"
     objecttolerance="10"
     gridtolerance="10"
     guidetolerance="10"
     inkscape:pageopacity="0"
     inkscape:pageshadow="2"
     inkscape:window-width="1366"
     inkscape:window-height="707"
     id="namedview37"
     showgrid="false"
     inkscape:zoom="3.8984375"
     inkscape:cx="32"
     inkscape:cy="32"
     inkscape:window-x="0"
     inkscape:window-y="0"
     inkscape:window-maximized="1"
     inkscape:current-layer="svg35" />
  <defs
     id="defs17">
    <linearGradient
       id="a"
       y1="61"
       y2="3"
       x2="0"
       gradientUnits="userSpaceOnUse"
       gradientTransform="matrix(1.31818,0,0,0.75862,-10.182,7.724)">
      <stop
         stop-color="#6c7a89"
         id="stop2" />
      <stop
         offset="1"
         stop-color="#768492"
         id="stop4" />
    </linearGradient>
    <linearGradient
       id="b"
       y1="54"
       x1="3"
       y2="10"
       x2="61"
       gradientUnits="userSpaceOnUse">
      <stop
         stop-color="#383e51"
         id="stop7" />
      <stop
         offset="1"
         stop-color="#655c6f"
         stop-opacity="0"
         id="stop9" />
    </linearGradient>
    <linearGradient
       id="c"
       y1="54"
       y2="10"
       x2="0"
       gradientUnits="userSpaceOnUse">
      <stop
         stop-color="#dedede"
         id="stop12" />
      <stop
         offset="1"
         stop-color="#ececec"
         id="stop14" />
    </linearGradient>
    <linearGradient
       id="a-3"
       y1="392.35999"
       y2="324.66"
       gradientUnits="userSpaceOnUse"
       x2="0"
       gradientTransform="matrix(1,0,0,0.84587,-1,-272.73)">
      <stop
         stop-color="#ffffff"
         stop-opacity="0"
         id="stop2-6" />
      <stop
         offset="1"
         stop-color="#ffffff"
         stop-opacity=".2"
         id="stop4-7" />
    </linearGradient>
  </defs>
  <rect
     style="opacity:1;fill:#748290;fill-opacity:1;fill-rule:nonzero;stroke:none;stroke-width:2;stroke-linejoin:miter;stroke-miterlimit:4;stroke-dasharray:none;stroke-opacity:1"
     id="rect843-3"
     width="58"
     height="44"
     x="3"
     y="10"
     ry="4.8143134" />
  <path
     style="opacity:0.75;fill:#ffffff"
     inkscape:connector-curvature="0"
     id="path18"
     d="m 32,21.00002 a 11,11 0 0 0 -11,11 11,11 0 0 0 11,11 11,11 0 0 0 11,-11 11,11 0 0 0 -11,-11 m 0.14453,0.95117 a 10,10 0 0 1 10,10 10,10 0 0 1 -10,10 10,10 0 0 1 -10,-10 10,10 0 0 1 10,-10" />
  <path
     d="m 38.38,31.962 -10,5.538 v -11 z"
     id="path20"
     inkscape:connector-curvature="0"
     style="color:#000000;opacity:0.75;color-interpolation:sRGB;color-interpolation-filters:linearRGB;fill:#ffffff;color-rendering:auto;image-rendering:auto;shape-rendering:auto;text-rendering:auto" />
  <path
     d="m 55.2,14 v 3.6 h 3.6 V 14 Z m 0,5.4 V 23 h 3.6 v -3.6 z m 0,5.4 v 3.6 h 3.6 v -3.6 z m 0,5.4 v 3.6 h 3.6 v -3.6 z m 0,5.4 v 3.6 h 3.6 v -3.6 z m 0,5.4 v 3.6 h 3.6 V 41 Z m 0,5.4 V 50 h 3.6 v -3.6 z"
     id="path22"
     inkscape:connector-curvature="0"
     style="color:#000000;opacity:0.75;color-interpolation:sRGB;color-interpolation-filters:linearRGB;fill:#ffffff;stroke-width:0.89999998;color-rendering:auto;image-rendering:auto;shape-rendering:auto;text-rendering:auto" />
  <path
     d="m 5.2,14 v 3.6 H 8.8 V 14 Z m 0,5.4 V 23 h 3.6 v -3.6 z m 0,5.4 v 3.6 h 3.6 v -3.6 z m 0,5.4 v 3.6 h 3.6 v -3.6 z m 0,5.4 v 3.6 h 3.6 v -3.6 z m 0,5.4 v 3.6 H 8.8 V 41 Z m 0,5.4 V 50 h 3.6 v -3.6 z"
     id="path24"
     inkscape:connector-curvature="0"
     style="color:#000000;opacity:0.75;color-interpolation:sRGB;color-interpolation-filters:linearRGB;fill:#ffffff;stroke-width:0.89999998;color-rendering:auto;image-rendering:auto;shape-rendering:auto;text-rendering:auto" />
  <path
     style="opacity:0.35;fill:#000000;fill-opacity:1;fill-rule:nonzero;stroke:none;stroke-width:2;stroke-linejoin:miter;stroke-miterlimit:4;stroke-dasharray:none;stroke-opacity:1"
     d="m 61,48.03125 c 0,0.666782 -0.13398,1.30059 -0.37695,1.876953 -0.24298,0.576364 -0.59421,1.096157 -1.0293,1.53125 -0.43509,0.435094 -0.95489,0.786325 -1.53125,1.029297 -0.57636,0.242972 -1.21017,0.376953 -1.87695,0.376953 H 7.814453 C 7.147671,52.845703 6.513864,52.711722 5.9375,52.46875 5.361136,52.225778 4.841344,51.874547 4.40625,51.439453 3.971156,51.00436 3.619926,50.484567 3.376953,49.908203 3.133981,49.33184 3,48.698032 3,48.03125 v 1.154297 C 3,51.852677 5.147323,54 7.814453,54 H 56.18555 C 58.85268,54 61,51.852677 61,49.185547 Z"
     id="path915"
     inkscape:connector-curvature="0" />
  <path
     style="opacity:0.4;fill:#ffffff;fill-opacity:1;fill-rule:nonzero;stroke:none;stroke-width:2;stroke-linejoin:miter;stroke-miterlimit:4;stroke-dasharray:none;stroke-opacity:1"
     d="M 7.814453,10 C 5.147323,10 3,12.147323 3,14.814453 v 0.898438 C 3,15.046108 3.133981,14.410348 3.376953,13.833984 3.619926,13.257621 3.971156,12.739781 4.40625,12.304688 4.841344,11.869594 5.361136,11.518363 5.9375,11.275391 6.513864,11.032418 7.147671,10.898438 7.814453,10.898438 H 56.18555 c 0.66678,0 1.30059,0.13398 1.87695,0.376953 0.57636,0.242972 1.09616,0.594203 1.53125,1.029297 0.43509,0.435093 0.78632,0.952933 1.0293,1.529296 C 60.86602,14.410348 61,15.046108 61,15.712891 V 14.814453 C 61,12.147323 58.85268,10 56.18555,10 Z"
     id="rect843-3-5"
     inkscape:connector-curvature="0" />
</svg>
