<?xml version="1.0" encoding="UTF-8" standalone="no"?>
<svg
   xmlns:dc="http://purl.org/dc/elements/1.1/"
   xmlns:cc="http://creativecommons.org/ns#"
   xmlns:rdf="http://www.w3.org/1999/02/22-rdf-syntax-ns#"
   xmlns:svg="http://www.w3.org/2000/svg"
   xmlns="http://www.w3.org/2000/svg"
   xmlns:xlink="http://www.w3.org/1999/xlink"
   xmlns:sodipodi="http://sodipodi.sourceforge.net/DTD/sodipodi-0.dtd"
   xmlns:inkscape="http://www.inkscape.org/namespaces/inkscape"
   width="64"
   height="64"
   version="1.1"
   id="svg29"
   sodipodi:docname="application-x-kexiproject-shortcut.svg"
   inkscape:version="0.92.4 (5da689c313, 2019-01-14)">
  <metadata
     id="metadata33">
    <rdf:RDF>
      <cc:Work
         rdf:about="">
        <dc:format>image/svg+xml</dc:format>
        <dc:type
           rdf:resource="http://purl.org/dc/dcmitype/StillImage" />
        <dc:title></dc:title>
      </cc:Work>
    </rdf:RDF>
  </metadata>
  <sodipodi:namedview
     pagecolor="#ffffff"
     bordercolor="#666666"
     borderopacity="1"
     objecttolerance="10"
     gridtolerance="10"
     guidetolerance="10"
     inkscape:pageopacity="0"
     inkscape:pageshadow="2"
     inkscape:window-width="848"
     inkscape:window-height="480"
     id="namedview31"
     showgrid="false"
     inkscape:zoom="3.6875"
     inkscape:cx="3.9322034"
     inkscape:cy="32"
     inkscape:window-x="0"
     inkscape:window-y="25"
     inkscape:window-maximized="0"
     inkscape:current-layer="svg29" />
  <defs
     id="defs13">
    <linearGradient
       xlink:href="#a"
       id="b"
       gradientUnits="userSpaceOnUse"
       x1="0"
       y1="60.774"
       x2="0"
       y2="2.345" />
    <linearGradient
       id="a"
       y1="392.36"
       y2="336.36"
       x2="0"
       gradientUnits="userSpaceOnUse"
       gradientTransform="translate(254 -254)">
      <stop
         stop-color="#fff"
         stop-opacity="0"
         id="stop3" />
      <stop
         offset="1"
         stop-color="#fff"
         stop-opacity=".2"
         id="stop5" />
    </linearGradient>
    <linearGradient
       id="c"
       y1="17.475"
       y2="31"
       x1="41.616"
       x2="54"
       gradientUnits="userSpaceOnUse">
      <stop
         stop-color="#060606"
         id="stop8" />
      <stop
         offset="1"
         stop-opacity="0"
         id="stop10" />
    </linearGradient>
  </defs>
  <path
     d="M 40,3 H 15 c -2.77,0 -5,2.23 -5,5 v 48 c 0,2.77 2.23,5 5,5 h 34 c 2.77,0 5,-2.23 5,-5 V 17 Z"
     id="path15"
     inkscape:connector-curvature="0"
     style="fill:#8542c2" />
  <path
     d="m 32,22 a 11,3 0 0 0 -2.125,0.059 c -0.02,0 -0.041,0 -0.061,0.002 -0.059,0.003 -0.113,0.008 -0.172,0.012 a 11,3 0 0 0 -1.924,0.164 11,3 0 0 0 -0.002,0 11,3 0 0 0 -1.782,0.263 c -0.036,0.007 -0.075,0.011 -0.111,0.018 a 11,3 0 0 0 -1.518,0.344 c -0.037,0.01 -0.077,0.017 -0.113,0.027 a 11,3 0 0 0 -1.215,0.4 c -0.057,0.022 -0.119,0.044 -0.174,0.066 a 11,3 0 0 0 -0.222,0.102 c -0.11,0.05 -0.22,0.1 -0.32,0.152 a 11,3 0 0 0 -0.194,0.11 c -0.093,0.053 -0.186,0.106 -0.268,0.161 a 11,3 0 0 0 -0.139,0.104 c -0.079,0.06 -0.155,0.12 -0.22,0.182 a 11,3 0 0 0 -0.096,0.101 1.531,1.531 0 0 0 -0.154,0.188 11,3 0 0 0 -0.069,0.121 0.97,0.97 0 0 0 -0.074,0.166 A 11,3 0 0 0 21,25 v 10 a 11,3 0 0 0 1,1.242 11,3 0 0 0 0.012,0.006 11,3 0 0 0 0.476,0.252 11,3 0 0 0 0.032,0.014 11,3 0 0 0 0.55,0.232 11,3 0 0 0 0.065,0.024 11,3 0 0 0 0.59,0.2 11,3 0 0 0 0.132,0.042 11,3 0 0 0 0.65,0.18 11,3 0 0 0 0.1,0.025 11,3 0 0 0 0.774,0.176 11,3 0 0 0 0.053,0.01 11,3 0 0 0 0.814,0.15 11,3 0 0 0 0.139,0.023 11,3 0 0 0 0.779,0.115 11,3 0 0 0 0.22,0.03 11,3 0 0 0 0.737,0.082 11,3 0 0 0 0.367,0.037 11,3 0 0 0 0.54,0.045 11,3 0 0 0 0.591,0.04 11,3 0 0 0 0.49,0.026 11,3 0 0 0 0.576,0.024 11,3 0 0 0 0.463,0.013 A 11,3 0 0 0 32,38 a 11,3 0 0 0 0.959,-0.014 11,3 0 0 0 0.414,-0.013 11,3 0 0 0 0.717,-0.03 11,3 0 0 0 0.346,-0.021 11,3 0 0 0 0.707,-0.049 11,3 0 0 0 0.318,-0.03 11,3 0 0 0 0.768,-0.075 11,3 0 0 0 0.18,-0.022 11,3 0 0 0 0.808,-0.107 11,3 0 0 0 0.213,-0.035 11,3 0 0 0 0.677,-0.112 11,3 0 0 0 0.313,-0.06 11,3 0 0 0 0.596,-0.125 11,3 0 0 0 0.195,-0.047 11,3 0 0 0 0.662,-0.168 11,3 0 0 0 0.014,-0.004 11,3 0 0 0 0.023,-0.008 11,3 0 0 0 0.701,-0.219 11,3 0 0 0 0.637,-0.244 11,3 0 0 0 0.002,0 11,3 0 0 0 0.006,-0.002 11,3 0 0 0 0.535,-0.254 11,3 0 0 0 0.006,-0.004 A 11,3 0 0 0 42,36.242 11,3 0 0 0 43,35 V 31 H 40.615 C 38.883,31.596 35.693,32 32,32 26.477,32 22,31.1 22,30 v -3.758 l 0.004,0.002 a 11,3 0 0 0 0.744,0.371 l 0.031,0.014 a 11,3 0 0 0 0.93,0.34 11,3 0 0 0 1.058,0.287 l 0.088,0.02 a 11,3 0 0 0 2.512,0.441 l 0.11,0.014 a 11,3 0 0 0 1.316,0.137 l 0.115,0.01 a 11,3 0 0 0 1.398,0.086 c 0.108,0.005 0.217,0.006 0.326,0.01 A 11,3 0 0 0 32,28 11,3 0 0 0 35,27.883 v -0.977 a 10,2 0 0 1 -1,0.053 v -0.01 C 33.35,26.979 32.693,27 32,27 31.31,27 30.635,26.986 29.984,26.959 A 43.146,43.146 0 0 1 28.27,26.854 10,2 0 0 1 27.98,26.831 33.64,33.64 0 0 1 26.48,26.667 L 26.385,26.655 A 23.583,23.583 0 0 1 25.031,26.43 10,2 0 0 1 24.892,26.404 c -0.393,-0.08 -0.746,-0.166 -1.068,-0.258 a 10,2 0 0 1 -0.172,-0.049 6.548,6.548 0 0 1 -0.764,-0.28 10,2 0 0 1 -0.177,-0.079 c -0.03,-0.015 -0.054,-0.03 -0.082,-0.045 a 10,2 0 0 1 -0.233,-0.14 c -0.03,-0.022 -0.057,-0.044 -0.084,-0.066 A 10,2 0 0 1 22.179,25.369 C 22.152,25.34 22.132,25.311 22.111,25.281 A 10,2 0 0 1 22.043,25.168 C 22.02,25.11 22,25.06 22,25 a 10,2 0 0 1 0.2,-0.396 10,2 0 0 1 0.622,-0.397 6.44,6.44 0 0 1 0.816,-0.301 10,2 0 0 1 0.104,-0.033 10,2 0 0 1 0.004,-0.002 c 0.342,-0.1 0.729,-0.192 1.154,-0.277 l 0.045,-0.01 a 23.86,23.86 0 0 1 1.375,-0.23 10,2 0 0 1 0.142,-0.019 c 0.456,-0.06 0.946,-0.113 1.451,-0.158 a 10,2 0 0 1 0.35,-0.03 44.04,44.04 0 0 1 1.594,-0.099 10,2 0 0 1 0.22,-0.01 42.592,42.592 0 0 1 3.923,0.013 v -0.01 a 10,2 0 0 1 1,0.053 v -0.98 A 11,3 0 0 0 32,22 m 0,16 h -1 v 3 h 1 v 1 h -8 v -1 h -3 v 3 h 3 v -1 h 16 v 1 h 3 v -3 h -3 v 1 h -7 v -1 h 1 v -3 z m 7,-16 v 3 h 1 V 23.781 A 2.96,2.96 0 0 1 41,26 c 0,1.662 -1.338,3 -3,3 h -2 v 1 h 2 c 2.216,0 4,-1.784 4,-4 A 3.953,3.953 0 0 0 40.627,23 H 42 v -1 z m -17,9.24 c 1.784,1.07 5.692,1.759 10,1.76 4.31,-10e-4 8.22,-0.69 10,-1.76 V 35 A 10,2 0 0 1 32,37 10,2 0 0 1 22,35 V 33 Z M 32,39 h 1 v 1 h -1 z m -10,3 h 1 v 1 h -1 z m 19,0 h 1 v 1 h -1 z"
     id="path17"
     inkscape:connector-curvature="0"
     style="opacity:0.75;fill:#ffffff" />
  <path
     d="M 40,3 H 15 c -2.77,0 -5,2.23 -5,5 v 48 c 0,2.77 2.23,5 5,5 h 34 c 2.77,0 5,-2.23 5,-5 V 17 Z"
     id="path19"
     style="fill:url(#b)"
     inkscape:connector-curvature="0" />
  <path
     d="M 40,3 H 15 C 12.23,3 10,5.23 10,8 V 9.014 A 5.005,5.005 0 0 1 11.46,5.474 4.989,4.989 0 0 1 15,4.015 H 40 V 4 Z"
     id="path21"
     inkscape:connector-curvature="0"
     style="opacity:0.5;fill:#ffffff" />
  <path
     d="M 54,54.86 A 5.004,5.004 0 0 1 52.54,58.398 4.989,4.989 0 0 1 49,59.86 H 15 A 5.005,5.005 0 0 1 11.46,58.4 4.989,4.989 0 0 1 10,54.86 V 56 c 0,2.77 2.23,5 5,5 h 34 c 2.77,0 5,-2.23 5,-5 z"
     id="path23"
     inkscape:connector-curvature="0"
     style="opacity:0.25;fill-opacity:0.99199997" />
  <path
     d="M 40,3 V 14.535 A 2.456,2.456 0 0 0 42.465,17 H 54 Z"
     id="path25"
     inkscape:connector-curvature="0"
     style="opacity:0.5;fill:#ffffff;fill-rule:evenodd" />
  <path
     d="M 40.73,16.283 54,31 V 17 H 42.465 c -0.68,0 -1.29,-0.276 -1.735,-0.717 z"
     id="path27"
     style="opacity:0.1;fill:url(#c);fill-rule:evenodd"
     inkscape:connector-curvature="0" />
</svg>
