<?xml version="1.0" encoding="UTF-8" standalone="no"?>
<svg
   xmlns:dc="http://purl.org/dc/elements/1.1/"
   xmlns:cc="http://creativecommons.org/ns#"
   xmlns:rdf="http://www.w3.org/1999/02/22-rdf-syntax-ns#"
   xmlns:svg="http://www.w3.org/2000/svg"
   xmlns="http://www.w3.org/2000/svg"
   xmlns:xlink="http://www.w3.org/1999/xlink"
   xmlns:sodipodi="http://sodipodi.sourceforge.net/DTD/sodipodi-0.dtd"
   xmlns:inkscape="http://www.inkscape.org/namespaces/inkscape"
   width="64"
   height="64"
   version="1.1"
   id="svg29"
   sodipodi:docname="application-x-kexi-connectiondata.svg"
   inkscape:version="0.92.4 (5da689c313, 2019-01-14)">
  <metadata
     id="metadata33">
    <rdf:RDF>
      <cc:Work
         rdf:about="">
        <dc:format>image/svg+xml</dc:format>
        <dc:type
           rdf:resource="http://purl.org/dc/dcmitype/StillImage" />
        <dc:title></dc:title>
      </cc:Work>
    </rdf:RDF>
  </metadata>
  <sodipodi:namedview
     pagecolor="#ffffff"
     bordercolor="#666666"
     borderopacity="1"
     objecttolerance="10"
     gridtolerance="10"
     guidetolerance="10"
     inkscape:pageopacity="0"
     inkscape:pageshadow="2"
     inkscape:window-width="848"
     inkscape:window-height="480"
     id="namedview31"
     showgrid="false"
     inkscape:zoom="3.6875"
     inkscape:cx="3.9322034"
     inkscape:cy="32"
     inkscape:window-x="0"
     inkscape:window-y="25"
     inkscape:window-maximized="0"
     inkscape:current-layer="svg29" />
  <defs
     id="defs13">
    <linearGradient
       xlink:href="#a"
       id="b"
       gradientUnits="userSpaceOnUse"
       x1="0"
       y1="60.774"
       x2="0"
       y2="2.345" />
    <linearGradient
       id="a"
       y1="392.36"
       y2="336.36"
       x2="0"
       gradientUnits="userSpaceOnUse"
       gradientTransform="translate(254 -254)">
      <stop
         stop-color="#fff"
         stop-opacity="0"
         id="stop3" />
      <stop
         offset="1"
         stop-color="#fff"
         stop-opacity=".2"
         id="stop5" />
    </linearGradient>
    <linearGradient
       id="c"
       y1="17.475"
       y2="31"
       x1="41.616"
       x2="54"
       gradientUnits="userSpaceOnUse">
      <stop
         stop-color="#060606"
         id="stop8" />
      <stop
         offset="1"
         stop-opacity="0"
         id="stop10" />
    </linearGradient>
  </defs>
  <path
     d="M 40,3 H 15 c -2.77,0 -5,2.23 -5,5 v 48 c 0,2.77 2.23,5 5,5 h 34 c 2.77,0 5,-2.23 5,-5 V 17 Z"
     id="path15"
     inkscape:connector-curvature="0"
     style="fill:#8542c2" />
  <path
     d="M 40,3 H 15 c -2.77,0 -5,2.23 -5,5 v 48 c 0,2.77 2.23,5 5,5 h 34 c 2.77,0 5,-2.23 5,-5 V 17 Z"
     id="path17"
     style="fill:url(#b)"
     inkscape:connector-curvature="0" />
  <path
     d="M 40,3 H 15 C 12.23,3 10,5.23 10,8 V 9.014 A 5.005,5.005 0 0 1 11.46,5.474 4.989,4.989 0 0 1 15,4.015 H 40 V 4 Z"
     id="path19"
     inkscape:connector-curvature="0"
     style="opacity:0.5;fill:#ffffff" />
  <path
     d="M 54,54.86 A 5.004,5.004 0 0 1 52.54,58.398 4.989,4.989 0 0 1 49,59.86 H 15 A 5.005,5.005 0 0 1 11.46,58.4 4.989,4.989 0 0 1 10,54.86 V 56 c 0,2.77 2.23,5 5,5 h 34 c 2.77,0 5,-2.23 5,-5 z"
     id="path21"
     inkscape:connector-curvature="0"
     style="opacity:0.25;fill-opacity:0.99199997" />
  <path
     d="M 40,3 V 14.535 A 2.456,2.456 0 0 0 42.465,17 H 54 Z"
     id="path23"
     inkscape:connector-curvature="0"
     style="opacity:0.5;fill:#ffffff;fill-rule:evenodd" />
  <path
     d="M 40.73,16.283 54,31 V 17 H 42.465 c -0.68,0 -1.29,-0.276 -1.735,-0.717 z"
     id="path25"
     style="opacity:0.1;fill:url(#c);fill-rule:evenodd"
     inkscape:connector-curvature="0" />
  <path
     d="m 32,22 c -6.075,0 -11,1.343 -11,3 v 10 a 11,3 0 0 0 1,1.242 11,3 0 0 0 0.012,0.006 11,3 0 0 0 0.476,0.252 11,3 0 0 0 0.032,0.014 11,3 0 0 0 0.55,0.232 11,3 0 0 0 0.065,0.024 11,3 0 0 0 0.59,0.2 11,3 0 0 0 0.132,0.042 11,3 0 0 0 0.65,0.18 11,3 0 0 0 0.1,0.025 11,3 0 0 0 0.774,0.176 11,3 0 0 0 0.053,0.01 11,3 0 0 0 0.814,0.15 11,3 0 0 0 0.139,0.023 11,3 0 0 0 0.779,0.115 11,3 0 0 0 0.22,0.03 11,3 0 0 0 0.737,0.082 11,3 0 0 0 0.367,0.037 11,3 0 0 0 0.54,0.045 11,3 0 0 0 0.591,0.04 11,3 0 0 0 0.49,0.026 11,3 0 0 0 0.576,0.024 11,3 0 0 0 0.463,0.013 A 11,3 0 0 0 32,38 a 11,3 0 0 0 0.959,-0.014 11,3 0 0 0 0.414,-0.013 11,3 0 0 0 0.717,-0.03 11,3 0 0 0 0.346,-0.021 11,3 0 0 0 0.707,-0.049 11,3 0 0 0 0.318,-0.03 11,3 0 0 0 0.768,-0.075 11,3 0 0 0 0.18,-0.022 11,3 0 0 0 0.808,-0.107 11,3 0 0 0 0.213,-0.035 11,3 0 0 0 0.677,-0.112 11,3 0 0 0 0.313,-0.06 11,3 0 0 0 0.596,-0.125 11,3 0 0 0 0.195,-0.047 11,3 0 0 0 0.662,-0.168 11,3 0 0 0 0.014,-0.004 11,3 0 0 0 0.023,-0.008 11,3 0 0 0 0.701,-0.219 11,3 0 0 0 0.637,-0.244 11,3 0 0 0 0.002,0 11,3 0 0 0 0.006,-0.002 11,3 0 0 0 0.535,-0.254 11,3 0 0 0 0.006,-0.004 A 11,3 0 0 0 42,36.242 11,3 0 0 0 43,35 V 25 c 0,-1.657 -4.925,-3 -11,-3 m 0,16 h -1 v 3 h 1 v 1 h -8 v -1 h -3 v 3 h 3 v -1 h 16 v 1 h 3 v -3 h -3 v 1 h -7 v -1 h 1 v -3 z m 0,-15 c 5.523,0 10,0.895 10,2 0,1.105 -4.477,2 -10,2 -5.523,0 -10,-0.895 -10,-2 0,-1.105 4.477,-2 10,-2 m -10,3.242 c 1.784,1.069 5.692,1.756 10,1.758 4.308,-0.001 8.216,-0.688 10,-1.758 V 30 c 0,1.105 -4.477,2 -10,2 -5.523,0 -10,-0.895 -10,-2 z m 0,5 c 1.784,1.069 5.692,1.756 10,1.758 4.308,-10e-4 8.216,-0.688 10,-1.758 V 35 A 10,2 0 0 1 32,37 10,2 0 0 1 22,35 V 33 Z M 32,39 h 1 v 1 h -1 z m -10,3 h 1 v 1 h -1 z m 19,0 h 1 v 1 h -1 z"
     id="path27"
     inkscape:connector-curvature="0"
     style="opacity:0.75;fill:#ffffff" />
</svg>
