<?xml version="1.0" encoding="UTF-8" standalone="no"?>
<svg
   xmlns:dc="http://purl.org/dc/elements/1.1/"
   xmlns:cc="http://creativecommons.org/ns#"
   xmlns:rdf="http://www.w3.org/1999/02/22-rdf-syntax-ns#"
   xmlns:svg="http://www.w3.org/2000/svg"
   xmlns="http://www.w3.org/2000/svg"
   xmlns:xlink="http://www.w3.org/1999/xlink"
   xmlns:sodipodi="http://sodipodi.sourceforge.net/DTD/sodipodi-0.dtd"
   xmlns:inkscape="http://www.inkscape.org/namespaces/inkscape"
   width="64"
   height="64"
   version="1.1"
   id="svg31"
   sodipodi:docname="application-octet-stream.svg"
   inkscape:version="0.92.4 (5da689c313, 2019-01-14)">
  <metadata
     id="metadata35">
    <rdf:RDF>
      <cc:Work
         rdf:about="">
        <dc:format>image/svg+xml</dc:format>
        <dc:type
           rdf:resource="http://purl.org/dc/dcmitype/StillImage" />
        <dc:title></dc:title>
      </cc:Work>
    </rdf:RDF>
  </metadata>
  <sodipodi:namedview
     pagecolor="#ffffff"
     bordercolor="#666666"
     borderopacity="1"
     objecttolerance="10"
     gridtolerance="10"
     guidetolerance="10"
     inkscape:pageopacity="0"
     inkscape:pageshadow="2"
     inkscape:window-width="848"
     inkscape:window-height="480"
     id="namedview33"
     showgrid="false"
     inkscape:zoom="3.6875"
     inkscape:cx="3.9322034"
     inkscape:cy="32"
     inkscape:window-x="0"
     inkscape:window-y="25"
     inkscape:window-maximized="0"
     inkscape:current-layer="svg31" />
  <defs
     id="defs13">
    <linearGradient
       xlink:href="#a"
       id="b"
       gradientUnits="userSpaceOnUse"
       x1="0"
       y1="60.774"
       x2="0"
       y2="2.345" />
    <linearGradient
       id="a"
       y1="392.36"
       y2="336.36"
       x2="0"
       gradientUnits="userSpaceOnUse"
       gradientTransform="translate(254 -254)">
      <stop
         stop-color="#fff"
         stop-opacity="0"
         id="stop3" />
      <stop
         offset="1"
         stop-color="#fff"
         stop-opacity=".2"
         id="stop5" />
    </linearGradient>
    <linearGradient
       id="c"
       y1="17.475"
       y2="31"
       x1="41.616"
       x2="54"
       gradientUnits="userSpaceOnUse">
      <stop
         stop-color="#060606"
         id="stop8" />
      <stop
         offset="1"
         stop-opacity="0"
         id="stop10" />
    </linearGradient>
  </defs>
  <path
     d="M 40,3 H 15 c -2.77,0 -5,2.23 -5,5 v 48 c 0,2.77 2.23,5 5,5 h 34 c 2.77,0 5,-2.23 5,-5 V 17 Z"
     id="path15"
     inkscape:connector-curvature="0"
     style="fill:#555555" />
  <path
     d="M 40,3 H 15 c -2.77,0 -5,2.23 -5,5 v 48 c 0,2.77 2.23,5 5,5 h 34 c 2.77,0 5,-2.23 5,-5 V 17 Z"
     id="path17"
     style="fill:url(#b)"
     inkscape:connector-curvature="0" />
  <path
     d="M 40,3 H 15 C 12.23,3 10,5.23 10,8 V 9.014 A 5.005,5.005 0 0 1 11.46,5.474 4.989,4.989 0 0 1 15,4.015 H 40 V 4 Z"
     id="path19"
     inkscape:connector-curvature="0"
     style="opacity:0.5;fill:#ffffff" />
  <path
     d="M 54,54.86 A 5.004,5.004 0 0 1 52.54,58.398 4.989,4.989 0 0 1 49,59.86 H 15 A 5.005,5.005 0 0 1 11.46,58.4 4.989,4.989 0 0 1 10,54.86 V 56 c 0,2.77 2.23,5 5,5 h 34 c 2.77,0 5,-2.23 5,-5 z"
     id="path21"
     inkscape:connector-curvature="0"
     style="opacity:0.25;fill-opacity:0.99199997" />
  <path
     d="M 40,3 V 14.535 A 2.456,2.456 0 0 0 42.465,17 H 54 Z"
     id="path23"
     inkscape:connector-curvature="0"
     style="opacity:0.5;fill:#ffffff;fill-rule:evenodd" />
  <path
     d="M 20,24 V 46 H 46 V 24 Z m 18,1 a 1,1 0 1 1 0,2 1,1 0 0 1 0,-2 z m 3,0 a 1,1 0 1 1 0,2 1,1 0 0 1 0,-2 z m 3,0 a 1,1 0 1 1 0,2 1,1 0 0 1 0,-2 z M 21,28 H 45 V 45 H 21 Z m 12.5,2 c -0.972,0 -1.88,0.341 -2.52,0.98 C 30.34,31.62 30,32.527 30,33.5 h 2 c 0,-0.528 0.159,-0.87 0.395,-1.105 C 32.63,32.16 32.973,32 33.5,32 c 0.528,0 0.87,0.159 1.105,0.395 C 34.84,32.63 35,32.973 35,33.5 c 0,0.458 -0.09,0.653 -0.21,0.826 -0.522,0.526 -1.153,0.976 -1.66,1.406 C 32.559,36.162 32,36.724 32,37.5 V 38 h 2 v -0.5 c 0.711,-0.728 1.77,-1.362 2.43,-2.03 C 36.778,34.972 37,34.292 37,33.5 37,32.528 36.659,31.62 36.02,30.98 35.38,30.34 34.473,30 33.5,30 Z M 32,40 v 2 h 2 v -2 z"
     style="color:#000000;overflow:visible;isolation:auto;mix-blend-mode:normal;solid-color:#000000;solid-opacity:1;fill:#343434"
     overflow="visible"
     id="path25"
     inkscape:connector-curvature="0" />
  <path
     d="M 19,23 V 45 H 45 V 23 Z m 18,1 a 1,1 0 1 1 0,2 1,1 0 0 1 0,-2 z m 3,0 a 1,1 0 1 1 0,2 1,1 0 0 1 0,-2 z m 3,0 a 1,1 0 1 1 0,2 1,1 0 0 1 0,-2 z M 20,27 H 44 V 44 H 20 Z m 12.5,2 c -0.972,0 -1.88,0.341 -2.52,0.98 C 29.34,30.62 29,31.527 29,32.5 h 2 c 0,-0.528 0.159,-0.87 0.395,-1.105 C 31.63,31.16 31.973,31 32.5,31 c 0.528,0 0.87,0.159 1.105,0.395 C 33.84,31.63 34,31.973 34,32.5 c 0,0.458 -0.09,0.653 -0.21,0.826 -0.522,0.526 -1.153,0.976 -1.66,1.406 C 31.559,35.162 31,35.724 31,36.5 V 37 h 2 v -0.5 c 0.711,-0.728 1.77,-1.362 2.43,-2.03 C 35.778,33.972 36,33.292 36,32.5 36,31.528 35.659,30.62 35.02,29.98 34.38,29.34 33.473,29 32.5,29 Z M 31,39 v 2 h 2 v -2 z"
     id="path27"
     inkscape:connector-curvature="0"
     style="color:#000000;fill:#e0e0e0" />
  <path
     d="M 40.73,16.283 54,31 V 17 H 42.465 c -0.68,0 -1.29,-0.276 -1.735,-0.717 z"
     id="path29"
     style="opacity:0.4;fill:url(#c);fill-rule:evenodd"
     inkscape:connector-curvature="0" />
</svg>
