<?xml version="1.0" encoding="UTF-8" standalone="no"?>
<svg
   xmlns:dc="http://purl.org/dc/elements/1.1/"
   xmlns:cc="http://creativecommons.org/ns#"
   xmlns:rdf="http://www.w3.org/1999/02/22-rdf-syntax-ns#"
   xmlns:svg="http://www.w3.org/2000/svg"
   xmlns="http://www.w3.org/2000/svg"
   xmlns:xlink="http://www.w3.org/1999/xlink"
   xmlns:sodipodi="http://sodipodi.sourceforge.net/DTD/sodipodi-0.dtd"
   xmlns:inkscape="http://www.inkscape.org/namespaces/inkscape"
   height="64"
   width="64"
   version="1.1"
   id="svg37"
   sodipodi:docname="application-x-python-bytecode.svg"
   inkscape:version="0.92.4 (5da689c313, 2019-01-14)">
  <metadata
     id="metadata41">
    <rdf:RDF>
      <cc:Work
         rdf:about="">
        <dc:format>image/svg+xml</dc:format>
        <dc:type
           rdf:resource="http://purl.org/dc/dcmitype/StillImage" />
        <dc:title></dc:title>
      </cc:Work>
    </rdf:RDF>
  </metadata>
  <sodipodi:namedview
     pagecolor="#ffffff"
     bordercolor="#666666"
     borderopacity="1"
     objecttolerance="10"
     gridtolerance="10"
     guidetolerance="10"
     inkscape:pageopacity="0"
     inkscape:pageshadow="2"
     inkscape:window-width="848"
     inkscape:window-height="480"
     id="namedview39"
     showgrid="false"
     inkscape:zoom="3.6875"
     inkscape:cx="3.9322034"
     inkscape:cy="32"
     inkscape:window-x="0"
     inkscape:window-y="25"
     inkscape:window-maximized="0"
     inkscape:current-layer="svg37" />
  <defs
     id="defs9">
    <linearGradient
       id="e"
       y1="17.475"
       y2="31"
       x1="41.616"
       x2="54"
       gradientUnits="userSpaceOnUse">
      <stop
         stop-color="#060606"
         id="stop2" />
      <stop
         offset="1"
         stop-opacity="0"
         id="stop4" />
    </linearGradient>
    <linearGradient
       xlink:href="#a"
       id="c"
       x1="10"
       y1="61"
       x2="10"
       y2="3"
       gradientUnits="userSpaceOnUse"
       gradientTransform="translate(-40)" />
    <linearGradient
       xlink:href="#b"
       id="d"
       x1="40"
       y1="3"
       x2="40"
       y2="21.562"
       gradientUnits="userSpaceOnUse"
       gradientTransform="translate(-40)" />
  </defs>
  <linearGradient
     id="b"
     gradientTransform="matrix(1 0 0 -1 0 64)"
     gradientUnits="userSpaceOnUse"
     x2="0"
     y1="61"
     y2="47">
    <stop
       offset="0"
       stop-color="#fddda3"
       id="stop11" />
    <stop
       offset="1"
       stop-color="#fde3a7"
       id="stop13" />
  </linearGradient>
  <linearGradient
     id="a"
     gradientTransform="matrix(1 0 0 -1 0 64)"
     gradientUnits="userSpaceOnUse"
     x2="0"
     y1="3"
     y2="61">
    <stop
       offset="0"
       stop-color="#f39c12"
       id="stop16" />
    <stop
       offset="1"
       stop-color="#f89406"
       id="stop18" />
  </linearGradient>
  <path
     d="M 40,3 H 15 c -2.77,0 -5,2.23 -5,5 v 48 c 0,2.77 2.23,5 5,5 h 34 c 2.77,0 5,-2.23 5,-5 V 17 Z"
     id="path21"
     style="fill:url(#c)"
     inkscape:connector-curvature="0" />
  <path
     d="M 40,3 H 15 C 12.23,3 10,5.23 10,8 V 9.014 A 5.005,5.005 0 0 1 11.46,5.474 4.989,4.989 0 0 1 15,4.015 H 40 V 4 Z"
     id="path23"
     inkscape:connector-curvature="0"
     style="opacity:0.5;fill:#ffffff" />
  <path
     d="M 54,54.86 A 5.004,5.004 0 0 1 52.54,58.398 4.989,4.989 0 0 1 49,59.86 H 15 A 5.005,5.005 0 0 1 11.46,58.4 4.989,4.989 0 0 1 10,54.86 V 56 c 0,2.77 2.23,5 5,5 h 34 c 2.77,0 5,-2.23 5,-5 z"
     id="path25"
     inkscape:connector-curvature="0"
     style="opacity:0.25;fill-opacity:0.99199997" />
  <path
     d="M 40,3 V 14.535 A 2.456,2.456 0 0 0 42.465,17 H 54 Z"
     id="path27"
     style="fill:url(#d);fill-rule:evenodd"
     inkscape:connector-curvature="0" />
  <path
     d="M 40.73,16.283 54,31 V 17 H 42.465 c -0.68,0 -1.29,-0.276 -1.735,-0.717 z"
     id="path29"
     style="opacity:0.20100002;fill:url(#e);fill-rule:evenodd"
     inkscape:connector-curvature="0" />
  <g
     id="g35"
     style="fill:#fde3a7">
    <path
       d="m 30,22 c -1.662,0 -3,1.338 -3,3 v 2 h 5 v 1 h -7 c -2.216,0 -4,1.784 -4,4 v 2 c 0,2.216 1.784,4 4,4 v -2 a 3.978,3.978 0 0 1 2.926,-3.838 c 0.147,-0.04 0.297,-0.072 0.449,-0.1 C 28.58,32.031 28.786,32 29,32 h 7.225 A 2.98,2.98 0 0 0 37,30 v -5 c 0,-1.662 -1.338,-3 -3,-3 z m -1,2 c 0.554,0 1,0.446 1,1 0,0.554 -0.446,1 -1,1 -0.554,0 -1,-0.446 -1,-1 0,-0.554 0.446,-1 1,-1 z"
       id="path31"
       inkscape:connector-curvature="0"
       style="fill-rule:evenodd" />
    <path
       d="m 31.563,33 c -1.137,0 -1.992,0.465 -2.565,1.393 -0.578,0.932 -0.865,2.302 -0.865,4.11 0,1.805 0.287,3.172 0.865,4.104 0.573,0.928 1.428,1.393 2.564,1.393 1.132,0 1.989,-0.465 2.57,-1.393 0.285,-0.454 0.5,-1.02 0.647,-1.697 C 34.926,40.233 35,39.432 35,38.504 35,37.576 34.926,36.773 34.78,36.096 34.633,35.414 34.417,34.847 34.133,34.393 33.555,33.465 32.699,33 31.563,33 Z m 0,1.137 c 0.676,0 1.179,0.361 1.505,1.086 0.088,0.191 0.16,0.417 0.225,0.664 l -3.686,3.685 c -0.022,-0.33 -0.033,-0.686 -0.033,-1.068 0,-0.762 0.04,-1.41 0.121,-1.945 0.086,-0.54 0.21,-0.99 0.375,-1.344 0.327,-0.72 0.825,-1.078 1.493,-1.078 z m 1.96,3.29 c 0.023,0.334 0.036,0.691 0.036,1.077 0,1.472 -0.164,2.566 -0.49,3.281 -0.327,0.72 -0.83,1.078 -1.506,1.078 -0.663,0 -1.161,-0.358 -1.493,-1.078 a 4,4 0 0 1 -0.23,-0.674 z m 3.406,5.32 h 2.313 v -7.89 L 37.489,36.853 36.679,35.866 39.227,33 h 1.488 v 9.747 H 43 V 44 h -6.071 z"
       id="path33"
       inkscape:connector-curvature="0" />
  </g>
</svg>
