<?xml version="1.0" encoding="UTF-8" standalone="no"?>
<svg
   xmlns:dc="http://purl.org/dc/elements/1.1/"
   xmlns:cc="http://creativecommons.org/ns#"
   xmlns:rdf="http://www.w3.org/1999/02/22-rdf-syntax-ns#"
   xmlns:svg="http://www.w3.org/2000/svg"
   xmlns="http://www.w3.org/2000/svg"
   xmlns:xlink="http://www.w3.org/1999/xlink"
   xmlns:sodipodi="http://sodipodi.sourceforge.net/DTD/sodipodi-0.dtd"
   xmlns:inkscape="http://www.inkscape.org/namespaces/inkscape"
   width="64"
   height="64"
   version="1.1"
   id="svg33"
   sodipodi:docname="application-x-marble.svg"
   inkscape:version="0.92.4 (5da689c313, 2019-01-14)">
  <metadata
     id="metadata37">
    <rdf:RDF>
      <cc:Work
         rdf:about="">
        <dc:format>image/svg+xml</dc:format>
        <dc:type
           rdf:resource="http://purl.org/dc/dcmitype/StillImage" />
        <dc:title></dc:title>
      </cc:Work>
    </rdf:RDF>
  </metadata>
  <sodipodi:namedview
     pagecolor="#ffffff"
     bordercolor="#666666"
     borderopacity="1"
     objecttolerance="10"
     gridtolerance="10"
     guidetolerance="10"
     inkscape:pageopacity="0"
     inkscape:pageshadow="2"
     inkscape:window-width="848"
     inkscape:window-height="480"
     id="namedview35"
     showgrid="false"
     inkscape:zoom="3.6875"
     inkscape:cx="3.9322034"
     inkscape:cy="32"
     inkscape:window-x="0"
     inkscape:window-y="25"
     inkscape:window-maximized="0"
     inkscape:current-layer="svg33" />
  <defs
     id="defs19">
    <linearGradient
       id="a"
       y1="3"
       y2="61"
       x2="0"
       gradientUnits="userSpaceOnUse"
       gradientTransform="matrix(1 0 0 -1 0 64)">
      <stop
         stop-color="#22a7f0"
         id="stop2" />
      <stop
         offset="1"
         stop-color="#19b5fe"
         id="stop4" />
    </linearGradient>
    <linearGradient
       id="b"
       y1="61"
       y2="47"
       x2="0"
       gradientUnits="userSpaceOnUse"
       gradientTransform="matrix(1 0 0 -1 0 64)">
      <stop
         stop-color="#c8e3fe"
         id="stop7" />
      <stop
         offset="1"
         stop-color="#fff"
         id="stop9" />
    </linearGradient>
    <linearGradient
       id="e"
       y1="17.475"
       y2="31"
       x1="41.616"
       x2="54"
       gradientUnits="userSpaceOnUse">
      <stop
         stop-color="#060606"
         id="stop12" />
      <stop
         offset="1"
         stop-opacity="0"
         id="stop14" />
    </linearGradient>
    <linearGradient
       xlink:href="#a"
       id="c"
       x1="10"
       y1="61"
       x2="10"
       y2="3"
       gradientUnits="userSpaceOnUse"
       gradientTransform="translate(-40)" />
    <linearGradient
       xlink:href="#b"
       id="d"
       x1="40"
       y1="3"
       x2="40.012"
       y2="19.251"
       gradientUnits="userSpaceOnUse"
       gradientTransform="translate(-40)" />
  </defs>
  <path
     d="M 40,3 H 15 c -2.77,0 -5,2.23 -5,5 v 48 c 0,2.77 2.23,5 5,5 h 34 c 2.77,0 5,-2.23 5,-5 V 17 Z"
     id="path21"
     style="fill:url(#c)"
     inkscape:connector-curvature="0" />
  <path
     d="M 40,3 H 15 C 12.23,3 10,5.23 10,8 V 9.014 A 5.005,5.005 0 0 1 11.46,5.474 4.989,4.989 0 0 1 15,4.015 H 40 V 4 Z"
     id="path23"
     inkscape:connector-curvature="0"
     style="opacity:0.5;fill:#ffffff" />
  <path
     d="M 54,54.86 A 5.004,5.004 0 0 1 52.54,58.398 4.989,4.989 0 0 1 49,59.86 H 15 A 5.005,5.005 0 0 1 11.46,58.4 4.989,4.989 0 0 1 10,54.86 V 56 c 0,2.77 2.23,5 5,5 h 34 c 2.77,0 5,-2.23 5,-5 z"
     id="path25"
     inkscape:connector-curvature="0"
     style="opacity:0.25;fill-opacity:0.99199997" />
  <path
     d="M 40,3 V 14.535 A 2.456,2.456 0 0 0 42.465,17 H 54 Z"
     id="path27"
     style="fill:url(#d);fill-rule:evenodd"
     inkscape:connector-curvature="0" />
  <path
     d="M 40.73,16.283 54,31 V 17 H 42.465 c -0.68,0 -1.29,-0.276 -1.735,-0.717 z"
     id="path29"
     style="opacity:0.2;fill:url(#e);fill-rule:evenodd"
     inkscape:connector-curvature="0" />
  <path
     d="m 32,22 c -6.094,0 -11,4.906 -11,11 0,6.094 4.906,11 11,11 6.094,0 11,-4.906 11,-11 0,-6.094 -4.906,-11 -11,-11 m 0,1 c 1.662,0 3.222,0.408 4.598,1.119 a 0.609,0.609 0 0 1 0,0.113 c 0.058,0.026 0.091,0.134 0.189,0.188 0.036,0.02 0.06,0.029 0.094,0.047 0.058,0.032 0.106,0.085 0.094,0.141 -0.016,0.082 -0.132,0.079 -0.188,0.139 0.008,0.116 -0.064,0.111 -0.094,0.189 0.018,0.05 0.086,0.034 0.094,0.094 -0.01,0.064 -0.118,0.073 -0.094,0.139 0.108,0.084 0.226,0.014 0.328,0 0.224,-0.028 0.423,0.014 0.561,-0.094 -0.018,-0.106 0.153,-0.138 0.141,-0.234 -0.01,-0.072 -0.134,-0.089 -0.188,-0.139 -0.012,-0.011 -0.028,-0.039 -0.041,-0.061 0.165,0.108 0.323,0.226 0.48,0.344 -0.039,0.032 -0.071,0.072 -0.111,0.09 -0.042,0.018 -0.103,0.023 -0.141,0.047 -0.056,0.038 -0.077,0.097 -0.141,0.139 -0.046,0.032 -0.186,0.141 -0.234,0.141 -0.058,0 -0.146,-0.059 -0.188,-0.045 -0.06,0.018 -0.026,0.115 -0.094,0.139 -0.132,0.048 -0.376,-0.104 -0.422,0.094 0.056,0.114 0.228,0.079 0.328,0.141 0.062,0.04 0.172,0.213 0.188,0.281 a 0.904,0.904 0 0 1 0,0.328 c -0.062,0.16 -0.238,0.145 -0.422,0.141 -0.05,0 -0.095,0.004 -0.141,0 -0.31,-0.02 -0.608,-0.128 -0.748,0.094 0.01,0.17 0.038,0.274 0,0.422 -0.028,0.108 -0.147,0.187 -0.141,0.281 0.002,0.048 0.082,0.122 0.094,0.188 0.008,0.036 -0.016,0.109 0,0.141 0.052,0.098 0.189,-0.016 0.281,0 0.088,0.014 0.189,0.136 0.189,0.234 0,0.07 -0.052,0.213 -0.096,0.281 -0.088,0.132 -0.249,0.116 -0.375,0.188 -0.104,0.06 -0.126,0.179 -0.188,0.283 -0.066,0.112 -0.12,0.168 -0.094,0.328 a 0.734,0.734 0 0 1 -0.377,0.375 c -0.054,0.024 -0.138,0.058 -0.188,0.094 a 0.922,0.922 0 0 0 -0.141,0.141 c -0.07,0.078 -0.15,0.128 -0.188,0.188 -0.028,0.046 -0.017,0.126 -0.047,0.188 -0.044,0.084 -0.132,0.15 -0.188,0.234 -0.026,0.04 -0.066,0.089 -0.094,0.141 -0.064,0.116 -0.153,0.226 -0.141,0.328 0.01,0.098 0.135,0.102 0.141,0.188 0.006,0.048 -0.049,0.087 -0.047,0.139 0.002,0.076 0.041,0.129 0.047,0.189 0.014,0.148 -0.066,0.179 -0.094,0.281 -0.014,0.048 0.012,0.103 0,0.141 -0.024,0.074 -0.139,0.144 -0.141,0.232 -0.002,0.062 0.088,0.101 0.094,0.189 0.004,0.06 -0.057,0.132 -0.045,0.188 0.022,0.108 0.244,0.244 0.328,0.328 0.114,0.114 0.231,0.208 0.281,0.328 0.042,0.102 0.063,0.252 0.141,0.328 0.058,0.056 0.16,0.081 0.234,0.139 0.07,0.054 0.158,0.083 0.232,0.141 0.122,0.096 0.275,0.295 0.469,0.281 0.102,-0.008 0.214,-0.074 0.328,-0.094 0.118,-0.02 0.255,-0.057 0.375,-0.045 0.092,0.01 0.187,0.051 0.283,0.045 0.1,-0.006 0.214,-0.044 0.328,-0.094 0.198,-0.086 0.507,-0.229 0.795,-0.188 0.22,0.032 0.223,0.277 0.377,0.375 0.176,0.016 0.327,-0.034 0.467,0 0.106,0.026 0.224,0.199 0.234,0.283 0.01,0.086 -0.082,0.178 -0.094,0.232 -0.028,0.116 -0.027,0.254 -0.047,0.328 -0.016,0.058 -0.047,0.13 -0.045,0.188 0,0.052 0.087,0.166 0.141,0.234 0.066,0.084 0.152,0.142 0.232,0.234 0.146,0.168 0.226,0.387 0.328,0.609 0.026,0.056 -0.024,0.071 0,0.141 -0.044,0.336 -0.155,0.566 -0.375,0.938 -0.104,0.12 -0.236,0.272 -0.234,0.422 -0.008,0.36 0.203,0.541 0.188,0.889 -0.036,0.468 -0.009,0.547 -0.045,0.797 0.158,0.08 0.091,0.301 0.045,0.467 -0.068,0.198 -0.15,0.245 -0.188,0.377 0.124,0.054 0.26,0.04 0.398,0.006 a 9.96,9.96 0 0 1 -7.293,3.158 10.01,10.01 0 0 1 -3.482,-0.631 c -0.04,-0.016 -0.084,-0.025 -0.123,-0.047 a 0.198,0.198 0 0 1 -0.094,-0.188 c 0.104,-0.044 0.301,0.099 0.377,-0.047 0.038,-0.07 -0.05,-0.211 0,-0.281 0.036,-0.048 0.254,-0.082 0.328,-0.094 0.106,-0.018 0.221,-0.009 0.281,-0.047 a 0.327,0.327 0 0 0 0.141,-0.281 c -0.006,-0.058 -0.048,-0.089 -0.094,-0.141 -0.038,-0.044 -0.021,-0.099 -0.047,-0.139 -0.048,-0.07 -0.121,-0.086 -0.141,-0.188 0.144,-0.028 0.355,0.152 0.563,0.094 0.098,-0.028 0.235,-0.236 0.281,-0.328 0.014,-0.028 -0.016,-0.107 0,-0.141 0.018,-0.038 0.09,-0.074 0.096,-0.094 0.014,-0.054 -0.012,-0.06 0,-0.094 0.036,-0.102 0.128,-0.16 0.188,-0.234 0.046,-0.056 0.099,-0.13 0.141,-0.188 0.048,-0.062 0.062,-0.087 0.094,-0.141 0.03,-0.182 -0.091,-0.307 -0.047,-0.467 0.048,-0.18 0.295,-0.295 0.469,-0.377 0.06,-0.028 0.138,-0.076 0.188,-0.094 0.12,-0.042 0.263,-0.054 0.375,-0.094 0.188,-0.068 0.236,-0.25 0.328,-0.422 a 0.85,0.85 0 0 0 0.096,-0.234 c 0.008,-0.052 -0.01,-0.079 0,-0.139 0.01,-0.06 0.029,-0.123 0.045,-0.189 0.022,-0.086 0.047,-0.23 0.047,-0.326 0,-0.08 -0.045,-0.117 -0.047,-0.189 -0.014,-0.26 0.092,-0.28 0.188,-0.422 0.048,-0.07 0.06,-0.182 0.094,-0.232 0.162,-0.24 0.442,-0.341 0.422,-0.705 C 32.651,35.784 32.608,35.52 32.52,35.482 32.47,35.46 32.36,35.465 32.286,35.437 32.05,35.349 31.876,35.08 31.63,35.06 c -0.052,-0.002 -0.083,0.002 -0.141,0 -0.096,-0.002 -0.218,-0.082 -0.326,-0.094 -0.068,-0.008 -0.194,0.02 -0.234,0 -0.062,-0.03 -0.044,-0.154 -0.094,-0.188 -0.04,-0.028 -0.127,-0.025 -0.189,-0.047 -0.098,-0.038 -0.167,-0.086 -0.281,-0.094 -0.036,-0.002 -0.101,0.006 -0.141,0 -0.062,-0.01 -0.13,-0.058 -0.188,-0.094 -0.072,-0.044 -0.111,-0.077 -0.141,-0.139 0.066,-0.216 -0.144,-0.251 -0.188,-0.377 -0.02,-0.058 0.02,-0.136 0,-0.188 -0.026,-0.074 -0.106,-0.126 -0.188,-0.188 -0.144,-0.112 -0.263,-0.208 -0.469,-0.234 -0.092,-0.01 -0.218,0.008 -0.328,0 -0.116,-0.008 -0.24,-0.088 -0.328,-0.188 -0.084,-0.098 -0.114,-0.188 -0.188,-0.234 -0.07,-0.044 -0.186,-0.048 -0.234,-0.094 -0.022,-0.02 -0.025,-0.048 -0.045,-0.094 -0.036,-0.072 -0.091,-0.101 -0.047,-0.189 -0.08,-0.04 -0.053,0.063 -0.139,0.047 -0.078,-0.11 -0.152,-0.175 -0.328,-0.141 -0.08,0.016 -0.14,0.139 -0.234,0.141 -0.078,0.002 -0.132,-0.127 -0.234,-0.141 -0.078,-0.01 -0.18,0.059 -0.234,0.047 -0.086,-0.016 -0.11,-0.089 -0.188,-0.141 -0.058,-0.038 -0.156,-0.141 -0.188,-0.139 -0.1,0.002 -0.19,0.213 -0.328,0.139 -0.068,-0.086 0.125,-0.108 0.045,-0.188 -0.06,-0.06 -0.091,0.015 -0.139,0.047 a 0.87,0.87 0 0 1 -0.188,0.094 c -0.138,0.052 -0.22,0.038 -0.328,0.094 -0.1,0.052 -0.131,0.132 -0.189,0.234 -0.046,0.084 -0.118,0.228 -0.188,0.232 -0.084,0.006 -0.158,-0.107 -0.234,-0.139 -0.23,-0.1 -0.371,0.043 -0.561,0.045 -0.176,0.002 -0.43,-0.256 -0.422,-0.422 0.006,-0.102 0.082,-0.249 0.094,-0.375 0.01,-0.1 0.092,-0.191 0.094,-0.283 0.002,-0.122 -0.203,-0.218 -0.283,-0.232 -0.188,-0.034 -0.44,0.084 -0.654,0 -0.04,-0.068 0.07,-0.123 0.094,-0.189 0.014,-0.038 -0.014,-0.052 0,-0.094 0.024,-0.064 0.109,-0.12 0.139,-0.188 0.022,-0.052 0.025,-0.124 0.047,-0.188 0.026,-0.072 0.088,-0.136 0.094,-0.188 0.008,-0.068 -0.04,-0.145 -0.094,-0.189 -0.166,0.01 -0.281,0.003 -0.377,0.047 -0.216,0.098 -0.157,0.401 -0.375,0.469 -0.074,0.024 -0.197,0.031 -0.281,0.045 -0.037,0.007 -0.078,0.013 -0.119,0.023 0.14,-0.726 0.356,-1.424 0.643,-2.084 0.048,0 0.098,-0.006 0.131,0 0.076,0.014 0.123,0.088 0.189,0.094 0.184,0.014 0.223,-0.154 0.375,-0.234 0.156,0.022 0.235,-0.016 0.377,0 0.096,0.01 0.205,0.135 0.281,0.141 0.064,0.002 0.081,-0.057 0.141,-0.047 0.06,0.01 0.177,0.116 0.188,0.188 0.01,0.09 -0.073,0.183 -0.047,0.283 0.094,0.096 0.288,0.132 0.422,0.188 0.088,-0.072 0.014,-0.224 0,-0.328 -0.002,-0.046 0.006,-0.099 0,-0.141 -0.01,-0.072 -0.045,-0.126 -0.045,-0.188 0,-0.286 0.23,-0.404 0.422,-0.516 0.082,-0.048 0.162,-0.152 0.234,-0.188 0.102,-0.05 0.15,-0.046 0.234,-0.094 a 2.98,2.98 0 0 0 0.422,-0.283 c 0.054,-0.13 -0.006,-0.294 0,-0.422 0.054,-0.034 0.081,0.006 0.139,0 0.092,-0.02 0.137,-0.136 0.189,-0.188 0.03,-0.03 0.103,-0.064 0.139,-0.094 0.092,-0.072 0.108,-0.156 0.188,-0.188 0.028,-0.01 0.097,-0.035 0.141,-0.047 0.06,-0.016 0.138,-0.06 0.234,-0.094 0.062,-0.022 0.21,-0.021 0.234,-0.045 0.03,-0.03 -0.008,-0.143 0,-0.189 0.048,-0.226 0.407,-0.25 0.609,-0.326 0.14,-0.054 0.266,-0.171 0.422,-0.141 -0.03,0.108 -0.167,0.104 -0.141,0.234 0.034,0.182 0.264,-0.068 0.328,-0.094 0.122,-0.052 0.356,-0.083 0.516,-0.141 0.14,-0.05 0.366,-0.119 0.234,-0.281 -0.11,-0.008 -0.138,0.099 -0.234,0.139 -0.066,0.01 -0.083,-0.041 -0.139,-0.045 -0.054,-0.002 -0.087,0.055 -0.141,0.045 -0.054,-0.01 -0.133,-0.124 -0.141,-0.188 -0.022,-0.168 0.166,-0.204 0.234,-0.328 -0.046,-0.152 -0.247,-0.034 -0.375,-0.094 a 0.225,0.225 0 0 1 0.188,-0.188 c 0.086,-0.014 0.276,0.003 0.328,0.045 0.03,0.026 -10e-4,0.099 0.045,0.141 0.052,0.046 0.121,0.01 0.189,0 0.024,-0.114 -0.161,-0.067 -0.141,-0.141 0.136,-0.088 0.397,-0.023 0.563,-0.045 0.096,-0.014 0.195,-0.095 0.281,-0.141 0.08,-0.046 0.15,-0.121 0.234,-0.045 0.024,0.082 -0.048,0.146 -0.094,0.188 -0.154,0.136 -0.302,0.264 -0.422,0.422 0.074,0.072 0.204,0.031 0.328,0.045 0.048,0.006 0.089,0.039 0.139,0.047 0.06,0.01 0.141,-0.01 0.189,0 0.084,0.02 0.104,0.141 0.188,0.141 0.136,0 0.123,-0.142 0.045,-0.234 0.024,-0.094 0.081,-0.168 0.047,-0.234 -0.062,-0.124 -0.316,0.017 -0.328,-0.141 -0.008,-0.1 0.105,-0.112 0.141,-0.188 -0.016,-0.192 0.159,-0.201 0.139,-0.375 -0.01,-0.072 -0.089,-0.073 -0.139,-0.141 -0.026,-0.036 -0.017,-0.115 -0.047,-0.141 -0.104,-0.088 -0.316,-0.064 -0.328,-0.232 -0.006,-0.1 0.014,-0.175 0,-0.283 -0.014,-0.102 -0.1,-0.402 -0.188,-0.422 -0.112,-0.024 -0.194,0.172 -0.328,0.234 a 0.576,0.576 0 0 1 -0.281,0.047 c -0.048,-0.01 -0.135,-0.049 -0.141,-0.141 -0.01,-0.106 0.074,-0.122 0.094,-0.234 0.862,-0.24 1.767,-0.379 2.707,-0.379 m -4.03,0.848 c -0.029,0.411 -0.396,0.624 -0.828,0.613 -0.092,0.088 -0.044,0.253 -0.094,0.375 -0.042,0.102 -0.179,0.197 -0.281,0.189 -0.074,-0.006 -0.188,-0.119 -0.188,-0.189 0,-0.086 0.119,-0.134 0.045,-0.232 0.003,-0.021 0.03,-0.041 0.051,-0.063 a 9.92,9.92 0 0 1 1.295,-0.693 m 8.348,0.477 c -0.037,0.007 -0.057,0.026 -0.09,0.045 -0.076,0.046 -0.083,0.119 -0.141,0.141 -0.082,0.03 -0.176,0.02 -0.188,0.094 -0.01,0.062 0.049,0.083 0.047,0.139 -0.03,0.074 -0.078,0.098 -0.094,0.188 0.102,0.166 0.341,-0.009 0.467,-0.045 0.056,-0.016 0.111,-0.003 0.141,-0.047 0.034,-0.054 0.019,-0.156 0.045,-0.232 0.028,-0.084 0.104,-0.067 0.094,-0.141 -0.008,-0.074 -0.157,-0.153 -0.281,-0.141 m -10.947,1.193 c 0.097,0.05 0.261,0.275 0.074,0.355 -0.02,0.01 -0.28,0.055 -0.328,0.045 -0.039,-0.006 -0.071,-0.041 -0.104,-0.076 0.115,-0.112 0.237,-0.218 0.357,-0.324 m 0.354,0.447 c 0.048,0.002 0.085,0.09 0.141,0.094 0.054,0.004 0.109,-0.057 0.141,-0.047 0.084,0.022 0.125,0.172 0.045,0.234 -0.066,0.008 -0.091,-0.055 -0.139,-0.045 -0.136,0.024 -0.181,0.289 -0.283,0.281 -0.096,-0.01 -0.143,-0.211 -0.045,-0.281 0.002,-0.06 -0.051,-0.081 -0.047,-0.141 0.03,-0.038 0.108,-0.1 0.188,-0.094 z m -0.467,0.047 c 0.028,0 0.035,-0.012 0.045,0 -0.014,0.106 -0.057,0.139 -0.139,0.189 a 0.567,0.567 0 0 0 -0.283,0.375 c -0.014,0.054 -0.164,0.201 -0.232,0.188 -0.158,-0.034 0.058,-0.329 0.094,-0.375 0.04,-0.05 0.093,-0.085 0.139,-0.141 0.046,-0.056 0.05,-0.156 0.094,-0.188 0.048,-0.034 0.199,-0.051 0.283,-0.047 z m 14.15,0.268 c 0.063,0.07 0.128,0.138 0.189,0.209 C 39.526,26.41 39.423,26.382 39.4,26.275 m -0.611,0.02 c 0.158,-0.01 0.256,0.185 0.328,0.281 0.06,0.078 0.23,0.18 0.328,0.234 0.056,0.03 0.126,0.066 0.188,0.094 0.13,0.058 0.369,0.247 0.375,0.375 0.002,0.064 -0.055,0.129 -0.045,0.189 0.098,0.016 0.185,-0.136 0.188,-0.234 a 0.089,0.089 0 0 0 -0.018,-0.053 c 0.283,0.396 0.538,0.812 0.762,1.248 -0.088,0.026 -0.164,0.068 -0.178,0.154 -0.02,0.112 0.074,0.261 -0.094,0.281 -0.106,0.014 -0.231,-0.109 -0.377,-0.141 -0.06,-0.014 -0.14,0.016 -0.188,0 -0.11,-0.038 -0.094,-0.166 -0.188,-0.232 a 0.813,0.813 0 0 0 -0.283,-0.094 c -0.054,-0.006 -0.083,0.008 -0.139,0 C 39.38,28.389 39.27,28.384 39.214,28.35 39.16,28.316 39.04,28.255 39.026,28.209 c -0.022,-0.074 0.135,-0.17 0.139,-0.232 0.004,-0.048 -0.035,-0.069 -0.045,-0.141 -0.008,-0.044 0.01,-0.113 0,-0.141 -0.014,-0.052 -0.107,-0.092 -0.189,-0.094 -0.072,0 -0.126,0.047 -0.188,0.047 -0.088,0.002 -0.265,-0.057 -0.375,-0.047 -0.066,0.006 -0.127,0.043 -0.189,0.047 -0.174,0.014 -0.286,-0.01 -0.422,0 a 1.376,1.376 0 0 0 -0.375,0.094 c -0.046,0.022 -0.081,0.064 -0.141,0.094 a 2.186,2.186 0 0 1 -0.094,0.045 c -0.056,0.026 -0.134,0.082 -0.188,0.096 -0.078,0.02 -0.186,-0.006 -0.328,0 -0.102,0.006 -0.279,-0.019 -0.281,-0.141 -0.002,-0.186 0.34,-0.109 0.516,-0.141 0.066,-0.014 0.108,-0.093 0.188,-0.139 0.038,-0.022 0.058,-0.023 0.094,-0.047 0.06,-0.042 0.178,-0.14 0.188,-0.188 0.008,-0.044 -0.051,-0.109 -0.045,-0.141 0.008,-0.042 0.085,-0.085 0.139,-0.139 0.084,-0.084 0.13,-0.18 0.234,-0.234 0.07,-0.038 0.202,-0.038 0.234,-0.094 0.008,-0.064 -0.002,-0.083 0,-0.141 0.044,-0.04 0.058,-0.086 0.094,-0.094 0.108,-0.024 0.202,0.051 0.328,0.045 a 0.371,0.371 0 0 0 0.188,-0.045 c 0.048,-0.032 0.093,-0.07 0.141,-0.094 0.052,-0.028 0.077,-0.09 0.141,-0.094 m -12.514,0.096 h 0.002 c 0.046,-0.002 0.091,0 0.141,0 0.05,0 0.119,-0.02 0.139,0 -0.032,0.132 -0.318,0.093 -0.422,0.045 0.006,-0.05 0.077,-0.039 0.141,-0.045 m 13.314,0.096 c 0.057,0.067 0.116,0.131 0.172,0.199 -0.009,-0.005 -0.023,-0.008 -0.031,-0.014 -0.056,-0.044 -0.085,-0.118 -0.141,-0.186 M 25.808,26.62 c 0.034,0 0.06,-0.014 0.096,0 a 1.07,1.07 0 0 1 -0.377,0.188 c -0.076,0.024 -0.174,0.037 -0.188,-0.047 -0.016,-0.104 0.073,-0.084 0.141,-0.094 0.088,-0.01 0.224,-0.043 0.326,-0.045 z m 13.03,0.002 c -0.066,0.022 -0.098,0.17 0,0.188 0.046,-0.028 0.059,-0.104 0.047,-0.188 -0.026,-0.028 -0.027,-0.008 -0.047,0 m -0.045,0.281 c -0.032,0.01 -0.06,0.009 -0.094,0.045 0.002,0.112 0.022,0.185 0,0.283 0.064,0.124 0.2,0.037 0.232,-0.047 0.038,-0.208 -0.043,-0.307 -0.139,-0.281 m 0.889,0.562 c -0.088,-0.004 -0.18,0.003 -0.232,0.045 0.074,0.12 0.209,0.158 0.375,0.188 0.06,-0.044 0.066,-0.156 0.094,-0.232 -0.072,0 -0.146,0.004 -0.234,0 z m -17.572,4.119 c 0.113,0.102 0.191,0.273 0.326,0.34 0.05,0.026 0.124,0.033 0.188,0.047 0.052,0.01 0.091,0.029 0.141,0.045 0.106,0.036 0.244,0.058 0.328,0.096 0.128,0.056 0.218,0.262 0.328,0.326 0.006,0.064 -0.02,0.141 0,0.189 0.052,0.07 0.15,0.093 0.234,0.139 0.102,0.056 0.136,0.19 0.232,0.234 0.034,0.014 0.089,-0.016 0.141,0 0.132,0.04 0.169,0.221 0.283,0.188 0.074,-0.022 0.082,-0.116 0.094,-0.188 0.05,-0.054 0.11,-0.141 0.188,-0.141 0.124,-0.002 0.142,0.161 0.188,0.283 0.026,0.068 0.076,0.116 0.094,0.188 0.03,0.124 0.026,0.489 0,0.563 -0.032,0.092 -0.158,0.132 -0.234,0.232 -0.036,0.048 -0.066,0.109 -0.094,0.141 -0.048,0.06 -0.103,0.087 -0.139,0.141 -0.02,0.03 -0.029,0.097 -0.047,0.139 -0.06,0.128 -0.144,0.223 -0.094,0.377 0.02,0.062 0.094,0.114 0.094,0.188 0,0.088 -0.174,0.138 -0.188,0.234 -0.01,0.07 0.072,0.187 0.094,0.281 0.016,0.07 0.146,0.142 0.188,0.188 0.07,0.078 0.125,0.183 0.189,0.283 0.126,0.194 0.202,0.419 0.326,0.609 0.066,0.098 0.19,0.177 0.234,0.281 0.022,0.052 -0.02,0.14 0,0.188 0.072,0.162 0.401,0.342 0.563,0.422 0.076,0.038 0.164,0.056 0.234,0.096 0.106,0.06 0.321,0.187 0.375,0.281 0.048,0.084 0.07,0.288 0.094,0.422 0.03,0.176 -0.008,0.326 0,0.516 0.006,0.104 0.047,0.177 0.047,0.281 0,0.036 0.002,0.105 0,0.141 -0.002,0.124 0.01,0.249 0,0.375 a 1.19,1.19 0 0 0 0,0.189 c 0.006,0.062 0.041,0.085 0.045,0.139 0.004,0.058 -0.051,0.143 -0.045,0.189 0.014,0.126 0.117,0.21 0.141,0.326 0.02,0.092 0.057,0.312 0.045,0.422 -0.008,0.058 -0.037,0.125 -0.045,0.189 -0.006,0.05 0.008,0.093 0,0.139 a 0.714,0.714 0 0 1 -0.029,0.121 9.967,9.967 0 0 1 -4.627,-8.432 c 0,-0.479 0.045,-0.946 0.109,-1.406 m 3.891,1.096 c 0.096,-0.044 0.078,0.129 0,0.141 -0.074,0.01 -0.072,-0.107 0,-0.141"
     id="path31"
     inkscape:connector-curvature="0"
     style="color:#000000;fill:#ffffff" />
</svg>
