<?xml version="1.0" encoding="UTF-8" standalone="no"?>
<svg
   xmlns:dc="http://purl.org/dc/elements/1.1/"
   xmlns:cc="http://creativecommons.org/ns#"
   xmlns:rdf="http://www.w3.org/1999/02/22-rdf-syntax-ns#"
   xmlns:svg="http://www.w3.org/2000/svg"
   xmlns="http://www.w3.org/2000/svg"
   xmlns:xlink="http://www.w3.org/1999/xlink"
   xmlns:sodipodi="http://sodipodi.sourceforge.net/DTD/sodipodi-0.dtd"
   xmlns:inkscape="http://www.inkscape.org/namespaces/inkscape"
   width="64"
   height="64"
   version="1.1"
   id="svg29"
   sodipodi:docname="application-pgp-signature.svg"
   inkscape:version="0.92.4 (5da689c313, 2019-01-14)">
  <metadata
     id="metadata33">
    <rdf:RDF>
      <cc:Work
         rdf:about="">
        <dc:format>image/svg+xml</dc:format>
        <dc:type
           rdf:resource="http://purl.org/dc/dcmitype/StillImage" />
        <dc:title></dc:title>
      </cc:Work>
    </rdf:RDF>
  </metadata>
  <sodipodi:namedview
     pagecolor="#ffffff"
     bordercolor="#666666"
     borderopacity="1"
     objecttolerance="10"
     gridtolerance="10"
     guidetolerance="10"
     inkscape:pageopacity="0"
     inkscape:pageshadow="2"
     inkscape:window-width="848"
     inkscape:window-height="480"
     id="namedview31"
     showgrid="false"
     inkscape:zoom="3.6875"
     inkscape:cx="3.9322034"
     inkscape:cy="32"
     inkscape:window-x="0"
     inkscape:window-y="25"
     inkscape:window-maximized="0"
     inkscape:current-layer="svg29" />
  <defs
     id="defs13">
    <linearGradient
       xlink:href="#a"
       id="b"
       gradientUnits="userSpaceOnUse"
       x1="0"
       y1="60.774"
       x2="0"
       y2="2.345" />
    <linearGradient
       id="a"
       y1="392.36"
       y2="336.36"
       x2="0"
       gradientUnits="userSpaceOnUse"
       gradientTransform="translate(254 -254)">
      <stop
         stop-color="#fff"
         stop-opacity="0"
         id="stop3" />
      <stop
         offset="1"
         stop-color="#fff"
         stop-opacity=".2"
         id="stop5" />
    </linearGradient>
    <linearGradient
       id="c"
       y1="17.475"
       y2="31"
       x1="41.616"
       x2="54"
       gradientUnits="userSpaceOnUse">
      <stop
         stop-color="#060606"
         id="stop8" />
      <stop
         offset="1"
         stop-opacity="0"
         id="stop10" />
    </linearGradient>
  </defs>
  <path
     d="M 40,3 H 15 c -2.77,0 -5,2.23 -5,5 v 48 c 0,2.77 2.23,5 5,5 h 34 c 2.77,0 5,-2.23 5,-5 V 17 Z"
     id="path15"
     inkscape:connector-curvature="0"
     style="fill:#2cbd2c" />
  <path
     d="M 40,3 H 15 c -2.77,0 -5,2.23 -5,5 v 48 c 0,2.77 2.23,5 5,5 h 34 c 2.77,0 5,-2.23 5,-5 V 17 Z"
     id="path17"
     style="fill:url(#b)"
     inkscape:connector-curvature="0" />
  <path
     d="M 40,3 H 15 C 12.23,3 10,5.23 10,8 V 9.014 A 5.005,5.005 0 0 1 11.46,5.474 4.989,4.989 0 0 1 15,4.015 H 40 V 4 Z"
     id="path19"
     inkscape:connector-curvature="0"
     style="opacity:0.5;fill:#ffffff" />
  <path
     d="M 54,54.86 A 5.004,5.004 0 0 1 52.54,58.398 4.989,4.989 0 0 1 49,59.86 H 15 A 5.005,5.005 0 0 1 11.46,58.4 4.989,4.989 0 0 1 10,54.86 V 56 c 0,2.77 2.23,5 5,5 h 34 c 2.77,0 5,-2.23 5,-5 z"
     id="path21"
     inkscape:connector-curvature="0"
     style="opacity:0.25;fill-opacity:0.99199997" />
  <path
     d="M 40,3 V 14.535 A 2.456,2.456 0 0 0 42.465,17 H 54 Z"
     id="path23"
     inkscape:connector-curvature="0"
     style="opacity:0.4;fill-rule:evenodd" />
  <path
     style="color:#000000;overflow:visible;opacity:0.4;isolation:auto;mix-blend-mode:normal;solid-color:#000000;solid-opacity:1"
     d="m 41.855,19.533 a 0.757,0.757 0 0 0 -0.417,0.123 c -0.073,0.05 -0.386,0.426 -0.694,0.836 l -0.56,0.754 -0.204,-0.139 c -0.284,-0.187 -0.558,-0.229 -0.814,-0.113 -0.177,0.08 -0.591,0.615 -3.31,4.23 -1.717,2.28 -3.112,4.163 -3.108,4.192 0.004,0.024 0.7,0.568 1.543,1.201 l 1.541,1.158 2.027,-2.7 c 1.116,-1.487 2.045,-2.69 2.067,-2.673 0.072,0.054 0.203,1.22 0.178,1.596 -0.01,0.205 -0.087,0.572 -0.167,0.816 -0.14,0.437 -0.156,0.462 -2.67,3.82 -1.39,1.858 -2.547,3.435 -2.568,3.497 -0.06,0.172 0.007,0.493 0.137,0.678 0.217,0.31 0.755,0.409 1.06,0.187 0.211,-0.154 5.19,-6.855 5.348,-7.205 0.463,-0.997 0.558,-2.273 0.266,-3.53 a 8.17,8.17 0 0 0 -0.414,-1.318 c -0.043,-0.093 0.028,-0.212 0.494,-0.838 0.44,-0.597 0.54,-0.765 0.549,-0.92 0.017,-0.329 -0.084,-0.512 -0.407,-0.763 l -0.3,-0.235 0.597,-0.802 c 0.49,-0.664 0.596,-0.838 0.604,-0.992 a 0.805,0.805 0 0 0 -0.778,-0.86 z M 31.787,30.666 c -0.015,0.002 -1.843,2.432 -4.066,5.393 -3.576,4.767 -4.085,5.473 -4.414,6.08 -0.656,1.207 -1.369,3.048 -1.842,4.73 -0.307,1.079 -0.323,0.981 0.105,0.752 1.32,-0.713 3.044,-1.87 4.047,-2.72 0.981,-0.833 1.148,-1.045 5.303,-6.579 l 3.996,-5.328 -1.553,-1.166 c -0.854,-0.641 -1.561,-1.164 -1.576,-1.162 z m 0.45,12.34 a 2.315,2.315 0 0 0 -0.53,0.021 v 0.002 c -0.621,0.131 -1.312,0.67 -1.646,1.29 -0.09,0.16 -0.234,0.525 -0.323,0.8 -0.084,0.28 -0.162,0.514 -0.168,0.52 -0.048,0.06 -1.235,0.345 -1.933,0.465 -1.641,0.287 -2.09,0.394 -2.25,0.543 -0.316,0.292 -0.071,0.586 0.377,0.455 0.119,-0.036 0.626,-0.137 1.115,-0.221 0.49,-0.084 1.235,-0.24 1.658,-0.334 0.424,-0.101 0.783,-0.168 0.8,-0.15 0.019,0.018 -0.052,0.357 -0.165,0.757 l -0.203,0.717 -0.45,0.197 a 5.808,5.808 0 0 0 -0.78,0.418 c -0.562,0.37 -0.67,0.835 -0.276,1.133 0.215,0.161 0.812,0.155 1.182,-0.006 0.328,-0.149 0.512,-0.357 0.77,-0.9 0.136,-0.281 0.244,-0.43 0.327,-0.447 0.066,-0.018 0.659,-0.138 1.315,-0.276 a 79.176,79.176 0 0 0 1.33,-0.275 c 0.125,-0.03 0.137,-0.018 0.101,0.096 a 3.314,3.314 0 0 1 -0.246,0.466 c -0.113,0.185 -0.203,0.405 -0.203,0.494 0,0.185 0.156,0.37 0.281,0.323 a 0.542,0.542 0 0 1 0.143,-0.035 c 0.03,0 0.162,-0.096 0.293,-0.215 0.245,-0.221 0.836,-1.303 0.836,-1.53 0,-0.113 0.09,-0.141 0.142,-0.052 0.018,0.03 0.154,0.084 0.303,0.119 0.21,0.054 0.27,0.094 0.27,0.19 0,0.184 0.305,0.454 0.574,0.507 0.209,0.036 0.478,-0.006 0.764,-0.125 0.1,-0.042 0.107,-0.03 0.072,0.125 -0.024,0.096 -0.198,0.4 -0.383,0.682 -0.394,0.585 -0.871,1.515 -0.996,1.927 -0.101,0.352 -0.06,0.616 0.125,0.74 0.167,0.108 0.44,0.06 0.584,-0.097 0.125,-0.137 0.807,-1.574 1.057,-2.23 0.179,-0.46 0.261,-0.586 0.667,-1.016 0.334,-0.352 0.444,-0.436 0.372,-0.299 -0.12,0.257 -0.114,0.453 0.017,0.572 0.28,0.257 0.686,0.007 1.04,-0.638 0.208,-0.382 0.364,-0.495 1.14,-0.86 l 0.404,-0.185 -0.04,0.22 c -0.025,0.12 -0.163,0.46 -0.306,0.752 -0.28,0.591 -0.333,0.968 -0.166,1.29 0.113,0.22 0.233,0.228 0.782,0.037 0.764,-0.257 1.76,-0.85 2.02,-1.19 0.351,-0.478 0.46,-0.937 0.245,-1.092 -0.22,-0.16 -0.346,-0.095 -0.627,0.317 -0.376,0.56 -0.84,0.998 -1.289,1.219 -0.209,0.107 -0.394,0.178 -0.412,0.16 -0.024,-0.024 0.453,-1.307 0.71,-1.91 0.053,-0.125 0.097,-0.281 0.097,-0.346 0,-0.167 -0.21,-0.358 -0.389,-0.358 -0.084,0 -0.479,0.16 -0.873,0.364 -0.818,0.406 -0.764,0.441 -0.555,-0.323 0.125,-0.47 0.084,-0.597 -0.203,-0.627 -0.275,-0.03 -0.382,0.061 -0.633,0.508 -0.16,0.304 -0.375,0.556 -0.787,0.938 -0.543,0.5 -0.567,0.518 -0.693,0.43 -0.191,-0.138 -0.299,-0.12 -0.764,0.113 -0.454,0.227 -0.603,0.257 -0.716,0.119 -0.096,-0.113 0.054,-0.173 0.884,-0.334 0.806,-0.155 0.907,-0.198 0.907,-0.365 0,-0.27 -0.222,-0.525 -0.616,-0.698 -0.68,-0.304 -0.756,-0.323 -1.054,-0.246 -0.322,0.084 -0.8,0.543 -0.866,0.83 -0.066,0.3 -0.27,0.21 -0.27,-0.119 0,-0.137 -0.167,-0.483 -0.263,-0.543 -0.203,-0.137 -0.53,0.162 -0.781,0.711 l -0.197,0.424 -0.442,0.096 c -0.573,0.125 -2.238,0.459 -2.459,0.502 -0.143,0.024 -0.166,0.011 -0.136,-0.073 0.024,-0.06 0.095,-0.32 0.166,-0.59 0.185,-0.74 0.24,-0.836 0.507,-0.931 0.322,-0.113 1.41,-0.58 1.69,-0.723 0.13,-0.066 0.399,-0.268 0.596,-0.447 0.603,-0.56 0.697,-1.08 0.267,-1.463 a 1.85,1.85 0 0 0 -0.346,-0.238 c -0.11,-0.042 -0.3,-0.071 -0.496,-0.082 z m -0.602,0.697 c 0.083,-0.005 0.18,-0.001 0.304,0.006 0.316,0.018 0.443,0.048 0.532,0.143 0.119,0.119 0.118,0.124 0.011,0.351 -0.072,0.143 -0.238,0.311 -0.447,0.455 -0.364,0.251 -1.505,0.71 -1.54,0.627 -0.049,-0.137 0.317,-0.956 0.55,-1.219 0.232,-0.264 0.341,-0.349 0.59,-0.363 z m -3.065,4.998 c 0.046,0.003 0.047,0.043 0.008,0.117 -0.078,0.15 -0.281,0.257 -0.394,0.215 -0.131,-0.054 -0.096,-0.124 0.113,-0.232 0.137,-0.069 0.228,-0.103 0.273,-0.1 z"
     overflow="visible"
     id="path25"
     inkscape:connector-curvature="0" />
  <path
     d="M 40.73,16.283 54,31 V 17 H 42.465 c -0.68,0 -1.29,-0.276 -1.735,-0.717 z"
     id="path27"
     style="opacity:0.1;fill:url(#c);fill-rule:evenodd"
     inkscape:connector-curvature="0" />
</svg>
