<?xml version="1.0" encoding="UTF-8" standalone="no"?>
<svg
   xmlns:dc="http://purl.org/dc/elements/1.1/"
   xmlns:cc="http://creativecommons.org/ns#"
   xmlns:rdf="http://www.w3.org/1999/02/22-rdf-syntax-ns#"
   xmlns:svg="http://www.w3.org/2000/svg"
   xmlns="http://www.w3.org/2000/svg"
   xmlns:xlink="http://www.w3.org/1999/xlink"
   xmlns:sodipodi="http://sodipodi.sourceforge.net/DTD/sodipodi-0.dtd"
   xmlns:inkscape="http://www.inkscape.org/namespaces/inkscape"
   width="64"
   height="64"
   version="1.1"
   id="svg43"
   sodipodi:docname="application-x-sharedlib.svg"
   inkscape:version="0.92.4 (5da689c313, 2019-01-14)">
  <metadata
     id="metadata47">
    <rdf:RDF>
      <cc:Work
         rdf:about="">
        <dc:format>image/svg+xml</dc:format>
        <dc:type
           rdf:resource="http://purl.org/dc/dcmitype/StillImage" />
        <dc:title></dc:title>
      </cc:Work>
    </rdf:RDF>
  </metadata>
  <sodipodi:namedview
     pagecolor="#ffffff"
     bordercolor="#666666"
     borderopacity="1"
     objecttolerance="10"
     gridtolerance="10"
     guidetolerance="10"
     inkscape:pageopacity="0"
     inkscape:pageshadow="2"
     inkscape:window-width="848"
     inkscape:window-height="480"
     id="namedview45"
     showgrid="false"
     inkscape:zoom="3.6875"
     inkscape:cx="3.9322034"
     inkscape:cy="32"
     inkscape:window-x="0"
     inkscape:window-y="25"
     inkscape:window-maximized="0"
     inkscape:current-layer="svg43" />
  <defs
     id="defs13">
    <linearGradient
       xlink:href="#a"
       id="c"
       gradientUnits="userSpaceOnUse"
       x1="0"
       y1="60.774"
       x2="0"
       y2="2.345" />
    <linearGradient
       id="a"
       y1="392.36"
       y2="336.36"
       x2="0"
       gradientUnits="userSpaceOnUse"
       gradientTransform="translate(254 -254)">
      <stop
         stop-color="#fff"
         stop-opacity="0"
         id="stop3" />
      <stop
         offset="1"
         stop-color="#fff"
         stop-opacity=".2"
         id="stop5" />
    </linearGradient>
    <linearGradient
       id="b"
       y1="17.475"
       y2="31"
       x1="41.616"
       x2="54"
       gradientUnits="userSpaceOnUse">
      <stop
         stop-color="#060606"
         id="stop8" />
      <stop
         offset="1"
         stop-opacity="0"
         id="stop10" />
    </linearGradient>
  </defs>
  <path
     d="M 40,3 H 15 c -2.77,0 -5,2.23 -5,5 v 48 c 0,2.77 2.23,5 5,5 h 34 c 2.77,0 5,-2.23 5,-5 V 17 Z"
     id="path15"
     inkscape:connector-curvature="0"
     style="fill:#555555" />
  <path
     d="M 40,3 H 15 C 12.23,3 10,5.23 10,8 V 9.014 A 5.005,5.005 0 0 1 11.46,5.474 4.989,4.989 0 0 1 15,4.015 H 40 V 4 Z"
     id="path17"
     inkscape:connector-curvature="0"
     style="opacity:0.5;fill:#ffffff" />
  <path
     d="M 54,54.86 A 5.004,5.004 0 0 1 52.54,58.398 4.989,4.989 0 0 1 49,59.86 H 15 A 5.005,5.005 0 0 1 11.46,58.4 4.989,4.989 0 0 1 10,54.86 V 56 c 0,2.77 2.23,5 5,5 h 34 c 2.77,0 5,-2.23 5,-5 z"
     id="path19"
     inkscape:connector-curvature="0"
     style="opacity:0.25;fill-opacity:0.99199997" />
  <path
     d="M 40,3 V 14.535 A 2.456,2.456 0 0 0 42.465,17 H 54 Z"
     id="path21"
     inkscape:connector-curvature="0"
     style="opacity:0.5;fill:#ffffff;fill-rule:evenodd" />
  <path
     d="M 40.73,16.283 54,31 V 17 H 42.465 c -0.68,0 -1.29,-0.276 -1.735,-0.717 z"
     id="path23"
     style="opacity:0.3;fill:url(#b);fill-rule:evenodd"
     inkscape:connector-curvature="0" />
  <g
     id="g29"
     style="fill:#343434">
    <path
       d="m 28.5,33.5 v 1.102 a 5.006,5.006 0 0 0 -1.754,0.73 l -0.781,-0.781 -1.414,1.414 0.781,0.781 A 5,5 0 0 0 24.605,38.5 H 23.5 v 2 h 1.102 c 0.129,0.626 0.377,1.221 0.73,1.754 l -0.781,0.781 1.414,1.414 0.781,-0.781 A 5,5 0 0 0 28.5,44.395 V 45.5 h 2 v -1.102 a 5.006,5.006 0 0 0 1.754,-0.73 l 0.781,0.781 1.414,-1.414 -0.781,-0.781 A 5,5 0 0 0 34.395,40.5 H 35.5 v -2 h -1.102 a 5.006,5.006 0 0 0 -0.73,-1.754 l 0.781,-0.781 -1.414,-1.414 -0.781,0.781 A 5,5 0 0 0 30.5,34.605 V 33.5 Z m 1,2 A 4.001,4.001 0 1 1 29.499,43.502 4.001,4.001 0 0 1 29.5,35.5"
       id="path25"
       inkscape:connector-curvature="0" />
    <path
       d="m 22.852,22.924 0.31,1.057 c -0.564,0.3 -1.066,0.705 -1.478,1.194 l -0.969,-0.53 -0.959,1.755 0.969,0.53 a 5,5 0 0 0 -0.204,1.887 l -1.061,0.311 0.563,1.919 1.057,-0.31 c 0.3,0.564 0.705,1.066 1.194,1.478 l -0.53,0.969 1.755,0.959 0.53,-0.969 a 5,5 0 0 0 1.887,0.204 l 0.311,1.061 1.919,-0.563 -0.31,-1.057 a 5.007,5.007 0 0 0 1.478,-1.194 l 0.969,0.53 0.959,-1.755 -0.969,-0.53 a 5,5 0 0 0 0.204,-1.887 l 1.061,-0.311 -0.563,-1.919 -1.057,0.31 a 5.007,5.007 0 0 0 -1.194,-1.478 l 0.53,-0.969 -1.755,-0.959 -0.53,0.969 a 5,5 0 0 0 -1.887,-0.204 l -0.311,-1.061 z m 1.522,1.638 a 4,4 0 1 1 2.25,7.677 4,4 0 0 1 -2.25,-7.677"
       id="path27"
       inkscape:connector-curvature="0" />
  </g>
  <path
     d="m 39.09,27.431 -0.107,1.096 a 5.006,5.006 0 0 0 -1.817,0.556 l -0.702,-0.854 -1.545,1.27 0.702,0.854 a 5.001,5.001 0 0 0 -0.894,1.675 l -1.1,-0.108 -0.195,1.991 1.096,0.107 c 0.068,0.636 0.256,1.252 0.556,1.817 l -0.854,0.702 1.27,1.545 0.854,-0.702 a 5.001,5.001 0 0 0 1.675,0.894 l -0.108,1.1 1.991,0.195 0.107,-1.096 a 5.006,5.006 0 0 0 1.817,-0.556 l 0.702,0.854 1.545,-1.27 -0.702,-0.854 a 5.001,5.001 0 0 0 0.894,-1.675 l 1.1,0.108 0.195,-1.991 -1.096,-0.107 a 5.006,5.006 0 0 0 -0.556,-1.817 l 0.854,-0.702 -1.27,-1.545 -0.854,0.702 a 5.001,5.001 0 0 0 -1.675,-0.894 l 0.108,-1.1 z m 0.801,2.088 a 3.997,3.997 0 0 1 3.591,4.37 3.997,3.997 0 0 1 -4.37,3.591 3.997,3.997 0 0 1 -3.591,-4.37 3.997,3.997 0 0 1 4.37,-3.591"
     id="path31"
     inkscape:connector-curvature="0"
     style="fill:#343434" />
  <g
     id="g37"
     style="fill:#e0e0e0">
    <path
       d="m 38.589,26.931 -0.107,1.096 a 5.006,5.006 0 0 0 -1.817,0.556 l -0.702,-0.854 -1.545,1.27 0.702,0.854 a 5.001,5.001 0 0 0 -0.894,1.675 l -1.1,-0.108 -0.195,1.991 1.096,0.107 c 0.068,0.636 0.256,1.252 0.556,1.817 l -0.854,0.702 1.27,1.545 0.854,-0.702 a 5.001,5.001 0 0 0 1.675,0.894 l -0.108,1.1 1.991,0.195 0.107,-1.096 a 5.006,5.006 0 0 0 1.817,-0.556 l 0.702,0.854 1.545,-1.27 -0.702,-0.854 a 5.001,5.001 0 0 0 0.894,-1.675 l 1.1,0.108 0.195,-1.991 -1.096,-0.107 a 5.006,5.006 0 0 0 -0.556,-1.817 l 0.854,-0.702 -1.27,-1.545 -0.854,0.702 a 5.001,5.001 0 0 0 -1.675,-0.894 l 0.108,-1.1 z m 0.801,2.088 a 3.997,3.997 0 0 1 3.591,4.37 3.997,3.997 0 0 1 -4.37,3.591 3.997,3.997 0 0 1 -3.591,-4.37 3.997,3.997 0 0 1 4.37,-3.591"
       id="path33"
       inkscape:connector-curvature="0" />
    <path
       d="m 28,33 v 1.102 a 5.006,5.006 0 0 0 -1.754,0.73 l -0.781,-0.781 -1.414,1.414 0.781,0.781 A 5,5 0 0 0 24.105,38 H 23 v 2 h 1.102 c 0.129,0.626 0.377,1.221 0.73,1.754 l -0.781,0.781 1.414,1.414 0.781,-0.781 A 5,5 0 0 0 28,43.895 V 45 h 2 v -1.102 a 5.006,5.006 0 0 0 1.754,-0.73 l 0.781,0.781 1.414,-1.414 -0.781,-0.781 A 5,5 0 0 0 33.895,40 H 35 v -2 h -1.102 a 5.006,5.006 0 0 0 -0.73,-1.754 l 0.781,-0.781 -1.414,-1.414 -0.781,0.781 A 5,5 0 0 0 30,34.105 V 33 Z m 1,2 A 4.001,4.001 0 1 1 28.999,43.002 4.001,4.001 0 0 1 29,35"
       id="path35"
       inkscape:connector-curvature="0" />
  </g>
  <path
     d="m 22.352,22.524 0.31,1.057 c -0.564,0.3 -1.066,0.705 -1.478,1.194 l -0.969,-0.53 -0.959,1.755 0.969,0.53 a 5,5 0 0 0 -0.204,1.887 l -1.061,0.311 0.563,1.919 1.057,-0.31 c 0.3,0.564 0.705,1.066 1.194,1.478 l -0.53,0.969 1.755,0.959 0.53,-0.969 a 5,5 0 0 0 1.887,0.204 l 0.311,1.061 1.919,-0.563 -0.31,-1.057 a 5.007,5.007 0 0 0 1.478,-1.194 l 0.969,0.53 L 30.742,30 29.773,29.47 a 5,5 0 0 0 0.204,-1.887 l 1.061,-0.311 -0.563,-1.919 -1.057,0.31 a 5.007,5.007 0 0 0 -1.194,-1.478 l 0.53,-0.969 -1.755,-0.959 -0.53,0.969 a 5,5 0 0 0 -1.887,-0.204 l -0.311,-1.061 z m 1.522,1.638 a 4,4 0 1 1 2.25,7.677 4,4 0 0 1 -2.25,-7.677"
     id="path39"
     inkscape:connector-curvature="0"
     style="fill:#e0e0e0" />
  <path
     d="M 40,3 H 15 c -2.77,0 -5,2.23 -5,5 v 48 c 0,2.77 2.23,5 5,5 h 34 c 2.77,0 5,-2.23 5,-5 V 17 Z"
     id="path41"
     style="fill:url(#c)"
     inkscape:connector-curvature="0" />
</svg>
