<?xml version="1.0" encoding="UTF-8" standalone="no"?>
<svg
   xmlns:dc="http://purl.org/dc/elements/1.1/"
   xmlns:cc="http://creativecommons.org/ns#"
   xmlns:rdf="http://www.w3.org/1999/02/22-rdf-syntax-ns#"
   xmlns:svg="http://www.w3.org/2000/svg"
   xmlns="http://www.w3.org/2000/svg"
   xmlns:xlink="http://www.w3.org/1999/xlink"
   xmlns:sodipodi="http://sodipodi.sourceforge.net/DTD/sodipodi-0.dtd"
   xmlns:inkscape="http://www.inkscape.org/namespaces/inkscape"
   width="64"
   viewBox="0 0 64 64"
   height="64"
   id="svg2"
   version="1.1"
   inkscape:version="0.92.4 (5da689c313, 2019-01-14)"
   sodipodi:docname="image-vnd.djvu.svg">
  <metadata
     id="metadata41">
    <rdf:RDF>
      <cc:Work
         rdf:about="">
        <dc:format>image/svg+xml</dc:format>
        <dc:type
           rdf:resource="http://purl.org/dc/dcmitype/StillImage" />
        <dc:title></dc:title>
      </cc:Work>
    </rdf:RDF>
  </metadata>
  <sodipodi:namedview
     pagecolor="#ffffff"
     bordercolor="#666666"
     borderopacity="1"
     objecttolerance="10"
     gridtolerance="10"
     guidetolerance="10"
     inkscape:pageopacity="0"
     inkscape:pageshadow="2"
     inkscape:window-width="1366"
     inkscape:window-height="711"
     id="namedview39"
     showgrid="false"
     inkscape:snap-bbox="true"
     inkscape:bbox-nodes="true"
     inkscape:zoom="2.7897572"
     inkscape:cx="32"
     inkscape:cy="32"
     inkscape:current-layer="svg2"
     inkscape:window-x="0"
     inkscape:window-y="25"
     inkscape:window-maximized="1">
    <inkscape:grid
       type="xygrid"
       id="grid4272" />
  </sodipodi:namedview>
  <defs
     id="defs4">
    <linearGradient
       id="a"
       y1="3"
       y2="61"
       x2="0"
       gradientUnits="userSpaceOnUse"
       gradientTransform="matrix(1 0 0-1 0 64)">
      <stop
         stop-color="#f9b425"
         id="stop7" />
      <stop
         offset="1"
         stop-color="#f9bf3b"
         id="stop9" />
    </linearGradient>
    <linearGradient
       id="b"
       y1="61"
       y2="47"
       x2="0"
       gradientUnits="userSpaceOnUse"
       gradientTransform="matrix(1 0 0-1 0 64)">
      <stop
         stop-color="#fddda3"
         id="stop12" />
      <stop
         offset="1"
         stop-color="#fde3a7"
         id="stop14" />
    </linearGradient>
    <linearGradient
       id="c"
       y1="17"
       x1="40"
       y2="31"
       x2="54"
       gradientUnits="userSpaceOnUse">
      <stop
         stop-color="#383e51"
         id="stop17" />
      <stop
         offset="1"
         stop-color="#655c6f"
         stop-opacity="0"
         id="stop19" />
    </linearGradient>
    <linearGradient
       gradientTransform="translate(-14,-332.36)"
       gradientUnits="userSpaceOnUse"
       x2="0"
       y2="336.36"
       y1="392.36"
       id="a-3">
      <stop
         id="stop4174"
         stop-opacity="0"
         stop-color="#ffffff" />
      <stop
         id="stop4176"
         stop-opacity=".15"
         stop-color="#ffffff"
         offset="1" />
    </linearGradient>
    <path
       d="m10 3v58h44v-58h-14z"
       color="#000000"
       color-interpolation="sRGB"
       id="b-6"
       text-rendering="auto"
       image-rendering="auto"
       shape-rendering="auto"
       color-interpolation-filters="linearRGB"
       color-rendering="auto" />
    <linearGradient
       gradientTransform="translate(46.08356,0.980501)"
       gradientUnits="userSpaceOnUse"
       x2="54"
       x1="40"
       y2="31"
       y1="17"
       id="a-7">
      <stop
         id="stop4221"
         stop-color="#060606" />
      <stop
         id="stop4223"
         stop-opacity="0"
         offset="1" />
    </linearGradient>
    <linearGradient
       gradientTransform="translate(190,-254)"
       gradientUnits="userSpaceOnUse"
       x2="0"
       y2="336.36"
       y1="392.36"
       id="b-5">
      <stop
         id="stop4226"
         stop-opacity="0"
         stop-color="#ffffff" />
      <stop
         id="stop4228"
         stop-opacity=".2"
         stop-color="#ffffff"
         offset="1" />
    </linearGradient>
    <path
       d="m248 139.36v-58h30l14 14v44h-14z"
       id="c-3" />
    <linearGradient
       inkscape:collect="always"
       xlink:href="#a-36"
       id="linearGradient865"
       x1="-50"
       y1="61"
       x2="-50"
       y2="3"
       gradientUnits="userSpaceOnUse"
       gradientTransform="translate(60)" />
    <linearGradient
       id="a-36"
       y1="392.35999"
       y2="336.35999"
       x2="0"
       gradientUnits="userSpaceOnUse"
       gradientTransform="translate(-14,-332.36)">
      <stop
         stop-color="#ffffff"
         stop-opacity="0"
         id="stop2" />
      <stop
         offset="1"
         stop-color="#ffffff"
         stop-opacity=".15"
         id="stop4" />
    </linearGradient>
  </defs>
  <path
     style="opacity:1;fill:#209ae7;fill-opacity:1;fill-rule:nonzero;stroke:none;stroke-width:2;stroke-linejoin:miter;stroke-miterlimit:4;stroke-dasharray:none;stroke-opacity:1"
     d="M 10,3 V 9.7832031 54.216797 61 H 16.7832 28.14648 47.2168 C 50.97474,61 54,57.974739 54,54.216797 V 9.7832031 C 54,6.0252605 50.97474,3 47.2168,3 H 28.14648 16.7832 Z"
     id="rect839"
     inkscape:connector-curvature="0" />
  <path
     d="m 23,19 v 22 h 1.375 c 6.875,0 13.75,0 20.625,0 0,-6.417 0,-12.833 0,-19.25 V 19 h -1 v 1 h -2 v -1 h -2 v 1 h -2 v -1 h -2 v 1 h -3 v -1 h -2 v 1 h -3 v -1 h -2 v 1 h -2 v -1 z m 1,3 h 20 c 0,6.07 0,12.198 0,18 -6.417,0 -13.583,0 -20,0 0,-5.5 0,-12.5 0,-18 m 3,4 v 1 h 14 v -1 z m 0,4 v 1 h 8 v -1 z m 0,4 v 1 h 11 v -1 z m 11,3 v 1 h 3 v -1 z"
     id="path35"
     style="color:#000000;clip-rule:nonzero;display:inline;overflow:visible;visibility:visible;opacity:0.8;isolation:auto;mix-blend-mode:normal;color-interpolation:sRGB;color-interpolation-filters:linearRGB;solid-color:#000000;solid-opacity:1;fill:#ffffff;fill-opacity:1;fill-rule:nonzero;stroke-width:1;stroke-linecap:butt;stroke-linejoin:miter;stroke-miterlimit:4;stroke-dasharray:none;stroke-dashoffset:0;stroke-opacity:1;color-rendering:auto;image-rendering:auto;shape-rendering:auto;text-rendering:auto;enable-background:accumulate"
     inkscape:connector-curvature="0" />
  <rect
     style="fill:#ffffff;fill-opacity:0.25200004"
     width="1"
     x="16"
     y="4"
     height="56"
     id="rect22" />
  <rect
     style="color:#000000;color-interpolation:sRGB;color-interpolation-filters:linearRGB;fill-opacity:0.08299997;color-rendering:auto;image-rendering:auto;shape-rendering:auto;text-rendering:auto"
     x="17"
     y="4"
     width="1"
     height="56"
     id="rect24" />
  <path
     style="opacity:0.25;fill:#000000;fill-opacity:1;fill-rule:nonzero;stroke:none;stroke-width:2;stroke-linejoin:miter;stroke-miterlimit:4;stroke-dasharray:none;stroke-opacity:1"
     d="m 54,53.202941 c 0,3.757942 -3.02526,6.783203 -6.7832,6.783203 H 28.146484 16.783203 10 v 1.013672 H 16.783203 28.146484 47.2168 c 3.75794,0 6.7832,-3.025261 6.7832,-6.783203 z"
     id="rect839-6"
     inkscape:connector-curvature="0" />
  <path
     style="opacity:0.5;fill:#ffffff;fill-opacity:1;fill-rule:nonzero;stroke:none;stroke-width:2;stroke-linejoin:miter;stroke-miterlimit:4;stroke-dasharray:none;stroke-opacity:1"
     d="M 10,3 V 4.0136719 H 16.783203 28.146484 47.2168 c 3.75794,0 6.7832,3.0252592 6.7832,6.7832031 V 9.783203 C 54,6.0252605 50.97474,3 47.2168,3 H 28.146484 16.783203 Z"
     id="path891"
     inkscape:connector-curvature="0" />
  <path
     style="opacity:1;fill:url(#linearGradient865);fill-opacity:1;fill-rule:nonzero;stroke:none;stroke-width:2;stroke-linejoin:miter;stroke-miterlimit:4;stroke-dasharray:none;stroke-opacity:1"
     d="M 10,3 V 9.783203 54.216797 61 H 16.7832 28.14648 47.2168 C 50.97474,61 54,57.974739 54,54.216797 V 9.783203 C 54,6.02526 50.97474,3 47.2168,3 H 28.14648 16.7832 Z"
     id="rect839-3"
     inkscape:connector-curvature="0" />
</svg>
