<?xml version="1.0" encoding="UTF-8" standalone="no"?>
<svg
   xmlns:dc="http://purl.org/dc/elements/1.1/"
   xmlns:cc="http://creativecommons.org/ns#"
   xmlns:rdf="http://www.w3.org/1999/02/22-rdf-syntax-ns#"
   xmlns:svg="http://www.w3.org/2000/svg"
   xmlns="http://www.w3.org/2000/svg"
   xmlns:xlink="http://www.w3.org/1999/xlink"
   xmlns:sodipodi="http://sodipodi.sourceforge.net/DTD/sodipodi-0.dtd"
   xmlns:inkscape="http://www.inkscape.org/namespaces/inkscape"
   width="64"
   height="64"
   version="1.1"
   id="svg33"
   sodipodi:docname="text-csv.svg"
   inkscape:version="0.92.4 (5da689c313, 2019-01-14)">
  <metadata
     id="metadata37">
    <rdf:RDF>
      <cc:Work
         rdf:about="">
        <dc:format>image/svg+xml</dc:format>
        <dc:type
           rdf:resource="http://purl.org/dc/dcmitype/StillImage" />
        <dc:title></dc:title>
      </cc:Work>
    </rdf:RDF>
  </metadata>
  <sodipodi:namedview
     pagecolor="#ffffff"
     bordercolor="#666666"
     borderopacity="1"
     objecttolerance="10"
     gridtolerance="10"
     guidetolerance="10"
     inkscape:pageopacity="0"
     inkscape:pageshadow="2"
     inkscape:window-width="848"
     inkscape:window-height="480"
     id="namedview35"
     showgrid="false"
     inkscape:zoom="3.6875"
     inkscape:cx="3.9322034"
     inkscape:cy="32"
     inkscape:window-x="0"
     inkscape:window-y="25"
     inkscape:window-maximized="0"
     inkscape:current-layer="svg33" />
  <defs
     id="defs19">
    <linearGradient
       id="a"
       y1="61"
       y2="3"
       x2="0"
       gradientUnits="userSpaceOnUse"
       gradientTransform="matrix(1 0 0 -1 0 64)">
      <stop
         stop-color="#26c281"
         id="stop2" />
      <stop
         offset="1"
         stop-color="#3fc380"
         id="stop4" />
    </linearGradient>
    <linearGradient
       id="b"
       y1="61"
       y2="47"
       x2="0"
       gradientUnits="userSpaceOnUse"
       gradientTransform="matrix(1 0 0 -1 0 64)">
      <stop
         stop-color="#036b53"
         id="stop7" />
      <stop
         offset="1"
         stop-color="#036b53"
         id="stop9" />
    </linearGradient>
    <linearGradient
       id="e"
       y1="17.475"
       y2="31"
       x1="41.616"
       x2="54"
       gradientUnits="userSpaceOnUse">
      <stop
         stop-color="#060606"
         id="stop12" />
      <stop
         offset="1"
         stop-opacity="0"
         id="stop14" />
    </linearGradient>
    <linearGradient
       xlink:href="#a"
       id="c"
       x1="10"
       y1="3"
       x2="10"
       y2="61"
       gradientUnits="userSpaceOnUse"
       gradientTransform="translate(-40)" />
    <linearGradient
       xlink:href="#b"
       id="d"
       x1="40"
       y1="17"
       x2="40"
       y2="3"
       gradientUnits="userSpaceOnUse"
       gradientTransform="translate(-40)" />
  </defs>
  <path
     d="M 40,3 H 15 c -2.77,0 -5,2.23 -5,5 v 48 c 0,2.77 2.23,5 5,5 h 34 c 2.77,0 5,-2.23 5,-5 V 17 Z"
     id="path21"
     style="fill:url(#c)"
     inkscape:connector-curvature="0" />
  <path
     d="m 21,22 v 22 h 14 v -1 h -7 v -3 h 7 V 39 H 28 V 36 H 43 V 22 Z m 1,1 h 20 v 4 H 22 Z m 0,5 h 5 v 3 h -5 z m 6,0 h 8 v 3 h -8 z m 9,0 h 5 v 3 h -5 z m -15,4 h 5 v 3 h -5 z m 6,0 h 8 v 3 h -8 z m 9,0 h 5 v 3 h -5 z m -15,4 h 5 v 3 h -5 z m 18,1 c -1.108,0 -2,0.892 -2,2 a 1.99,1.99 0 0 0 1.883,1.988 c 0.077,0.366 0.116,0.738 0.117,1.111 A 5.482,5.482 0 0 1 39.656,43.995 5.5,5.5 0 0 0 42,39.499 v -0.5 c 0,-1.108 -0.892,-2 -2,-2 m -18,3 h 5 v 3 h -5 z"
     id="path23"
     inkscape:connector-curvature="0"
     style="color:#000000;fill:#036b53" />
  <path
     d="M 40,3 H 15 C 12.23,3 10,5.23 10,8 V 9.014 A 5.005,5.005 0 0 1 11.46,5.474 4.989,4.989 0 0 1 15,4.015 H 40 V 4 Z"
     id="path25"
     inkscape:connector-curvature="0"
     style="opacity:0.5;fill:#ffffff" />
  <path
     d="M 54,54.86 A 5.004,5.004 0 0 1 52.54,58.398 4.989,4.989 0 0 1 49,59.86 H 15 A 5.005,5.005 0 0 1 11.46,58.4 4.989,4.989 0 0 1 10,54.86 V 56 c 0,2.77 2.23,5 5,5 h 34 c 2.77,0 5,-2.23 5,-5 z"
     id="path27"
     inkscape:connector-curvature="0"
     style="opacity:0.25;fill-opacity:0.99199997" />
  <path
     d="M 40,3 V 14.535 A 2.456,2.456 0 0 0 42.465,17 H 54 Z"
     id="path29"
     style="fill:url(#d);fill-rule:evenodd"
     inkscape:connector-curvature="0" />
  <path
     d="M 40.73,16.283 54,31 V 17 H 42.465 c -0.68,0 -1.29,-0.276 -1.735,-0.717 z"
     id="path31"
     style="opacity:0.2;fill:url(#e);fill-rule:evenodd"
     inkscape:connector-curvature="0" />
</svg>
