<?xml version="1.0" encoding="UTF-8" standalone="no"?>
<svg
   xmlns:dc="http://purl.org/dc/elements/1.1/"
   xmlns:cc="http://creativecommons.org/ns#"
   xmlns:rdf="http://www.w3.org/1999/02/22-rdf-syntax-ns#"
   xmlns:svg="http://www.w3.org/2000/svg"
   xmlns="http://www.w3.org/2000/svg"
   xmlns:xlink="http://www.w3.org/1999/xlink"
   xmlns:sodipodi="http://sodipodi.sourceforge.net/DTD/sodipodi-0.dtd"
   xmlns:inkscape="http://www.inkscape.org/namespaces/inkscape"
   width="64"
   height="64"
   version="1.1"
   id="svg29"
   sodipodi:docname="text-rust.svg"
   inkscape:version="0.92.4 (5da689c313, 2019-01-14)">
  <metadata
     id="metadata33">
    <rdf:RDF>
      <cc:Work
         rdf:about="">
        <dc:format>image/svg+xml</dc:format>
        <dc:type
           rdf:resource="http://purl.org/dc/dcmitype/StillImage" />
        <dc:title></dc:title>
      </cc:Work>
    </rdf:RDF>
  </metadata>
  <sodipodi:namedview
     pagecolor="#ffffff"
     bordercolor="#666666"
     borderopacity="1"
     objecttolerance="10"
     gridtolerance="10"
     guidetolerance="10"
     inkscape:pageopacity="0"
     inkscape:pageshadow="2"
     inkscape:window-width="848"
     inkscape:window-height="480"
     id="namedview31"
     showgrid="false"
     inkscape:zoom="3.6875"
     inkscape:cx="3.9322034"
     inkscape:cy="32"
     inkscape:window-x="0"
     inkscape:window-y="25"
     inkscape:window-maximized="0"
     inkscape:current-layer="svg29" />
  <defs
     id="defs13">
    <linearGradient
       xlink:href="#a"
       id="b"
       gradientUnits="userSpaceOnUse"
       x1="0"
       y1="60.774"
       x2="0"
       y2="2.345" />
    <linearGradient
       id="a"
       y1="392.36"
       y2="336.36"
       x2="0"
       gradientUnits="userSpaceOnUse"
       gradientTransform="translate(254 -254)">
      <stop
         stop-color="#fff"
         stop-opacity="0"
         id="stop3" />
      <stop
         offset="1"
         stop-color="#fff"
         stop-opacity=".2"
         id="stop5" />
    </linearGradient>
    <linearGradient
       id="c"
       y1="17.475"
       y2="31"
       x1="41.616"
       x2="54"
       gradientUnits="userSpaceOnUse">
      <stop
         stop-color="#060606"
         id="stop8" />
      <stop
         offset="1"
         stop-opacity="0"
         id="stop10" />
    </linearGradient>
  </defs>
  <path
     d="M 40,3 H 15 c -2.77,0 -5,2.23 -5,5 v 48 c 0,2.77 2.23,5 5,5 h 34 c 2.77,0 5,-2.23 5,-5 V 17 Z"
     id="path15"
     inkscape:connector-curvature="0"
     style="fill:#8542c2" />
  <path
     d="m 21,25 v 3.373 h 4 v 11.249 h -4 v 3.355 c 0,0 7.112,0.02 11,0.02 v -3.375 h -4 v -4.5 l 5.03,-0.03 c 0.3,-0.002 1.332,0.477 2.223,2.194 0.423,0.947 1.16,2.287 1.528,2.928 0.433,0.672 1.252,2.783 2.099,2.783 1.818,-0.014 2.428,-10e-4 4.119,-10e-4 v -3.821 c -0.251,0.175 -0.725,0.412 -1,0.447 -1.206,0.008 -1.689,-0.663 -2.119,-1.537 -0.661,-2.047 -1.851,-3.739 -2.881,-4.65 1.277,-0.91 3.958,-0.669 4.03,-4.068 -0.066,-3.035 -2.066,-4.364 -4.519,-4.368 -5.185,0.028 -10.38,-10e-4 -15.507,-10e-4 z m 7,3.373 h 5.732 c 0.798,0 1.833,0.6 1.833,1.726 0,0.935 -0.758,1.649 -1.978,1.649 H 28 Z"
     style="color:#4d4d4d;overflow:visible;opacity:0.7;isolation:auto;mix-blend-mode:normal;solid-color:#000000;solid-opacity:1"
     overflow="visible"
     id="path17"
     inkscape:connector-curvature="0" />
  <path
     d="M 40,3 H 15 c -2.77,0 -5,2.23 -5,5 v 48 c 0,2.77 2.23,5 5,5 h 34 c 2.77,0 5,-2.23 5,-5 V 17 Z"
     id="path19"
     style="fill:url(#b)"
     inkscape:connector-curvature="0" />
  <path
     d="M 40,3 H 15 C 12.23,3 10,5.23 10,8 V 9.014 A 5.005,5.005 0 0 1 11.46,5.474 4.989,4.989 0 0 1 15,4.015 H 40 V 4 Z"
     id="path21"
     inkscape:connector-curvature="0"
     style="opacity:0.5;fill:#ffffff" />
  <path
     d="M 54,54.86 A 5.004,5.004 0 0 1 52.54,58.398 4.989,4.989 0 0 1 49,59.86 H 15 A 5.005,5.005 0 0 1 11.46,58.4 4.989,4.989 0 0 1 10,54.86 V 56 c 0,2.77 2.23,5 5,5 h 34 c 2.77,0 5,-2.23 5,-5 z"
     id="path23"
     inkscape:connector-curvature="0"
     style="opacity:0.25;fill-opacity:0.99199997" />
  <path
     d="M 40,3 V 14.535 A 2.456,2.456 0 0 0 42.465,17 H 54 Z"
     id="path25"
     inkscape:connector-curvature="0"
     style="opacity:0.6;fill-rule:evenodd" />
  <path
     d="M 40.73,16.283 54,31 V 17 H 42.465 c -0.68,0 -1.29,-0.276 -1.735,-0.717 z"
     id="path27"
     style="opacity:0.2;fill:url(#c);fill-rule:evenodd"
     inkscape:connector-curvature="0" />
</svg>
