<?xml version="1.0" encoding="UTF-8" standalone="no"?>
<svg
   xmlns:dc="http://purl.org/dc/elements/1.1/"
   xmlns:cc="http://creativecommons.org/ns#"
   xmlns:rdf="http://www.w3.org/1999/02/22-rdf-syntax-ns#"
   xmlns:svg="http://www.w3.org/2000/svg"
   xmlns="http://www.w3.org/2000/svg"
   xmlns:xlink="http://www.w3.org/1999/xlink"
   xmlns:sodipodi="http://sodipodi.sourceforge.net/DTD/sodipodi-0.dtd"
   xmlns:inkscape="http://www.inkscape.org/namespaces/inkscape"
   width="64"
   height="64"
   version="1.1"
   id="svg27"
   sodipodi:docname="text-x-qml.svg"
   inkscape:version="0.92.4 (5da689c313, 2019-01-14)">
  <metadata
     id="metadata31">
    <rdf:RDF>
      <cc:Work
         rdf:about="">
        <dc:format>image/svg+xml</dc:format>
        <dc:type
           rdf:resource="http://purl.org/dc/dcmitype/StillImage" />
        <dc:title></dc:title>
      </cc:Work>
    </rdf:RDF>
  </metadata>
  <sodipodi:namedview
     pagecolor="#ffffff"
     bordercolor="#666666"
     borderopacity="1"
     objecttolerance="10"
     gridtolerance="10"
     guidetolerance="10"
     inkscape:pageopacity="0"
     inkscape:pageshadow="2"
     inkscape:window-width="848"
     inkscape:window-height="480"
     id="namedview29"
     showgrid="false"
     inkscape:zoom="3.6875"
     inkscape:cx="3.9322034"
     inkscape:cy="32"
     inkscape:window-x="0"
     inkscape:window-y="25"
     inkscape:window-maximized="0"
     inkscape:current-layer="svg27" />
  <defs
     id="defs13">
    <linearGradient
       id="a"
       y1="68.42"
       y2="-3.454"
       x1="3.116"
       x2="61.689"
       gradientUnits="userSpaceOnUse"
       gradientTransform="matrix(.5 0 0 -.48276 -69.033 54.17)">
      <stop
         stop-color="#66b036"
         id="stop2" />
      <stop
         offset="1"
         stop-color="#239161"
         id="stop4" />
    </linearGradient>
    <linearGradient
       id="c"
       y1="17.475"
       y2="31"
       x1="41.616"
       x2="54"
       gradientUnits="userSpaceOnUse">
      <stop
         stop-color="#060606"
         id="stop7" />
      <stop
         offset="1"
         stop-opacity="0"
         id="stop9" />
    </linearGradient>
    <linearGradient
       xlink:href="#a"
       id="b"
       x1="10"
       y1="3"
       x2="10"
       y2="61"
       gradientUnits="userSpaceOnUse"
       gradientTransform="translate(-40)" />
  </defs>
  <path
     d="M 40,3 H 15 c -2.77,0 -5,2.23 -5,5 v 48 c 0,2.77 2.23,5 5,5 h 34 c 2.77,0 5,-2.23 5,-5 V 17 Z"
     id="path15"
     style="fill:url(#b)"
     inkscape:connector-curvature="0" />
  <path
     d="M 20,23 V 44 H 44 V 23 Z m 18.5,1 A 0.5,0.5 0 0 1 39,24.5 0.5,0.5 0 0 1 38.5,25 0.5,0.5 0 0 1 38,24.5 0.5,0.5 0 0 1 38.5,24 Z m 2,0 A 0.5,0.5 0 0 1 41,24.5 0.5,0.5 0 0 1 40.5,25 0.5,0.5 0 0 1 40,24.5 0.5,0.5 0 0 1 40.5,24 Z m 2,0 A 0.5,0.5 0 0 1 43,24.5 0.5,0.5 0 0 1 42.5,25 0.5,0.5 0 0 1 42,24.5 0.5,0.5 0 0 1 42.5,24 Z M 21,26 h 22 v 2 H 21 Z m 0,3 h 5 v 14 h -5 z m 6,0 H 43 V 43 H 27 Z"
     style="color:#000000;overflow:visible;opacity:0.7;isolation:auto;mix-blend-mode:normal;solid-color:#000000;solid-opacity:1;fill:#e3f5df"
     overflow="visible"
     id="path17"
     inkscape:connector-curvature="0" />
  <path
     d="M 40,3 H 15 C 12.23,3 10,5.23 10,8 V 9.014 A 5.005,5.005 0 0 1 11.46,5.474 4.989,4.989 0 0 1 15,4.015 H 40 V 4 Z"
     id="path19"
     inkscape:connector-curvature="0"
     style="opacity:0.5;fill:#ffffff" />
  <path
     d="M 54,54.86 A 5.004,5.004 0 0 1 52.54,58.398 4.989,4.989 0 0 1 49,59.86 H 15 A 5.005,5.005 0 0 1 11.46,58.4 4.989,4.989 0 0 1 10,54.86 V 56 c 0,2.77 2.23,5 5,5 h 34 c 2.77,0 5,-2.23 5,-5 z"
     id="path21"
     inkscape:connector-curvature="0"
     style="opacity:0.25;fill-opacity:0.99199997" />
  <path
     d="M 40,3 V 14.535 A 2.456,2.456 0 0 0 42.465,17 H 54 Z"
     id="path23"
     inkscape:connector-curvature="0"
     style="opacity:0.6;fill:#ffffff;fill-rule:evenodd" />
  <path
     d="M 40.73,16.283 54,31 V 17 H 42.465 c -0.68,0 -1.29,-0.276 -1.735,-0.717 z"
     id="path25"
     style="opacity:0.2;fill:url(#c);fill-rule:evenodd"
     inkscape:connector-curvature="0" />
</svg>
