<?xml version="1.0" encoding="UTF-8" standalone="no"?>
<svg
   xmlns:dc="http://purl.org/dc/elements/1.1/"
   xmlns:cc="http://creativecommons.org/ns#"
   xmlns:rdf="http://www.w3.org/1999/02/22-rdf-syntax-ns#"
   xmlns:svg="http://www.w3.org/2000/svg"
   xmlns="http://www.w3.org/2000/svg"
   xmlns:xlink="http://www.w3.org/1999/xlink"
   xmlns:sodipodi="http://sodipodi.sourceforge.net/DTD/sodipodi-0.dtd"
   xmlns:inkscape="http://www.inkscape.org/namespaces/inkscape"
   width="64"
   viewBox="0 0 64 64"
   height="64"
   version="1.1"
   id="svg29"
   sodipodi:docname="virtualbox-ovf.svg"
   inkscape:version="0.92.4 (5da689c313, 2019-01-14)">
  <metadata
     id="metadata33">
    <rdf:RDF>
      <cc:Work
         rdf:about="">
        <dc:format>image/svg+xml</dc:format>
        <dc:type
           rdf:resource="http://purl.org/dc/dcmitype/StillImage" />
        <dc:title></dc:title>
      </cc:Work>
    </rdf:RDF>
  </metadata>
  <sodipodi:namedview
     pagecolor="#ffffff"
     bordercolor="#666666"
     borderopacity="1"
     objecttolerance="10"
     gridtolerance="10"
     guidetolerance="10"
     inkscape:pageopacity="0"
     inkscape:pageshadow="2"
     inkscape:window-width="1366"
     inkscape:window-height="711"
     id="namedview31"
     showgrid="false"
     inkscape:zoom="7.890625"
     inkscape:cx="31.873267"
     inkscape:cy="32"
     inkscape:window-x="0"
     inkscape:window-y="25"
     inkscape:window-maximized="1"
     inkscape:current-layer="svg29" />
  <defs
     id="defs13">
    <linearGradient
       gradientTransform="matrix(1.35 0 0 1.3-519.57-646.94)"
       gradientUnits="userSpaceOnUse"
       x2="0"
       y2="512.8"
       y1="543.8"
       id="linearGradient863">
      <stop
         offset="0"
         stop-color="#f89406"
         id="stop861" />
      <stop
         stop-color="#f39c12"
         id="stop859"
         offset="1" />
    </linearGradient>
    <linearGradient
       id="a"
       y1="543.8"
       y2="512.8"
       x2="0"
       gradientUnits="userSpaceOnUse"
       gradientTransform="matrix(1.35 0 0 1.3-519.57-646.94)">
      <stop
         stop-color="#f39c12"
         id="stop2" />
      <stop
         offset="1"
         stop-color="#f89406"
         id="stop4" />
    </linearGradient>
    <linearGradient
       xlink:href="#a"
       id="b"
       y1="512.8"
       y2="503.8"
       x2="0"
       gradientUnits="userSpaceOnUse"
       gradientTransform="matrix(1.35 0 0 1.3-519.57-646.94)" />
    <linearGradient
       id="c"
       y1="8"
       y2="25.527"
       x2="0"
       gradientUnits="userSpaceOnUse">
      <stop
         stop-color="#fddda3"
         id="stop8" />
      <stop
         offset="1"
         stop-color="#fde3a7"
         id="stop10" />
    </linearGradient>
    <linearGradient
       inkscape:collect="always"
       xlink:href="#linearGradient863"
       id="linearGradient856"
       x1="-35"
       y1="19"
       x2="-34.988117"
       y2="59.777229"
       gradientUnits="userSpaceOnUse"
       gradientTransform="translate(40)" />
    <linearGradient
       gradientTransform="matrix(1.35,0,0,1.3,-519.57,-646.94)"
       gradientUnits="userSpaceOnUse"
       x2="0"
       y2="512.79999"
       y1="543.79999"
       id="linearGradient862">
      <stop
         offset="0"
         stop-color="#9b59b6"
         id="stop860" />
      <stop
         stop-color="#8e44ad"
         id="stop858"
         offset="1" />
    </linearGradient>
  </defs>
  <path
     style="opacity:1;fill:url(#linearGradient856);fill-opacity:1;fill-rule:nonzero;stroke:none;stroke-width:2;stroke-linejoin:miter;stroke-miterlimit:4;stroke-dasharray:none;stroke-opacity:1"
     d="m 5,19 v 4.943359 14.384766 16.728516 C 5,57.794827 7.205173,60 9.943359,60 H 54.056641 C 56.794827,60 59,57.794827 59,55.056641 V 38.328125 23.943359 19 H 54.056641 9.943359 Z"
     id="rect843"
     inkscape:connector-curvature="0" />
  <path
     fill="url(#b)"
     fill-rule="evenodd"
     d="m5 19l8.1-11h39.15l6.75 11z"
     id="path17" />
  <path
     stroke-opacity=".55"
     fill="url(#c)"
     stroke-width="2.8"
     d="m28.1 8v17.495l1.3-.437 1.3.437 1.3-.437 1.3.437 1.3-.437 1.3.437v-17.495z"
     id="path19" />
  <path
     fill="#fddda3"
     color-rendering="auto"
     color-interpolation-filters="linearRGB"
     shape-rendering="auto"
     image-rendering="auto"
     text-rendering="auto"
     color-interpolation="sRGB"
     color="#4d4d4d"
     d="m9 32v22h22v-22zm1 1h20v2h-20zm0 3h1v4h-1zm2 0h1v4h-1zm2 0h1v4h-1zm2 0h1v4h-1zm2 0h1v4h-1zm2 0h1v4h-1zm2 0h1v4h-1zm2 0h1v4h-1zm2 1h4v1h-4zm-16 4h20v4h-20zm0 5h1v4h-1zm2 0h1v4h-1zm2 0h1v4h-1zm2 0h1v4h-1zm2 0h1v4h-1zm2 0h1v4h-1zm2 0h1v4h-1zm2 0h1v4h-1zm2 1h4v1h-4zm-16 4h20v2h-20z"
     id="path21" />
  <rect
     style="fill:#ffffff;fill-opacity:0.41199999"
     id="rect25"
     height="1"
     y="-20"
     x="5"
     width="54"
     transform="scale(1,-1)" />
  <path
     style="opacity:1;fill:#2e3132;fill-opacity:0.29411765;fill-rule:nonzero;stroke:none;stroke-width:2;stroke-linejoin:miter;stroke-miterlimit:4;stroke-dasharray:none;stroke-opacity:1"
     d="m 59,53.916016 c 0,0.684546 -0.1372,1.335942 -0.38672,1.927734 -0.24952,0.591792 -0.61181,1.123529 -1.05859,1.570312 -0.44679,0.446784 -0.97852,0.809075 -1.57031,1.058594 -0.5918,0.249519 -1.24319,0.386719 -1.92774,0.386719 H 9.943359 c -0.684546,0 -1.335942,-0.1372 -1.927734,-0.386719 C 7.423833,58.223137 6.892096,57.860846 6.445312,57.414062 5.998529,56.967279 5.636238,56.435542 5.386719,55.84375 5.1372,55.251958 5,54.600562 5,53.916016 v 1.140625 C 5,57.794827 7.205173,60 9.943359,60 H 54.05664 C 56.79483,60 59,57.794827 59,55.056641 Z"
     id="path908"
     inkscape:connector-curvature="0" />
</svg>
