<svg xmlns="http://www.w3.org/2000/svg" viewBox="0 0 22 22" id="svg6">
  <defs id="defs3051">
    <style type="text/css" id="current-color-scheme">
      .ColorScheme-Text {
        color:#eff0f1;
      }
      </style>
  </defs>
 <path 
    style="fill:currentColor;fill-opacity:1;stroke:none" 
    d="M5.58 3.078A2.515 2.515 0 0 0 3.078 5.58v10.84a2.515 2.515 0 0 0 2.502 2.502H10v-.834H5.58a1.664 1.664 0 0 1-1.668-1.668V9.873h2.961v-.008l.008.008 2-2h9.207V10h.834V7.297a2.515 2.515 0 0 0-2.502-2.502h-4.617l-.883-.883-.434-.433-.4-.4H5.58zm0 .834h3.918l.965.965-4.02 3.996h-2.53V5.58c0-.924.743-1.668 1.667-1.668zM13 11v1h-1.018a.98.98 0 0 0-.982.982v5.036a.98.98 0 0 0 .982.982h6.036a.98.98 0 0 0 .982-.982v-5.036a.98.98 0 0 0-.982-.982H17v-1h-4zm-1.18 1.852h6.36v5.296h-6.36v-5.296zm1.06 1.058v1.06h4.24v-1.06h-4.24zm0 2.12v1.06H15v-1.06h-2.12z"
    class="ColorScheme-Text"
    />  
</svg>
