<svg xmlns="http://www.w3.org/2000/svg" xmlns:xlink="http://www.w3.org/1999/xlink" width="48" height="48">
  <defs id="acyl-settings">
    <linearGradient id="acyl-gradient" x1="0%" x2="0%" y1="0%" y2="100%">
      <stop offset="100%" style="stop-color:#A0A0A0;stop-opacity:1.000000"/>
    </linearGradient>
    <g id="acyl-filter">
  </g>
    <g id="acyl-drawing">
      <path d="M 5.6875,4 C 4.7597011,4 4,4.9131215 4,6.03125 L 4,10 14.5,10 16.0625,11.6875 44,11.688 44,8.03125 C 44,6.9131197 43.240298,6 42.3125,6 L 16.4375,6 14.96875,4 5.6875,4 z m 0.90625,2 8.8125,0 1.40625,1.90625 24.59375,0 C 42.287658,7.90625 43,8.7548092 43,9.8125 L 43,9.781 16.4375,9.78125 14.96875,8 5,8 5,7.90625 C 5,6.8485609 5.7123408,6 6.59375,6 z m -2.75,6 C 2.823171,12 2,12.717379 2,13.59375 l 0,25.8125 C 2,40.282623 2.823171,41 3.84375,41 l 40.3125,0 C 45.176828,41 46,40.282623 46,39.40625 l 0,-24.25 C 46,14.279879 45.176828,13.5625 44.15625,13.5625 l -28.46875,0 L 14.0625,12 3.84375,12 z" id="path-main"/>
    </g>
  </defs>
  <g id="acyl-visual">
    <use id="visible1" style="fill:url(#acyl-gradient)" xlink:href="#acyl-drawing"/>
  </g>
</svg>
