<svg xmlns="http://www.w3.org/2000/svg" xmlns:xlink="http://www.w3.org/1999/xlink" width="48" height="48">
  <defs id="acyl-settings">
    <linearGradient id="acyl-gradient" x1="0%" x2="0%" y1="0%" y2="100%">
      <stop offset="100%" style="stop-color:#A0A0A0;stop-opacity:1.000000"/>
    </linearGradient>
    <g id="acyl-filter">
  </g>
    <g id="acyl-drawing">
      <path d="M 24 2 C 11.856 2 2 11.856002 2 24 C 2 36.143997 11.856 46 24 46 C 36.144001 46 46 36.143997 46 24 C 46 11.856002 36.144001 2 24 2 z M 24 3 L 24 14.71875 C 27.764727 14.71875 30.98466 16.993733 32.4375 20.21875 L 43.1875 15.4375 C 47.913621 26.02886 43.15386 38.461379 32.5625 43.1875 C 21.97114 47.913621 9.538621 43.15386 4.8125 32.5625 C 0.086379025 21.97114 4.8461396 9.538621 15.4375 4.8125 C 18.130361 3.6108805 21.051206 3.0000008 24 3 z M 24 16.03125 L 24 17.96875 C 26.450656 17.96875 28.553516 19.432333 29.5 21.53125 L 31.28125 20.75 C 30.034181 17.967588 27.24479 16.03125 24 16.03125 z " id="path-main"/>
    </g>
  </defs>
  <g id="acyl-visual">
    <use id="visible1" style="fill:url(#acyl-gradient)" xlink:href="#acyl-drawing"/>
  </g>
</svg>
