<svg xmlns="http://www.w3.org/2000/svg" xmlns:xlink="http://www.w3.org/1999/xlink" width="48" height="48">
  <defs id="acyl-settings">
    <linearGradient id="acyl-gradient" x1="0%" x2="0%" y1="0%" y2="100%">
      <stop offset="100%" style="stop-color:#A0A0A0;stop-opacity:1.000000"/>
    </linearGradient>
    <g id="acyl-filter">
  </g>
    <g id="acyl-drawing">
      <path id="path-main" d="m 16.247297,8.8786916 c -4.568422,0 -7.8315824,2.7327814 -7.8315824,7.2020304 l 0,3.928381 -1.3052643,0 c -1.3052628,0 -1.9578957,0.654731 -1.9578957,1.96419 l 0,11.130409 c 0,0.641848 0.6526329,1.96419 1.9578957,1.96419 l 19.1769467,0 c 1.054641,-0.0062 1.707274,-1.322343 1.707274,-1.96419 l 0,-11.130409 c 0,-1.309459 -0.652633,-1.97038 -1.957896,-1.97038 l -1.305263,0.0062 0,-3.92838 c 0,-4.583119 -3.263158,-7.2020399 -7.831582,-7.2020399 l -0.652633,0 z m 0,3.2736504 0.652633,0 c 4.568424,0 4.568424,3.92838 4.568424,5.23784 l 0,2.618921 -9.789479,0 0,-2.618921 c 0,-1.30946 0,-5.23784 4.568422,-5.23784 z"/>
    </g>
  </defs>
  <g id="acyl-visual">
    <use id="visible1" style="fill:url(#acyl-gradient)" xlink:href="#acyl-drawing"/>
  </g>
</svg>
