<svg xmlns="http://www.w3.org/2000/svg" xmlns:xlink="http://www.w3.org/1999/xlink" width="48" height="48">
  <defs id="acyl-settings">
    <linearGradient id="acyl-gradient" x1="0%" x2="0%" y1="0%" y2="100%">
      <stop offset="100%" style="stop-color:#A0A0A0;stop-opacity:1.000000"/>
    </linearGradient>
    <g id="acyl-filter">
  </g>
    <g id="acyl-drawing">
      <path d="M 24 2 A 22 22 0 0 0 2 24 A 22 22 0 0 0 24 46 A 22 22 0 0 0 46 24 A 22 22 0 0 0 24 2 z M 23.3379 7.72656 C 24.4329 7.6839 25.5479 7.75057 26.6699 7.93555 C 35.6606 9.41772 41.781 17.9547 40.2988 26.9453 C 38.8166 35.9359 30.2797 42.0563 21.2891 40.5742 C 16.7938 39.8331 13.0172 37.326 10.5488 33.8828 L 13.5234 31.752 C 15.4379 34.4224 18.3758 36.3584 21.8887 36.9375 C 28.9144 38.0958 35.5038 33.3714 36.6621 26.3457 C 37.8203 19.32 33.096 12.7305 26.0703 11.5723 C 19.059 10.4164 12.4845 15.1192 11.3066 22.1211 L 14.4453 22.6387 L 8.69922 26.7598 L 4.57812 21.0137 L 7.66992 21.5215 C 8.98435 13.6752 15.6728 8.0252 23.3379 7.72656 z M 24 12.7715 L 25.5312 21.8027 A 2.67962 2.67962 0 0 1 26.6797 24 A 2.67962 2.67962 0 0 1 25.3848 26.291 L 24 30.2344 L 22.6152 26.291 A 2.67962 2.67962 0 0 1 21.3203 24 A 2.67962 2.67962 0 0 1 22.4688 21.8047 L 24 12.7715 z " id="path-main"/>
    </g>
  </defs>
  <g id="acyl-visual">
    <use id="visible1" style="fill:url(#acyl-gradient)" xlink:href="#acyl-drawing"/>
  </g>
</svg>
