<svg xmlns="http://www.w3.org/2000/svg" xmlns:xlink="http://www.w3.org/1999/xlink" width="48" height="48">
  <defs id="acyl-settings">
    <linearGradient id="acyl-gradient" x1="0%" x2="0%" y1="0%" y2="100%">
      <stop offset="100%" style="stop-color:#A0A0A0;stop-opacity:1.000000"/>
    </linearGradient>
    <g id="acyl-filter">
  </g>
    <g id="acyl-drawing">
      <path d="m 13.3335,2.003 6.244,11.753 c 1.416,-0.551 2.931,-0.848 4.459,-0.827 1.637,0 3.273,0.322 4.784,0.95 l 6.102,-11.876 z m 25.368,0 -7.25,13.4125 c 2.67,2 5.204,4.2265 7.587,6.5885 l 6.998,0.02 0,-11.224 C 45.2749,7.05384 42.0483,3.16824 38.7015,2.003 Z M 9.3515,2.0135 C 5.00251,3.97343 2.19991,6.79503 2.0845,11.143 l 0,10.814 7.034,-0.02 c 2.099,-2.075 4.326,-4.019 6.634,-5.858 0.262,-0.228 0.534,-0.447 0.814,-0.655 l -7.161,-13.4315 0,0 z M 24.4305,16.75 c -3.8588,10e-5 -6.9869,3.1282 -6.987,6.987 10e-5,3.8588 3.1282,6.9869 6.987,6.987 3.8588,-10e-5 6.9869,-3.1282 6.987,-6.987 -10e-5,-3.8588 -3.1282,-6.9869 -6.987,-6.987 z m 0,4.054 c 1.6202,-4e-4 2.9338,1.3128 2.934,2.933 4e-4,1.6206 -1.3134,2.9344 -2.934,2.934 -1.6202,-2e-4 -2.9334,-1.3138 -2.933,-2.934 2e-4,-1.6198 1.3132,-2.9328 2.933,-2.933 z m 21.606,5.172 -7.546,0.03 c -1.946,2.118 -4.02,4.118 -6.242,5.948 -0.247,0.229 -0.503,0.446 -0.768,0.65 l 7.241,13.393 c 4.072,-1.6053 6.799,-4.5331 7.2935,-8.262 0.036,-4.0678 0,-8.2245 0,-11.734 z m -44,0.04 c 0,3.7523 0,7.5047 0,11.257 0.0912,4.0984 3.84212,7.8252 7.236,8.724 2.4242,-4.3769 4.8154,-9.093 7.206,-13.52 -2.486,-1.956 -4.782,-4.152 -6.926,-6.484 l -7.589,-0.03 z m 26.803,8.101 c -2.913,1.203 -6.301,1.266 -9.251,0.147 l -6.231,11.733 21.589,0 z" id="path-main"/>
    </g>
  </defs>
  <g id="acyl-visual">
    <use id="visible1" style="fill:url(#acyl-gradient)" xlink:href="#acyl-drawing"/>
  </g>
</svg>
