<svg xmlns="http://www.w3.org/2000/svg" xmlns:xlink="http://www.w3.org/1999/xlink" width="48" height="48">
  <defs id="acyl-settings">
    <linearGradient id="acyl-gradient" x1="0%" x2="0%" y1="0%" y2="100%">
      <stop offset="100%" style="stop-color:#A0A0A0;stop-opacity:1.000000"/>
    </linearGradient>
    <g id="acyl-filter">
  </g>
    <g id="acyl-drawing">
      <path d="M 24.0684 5.66797 C 19.189 5.66797 13.7394 7.48705 12.5918 13.5215 C 12.4763 14.1639 12.9388 14.5037 13.3574 14.5977 L 18.3379 15.1309 C 18.7999 15.1093 19.1396 14.6553 19.2266 14.1934 C 19.6525 12.1146 21.3974 11.1113 23.3535 11.1113 C 24.4073 11.1113 25.6065 11.5017 26.2344 12.4473 C 26.9492 13.501 26.8555 14.9442 26.8555 16.1641 L 26.8555 16.8281 C 23.8818 17.1673 19.9913 17.3842 17.2051 18.6113 C 13.993 19.9969 11.7324 22.8333 11.7324 26.998 C 11.7324 32.3321 15.0977 34.9961 19.4141 34.9961 C 23.0664 34.9961 25.058 34.1362 27.873 31.2637 C 28.8113 32.6134 29.115 33.271 30.8184 34.6855 C 31.2011 34.8876 31.692 34.8658 32.0312 34.5625 L 32.0449 34.5762 C 33.0698 33.6666 34.9339 32.0433 35.9805 31.1699 C 36.3989 30.8235 36.3261 30.2667 35.9941 29.8047 C 35.0558 28.5054 34.0586 27.4525 34.0586 25.0488 L 34.0586 17.0508 C 34.0586 13.6655 34.2964 10.5541 31.7988 8.22266 C 29.8282 6.33153 26.5659 5.66797 24.0684 5.66797 z M 26.8555 20.9414 L 26.8555 22.0527 C 26.8555 24.0521 26.9045 25.7203 25.8945 27.4961 C 25.0789 28.9397 23.7873 29.8281 22.3438 29.8281 C 20.3732 29.8281 19.2266 28.3253 19.2266 26.1094 C 19.2266 21.7353 23.1452 20.9414 26.8555 20.9414 z M 42.7676 32.4219 C 41.2278 32.4431 39.41 32.7869 38.0332 33.7559 C 37.6073 34.0517 37.6796 34.464 38.1523 34.4062 C 39.7042 34.2222 43.1618 33.8069 43.7754 34.5938 C 44.3925 35.3841 43.0889 38.6351 42.5078 40.0859 C 42.3309 40.5262 42.7104 40.7031 43.1074 40.3711 C 45.6952 38.2092 46.3589 33.6805 45.832 33.0273 C 45.5685 32.7025 44.3073 32.4007 42.7676 32.4219 z M 2.32031 33.291 C 1.99939 33.3325 1.85696 33.7215 2.19531 34.0273 C 7.93719 39.2136 15.5262 42.332 23.957 42.332 C 29.9702 42.332 36.9535 40.436 41.7715 36.8848 C 42.5691 36.2928 41.8879 35.4133 41.0723 35.7598 C 35.6732 38.0516 29.8007 39.1562 24.4629 39.1562 C 16.5473 39.1564 8.88621 36.9864 2.68945 33.3809 C 2.55411 33.3015 2.42729 33.2772 2.32031 33.291 z " id="path-main"/>
    </g>
  </defs>
  <g id="acyl-visual">
    <use id="visible1" style="fill:url(#acyl-gradient)" xlink:href="#acyl-drawing"/>
  </g>
</svg>
