<svg xmlns="http://www.w3.org/2000/svg" xmlns:xlink="http://www.w3.org/1999/xlink" width="48" height="48">
  <defs id="acyl-settings">
    <linearGradient id="acyl-gradient" x1="0%" x2="0%" y1="0%" y2="100%">
      <stop offset="100%" style="stop-color:#A0A0A0;stop-opacity:1.000000"/>
    </linearGradient>
    <g id="acyl-filter">
  </g>
    <g id="acyl-drawing">
      <path d="M 24.000003,2.0000128 A 19.738676,19.738676 0 0 0 4.2613515,21.738663 19.738676,19.738676 0 0 0 11.311971,36.857083 l 8.339171,-14.42372 -0.717107,-0.71711 c -0.233061,-0.23306 -0.340416,-0.43033 -0.322488,-0.60961 h -0.01786 v -4.67905 c 0,-1.12945 0.932239,-2.06169 2.061682,-2.06169 h 1.165298 v -3.67517 -0.0179 h 2.276675 2.294883 v 0.0179 3.67517 h 1.147091 c 1.129444,0 2.061683,0.93224 2.061683,2.06169 v 4.67905 h -0.01786 c 0,0.16135 -0.08943,0.37655 -0.322488,0.60961 l -0.717107,0.71711 3.54947,6.13112 c 1.595562,-1.86447 2.563797,-4.26685 2.563797,-6.88429 h 3.675174 c 0,3.99787 -1.667204,7.61933 -4.320501,10.20091 l 2.795247,4.84783 A 19.738676,19.738676 0 0 0 43.738648,21.738663 19.738676,19.738676 0 0 0 23.999996,2.0000128 Z M 36.806738,36.728933 a 19.738676,19.738676 0 0 1 -3.023195,2.12471 l 2.791395,4.82402 c 0.08964,0.16134 0.215132,0.28677 0.358554,0.37641 l 2.760932,1.8824 c 0.107566,0.0717 0.233129,0.0716 0.340695,0.0179 0.107566,-0.0717 0.161419,-0.17914 0.161419,-0.30463 l -0.287122,-3.31662 c -0.01793,-0.17928 -0.07143,-0.34077 -0.161069,-0.50212 z m -3.023195,2.12471 -2.748327,-4.74943 c -2.043755,1.14737 -4.410138,1.81062 -6.920013,1.81062 -2.509875,0 -4.876258,-0.66325 -6.920013,-1.81062 l -2.809253,4.86428 a 19.738676,19.738676 0 0 0 9.614066,2.50882 19.738676,19.738676 0 0 0 9.78354,-2.62367 z m -19.397606,0.11485 a 19.738676,19.738676 0 0 1 -3.073966,-2.11141 l -2.8656275,4.95603 c -0.08964,0.16135 -0.143141,0.32283 -0.161069,0.50211 l -0.251057,3.33448 c -0.01793,0.12549 0.05385,0.23292 0.161419,0.30463 0.107566,0.0717 0.232779,0.0538 0.340345,-0.0179 l 2.7609325,-1.86454 c 0.143422,-0.10757 0.268916,-0.23299 0.358554,-0.37642 z m 9.711408,-22.82768 v 0.0357 c -1.523852,0 -2.743074,1.21915 -2.743074,2.76093 0,1.52385 1.237149,2.76093 2.743074,2.76093 h 0.01786 c 1.505925,-0.0179 2.743075,-1.23708 2.743075,-2.76093 0,-1.52385 -1.23715,-2.743 -2.743075,-2.76093 z m -1.738845,8.99956 -3.334827,5.77257 c 1.487997,0.82467 3.227122,1.30886 5.073672,1.30886 1.846551,0 3.585396,-0.46598 5.055465,-1.29065 l -3.334478,-5.79078 -0.699249,0.69925 c -0.268915,0.28684 -0.645257,0.43033 -1.021738,0.43033 l -0.01786,-0.0182 v 0.0182 c -0.358553,0 -0.735244,-0.14349 -1.022087,-0.43033 z" id="path-main"/>
    </g>
  </defs>
  <g id="acyl-visual">
    <use id="visible1" style="fill:url(#acyl-gradient)" xlink:href="#acyl-drawing"/>
  </g>
</svg>
