<svg xmlns="http://www.w3.org/2000/svg" xmlns:xlink="http://www.w3.org/1999/xlink" width="48" height="48">
  <defs id="acyl-settings">
    <linearGradient id="acyl-gradient" x1="0%" x2="0%" y1="0%" y2="100%">
      <stop offset="100%" style="stop-color:#A0A0A0;stop-opacity:1.000000"/>
    </linearGradient>
    <g id="acyl-filter">
  </g>
    <g id="acyl-drawing">
      <path d="M 24 2 A 22 22 0 0 0 2 24 A 22 22 0 0 0 24 46 A 22 22 0 0 0 46 24 A 22 22 0 0 0 24 2 z M 14.869141 16.173828 C 18.07399 16.173828 20.6266 18.042955 22.369141 19.800781 C 23.036606 20.473341 23.561818 21.13595 24 21.716797 C 24.443278 21.130854 24.99422 20.478436 25.671875 19.800781 C 27.424607 18.04805 29.976961 16.173828 33.130859 16.173828 C 37.466833 16.173828 40.957031 19.664027 40.957031 24 C 40.957031 28.335973 37.466833 31.826172 33.130859 31.826172 C 29.976961 31.826172 27.424607 29.95195 25.671875 28.199219 C 24.984029 27.511373 24.443278 26.833225 24 26.242188 C 23.556722 26.833225 23.015971 27.511373 22.328125 28.199219 C 20.575393 29.95195 18.023039 31.826172 14.869141 31.826172 C 10.533167 31.826172 7.0429688 28.335973 7.0429688 24 C 7.0429688 19.664027 10.533167 16.173828 14.869141 16.173828 z M 14.869141 18.783203 C 11.898668 18.783203 9.6523438 21.029527 9.6523438 24 C 9.6523437 26.970473 11.898668 29.216797 14.869141 29.216797 C 16.932676 29.216797 18.94496 27.832383 20.453125 26.324219 C 21.630105 25.147239 22.073623 24.458564 22.369141 24 C 22.083812 23.551627 21.66093 22.857856 20.494141 21.675781 C 19.006357 20.172712 17.014199 18.783203 14.869141 18.783203 z M 33.130859 18.783203 C 31.067324 18.783203 29.05504 20.167617 27.546875 21.675781 C 26.369895 22.852761 25.926379 23.541437 25.630859 24 C 25.926379 24.458564 26.369895 25.147239 27.546875 26.324219 C 29.05504 27.832383 31.067324 29.216797 33.130859 29.216797 C 36.101332 29.216797 38.347656 26.970473 38.347656 24 C 38.347656 21.029527 36.101332 18.783203 33.130859 18.783203 z M 32.234375 21.390625 L 34.027344 21.390625 L 34.027344 23.103516 L 35.738281 23.103516 L 35.738281 24.896484 L 34.027344 24.896484 L 34.027344 26.609375 L 32.234375 26.609375 L 32.234375 24.896484 L 30.521484 24.896484 L 30.521484 23.103516 L 32.234375 23.103516 L 32.234375 21.390625 z M 12.261719 23.103516 L 17.478516 23.103516 L 17.478516 24.775391 L 12.261719 24.775391 L 12.261719 23.103516 z" id="path-main"/>
    </g>
  </defs>
  <g id="acyl-visual">
    <use id="visible1" style="fill:url(#acyl-gradient)" xlink:href="#acyl-drawing"/>
  </g>
</svg>
