<svg xmlns="http://www.w3.org/2000/svg" xmlns:xlink="http://www.w3.org/1999/xlink" width="48" height="48">
  <defs id="acyl-settings">
    <linearGradient id="acyl-gradient" x1="0%" x2="0%" y1="0%" y2="100%">
      <stop offset="100%" style="stop-color:#A0A0A0;stop-opacity:1.000000"/>
    </linearGradient>
    <g id="acyl-filter">
  </g>
    <g id="acyl-drawing">
      <path id="path-main" d="M 13 2 L 6 9 L 6 46 L 34 46 L 42 38 L 42 2 L 13 2 z M 24 5.004 A 9.497 9.497 0 0 1 33.5 14.5 A 9.497 9.497 0 0 1 24 24 A 9.497 9.497 0 0 1 14.5 14.5 A 9.497 9.497 0 0 1 24 5.004 z M 24 7.5 A 7 7 0 0 0 17 14.5 A 7 7 0 0 0 24 21.5 A 7 7 0 0 0 31 14.5 A 7 7 0 0 0 24 7.5 z M 24.01 9.588 C 24.34 9.59 24.67 9.63 24.99 9.715 C 25.84 9.895 26.6 10.55 26.75 11.43 C 26.94 12.32 26.62 13.3 25.91 13.89 C 25.49 14.31 24.92 14.59 24.59 15.11 C 24.43 15.38 24.49 15.7 24.49 15.99 C 24.49 16.17 24.28 16.09 24.17 16.09 L 22.75 16.09 L 22.76 16.08 C 22.76 15.62 22.76 15.15 22.96 14.74 C 23.26 13.93 24.08 13.54 24.64 12.94 C 24.94 12.57 25.16 12 24.87 11.56 C 24.54 11.1 23.89 11.16 23.4 11.26 C 22.9 11.39 22.42 11.61 21.96 11.84 C 21.71 11.36 21.45 10.88 21.2 10.4 C 22.05 9.914 23.03 9.581 24.01 9.588 z M 23.64 17.16 C 23.98 17.15 24.32 17.31 24.58 17.52 C 25.05 18.05 24.91 19.09 24.19 19.33 C 23.8 19.54 23.33 19.44 22.97 19.21 C 22.67 19.03 22.54 18.64 22.54 18.31 C 22.54 17.83 22.83 17.35 23.31 17.24 C 23.42 17.19 23.53 17.17 23.64 17.16 z M 20.07 26.75 C 21.24 26.75 22.47 26.96 23.42 27.69 C 24.14 28.12 24.59 28.93 24.87 29.71 C 25.39 31.02 25.54 32.41 25.54 33.78 C 25.54 35.16 25.44 36.62 25.02 37.91 C 24.74 38.77 24.14 39.58 23.34 40.15 C 23.94 41.11 24.51 41.98 25.02 42.84 C 24.37 43.2 23.64 43.5 22.91 43.87 C 22.34 42.84 21.74 41.9 21.17 40.87 C 20.37 41.02 19.5 41.02 18.7 40.87 C 17.67 40.77 16.74 40.52 15.94 39.87 C 15.34 39.35 14.99 38.63 14.77 37.91 C 14.34 36.76 14.27 35.46 14.27 34.21 C 14.27 32.84 14.37 31.46 14.7 30.14 C 15.07 29.14 15.57 28.19 16.44 27.62 C 17.54 26.91 18.84 26.75 20.07 26.75 z M 28.37 27.54 L 30.54 27.54 L 30.54 30.44 L 33.39 30.44 C 33.39 31.09 33.29 31.68 33.29 32.33 L 30.52 32.33 C 30.52 33.93 30.42 35.51 30.52 37.12 C 30.52 37.55 30.52 37.97 30.67 38.42 C 30.81 38.7 31.17 38.77 31.54 38.77 C 32.12 38.77 32.7 38.77 33.21 38.67 C 33.31 39.25 33.31 39.84 33.37 40.41 C 32.2 40.64 30.97 40.84 29.87 40.52 C 29.37 40.37 28.92 40.08 28.7 39.58 C 28.41 38.77 28.34 37.91 28.34 37.06 L 28.34 32.34 L 26.81 32.34 L 26.81 30.45 L 28.34 30.45 L 28.37 27.54 z M 19.14 28.7 C 18.54 28.8 17.97 28.99 17.61 29.45 C 17.17 29.86 16.94 30.51 16.74 31.17 C 16.37 32.83 16.44 34.5 16.74 36.18 C 16.84 36.75 16.94 37.26 17.17 37.75 C 17.39 38.13 17.74 38.5 18.11 38.7 C 18.77 39 19.57 39.07 20.3 39 C 21.02 39 21.74 38.7 22.26 38.2 C 22.7 37.62 22.91 36.9 22.99 36.25 C 23.14 35.02 23.21 33.86 23.09 32.69 C 22.99 31.82 22.87 30.89 22.51 30.09 C 22.29 29.57 21.86 29.14 21.27 28.93 C 20.83 28.71 20.32 28.71 19.82 28.71 L 19.79 28.7 L 19.14 28.7 z"/>
    </g>
  </defs>
  <g id="acyl-visual">
    <use id="visible1" style="fill:url(#acyl-gradient)" xlink:href="#acyl-drawing"/>
  </g>
</svg>
