<svg xmlns="http://www.w3.org/2000/svg" xmlns:xlink="http://www.w3.org/1999/xlink" width="48" height="48">
  <defs id="acyl-settings">
    <linearGradient id="acyl-gradient" x1="0%" x2="0%" y1="0%" y2="100%">
      <stop offset="100%" style="stop-color:#A0A0A0;stop-opacity:1.000000"/>
    </linearGradient>
    <g id="acyl-filter">
  </g>
    <g id="acyl-drawing">
      <path d="m 15.4645,3.00579 c -0.2614,-0.01 -0.5185,-0.006 -0.7715,0.0137 l 0,0 c -0.6214,0.0502 -1.2593,0.22292 -1.8398,0.5332 -1.2451,0.6668 -1.9932,1.91349 -2.3789,3.16797 -0.3858,1.25446 -0.49324,2.61507 -0.4688,4.09374 0.032,1.8592 0.448,3.9173 1.0586,6.0293 -0.749,0.1854 -1.49644,0.3729 -2.17584,0.5996 -1.7857,0.5958 -3.3226,1.3249 -4.5547,2.3183 -1.232,0.9934 -2.2415,2.4041 -2.3281,4.1387 -0.079,1.5834 0.6644,3.0515 1.6563,4.0371 0.9918,0.9856 2.2248,1.6619 3.6132,2.2305 l 1.4493,-3.9141 c -1.0936,-0.448 -1.9063,-0.9615 -2.3164,-1.3691 -0.4102,-0.4076 -0.4255,-0.5343 -0.4141,-0.7637 0.01,-0.168 0.1042,-0.4897 0.7734,-1.0293 0.6692,-0.5396 1.8309,-1.1449 3.32824,-1.6445 0.699,-0.233 1.4834,-0.4436 2.3125,-0.6328 0.3667,0.9443 0.7547,1.8776 1.1601,2.7988 -2.5869,5.6054 -3.62944,10.854 -3.57034,14.502 0.04,2.4724 0.91104,4.7339 2.71094,5.9589 1.1707,0.7976 2.7083,1.119 4.1602,0.8086 1.4519,-0.3104 2.8318,-1.0966 4.3906,-2.2636 l -2.3242,-3.418 c -1.3112,0.9816 -2.2812,1.4379 -2.8633,1.5625 -0.5821,0.124 -0.7641,0.077 -1.1875,-0.2129 -0.415,-0.2864 -0.8621,-0.9678 -0.8867,-2.5098 -0.035,-2.1362 0.5261,-5.5914 1.9219,-9.4882 0.1046,0.2058 0.2133,0.4507 0.3164,0.6523 1.7868,3.4894 4.4661,7.6483 7.2851,10.8379 1.4096,1.5948 2.8382,2.9483 4.3516,3.8633 1.461,0.883 3.2651,1.3869 4.9531,0.5879 1.4712,-0.5472 2.3921,-1.9428 2.7813,-3.3692 0.4068,-1.4912 0.4516,-3.1779 0.2656,-5.0703 -0.372,-3.785 -1.7305,-8.4002 -4.1133,-13.041 l -3.5234,1.9941 c 2.1532,4.1932 3.3585,8.4094 3.6601,11.4786 0.15,1.5346 0.057,2.7834 -0.1328,3.4824 -0.1346,0.495 -0.2256,0.5996 -0.2402,0.6133 l -0.1582,0.049 -0.1719,0.09 c -0.044,0.024 -0.3904,0.1104 -1.3242,-0.455 -0.9336,-0.5642 -2.1691,-1.6752 -3.4141,-3.084 -2.49,-2.8164 -5.0782,-6.8049 -6.6953,-9.9629 -0.5583,-1.0902 -1.1349,-2.3339 -1.6992,-3.5899 0.4494,-0.87 0.9361,-1.7434 1.4727,-2.6132 0.2431,-0.3932 0.4924,-0.7604 0.7382,-1.1446 0.5782,-0.021 1.144,-0.058 1.7344,-0.06 0.9448,0 1.9144,0.023 2.9102,0.078 5.298,0.2917 9.9213,1.3099 13.0117,2.6543 1.5454,0.6722 2.6995,1.4362 3.3437,2.0918 0.6442,0.6554 0.7463,1.049 0.7305,1.3652 0,-0.042 -0.102,0.3789 -0.8516,0.9063 -0.749,0.5274 -1.99,1.0573 -3.5,1.3379 l 0.6954,4.1347 c 1.96,-0.3642 3.6741,-1.0261 5.0351,-1.9843 1.361,-0.9582 2.5213,-2.3167 2.6133,-4.1739 0.09,-1.783 -0.7582,-3.4018 -1.9414,-4.6054 -1.183,-1.2041 -2.7376,-2.1457 -4.5938,-2.9532 -3.7124,-1.6149 -8.6802,-2.6556 -14.332,-2.9668 -0.6682,-0.037 -1.3202,-0.039 -1.9766,-0.053 1.309,-1.7791 2.61,-3.3684 3.8438,-4.6641 2.3772,-2.49576 4.5942,-3.73229 5.4727,-3.76753 0.3793,-0.014 0.5562,0.0562 0.6914,0.14843 0.3404,0.23202 1.6152,2.2313 -0.254,5.3984 l 3.3985,2.211 C 39.0086,10.3901 38.149,5.75041 35.3415,3.83587 34.4299,3.21469 33.3495,2.96935 32.3141,3.01165 l 0,0 c -2.9461,0.11967 -5.474,2.18809 -8.1484,4.99609 -2.0228,2.12386 -4.0814,4.78716 -6.0782,7.75786 -1.0178,0.074 -2.0107,0.1692 -2.9726,0.2988 -0.6615,-2.1002 -1.0941,-3.9853 -1.1172,-5.3242 -0.02,-1.18462 0.1025,-2.15124 0.2812,-2.73246 0.178,-0.57872 0.3292,-0.67798 0.3868,-0.70898 0.087,-0.0462 0.169,-0.0769 0.3242,-0.0899 0.8997,-0.0698 2.0923,0.18756 3.7305,1.61524 L 21.275,5.59172 C 19.3134,3.88213 17.2945,3.0757 15.4645,3.00579 Z" id="path-main"/>
    </g>
  </defs>
  <g id="acyl-visual">
    <use id="visible1" style="fill:url(#acyl-gradient)" xlink:href="#acyl-drawing"/>
  </g>
</svg>
