<svg xmlns="http://www.w3.org/2000/svg" xmlns:xlink="http://www.w3.org/1999/xlink" width="48" height="48">
  <defs id="acyl-settings">
    <linearGradient id="acyl-gradient" x1="0%" x2="0%" y1="0%" y2="100%">
      <stop offset="100%" style="stop-color:#A0A0A0;stop-opacity:1.000000"/>
    </linearGradient>
    <g id="acyl-filter">
  </g>
    <g id="acyl-drawing">
      <path d="M 24.030346,2 C 11.921474,2 2,11.921474 2,24.030346 2,36.139218 11.921474,46 24.030346,46 36.139218,46.000002 46,36.139218 46,24.030346 46.000002,11.921474 36.139218,2 24.030346,2 z m 6.402758,11.470345 c 0.825378,0 1.656826,0.352 2.33655,1.031724 1.35945,1.359448 1.359452,3.313656 0,4.673103 l -4.673102,4.642758 4.855172,4.855174 c 1.35945,1.359448 1.35945,3.313654 0,4.673102 -1.359448,1.35945 -3.313656,1.359448 -4.673102,0 l -4.64276,-4.673102 -4.673104,4.673102 c -1.359448,1.35945 -3.28331,1.359448 -4.642758,0 -1.359448,-1.359446 -1.359448,-3.313654 0,-4.673102 L 18.962758,24.030346 14.32,19.357241 c -1.359448,-1.359448 -1.359448,-3.313655 0,-4.673103 1.359448,-1.359448 3.28331,-1.359448 4.642758,0 l 4.46069,4.491034 4.673104,-4.673103 c 0.679724,-0.679724 1.511172,-1.031724 2.336552,-1.031724 z" id="path-main"/>
    </g>
  </defs>
  <g id="acyl-visual">
    <use id="visible1" style="fill:url(#acyl-gradient)" xlink:href="#acyl-drawing"/>
  </g>
</svg>
