<svg xmlns="http://www.w3.org/2000/svg" xmlns:xlink="http://www.w3.org/1999/xlink" width="48" height="48">
  <defs id="acyl-settings">
    <linearGradient id="acyl-gradient" x1="0%" x2="0%" y1="0%" y2="100%">
      <stop offset="100%" style="stop-color:#A0A0A0;stop-opacity:1.000000"/>
    </linearGradient>
    <g id="acyl-filter">
  </g>
    <g id="acyl-drawing">
      <path d="m 12.2743,3.19585 c -4.3445,0 -7.6015,1.60005 -7.7372,1.66906 l -0.4041,0.19693 0,3.24861 C 2.8187,8.62185 2,9.17728 2,10.0867 l 0,33.4734 19.4833,0 c 0.6741,0.7626 1.6593,1.2441 2.761,1.2441 1.1034,0 2.09,-0.4815 2.7639,-1.2441 l 18.9918,0 0,-33.4734 C 46,9.34714 45.3329,8.86693 44.2575,8.56967 l 0,-3.50783 -0.3986,-0.19693 C 43.7191,4.7959 40.4622,3.19585 36.119,3.19585 31.4655,3.19585 27.4575,4.9893 24.1953,8.52809 20.9344,4.9893 16.9278,3.19585 12.2743,3.19585 Z m 0,1.59651 c 4.2844,0 7.9671,1.63917 10.9734,4.8347 l 0,19.40124 0.74,-1.0333 0,12.9284 c -1.6163,-0.8475 -7.1857,-3.525 -12.7649,-3.525 -2.205,0 -4.16,0.4259 -5.8226,1.2717 l 0,-32.50238 C 6.3715,5.75721 9.0171,4.79236 12.275,4.79236 Z m 23.8474,0 c 3.2468,0 5.9021,0.96662 6.874,1.37536 l 0,32.51278 c -1.7854,-0.9095 -3.8369,-1.3651 -6.1091,-1.3651 -5.5766,0 -10.8827,2.7024 -12.481,3.5907 l 0,-12.9145 0.7455,1.0367 0,-19.40124 c 3.0056,-3.1973 6.687,-4.8347 10.9713,-4.8347 z M 11.7016,9.74807 c -1.2135,0.0478 -2.492,0.25533 -3.8017,0.69463 l 0.2622,1.251 c 6.5791,-2.2082 12.4972,1.8807 12.5575,1.9214 l 0.4969,-1.13 C 21.0109,12.3401 16.9599,9.53735 11.7016,9.74807 Z m 24.1069,0.0973 c -4.6682,0.20312 -8.1344,2.60292 -8.3243,2.73702 l 0.4968,1.13 c 0.06,-0.041 5.9786,-4.12783 12.5576,-1.9214 l 0.2622,-1.2511 C 39.0544,9.95475 37.3645,9.77763 35.8085,9.84539 Z M 11.7016,13.4082 c -1.2135,0.05 -2.492,0.2589 -3.8017,0.6981 l 0.2622,1.2511 c 6.5791,-2.21 12.4972,1.8772 12.5575,1.9179 l 0.4969,-1.1266 c -0.2056,-0.1468 -4.2566,-2.9515 -9.5149,-2.7405 z m 25.2975,0.097 c -5.2623,-0.2119 -9.3127,2.5914 -9.5184,2.7395 l 0.4968,1.1265 c 0.06,-0.041 5.9786,-4.1278 12.5576,-1.918 l 0.2622,-1.251 c -1.3099,-0.4391 -2.5881,-0.6493 -3.8017,-0.698 z m -25.2975,3.3489 c -1.2135,0.048 -2.492,0.2556 -3.8017,0.6944 L 8.1621,18.8 c 6.5791,-2.2065 12.4972,1.8807 12.5575,1.9214 l 0.4969,-1.1335 c -0.2056,-0.1451 -4.2566,-2.9437 -9.5149,-2.7335 z m 25.2975,0.094 c -5.2588,-0.2093 -9.3091,2.5918 -9.5149,2.7371 l 0.4968,1.1299 c 0.06,-0.042 5.9786,-4.1278 12.5576,-1.9213 l 0.2622,-1.251 c -1.3099,-0.4392 -2.5881,-0.6469 -3.8017,-0.6952 z m -25.2975,3.6765 c -1.2135,0.05 -2.492,0.2585 -3.8017,0.6984 l 0.2622,1.2509 c 6.5791,-2.2084 12.4972,1.8773 12.5575,1.918 l 0.4969,-1.1301 c -0.2056,-0.1486 -4.2566,-2.9487 -9.5149,-2.7372 z m 24.1069,0.097 c -4.6682,0.2013 -8.1344,2.6005 -8.3243,2.7372 l 0.4968,1.1302 c 0.06,-0.041 5.9786,-4.1264 12.5576,-1.9181 l 0.2622,-1.2511 c -1.7464,-0.5873 -3.4363,-0.7658 -4.9923,-0.6987 z m -24.1069,3.3967 c -1.2135,0.048 -2.492,0.2592 -3.8017,0.6982 l 0.2622,1.251 c 6.5791,-2.2065 12.4972,1.8789 12.5575,1.9213 l 0.4969,-1.1334 c -0.2056,-0.1434 -4.2566,-2.9468 -9.5149,-2.7371 z m 25.2975,0.097 C 31.7403,24.0051 27.69,26.806 27.4842,26.9527 l 0.4968,1.1335 c 0.06,-0.041 5.9786,-4.1279 12.5576,-1.9214 l 0.2622,-1.2517 c -1.3099,-0.4388 -2.5881,-0.6494 -3.8017,-0.698 z m -25.2975,3.4933 c -1.2135,0.048 -2.492,0.2592 -3.8017,0.6982 l 0.2622,1.251 c 6.5791,-2.2082 12.4972,1.8773 12.5575,1.918 l 0.4969,-1.1336 c -0.2056,-0.1451 -4.2566,-2.9441 -9.5149,-2.7336 z m 25.2975,0.097 C 31.7403,27.5948 27.69,30.3963 27.4842,30.543 l 0.4968,1.1301 c 0.06,-0.041 5.9786,-4.1262 12.5576,-1.918 l 0.2622,-1.2511 c -1.3099,-0.4397 -2.5881,-0.6499 -3.8017,-0.6986 z m -25.2975,3.5038 c -1.2135,0.049 -2.492,0.2585 -3.8017,0.698 l 0.2622,1.2476 c 6.5791,-2.2082 12.4972,1.8807 12.5575,1.9214 l 0.4969,-1.1299 c -0.2056,-0.1487 -4.2566,-2.9487 -9.5149,-2.7371 z m 25.2975,0.094 C 31.7403,31.1935 27.69,33.999 27.4842,34.1441 l 0.4968,1.1267 c 0.06,-0.037 5.9786,-4.1279 12.5576,-1.918 l 0.2622,-1.2511 C 39.4909,31.6624 38.2127,31.452 36.9991,31.4035 Z" id="path-main"/>
    </g>
  </defs>
  <g id="acyl-visual">
    <use id="visible1" style="fill:url(#acyl-gradient)" xlink:href="#acyl-drawing"/>
  </g>
</svg>
