<svg xmlns="http://www.w3.org/2000/svg" xmlns:xlink="http://www.w3.org/1999/xlink" width="48" height="48">
  <defs id="acyl-settings">
    <linearGradient id="acyl-gradient" x1="0%" x2="0%" y1="0%" y2="100%">
      <stop offset="100%" style="stop-color:#A0A0A0;stop-opacity:1.000000"/>
    </linearGradient>
    <g id="acyl-filter">
  </g>
    <g id="acyl-drawing">
      <path d="M 3.6543 5.92383 C 2.73613 5.92383 2 6.65996 2 7.57812 L 2 36.2031 C 2 37.1213 2.73613 37.8594 3.6543 37.8594 L 17.2188 37.8594 L 17.2188 41.6953 L 12.0977 41.6953 L 12.0977 42.7148 L 37.1133 42.7148 L 37.1133 41.6953 L 32.1367 41.6953 L 32.1367 37.8594 L 44.3457 37.8594 C 45.2639 37.8594 46 37.1213 46 36.2031 L 46 7.57812 C 46 6.65996 45.2639 5.92383 44.3457 5.92383 L 3.6543 5.92383 z M 6.92578 7.69922 L 41.0742 7.69922 C 42.3532 7.69922 43.4063 8.75239 43.4062 10.0312 L 43.4062 33.25 C 43.4064 34.529 42.3532 35.582 41.0742 35.582 L 6.92578 35.582 C 5.64683 35.582 4.59375 34.529 4.59375 33.25 L 4.59375 10.0312 C 4.59375 8.75239 5.64683 7.69922 6.92578 7.69922 z M 6.92578 9.19922 C 6.45188 9.19922 6.09375 9.55745 6.09375 10.0312 L 6.09375 33.25 C 6.09375 33.7239 6.45188 34.082 6.92578 34.082 L 41.0742 34.082 C 41.5481 34.082 41.9063 33.7239 41.9062 33.25 L 41.9062 10.0312 C 41.9064 9.55745 41.5481 9.19922 41.0742 9.19922 L 6.92578 9.19922 z M 28.623 12.1562 C 29.692 12.1562 30.5547 13.0228 30.5547 14.0898 C 30.5547 15.1578 29.692 16.0215 28.623 16.0215 C 27.556 16.0215 26.6914 15.1578 26.6914 14.0898 C 26.6914 13.0228 27.556 12.1562 28.623 12.1562 z M 24.541 13.7285 L 24.5508 13.7285 C 25.0243 13.7291 25.4867 13.77 25.9355 13.8594 L 25.9355 14.0918 C 25.9355 15.5758 27.138 16.7793 28.623 16.7793 C 29.202 16.7793 29.7378 16.5942 30.1758 16.2852 C 31.1968 17.4552 31.8592 18.944 31.9922 20.584 L 28.9902 20.6738 C 28.7322 18.4508 26.8428 16.7246 24.5508 16.7246 C 23.8948 16.7246 23.2749 16.8661 22.7129 17.1191 L 21.2285 14.5059 C 22.2268 14.0092 23.3507 13.7301 24.541 13.7285 z M 20.1992 15.125 L 21.7949 17.6758 C 20.7539 18.4938 20.082 19.7664 20.082 21.1934 C 20.082 22.6004 20.732 23.8539 21.748 24.6719 L 20.2656 27.3086 C 18.9696 26.3996 17.9768 25.0876 17.4668 23.5566 C 18.1648 23.0706 18.6211 22.2646 18.6211 21.3496 C 18.6211 20.4006 18.1287 19.5668 17.3867 19.0898 C 17.8607 17.4728 18.8632 16.084 20.1992 15.125 z M 15.9336 19.418 C 17.0016 19.418 17.8672 20.2826 17.8672 21.3496 C 17.8672 22.4166 17.0016 23.2832 15.9336 23.2832 C 14.8666 23.2832 14 22.4166 14 21.3496 C 14 20.2826 14.8666 19.418 15.9336 19.418 z M 28.998 21.6543 L 28.998 21.6621 L 32 21.7129 C 31.876 23.4979 31.1277 25.1071 29.9688 26.3281 C 29.5967 26.1331 29.1746 26.0234 28.7246 26.0234 C 27.3076 26.0234 26.1479 27.1198 26.0449 28.5078 C 25.5619 28.6088 25.0608 28.6582 24.5508 28.6582 C 23.3678 28.6582 22.2509 28.3845 21.2559 27.8945 L 22.748 25.2832 C 23.299 25.5262 23.9108 25.6602 24.5508 25.6602 C 26.8638 25.6602 28.766 23.9073 28.998 21.6543 z M 28.7246 26.7773 C 29.7916 26.7773 30.6562 27.6429 30.6562 28.7109 C 30.6562 29.7769 29.7916 30.6426 28.7246 30.6426 C 27.6576 30.6426 26.791 29.7769 26.791 28.7109 C 26.791 27.6429 27.6576 26.7773 28.7246 26.7773 z " id="path-main"/>
    </g>
  </defs>
  <g id="acyl-visual">
    <use id="visible1" style="fill:url(#acyl-gradient)" xlink:href="#acyl-drawing"/>
  </g>
</svg>
