<svg xmlns="http://www.w3.org/2000/svg" xmlns:xlink="http://www.w3.org/1999/xlink" width="48" height="48">
  <defs id="acyl-settings">
    <linearGradient id="acyl-gradient" x1="0%" x2="0%" y1="0%" y2="100%">
      <stop offset="100%" style="stop-color:#A0A0A0;stop-opacity:1.000000"/>
    </linearGradient>
    <g id="acyl-filter">
  </g>
    <g id="acyl-drawing">
      <path d="m 31.8582,1.983 0,0 0,0.188 c -0.03,0 -0.06,0 -0.09,0.01 -0.106,0.01 -0.254,0.03 -0.443,0.06 -0.376,0.05 -0.909,0.129 -1.56,0.222 -1.303,0.188 -3.079,0.447 -5.014,0.732 -1.934,0.285 -3.702,0.544 -4.991,0.731 -0.644,0.09 -1.169,0.17 -1.535,0.222 -0.183,0.03 -0.326,0.05 -0.424,0.06 -0.05,0 -0.09,0.01 -0.112,0.02 l 0.02,0 c 0,0 -0.06,0.03 -0.09,0.05 L 16.6442,4.164 C 15.2452,4.001 11.8022,3.636 8.69922,3.316 7.14822,3.156 5.68222,3.007 4.60222,2.9 c -0.54,-0.05 -0.983,-0.1 -1.295,-0.126 -0.155,-0.01 -0.277,-0.03 -0.364,-0.03 -0.04,0 -0.08,0 -0.108,0 -0.02,0 -0.03,0 -0.05,0 -0.01,0 -0.02,0 -0.05,0 -0.01,0 -0.03,0 -0.07,0.01 -0.04,0 -0.282,0.178 -0.283,0.179 0,0 -0.09,0.182 -0.1,0.207 0,0.02 0,0.04 0,0.05 -0.001,0.02 0,0.03 0,0.03 l 0,0.03 0,0.08 0,0.268 c 0,0.233 0,0.573 0,1.01 0,0.873 0.01,2.132 0.03,3.684 0.03,3.103 0.07,7.378 0.115,12.075 0.1,9.394 0.179,18.791 0.183,20.864 0,1.056 0.01,2.005 0.03,2.695 0.01,0.345 0.02,0.624 0.03,0.825 0,0.101 0.01,0.18 0.02,0.249 0,0.03 0,0.06 0.02,0.114 0,0.03 0.01,0.05 0.04,0.114 0.01,0.03 0.03,0.07 0.09,0.133 0.06,0.06 0.188,0.156 0.364,0.156 0.07,0 0.05,0 0.06,0 0.01,0 0.02,0 0.04,0 0.03,0 0.07,0 0.117,-0.01 0.1,-0.01 0.242,-0.03 0.424,-0.04 0.363,-0.04 0.881,-0.09 1.517,-0.162 1.271,-0.137 3.012,-0.325 4.91598,-0.532 1.904,-0.207 3.65,-0.396 4.931,-0.532 0.641,-0.07 1.165,-0.124 1.533,-0.162 0.184,-0.02 0.33,-0.03 0.43,-0.04 0.05,0 0.09,0 0.116,-0.01 0.03,0 0.09,0 0,0 0.125,0 0.225,-0.05 0.301,-0.105 l 0.301,0.05 c 0.137,0.02 0.901,0.141 2.121,0.328 1.107,0.169 2.615,0.399 4.189,0.638 l 0,0.07 0.463,0 c 1.743,0.265 3.391,0.507 4.639,0.684 0.629,0.09 1.157,0.162 1.549,0.213 0.392,0.05 0.587,0.08 0.768,0.09 l 0.251,0 0.01,0 0.782,0.02 0,-0.07 5.82,-0.41 c 1.673,-0.118 3.204,-0.234 4.323,-0.325 0.56,-0.05 1.017,-0.09 1.34,-0.117 0.162,-0.02 0.289,-0.03 0.384,-0.04 0.05,0 0.09,-0.01 0.123,-0.02 0.02,0 0.04,0 0.06,-0.01 0.01,0 0.03,0 0.06,-0.02 0.03,-0.01 0.06,0 0.171,-0.104 0,0 0.143,-0.232 0.149,-0.26 0,-0.03 0,-0.04 0.01,-0.05 0,-0.02 0,-0.04 0,-0.05 0,-0.03 0,-0.06 0,-0.105 0,-0.08 0,-0.202 0.01,-0.355 0,-0.304 0.02,-0.745 0.03,-1.304 0.03,-1.12 0.06,-2.712 0.09,-4.622 0.07,-3.819 0.154,-8.905 0.233,-13.99 0.08,-5.085 0.154,-10.169 0.203,-13.988 0.03,-1.91 0.04,-3.503 0.05,-4.622 0,-0.559 0,-1 0,-1.304 l 0,-0.354 c 0,-0.04 0,-0.08 0,-0.106 0,-0.02 0,-0.03 0,-0.05 0,-0.01 0,-0.02 0,-0.05 0,-0.03 -0.152,-0.274 -0.153,-0.274 0,0 -0.08,-0.06 -0.102,-0.07 -0.02,-0.01 -0.04,-0.02 -0.05,-0.02 -0.03,-0.01 -0.04,-0.01 -0.05,-0.02 -0.02,0 -0.03,0 -0.04,-0.01 -0.02,0 -0.03,0 -0.05,0 -0.03,0 -0.07,-0.01 -0.111,-0.01 -0.09,-0.01 -0.215,-0.02 -0.375,-0.04 -0.319,-0.03 -0.775,-0.08 -1.336,-0.126 -1.122,-0.103 -2.662,-0.239 -4.35,-0.383 -1.687,-0.144 -3.252,-0.279 -4.414,-0.382 -0.581,-0.05 -1.061,-0.1 -1.405,-0.126 -0.172,-0.02 -0.31,-0.03 -0.409,-0.04 -0.1,0 -0.185,-0.02 -0.152,-0.02 l -0.859,-0.136 z m 0.994,1.153 c 0.09,0.01 0.192,0.02 0.33,0.03 0.346,0.03 0.827,0.07 1.409,0.127 1.164,0.103 2.73,0.238 4.417,0.382 1.686,0.144 3.225,0.28 4.343,0.382 0.56,0.05 1.014,0.09 1.329,0.126 0.03,0 0.03,0 0.06,0 l 0,0.02 c 0,0.299 0,0.739 0,1.297 0,1.116 -0.03,2.708 -0.05,4.616 -0.05,3.818 -0.123,8.903 -0.203,13.987 -0.08,5.085 -0.163,10.169 -0.233,13.986 -0.04,1.909 -0.07,3.502 -0.09,4.618 -0.01,0.558 -0.02,0.998 -0.03,1.297 0,0.02 0,0.03 0,0.04 -0.03,0 -0.05,0 -0.08,0 -0.314,0.03 -0.768,0.07 -1.325,0.116 -1.114,0.09 -2.642,0.207 -4.312,0.324 l -5.546,0.391 0,-8.333 5.918,2.073 0.612,-1.747 -6.53,-2.289 0,-10.601 0,-6.673 5.858,-3.781 -1.005,-1.556 -4.853,3.133 0,-11.987 z m -1.283,0.08 c 0,0.07 0,0.09 0.01,0.18 0.02,0.539 0.03,1.465 0.05,2.973 0.01,1.919 0.02,5.303 0.02,9.532 l -8.033,5.185 -0.397,-1.645 -5.086,-2.777 c 0,-2.351 0,-4.478 0.02,-6.255 0,-1.752 0.02,-3.171 0.03,-4.152 0,-0.475 0,-0.838 0.01,-1.093 0.06,0 0.1,-0.01 0.174,-0.03 0.367,-0.05 0.892,-0.128 1.537,-0.222 1.29,-0.188 3.057,-0.447 4.992,-0.731 1.934,-0.285 3.71,-0.544 5.011,-0.731 0.651,-0.09 1.183,-0.17 1.557,-0.222 0.05,0 0.07,-0.01 0.112,-0.02 l 0,0 z M 3.26222,3.767 c 0.304,0.03 0.716,0.07 1.232,0.119 1.077,0.107 2.542,0.255 4.092,0.416 3.10098,0.32 6.55098,0.686 7.93198,0.847 l 0.402,0.05 0,10.809 -7.06398,-3.857 -0.887,1.625 7.95098,4.342 0,6.011 c 0,1.033 0,1.56 0,2.489 l -8.41698,-3.04 -0.629,1.741 9.04598,3.267 c 0,5.381 0,9.389 -0.02,11.525 -0.01,1.369 -0.03,2.215 -0.05,2.706 0,0.116 0,0.148 -0.01,0.226 -0.07,0 -0.125,0.01 -0.218,0.02 -0.371,0.04 -0.895,0.09 -1.536,0.162 -1.282,0.136 -3.03,0.324 -4.934,0.531 -1.90298,0.208 -3.64398,0.396 -4.91498,0.532 -0.635,0.07 -1.153,0.124 -1.515,0.162 -0.03,0 -0.05,0 -0.08,0 0,-0.165 -0.01,-0.326 -0.02,-0.569 -0.02,-0.678 -0.03,-1.622 -0.03,-2.671 0,-2.094 -0.09,-11.478 -0.183,-20.873 -0.05,-4.696 -0.09,-8.971 -0.115,-12.074 -0.01,-1.551 -0.02,-2.81 -0.03,-3.681 0,-0.356 0,-0.6 0,-0.82 z M 36.8222,7.123 a 2.23374,1.88384 0 0 0 -2.234,1.884 2.23374,1.88384 0 0 0 2.234,1.883 2.23374,1.88384 0 0 0 2.235,-1.883 2.23374,1.88384 0 0 0 -2.235,-1.884 z m -23.427,1.088 a 2.19518,1.69095 0 0 0 -2.197,1.691 2.19518,1.69095 0 0 0 2.197,1.691 2.19518,1.69095 0 0 0 2.196,-1.691 2.19518,1.69095 0 0 0 -2.196,-1.691 z M 7.06922,8.829 a 1.42394,1.42092 0 0 0 -1.425,1.421 1.42394,1.42092 0 0 0 1.425,1.42 1.42394,1.42092 0 0 0 1.424,-1.42 1.42394,1.42092 0 0 0 -1.424,-1.421 z m 34.29198,1.774 a 1.53962,2.07672 0 0 0 -1.54,2.077 1.53962,2.07672 0 0 0 1.54,2.076 1.53962,2.07672 0 0 0 1.54,-2.076 1.53962,2.07672 0 0 0 -1.54,-2.077 z m -34.48498,2.16 a 1.84812,1.4595 0 0 0 -1.849,1.46 1.84812,1.4595 0 0 0 1.849,1.459 1.84812,1.4595 0 0 0 1.848,-1.459 1.84812,1.4595 0 0 0 -1.848,-1.46 z m 31.05198,3.24 a 1.50106,1.38235 0 0 0 -1.502,1.383 1.50106,1.38235 0 0 0 1.502,1.382 1.50106,1.38235 0 0 0 1.501,-1.382 1.50106,1.38235 0 0 0 -1.501,-1.383 z m -6.281,2.101 c 0,1.948 0,3.482 0,5.961 l 0,10.114 -5.331,-1.868 -2.246,-9.317 7.574,-4.89 z m -13.519,0.669 3.48,1.9 2.016,8.362 -5.501,-1.987 0,-2.986 c 0,-1.873 0,-3.573 0,-5.289 z M 5.91122,21.944 a 1.34681,1.76812 0 0 0 -1.347,1.768 1.34681,1.76812 0 0 0 1.347,1.768 1.34681,1.76812 0 0 0 1.348,-1.768 1.34681,1.76812 0 0 0 -1.348,-1.768 z m 1.698,4.629 a 1.88668,1.53665 0 0 0 -1.888,1.536 1.88668,1.53665 0 0 0 1.888,1.537 1.88668,1.53665 0 0 0 1.887,-1.537 1.88668,1.53665 0 0 0 -1.887,-1.536 z m 10.51398,2.444 6.021,2.174 0.611,2.534 6.895,2.416 0,8.824 -0.03,0 c 0.03,0 -0.273,-0.03 -0.658,-0.08 -0.386,-0.05 -0.911,-0.123 -1.538,-0.212 -1.254,-0.178 -2.911,-0.422 -4.668,-0.689 -1.758,-0.267 -3.394,-0.517 -4.613,-0.703 -1.171,-0.179 -1.918,-0.295 -2.021,-0.312 l 0,-13.956 z" id="path-main"/>
    </g>
  </defs>
  <g id="acyl-visual">
    <use id="visible1" style="fill:url(#acyl-gradient)" xlink:href="#acyl-drawing"/>
  </g>
</svg>
