<svg xmlns="http://www.w3.org/2000/svg" xmlns:xlink="http://www.w3.org/1999/xlink" width="48" height="48">
  <defs id="acyl-settings">
    <linearGradient id="acyl-gradient" x1="0%" x2="0%" y1="0%" y2="100%">
      <stop offset="100%" style="stop-color:#A0A0A0;stop-opacity:1.000000"/>
    </linearGradient>
    <g id="acyl-filter">
  </g>
    <g id="acyl-drawing">
      <path d="M 2 6 L 2 7.5 L 2 42 L 46 42 L 46 6 L 2 6 z M 5 9 L 43 9 L 43 39 L 5 39 L 5 9 z M 13 16 L 13 36 L 17 36 L 17 16 L 13 16 z M 31 19 L 31 36 L 35 36 L 35 19 L 31 19 z M 19 21 L 19 36 L 23 36 L 23 21 L 19 21 z M 37 22 L 37 36 L 41 36 L 41 22 L 37 22 z M 7 24 L 7 36 L 11 36 L 11 24 L 7 24 z M 25 25 L 25 36 L 29 36 L 29 25 L 25 25 z" id="path-main"/>
    </g>
  </defs>
  <g id="acyl-visual">
    <use id="visible1" style="fill:url(#acyl-gradient)" xlink:href="#acyl-drawing"/>
  </g>
</svg>
