<svg xmlns="http://www.w3.org/2000/svg" xmlns:xlink="http://www.w3.org/1999/xlink" width="48" height="48">
  <defs id="acyl-settings">
    <linearGradient id="acyl-gradient" x1="0%" x2="0%" y1="0%" y2="100%">
      <stop offset="100%" style="stop-color:#A0A0A0;stop-opacity:1.000000"/>
    </linearGradient>
    <g id="acyl-filter">
  </g>
    <g id="acyl-drawing">
      <path d="m 22.8542,2 -0.01,2.5946 c -5.0146,-0.037 -10.0405,1.8551 -13.86626,5.6813 -7.581,7.5813 -7.581,19.8703 0,27.4491 3.88366,3.884 9.00256,5.774 14.09156,5.678 L 23.1045,46 A 21.8983,22.0011 0 0 0 44.7074,23.8727 21.8983,22.0011 0 0 0 22.8542,2 Z m -2.5632,7.4046 2.5484,0 -0.02,9.739 c -0.039,0 -0.077,-0.01 -0.1157,-0.01 -1.2949,0 -2.5139,0.5051 -3.4304,1.4217 -0.9169,0.9162 -1.421,2.1349 -1.421,3.4311 0,1.2962 0.5051,2.5145 1.421,3.4311 0.9162,0.9169 2.1349,1.421 3.4311,1.421 0.057,0 0.1135,-0.01 0.1705,-0.01 l 0.1324,9.6845 -2.7163,0 0,-5.127 C 19.402,33.16 18.5533,32.809 17.7641,32.34 l -3.6244,3.624 -3.4311,-3.431 3.6284,-3.6289 c -0.4649,-0.7878 -0.8156,-1.6356 -1.0398,-2.523 l -5.13696,0 0,-4.8508 5.15226,0 c 0.2288,-0.8806 0.5789,-1.722 1.0453,-2.5037 l -3.6485,-3.6491 3.4311,-3.4304 3.6598,3.6598 c 0.7779,-0.4578 1.6155,-0.8032 2.4903,-1.0265 l 0,-5.1818 z m 6.0745,8.2786 c 0.054,-0.015 0.5972,0.3329 0.7624,0.4875 0.3834,0.3589 0.4711,0.7483 0.2889,1.2859 -0.106,0.3127 -0.9564,1.8065 -2.5578,4.4937 -1.4626,2.4542 -1.4697,2.4643 -1.5969,2.5631 -0.2389,0.1855 -0.5287,0.2612 -0.8125,0.2114 -0.093,-0.017 -0.1899,-0.061 -0.3304,-0.1512 l -0.1986,-0.1277 -0.9622,-1.5226 c -1.066,-1.6866 -1.0798,-1.7144 -1.0452,-2.0857 0.017,-0.1878 0.033,-0.2336 0.1391,-0.4093 0.1025,-0.1699 0.1444,-0.2155 0.2942,-0.319 0.1964,-0.1356 0.4421,-0.2031 0.66,-0.1812 0.173,0.017 0.4865,0.1726 0.5885,0.2909 0.041,0.047 0.2947,0.4336 0.5644,0.858 0.2696,0.4244 0.4935,0.7733 0.4975,0.7757 0,0 0.8325,-1.3829 1.8416,-3.0781 1.0091,-1.6952 1.8494,-3.0865 1.867,-3.0914 z" id="path-main"/>
    </g>
  </defs>
  <g id="acyl-visual">
    <use id="visible1" style="fill:url(#acyl-gradient)" xlink:href="#acyl-drawing"/>
  </g>
</svg>
