<svg xmlns="http://www.w3.org/2000/svg" xmlns:xlink="http://www.w3.org/1999/xlink" width="48" height="48">
  <defs id="acyl-settings">
    <linearGradient id="acyl-gradient" x1="0%" x2="0%" y1="0%" y2="100%">
      <stop offset="100%" style="stop-color:#A0A0A0;stop-opacity:1.000000"/>
    </linearGradient>
    <g id="acyl-filter">
  </g>
    <g id="acyl-drawing">
      <path d="M 11.69,2.636 C 18.94,14.84 24.6,10.76 30.91,10.72 16.82,15.86 15.26,22.9 13.27,22.85 c 0.51,1.02 1.53,1.22 2.87,1.31 -1.66,-1.81 4.89,-8.71 14.84,-12.41 -3.83,5.43 -4.76,15.63 -6.1,15.74 1.07,0.74 1.71,1.02 2.84,0.44 -1.01,-1.12 0.63,-9.79 3.85,-15.3 C 28.95,26.07 42.51,24.16 44.25,34.44 48.23,21.7 45.69,14.06 33.8,10.71 l 0.77,-0.47 -0.94,-1.004 -0.49,0.34 C 28.13,-0.0243 21.27,6.106 11.69,2.636 Z M 10.03,20.33 c -3.021,-0.1 -5.511,1.42 -6.951,4.66 -2.04,4.6 -1.33,10.77 3.39,12.75 2.36,1.77 5.341,1.7 8.041,0.55 -0.6,-2.04 -0.76,-4.28 -0.47,-6.39 0.52,-3.7 2.42,-6.07 5.23,-7.12 -0.75,-0.79 -1.69,-1.54 -2.8,-2.23 -0.41,1.02 -0.18,1.56 0.25,1.92 -2.39,0.28 -3.72,-0.67 -3.96,-1.87 0.45,0.12 1.12,-0.36 1.84,-1.06 -1.61,-0.75 -3.15,-1.16 -4.57,-1.21 z m 1.08,1.72 c -0.1,1.04 1.32,2.45 3.16,3.22 1.13,0.48 1.76,0.28 2.51,0 -0.5,0.68 -1.71,1.16 -3.24,0.53 -1.82,-0.75 -2.88,-2.29 -2.71,-3.26 0,-0.19 0.13,-0.36 0.28,-0.5 z m 11.54,2.85 c -4.26,0.16 -7.22,2.58 -7.88,7.22 -0.78,5.52 1.77,11.92 7.28,12.7 5.15,2.1 10.6,-2.15 12.7,-7.29 2.32,-5.65 -0.66,-9.99 -6.97,-11.89 -0.1,2.06 0.23,2.28 0.4,2.52 -1.38,0.73 -2.65,0.56 -3.64,-0.37 l -0.1,-0.34 C 24.97,27.3 25.4,26.31 25.79,25.16 24.96,25.01 24.16,24.92 23.4,24.9 Z m -1.24,2.07 c 0.28,1.68 2.51,3.2 5.06,3.46 1.56,0.14 2.96,-0.19 3.78,-0.94 -0.36,1.28 -2.38,2.37 -4.48,2.15 -2.51,-0.26 -4.37,-2.11 -4.51,-3.76 0,-0.32 0,-0.63 0.15,-0.91 z" id="path-main"/>
    </g>
  </defs>
  <g id="acyl-visual">
    <use id="visible1" style="fill:url(#acyl-gradient)" xlink:href="#acyl-drawing"/>
  </g>
</svg>
