<svg xmlns="http://www.w3.org/2000/svg" xmlns:xlink="http://www.w3.org/1999/xlink" width="48" height="48">
  <defs id="acyl-settings">
    <linearGradient id="acyl-gradient" x1="0%" x2="0%" y1="0%" y2="100%">
      <stop offset="100%" style="stop-color:#A0A0A0;stop-opacity:1.000000"/>
    </linearGradient>
    <g id="acyl-filter">
  </g>
    <g id="acyl-drawing">
      <path d="m 22.53014,2 c -0.64036,0.0433 -1.2736,0.11472 -1.89815,0.2121 l -0.91313,4.57779 c -1.70031,0.44559 -3.30067,1.12782 -4.75932,2.0282 L 11.04962,6.20616 C 9.21268,7.55366 7.58986,9.17749 6.2444,11.01596 l 2.67864,4.01597 C 8.10679,16.44979 7.4593,17.99158 7.06213,19.62306 l -4.79655,0.94728 c -0.17437,1.11094 -0.26508,2.24735 -0.26508,3.40417 0,1.16039 0.0913,2.30094 0.26667,3.41392 l 4.88986,0.9661 c 0.41807,1.56622 1.05733,3.04682 1.8639,4.4091 L 6.2454,36.93405 c 1.34801,1.84102 2.97387,3.46745 4.81438,4.81597 l 4.17509,-2.7822 c 1.36229,0.80657 2.84338,1.45758 4.4096,1.87565 l 0.9671,4.88986 C 21.72506,45.90872 22.8651,46 24.02549,46 c 1.15683,0 2.29375,-0.0907 3.40367,-0.26458 l 0.94778,-4.79656 c 1.63148,-0.39716 3.17427,-1.0329 4.59212,-1.84915 l 4.01189,2.66898 c 1.84052,-1.34699 3.46696,-2.97131 4.81548,-4.8108 l -2.60276,-3.90544 c 0.90037,-1.45915 1.57134,-3.06 2.01694,-4.76031 l 4.57679,-0.91412 c 0.0979,-0.62455 0.16877,-1.2578 0.2121,-1.89815 v -2.99072 c -0.0433,-0.63679 -0.11373,-1.26641 -0.2106,-1.8874 l -4.48658,-0.8953 c -0.42214,-1.7671 -1.09913,-3.43018 -2.00868,-4.94592 l 2.50329,-3.74731 C 40.45044,9.16678 38.82765,7.54396 36.99071,6.19849 L 33.24798,8.69471 C 31.73274,7.78465 30.06965,7.11923 28.30255,6.69708 L 27.40825,2.21051 C 26.78727,2.11361 26.15764,2.04334 25.52085,2 Z m 2.02401,9.15259 c 3.41948,0 6.63558,1.33021 9.05629,3.74531 l -3.52863,3.5362 C 28.6043,16.96016 26.64143,16.148 24.55415,16.148 c -4.31527,0 -7.82651,3.51073 -7.82651,7.82651 0,4.31527 3.51073,7.82651 7.82651,7.82651 2.08728,0 4.05015,-0.81166 5.52766,-2.28611 l 3.52863,3.53621 c -2.42071,2.4151 -5.63681,3.74531 -9.05629,3.74531 -3.42509,0 -6.64472,-1.33374 -9.06645,-3.75547 -2.42173,-2.42173 -3.75537,-5.64187 -3.75537,-9.06645 0,-3.42509 1.33364,-6.64472 3.75537,-9.06645 2.42173,-2.42173 5.64187,-3.75547 9.06645,-3.75547 z" id="path-main"/>
    </g>
  </defs>
  <g id="acyl-visual">
    <use id="visible1" style="fill:url(#acyl-gradient)" xlink:href="#acyl-drawing"/>
  </g>
</svg>
