<svg xmlns="http://www.w3.org/2000/svg" xmlns:xlink="http://www.w3.org/1999/xlink" width="48" height="48">
  <defs id="acyl-settings">
    <linearGradient id="acyl-gradient" x1="0%" x2="0%" y1="0%" y2="100%">
      <stop offset="100%" style="stop-color:#A0A0A0;stop-opacity:1.000000"/>
    </linearGradient>
    <g id="acyl-filter">
  </g>
    <g id="acyl-drawing">
      <path d="M 24,2 C 11.8489,2 2,11.8489 2,24 2,36.1511 11.8489,46 24,46 36.1511,46 46,36.1511 46,24 46,11.8489 36.1511,2 24,2 Z m -0.7097,2.8748 0,8.4495 c 0.4291,-0.4468 0.9017,-0.8526 1.4165,-1.2003 l 0,-7.2492 c 0.027,0 0.051,0 0.075,0 1.889,1.5725 3.5254,3.5286 4.8485,5.7633 0.5963,0 1.178,0.071 1.741,0.1913 -1.1554,-2.1457 -2.5824,-4.072 -4.2249,-5.7135 3.9174,0.6515 7.4319,2.4829 10.1684,5.1313 -0.9132,0.7004 -1.884,1.3249 -2.8997,1.8796 0.4222,0.2852 0.8152,0.6093 1.1809,0.9619 0.9396,-0.5457 1.8378,-1.1517 2.6918,-1.8158 2.8713,3.2234 4.6671,7.4088 4.8374,12.0147 l -5.8132,0 c -0.2571,0.5019 -0.5607,0.9764 -0.9066,1.4165 l 6.7198,0 c -0.1859,5.0202 -2.2907,9.5556 -5.6219,12.8713 -1.5471,-1.1042 -3.2235,-2.0377 -5.0232,-2.7389 1.0711,-2.559 1.7487,-5.3679 2.0071,-8.3221 -0.466,0.3218 -0.9638,0.5987 -1.4888,0.8262 -0.3036,2.482 -0.9353,4.8396 -1.8461,7.0108 -2.0411,-0.6572 -4.2057,-1.0241 -6.4426,-1.0922 l -1.4194,0 c -0.4877,0.016 -0.9696,0.048 -1.4499,0.091 -1.0625,0.115 -1.3821,0.66 -1.8213,1.1722 l -0.6236,0.621 c 1.263,-0.2621 2.5629,-0.423 3.8948,-0.4657 l 0,8.444 -0.075,0 0,0 c -2.099,-1.7479 -3.8737,-3.981 -5.2644,-6.5341 -0.417,0.6909 -0.705,0.4147 -1.3057,0.5906 1.1551,2.1375 2.5666,4.0669 4.2081,5.7023 -3.5099,-0.5852 -6.6976,-2.1149 -9.2894,-4.3348 0.7192,-0.4987 1.4702,-0.9562 2.2483,-1.3693 -0.8584,0.2198 -1.7123,-0.2398 -2.1097,-0.4077 -0.4104,0.2583 -0.812,0.5282 -1.2059,0.8096 C 7.1639,34.2613 5.0606,29.7259 4.8747,24.707 l 8.5106,0 c 0.026,1.0407 0.1206,2.0592 0.2522,3.0633 l 1.2946,-1.2946 C 14.8797,25.8894 14.82,25.3054 14.8044,24.7068 l 1.8961,0 1.4194,-1.4193 -3.3155,0 c 0.077,-2.9721 0.6031,-5.812 1.5386,-8.408 1.649,0.5722 3.3789,0.9656 5.17,1.1559 0.1993,-0.4816 0.4421,-0.9409 0.7209,-1.3749 -1.8584,-0.1478 -3.655,-0.5081 -5.3559,-1.0895 1.4775,-3.4817 3.6603,-6.468 6.3372,-8.6964 0.026,0 0.05,0 0.075,0 z m -2.4367,0.2466 c -2.2,2.1958 -4.0101,4.9015 -5.3032,7.9646 -1.7529,-0.731 -3.3792,-1.6963 -4.8652,-2.836 2.7351,-2.6485 6.251,-4.4771 10.1684,-5.1286 z M 9.7122,11.2758 c 1.6152,1.2561 3.3884,2.3195 5.3031,3.1186 -0.9921,2.7493 -1.5519,5.7521 -1.6299,8.8959 l -8.5106,0 C 5.0451,18.6845 6.8394,14.4991 9.7122,11.2758 Z m 19.8433,0.7816 c -4.0239,0 -7.2826,3.2631 -7.2826,7.2909 0,0.558 0.078,1.1003 0.1746,1.6217 l -11.1441,11.1442 0,1.8213 1.8185,1.8241 3.651,0 1.8269,-1.8241 0,-1.8213 1.8213,0 0,-1.8242 1.8186,0 0,-1.824 3.6426,0 2.0181,-2.0153 c 0.5349,0.122 1.0882,0.1884 1.6551,0.1884 4.0317,0 7.2963,-3.2657 7.2963,-7.2936 0,-4.027 -3.2724,-7.2881 -7.2963,-7.2881 z m 1.8019,3.6482 c 1.006,0 1.8213,0.8182 1.8213,1.8241 0,1.0061 -0.8153,1.8213 -1.8213,1.8213 -1.0059,0 -1.8269,-0.8152 -1.8269,-1.8213 0,-1.0059 0.821,-1.8241 1.8269,-1.8241 z m -9.1177,7.2909 0,1.824 -9.1178,9.115 0,-1.8213 z m 2.47,11.6847 c 2.0325,0.065 4.0024,0.3842 5.8604,0.9647 -1.4492,2.9622 -3.4267,5.5123 -5.7856,7.4766 l -0.075,0 z m 7.2021,1.4554 c 1.6138,0.6231 3.1233,1.4438 4.5242,2.4118 -2.5918,2.2184 -5.7795,3.7495 -9.2896,4.3329 1.9076,-1.9006 3.5263,-4.1785 4.7654,-6.7447 z" id="path-main"/>
    </g>
  </defs>
  <g id="acyl-visual">
    <use id="visible1" style="fill:url(#acyl-gradient)" xlink:href="#acyl-drawing"/>
  </g>
</svg>
