<svg xmlns="http://www.w3.org/2000/svg" xmlns:xlink="http://www.w3.org/1999/xlink" width="48" height="48">
  <defs id="acyl-settings">
    <linearGradient id="acyl-gradient" x1="0%" x2="0%" y1="0%" y2="100%">
      <stop offset="100%" style="stop-color:#A0A0A0;stop-opacity:1.000000"/>
    </linearGradient>
    <g id="acyl-filter">
  </g>
    <g id="acyl-drawing">
      <path d="m 4.29348,3.0613 c -1.16111,0 -2.10209,0.9298 -2.10209,2.0909 l 0,37.6956 c 0,1.1609 0.94098,2.0909 2.10209,2.0909 l 39.41322,0 c 1.1612,0 2.1019,-0.93 2.1019,-2.0909 l 0,-37.6956 c 0,-1.1611 -0.9407,-2.0909 -2.1019,-2.0909 l -39.41322,0 z m -0.005,0.69 39.42242,0 c 1.1612,0 1.3277,0.1665 1.3277,1.3277 l 0,24.6629 c -0.9102,0.4558 -1.5887,1.6621 -2.0094,1.9018 -1.1792,0.6723 -2.4308,0.2651 -3.1218,1.842 -0.2553,0.5829 -0.2411,1.1859 -0.7414,1.4711 -1.4127,0.8054 -3.311,0.168 -4.7365,0.9808 -2.1585,1.2306 -4.8078,1.7614 -7.1884,2.44 -0.4552,0.1297 -0.7156,0.803 -1.1841,0.9806 -1.8892,0.718 -4.674,-0.3139 -6.8729,-0.6346 -0.2531,-0.1792 -0.3594,-0.4455 -0.2759,-0.7782 0.077,-0.3069 0.028,-0.6941 -0.1106,-0.8604 -0.1583,-0.1906 -0.2423,-1.357 -0.2273,-3.1546 0.02,-2.4534 0.085,-2.9306 0.459,-3.4065 0.2394,-0.3043 0.5673,-0.8078 0.7289,-1.1191 0.1615,-0.3115 0.9072,-1.0177 1.6572,-1.5698 0.7501,-0.5523 1.6278,-1.3502 1.9504,-1.7732 1.3426,-1.7602 1.7427,-4.3371 1.1744,-7.5644 -0.4189,-2.3793 -0.3264,-2.7349 0.8574,-3.2967 1.4473,-0.6868 5.2557,-0.3255 7.2079,0.684 0.3604,0.1864 0.5861,0.2272 0.5016,0.09 -0.4689,-0.7587 -2.9647,-1.5729 -5.9557,-1.9437 -0.7505,-0.093 -1.6281,-0.4105 -2.3144,-0.8372 -1.0303,-0.6405 -1.1661,-0.6696 -1.9937,-0.4216 -1.4814,0.4438 -1.8151,1.0954 -1.8151,3.5463 0,1.1562 -0.1211,2.3693 -0.2698,2.6957 -0.1568,0.3441 -0.736,0.8297 -1.3778,1.1549 -2.1433,1.0861 -5.4931,3.7479 -8.7298,6.9372 -1.79913,1.773 -3.87153,3.6197 -4.60559,4.1041 -1.33096,0.8781 -1.3333,0.8815 -0.67728,1.0136 l 0.65787,0.1323 -0.62047,0.1742 c -0.34125,0.096 -0.62047,0.2587 -0.62047,0.3626 0,0.2451 1.74532,-0.2773 3.85657,-1.1542 1.60307,-0.6659 2.41907,-0.8112 7.06427,-1.2604 1.6729,-0.1618 1.7213,-0.1031 0.7819,0.9449 -0.4023,0.449 -0.39,0.5115 0.4852,2.5417 0.8904,2.0653 1.1832,3.9014 0.6721,4.2175 -0.2296,0.142 -0.2691,0.2844 -0.1062,0.4612 -3.076,0.1516 -8.07239,1.371 -10.71453,-0.1351 C 6.26705,38.1911 5.50614,37.6273 4.8985,37.3963 4.1445,37.1097 3.87639,37.1292 2.96096,37.2288 l 0,-32.1503 c 0,-1.1612 0.16651,-1.3277 1.32764,-1.3277 z M 17.9084,30.6345 c 0.1422,0.016 0.1863,0.3435 0.082,0.9494 -0.091,0.5274 -0.1541,1.2891 -0.142,1.6924 0.026,0.8496 -0.088,0.9188 -0.4366,0.2676 -0.3473,-0.6489 -0.3423,-1.701 0.011,-2.3614 0.2052,-0.3835 0.3746,-0.5601 0.4852,-0.548 z" id="path-main"/>
    </g>
  </defs>
  <g id="acyl-visual">
    <use id="visible1" style="fill:url(#acyl-gradient)" xlink:href="#acyl-drawing"/>
  </g>
</svg>
