<svg xmlns="http://www.w3.org/2000/svg" xmlns:xlink="http://www.w3.org/1999/xlink" width="48" height="48">
  <defs id="acyl-settings">
    <linearGradient id="acyl-gradient" x1="0%" x2="0%" y1="0%" y2="100%">
      <stop offset="100%" style="stop-color:#A0A0A0;stop-opacity:1.000000"/>
    </linearGradient>
    <g id="acyl-filter">
  </g>
    <g id="acyl-drawing">
      <path d="M 19.9258 2.81445 C 10.0535 2.81445 2 10.8809 2 20.7402 C 2 30.5994 10.0535 38.666 19.9258 38.666 C 24.0842 38.666 27.91 37.2237 30.957 34.8301 L 40.3965 44.2695 C 41.0125 44.8822 41.8765 45.1855 42.7402 45.1855 L 46 45.1855 L 46 41.9258 C 46 41.0621 45.7065 40.1947 45.084 39.582 L 35.3379 29.8359 C 36.9243 27.1632 37.8516 24.058 37.8516 20.7402 C 37.8516 18.9574 37.526 17.2761 37.0371 15.6465 L 23.3906 29.2969 L 19.9258 32.7578 L 16.4648 29.2969 L 6.6875 19.5195 L 13.6133 12.5918 L 19.9258 18.9062 L 31.6406 7.19531 C 28.4889 4.47056 24.3942 2.81445 19.9258 2.81445 z " id="path-main"/>
    </g>
  </defs>
  <g id="acyl-visual">
    <use id="visible1" style="fill:url(#acyl-gradient)" xlink:href="#acyl-drawing"/>
  </g>
</svg>
