<svg xmlns="http://www.w3.org/2000/svg" xmlns:xlink="http://www.w3.org/1999/xlink" width="48" height="48">
  <defs id="acyl-settings">
    <linearGradient id="acyl-gradient" x1="0%" x2="0%" y1="0%" y2="100%">
      <stop offset="100%" style="stop-color:#A0A0A0;stop-opacity:1.000000"/>
    </linearGradient>
    <g id="acyl-filter">
  </g>
    <g id="acyl-drawing">
      <path id="path-main" d="M 5.609375,8.0220125 C 3.6047734,8.0220125 2,9.5993402 2,11.54545 l 0,24.119791 c 0,1.94611 1.6047734,3.523438 3.609375,3.523438 l 36.78125,0 C 44.395226,39.188679 46,37.611352 46,35.665241 L 46,11.54545 C 46,9.5993402 44.395226,8.0220125 42.390625,8.0220125 l -36.78125,0 z m -0.1432292,3.6093745 37.0677082,0 0,23.947917 -37.0677082,0 0,-23.947917 z m 2.3203125,2.377604 0,19.192709 32.4270837,0 0,-19.192709 -32.4270837,0 z"/>
    </g>
  </defs>
  <g id="acyl-visual">
    <use id="visible1" style="fill:url(#acyl-gradient)" xlink:href="#acyl-drawing"/>
  </g>
</svg>
