<svg xmlns="http://www.w3.org/2000/svg" xmlns:xlink="http://www.w3.org/1999/xlink" width="48" height="48">
  <defs id="acyl-settings">
    <linearGradient id="acyl-gradient" x1="0%" x2="0%" y1="0%" y2="100%">
      <stop offset="100%" style="stop-color:#A0A0A0;stop-opacity:1.000000"/>
    </linearGradient>
    <g id="acyl-filter">
  </g>
    <g id="acyl-drawing">
      <path id="path-main" d="m 44.76,34.23 c -2.07,-3.8 -3.77,-6.1 -6.63,-9 -3.95,-4.1 -6.2,-5.6 -10.6,-7 -6.36,-1.98 -12.73,-1.75 -16.15,0.6 -1.98,1.4 -1.83,1.5 2.76,1.4 5.95,-0.1 9.59,0.7 14.07,3 3.17,1.6 7.03,4.8 7.03,5.8 0,0.6 -0.37,0.5 -1.54,-0.2 -2.56,-1.8 -8.66,-4.2 -11.41,-4.6 -1.01,-0.1 -1.15,-0.1 -1.15,0.3 0,0.5 1.6,2 2.93,2.8 0.84,0.5 1.06,0.7 0.99,1.1 -0.1,0.4 -0.18,0.5 -1.17,0.4 -1.89,-0.1 -4.13,-0.7 -5.51,-1.4 -1.21,-0.7 -2.15,-1.7 -3.48,-3.6 -0.39,-0.5 -0.45,-0.6 -2.09,-0.4 -2.94,0.2 -5.37,0.7 -7.62,1.6 -2.75,1.2 -3.09,1.1 -3.17,-0.2 -0.1,-0.9 0.1,-1.2 0.75,-2.2 0.44,-0.7 0.95,-1.7 1.12,-2.4 0.44,-1.7 1.16,-2.87 2.51,-4.08 3.88,-3.48 10.96,-4.54 18.57,-2.77 l 1.76,0.4 1.02,-0.52 c 1.54,-0.77 3.5,-1.21 5.46,-1.21 2.19,0 3.07,0.17 3.24,0.62 0.18,0.45 -0.22,0.77 -1.47,1.24 -2.63,0.96 -2.78,1.78 -0.67,3.57 2.69,2.35 5.29,5.15 6.75,7.25 2.64,4 5.13,9.5 4.93,11 0,0.5 -0.26,0.2 -1.23,-1.5 z"/>
    </g>
  </defs>
  <g id="acyl-visual">
    <use id="visible1" style="fill:url(#acyl-gradient)" xlink:href="#acyl-drawing"/>
  </g>
</svg>
