<svg xmlns="http://www.w3.org/2000/svg" xmlns:xlink="http://www.w3.org/1999/xlink" width="48" height="48">
  <defs id="acyl-settings">
    <linearGradient id="acyl-gradient" x1="0%" x2="0%" y1="0%" y2="100%">
      <stop offset="100%" style="stop-color:#A0A0A0;stop-opacity:1.000000"/>
    </linearGradient>
    <g id="acyl-filter">
  </g>
    <g id="acyl-drawing">
      <path d="M 13.25,5.85578 C 9.5,5.98078 6,7.23078 4,9.23078 l 0,2.01952 -2,0 0,29.211 18.2207,0 c 0.9258,1.0379 2.2788,1.6933 3.7793,1.6933 1.5005,0 2.8542,-0.6554 3.7793,-1.6933 l 18.2207,0 0,-29.211 -2,0 0,-2.01952 c -4,-4 -14,-5 -20,0 -3,-2.5 -7,-3.5 -10.75,-3.375 z m 0.084,1.3457 c 4.4286,-0.064 9.1035,1.461 9.666,4.58792 l -0.016,26.1953 C 22.2674,37.6443 21.4116,37.4802 20.6152,37.0765 14.9998,34.2303 11,34.2303 5.5,37.0765 l 0,-26.8457 C 6.59375,8.26203 9.88951,7.25124 13.334,7.20148 Z m 21.6445,0.0156 c 3.3289,0.10505 6.461,1.10494 7.5215,3.01369 l 0,26.8457 c -5.5,-2.8462 -10.4998,-2.8462 -15.1152,0 -0.7737,0.4771 -1.6569,0.6199 -2.3926,0.9512 L 25,11.7894 c 0.3106,-1.7265 1.8942,-2.94534 3.9785,-3.69729 l 0,16.60349 3,-3.9179 3,3.9179 0,-17.47849 z" id="path-main"/>
    </g>
  </defs>
  <g id="acyl-visual">
    <use id="visible1" style="fill:url(#acyl-gradient)" xlink:href="#acyl-drawing"/>
  </g>
</svg>
