<svg xmlns="http://www.w3.org/2000/svg" xmlns:xlink="http://www.w3.org/1999/xlink" width="48" height="48">
  <defs id="acyl-settings">
    <linearGradient id="acyl-gradient" x1="0%" x2="0%" y1="0%" y2="100%">
      <stop offset="100%" style="stop-color:#A0A0A0;stop-opacity:1.000000"/>
    </linearGradient>
    <g id="acyl-filter">
  </g>
    <g id="acyl-drawing">
      <path id="path-main" d="M 8.035 2 C 4.692 2 2 4.692 2 8.035 L 2 39.96 C 2 43.31 4.692 46 8.035 46 L 39.96 46 C 43.31 46 46 43.31 46 39.96 L 46 8.035 C 46 4.692 43.31 2 39.96 2 L 8.035 2 z M 22.66 9.594 L 22.67 9.594 C 23.84 9.654 26.13 9.661 25.4 11.5 C 25.02 13.56 22.51 11.07 21.23 12.39 C 19.58 13.56 19.54 15.76 19.13 17.57 L 22.25 17.57 C 23.69 17.29 23.13 19.72 22.21 20.01 L 18.62 20.01 C 17.91 23.56 17.2 27.13 16.48 30.69 C 15.91 33.13 15.71 35.67 14.64 37.96 C 13.61 40.41 10.7 41.37 8.277 40.83 C 6.785 40.67 7.657 37.55 9.092 38.5 C 10.85 38.82 12.24 37.39 12.5 35.7 C 13.63 30.53 14.61 25.31 15.68 20.09 C 15.37 19.88 14.56 20.07 14.07 20.01 C 12.6 20.39 12.96 18.32 13.66 17.67 C 14.46 17.45 15.35 17.63 16.19 17.57 C 16.52 16.06 16.69 14.5 17.32 13.08 C 18.13 10.92 20.35 9.47 22.66 9.594 z M 31.06 9.664 C 31.19 9.666 31.32 9.684 31.46 9.719 C 31.91 9.76 32.83 9.613 32.83 10.29 C 32.22 13.15 31.75 16.04 31.05 18.88 C 30.99 19.4 30.29 21.28 30.57 20.74 C 31.85 18.76 34.13 17.33 36.52 17.23 C 38.59 17.09 40.59 18.53 41.04 20.59 C 41.86 24.17 40.91 27.99 39.09 31.14 C 37.38 34.21 33.3 35.73 30.1 34.21 C 29.08 34.05 27.93 31.39 27.9 33.41 C 28.06 34.84 25.51 35.07 25.16 34.05 C 26.66 26.46 28.19 18.87 29.68 11.28 C 29.68 10.39 30.17 9.649 31.06 9.664 z M 35.79 19.76 C 33.91 19.79 32.38 21.18 31.37 22.61 C 29.71 24.68 29.46 27.32 28.95 29.8 C 29.87 31.91 32.92 33.09 34.89 31.64 C 37.28 29.8 38.01 26.59 38.27 23.72 C 38.43 22.1 37.85 19.68 35.79 19.76 z"/>
    </g>
  </defs>
  <g id="acyl-visual">
    <use id="visible1" style="fill:url(#acyl-gradient)" xlink:href="#acyl-drawing"/>
  </g>
</svg>
