<svg xmlns="http://www.w3.org/2000/svg" xmlns:xlink="http://www.w3.org/1999/xlink" width="48" height="48">
  <defs id="acyl-settings">
    <linearGradient id="acyl-gradient" x1="0%" x2="0%" y1="0%" y2="100%">
      <stop offset="100%" style="stop-color:#A0A0A0;stop-opacity:1.000000"/>
    </linearGradient>
    <g id="acyl-filter">
  </g>
    <g id="acyl-drawing">
      <path id="path-main" d="m 18.3,2.19 c -2.22,0.03 -3.42,1.454 -3.95,2.798 -0.54,1.344 -0.52,2.676 -0.52,2.676 0,0.256 0.23,0.456 0.49,0.456 h 22.65 v 2.01 h -2.8 c -0.26,0 -0.48,0.21 -0.48,0.48 v 1.92 c 0,0.27 0.22,0.49 0.48,0.49 h 2.8 v 0.88 h -2.8 c -0.26,0 -0.48,0.22 -0.48,0.48 v 1.71 c 0,0.27 0.22,0.48 0.48,0.48 h 2.8 v 1.07 h -2.8 c -0.26,0 -0.48,0.22 -0.48,0.48 v 1.8 c 0,0.27 0.22,0.48 0.48,0.48 h 2.8 v 0.92 h -2.8 c -0.26,0 -0.48,0.21 -0.48,0.48 v 1.74 c 0,0.27 0.22,0.48 0.48,0.48 h 2.8 v 1.01 h -2.8 c -0.26,0 -0.48,0.21 -0.48,0.48 v 1.86 c 0,0.27 0.22,0.48 0.48,0.48 h 2.8 v 0.95 h -2.8 c -0.26,0 -0.48,0.21 -0.48,0.48 v 1.8 c 0,0.27 0.22,0.48 0.48,0.48 h 2.8 v 0.86 h -2.8 c -0.26,0 -0.48,0.21 -0.48,0.48 v 1.74 c 0,0.26 0.22,0.48 0.48,0.48 h 2.8 v 1.55 c -0.43,0 -4.87,0 -10.12,-0.1 -5.51,0 -11.38,0 -13.11,0.1 -0.25,0 -0.44,0.21 -0.46,0.46 -0.15,2.27 0.76,3.77 1.71,4.62 0.94,0.85 1.94,1.1 1.94,1.1 0,0 0.1,0 0.13,0 h 19.91 v 2.49 c 0,0.27 0.22,0.49 0.49,0.49 h 3.4 c 0.27,0 0.49,-0.22 0.49,-0.49 v -2.59 c 2.2,-0.25 3.47,-1.59 4.05,-2.88 0.62,-1.4 0.6,-2.74 0.6,-2.74 0,-0.27 -0.21,-0.49 -0.48,-0.49 h -4.17 v -1.55 h 2.83 c 0.27,0 0.49,-0.22 0.49,-0.48 v -1.74 c 0,-0.27 -0.22,-0.48 -0.49,-0.48 h -2.83 v -0.86 h 2.83 c 0.27,0 0.49,-0.21 0.49,-0.48 v -1.8 c 0,-0.27 -0.22,-0.48 -0.49,-0.48 h -2.83 v -0.95 h 2.83 c 0.27,0 0.49,-0.21 0.49,-0.48 V 25.48 C 44.67,25.21 44.45,25 44.18,25 h -2.83 v -1.01 h 2.83 c 0.27,0 0.49,-0.21 0.49,-0.48 v -1.74 c 0,-0.27 -0.22,-0.48 -0.49,-0.48 h -2.83 v -0.92 h 2.83 c 0.27,0 0.49,-0.21 0.49,-0.48 v -1.8 c 0,-0.23 -0.22,-0.45 -0.49,-0.45 h -2.83 v -1.07 h 2.83 c 0.27,0 0.49,-0.21 0.49,-0.48 v -1.71 c 0,-0.26 -0.22,-0.48 -0.49,-0.48 h -2.83 v -0.88 h 2.83 c 0.27,0 0.49,-0.22 0.49,-0.49 v -1.92 c 0,-0.27 -0.22,-0.48 -0.49,-0.48 H 41.35 V 8.12 h 4.11 c 0.25,0 0.47,-0.2 0.48,-0.456 C 46,5.263 45.07,3.83 44.09,3.072 43.11,2.315 42.08,2.19 42.08,2.19 c 0,0 0,0 -0.1,0 0,0 -19.63,-0.05 -23.72,0 z M 6.501,9.397 c -0.714,0 -1.198,0.225 -1.521,1.433 -0.529,1.39 -0.957,2.83 -1.398,4.25 -0.77,2.52 -1.572,5.41 -1.581,7.33 0.1,3.68 2.075,9.18 2.493,10.74 0.41,1.53 0.928,2.31 1.885,2.31 l 22.351,0.1 c 0.33,0 0.6,-0.1 0.89,-0.32 0.29,-0.22 0.35,-0.26 0.63,-1.11 0.29,-0.86 0.88,-2.8 1.31,-4.2 0.72,-2.48 1.45,-5.39 1.46,-7.3 0,-1.9 -0.7,-4.82 -1.4,-7.35 C 31.27,13.97 30.94,12.81 30.68,11.95 30.49,11.36 30.39,10.79 30.1,10.19 29.81,9.588 29.41,9.458 28.85,9.458 Z"/>
    </g>
  </defs>
  <g id="acyl-visual">
    <use id="visible1" style="fill:url(#acyl-gradient)" xlink:href="#acyl-drawing"/>
  </g>
</svg>
