<svg xmlns="http://www.w3.org/2000/svg" xmlns:xlink="http://www.w3.org/1999/xlink" width="48" height="48">
  <defs id="acyl-settings">
    <linearGradient id="acyl-gradient" x1="0%" x2="0%" y1="0%" y2="100%">
      <stop offset="100%" style="stop-color:#A0A0A0;stop-opacity:1.000000"/>
    </linearGradient>
    <g id="acyl-filter">
  </g>
    <g id="acyl-drawing">
      <path d="m 23,47.81 c -0.28,-0.1 -0.53,-0.19 -0.57,-0.19 -0,0 -4.95,-4.88 -10.94,-10.86 C -0.3335,24.95 9.149e-4,25.32 0.004,23.94 0.0069,22.61 -0.0642,22.7 7.807,14.81 11.82,10.8 15.19,7.52 15.29,7.52 c 0.11,0 1.37,1.179 2.81,2.62 2.59,2.61 2.6,2.62 2.5,3.04 -0.1,0.23 -0.11,0.78 -0.1,1.23 0,1.26 0.67,2.33 1.85,3.05 l 0.33,0.21 0,6.58 c 0,6.53 0,6.57 -0.26,6.71 -0.54,0.28 -1.26,1.06 -1.59,1.67 -0.45,0.88 -0.48,2.26 -0,3.1 1.38,2.81 5.25,2.83 6.62,0.1 0.28,-0.6 0.32,-0.8 0.27,-1.65 -0,-0.72 -0.12,-1.14 -0.35,-1.58 -0.27,-0.55 -0.5,-0.8 -1.36,-1.49 -0.27,-0.23 -0.27,-0.24 -0.27,-6.55 0,-3.48 0,-6.35 0.1,-6.39 0.1,-0 1.19,1.03 2.52,2.36 2.33,2.33 2.41,2.42 2.27,2.76 -0.19,0.5 -0.15,1.57 0.1,2.24 0.27,0.79 1.06,1.63 1.9,2.04 2.35,1.17 5.17,-0.62 5.17,-3.27 0,-1.4 -0.87,-2.76 -2.15,-3.33 -0.55,-0.25 -0.85,-0.29 -1.73,-0.28 l -1.07,0 -2.58,-2.57 -2.57,-2.57 0.1,-1.05 c 0,-0.96 0,-1.13 -0.27,-1.75 -0.39,-0.79 -1.13,-1.5 -1.92,-1.85 -0.43,-0.19 -0.78,-0.24 -1.62,-0.21 l -1.06,0 -2.62,-2.621 C 18.72,6.635 17.55,5.366 17.55,5.26 c 0,-0.107 1.02,-1.217 2.29,-2.468 2.51,-2.4969 2.93,-2.7854 4.1,-2.788 1.38,-0.00309 1.01,-0.3325 12.73,11.416 5.94,5.95 10.9,11.01 11.02,11.25 0.32,0.65 0.37,1.63 0.12,2.41 -0.2,0.64 -0.72,1.19 -11.14,11.59 -9.99,9.99 -10.97,10.94 -11.53,11.13 -0.75,0.25 -1.48,0.25 -2.14,0 z " id="path-main"/>
    </g>
  </defs>
  <g id="acyl-visual">
    <use id="visible1" style="fill:url(#acyl-gradient)" xlink:href="#acyl-drawing"/>
  </g>
</svg>
