<svg xmlns="http://www.w3.org/2000/svg" xmlns:xlink="http://www.w3.org/1999/xlink" width="48" height="48">
  <defs id="acyl-settings">
    <linearGradient id="acyl-gradient" x1="0%" x2="0%" y1="0%" y2="100%">
      <stop offset="100%" style="stop-color:#A0A0A0;stop-opacity:1.000000"/>
    </linearGradient>
    <g id="acyl-filter">
  </g>
    <g id="acyl-drawing">
      <path d="m 19.875,2 0,6.015625 C 18.351766,8.4066777 16.984298,9.0382895 15.664062,9.8203125 L 11.367188,5.5234375 5.5234375,11.367188 9.820313,15.664063 C 9.03829,16.984299 8.406676,18.351767 8.015625,19.875 L 2,19.875 l 0,8.25 6.015625,0 c 0.391051,1.523233 1.022665,2.890701 1.804688,4.210937 l -4.2968755,4.296875 5.8437505,5.84375 4.296874,-4.296875 c 1.320236,0.782023 2.687704,1.413638 4.210938,1.804688 l 0,6.015625 8.25,0 0,-6.015625 c 1.523233,-0.39105 2.890701,-1.022665 4.210937,-1.804688 l 4.296875,4.296875 5.84375,-5.84375 -4.296875,-4.296875 c 0.782024,-1.320236 1.413638,-2.687704 1.804688,-4.210937 l 6.015625,0 0,-8.25 -6.015625,0 c -0.39105,-1.523233 -1.022664,-2.890701 -1.804688,-4.210937 l 4.296875,-4.296875 -5.84375,-5.8437505 -4.296875,4.296875 C 31.015701,9.0382895 29.648233,8.4066777 28.125,8.015625 L 28.125,2 19.875,2 z M 24,18.5 c 3.036,0 5.5,2.464 5.5,5.5 0,3.036 -2.464,5.5 -5.5,5.5 -3.036,0 -5.5,-2.464 -5.5,-5.5 0,-3.036 2.464,-5.5 5.5,-5.5 z" id="path-main"/>
    </g>
  </defs>
  <g id="acyl-visual">
    <use id="visible1" style="fill:url(#acyl-gradient)" xlink:href="#acyl-drawing"/>
  </g>
</svg>
