<svg xmlns="http://www.w3.org/2000/svg" xmlns:xlink="http://www.w3.org/1999/xlink" width="48" height="48">
  <defs id="acyl-settings">
    <linearGradient id="acyl-gradient" x1="0%" x2="0%" y1="0%" y2="100%">
      <stop offset="100%" style="stop-color:#A0A0A0;stop-opacity:1.000000"/>
    </linearGradient>
    <g id="acyl-filter">
  </g>
    <g id="acyl-drawing">
      <path d="m 3.25,3.25 0,41.5 41.5,0 0,-3 -38.5,0 0,-38.5 z m 22.1133,2.24414 c -0.8845,0 -1.6133,0.72878 -1.6133,1.61328 l 0,7.52928 c 0,0.8845 0.7288,1.6133 1.6133,1.6133 l 15.0586,0 c 0.8846,0 1.6133,-0.7288 1.6133,-1.6133 l 0,-1.6133 c 0.1453,0.01 0.2594,0.01 0.4355,0 0.3384,-0.011 0.7518,-0.083 1.1094,-0.3691 0.3997,-0.3101 0.5689,-0.7701 0.6054,-1.1426 0.035,-0.359 -0.01,-0.6487 0,-0.875 l 0,-0.033 C 44.292,9.72069 43.6849,8.78935 42.707,8.72266 l -0.033,0 -0.6386,0 0,-1.61524 c 0,-0.8845 -0.7289,-1.61328 -1.6133,-1.61328 l -15.0586,0 z m 7.0254,1.07617 7.5293,7.52929 -5.3789,-2.1523 0,3.2265 -8.6036,-7.52732 6.4532,3.22652 z m 9.6465,3.22657 0.6035,0 c 0.2957,0.0204 0.5153,0.38752 0.4707,0.70512 l 0,0.033 c -0.015,0.3456 0.021,0.6564 0,0.875 -0.021,0.2186 -0.043,0.3057 -0.168,0.4023 l -0.033,0 c -0.114,0.091 -0.2372,0.1273 -0.4687,0.1348 -0.1069,0.01 -0.2704,0.01 -0.4043,0 l 0,-2.15042 z M 9.75,22.05 l 0,16.2 6,0 0,-16.2 z m 18,2 0,14.2 6,0 0,-14.2 z m -9,2 0,12.2 6,0 0,-12.2 z m 18,2 0,10.2 6,0 0,-10.2 z" id="path-main"/>
    </g>
  </defs>
  <g id="acyl-visual">
    <use id="visible1" style="fill:url(#acyl-gradient)" xlink:href="#acyl-drawing"/>
  </g>
</svg>
