<svg xmlns="http://www.w3.org/2000/svg" xmlns:xlink="http://www.w3.org/1999/xlink" width="48" height="48">
  <defs id="acyl-settings">
    <linearGradient id="acyl-gradient" x1="0%" x2="0%" y1="0%" y2="100%">
      <stop offset="100%" style="stop-color:#A0A0A0;stop-opacity:1.000000"/>
    </linearGradient>
    <g id="acyl-filter">
  </g>
    <g id="acyl-drawing">
      <path id="path-main" d="M 21.39 2 C 20.4 2.037 19.87 2.834 19.6 3.857 L 18.78 7.383 C 17.81 7.689 16.87 8.076 15.98 8.539 L 12.87 6.615 C 12.11 6.176 10.96 5.887 10.23 6.615 L 6.656 10.21 C 5.928 10.94 6.114 11.89 6.656 12.83 L 8.566 15.93 C 8.091 16.83 7.694 17.79 7.383 18.78 L 3.857 19.6 C 2.81 19.88 2 20.44 2 21.47 L 2 26.54 C 2 27.57 3.009 28.17 3.857 28.4 L 7.383 29.22 C 7.692 30.2 8.082 31.16 8.553 32.06 L 6.656 35.13 C 6.114 36.07 5.928 37.04 6.656 37.77 L 10.23 41.34 C 10.96 42.07 12.11 41.78 12.87 41.34 L 15.94 39.45 C 16.84 39.92 17.8 40.31 18.78 40.62 L 19.6 44.14 C 19.88 45.19 20.44 46 21.47 46 L 26.53 46 C 27.56 46 28.17 44.99 28.4 44.14 L 29.22 40.62 C 30.22 40.3 31.18 39.91 32.09 39.43 L 35.13 41.32 C 36.07 41.86 37.04 42.05 37.77 41.32 L 41.34 37.72 C 42.07 37 41.78 35.86 41.34 35.1 L 39.45 32.03 C 39.91 31.14 40.31 30.2 40.62 29.22 L 44.14 28.4 C 44.99 28.17 46 27.57 46 26.54 L 46 21.47 C 46 20.44 45.19 19.88 44.14 19.6 L 40.62 18.78 C 40.31 17.8 39.92 16.84 39.45 15.94 L 41.34 12.87 C 41.78 12.11 42.07 10.98 41.34 10.25 L 37.77 6.656 C 37.04 5.928 36.07 6.114 35.13 6.656 L 32.06 8.553 C 31.16 8.082 30.2 7.692 29.22 7.383 L 28.4 3.857 C 28.17 3.009 27.56 2 26.53 2 L 21.47 2 L 21.46 2 C 21.44 2 21.41 1.999 21.39 2 z M 24 10.62 A 13.38 13.38 0 0 1 37.38 24 A 13.38 13.38 0 0 1 24 37.38 A 13.38 13.38 0 0 1 10.62 24 A 13.38 13.38 0 0 1 24 10.62 z M 23.8 15.81 C 21.61 15.81 19.82 16.42 18.43 17.64 C 17.04 18.85 16.35 20.42 16.35 22.34 L 16.35 25.66 C 16.35 27.59 17.06 29.17 18.48 30.38 C 19.91 31.59 21.76 32.19 24.03 32.19 C 25.83 32.19 27.33 31.95 28.52 31.46 C 29.71 30.97 30.62 30.4 31.25 29.77 L 31.28 23.82 L 24.08 23.82 L 24.08 26.26 L 26.98 26.26 L 26.98 28.78 C 26.72 28.96 26.37 29.11 25.92 29.22 C 25.47 29.33 24.85 29.39 24.07 29.39 C 22.99 29.39 22.15 29.05 21.55 28.38 C 20.94 27.7 20.64 26.81 20.64 25.7 L 20.64 22.36 C 20.64 21.27 20.95 20.39 21.56 19.72 C 22.17 19.04 22.97 18.7 23.96 18.7 C 24.95 18.7 25.7 18.91 26.19 19.32 C 26.67 19.75 26.98 20.38 27.12 21.22 L 31.14 21.22 L 31.14 21.12 C 30.97 19.48 30.3 18.19 29.12 17.24 C 27.95 16.29 26.17 15.81 23.8 15.81 z"/>
    </g>
  </defs>
  <g id="acyl-visual">
    <use id="visible1" style="fill:url(#acyl-gradient)" xlink:href="#acyl-drawing"/>
  </g>
</svg>
