<svg xmlns="http://www.w3.org/2000/svg" xmlns:xlink="http://www.w3.org/1999/xlink" width="48" height="48">
  <defs id="acyl-settings">
    <linearGradient id="acyl-gradient" x1="0%" x2="0%" y1="0%" y2="100%">
      <stop offset="100%" style="stop-color:#A0A0A0;stop-opacity:1.000000"/>
    </linearGradient>
    <g id="acyl-filter">
  </g>
    <g id="acyl-drawing">
      <path id="path-main" d="M 24 6.49 C 23.2 6.49 22.5 6.727 21.93 7.201 L 2.299 23.55 C 2.117 23.7 2.017 23.89 1.998 24.14 C 1.978 24.38 2.038 24.6 2.189 24.78 L 3.883 26.8 C 4.028 26.96 4.218 27.06 4.455 27.1 C 4.673 27.1 4.893 27 5.111 26.91 L 23.99 11.16 L 42.88 26.91 C 43.03 27.04 43.22 27.09 43.46 27.09 L 43.56 27.09 C 43.79 27.09 43.98 26.96 44.14 26.8 L 45.83 24.78 C 45.97 24.6 46.04 24.38 46.02 24.14 C 46.02 23.89 45.9 23.7 45.71 23.55 L 45.69 23.55 L 39.72 18.58 L 39.72 7.445 C 39.72 7.191 39.63 6.983 39.47 6.818 C 39.31 6.655 39.1 6.572 38.85 6.572 L 33.6 6.572 C 33.35 6.572 33.14 6.652 32.98 6.818 C 32.82 6.983 32.73 7.191 32.73 7.445 L 32.73 12.77 L 26.07 7.201 C 25.49 6.727 24.8 6.49 24 6.49 z M 23.99 13.56 L 8.305 26.5 L 8.285 26.6 L 8.275 26.7 L 8.275 39.8 C 8.275 40.28 8.448 40.69 8.793 41.03 C 9.139 41.38 9.548 41.55 10.02 41.55 L 20.5 41.55 L 20.5 31.03 L 27.49 31.03 L 27.49 41.51 L 37.97 41.51 C 38.45 41.51 38.86 41.34 39.2 40.99 C 39.55 40.65 39.72 40.24 39.72 39.76 L 39.72 26.66 L 39.72 26.5 L 23.99 13.56 z"/>
    </g>
  </defs>
  <g id="acyl-visual">
    <use id="visible1" style="fill:url(#acyl-gradient)" xlink:href="#acyl-drawing"/>
  </g>
</svg>
