<svg xmlns="http://www.w3.org/2000/svg" xmlns:xlink="http://www.w3.org/1999/xlink" width="48" height="48">
  <defs id="acyl-settings">
    <linearGradient id="acyl-gradient" x1="0%" x2="0%" y1="0%" y2="100%">
      <stop offset="100%" style="stop-color:#A0A0A0;stop-opacity:1.000000"/>
    </linearGradient>
    <g id="acyl-filter">
  </g>
    <g id="acyl-drawing">
      <path d="M 6.199,2 C 5.651,2 5.21,2.426 5.21,2.956 V 45.04 C 5.21,45.57 5.651,46 6.199,46 H 41.8 c 0.55,0 0.99,-0.43 0.99,-0.96 V 2.956 C 42.79,2.426 42.35,2 41.8,2 Z m 2.223,3.445 c 0.25,0 0.45,0.108 0.45,0.243 v 1.354 c 0,0.135 -0.2,0.243 -0.45,0.243 -0.25,0 -0.455,-0.108 -0.455,-0.243 V 5.688 c 0,-0.135 0.205,-0.243 0.455,-0.243 z m 0,2.979 c 0.25,0 0.45,0.108 0.45,0.243 v 1.353 c 0,0.14 -0.2,0.24 -0.45,0.24 -0.25,0 -0.455,-0.1 -0.455,-0.24 V 8.667 c 0,-0.135 0.205,-0.243 0.455,-0.243 z m 0,2.976 c 0.25,0 0.45,0.11 0.45,0.25 V 13 c 0,0.13 -0.2,0.24 -0.45,0.24 -0.25,0 -0.455,-0.11 -0.455,-0.24 v -1.35 c 0,-0.14 0.205,-0.25 0.455,-0.25 z m 16.788,0.69 c 1.79,0 3.42,0.35 4.88,1.06 1.46,0.7 2.68,1.72 3.66,3.04 0.6,0.81 1.05,1.69 1.35,2.64 0.31,0.94 0.47,1.93 0.47,2.97 0,2.24 -0.65,3.97 -1.95,5.21 -1.3,1.24 -3.14,1.86 -5.51,1.86 h -0.47 v -1.91 c -0.23,0.59 -0.62,1.04 -1.16,1.37 -0.52,0.32 -1.14,0.49 -1.85,0.49 -1.37,0 -2.49,-0.52 -3.35,-1.54 C 20.42,26.25 20,24.91 20,23.26 c 0,-1.65 0.43,-2.99 1.29,-4.02 0.86,-1.03 1.97,-1.55 3.34,-1.55 0.71,0 1.33,0.17 1.85,0.5 0.54,0.33 0.93,0.78 1.16,1.37 v -1.62 h 2.51 v 8.57 c 0.99,-0.15 1.76,-0.64 2.33,-1.47 0.57,-0.83 0.85,-1.9 0.85,-3.19 0,-0.83 -0.11,-1.6 -0.35,-2.31 -0.23,-0.73 -0.58,-1.39 -1.05,-2 -0.76,-1 -1.71,-1.78 -2.85,-2.32 -1.13,-0.55 -2.36,-0.82 -3.69,-0.82 -0.92,0 -1.81,0.13 -2.65,0.38 -0.85,0.25 -1.63,0.62 -2.35,1.11 -1.18,0.8 -2.1,1.85 -2.76,3.14 -0.66,1.28 -0.99,2.66 -0.99,4.16 0,1.22 0.22,2.38 0.64,3.46 0.43,1.07 1.05,2.02 1.85,2.85 0.8,0.8 1.72,1.42 2.75,1.84 1.03,0.43 2.14,0.64 3.31,0.64 1.01,0 2.01,-0.19 3.02,-0.58 1,-0.39 1.86,-0.91 2.57,-1.57 l 1.28,2 c -1,0.8 -2.08,1.42 -3.27,1.84 -1.17,0.42 -2.36,0.64 -3.58,0.64 -1.47,0 -2.86,-0.27 -4.17,-0.82 -1.31,-0.53 -2.48,-1.32 -3.5,-2.35 -1.02,-1.03 -1.8,-2.22 -2.33,-3.57 -0.54,-1.37 -0.81,-2.83 -0.81,-4.38 0,-1.51 0.28,-2.94 0.82,-4.3 0.54,-1.36 1.32,-2.56 2.32,-3.59 1.01,-1.02 2.18,-1.81 3.51,-2.37 1.34,-0.56 2.73,-0.84 4.16,-0.84 z M 8.422,14.38 c 0.25,0 0.45,0.11 0.45,0.25 v 1.35 c 0,0.13 -0.2,0.24 -0.45,0.24 -0.25,0 -0.455,-0.11 -0.455,-0.24 v -1.35 c 0,-0.14 0.205,-0.25 0.455,-0.25 z m 0,2.98 c 0.25,0 0.45,0.11 0.45,0.24 v 1.36 c 0,0.13 -0.2,0.24 -0.45,0.24 -0.25,0 -0.455,-0.11 -0.455,-0.24 V 17.6 c 0,-0.13 0.205,-0.24 0.455,-0.24 z m 16.628,2.63 c -0.7,0 -1.27,0.3 -1.69,0.88 -0.42,0.58 -0.62,1.37 -0.62,2.37 0,1.01 0.2,1.81 0.62,2.4 0.42,0.58 0.99,0.87 1.71,0.87 0.71,0 1.28,-0.29 1.7,-0.87 0.42,-0.6 0.64,-1.4 0.64,-2.4 0,-1 -0.22,-1.79 -0.65,-2.37 -0.42,-0.58 -0.99,-0.88 -1.71,-0.88 z M 8.422,20.34 c 0.25,0 0.45,0.11 0.45,0.24 v 1.36 c 0,0.13 -0.2,0.24 -0.45,0.24 -0.25,0 -0.455,-0.11 -0.455,-0.24 v -1.36 c 0,-0.13 0.205,-0.24 0.455,-0.24 z m 0,2.98 c 0.25,0 0.45,0.11 0.45,0.24 v 1.36 c 0,0.13 -0.2,0.24 -0.45,0.24 -0.25,0 -0.455,-0.11 -0.455,-0.24 v -1.36 c 0,-0.13 0.205,-0.24 0.455,-0.24 z m 0,2.98 c 0.25,0 0.45,0.11 0.45,0.24 v 1.36 c 0,0.13 -0.2,0.24 -0.45,0.24 -0.25,0 -0.455,-0.11 -0.455,-0.24 v -1.36 c 0,-0.13 0.205,-0.24 0.455,-0.24 z m 0,2.98 c 0.25,0 0.45,0.11 0.45,0.24 v 1.35 c 0,0.14 -0.2,0.25 -0.45,0.25 -0.25,0 -0.455,-0.11 -0.455,-0.25 v -1.35 c 0,-0.13 0.205,-0.24 0.455,-0.24 z m 0,2.98 c 0.25,0 0.45,0.11 0.45,0.24 v 1.35 c 0,0.14 -0.2,0.25 -0.45,0.25 -0.25,0 -0.455,-0.11 -0.455,-0.25 V 32.5 c 0,-0.13 0.205,-0.24 0.455,-0.24 z m 0,2.98 c 0.25,0 0.45,0.1 0.45,0.24 v 1.35 c 0,0.14 -0.2,0.25 -0.45,0.25 -0.25,0 -0.455,-0.11 -0.455,-0.25 v -1.35 c 0,-0.14 0.205,-0.24 0.455,-0.24 z m 0,2.98 c 0.25,0 0.45,0.1 0.45,0.24 v 1.35 c 0,0.14 -0.2,0.25 -0.45,0.25 -0.25,0 -0.455,-0.11 -0.455,-0.25 v -1.35 c 0,-0.14 0.205,-0.24 0.455,-0.24 z m 0,2.97 c 0.25,0 0.45,0.11 0.45,0.25 v 1.35 c 0,0.14 -0.2,0.25 -0.45,0.25 -0.25,0 -0.455,-0.11 -0.455,-0.25 v -1.35 c 0,-0.14 0.205,-0.25 0.455,-0.25 z" id="path-main"/>
    </g>
  </defs>
  <g id="acyl-visual">
    <use id="visible1" style="fill:url(#acyl-gradient)" xlink:href="#acyl-drawing"/>
  </g>
</svg>
