<svg xmlns="http://www.w3.org/2000/svg" xmlns:xlink="http://www.w3.org/1999/xlink" width="48" height="48">
  <defs id="acyl-settings">
    <linearGradient id="acyl-gradient" x1="0%" x2="0%" y1="0%" y2="100%">
      <stop offset="100%" style="stop-color:#A0A0A0;stop-opacity:1.000000"/>
    </linearGradient>
    <g id="acyl-filter">
  </g>
    <g id="acyl-drawing">
      <path d="m 24.625,9.03125 c -9.023126,10e-8 -10.75,12.59375 -10.75,12.59375 l -10.71875,0 0,4.75 10.5625,0 c 0,0 1.695623,12.59375 10.71875,12.59375 9.023126,0 9.03125,0 9.03125,0 l 0,-4.59375 8.53125,0 c 1.105122,0 2,-0.894878 2,-2 0,-1.105122 -0.894878,-2 -2,-2 l -8.53125,0 0,-12.75 8.53125,0 c 1.105122,0 2,-0.894878 2,-2 0,-1.105122 -0.894878,-2 -2,-2 l -8.53125,0 0,-4.59375 c -0.0027,10e-8 0.02273,0 -8.84375,0 z" id="path-main"/>
    </g>
  </defs>
  <g id="acyl-visual">
    <use id="visible1" style="fill:url(#acyl-gradient)" xlink:href="#acyl-drawing"/>
  </g>
</svg>
