<svg xmlns="http://www.w3.org/2000/svg" xmlns:xlink="http://www.w3.org/1999/xlink" width="48" height="48">
  <defs id="acyl-settings">
    <linearGradient id="acyl-gradient" x1="0%" x2="0%" y1="0%" y2="100%">
      <stop offset="100%" style="stop-color:#A0A0A0;stop-opacity:1.000000"/>
    </linearGradient>
    <g id="acyl-filter">
  </g>
    <g id="acyl-drawing">
      <path id="path-main" d="m 2.5729167,15.367187 -0.085937,4.583334 6.7317708,0 L 2,29.231771 l 0,1.776041 13.348958,0 0,-4.583333 -5.5572913,0 5.4427083,-7.132812 0.08594,-3.92448 -12.7473963,0 z m 19.3359373,2.721355 -0.08594,4.067708 5.270833,0 -5.643229,7.276042 0,1.661458 11.143229,0 0,-4.067708 -4.325521,0 4.210938,-5.528646 0.08594,-3.408854 -10.65625,0 z m 16.041667,2.835937 -0.05729,3.408854 3.494792,0 -3.752604,5.127604 0,1.51823 8.364583,0 0,-3.78125 -2.75,0 2.692708,-3.523438 0.05729,-2.75 -8.049479,0 z"/>
    </g>
  </defs>
  <g id="acyl-visual">
    <use id="visible1" style="fill:url(#acyl-gradient)" xlink:href="#acyl-drawing"/>
  </g>
</svg>
