<svg xmlns="http://www.w3.org/2000/svg" xmlns:xlink="http://www.w3.org/1999/xlink" width="48" height="48">
  <defs id="acyl-settings">
    <linearGradient id="acyl-gradient" x1="0%" x2="0%" y1="0%" y2="100%">
      <stop offset="100%" style="stop-color:#A0A0A0;stop-opacity:1.000000"/>
    </linearGradient>
    <g id="acyl-filter">
  </g>
    <g id="acyl-drawing">
      <path d="m 25.2962,2.00033 a 3.70543,3.70543 0 0 0 -2.3756,0.9027 3.70543,3.70543 0 0 0 -0.6249,4.9047 L 23.8423,19.1638 27.958,8.33163 a 3.70543,3.70543 0 0 0 0.1894,-5.0519 3.70543,3.70543 0 0 0 -2.8512,-1.2794 z m -9.2666,1.6644 a 3.70543,3.70543 0 0 0 -2.3755,0.9027 3.70543,3.70543 0 0 0 -0.3767,5.2267 3.70543,3.70543 0 0 0 1.515,1.04577 l 6.6111,8.4144 -1.8116,-10.72267 a 3.70543,3.70543 0 0 0 -0.7112,-3.5876 3.70543,3.70543 0 0 0 -2.8511,-1.2793 z m 18.3755,1.5234 a 3.70543,3.70543 0 0 0 -2.3735,0.9027 3.70543,3.70543 0 0 0 -1.2688,3.0384 l -4.4776,10.63637 9.1446,-7.3035 a 3.70543,3.70543 0 0 0 1.4498,-0.7659 3.70543,3.70543 0 0 0 0.3766,-5.22667 3.70543,3.70543 0 0 0 -2.8511,-1.2814 z M 8.76401,9.94983 a 3.70543,3.70543 0 0 0 -2.3756,0.90267 3.70543,3.70543 0 0 0 -0.3766,5.2267 3.70543,3.70543 0 0 0 2.9984,1.2708 L 20.1958,20.9124 12.4147,12.7883 A 3.70543,3.70543 0 0 0 11.6151,11.2291 3.70543,3.70543 0 0 0 8.76401,9.94983 Z M 40.6902,12.4537 a 3.70543,3.70543 0 0 0 -2.3756,0.9027 3.70543,3.70543 0 0 0 -0.9511,1.2877 l -8.991,6.7038 11.3602,-1.6244 a 3.70543,3.70543 0 0 0 3.4318,-0.7617 3.70543,3.70543 0 0 0 0.3768,-5.2267 3.70543,3.70543 0 0 0 -2.8511,-1.2814 z M 5.69411,18.7745 a 3.70543,3.70543 0 0 0 -2.3756,0.9027 3.70543,3.70543 0 0 0 -0.3788,5.2267 3.70543,3.70543 0 0 0 4.869,0.646 16.5434,11.8349 78.2992 0 0 0,0.023 L 19.4005,23.1743 8.30951,19.8119 a 3.70543,3.70543 0 0 0 -2.6154,-1.0374 z m 27.34119,4.6018 c -0.5969,0 -1.0774,0.4805 -1.0774,1.0773 l 0,1.4813 c -0.5465,0.1679 -1.0847,0.3776 -1.5823,0.6397 L 29.332,25.5309 c -0.422,-0.422 -1.1267,-0.422 -1.5487,0 l -2.2893,2.2893 c -0.422,0.422 -0.422,1.1267 0,1.5487 l 1.0437,1.0436 c -0.2623,0.4976 -0.4718,1.0358 -0.6397,1.5823 l -1.4813,0 c -0.5968,0 -1.0773,0.4805 -1.0773,1.0774 l 0,3.2319 c 0,0.5969 0.4805,1.0773 1.0773,1.0773 l 1.4813,0 c 0.1679,0.5466 0.3775,1.0845 0.6397,1.5824 l -1.0437,1.0436 c -0.422,0.422 -0.422,1.1267 0,1.5487 l 2.2893,2.2893 c 0.422,0.4219 1.1267,0.4219 1.5487,0 l 1.0436,-1.0437 c 0.4976,0.2622 1.0358,0.4718 1.5823,0.6397 l 0,1.4813 c 0,0.5968 0.4805,1.0773 1.0774,1.0773 l 3.2319,0 c 0.5969,0 1.0773,-0.4805 1.0773,-1.0773 l 0,-1.4813 c 0.5466,-0.1679 1.0848,-0.3775 1.5824,-0.6397 l 1.0436,1.0437 c 0.422,0.4219 1.1267,0.4219 1.5486,0 l 2.2894,-2.2893 c 0.4219,-0.422 0.4219,-1.1267 0,-1.5487 l -1.0438,-1.0436 c 0.2623,-0.4978 0.4719,-1.0358 0.6398,-1.5824 l 1.4813,0 c 0.5968,0 1.0773,-0.4804 1.0773,-1.0773 l 0,-3.2319 c 0,-0.5969 -0.4805,-1.0774 -1.0773,-1.0774 l -1.4813,0 C 43.2366,31.4483 43.027,30.9101 42.7647,30.4125 l 1.0438,-1.0436 c 0.4219,-0.422 0.4219,-1.1267 0,-1.5487 l -2.2894,-2.2893 c -0.4219,-0.422 -1.1266,-0.422 -1.5486,0 l -1.0436,1.0437 c -0.4976,-0.2621 -1.0358,-0.4718 -1.5824,-0.6397 l 0,-1.4813 c 0,-0.5968 -0.4804,-1.0773 -1.0773,-1.0773 l -3.2319,0 z M 19.5646,25.4131 8.19381,28.2116 a 3.70543,3.70543 0 0 0 -3.1205,0.8354 3.70543,3.70543 0 0 0 -0.3788,5.2266 3.70543,3.70543 0 0 0 5.2268,0.3788 3.70543,3.70543 0 0 0 0.96789,-1.3215 l 8.6754,-7.9178 z m 15.0866,1.7338 c 4.1534,0 7.5413,3.3879 7.5413,7.5412 0,4.1534 -3.3879,7.5413 -7.5413,7.5413 -4.1534,0 -7.5412,-3.3879 -7.5412,-7.5413 0,-4.1533 3.3878,-7.5412 7.5412,-7.5412 z m -14.1376,0.3535 -8.0211,8.1262 a 3.70543,3.70543 0 0 0 -1.4328,0.7617 3.70543,3.70543 0 0 0 -0.3788,5.2267 3.70543,3.70543 0 0 0 5.2267,0.3787 3.70543,3.70543 0 0 0 1.2624,-3.1415 16.5434,11.8349 16.0631 0 0 0.067,0.022 l 3.2768,-11.3733 z m 14.1376,0.7238 c -3.569,0 -6.4639,2.8949 -6.4639,6.4639 0,3.5691 2.8949,6.464 6.4639,6.464 3.5691,0 6.464,-2.8949 6.464,-6.464 0,-3.569 -2.8949,-6.4639 -6.464,-6.4639 z m 0,3.7706 c 1.4875,0 2.6933,1.2059 2.6933,2.6933 0,1.4875 -1.2058,2.6933 -2.6933,2.6933 -1.4874,0 -2.6933,-1.2058 -2.6933,-2.6933 0,-1.4874 1.2059,-2.6933 2.6933,-2.6933 z" id="path-main"/>
    </g>
  </defs>
  <g id="acyl-visual">
    <use id="visible1" style="fill:url(#acyl-gradient)" xlink:href="#acyl-drawing"/>
  </g>
</svg>
