<svg xmlns="http://www.w3.org/2000/svg" xmlns:xlink="http://www.w3.org/1999/xlink" width="48" height="48">
  <defs id="acyl-settings">
    <linearGradient id="acyl-gradient" x1="0%" x2="0%" y1="0%" y2="100%">
      <stop offset="100%" style="stop-color:#A0A0A0;stop-opacity:1.000000"/>
    </linearGradient>
    <g id="acyl-filter">
  </g>
    <g id="acyl-drawing">
      <path id="path-main" d="M 24.15 2 C 24.05 2 19.25 4 13.45 6.5 C 7.549 9 2.85 11 2.85 11.1 C 2.85 11.1 7.649 13.1 13.45 15.6 L 24.05 20.2 L 34.55 15.6 C 40.45 13.1 45.15 11.1 45.15 11.1 C 45.15 11 24.55 2.1 24.15 2 z M 2.75 17.1 L 2.75 27.8 L 2.75 38.4 L 11.85 42.2 L 20.95 46 L 20.95 35.4 L 20.95 24.7 C 20.85 24.7 16.95 23 12.15 21 C 7.35 19.1 3.25 17.4 3.15 17.3 L 2.75 17.1 z M 45.25 17.2 L 36.15 20.9 L 27.15 24.7 L 27.05 35.4 L 27.05 46 L 27.45 45.9 C 27.65 45.8 31.65 44.1 36.45 42.1 C 41.25 40.1 45.15 38.4 45.25 38.4 L 45.25 27.7 L 45.25 17.2 z M 6.693 22.55 L 11.25 24.58 C 12.87 25.3 14.21 26.41 15.26 27.92 C 16.31 29.42 16.84 30.99 16.84 32.61 L 16.84 34.8 C 16.84 36.43 16.31 37.53 15.26 38.09 C 14.21 38.65 12.87 38.57 11.25 37.85 L 6.693 35.82 L 6.693 22.55 z M 9.354 25.79 L 9.354 34.96 L 11.11 35.75 C 12.07 36.17 12.81 36.18 13.36 35.78 C 13.9 35.38 14.17 34.65 14.17 33.62 L 14.17 31.4 C 14.17 30.37 13.9 29.42 13.36 28.53 C 12.81 27.65 12.07 26.99 11.11 26.57 L 9.354 25.79 z"/>
    </g>
  </defs>
  <g id="acyl-visual">
    <use id="visible1" style="fill:url(#acyl-gradient)" xlink:href="#acyl-drawing"/>
  </g>
</svg>
