<svg xmlns="http://www.w3.org/2000/svg" xmlns:xlink="http://www.w3.org/1999/xlink" width="48" height="48">
  <defs id="acyl-settings">
    <linearGradient id="acyl-gradient" x1="0%" x2="0%" y1="0%" y2="100%">
      <stop offset="100%" style="stop-color:#A0A0A0;stop-opacity:1.000000"/>
    </linearGradient>
    <g id="acyl-filter">
  </g>
    <g id="acyl-drawing">
      <path d="M 7.3871453,2 C 2.1887093,34.215617 19.401184,43.759535 24.377138,46 30.371186,43.74459 44.613087,31.741402 41.00182,2 Z m 3.8244067,3.195877 17.67029,0.05833 c 0.654527,0.102899 0.346932,0.516672 0,0.925295 L 11.611857,23.402825 c -0.192805,0.165046 -0.345913,0.239415 -0.463741,0.234058 -0.378099,0.02163 -0.484431,-0.120127 -0.6628,-0.298224 C 10.289675,23.1338 10.222386,22.882249 10.133135,22.635756 9.8313813,21.63701 9.6872503,20.594217 9.5913743,19.425296 9.4556213,17.496971 9.3311023,15.546988 9.3886703,13.737903 9.4928473,11.595118 9.5138813,9.577194 9.7802253,7.125215 9.7522353,5.821125 10.680907,5.192953 11.211552,5.195877 Z m 26.78616,9.104203 c 0.374778,0.09412 0.398141,1.088677 0.378429,1.553096 -0.02333,0.564419 0.15169,1.008979 -0.213639,3.600557 -1.30009,6.629642 -3.52989,16.905718 -12.978923,22.612487 -0.481912,0.188537 -0.980057,0.327642 -1.623092,0.03282 -1.983281,-1.382337 -3.769036,-2.403594 -6.632377,-5.399375 -0.692629,-0.721638 -0.391182,-0.883663 -0.250828,-1.136749 z" id="path-main"/>
    </g>
  </defs>
  <g id="acyl-visual">
    <use id="visible1" style="fill:url(#acyl-gradient)" xlink:href="#acyl-drawing"/>
  </g>
</svg>
