<svg xmlns="http://www.w3.org/2000/svg" xmlns:xlink="http://www.w3.org/1999/xlink" width="48" height="48">
  <defs id="acyl-settings">
    <linearGradient id="acyl-gradient" x1="0%" x2="0%" y1="0%" y2="100%">
      <stop offset="100%" style="stop-color:#A0A0A0;stop-opacity:1.000000"/>
    </linearGradient>
    <g id="acyl-filter">
  </g>
    <g id="acyl-drawing">
      <path d="M 23.793965,5.310187 C 18.770673,5.357958 13.752426,5.653772 12.805432,6.180113 10.911445,7.232793 1.9778019,22.127598 2.0000413,24.196728 c 0.022241,2.06913 9.2783407,16.794131 11.1945687,17.81058 1.916226,1.016449 20.105972,0.869539 21.999958,-0.183142 C 37.088555,40.771485 46.022199,25.87668 45.999959,23.807551 45.977718,21.738421 36.721618,6.990526 34.805391,5.974078 33.847278,5.465853 28.817257,5.262419 23.793965,5.310187 Z m 0.04579,3.70863 c 3.928027,-0.03842 7.835582,0.140661 8.584791,0.549427 0.04492,0.02451 0.105346,0.09358 0.16025,0.137356 l -8.264293,9.225789 -0.366284,0.389177 -0.343392,-0.389177 -8.607684,-9.019754 c 0.07987,-0.07241 0.167218,-0.147864 0.228928,-0.183142 0.740514,-0.423336 4.679657,-0.671257 8.607684,-0.709676 z m 13.232025,6.936511 c 2.112614,3.414754 4.111584,7.071409 4.1207,7.943794 0.0099,0.945256 -2.245103,5.192123 -4.464092,8.859504 l -8.126936,-7.25701 -0.389177,-0.343391 0.366285,-0.343392 z m -26.21223,0.02289 7.943794,8.836612 0.320499,0.343392 -0.343392,0.320498 -7.531723,7.257011 C 9.0166706,29.171007 6.8171526,25.140618 6.8075286,24.219618 c -0.0093,-0.890879 1.970053,-4.726532 4.0520214,-8.2414 z m 13.094669,13.02599 0.320499,0.320499 9.042646,8.49322 c -0.232967,0.267663 -0.430022,0.468079 -0.572319,0.549427 -1.481027,0.846672 -15.694058,1.023565 -17.192475,0.206035 -0.167174,-0.09121 -0.440818,-0.350322 -0.732569,-0.686784 l 8.790826,-8.561898 z" id="path-main"/>
    </g>
  </defs>
  <g id="acyl-visual">
    <use id="visible1" style="fill:url(#acyl-gradient)" xlink:href="#acyl-drawing"/>
  </g>
</svg>
