<svg xmlns="http://www.w3.org/2000/svg" xmlns:xlink="http://www.w3.org/1999/xlink" width="48" height="48">
  <defs id="acyl-settings">
    <linearGradient id="acyl-gradient" x1="0%" x2="0%" y1="0%" y2="100%">
      <stop offset="100%" style="stop-color:#A0A0A0;stop-opacity:1.000000"/>
    </linearGradient>
    <g id="acyl-filter">
  </g>
    <g id="acyl-drawing">
      <path d="m 23.999836,45.99999 c -0.218676,0 -0.436435,-0.004 -0.653785,-0.0103 l 4.496035,-12.35643 h 6.187486 c 1.086044,0 2.278216,-0.83488 2.64967,-1.85492 l 4.877877,-13.39818 c 0.798007,-2.19357 -0.458434,-3.9882 -2.792568,-3.9882 h -8.583952 l -7.202437,19.7914 h -0.0026 L 18.892437,45.40262 C 9.2053265,43.09965 1.9999365,34.39165 1.9999365,24.00003 c 0,-10.09207 6.79564,-18.59607 16.0602705,-21.18789 l -4.21309,11.57982 h -0.001 l -7.0040305,19.2413 4.6625705,4.1e-4 5.95638,-16.35035 h 3.504099 l -5.956379,16.35035 4.66083,8.1e-4 5.55071,-15.25432 c 0.798517,-2.19357 -0.458027,-3.9882 -2.79002,-3.9882 h -3.91935 L 23.01134,2.0231 C 23.339404,2.0085 23.668689,2 24.000115,2 36.150402,2 46.000064,11.84966 46.000064,24.00005 46.000064,36.15013 36.150402,46 24.000115,46 Z M 37.311026,17.27162 H 33.80784 l -4.905887,13.46051 h 3.503289 z" id="path-main"/>
    </g>
  </defs>
  <g id="acyl-visual">
    <use id="visible1" style="fill:url(#acyl-gradient)" xlink:href="#acyl-drawing"/>
  </g>
</svg>
