<svg xmlns="http://www.w3.org/2000/svg" xmlns:xlink="http://www.w3.org/1999/xlink" width="48" height="48">
  <defs id="acyl-settings">
    <linearGradient id="acyl-gradient" x1="0%" x2="0%" y1="0%" y2="100%">
      <stop offset="100%" style="stop-color:#A0A0A0;stop-opacity:1.000000"/>
    </linearGradient>
    <g id="acyl-filter">
  </g>
    <g id="acyl-drawing">
      <path d="m 16.966797,2 0.002,10.771484 11.882812,0.002 V 2 Z m 1.605468,4.6386719 2.59961,0.00195 -0.002,2.5976562 h -2.597657 z m 6.082032,0.00195 h 2.597656 l -0.002,2.5957031 -2.597657,0.00195 z m -7.6875,7.2421871 C 15.335171,13.880712 14,15.217862 14,16.851562 v 23.761719 c 0,1.635257 1.264496,3.38853 2.810547,3.908203 l 3.283203,1.091797 c 1.551757,0.516043 4.082612,0.516043 5.632812,0 l 3.279297,-1.08789 c 0.647775,-0.215233 1.21466,-0.67681 1.69336,-1.226563 -5.984014,-0.575167 -10.695313,-5.570782 -10.695313,-11.703125 0,-6.516652 5.299755,-11.816406 11.816406,-11.816406 v -2.923828 c 0.0021,-1.631626 -1.33517,-2.972657 -2.966797,-2.972657 z m 14.951172,7.560547 c -5.58909,0 -10.119141,4.531487 -10.119141,10.121094 0,5.589607 4.53005,10.121094 10.119141,10.121094 5.589089,0 10.121092,-4.531487 10.121093,-10.121094 0,-5.589606 -4.532003,-10.121094 -10.121093,-10.121094 z m 0.04883,1.402344 c 4.815709,0 8.722656,3.903558 8.722656,8.71875 0,4.81571 -3.907463,8.71875 -8.722656,8.71875 -2.600297,0 -4.931973,-1.138112 -6.529297,-2.943359 0.656781,-0.50974 1.754133,-0.386685 3.107422,-0.232422 0.648527,0.07378 1.387326,0.158756 2.15039,0.175781 2.131829,0.01239 4.42608,-0.377493 5.841797,-0.996094 0.915263,-0.401396 1.500876,-0.664754 1.867188,-0.998047 0.132079,-0.108345 0.202752,-0.290714 0.273437,-0.478515 l 0.04883,-0.126953 c 0.05933,-0.151685 0.143462,-0.476301 0.181641,-0.654297 0.01703,-0.07791 0.02591,-0.163691 -0.0293,-0.207031 l -0.197266,0.03906 c -0.621183,0.372502 -2.173057,1.082436 -3.626953,1.111328 -1.801633,0.03766 -5.433805,-1.814227 -5.8125,-2.009765 l -0.03711,-0.04492 c -0.0908,-0.216693 -0.634948,-1.505963 -0.75,-1.777344 2.61371,1.72115 4.780622,2.672242 6.441406,2.820313 1.84652,0.164068 3.288275,-0.842634 3.904297,-1.273438 0.120213,-0.08203 0.212336,-0.146226 0.25,-0.160156 l 0.03906,-0.06836 C 38.98769,31.809943 38.020543,28.668354 37.291015,27.914062 37.08877,27.707175 36.928148,27.50638 36.601562,27.314453 33.961024,25.775429 27.69005,24.849462 27.396484,24.806641 l -0.04883,0.01367 -0.01758,0.04297 c 0,0 -0.02281,1.300853 -0.02539,1.445313 -0.215144,-0.0712 -0.882384,-0.288687 -1.83789,-0.550782 1.246726,-1.542636 3.156225,-2.912109 6.5,-2.912109 z m 2.304687,4.613281 c 0.04449,-6.23e-4 0.08997,-0.0015 0.134766,0 1.479175,0.05314 2.640402,1.299199 2.589843,2.777344 -0.02631,0.715082 -0.327485,1.377162 -0.849609,1.865234 -0.523673,0.490652 -1.20462,0.745874 -1.923828,0.722657 -1.476598,-0.0552 -2.637826,-1.301262 -2.589844,-2.777344 0.02528,-0.716114 0.326344,-1.380664 0.851563,-1.867187 0.490457,-0.459987 1.11972,-0.710689 1.787109,-0.720704 z M 34.199219,28.25 c -0.430794,0.02619 -0.836031,0.201597 -1.154297,0.5 -0.3627,0.340514 -0.577757,0.801359 -0.59375,1.300781 -0.03405,1.031864 0.773855,1.901273 1.804687,1.939453 0.500969,0.01548 0.976001,-0.160518 1.341797,-0.5 0.364764,-0.342063 0.576321,-0.807329 0.591797,-1.304687 0.03457,-1.033412 -0.775292,-1.899432 -1.806641,-1.935547 -0.06243,-0.0023 -0.122051,-0.0037 -0.183593,0 z m 0.492187,0.935547 c 0.458147,0 0.828126,0.250178 0.828125,0.556641 0,0.304915 -0.369978,0.554686 -0.828125,0.554687 -0.459696,0 -0.830078,-0.250288 -0.830078,-0.554687 0,-0.306464 0.370381,-0.55664 0.830078,-0.556641 z" id="path-main"/>
    </g>
  </defs>
  <g id="acyl-visual">
    <use id="visible1" style="fill:url(#acyl-gradient)" xlink:href="#acyl-drawing"/>
  </g>
</svg>
