<svg xmlns="http://www.w3.org/2000/svg" xmlns:xlink="http://www.w3.org/1999/xlink" width="48" height="48">
  <defs id="acyl-settings">
    <linearGradient id="acyl-gradient" x1="0%" x2="0%" y1="0%" y2="100%">
      <stop offset="100%" style="stop-color:#A0A0A0;stop-opacity:1.000000"/>
    </linearGradient>
    <g id="acyl-filter">
  </g>
    <g id="acyl-drawing">
      <path d="M 3.49154,5.9152 C 2.66524,5.9152 2,6.5827 2,7.4068 l 0,4.1017 44,0 0,-4.1017 C 46,6.5827 45.3348,5.9152 44.5085,5.9152 l -41.01696,0 z m 1.86442,1.4916 3.35594,0 0,2.6101 -3.35594,0 0,-2.6101 z m 4.84744,0 3.3559,0 0,2.6101 -3.3559,0 0,-2.6101 z m 4.8475,0 3.3559,0 0,2.6101 -3.3559,0 0,-2.6101 z m 4.8475,0 3.3559,0 0,2.6101 -3.3559,0 0,-2.6101 z m 4.8474,0 3.356,0 0,2.6101 -3.356,0 0,-2.6101 z m 4.8475,0 3.3559,0 0,2.6101 -3.3559,0 0,-2.6101 z m 4.8475,0 3.3559,0 0,2.6101 -3.3559,0 0,-2.6101 z m 4.8474,0 3.356,0 0,2.6101 -3.356,0 0,-2.6101 z M 2,12.2528 l 0,23.4915 44,0 0,-23.4915 -44,0 z m 13.2373,2.0516 a 9.69494,9.69494 0 0 1 9.695,9.6949 9.69494,9.69494 0 0 1 -9.695,9.6949 9.69494,9.69494 0 0 1 -9.6949,-9.6949 9.69494,9.69494 0 0 1 9.6949,-9.6949 z m 18.4577,1.6772 1.8644,0 0,1.8644 -1.8644,0 0,-1.8644 z m 3.7288,0 1.8644,0 0,1.8644 -1.8644,0 0,-1.8644 z m 3.7288,0 1.8645,0 0,1.8644 -1.8645,0 0,-1.8644 z m -25.9153,0.8587 c -4.0161,0 -7.26606,3.2596 -7.26606,7.2755 0,4.0197 3.24996,7.2669 7.26606,7.2669 4.0162,0 7.2661,-3.2472 7.2661,-7.2669 0,-4.0159 -3.2499,-7.2755 -7.2661,-7.2755 z m 0,1.4696 c 3.2049,0 5.7972,2.6029 5.7972,5.8059 0,3.2068 -2.5923,5.7979 -5.7972,5.7979 -3.2049,0 -5.79713,-2.5911 -5.79713,-5.7979 0,-3.203 2.59223,-5.8059 5.79713,-5.8059 z m 18.4577,1.4005 1.8644,0 0,1.8644 -1.8644,0 0,-1.8644 z m 3.7288,0 1.8644,0 0,1.8644 -1.8644,0 0,-1.8644 z m 3.7288,0 1.8645,0 0,1.8644 -1.8645,0 0,-1.8644 z M 11.826,21.1699 c -0.6843,0.7905 -1.1041,1.8161 -1.1041,2.9459 0,1.1299 0.4198,2.1547 1.1041,2.9452 l 6.8241,0 c 0.6843,-0.7905 1.1048,-1.8153 1.1048,-2.9452 0,-1.1298 -0.4205,-2.1554 -1.1048,-2.9459 l -6.8241,0 z m 21.869,2.2693 1.8644,0 0,1.8644 -1.8644,0 0,-1.8644 z m 3.7288,0 1.8644,0 0,1.8644 -1.8644,0 0,-1.8644 z m 3.7288,0 1.8645,0 0,1.8644 -1.8645,0 0,-1.8644 z m -7.4576,3.7289 1.8644,0 0,1.8644 -1.8644,0 0,-1.8644 z m 3.7288,0 1.8644,0 0,1.8644 -1.8644,0 0,-1.8644 z m 3.7288,0 1.8645,0 0,1.8644 -1.8645,0 0,-1.8644 z m -7.4576,3.7288 1.8644,0 0,1.8644 -1.8644,0 0,-1.8644 z m 3.7288,0 1.8644,0 0,1.8644 -1.8644,0 0,-1.8644 z m 3.7288,0 1.8645,0 0,1.8644 -1.8645,0 0,-1.8644 z M 2,36.4916 2,40.5933 c 0,0.8278 0.66524,1.4915 1.49154,1.4915 l 41.01696,0 C 45.3348,42.0848 46,41.4211 46,40.5933 l 0,-4.1017 -44,0 z m 3.35596,1.4915 3.35594,0 0,2.6102 -3.35594,0 0,-2.6102 z m 4.84744,0 3.3559,0 0,2.6102 -3.3559,0 0,-2.6102 z m 4.8475,0 3.3559,0 0,2.6102 -3.3559,0 0,-2.6102 z m 4.8475,0 3.3559,0 0,2.6102 -3.3559,0 0,-2.6102 z m 4.8474,0 3.356,0 0,2.6102 -3.356,0 0,-2.6102 z m 4.8475,0 3.3559,0 0,2.6102 -3.3559,0 0,-2.6102 z m 4.8475,0 3.3559,0 0,2.6102 -3.3559,0 0,-2.6102 z m 4.8474,0 3.356,0 0,2.6102 -3.356,0 0,-2.6102 z" id="path-main"/>
    </g>
  </defs>
  <g id="acyl-visual">
    <use id="visible1" style="fill:url(#acyl-gradient)" xlink:href="#acyl-drawing"/>
  </g>
</svg>
