<svg xmlns="http://www.w3.org/2000/svg" xmlns:xlink="http://www.w3.org/1999/xlink" width="48" height="48">
  <defs id="acyl-settings">
    <linearGradient id="acyl-gradient" x1="0%" x2="0%" y1="0%" y2="100%">
      <stop offset="100%" style="stop-color:#A0A0A0;stop-opacity:1.000000"/>
    </linearGradient>
    <g id="acyl-filter">
  </g>
    <g id="acyl-drawing">
      <path id="path-main" d="M 24,2 C 11.858326,2 2,11.858326 2,24 2,36.141674 11.858326,46 24,46 36.141674,46 46,36.141674 46,24 46,11.858326 36.141674,2 24,2 Z m 0,1.450987 C 35.357739,3.450987 44.549013,12.642261 44.549013,24 44.549013,35.357739 35.357739,44.549013 24,44.549013 12.642261,44.549013 3.450987,35.357739 3.450987,24 3.450987,12.642261 12.642261,3.450987 24,3.450987 Z m 0,3.428454 c -1.048636,0.0032 -2.094982,0.103012 -3.125411,0.297615 -0.04997,0.224872 -0.0787,0.457489 -0.0787,0.697451 0,1.770505 1.433624,3.203321 3.203207,3.202302 1.769587,9.26e-4 3.204112,-1.432716 3.204112,-3.203207 0,-0.23898 -0.02816,-0.470716 -0.0778,-0.694737 C 26.095047,6.983607 25.048696,6.883285 24,6.879441 Z M 15.202714,9.333635 C 10.046108,12.422538 6.8866196,17.989023 6.8794407,24 6.8796908,33.455178 14.544821,41.120305 24,41.120559 33.455179,41.120305 41.120309,33.455178 41.120559,24 41.112159,17.98987 37.952468,12.424474 32.796382,9.336349 c 0.110995,0.563584 0.172779,1.144394 0.172779,1.74046 0,3.575422 -2.097358,6.654628 -5.125493,8.095313 l -0.220724,3.787582 2.719243,2.719243 -2.719243,2.717435 1.812829,1.811924 -1.812829,1.811924 0.220724,3.40403 -3.844572,3.844572 -3.843668,-3.843667 V 19.173026 c -3.027228,-1.441583 -5.124589,-4.520795 -5.124589,-8.096217 -1.12e-4,-0.597256 0.06047,-1.178511 0.171875,-1.743174 z m 6.233635,11.995066 v 9.26e-4 l 9.26e-4,12.812829 h 1.280921 V 21.328701 Z"/>
    </g>
  </defs>
  <g id="acyl-visual">
    <use id="visible1" style="fill:url(#acyl-gradient)" xlink:href="#acyl-drawing"/>
  </g>
</svg>
