<svg xmlns="http://www.w3.org/2000/svg" xmlns:xlink="http://www.w3.org/1999/xlink" width="48" height="48">
  <defs id="acyl-settings">
    <linearGradient id="acyl-gradient" x1="0%" x2="0%" y1="0%" y2="100%">
      <stop offset="100%" style="stop-color:#A0A0A0;stop-opacity:1.000000"/>
    </linearGradient>
    <g id="acyl-filter">
  </g>
    <g id="acyl-drawing">
      <path d="m 24.1905,1.98881 c -0.443,0 -1.027,0.29115 -1.53,0.79541 l -6.314,6.32523 c -0.628,0.62932 -0.714,0.89945 -0.715,2.05905 l 0,15.662 c 0,1.2937 0.965,0.6954 2.065,-0.4002 L 32.0345,12.16 c 0.734,-0.7313 1.008,-1.6368 0.617,-2.028 l -7.961,-7.9651 c -0.123,-0.12206 -0.295,-0.17909 -0.496,-0.17809 z m 12.85,13.01269 c -0.254,0 -0.509,0.1 -0.704,0.2931 l -7.962,7.9661 c -0.391,0.3902 -0.391,1.0185 0,1.4097 l 7.962,7.9661 c 0.39,0.3902 1.018,0.3902 1.409,0 l 7.962,-7.9661 c 0.39,-0.3912 0.39,-1.0195 0,-1.4097 l -7.962,-7.9661 c -0.195,-0.1951 -0.45,-0.2931 -0.705,-0.2931 z m -26.959,0.7754 c -0.286,-0.01 -0.796,0.4302 -1.7,1.3357 l -4.829,4.8304 c -2.07,2.0721 -2.07,2.0701 0,4.1411 l 4.829,4.8315 c 2.062,2.0631 2.069,1.6188 2.069,-0.9205 l 0,-11.9631 c 0,-1.4817 0,-2.2421 -0.369,-2.2551 z m 13.906,12.2843 c -0.255,0 -0.51,0.1 -0.705,0.2931 l -7.962,7.9661 c -0.39,0.3902 -0.39,1.0195 0,1.4097 l 7.962,7.9661 c 0.391,0.3901 1.019,0.3901 1.409,0 l 7.962,-7.9661 c 0.391,-0.3902 0.391,-1.0195 0,-1.4097 l -7.962,-7.9661 c -0.195,-0.1951 -0.449,-0.2931 -0.704,-0.2931 z" id="path-main"/>
    </g>
  </defs>
  <g id="acyl-visual">
    <use id="visible1" style="fill:url(#acyl-gradient)" xlink:href="#acyl-drawing"/>
  </g>
</svg>
