<svg xmlns="http://www.w3.org/2000/svg" xmlns:xlink="http://www.w3.org/1999/xlink" width="48" height="48">
  <defs id="acyl-settings">
    <linearGradient id="acyl-gradient" x1="0%" x2="0%" y1="0%" y2="100%">
      <stop offset="100%" style="stop-color:#A0A0A0;stop-opacity:1.000000"/>
    </linearGradient>
    <g id="acyl-filter">
  </g>
    <g id="acyl-drawing">
      <path d="m 4.747,5.668 c -1.521,0 -2.749,1.234 -2.749,2.754 V 39.58 c 0,1.52 1.228,2.75 2.749,2.75 H 43.25 C 44.77,42.33 46,41.1 46,39.58 V 8.422 C 46,6.902 44.77,5.668 43.25,5.668 Z M 7.524,9.432 H 19.44 v 2.008 l -2.83,0.21 -0.57,0.61 -2.11,11.26 H 15.2 L 25.97,12.41 25.71,11.73 23.05,11.52 V 9.432 H 33.8 v 2.088 l -3.43,0.33 -10.06,10.19 5.5,11 c 0.67,1.32 1.24,2.19 2.16,2.68 0.1,-0.1 0.1,-0.16 0.1,-0.26 l 1.41,-7.75 c 0.46,-2.49 0.66,-4.11 0.46,-4.86 l -2.89,-0.46 0.33,-1.18 6.27,-1.37 c 1.4,0.44 1.26,1.59 0.84,3.76 l -2.01,10.56 c 3.05,-2.79 5.55,-5.47 7.44,-7.93 l 0.69,-5.5 c 0.96,-0.64 1.81,-0.95 2.55,-0.95 1.53,0 2.25,0.98 1.8,2.59 -0.74,2.64 -5.44,8.49 -14.63,16.17 -2.67,0.1 -3.06,0 -4.05,0 -3.44,0 -4.55,-1.45 -6.14,-4.72 l -3.9,-8.18 h -2.71 l -1.76,9.64 0.46,0.67 2.66,0.18 v 2.09 H 2.915 v -2.1 l 2.74,-0.2 0.668,-0.64 4.317,-23.01 -0.43,-0.62 -2.686,-0.21 z" id="path-main"/>
    </g>
  </defs>
  <g id="acyl-visual">
    <use id="visible1" style="fill:url(#acyl-gradient)" xlink:href="#acyl-drawing"/>
  </g>
</svg>
