<svg xmlns="http://www.w3.org/2000/svg" xmlns:xlink="http://www.w3.org/1999/xlink" width="48" height="48">
  <defs id="acyl-settings">
    <linearGradient id="acyl-gradient" x1="0%" x2="0%" y1="0%" y2="100%">
      <stop offset="100%" style="stop-color:#A0A0A0;stop-opacity:1.000000"/>
    </linearGradient>
    <g id="acyl-filter">
  </g>
    <g id="acyl-drawing">
      <path id="path-main" d="M 45.89 2 C 27.14 13.37 -2.975 -3.049 7.375 38.8 L 2.115 43.96 L 4.295 46 L 9.375 40.86 C 60.06 48.46 30.42 16.34 45.89 2 z M 34.23 11.68 L 34.25 11.68 C 34.66 11.68 35.05 11.79 35.42 11.85 C 36.14 12.15 36.75 12.64 37.27 13.25 C 37.38 13.37 37.38 13.52 37.27 13.64 L 36.33 16.59 L 31.14 32.81 C 31.14 32.93 31.03 33.05 30.93 33.11 L 27.43 36.1 L 26.98 36.52 L 26.98 35.62 L 26.45 31.6 C 26.45 31.5 26.45 31.41 26.55 31.34 L 31.66 15.13 L 32.61 12.18 C 32.61 12.07 32.71 12 32.78 11.95 L 32.89 11.95 C 33.36 11.77 33.81 11.68 34.23 11.68 z M 34.25 12.49 L 34.25 12.5 C 33.94 12.5 33.63 12.6 33.25 12.69 L 32.53 15.04 C 33.17 14.94 33.78 14.94 34.28 15.16 C 34.83 15.35 35.19 15.75 35.61 16.13 L 36.39 13.59 C 35.97 13.16 35.55 12.74 35.08 12.59 C 34.82 12.49 34.55 12.49 34.25 12.49 z M 11.45 15.6 L 16.6 15.6 C 16.89 15.6 17.11 15.83 17.11 16.12 C 17.11 16.41 16.89 16.63 16.6 16.63 L 11.45 16.63 C 11.16 16.63 10.95 16.41 10.95 16.12 C 10.95 15.83 11.16 15.6 11.45 15.6 z M 20.72 15.6 L 21.75 15.6 C 22.04 15.6 22.27 15.83 22.27 16.12 C 22.27 16.41 22.05 16.63 21.75 16.63 L 20.72 16.63 C 20.43 16.63 20.21 16.41 20.21 16.12 C 20.21 15.83 20.43 15.6 20.72 15.6 z M 23.82 15.6 L 24.85 15.6 C 25.14 15.6 25.36 15.83 25.36 16.12 C 25.36 16.41 25.14 16.63 24.85 16.63 L 23.82 16.63 C 23.53 16.63 23.3 16.41 23.3 16.12 C 23.3 15.83 23.53 15.6 23.82 15.6 z M 11.45 18.69 L 12.6 18.69 C 12.89 18.69 13.11 18.92 13.11 19.21 C 13.11 19.5 12.89 19.73 12.6 19.73 L 11.45 19.73 C 11.16 19.73 10.95 19.5 10.95 19.21 C 10.95 18.92 11.16 18.69 11.45 18.69 z M 14.84 18.69 L 18.62 18.69 C 19 18.69 19.3 18.92 19.3 19.21 C 19.3 19.5 18.99 19.73 18.62 19.73 L 14.84 19.73 C 14.45 19.73 14.14 19.5 14.14 19.21 C 14.14 18.92 14.45 18.69 14.84 18.69 z M 21.92 18.69 L 24.93 18.69 C 25.24 18.69 25.38 18.92 25.38 19.21 C 25.38 19.5 25.24 19.73 24.93 19.73 L 21.92 19.73 C 21.61 19.73 21.36 19.5 21.36 19.21 C 21.36 18.92 21.61 18.69 21.92 18.69 z M 11.56 21.79 L 20.62 21.79 C 20.98 21.79 21.24 22.01 21.24 22.3 C 21.24 22.59 20.97 22.82 20.62 22.82 L 11.56 22.82 C 11.2 22.82 10.95 22.59 10.95 22.3 C 10.95 22.01 11.2 21.79 11.56 21.79 z M 11.45 24.88 L 14.05 24.88 C 14.33 24.88 14.56 25.11 14.56 25.4 C 14.56 25.69 14.33 25.91 14.05 25.91 L 11.45 25.91 C 11.16 25.91 10.95 25.69 10.95 25.4 C 10.95 25.11 11.16 24.88 11.45 24.88 z M 16.13 24.88 L 17.08 24.88 C 17.4 24.88 17.65 25.11 17.65 25.4 C 17.65 25.69 17.4 25.91 17.08 25.91 L 16.13 25.91 C 15.82 25.91 15.59 25.69 15.59 25.4 C 15.59 25.11 15.83 24.88 16.13 24.88 z M 19.77 24.88 L 24.3 24.88 C 24.76 24.88 25.14 25.11 25.14 25.4 C 25.14 25.69 24.76 25.91 24.3 25.91 L 19.78 25.91 C 19.32 25.91 18.95 25.69 18.95 25.4 C 18.95 25.11 19.32 24.88 19.77 24.88 z M 11.45 27.97 L 13.13 27.97 C 13.42 27.97 13.66 28.2 13.66 28.49 C 13.66 28.78 13.43 29.01 13.13 29.01 L 11.45 29.01 C 11.16 29.01 10.95 28.78 10.95 28.49 C 10.95 28.2 11.16 27.97 11.45 27.97 z M 15.24 27.97 L 16.19 27.97 C 16.49 27.97 16.74 28.2 16.74 28.49 C 16.74 28.78 16.49 29.01 16.19 29.01 L 15.24 29.01 C 14.93 29.01 14.68 28.78 14.68 28.49 C 14.68 28.2 14.93 27.97 15.24 27.97 z M 21.59 28 C 22.29 28 22.85 28.18 23.27 28.53 C 23.69 28.89 23.9 29.4 23.9 30.05 C 23.9 30.36 23.8 30.65 23.61 30.94 C 23.42 31.23 23.16 31.45 22.81 31.61 C 23.22 31.76 23.52 31.98 23.71 32.27 C 23.91 32.57 24.01 32.91 24.01 33.29 C 24.01 33.95 23.78 34.47 23.32 34.85 C 22.87 35.22 22.29 35.41 21.59 35.41 C 20.92 35.41 20.36 35.23 19.9 34.88 C 19.45 34.53 19.24 34.04 19.26 33.41 L 20.41 33.41 C 20.41 33.73 20.52 33.99 20.73 34.18 C 20.95 34.38 21.24 34.48 21.59 34.48 C 21.96 34.48 22.26 34.38 22.47 34.18 C 22.68 33.98 22.79 33.69 22.79 33.32 C 22.79 32.91 22.69 32.62 22.5 32.43 C 22.3 32.24 22 32.14 21.59 32.14 L 20.75 32.14 L 20.75 31.13 L 21.59 31.13 C 21.98 31.13 22.26 31.03 22.43 30.84 C 22.6 30.65 22.68 30.37 22.68 30.02 C 22.68 29.67 22.59 29.41 22.41 29.22 C 22.22 29.03 21.95 28.93 21.59 28.93 C 21.26 28.93 21 29.03 20.79 29.22 C 20.58 29.4 20.48 29.64 20.48 29.95 L 19.32 29.95 C 19.32 29.4 19.53 28.93 19.94 28.56 C 20.37 28.19 20.92 28 21.59 28 z M 11.49 31.07 L 15.53 31.07 C 15.83 31.07 16.08 31.3 16.08 31.58 C 16.08 31.87 15.83 32.1 15.53 32.1 L 11.49 32.1 C 11.18 32.1 10.95 31.84 10.95 31.58 C 10.95 31.33 11.19 31.07 11.49 31.07 z M 27.35 31.8 L 27.7 34.49 C 27.82 34.49 27.94 34.49 28.09 34.61 L 30.28 32.72 L 27.35 31.8 z M 11.49 34.16 L 16.56 34.16 C 16.87 34.16 17.11 34.39 17.11 34.68 C 17.11 34.97 16.87 35.19 16.56 35.19 L 11.49 35.19 C 11.18 35.19 10.95 34.97 10.95 34.68 C 10.95 34.39 11.19 34.16 11.49 34.16 z"/>
    </g>
  </defs>
  <g id="acyl-visual">
    <use id="visible1" style="fill:url(#acyl-gradient)" xlink:href="#acyl-drawing"/>
  </g>
</svg>
