<svg xmlns="http://www.w3.org/2000/svg" xmlns:xlink="http://www.w3.org/1999/xlink" width="48" height="48">
  <defs id="acyl-settings">
    <linearGradient id="acyl-gradient" x1="0%" x2="0%" y1="0%" y2="100%">
      <stop offset="100%" style="stop-color:#A0A0A0;stop-opacity:1.000000"/>
    </linearGradient>
    <g id="acyl-filter">
  </g>
    <g id="acyl-drawing">
      <path id="path-main" d="M 45.89,2 C 27.14,13.37 -2.975,-3.05 7.375,38.8 l -5.26,5.16 2.18,2.04 5.08,-5.14 C 60.06,48.46 30.42,16.34 45.89,2 Z m -11.64,9.68 c 0.41,0 0.8,0.11 1.17,0.17 0.72,0.3 1.33,0.79 1.85,1.4 0.11,0.12 0.11,0.27 0,0.39 l -0.94,2.95 -5.19,16.22 c 0,0.12 -0.11,0.24 -0.21,0.3 l -3.5,2.99 -0.45,0.42 v -0.9 L 26.45,31.6 c 0,-0.1 0,-0.19 0.1,-0.26 l 5.11,-16.21 0.95,-2.95 c 0,-0.11 0.1,-0.18 0.17,-0.23 v 0 h 0.11 c 0.47,-0.18 0.92,-0.27 1.34,-0.27 z m 0,0.82 c -0.31,0 -0.62,0.1 -1,0.19 l -0.72,2.35 c 0.64,-0.1 1.25,-0.1 1.75,0.12 0.55,0.19 0.91,0.59 1.33,0.97 l 0.78,-2.54 c -0.42,-0.43 -0.84,-0.85 -1.31,-1 -0.26,-0.1 -0.53,-0.1 -0.83,-0.1 z m -22.8,3.1 h 5.15 c 0.29,0 0.51,0.23 0.51,0.52 0,0.29 -0.22,0.51 -0.51,0.51 h -5.15 c -0.29,0 -0.5,-0.22 -0.5,-0.51 0,-0.29 0.21,-0.52 0.5,-0.52 z m 9.27,0 h 1.03 c 0.29,0 0.52,0.23 0.52,0.52 0,0.29 -0.22,0.51 -0.52,0.51 h -1.03 c -0.29,0 -0.51,-0.22 -0.51,-0.51 0,-0.29 0.22,-0.52 0.51,-0.52 z m 3.1,0 h 1.03 c 0.29,0 0.51,0.23 0.51,0.52 0,0.29 -0.22,0.51 -0.51,0.51 h -1.03 c -0.29,0 -0.52,-0.22 -0.52,-0.51 0,-0.29 0.23,-0.52 0.52,-0.52 z m -12.37,3.09 h 1.15 c 0.29,0 0.51,0.23 0.51,0.52 0,0.29 -0.22,0.52 -0.51,0.52 h -1.15 c -0.29,0 -0.5,-0.23 -0.5,-0.52 0,-0.29 0.21,-0.52 0.5,-0.52 z m 3.39,0 h 3.78 c 0.38,0 0.68,0.23 0.68,0.52 0,0.29 -0.31,0.52 -0.68,0.52 h -3.78 c -0.39,0 -0.7,-0.23 -0.7,-0.52 0,-0.29 0.31,-0.52 0.7,-0.52 z m 7.08,0 h 3.01 c 0.31,0 0.45,0.23 0.45,0.52 0,0.29 -0.14,0.52 -0.45,0.52 h -3.01 c -0.31,0 -0.56,-0.23 -0.56,-0.52 0,-0.29 0.25,-0.52 0.56,-0.52 z m -10.36,3.1 h 9.06 c 0.36,0 0.62,0.22 0.62,0.51 0,0.29 -0.27,0.52 -0.62,0.52 h -9.06 c -0.36,0 -0.61,-0.23 -0.61,-0.52 0,-0.29 0.25,-0.51 0.61,-0.51 z m -0.11,3.09 h 2.6 c 0.28,0 0.51,0.23 0.51,0.52 0,0.29 -0.23,0.51 -0.51,0.51 h -2.6 c -0.29,0 -0.5,-0.22 -0.5,-0.51 0,-0.29 0.21,-0.52 0.5,-0.52 z m 4.68,0 h 0.95 c 0.32,0 0.57,0.23 0.57,0.52 0,0.29 -0.25,0.51 -0.57,0.51 h -0.95 c -0.31,0 -0.54,-0.22 -0.54,-0.51 0,-0.29 0.24,-0.52 0.54,-0.52 z m 3.64,0 h 4.53 c 0.46,0 0.84,0.23 0.84,0.52 0,0.29 -0.38,0.51 -0.84,0.51 h -4.52 c -0.46,0 -0.83,-0.22 -0.83,-0.51 0,-0.29 0.37,-0.52 0.82,-0.52 z m -8.32,3.09 h 1.68 c 0.29,0 0.53,0.23 0.53,0.52 0,0.29 -0.23,0.52 -0.53,0.52 h -1.68 c -0.29,0 -0.5,-0.23 -0.5,-0.52 0,-0.29 0.21,-0.52 0.5,-0.52 z m 3.79,0 h 0.95 c 0.3,0 0.55,0.23 0.55,0.52 0,0.29 -0.25,0.52 -0.55,0.52 h -0.95 c -0.31,0 -0.56,-0.23 -0.56,-0.52 0,-0.29 0.25,-0.52 0.56,-0.52 z m 4.13,0 h 3.01 c 0.31,0 0.56,0.24 0.56,0.52 0,0.29 -0.25,0.52 -0.56,0.52 h -3.01 c -0.31,0 -0.56,-0.23 -0.56,-0.52 0,-0.28 0.25,-0.52 0.56,-0.52 z m -7.88,3.1 h 4.04 c 0.3,0 0.55,0.23 0.55,0.51 0,0.29 -0.25,0.52 -0.55,0.52 h -4.04 c -0.31,0 -0.54,-0.26 -0.54,-0.52 0,-0.25 0.24,-0.51 0.54,-0.51 z m 7.11,0 h 3.05 c 0.26,0 0.53,0.21 0.52,0.51 0,0.29 -0.25,0.52 -0.56,0.52 H 18.6 c -0.26,0 -0.56,-0.23 -0.56,-0.52 0,-0.28 0.27,-0.53 0.56,-0.51 z m 8.75,0.73 0.35,2.69 c 0.12,0 0.24,0 0.39,0.12 l 2.19,-1.89 z m -15.86,2.36 h 5.07 c 0.31,0 0.55,0.23 0.55,0.52 0,0.29 -0.24,0.51 -0.55,0.51 h -5.07 c -0.31,0 -0.54,-0.22 -0.54,-0.51 0,-0.29 0.24,-0.52 0.54,-0.52 z m 8.38,0 h 2.07 c 0,0 0.5,0.23 0.5,0.52 0,0.29 -0.5,0.51 -0.5,0.51 h -2.07 c 0,0 -0.52,-0.22 -0.52,-0.51 0,-0.29 0.52,-0.52 0.52,-0.52 z"/>
    </g>
  </defs>
  <g id="acyl-visual">
    <use id="visible1" style="fill:url(#acyl-gradient)" xlink:href="#acyl-drawing"/>
  </g>
</svg>
