<svg xmlns="http://www.w3.org/2000/svg" xmlns:xlink="http://www.w3.org/1999/xlink" width="48" height="48">
  <defs id="acyl-settings">
    <linearGradient id="acyl-gradient" x1="0%" x2="0%" y1="0%" y2="100%">
      <stop offset="100%" style="stop-color:#A0A0A0;stop-opacity:1.000000"/>
    </linearGradient>
    <g id="acyl-filter">
  </g>
    <g id="acyl-drawing">
      <path d="m 3.83552,3.85018 c -0.80495,0 -1.45265,0.654 -1.45265,1.4671 l 0,22.55942 1.25916,0 1.80498,-1.786 c 0.26546,-0.266 0.61575,-0.399 0.96603,-0.399 0.35031,0 0.70059,0.133 0.96604,0.399 l 0.72774,0.728 c 0.18335,-0.08 0.37025,-0.159 0.55885,-0.229 l 0,-1.047 c 0,-0.38 0.15866,-0.72 0.41151,-0.965 0.25292,-0.246 0.60002,-0.398 0.97472,-0.398 l 3.1652,0 c 0.375,0 0.716,0.153 0.9632,0.4 0.2471,0.248 0.3999,0.589 0.3999,0.963 l 0,1.044 c 0.1946,0.07 0.3882,0.148 0.5806,0.233 l 0.7292,-0.729 c 0.2654,-0.266 0.6157,-0.399 0.966,-0.399 0.3503,0 0.7005,0.133 0.966,0.399 l 1.805,1.786 26.373,0 0,-22.55942 c 0,-0.8131 -0.6476,-1.4671 -1.4526,-1.4671 l -40.71188,0 z m 7.54048,9.60952 25.6309,0 c 0.8875,0 1.6014,0.495 1.6014,1.109 l 0,4.436 c 0,0.614 -0.7139,1.109 -1.6014,1.109 l -25.6309,0 c -0.8875,0 -1.60136,-0.495 -1.60136,-1.109 l 0,-4.436 c 0,-0.614 0.71386,-1.109 1.60136,-1.109 z m 2.6325,1.563 c -0.8821,0 -1.5976,0.715 -1.5971,1.597 -5e-4,0.881 0.715,1.597 1.5971,1.597 0.8819,0 1.5974,-0.716 1.597,-1.597 4e-4,-0.882 -0.7151,-1.597 -1.597,-1.597 z m 4.1297,0 c -0.882,0 -1.5975,0.715 -1.597,1.597 -5e-4,0.881 0.715,1.597 1.597,1.597 0.882,0 1.5976,-0.716 1.5971,-1.597 5e-4,-0.882 -0.7151,-1.597 -1.5971,-1.597 z m 4.1284,0 c -0.882,0 -1.5974,0.715 -1.5971,1.597 -3e-4,0.881 0.7151,1.597 1.5971,1.597 0.8819,0 1.5974,-0.716 1.597,-1.597 4e-4,-0.882 -0.7151,-1.597 -1.597,-1.597 z m 4.1298,0 c -0.882,0 -1.5974,0.715 -1.597,1.597 -4e-4,0.881 0.715,1.597 1.597,1.597 0.882,0 1.5975,-0.716 1.5971,-1.597 4e-4,-0.882 -0.7151,-1.597 -1.5971,-1.597 z m 4.1299,0 c -0.882,0 -1.5976,0.715 -1.5971,1.597 -5e-4,0.881 0.7151,1.597 1.5971,1.597 0.882,0 1.5974,-0.716 1.597,-1.597 4e-4,-0.882 -0.715,-1.597 -1.597,-1.597 z m 4.1298,0 c -0.8821,0 -1.5976,0.715 -1.5971,1.597 -5e-4,0.881 0.715,1.597 1.5971,1.597 0.8819,0 1.5959,-0.716 1.5956,-1.597 3e-4,-0.882 -0.7137,-1.597 -1.5956,-1.597 z m -22.0584,9.888 c -0.3008,0 -0.6048,0.02 -0.8996,0 l -1.70972,0 c -0.49195,0.107 -0.21544,0.746 -0.28738,1.113 0.0355,0.459 0.007,1.067 -0.52993,1.219 -0.5885,0.123 -1.266,0.782 -1.82665,0.239 -0.38884,-0.328 -0.68185,-0.813 -1.14075,-1.025 -0.41583,0.212 -0.71639,0.672 -1.08877,0.987 -0.50305,0.522 -1.05816,1.002 -1.52774,1.55 -0.0292,0.414 0.47213,0.622 0.696,0.932 0.38515,0.292 0.70644,0.812 0.38844,1.274 -0.26133,0.508 -0.29871,1.399 -1.05123,1.401 -0.50628,0.04 -1.05273,-0.09 -1.53063,0.08 -0.17096,0.477 -0.0371,1.034 -0.0794,1.545 0.0138,0.688 -0.0282,1.38 0.0202,2.063 0.29002,0.301 0.78616,0.102 1.17108,0.159 0.49128,-0.07 1.09594,0.09 1.18408,0.661 0.13474,0.549 0.7139,1.199 0.19493,1.719 -0.32331,0.385 -0.80754,0.675 -1.01657,1.128 0.21934,0.461 0.70954,0.758 1.04401,1.149 0.49597,0.485 0.99855,0.997 1.48875,1.467 0.42399,0.03 0.63545,-0.477 0.95015,-0.707 0.29232,-0.386 0.81563,-0.705 1.27799,-0.386 0.49941,0.263 1.37579,0.308 1.37608,1.05 0.0429,0.507 -0.0926,1.062 0.0794,1.535 0.54666,0.162 1.15936,0.04 1.73426,0.07 0.6259,-0.01 1.2548,0.02 1.8786,-0.01 0.2905,-0.279 0.093,-0.776 0.1516,-1.152 -0.042,-0.445 0.019,-1.019 0.53,-1.163 0.5979,-0.114 1.2824,-0.784 1.8498,-0.239 0.3887,0.328 0.6832,0.814 1.1421,1.027 0.4158,-0.212 0.7164,-0.673 1.0887,-0.988 0.5031,-0.521 1.0582,-1.001 1.5278,-1.55 0.03,-0.414 -0.4736,-0.622 -0.6974,-0.931 -0.3897,-0.3 -0.7399,-0.824 -0.4101,-1.301 0.263,-0.5 0.3076,-1.374 1.0497,-1.375 0.5109,-0.04 1.0584,0.08 1.5437,-0.07 0.1472,-0.565 0.03,-1.191 0.067,-1.781 -0.011,-0.615 0.022,-1.234 -0.017,-1.847 -0.279,-0.29 -0.7758,-0.09 -1.1523,-0.15 -0.4945,0.07 -1.1114,-0.08 -1.2043,-0.654 -0.1449,-0.54 -0.7125,-1.186 -0.1963,-1.701 0.3352,-0.355 0.7145,-0.674 1.0223,-1.052 0.02,-0.418 -0.4767,-0.622 -0.7047,-0.93 -0.6027,-0.592 -1.2124,-1.21 -1.8093,-1.786 -0.4239,-0.03 -0.6368,0.477 -0.9516,0.707 -0.292,0.385 -0.8129,0.706 -1.275,0.388 -0.5074,-0.261 -1.3998,-0.298 -1.4021,-1.051 -0.036,-0.51 0.079,-1.058 -0.066,-1.544 -0.2822,-0.07 -0.5802,-0.08 -0.8809,-0.07 l 0,0 z m -0.9747,2.699 c 3.8131,0 6.921,3.108 6.921,6.921 0,3.813 -3.1079,6.921 -6.921,6.921 -3.81312,0 -6.92108,-3.108 -6.92108,-6.921 0,-3.813 3.10796,-6.921 6.92108,-6.921 z m 0,0.768 c -3.39597,0 -6.15288,2.757 -6.15288,6.153 0,3.396 2.75691,6.153 6.15288,6.153 3.396,0 6.1528,-2.757 6.1528,-6.153 0,-3.396 -2.7568,-6.153 -6.1528,-6.153 z m -9.24013,0.238 0,3.07 c 0.10006,-0.02 0.16974,-0.113 0.2758,-0.113 l 1.0209,0 c 0.0694,-0.194 0.14733,-0.387 0.23248,-0.581 l -0.72921,-0.729 c -0.26541,-0.266 -0.39854,-0.616 -0.39854,-0.967 0,-0.246 0.14864,-0.463 0.28013,-0.68 l -0.68156,0 z m 17.82033,0 c 0.1321,0.217 0.2815,0.435 0.2815,0.682 0,0.35 -0.1331,0.701 -0.3985,0.966 l -0.7509,0.751 c 0.083,0.184 0.1586,0.37 0.2281,0.558 l 1.0469,0 c 0.375,0 0.7161,0.153 0.9632,0.4 0.2471,0.248 0.4,0.589 0.4,0.964 l 0,3.188 c 0,0.375 -0.1539,0.716 -0.4015,0.963 -0.2474,0.248 -0.5883,0.401 -0.9646,0.401 l -1.0468,0 c -0.069,0.19 -0.1454,0.376 -0.2282,0.559 l 0.7509,0.752 c 0.2654,0.265 0.3985,0.615 0.3985,0.966 0,0.111 -0.1,0.199 -0.1271,0.308 l 24.1927,0 c 0.805,0 1.4526,-0.653 1.4526,-1.467 l 0,-9.991 -25.7968,0 z m 13.4955,3.327 7.6011,0 c 0.9662,0 1.7444,0.654 1.7444,1.465 l 0,2.246 c 0,0.811 -0.7782,1.464 -1.7444,1.464 l -7.6011,0 c -0.9661,0 -1.7444,-0.653 -1.7444,-1.464 l 0,-2.246 c 0,-0.811 0.7783,-1.465 1.7444,-1.465 z m -22.0757,0.28 c 0.6389,0 1.2161,0.258 1.6331,0.674 0.4171,0.418 0.6744,0.995 0.6744,1.634 0,0.639 -0.2573,1.216 -0.6744,1.633 -0.417,0.418 -0.9942,0.675 -1.6331,0.675 -0.639,0 -1.2162,-0.257 -1.63322,-0.675 -0.41712,-0.417 -0.67432,-0.994 -0.67432,-1.633 0,-0.639 0.2572,-1.216 0.67432,-1.634 0.41702,-0.416 0.99422,-0.674 1.63322,-0.674 z m -9.24013,5.153 0,1.231 c 0,0.415 0.17387,0.781 0.44619,1.047 0.0267,-0.31 0.11845,-0.621 0.35378,-0.856 l 0.72921,-0.729 c -0.0852,-0.193 -0.16313,-0.386 -0.23248,-0.581 l -1.0209,0 c -0.10606,0 -0.17574,-0.09 -0.2758,-0.112 z" id="path-main"/>
    </g>
  </defs>
  <g id="acyl-visual">
    <use id="visible1" style="fill:url(#acyl-gradient)" xlink:href="#acyl-drawing"/>
  </g>
</svg>
