<svg xmlns="http://www.w3.org/2000/svg" xmlns:xlink="http://www.w3.org/1999/xlink" width="48" height="48">
  <defs id="acyl-settings">
    <linearGradient id="acyl-gradient" x1="0%" x2="0%" y1="0%" y2="100%">
      <stop offset="100%" style="stop-color:#A0A0A0;stop-opacity:1.000000"/>
    </linearGradient>
    <g id="acyl-filter">
  </g>
    <g id="acyl-drawing">
      <path id="path-main" d="M 13 2 L 6 9 L 6 46 L 34 46 L 42 38 L 42 2 L 13 2 z M 24 5.004 A 9.497 9.497 0 0 1 33.5 14.5 A 9.497 9.497 0 0 1 24 24 A 9.497 9.497 0 0 1 14.5 14.5 A 9.497 9.497 0 0 1 24 5.004 z M 24 7.5 A 7 7 0 0 0 17 14.5 A 7 7 0 0 0 24 21.5 A 7 7 0 0 0 31 14.5 A 7 7 0 0 0 24 7.5 z M 22 10 L 26 10 C 26.55 10 27 10.45 27 11 C 27 11.55 26.55 12 26 12 L 22 12 C 21.45 12 21 11.55 21 11 C 21 10.45 21.45 10 22 10 z M 20 13.5 L 28 13.5 C 28.55 13.5 29 13.95 29 14.5 C 29 15.05 28.55 15.5 28 15.5 L 20 15.5 C 19.45 15.5 19 15.05 19 14.5 C 19 13.95 19.45 13.5 20 13.5 z M 22 17 L 26 17 C 26.55 17 27 17.45 27 18 C 27 18.55 26.55 19 26 19 L 22 19 C 21.45 19 21 18.55 21 18 C 21 17.45 21.45 17 22 17 z M 20.07 26.75 C 21.24 26.75 22.47 26.96 23.42 27.69 C 24.14 28.12 24.59 28.93 24.87 29.71 C 25.39 31.02 25.54 32.41 25.54 33.78 C 25.54 35.16 25.44 36.62 25.02 37.91 C 24.74 38.77 24.14 39.58 23.34 40.15 C 23.94 41.11 24.51 41.98 25.02 42.84 C 24.37 43.2 23.64 43.5 22.91 43.87 C 22.34 42.84 21.74 41.9 21.17 40.87 C 20.37 41.02 19.5 41.02 18.7 40.87 C 17.67 40.77 16.74 40.52 15.94 39.87 C 15.34 39.35 14.99 38.63 14.77 37.91 C 14.34 36.76 14.27 35.46 14.27 34.21 C 14.27 32.84 14.37 31.46 14.7 30.14 C 15.07 29.14 15.57 28.19 16.44 27.62 C 17.54 26.91 18.84 26.75 20.07 26.75 z M 28.37 27.54 L 30.54 27.54 L 30.54 30.44 L 33.39 30.44 C 33.39 31.09 33.29 31.68 33.29 32.33 L 30.52 32.33 C 30.52 33.93 30.42 35.51 30.52 37.12 C 30.52 37.55 30.52 37.97 30.67 38.42 C 30.81 38.7 31.17 38.77 31.54 38.77 C 32.12 38.77 32.7 38.77 33.21 38.67 C 33.31 39.25 33.31 39.84 33.37 40.41 C 32.2 40.64 30.97 40.84 29.87 40.52 C 29.37 40.37 28.92 40.08 28.7 39.58 C 28.41 38.77 28.34 37.91 28.34 37.06 L 28.34 32.34 L 26.81 32.34 L 26.81 30.45 L 28.34 30.45 L 28.37 27.54 z M 19.14 28.7 C 18.54 28.8 17.97 28.99 17.61 29.45 C 17.17 29.86 16.94 30.51 16.74 31.17 C 16.37 32.83 16.44 34.5 16.74 36.18 C 16.84 36.75 16.94 37.26 17.17 37.75 C 17.39 38.13 17.74 38.5 18.11 38.7 C 18.77 39 19.57 39.07 20.3 39 C 21.02 39 21.74 38.7 22.26 38.2 C 22.7 37.62 22.91 36.9 22.99 36.25 C 23.14 35.02 23.21 33.86 23.09 32.69 C 22.99 31.82 22.87 30.89 22.51 30.09 C 22.29 29.57 21.86 29.14 21.27 28.93 C 20.83 28.71 20.32 28.71 19.82 28.71 L 19.79 28.7 L 19.14 28.7 z"/>
    </g>
  </defs>
  <g id="acyl-visual">
    <use id="visible1" style="fill:url(#acyl-gradient)" xlink:href="#acyl-drawing"/>
  </g>
</svg>
