<svg xmlns="http://www.w3.org/2000/svg" xmlns:xlink="http://www.w3.org/1999/xlink" width="48" height="48">
  <defs id="acyl-settings">
    <linearGradient id="acyl-gradient" x1="0%" x2="0%" y1="0%" y2="100%">
      <stop offset="100%" style="stop-color:#A0A0A0;stop-opacity:1.000000"/>
    </linearGradient>
    <g id="acyl-filter">
  </g>
    <g id="acyl-drawing">
      <path id="path-main" d="M 2 2 L 2 22 L 8.449 22 L 8.449 13.41 C 8.449 12.33 8.189 11.89 7.809 11.64 C 7.539 11.49 6.799 11.31 5.699 11.31 L 4.699 11.31 L 4.699 8.221 L 22 8.221 L 22 2 L 2 2 z M 26 2 L 26 22 L 46 22 L 46 2 L 26 2 z M 35.47 4 L 36.01 4 L 36.54 4 C 40.53 4.26 43.73 7.449 43.98 11.44 L 43.98 11.98 L 43.98 12.51 C 43.73 16.5 40.53 19.7 36.54 19.96 L 36.01 19.96 L 35.47 19.96 C 31.48 19.7 28.28 16.5 28.02 12.51 L 28.02 11.98 L 28.02 11.44 C 28.28 7.449 31.48 4.26 35.47 4 z M 35.47 5.119 C 34.38 5.409 33.43 6.59 32.86 8.25 L 35.47 8.25 L 35.47 5.119 z M 36.54 5.119 L 36.54 8.25 L 39.15 8.25 C 38.58 6.59 37.63 5.409 36.54 5.119 z M 33.01 5.721 C 31.84 6.281 30.85 7.16 30.16 8.25 L 31.76 8.25 C 32.07 7.27 32.5 6.411 33.01 5.721 z M 39 5.721 C 39.51 6.411 39.94 7.27 40.25 8.25 L 41.84 8.25 C 41.15 7.16 40.16 6.281 39 5.721 z M 29.6 9.311 C 29.32 9.981 29.19 10.69 29.09 11.44 L 31.22 11.44 C 31.25 10.7 31.34 9.981 31.48 9.311 L 29.6 9.311 z M 32.56 9.311 C 32.41 9.981 32.28 10.69 32.28 11.44 L 35.47 11.44 L 35.47 9.311 L 32.56 9.311 z M 36.54 9.311 L 36.54 11.44 L 39.73 11.44 C 39.69 10.69 39.6 9.981 39.45 9.311 L 36.54 9.311 z M 40.53 9.311 C 40.68 9.981 40.79 10.7 40.79 11.44 L 42.92 11.44 C 42.86 10.69 42.68 9.981 42.4 9.311 L 40.53 9.311 z M 9.09 10.22 C 9.75 10.76 10.19 11.53 10.36 12.45 C 10.42 12.75 10.45 13.08 10.45 13.41 L 10.45 22 L 10.45 24.87 L 10.45 34.59 C 10.45 35.93 10.06 37.11 9.119 37.78 L 22 37.78 L 26 37.78 L 30.13 37.78 L 31.3 31.41 C 30.72 32.34 30 33.24 28.95 33.97 C 28.74 34.12 28.52 34.25 28.29 34.38 C 28.1 34.48 27.91 34.58 27.71 34.67 L 27.59 34.73 C 27.36 34.84 27.12 34.93 26.86 35.03 C 26.86 35.03 26.85 35.03 26.84 35.04 L 26.83 35.04 C 26.58 35.13 26.31 35.21 26.04 35.29 C 24.89 35.61 23.55 35.8 21.97 35.84 C 21.47 35.85 20.95 35.85 20.4 35.83 C 18.82 35.83 17.72 35.73 16.83 35.23 C 15.88 34.7 15.52 33.58 15.52 32.39 L 15.52 24.87 L 15.52 22 L 15.52 14.32 C 15.52 12.49 15.85 11.07 16.88 10.22 L 9.09 10.22 z M 21.03 11.31 C 19.37 11.31 18.33 11.58 18.22 11.68 C 17.97 11.85 17.58 12.65 17.58 14.32 L 17.58 22 L 22 22 L 22 11.31 L 21.03 11.31 z M 29.09 12.51 C 29.15 13.26 29.32 13.98 29.6 14.64 L 31.48 14.64 C 31.34 13.97 31.22 13.26 31.22 12.51 L 29.09 12.51 z M 32.28 12.51 C 32.31 13.26 32.41 13.98 32.56 14.64 L 35.47 14.64 L 35.47 12.51 L 32.28 12.51 z M 36.54 12.51 L 36.54 14.64 L 39.45 14.64 C 39.6 13.98 39.72 13.26 39.72 12.51 L 36.54 12.51 z M 40.79 12.51 C 40.76 13.26 40.67 13.97 40.52 14.64 L 42.4 14.64 C 42.68 13.98 42.81 13.26 42.91 12.51 L 40.79 12.51 z M 30.16 15.71 C 30.85 16.8 31.84 17.67 33.01 18.24 C 32.5 17.54 32.07 16.69 31.76 15.71 L 30.16 15.71 z M 32.86 15.71 C 33.43 17.37 34.38 18.55 35.47 18.84 L 35.47 15.71 L 32.86 15.71 z M 36.54 15.71 L 36.54 18.84 C 37.63 18.55 38.58 17.37 39.15 15.71 L 36.54 15.71 z M 40.25 15.71 C 39.94 16.69 39.51 17.54 39 18.24 C 40.16 17.67 41.15 16.8 41.84 15.71 L 40.25 15.71 z M 2 24.87 L 2 44.87 L 22 44.87 L 22 39.77 L 4.699 39.77 L 4.699 36.79 L 5.578 36.69 C 6.978 36.52 7.949 36.19 7.949 36.19 C 8.199 36.03 8.449 35.62 8.449 34.59 L 8.449 24.87 L 2 24.87 z M 17.58 24.87 L 17.58 32.4 C 17.58 33.24 17.76 33.49 17.86 33.49 C 18.03 33.58 19 33.82 20.46 33.82 C 21.01 33.84 21.52 33.84 22 33.83 L 22 24.87 L 17.58 24.87 z M 26 24.87 L 26 33.21 C 26.72 32.97 27.32 32.66 27.81 32.32 C 29.21 31.35 29.93 30 30.58 28.46 L 30.84 27.85 L 32.78 27.85 L 33.98 27.85 L 31.79 39.77 L 26 39.77 L 26 44.87 L 46 44.87 L 46 24.87 L 26 24.87 z"/>
    </g>
  </defs>
  <g id="acyl-visual">
    <use id="visible1" style="fill:url(#acyl-gradient)" xlink:href="#acyl-drawing"/>
  </g>
</svg>
