<svg xmlns="http://www.w3.org/2000/svg" xmlns:xlink="http://www.w3.org/1999/xlink" width="48" height="48">
  <defs id="acyl-settings">
    <linearGradient id="acyl-gradient" x1="0%" x2="0%" y1="0%" y2="100%">
      <stop offset="100%" style="stop-color:#A0A0A0;stop-opacity:1.000000"/>
    </linearGradient>
    <g id="acyl-filter">
  </g>
    <g id="acyl-drawing">
      <path d="M 4 2 L 4 46 L 44 46 L 44 2 L 4 2 z M 9 4.06836 A 2.99999 2.99999 0 0 1 12 7.06836 A 2.99999 2.99999 0 0 1 9 10.0684 A 2.99999 2.99999 0 0 1 6 7.06836 A 2.99999 2.99999 0 0 1 9 4.06836 z M 39 4.06836 A 2.99999 2.99999 0 0 1 42 7.06836 A 2.99999 2.99999 0 0 1 39 10.0684 A 2.99999 2.99999 0 0 1 36 7.06836 A 2.99999 2.99999 0 0 1 39 4.06836 z M 15 5.65234 L 33 5.65234 L 33 7.65234 L 15 7.65234 L 15 5.65234 z M 15 9.22656 L 28.6074 9.22656 L 28.6074 11.2266 L 15 11.2266 L 15 9.22656 z M 9 12.5352 A 2.99999 2.99999 0 0 1 12 15.5352 A 2.99999 2.99999 0 0 1 9 18.5352 A 2.99999 2.99999 0 0 1 6 15.5352 A 2.99999 2.99999 0 0 1 9 12.5352 z M 39 12.5352 A 2.99999 2.99999 0 0 1 42 15.5352 A 2.99999 2.99999 0 0 1 39 18.5352 A 2.99999 2.99999 0 0 1 36 15.5352 A 2.99999 2.99999 0 0 1 39 12.5352 z M 24 16.1426 C 29.1836 16.1426 33.4277 20.3887 33.4277 25.5723 C 33.4277 30.7558 29.1836 35 24 35 C 22.1375 35 20.4002 34.4445 18.9336 33.502 L 9.74023 42.9922 A 2.0002 2.0002 0 1 1 6.86719 40.209 L 16.0977 30.6836 C 15.1377 29.2078 14.5723 27.4534 14.5723 25.5723 C 14.5723 20.3887 18.8164 16.1426 24 16.1426 z M 24 20.1426 C 20.9782 20.1426 18.5723 22.5505 18.5723 25.5723 C 18.5723 28.5941 20.9782 31 24 31 C 27.0218 31 29.4277 28.5941 29.4277 25.5723 C 29.4277 22.5505 27.0218 20.1426 24 20.1426 z M 9 21 A 2.99999 2.99999 0 0 1 12 24 A 2.99999 2.99999 0 0 1 9 27 A 2.99999 2.99999 0 0 1 6 24 A 2.99999 2.99999 0 0 1 9 21 z M 39 21 A 2.99999 2.99999 0 0 1 42 24 A 2.99999 2.99999 0 0 1 39 27 A 2.99999 2.99999 0 0 1 36 24 A 2.99999 2.99999 0 0 1 39 21 z M 39 29.4648 A 2.99999 2.99999 0 0 1 42 32.4648 A 2.99999 2.99999 0 0 1 39 35.4648 A 2.99999 2.99999 0 0 1 36 32.4648 A 2.99999 2.99999 0 0 1 39 29.4648 z M 39 37.9316 A 2.99999 2.99999 0 0 1 42 40.9316 A 2.99999 2.99999 0 0 1 39 43.9316 A 2.99999 2.99999 0 0 1 36 40.9316 A 2.99999 2.99999 0 0 1 39 37.9316 z " id="path-main"/>
    </g>
  </defs>
  <g id="acyl-visual">
    <use id="visible1" style="fill:url(#acyl-gradient)" xlink:href="#acyl-drawing"/>
  </g>
</svg>
