<svg xmlns="http://www.w3.org/2000/svg" xmlns:xlink="http://www.w3.org/1999/xlink" width="48" height="48">
  <defs id="acyl-settings">
    <linearGradient id="acyl-gradient" x1="0%" x2="0%" y1="0%" y2="100%">
      <stop offset="100%" style="stop-color:#A0A0A0;stop-opacity:1.000000"/>
    </linearGradient>
    <g id="acyl-filter">
  </g>
    <g id="acyl-drawing">
      <path id="path-main" d="M 24,2.004 C 11.86,2.004 1.998,11.86 1.998,24 c 0,3.56 0.854,6.92 2.359,9.9 0.696,1.85 2.02,3.52 3.358,4.89 h 0.04 C 11.78,43.23 17.57,46 24,46 36.14,46 46,36.14 46,24 46,11.86 36.14,2.004 24,2.004 Z M 21.96,4.32 c 1.36,1.996 2.47,4.147 3.34,6.39 -0.43,0 -0.86,-0.1 -1.3,-0.1 -1.53,0 -3,0.27 -4.37,0.75 C 18.73,9.411 17.61,7.517 16.28,5.777 18.05,5.025 19.96,4.524 21.96,4.32 Z m 9.46,1.344 c 1.84,0.745 3.55,1.752 5.06,2.986 -0.45,2.38 -1.18,4.69 -2.16,6.89 C 33.1,14.06 31.56,12.85 29.82,12 30.59,9.96 31.14,7.837 31.42,5.664 Z M 8.648,11.51 c 2.392,0.45 4.702,1.19 6.902,2.16 -1.48,1.22 -2.68,2.75 -3.53,4.49 C 9.969,17.38 7.843,16.84 5.666,16.56 6.41,14.72 7.417,13.02 8.648,11.51 Z M 24,12.75 c 6.22,0 11.25,5.03 11.25,11.25 0,6.22 -5.03,11.25 -11.25,11.25 -6.22,0 -11.25,-5.03 -11.25,-11.25 0,-6.22 5.03,-11.25 11.25,-11.25 z m 17.97,3.01 c 0.82,1.8 1.4,3.75 1.65,5.8 -1.93,1.56 -4.07,2.8 -6.34,3.76 0,-0.43 0.1,-0.87 0.1,-1.32 0,-1.57 -0.29,-3.07 -0.79,-4.47 1.96,-1 3.76,-2.26 5.38,-3.77 z m -22.04,2.31 v 11.85 h 1.16 c 0.21,0 0.42,0 0.59,-0.13 l 8.24,-4.75 c 0.36,-0.19 0.55,-0.62 0.55,-1.04 0,-0.43 -0.19,-0.84 -0.55,-1.04 L 21.69,18.2 C 21.52,18.1 21.31,18.07 21.1,18.07 Z m -9.21,4.6 c -0.1,0.43 -0.1,0.88 -0.1,1.33 0,1.52 0.27,2.99 0.74,4.35 -1.963,0.91 -3.852,2.03 -5.59,3.37 -0.754,-1.79 -1.255,-3.7 -1.458,-5.71 1.999,-1.36 4.152,-2.47 6.408,-3.34 z m 25.32,7.07 c 2.11,0.68 4.28,1.08 6.49,1.14 -0.71,1.91 -1.7,3.68 -2.93,5.27 -2.47,-0.28 -4.9,-0.88 -7.22,-1.77 1.54,-1.25 2.79,-2.83 3.66,-4.64 z m -22.37,2.71 c 1.24,1.5 2.8,2.72 4.57,3.58 -0.67,2.08 -1.06,4.28 -1.13,6.5 -1.92,-0.72 -3.69,-1.71 -5.27,-2.94 0.27,-2.47 0.9,-4.87 1.83,-7.14 z m 14.79,4.12 c 1,1.96 2.27,3.79 3.79,5.4 -1.82,0.83 -3.77,1.41 -5.83,1.66 -1.55,-1.93 -2.8,-4.07 -3.76,-6.35 0.44,0 0.89,0.1 1.34,0.1 1.56,0 3.06,-0.28 4.46,-0.78 z"/>
    </g>
  </defs>
  <g id="acyl-visual">
    <use id="visible1" style="fill:url(#acyl-gradient)" xlink:href="#acyl-drawing"/>
  </g>
</svg>
