<svg xmlns="http://www.w3.org/2000/svg" xmlns:xlink="http://www.w3.org/1999/xlink" width="48" height="48">
  <defs id="acyl-settings">
    <linearGradient id="acyl-gradient" x1="0%" x2="0%" y1="0%" y2="100%">
      <stop offset="100%" style="stop-color:#A0A0A0;stop-opacity:1.000000"/>
    </linearGradient>
    <g id="acyl-filter">
  </g>
    <g id="acyl-drawing">
      <path d="m 40.003892,18.77698 c 0.456144,0 0.866705,-0.15827 1.155871,-0.47482 h 3.340359 c 1.311137,0 2.374101,-1.06297 2.374101,-2.3741 0,-1.31114 -1.062964,-2.3741 -2.374101,-2.3741 H 41.159763 C 40.870597,13.23741 40.460036,13.07914 40.003892,13.07914 H 37.717 v -2.3741 h 2.286734 c 0.456144,0 0.866705,-0.15828 1.15587,-0.47482 h 3.34036 c 1.311137,0 2.374101,-1.06297 2.374101,-2.3741 0,-1.31114 -1.062964,-2.37411 -2.374101,-2.37411 h -3.34036 C 40.870439,5.16547 40.459878,5.00719 40.003734,5.00719 H 37.722223 C 37.600669,3.42446 36.234612,2 34.568784,2 H 13.431374 C 11.765547,2 10.399331,3.42446 10.277777,5.00719 H 7.996108 c -0.456144,0 -0.866705,0.15828 -1.155871,0.47482 H 3.499878 c -1.311137,0 -2.374101,1.06297 -2.374101,2.37411 0,1.31113 1.062964,2.3741 2.374101,2.3741 h 3.340359 c 0.289166,0.31654 0.699727,0.47482 1.155871,0.47482 h 2.181324 v 2.3741 H 7.996108 c -0.456144,0 -0.866705,0.15827 -1.155871,0.47482 H 3.499878 c -1.311137,0 -2.374101,1.06296 -2.374101,2.3741 0,1.31113 1.062964,2.3741 2.374101,2.3741 h 3.340359 c 0.289166,0.31655 0.699727,0.47482 1.155871,0.47482 h 2.181324 v 2.3741 H 7.996108 c -0.456144,0 -0.866705,0.15827 -1.155871,0.47482 H 3.499878 c -1.311137,0 -2.374101,1.06296 -2.374101,2.3741 0,1.31114 1.062964,2.3741 2.374101,2.3741 h 3.340359 c 0.289166,0.31655 0.699727,0.47482 1.155871,0.47482 h 2.181324 v 2.3741 H 7.996108 c -0.456144,0 -0.866705,0.15827 -1.155871,0.47482 H 3.499878 c -1.311137,0 -2.374101,1.06297 -2.374101,2.3741 0,1.31114 1.062964,2.3741 2.374101,2.3741 h 3.340359 c 0.289166,0.31655 0.699727,0.47482 1.155871,0.47482 h 2.181324 v 2.3741 H 7.996108 c -0.456144,0 -0.866705,0.15828 -1.155871,0.47482 H 3.499878 c -1.311137,0 -2.374101,1.06297 -2.374101,2.3741 0,1.31114 1.062964,2.37411 2.374101,2.37411 h 3.340359 c 0.289166,0.31654 0.699727,0.47482 1.155871,0.47482 h 2.281669 C 10.399173,44.57554 11.765389,46 13.431374,46 h 21.13741 c 1.665828,0 3.032043,-1.42446 3.153439,-3.00719 h 2.281511 c 0.456144,0 0.866705,-0.15828 1.15587,-0.47482 h 3.34036 c 1.311137,0 2.374101,-1.06297 2.374101,-2.37411 0,-1.31113 -1.062964,-2.3741 -2.374101,-2.3741 h -3.34036 c -0.289165,-0.31654 -0.699726,-0.47482 -1.15587,-0.47482 H 37.717 v -2.3741 h 2.286734 c 0.456144,0 0.866705,-0.15827 1.15587,-0.47482 h 3.34036 c 1.311137,0 2.374101,-1.06296 2.374101,-2.3741 0,-1.31113 -1.062964,-2.3741 -2.374101,-2.3741 h -3.34036 c -0.289165,-0.31655 -0.699726,-0.47482 -1.15587,-0.47482 H 37.717 v -2.3741 h 2.286734 c 0.456144,0 0.866705,-0.15827 1.15587,-0.47482 h 3.34036 c 1.311137,0 2.374101,-1.06296 2.374101,-2.3741 0,-1.31114 -1.062964,-2.3741 -2.374101,-2.3741 h -3.34036 c -0.289165,-0.31655 -0.699726,-0.47482 -1.15587,-0.47482 H 37.717 v -2.3741 z M 30.752971,39.82734 H 17.14146 V 8.17266 h 13.611511 z" id="path-main"/>
    </g>
  </defs>
  <g id="acyl-visual">
    <use id="visible1" style="fill:url(#acyl-gradient)" xlink:href="#acyl-drawing"/>
  </g>
</svg>
