<svg xmlns="http://www.w3.org/2000/svg" xmlns:xlink="http://www.w3.org/1999/xlink" width="48" height="48">
  <defs id="acyl-settings">
    <linearGradient id="acyl-gradient" x1="0%" x2="0%" y1="0%" y2="100%">
      <stop offset="100%" style="stop-color:#A0A0A0;stop-opacity:1.000000"/>
    </linearGradient>
    <g id="acyl-filter">
  </g>
    <g id="acyl-drawing">
      <path id="path-main" d="m 24.15,1.857 c -3.28,0 -6.57,1.249 -9.07,3.746 L 5.898,14.79 c -5.0003,5.01 -5.0003,13.15 0,18.15 l 9.182,9.18 c 5.01,5.01 13.15,5.01 18.15,0 l 9.18,-9.18 c 5.01,-5 5.01,-13.14 0,-18.15 L 33.23,5.603 C 30.73,3.106 27.45,1.857 24.15,1.857 Z m 0,3.988 c 2.25,0 4.48,0.876 6.23,2.608 l 7.18,7.177 c -6.43,-1.09 -9.08,-5.17 -15.08,-4.89 -3.45,0.39 -5.71,3.05 -7.58,5.07 L 22,32 c -0.83,-0.38 0.14,-0.67 -0.78,-0.67 -3.05,0 -5.61,2.08 -6.33,4.9 L 8.746,30.09 c -3.474,-3.48 -3.474,-8.97 0,-12.45 L 17.93,8.453 c 1.73,-1.732 3.98,-2.608 6.22,-2.608 z m 3.09,11.995 c 3.59,0.1 6.62,2.3 12.74,0.25 3.04,3.49 2.92,8.66 -0.41,12 l -9.19,9.18 c -1.08,1.08 -2.36,1.82 -3.71,2.24 0.7,-1.04 1.1,-2.3 1.1,-3.64 0,-0.91 -0.2,-1.83 -0.59,-2.67 L 21.22,19.99 c 2.42,-1.7 4.28,-2.18 6.02,-2.15 z"/>
    </g>
  </defs>
  <g id="acyl-visual">
    <use id="visible1" style="fill:url(#acyl-gradient)" xlink:href="#acyl-drawing"/>
  </g>
</svg>
