<svg xmlns="http://www.w3.org/2000/svg" xmlns:xlink="http://www.w3.org/1999/xlink" width="48" height="48">
  <defs id="acyl-settings">
    <linearGradient id="acyl-gradient" x1="0%" x2="0%" y1="0%" y2="100%">
      <stop offset="100%" style="stop-color:#A0A0A0;stop-opacity:1.000000"/>
    </linearGradient>
    <g id="acyl-filter">
  </g>
    <g id="acyl-drawing">
      <path d="M 24.0078 3.07227 C 15.9236 3.07227 10.5742 7.14827 9.68164 13.9297 A 6.43902 6.43902 0 0 0 8.43945 13.8008 A 6.43902 6.43902 0 0 0 2 20.2383 A 6.43902 6.43902 0 0 0 8.26758 26.6719 C 7.60729 28.1139 7.29297 29.8937 7.29297 31.709 C 7.29297 38.1251 12.863 44.8549 24.0176 44.9258 C 35.3182 44.9988 40.707 38.1251 40.707 31.709 C 40.7148 29.8661 40.3411 28.1096 39.6426 26.6738 A 6.43902 6.43902 0 0 0 46 20.2383 A 6.43902 6.43902 0 0 0 39.5605 13.8008 A 6.43902 6.43902 0 0 0 38.3574 13.918 C 37.4859 6.90034 32.1152 3.07227 24.0078 3.07227 z M 18.5762 12.1973 C 21.1061 12.2603 23.2235 13.8069 24.0625 15.4961 C 24.7737 13.8069 27.0806 12.1339 29.4238 12.1973 C 33.2728 12.3025 34.8516 14.8184 34.8516 18.6367 C 34.8516 20.5458 34.445 22.3571 33.6699 23.9668 C 36.867 24.8314 39.0586 26.6827 39.0586 31.5117 C 39.0586 36.6027 32.5854 42.2441 24 42.2441 C 15.4146 42.2441 8.9082 36.6691 8.9082 31.5781 C 8.9082 25.9443 11.133 24.8647 14.3301 24 C 13.6741 22.5305 13.1484 20.5458 13.1484 18.6367 C 13.1484 14.8184 14.7257 12.1973 18.5762 12.1973 z M 19.707 15.4102 A 2.14634 2.14633 0 0 0 17.5605 17.5566 A 2.14634 2.14633 0 0 0 19.707 19.7031 A 2.14634 2.14633 0 0 0 21.8535 17.5566 A 2.14634 2.14633 0 0 0 19.707 15.4102 z M 28.293 15.4102 A 2.14634 2.14633 0 0 0 26.1465 17.5566 A 2.14634 2.14633 0 0 0 28.293 19.7031 A 2.14634 2.14633 0 0 0 30.4395 17.5566 A 2.14634 2.14633 0 0 0 28.293 15.4102 z M 9.60352 16.4902 L 10.6328 24 C 10.1109 24.2622 9.66583 24.6396 9.27344 25.084 A 4.08914 4.32389 0 0 1 5.75586 20.8066 A 4.08914 4.32389 0 0 1 9.60352 16.4902 z M 38.4219 16.5176 A 4.17115 4.31751 0 0 1 42.2441 20.8203 A 4.17115 4.31751 0 0 1 38.6172 25.0918 C 38.2445 24.6624 37.8337 24.285 37.3672 24 L 38.4219 16.5176 z M 21.3164 21.6465 C 20.4278 21.6465 19.707 22.4096 19.707 23.3574 C 19.707 23.3694 19.7068 23.3786 19.707 23.3906 C 20.4593 23.0693 21.5616 22.8451 22.8262 22.7539 C 22.599 22.0992 22.0088 21.6465 21.3164 21.6465 z M 26.6836 21.6465 C 25.9913 21.6465 25.4009 22.0993 25.1738 22.7539 C 26.4383 22.8449 27.5407 23.0693 28.293 23.3906 C 28.2932 23.3786 28.293 23.3694 28.293 23.3574 C 28.293 22.4095 27.5722 21.6484 26.6836 21.6484 L 26.6836 21.6465 z M 13.2676 28.3359 C 13.2676 32.2013 16.1245 31.4398 24.0879 31.4297 C 32.0595 31.4187 34.7729 32.3002 34.7266 28.3711 C 34.7265 28.3711 34.7267 28.3613 34.7266 28.3613 C 33.2929 29.4877 31.5243 29.3709 24.0879 29.3848 C 16.6579 29.3988 14.9488 29.453 13.2676 28.3359 z " id="path-main"/>
    </g>
  </defs>
  <g id="acyl-visual">
    <use id="visible1" style="fill:url(#acyl-gradient)" xlink:href="#acyl-drawing"/>
  </g>
</svg>
