<svg xmlns="http://www.w3.org/2000/svg" xmlns:xlink="http://www.w3.org/1999/xlink" width="48" height="48">
  <defs id="acyl-settings">
    <linearGradient id="acyl-gradient" x1="0%" x2="0%" y1="0%" y2="100%">
      <stop offset="100%" style="stop-color:#A0A0A0;stop-opacity:1.000000"/>
    </linearGradient>
    <g id="acyl-filter">
  </g>
    <g id="acyl-drawing">
      <path d="M 6.97,45.83 C 6.464,45.51 6.4,45.26 6.385,43.57 6.375,41.87 6.415,41.7 6.955,41.35 7.179,41.2 7.537,41.17 9.78,41.13 l 2.57,0 0.1,-0.38 c 0.1,-0.24 0,-0.47 0,-0.6 -0.1,-0.21 -0.14,-0.21 -1.53,-0.21 -0.81,0 -1.52,0 -1.622,-0.1 -0.36,-0.19 -0.47,-0.59 -0.47,-1.71 0,-1.12 0.11,-1.52 0.47,-1.71 0.122,-0.1 3.212,-0.1 9.232,-0.1 9.96,0 9.48,0 9.69,0.58 0.1,0.17 0.11,0.88 0.11,1.57 0,0.71 0,1.29 0.1,1.32 0.13,0.1 1.48,-0.27 2.13,-0.56 1.81,-0.8 3.44,-2.43 4.31,-4.29 0.91,-1.95 0.97,-4.45 0.17,-6.55 -0.99,-2.7 -3.62,-4.9 -6.33,-5.3 l -0.64,-0.1 -0.55,0.3 c -1.05,0.7 -2.34,0.8 -3.48,0.4 -0.44,-0.1 -0.67,-0.2 -2.5,-1.3 -0.53,-0.3 -1.66,-1 -2.52,-1.5 -2.08,-1.2 -2.3,-1.3 -2.41,-1.6 -0.12,-0.4 -0.12,-0.4 1.81,-3.7 0.86,-1.5 2.1,-3.6 2.75,-4.8 0.66,-1.096 1.28,-2.096 1.38,-2.196 0.41,-0.3 0.67,-0.2 3.79,1.596 1.65,0.9 3.09,1.8 3.2,1.9 0.48,0.4 0.5,0.4 -1.46,3.8 l -0.22,0.4 0.28,0.3 c 0.25,0.2 0.45,0.3 1.36,0.5 6.23,1 11.16,6 12.06,12.3 0.17,1.2 0.13,3.3 -0.1,4.6 -0.91,5.26 -4.73,9.66 -9.86,11.32 C 29.47,46 30.15,45.97 18.1,46 8.167,46 7.233,46 7.004,45.87 z M 25.99,20.75 c 0.3,-0.2 0.49,-0.7 0.49,-1.1 0,-0.5 -0.43,-1 -0.9,-1.1 -1.24,-0.3 -1.95,1.3 -0.95,2.1 0.32,0.3 1.04,0.3 1.36,0.1 z m -7.73,6.8 c -0.95,-0.5 -2.32,-1.3 -3.05,-1.7 -1.51,-0.9 -1.76,-1.1 -1.76,-1.5 0,-0.2 1.53,-3 1.88,-3.5 0.42,-0.4 0.53,-0.4 4.4,1.9 0.71,0.4 1.54,0.9 1.86,1 0.66,0.4 1.09,0.8 1.09,1.1 0,0.3 -1.51,3 -1.88,3.4 -0.39,0.5 -0.63,0.4 -2.54,-0.7 z m 8.7,-18.396 c -0.76,-0.5 -1.39,-0.9 -1.41,-1 0,0 0.34,-0.7 0.79,-1.5 0.44,-0.8 0.81,-1.5 0.81,-1.5 0,-0.1 -0.34,-0.3 -0.76,-0.6 -0.9,-0.5 -1.13,-0.8 -0.96,-1.2 0.28,-0.6 0.73,-1.2 0.98,-1.3 0.29,-0.1 -0.16,-0.4 4.97,2.6 1.23,0.7 1.96,1.2 2.05,1.3 0.13,0.3 0.12,0.3 -0.14,0.8 -0.4,0.8 -0.69,1.1 -0.98,1.1 -0.13,0 -0.58,-0.2 -1,-0.4 -0.41,-0.3 -0.81,-0.5 -0.87,-0.4 -0.1,0 -0.27,0.3 -0.44,0.6 -0.93,1.6 -1.36,2.3 -1.51,2.3 -0.1,0 -0.77,-0.4 -1.53,-0.8 z " id="path-main"/>
    </g>
  </defs>
  <g id="acyl-visual">
    <use id="visible1" style="fill:url(#acyl-gradient)" xlink:href="#acyl-drawing"/>
  </g>
</svg>
