<svg xmlns="http://www.w3.org/2000/svg" xmlns:xlink="http://www.w3.org/1999/xlink" width="48" height="48">
  <defs id="acyl-settings">
    <linearGradient id="acyl-gradient" x1="0%" x2="0%" y1="0%" y2="100%">
      <stop offset="100%" style="stop-color:#A0A0A0;stop-opacity:1.000000"/>
    </linearGradient>
    <g id="acyl-filter">
  </g>
    <g id="acyl-drawing">
      <path d="M 24 2 A 22.0003 22.0003 0 0 0 2 24 A 22.0003 22.0003 0 0 0 24 46 A 22.0003 22.0003 0 0 0 46 24 A 22.0003 22.0003 0 0 0 24 2 z M 25.2695 4.96094 C 34.9774 4.96094 42.8594 12.8448 42.8594 22.5527 C 42.8594 32.2605 34.9774 40.1426 25.2695 40.1426 C 15.5617 40.1426 7.67773 32.2605 7.67773 22.5527 C 7.67773 12.8448 15.5617 4.96094 25.2695 4.96094 z M 25.2695 6.23242 C 16.2489 6.23242 8.94922 13.5321 8.94922 22.5527 C 8.94922 31.5733 16.2489 38.873 25.2695 38.873 C 34.2902 38.873 41.5879 31.5733 41.5879 22.5527 C 41.5879 13.5321 34.2902 6.23242 25.2695 6.23242 z M 23.0723 13.9316 A 10.893 10.893 0 0 1 33.9648 24.8262 A 10.893 10.893 0 0 1 23.0723 35.7168 A 10.893 10.893 0 0 1 12.1777 24.8262 A 10.893 10.893 0 0 1 23.0723 13.9316 z M 19.209 18.5664 L 19.209 31.0078 L 29.2227 24.6289 L 19.209 18.5664 z " id="path-main"/>
    </g>
  </defs>
  <g id="acyl-visual">
    <use id="visible1" style="fill:url(#acyl-gradient)" xlink:href="#acyl-drawing"/>
  </g>
</svg>
