<svg xmlns="http://www.w3.org/2000/svg" xmlns:xlink="http://www.w3.org/1999/xlink" width="48" height="48">
  <defs id="acyl-settings">
    <linearGradient id="acyl-gradient" x1="0%" x2="0%" y1="0%" y2="100%">
      <stop offset="100%" style="stop-color:#A0A0A0;stop-opacity:1.000000"/>
    </linearGradient>
    <g id="acyl-filter">
  </g>
    <g id="acyl-drawing">
      <path d="m 45.5994,1.99925 -43.2317,0.093 0.033,43.17435 6.56674,-0.01 0,0.746 30.06526,0 0,-0.8111 6.5996,-0.02 0,-0.733 -0.033,-42.44105 z m -1.4653,1.4694 0.03,40.24085 -5.1316,0.02 0,-5.789 -3.6665,0 0,-1.574 c -2.3896,-1.157 -4.8831,-2.397 -6.5582,-4.4543 -1.0062,-1.3783 -10e-5,-3.0341 0.7964,-4.2595 0.6184,-1.0207 1.9107,-1.6732 1.9292,-2.9747 0.4752,-1.3204 -0.2429,-2.4143 -0.3767,-3.6737 -0.175,-1.6696 0.2997,-3.4951 -0.5343,-5.0486 -1.1306,-1.5895 -3.202,-2.2862 -5.0814,-2.7126 -0.5452,-0.1051 -1.1005,-0.1735 -1.6571,-0.1776 -0.1616,-0.036 -0.3267,-0.053 -0.4927,-0.057 -1.162,-0.023 -2.3474,0.6574 -2.3474,0.6574 l -1.3893,0.6631 c 0,0 -1.5077,1.2573 -1.5239,1.6844 -0.8479,1.4348 -0.4611,3.1738 -0.5471,4.7434 0.083,1.3477 -0.897,2.3473 -0.4053,3.7138 -0.072,1.3192 1.0652,2.0921 1.796,3.0464 0.8226,1.2071 1.9396,2.7831 1.0599,4.2279 -1.6263,2.2536 -4.9249,3.8996 -7.3932,5.1266 -0.01,0.349 0,0.737 0,1.069 l -3.67363,0 0,5.854 -5.10158,0.01 L 3.83559,3.56385 44.1341,3.47685 Z M 34.544,39.5636 c 0.2284,0 0.456,0.04 0.6703,0.118 0.354,0.131 0.6444,0.458 0.6645,0.8439 0.037,0.371 -0.1601,0.717 -0.4153,0.97 -0.4155,0.439 -0.9894,0.713 -1.3363,1.219 -0.1128,0.128 0.034,0.125 0.1261,0.115 l 1.69,0 0,0.661 c -0.9415,0 -1.8831,0 -2.8244,0 l 0,0 0,-0.559 c 0.2933,-0.652 0.8666,-1.109 1.4079,-1.549 0.2235,-0.189 0.4848,-0.395 0.5371,-0.7 0.026,-0.223 -0.1443,-0.445 -0.371,-0.462 -0.2265,-0.04 -0.5115,0 -0.6287,0.228 -0.097,0.102 -0.024,0.382 -0.2463,0.307 -0.2215,-0.02 -0.4431,-0.02 -0.6646,-0.04 0.04,-0.436 0.2921,-0.882 0.7204,-1.035 0.2129,-0.08 0.4419,-0.12 0.6703,-0.118 z m -17.708,0 c 0.5061,-0.03 1.0382,0.09 1.3263,0.525 0.3267,0.514 0,1.27 -0.6074,1.355 0.4489,0.08 0.8631,0.451 0.8322,0.949 0.036,0.58 -0.4638,1.054 -1.0183,1.117 -0.6383,0.107 -1.4996,0 -1.7917,-0.662 -0.2349,-0.511 0.01,-1.201 0.5814,-1.348 0.3677,-0.07 -0.5285,-0.226 -0.4955,-0.554 -0.255,-0.533 0.1234,-1.186 0.6846,-1.306 0.153,-0.04 0.3197,-0.07 0.4884,-0.08 z m 6.9678,0 c 0.535,-0.04 1.0949,0.162 1.3362,0.671 0.1973,0.385 0.2398,0.828 0.2421,1.256 0.01,0.734 -0.1764,1.648 -0.9367,1.953 -0.6216,0.233 -1.5262,0.1 -1.7602,-0.616 -0.2183,-0.3 0.1425,-0.249 0.3409,-0.289 0.3821,-0.183 0.382,0.213 0.676,0.346 0.5738,0.179 0.8908,-0.479 0.8808,-0.957 0.09,-0.448 -0.3167,0.301 -0.6101,0.215 -0.6023,0.161 -1.2776,-0.236 -1.3864,-0.859 -0.1616,-0.609 0.06,-1.383 0.7032,-1.605 0.1605,-0.07 0.3358,-0.102 0.5142,-0.115 z m 7.0766,0 c 0.2674,-0.02 0.5414,0.03 0.7834,0.129 0.5058,0.258 0.6964,0.847 0.7448,1.376 0.016,0.161 0.023,0.323 0.023,0.485 0,0.616 -0.1027,1.32 -0.6101,1.734 -0.4995,0.367 -1.272,0.352 -1.7301,-0.08 -0.479,-0.49 -0.5187,-1.223 -0.5027,-1.871 0.018,-0.539 0.123,-1.139 0.55,-1.509 0.2141,-0.164 0.4744,-0.249 0.7418,-0.268 z m -10.1831,0 c 0.4942,0.06 0.9801,0.299 1.0913,0.82 0.1513,0.679 -0.4382,1.1929 -0.9238,1.554 -0.2989,0.254 -0.7492,0.5349 -0.8378,0.878 l 1.8461,0 0,0.661 c -0.9414,0 -1.8835,0 -2.8243,0 0.016,-0.283 -0.07,-0.593 0.1418,-0.827 0.4067,-0.697 1.1469,-1.087 1.67,-1.676 0.4366,-0.462 -0.2592,-1.023 -0.7162,-0.701 -0.2443,0.207 -0.1824,0.605 -0.5843,0.459 -0.1372,-0.04 -0.4428,0.05 -0.4684,-0.09 0.05,-0.578 0.5412,-1.052 1.1215,-1.08 0.1532,-0.02 0.3193,-0.02 0.4841,0 z m -7.3688,0.05 0.6788,0 0,3.265 0.9253,0 0,0.599 c -0.9479,0 -1.8974,0 -2.8444,0 l 0,-0.599 1.1143,0 0,-2.5521 c -0.1867,0.3611 -0.8882,0.6801 -1.1458,0.473 l 0,-0.53 c 0.5368,0.07 0.9567,-0.3649 1.2718,-0.656 z m 13.9871,0 0.7619,0 0,3.265 0.9253,0 0,0.599 c -0.9482,0 -1.8963,0 -2.8444,0 l 0,-0.599 1.1142,0 0,-2.5521 c -0.22,0.3851 -0.6853,0.526 -1.1014,0.5601 -0.1,-0.101 -0.023,-0.294 -0.045,-0.437 -0.057,-0.208 0.095,-0.197 0.2664,-0.2 0.3795,-0.07 0.7445,-0.288 0.9223,-0.636 z m -10.3307,0.502 c -0.2671,-0.02 -0.5499,0.108 -0.57,0.4099 -0.202,0.648 0.8864,0.91 1.0269,0.282 -0.052,0.01 0.078,-0.188 0.018,-0.181 0.044,-0.311 -0.2069,-0.4869 -0.4741,-0.5109 z m 6.9263,0.06 c -0.054,0 -0.1104,0.02 -0.1676,0.04 -0.6011,0.214 -0.4923,1.356 0.1891,1.352 0.3331,0.01 0.6176,-0.274 0.5986,-0.604 0.038,-0.371 -0.2427,-0.796 -0.6201,-0.783 z m 7.0193,0 c -0.202,0.03 -0.3887,0.162 -0.4311,0.373 -0.1572,0.547 -0.1221,1.129 -0.066,1.689 0.029,0.291 0.1838,0.65 0.5243,0.654 0.3149,0.04 0.5472,-0.228 0.59,-0.516 0.07,-0.274 0.07,-0.5611 0.076,-0.842 -0.019,-0.415 0.02,-0.885 -0.2535,-1.23 -0.066,-0.07 -0.1496,-0.104 -0.2377,-0.122 -0.066,-0.02 -0.1346,-0.02 -0.2019,0 z m -0.232,0.989 0.6158,0 0,0.713 -0.6158,0 0,-0.713 z m -13.6993,0.55 c -0.1845,-0.02 -0.377,0.03 -0.5127,0.15 -0.3036,0.315 -0.2079,1.03 0.295,1.08 0.4341,0.104 0.8233,-0.177 0.772,-0.638 0.039,-0.354 -0.2466,-0.564 -0.5543,-0.592 z" id="path-main"/>
    </g>
  </defs>
  <g id="acyl-visual">
    <use id="visible1" style="fill:url(#acyl-gradient)" xlink:href="#acyl-drawing"/>
  </g>
</svg>
