<svg xmlns="http://www.w3.org/2000/svg" xmlns:xlink="http://www.w3.org/1999/xlink" width="48" height="48">
  <defs id="acyl-settings">
    <linearGradient id="acyl-gradient" x1="0%" x2="0%" y1="0%" y2="100%">
      <stop offset="100%" style="stop-color:#A0A0A0;stop-opacity:1.000000"/>
    </linearGradient>
    <g id="acyl-filter">
  </g>
    <g id="acyl-drawing">
      <path d="M 24 2 A 22 22 0 0 0 2 24 A 22 22 0 0 0 24 46 A 22 22 0 0 0 46 24 A 22 22 0 0 0 24 2 z M 32.8867 11.0723 L 32.8887 11.0723 C 33.347 11.041 33.8431 11.2702 34.0371 11.7031 C 34.1631 14.1544 34.125 16.6167 34.125 19.0723 C 34.089 22.3317 34.1403 25.5923 34.1113 28.8516 C 34.2004 30.2004 33.7875 31.6025 32.8281 32.5781 C 31.4082 33.9669 29.1814 34.6425 27.2734 33.9219 C 25.778 33.4743 24.9201 31.6655 25.4668 30.2148 C 26.364 27.9605 28.929 26.7376 31.2734 26.9297 C 31.3004 23.6497 31.2741 20.3681 31.2871 17.0879 L 20.8926 18.6406 L 20.8926 20.7109 C 20.8796 24.3228 20.8939 27.937 20.8789 31.5488 C 20.9818 32.9394 20.5278 34.3784 19.5234 35.3652 C 18.0986 36.7023 15.9024 37.3521 14.0312 36.6328 C 12.5244 36.1753 11.6706 34.3413 12.252 32.8848 C 13.1706 30.655 15.7189 29.4485 18.0527 29.6465 C 18.0657 24.7683 18.0374 19.8899 18.0664 15.0117 C 17.9869 14.3133 17.9664 13.3758 18.6914 13.002 C 23.4088 12.2717 28.1628 11.7657 32.8867 11.0723 z " id="path-main"/>
    </g>
  </defs>
  <g id="acyl-visual">
    <use id="visible1" style="fill:url(#acyl-gradient)" xlink:href="#acyl-drawing"/>
  </g>
</svg>
