<svg xmlns="http://www.w3.org/2000/svg" xmlns:xlink="http://www.w3.org/1999/xlink" width="48" height="48">
  <defs id="acyl-settings">
    <linearGradient id="acyl-gradient" x1="0%" x2="0%" y1="0%" y2="100%">
      <stop offset="100%" style="stop-color:#A0A0A0;stop-opacity:1.000000"/>
    </linearGradient>
    <g id="acyl-filter">
  </g>
    <g id="acyl-drawing">
      <path id="path-main" d="m 37.910775,2.0348962 c -3.095212,0 -5.306079,1.8104254 -5.306079,4.771235 l 0,2.6024918 -0.884347,0 c -0.884346,0 -1.32652,0.4337486 -1.32652,1.301246 l 0,7.373725 c 0,0.425215 0.442174,1.301246 1.32652,1.301246 l 12.992828,0 c 0.714544,-0.0041 1.156718,-0.876032 1.156718,-1.301246 l 0,-7.373725 c 0,-0.8674974 -0.442174,-1.305347 -1.32652,-1.305347 l -0.884346,0.00411 0,-2.6024918 c 0,-3.0362466 -2.210866,-4.7712411 -5.30608,-4.7712411 l -0.442174,0 z m 0,2.1687431 0.442174,0 c 3.095214,0 3.095214,2.6024919 3.095214,3.4699892 l 0,1.7349945 -6.6326,0 0,-1.7349945 c 0,-0.8674973 0,-3.4699892 3.095212,-3.4699892 z"/>
    </g>
  </defs>
  <g id="acyl-visual">
    <use id="visible1" style="fill:url(#acyl-gradient)" xlink:href="#acyl-drawing"/>
  </g>
</svg>
