<svg xmlns="http://www.w3.org/2000/svg" xmlns:xlink="http://www.w3.org/1999/xlink" width="48" height="48">
  <defs id="acyl-settings">
    <linearGradient id="acyl-gradient" x1="0%" x2="0%" y1="0%" y2="100%">
      <stop offset="100%" style="stop-color:#A0A0A0;stop-opacity:1.000000"/>
    </linearGradient>
    <g id="acyl-filter">
  </g>
    <g id="acyl-drawing">
      <path d="M 5.19796,2 A 1.20986,1.20986 0 0 0 3.98823,3.2097 l 0,41.5803 A 1.20986,1.20986 0 0 0 5.19796,46 L 42.802,46 a 1.20986,1.20986 0 0 0 1.2098,-1.21 l 0,-41.5803 A 1.20986,1.20986 0 0 0 42.802,2 L 5.19796,2 Z m 1.20974,2.4195 35.1846,0 0,39.1615 -35.1846,0 0,-39.1615 z m 17.732,6.0232 A 13.8101,13.8101 0 0 0 10.3293,24.2531 13.8101,13.8101 0 0 0 24.1397,38.063 13.8101,13.8101 0 0 0 37.9501,24.2531 13.8101,13.8101 0 0 0 24.1397,10.4427 Z m 8.467,5.3322 0,0 -0.4213,0.9115 0.012,0.011 -0.031,0.031 -1.6453,3.5584 c -0.076,-0.4991 -0.2803,-0.9544 -0.5782,-1.335 l -5.577,5.5773 c 0.1315,0.3192 0.068,0.7001 -0.1914,0.9593 -0.344,0.3439 -0.9023,0.3439 -1.2464,0 -0.2299,-0.2295 -0.3024,-0.5538 -0.225,-0.8472 l -2.4709,-2.4715 c -0.076,0.4577 -0.015,1.2227 0.015,2.5146 l -3.9027,-7.0257 7.0251,3.9033 c -1.2772,0 -2.0464,-0.078 -2.5105,-0.011 l 2.4668,2.4667 c 0.1727,-0.046 0.355,-0.039 0.5239,0.021 l 5.5886,-5.5879 C 29.0566,18.153 28.5982,17.9445 28.0949,17.8618 l 3.5945,-1.661 0.01,0 0.9115,-0.4212 z" id="path-main"/>
    </g>
  </defs>
  <g id="acyl-visual">
    <use id="visible1" style="fill:url(#acyl-gradient)" xlink:href="#acyl-drawing"/>
  </g>
</svg>
