<svg xmlns="http://www.w3.org/2000/svg" xmlns:xlink="http://www.w3.org/1999/xlink" width="48" height="48">
  <defs id="acyl-settings">
    <linearGradient id="acyl-gradient" x1="0%" x2="0%" y1="0%" y2="100%">
      <stop offset="100%" style="stop-color:#A0A0A0;stop-opacity:1.000000"/>
    </linearGradient>
    <g id="acyl-filter">
  </g>
    <g id="acyl-drawing">
      <path d="M 24 1.998 C 11.87 1.998 1.998 11.87 1.998 24 C 1.998 36.14 11.87 46 24 46 C 36.14 46 46 36.14 46 24 C 46 11.87 36.14 1.998 24 1.998 z M 22.84 6.67 L 22.84 8.973 C 22.84 9.613 23.36 10.13 24 10.13 C 24.64 10.13 25.16 9.613 25.16 8.973 L 25.16 6.67 C 27.65 6.834 30 7.528 32.09 8.639 L 31.16 10.28 C 30.99 10.57 31.1 10.95 31.39 11.11 C 31.48 11.17 31.59 11.2 31.69 11.2 C 31.91 11.2 32.12 11.08 32.22 10.89 L 33.16 9.25 C 35.26 10.55 37.05 12.29 38.43 14.33 L 36.44 15.49 C 35.88 15.8 35.7 16.51 36.01 17.06 C 36.23 17.44 36.61 17.64 37.02 17.64 C 37.21 17.64 37.41 17.6 37.6 17.49 L 39.59 16.33 C 40.64 18.46 41.27 20.83 41.36 23.34 L 39.46 23.34 C 39.3 23.34 39.15 23.41 39.03 23.53 C 38.92 23.64 38.86 23.79 38.86 23.95 C 38.86 24.17 38.97 24.38 39.16 24.49 C 39.25 24.53 39.35 24.57 39.47 24.57 L 41.36 24.56 C 41.28 27.1 40.65 29.51 39.59 31.67 L 37.6 30.51 C 37.04 30.2 36.33 30.38 36.01 30.94 C 35.7 31.49 35.88 32.2 36.44 32.51 L 38.43 33.67 C 37.07 35.68 35.3 37.4 33.25 38.7 L 32.3 37.06 C 32.2 36.88 31.99 36.76 31.77 36.76 C 31.67 36.76 31.56 36.78 31.47 36.84 C 31.33 36.92 31.23 37.05 31.18 37.21 C 31.14 37.38 31.17 37.54 31.25 37.68 L 32.2 39.31 C 30.07 40.46 27.69 41.16 25.16 41.34 L 25.16 39.03 C 25.16 38.38 24.64 37.87 24 37.87 C 23.36 37.87 22.84 38.38 22.84 39.03 L 22.84 41.34 C 20.35 41.16 18 40.48 15.91 39.37 L 16.84 37.72 C 16.92 37.58 16.94 37.42 16.9 37.26 C 16.86 37.1 16.75 36.97 16.61 36.89 C 16.52 36.83 16.41 36.81 16.31 36.81 C 16.09 36.81 15.88 36.92 15.78 37.11 L 14.84 38.75 C 12.75 37.44 10.95 35.71 9.574 33.67 L 11.56 32.51 C 12.12 32.2 12.31 31.49 11.99 30.94 C 11.67 30.38 10.96 30.2 10.41 30.51 L 8.414 31.67 C 7.366 29.54 6.739 27.17 6.645 24.67 L 8.535 24.66 C 8.698 24.66 8.853 24.59 8.969 24.47 C 9.083 24.36 9.146 24.21 9.146 24.05 C 9.146 23.71 8.87 23.43 8.533 23.43 L 6.639 23.44 C 6.72 20.9 7.351 18.5 8.414 16.33 L 10.41 17.49 C 10.59 17.6 10.79 17.64 10.98 17.64 C 11.39 17.64 11.77 17.44 11.99 17.06 C 12.31 16.51 12.12 15.8 11.56 15.49 L 9.574 14.33 C 10.93 12.32 12.69 10.6 14.75 9.307 L 15.7 10.94 C 15.76 11.03 15.83 11.11 15.92 11.16 C 16.1 11.27 16.35 11.27 16.53 11.16 C 16.67 11.08 16.77 10.95 16.82 10.79 C 16.86 10.63 16.83 10.47 16.75 10.32 L 15.8 8.691 C 17.93 7.548 20.31 6.837 22.84 6.67 z M 24.03 11.75 C 23.23 11.75 22.59 12.43 22.61 13.23 L 22.74 21.9 C 21.89 22.64 21.66 23.93 22.25 24.95 C 22.84 25.97 24.07 26.42 25.13 26.04 L 30.61 29.25 C 31.29 29.67 32.18 29.44 32.6 28.76 C 33.01 28.06 32.79 27.17 32.1 26.76 L 26.78 23.64 C 26.78 23.25 26.66 22.87 26.46 22.52 C 26.25 22.16 25.98 21.88 25.65 21.67 L 25.51 13.19 C 25.51 12.37 24.83 11.74 24.03 11.75 z" id="path-main"/>
    </g>
  </defs>
  <g id="acyl-visual">
    <use id="visible1" style="fill:url(#acyl-gradient)" xlink:href="#acyl-drawing"/>
  </g>
</svg>
