<svg xmlns="http://www.w3.org/2000/svg" xmlns:xlink="http://www.w3.org/1999/xlink" width="48" height="48">
  <defs id="acyl-settings">
    <linearGradient id="acyl-gradient" x1="0%" x2="0%" y1="0%" y2="100%">
      <stop offset="100%" style="stop-color:#A0A0A0;stop-opacity:1.000000"/>
    </linearGradient>
    <g id="acyl-filter">
  </g>
    <g id="acyl-drawing">
      <path d="M 22.1,45.91 C 18.54,45.48 15.16,44.18 12.31,41.93 11.52,41.41 9.967,39.85 9.274,39.03 7.107,36.46 5.721,33.34 5.201,29.95 4.854,28.39 4.854,25.61 5.114,24.09 5.634,20.79 6.934,17.85 8.927,15.21 9.534,14.45 11,12.85 11.78,12.19 14.73,9.806 18.72,8.166 22.27,7.936 h 0.95 l -0.1,0.24 c -0.17,0.59 -0.34,2.074 -0.34,2.694 0,1.53 0.43,3.27 1.21,4.86 l 0.35,0.83 -0.52,0.73 c -1.04,1.67 -1.91,-1 -1.91,-1.39 0.1,-1.14 0.18,-0.86 -0.86,-1.24 -1.3,-0.52 -1.56,-0.11 -1.04,-1.29 0.17,-0.41 0.26,-0.79 0.26,-0.84 -0.1,-0.1 -1.82,0.53 -2.69,0.94 -0.52,0.25 -1.21,0.67 -1.65,0.94 -0.95,0.63 -2.08,1.53 -1.99,1.56 1.39,-0.17 2.34,-0.46 3.81,-0.77 0.78,0.63 1.74,1.09 2.34,1.81 0,0 -0.17,0.28 -0.34,0.52 -0.35,0.42 -0.35,0.66 -0.7,1.08 l 0.26,0.84 c 0.35,0.37 0.87,0.89 1.22,1.17 l 0.17,0.59 -0.69,0.45 c -0.35,0.28 -0.7,0.38 -0.96,0.55 l -0.52,0.53 0.18,0.49 -1.56,1.07 -0.61,1.34 0.17,0.67 c 0.1,0.87 0.18,0.83 -0.17,1.07 -0.29,0.86 -0.52,0.46 -0.87,1.5 l 0.1,0.51 0.1,0.56 1.82,0.63 c 2.34,0.34 2.51,2.08 4.76,2.66 l 1.04,0.14 0.26,0.41 0.26,0.42 -0.52,0.46 c -0.35,0.45 -0.43,0.65 -0.52,1.34 l -0.1,0.87 -0.78,0.73 c -0.44,0.28 -0.87,0.35 -0.87,0.35 0,0 0,0.21 0.1,0.45 0.17,0.62 -0.52,1.11 -0.87,1.52 -0.52,0.7 -1.13,1.04 -1.13,1.13 0.1,0 0.35,0.1 0.78,0.26 2.86,0.69 5.98,0.61 8.75,-0.35 1.13,-0.34 2.43,-1.04 2.43,-1.12 0,-0.1 -0.17,-0.9 -0.43,-1.83 L 30.5,36.36 30.6,35.38 C 31.72,33.21 30.16,32.14 28,31.86 h -0.7 c -1.56,-1.5 -1.04,-2.54 -0.1,-4.03 0.95,-1.56 0.43,-1.48 2.08,-1.76 l 1.12,-0.21 0.35,0.55 c 0.52,1.11 1.13,2.39 2.25,2.87 0.35,0.22 0.61,0.28 1.3,0.28 0.61,0 0.78,0 1.3,-0.28 0.87,-0.4 1.22,-0.85 1.91,-2.27 0.35,-0.74 0.95,-1.77 1.3,-2.34 0.78,-1.35 2.86,-4.42 3.03,-4.42 0,0 0.44,1.3 0.7,2.28 0.78,3.25 0.69,7.03 -0.44,10.32 -1.82,5.73 -6.32,10.2 -12.04,12.11 -2.52,0.87 -5.38,1.21 -7.97,0.95 z m -4.34,-5.98 c 0,-0.17 -0.1,-0.34 -0.17,-0.41 0,-0.11 -0.17,-0.31 -0.17,-1.08 -0.18,-1.11 -0.18,-1.31 0,-1.69 0.1,-0.29 0.17,-0.52 0.1,-0.56 -0.1,0 -0.6,-0.81 -1.21,-1.18 L 15.18,34.24 15.01,32.9 c -0.1,-1.33 0.1,-1.43 -0.17,-1.87 -0.26,-0.5 -0.26,-0.53 -1.04,-0.77 -2.62,-1.15 -3.14,-2.6 -4.613,-4.75 l -0.09,0.69 c 0,0.35 0,1.18 0.09,1.8 0.347,5.07 3.203,9.58 7.793,12.02 0.7,0.35 0.78,0.35 0.78,-0.1 z M 34.05,26.82 c -0.1,0 -0.43,-0.59 -0.69,-1.24 -0.95,-1.76 -2.08,-3.71 -3.64,-5.83 -2.77,-3.91 -3.55,-5.27 -3.99,-6.9 -0.34,-1.15 -0.26,-2.974 0,-4.224 0.87,-3.189 3.3,-5.624 6.5,-6.421 1.13,-0.269 2.95,-0.269 4.08,0 3.2,0.797 5.63,3.232 6.5,6.421 0.17,0.76 0.26,1.1 0.26,2.174 0,2.61 -0.61,3.86 -4.34,9.06 -1.38,2.05 -2.51,3.84 -3.46,5.58 -0.7,1.42 -0.78,1.59 -1.22,1.38 z m 1.3,-11.78 c 0.78,-0.24 1.3,-0.52 2,-1.21 0.95,-0.91 1.38,-1.84 1.38,-3.1 0,-1.204 -0.43,-2.104 -1.38,-3.044 -0.96,-1 -2,-1.382 -3.3,-1.313 -3.2,0.208 -5.02,3.433 -3.72,6.297 0.26,0.63 1.3,1.7 1.99,2.01 0.95,0.46 2.08,0.6 3.03,0.36 z" id="path-main"/>
    </g>
  </defs>
  <g id="acyl-visual">
    <use id="visible1" style="fill:url(#acyl-gradient)" xlink:href="#acyl-drawing"/>
  </g>
</svg>
