<svg xmlns="http://www.w3.org/2000/svg" xmlns:xlink="http://www.w3.org/1999/xlink" width="48" height="48">
  <defs id="acyl-settings">
    <linearGradient id="acyl-gradient" x1="0%" x2="0%" y1="0%" y2="100%">
      <stop offset="100%" style="stop-color:#A0A0A0;stop-opacity:1.000000"/>
    </linearGradient>
    <g id="acyl-filter">
  </g>
    <g id="acyl-drawing">
      <path d="m 14.015,36.6609 c -0.268,-0.07 -0.829,-0.334 -1.247,-0.594 l -0.76,-0.473 -0.667,0.328 c -3.60194,1.77 -7.62794,0.07 -9.01194,-3.798 -0.443,-1.238 -0.438,-3.175 0.01,-4.504 0.821,-2.4289 3.061,-4.2372 5.536,-4.4684 l 0.914,-0.085 0.397,-0.8096 c 0.219,-0.4453 0.755,-1.1848 1.19294,-1.6433 l 0.795,-0.8335 -0.229,-0.7813 c -0.8,-2.7278 1.628,-5.4734 4.308,-4.8728 0.376,0.084 0.804,0.2174 0.95,0.2957 0.208,0.1112 0.286,0.08 0.357,-0.143 0.172,-0.5437 1.664,-1.8892 2.612,-2.3556 2.611,-1.2855 5.441,-0.7646 7.437,1.3691 0.555,0.5934 1.0255,1.2836 1.2917,1.8946 l 0.4188,0.9613 0.9912,0.071 c 2.6388,0.1883 5.0892,2.4268 5.6458,5.1573 l 0.1875,0.9183 0.7969,0.1143 c 2.379,0.3414 4.814,2.5302 5.4882,4.9339 l 0.2457,0.876 0.7892,0.08 c 1.0096,0.104 1.8068,0.515 2.5078,1.291 0.7709,0.853 1.0178,1.506 1.0281,2.718 0.029,3.343 -3.5663,5.235 -6.1709,3.249 l -0.5163,-0.394 -0.8456,0.519 c -1.1325,0.696 -1.966,0.975 -3.2016,1.073 -1.7056,0.134 -3.6742,-0.529 -4.9261,-1.66 l -0.5713,-0.516 -1.0064,0.675 c -0.6055,0.406 -1.4917,0.825 -2.2247,1.055 -1.092,0.341 -1.39,0.373 -2.871,0.309 -1.915,-0.08 -3.11,-0.461 -4.546,-1.441 -0.475,-0.324 -0.863,-0.535 -0.863,-0.467 0,0.296 -1.081,1.344 -1.672,1.622 -0.762,0.358 -1.882,0.502 -2.57,0.328 z m 2.161,-1.131 c 0.485,-0.241 0.914,-0.595 1.144,-0.943 l 0.368,-0.556 -0.547,-0.714 c -0.631,-0.825 -1.491,-2.544 -1.623,-3.244 -0.11,-0.587 -0.411,-0.701 -1.279,-0.482 -2.367,0.596 -3.138,3.758 -1.334,5.469 0.959,0.91 2.069,1.068 3.271,0.469 z m 10.342,-0.117 c 4.7042,-1.624 6.8409,-7.348 4.4436,-11.9094 -0.9825,-1.8703 -2.8469,-3.3925 -4.8896,-3.9927 -1.014,-0.2976 -2.93,-0.3021 -4.054,-0.01 -2.471,0.6437 -4.639,2.7081 -5.528,5.2639 -0.402,1.1564 -0.542,3.1732 -0.304,4.4082 0.226,1.177 1.146,3.08 1.921,3.972 0.681,0.785 2.256,1.872 3.247,2.242 1.6,0.597 3.479,0.606 5.164,0.02 z m 10.817,-0.08 c 2.4976,-1.229 3.9489,-4.062 3.4804,-6.794 -0.48,-2.7987 -2.4556,-4.8328 -5.1546,-5.3066 -1.0001,-0.1756 -2.3668,0 -3.1406,0.3975 l -0.3926,0.203 0.2964,0.924 c 0.8803,2.7451 0.2798,6.1161 -1.5107,8.4821 l -0.5695,0.752 0.62,0.502 c 1.3408,1.086 2.4071,1.439 4.121,1.366 1.0904,-0.05 1.4422,-0.128 2.2501,-0.526 z m -26.696,-0.05 c 0.464,-0.212 0.844,-0.448 0.844,-0.524 0,-0.07 -0.104,-0.385 -0.231,-0.688 -0.148,-0.355 -0.218,-0.91 -0.197,-1.562 l 0.03,-1.011 -0.729,-0.775 c -1.41294,-1.504 -1.97994,-2.92 -1.98294,-4.9527 0,-0.7036 0.04,-1.3935 0.09,-1.533 0.129,-0.334 -0.467,-0.3419 -1.549,-0.02 -4.149,1.2318 -5.466,6.6557 -2.388,9.8297 1.184,1.22 2.476,1.739 4.154,1.669 0.81,-0.03 1.33294,-0.15 1.95094,-0.432 z m 32.6923,-0.01 c 1.0081,-0.422 1.8697,-1.78 1.872,-2.95 0,-1.596 -1.4199,-3.17 -2.8749,-3.18 l -0.4459,0 -0.1714,1.257 c -0.1804,1.322 -0.6045,2.421 -1.3564,3.514 l -0.4521,0.657 0.4264,0.304 c 0.2346,0.167 0.5824,0.366 0.7733,0.442 0.5154,0.207 1.6898,0.185 2.229,-0.04 z M 12.105,29.9269 c 0.741,-0.806 1.565,-1.222 2.433,-1.226 l 0.626,0 0,-1.068 c 0,-1.519 0.342,-2.9422 1.032,-4.343 l 0.598,-1.214 -0.363,-0.6267 c -0.2,-0.3446 -0.475,-0.9746 -0.613,-1.3998 -0.231,-0.7159 -0.283,-0.7729 -0.711,-0.7713 -1.335,0.01 -3.128,0.8428 -4.156,1.9419 -1.81594,1.9418 -2.25794,4.8132 -1.11494,7.2539 0.35594,0.761 1.37694,2.141 1.58394,2.141 0.03,0 0.337,-0.308 0.683,-0.685 z m 21.1716,-7.413 c 0.9176,-0.2506 0.955,-0.2789 0.9052,-0.6815 -0.1546,-1.2485 -1.2075,-3.0094 -2.2412,-3.7451 -0.7614,-0.5424 -2.0699,-1.0159 -2.8177,-1.0196 l -0.6935,0 -0.043,1.2149 -0.043,1.2149 0.8099,0.5996 c 0.875,0.6477 1.5523,1.3645 2.1669,2.2934 0.3119,0.4713 0.4497,0.5683 0.6942,0.4882 0.1677,-0.055 0.7357,-0.2175 1.2621,-0.3613 z M 20.098,19.3394 c 1.55,-0.7599 2.687,-0.999 4.344,-0.9137 0.868,0.045 1.717,0.186 2.239,0.3724 l 0.8393,0.3005 0.093,-0.6215 c 0.3257,-2.1726 -1.1606,-4.8153 -3.3006,-5.8688 -0.878,-0.4322 -1.095,-0.477 -2.298,-0.4749 -1.127,0 -1.456,0.062 -2.17,0.3946 -2.763,1.2871 -4.151,4.6 -3.134,7.4803 0.127,0.3623 0.332,0.8115 0.454,0.9981 l 0.223,0.3392 0.839,-0.7505 c 0.462,-0.4128 1.304,-0.9778 1.871,-1.2557 z m -6.995,-0.5087 c 0.365,-0.1416 1.037,-0.3026 1.493,-0.3579 l 0.831,-0.1005 0.104,-0.9697 c 0.06,-0.5333 0.193,-1.2246 0.303,-1.5362 0.184,-0.521 0.178,-0.5786 -0.08,-0.7171 -1.162,-0.622 -2.923,-0.076 -3.626,1.1245 -0.463,0.7895 -0.597,1.7334 -0.351,2.4765 0.137,0.418 0.235,0.5193 0.422,0.4404 0.133,-0.056 0.541,-0.2184 0.905,-0.36 z" id="path-main"/>
    </g>
  </defs>
  <g id="acyl-visual">
    <use id="visible1" style="fill:url(#acyl-gradient)" xlink:href="#acyl-drawing"/>
  </g>
</svg>
