<svg xmlns="http://www.w3.org/2000/svg" xmlns:xlink="http://www.w3.org/1999/xlink" width="48" height="48">
  <defs id="acyl-settings">
    <linearGradient id="acyl-gradient" x1="0%" x2="0%" y1="0%" y2="100%">
      <stop offset="100%" style="stop-color:#A0A0A0;stop-opacity:1.000000"/>
    </linearGradient>
    <g id="acyl-filter">
  </g>
    <g id="acyl-drawing">
      <path id="path-main" d="M 21.45 2 C 20.55 2 19.85 2.699 19.85 3.699 L 19.85 5.801 L 16.15 5.801 L 16.15 8.5 C 16.15 8.9 16.45 9.301 16.95 9.301 L 31.06 9.301 C 31.52 9.301 31.9 8.9 31.9 8.5 L 31.9 5.801 L 28.15 5.801 L 28.15 3.699 C 28.15 2.699 27.45 2 26.55 2 L 21.45 2 z M 7.25 5.801 L 7.25 42.6 C 7.25 44.5 8.751 46 10.55 46 L 37.4 46 C 39.25 46 40.75 44.5 40.75 42.6 L 40.75 5.801 L 33.57 5.801 L 33.57 8.5 C 33.57 9.9 32.44 11 31.06 11 L 16.95 11 C 15.55 11 14.45 9.9 14.45 8.5 L 14.45 5.801 L 7.25 5.801 z M 11.45 14.7 L 36.56 14.7 L 36.56 41.8 L 11.45 41.8 L 11.45 14.7 z M 17.43 18.32 L 17.43 38.46 L 21.71 38.46 L 21.71 31.56 L 24.9 31.56 C 27.08 31.56 28.81 30.95 30.1 29.75 C 31.38 28.53 32.02 26.93 32.02 24.95 C 32.02 22.97 31.38 21.38 30.1 20.16 C 28.81 18.93 27.08 18.32 24.9 18.32 L 17.43 18.32 z M 21.71 21.91 L 24.9 21.91 C 25.83 21.91 26.53 22.2 27.01 22.77 C 27.5 23.34 27.74 24.08 27.74 24.97 C 27.74 25.85 27.5 26.57 27.01 27.13 C 26.53 27.68 25.83 27.96 24.9 27.96 L 21.71 27.96 L 21.71 21.91 z"/>
    </g>
  </defs>
  <g id="acyl-visual">
    <use id="visible1" style="fill:url(#acyl-gradient)" xlink:href="#acyl-drawing"/>
  </g>
</svg>
