<svg xmlns="http://www.w3.org/2000/svg" xmlns:xlink="http://www.w3.org/1999/xlink" width="48" height="48">
  <defs id="acyl-settings">
    <linearGradient id="acyl-gradient" x1="0%" x2="0%" y1="0%" y2="100%">
      <stop offset="100%" style="stop-color:#A0A0A0;stop-opacity:1.000000"/>
    </linearGradient>
    <g id="acyl-filter">
  </g>
    <g id="acyl-drawing">
      <path id="path-main" d="M 3.654 5.924 C 2.736 5.924 2 6.66 2 7.578 L 2 36.2 C 2 37.12 2.736 37.86 3.654 37.86 L 17.12 37.86 L 17.12 41.7 L 12 41.7 L 12 42.72 L 37.01 42.72 L 37.01 41.7 L 32.04 41.7 L 32.04 37.86 L 44.35 37.86 C 45.26 37.86 46 37.12 46 36.2 L 46 7.578 C 46 6.66 45.26 5.924 44.35 5.924 L 3.654 5.924 z M 17.34 10.32 C 18.24 10.32 18.94 10.55 19.44 11.01 C 19.95 11.47 20.19 12.1 20.18 12.89 L 18.77 12.89 C 18.77 12.41 18.65 12.05 18.42 11.8 C 18.19 11.54 17.84 11.41 17.35 11.41 C 16.92 11.41 16.57 11.59 16.32 11.94 C 16.07 12.29 15.94 12.74 15.94 13.29 L 15.94 14.74 C 15.94 15.29 16.07 15.75 16.34 16.1 C 16.61 16.45 16.97 16.63 17.43 16.63 C 17.88 16.63 18.22 16.51 18.43 16.27 C 18.65 16.02 18.76 15.66 18.76 15.18 L 20.17 15.24 C 20.17 16.02 19.93 16.64 19.45 17.09 C 18.96 17.54 18.29 17.77 17.42 17.77 C 16.55 17.77 15.84 17.49 15.3 16.93 C 14.75 16.37 14.48 15.65 14.48 14.77 L 14.48 13.33 C 14.48 12.45 14.75 11.73 15.28 11.17 C 15.81 10.6 16.49 10.32 17.34 10.32 z M 23.87 10.35 C 24.66 10.35 25.31 10.56 25.81 10.99 C 26.31 11.41 26.55 11.93 26.54 12.55 L 25.13 12.55 C 25.13 12.22 25.02 11.95 24.79 11.74 C 24.57 11.53 24.26 11.43 23.85 11.43 C 23.46 11.43 23.16 11.52 22.95 11.69 C 22.74 11.86 22.63 12.08 22.63 12.35 C 22.63 12.6 22.74 12.8 22.97 12.95 C 23.2 13.11 23.59 13.28 24.15 13.45 C 24.95 13.68 25.56 13.97 25.97 14.33 C 26.38 14.7 26.58 15.18 26.58 15.77 C 26.58 16.39 26.34 16.88 25.85 17.24 C 25.36 17.59 24.71 17.77 23.91 17.77 C 23.12 17.77 22.44 17.57 21.85 17.17 C 21.26 16.76 20.98 16.19 20.99 15.46 L 22.4 15.46 C 22.4 15.89 22.53 16.2 22.8 16.41 C 23.06 16.61 23.43 16.71 23.9 16.71 C 24.29 16.71 24.6 16.63 24.81 16.46 C 25.02 16.3 25.12 16.08 25.12 15.81 C 25.12 15.53 25.02 15.31 24.82 15.14 C 24.63 14.97 24.28 14.81 23.79 14.66 C 22.92 14.41 22.27 14.12 21.83 13.78 C 21.39 13.43 21.17 12.96 21.17 12.37 C 21.17 11.78 21.42 11.29 21.93 10.92 C 22.44 10.54 23.08 10.35 23.87 10.35 z M 8.059 10.46 L 10.94 10.46 C 11.77 10.46 12.43 10.67 12.91 11.09 C 13.38 11.52 13.62 12.08 13.62 12.77 C 13.62 13.46 13.38 14.02 12.91 14.44 C 12.43 14.86 11.77 15.07 10.94 15.07 L 9.51 15.07 L 9.51 17.7 L 8.059 17.7 L 8.059 10.46 z M 27.21 10.46 L 28.89 10.46 L 30.23 13.02 L 31.59 10.46 L 33.28 10.46 L 31.13 14.05 L 33.4 17.7 L 31.65 17.7 L 30.25 15.09 L 28.85 17.7 L 27.15 17.7 L 29.36 14.05 L 27.21 10.46 z M 34.16 10.46 L 36.89 10.46 C 37.72 10.46 38.36 10.65 38.83 11.02 C 39.3 11.4 39.53 11.93 39.53 12.6 C 39.53 12.97 39.43 13.29 39.24 13.56 C 39.04 13.83 38.75 14.04 38.38 14.21 C 38.81 14.34 39.11 14.55 39.3 14.84 C 39.49 15.14 39.58 15.51 39.58 15.94 L 39.58 16.47 C 39.58 16.67 39.61 16.88 39.68 17.11 C 39.75 17.33 39.84 17.49 39.96 17.6 L 39.96 17.7 L 38.47 17.7 C 38.34 17.59 38.25 17.42 38.21 17.17 C 38.14 16.92 38.11 16.68 38.11 16.46 L 38.11 15.95 C 38.11 15.59 38.01 15.31 37.81 15.11 C 37.63 14.9 37.36 14.8 37 14.8 L 35.62 14.8 L 35.62 17.7 L 34.16 17.7 L 34.16 10.46 z M 9.51 11.58 L 9.51 13.95 L 10.94 13.95 C 11.35 13.95 11.65 13.84 11.86 13.63 C 12.07 13.4 12.18 13.12 12.18 12.78 C 12.18 12.43 12.07 12.15 11.86 11.92 C 11.65 11.69 11.35 11.58 10.94 11.58 L 9.51 11.58 z M 35.62 11.58 L 35.62 13.69 L 36.87 13.69 C 37.28 13.69 37.58 13.6 37.78 13.43 C 37.98 13.26 38.08 13 38.08 12.66 C 38.08 12.33 37.98 12.06 37.78 11.87 C 37.58 11.68 37.28 11.58 36.89 11.58 L 35.62 11.58 z M 24.65 22.12 L 29.2 22.13 L 29.53 22.22 C 30.21 22.41 30.72 22.66 31.19 23.05 C 31.84 23.6 32.32 24.36 32.53 25.21 C 32.59 25.42 33.27 31.35 33.34 32.23 C 33.44 33.42 32.41 34.46 31.21 34.37 C 30.83 34.35 30.51 34.24 30.21 34.04 C 29.91 33.84 29.75 33.68 29.55 33.33 C 29.48 33.2 29 32.45 28.49 31.68 L 27.57 30.26 L 24.54 30.25 L 21.5 30.25 L 20.55 31.7 C 20.03 32.51 19.55 33.25 19.48 33.37 C 19.31 33.67 19.15 33.84 18.88 34.02 C 18.58 34.23 18.21 34.35 17.85 34.38 C 16.64 34.45 15.62 33.42 15.72 32.21 C 15.77 31.53 16.46 25.47 16.51 25.28 C 16.9 23.6 18.28 22.35 20 22.13 C 20.06 22.12 22.15 22.12 24.65 22.12 z M 19.8 24.14 L 19.8 24.82 L 19.8 25.49 L 19.12 25.49 L 18.43 25.49 L 18.43 26.16 L 18.43 26.83 L 19.11 26.84 L 19.79 26.85 L 19.8 27.53 L 19.8 28.21 L 20.48 28.21 L 21.15 28.21 L 21.15 27.52 L 21.15 26.83 L 21.82 26.83 L 22.5 26.83 L 22.5 26.16 L 22.5 25.49 L 21.82 25.49 L 21.15 25.49 L 21.15 24.82 L 21.15 24.14 L 20.48 24.14 L 19.8 24.14 z M 29.01 24.16 C 28.9 24.14 28.78 24.15 28.71 24.18 C 28.2 24.39 28.12 25.08 28.57 25.38 C 28.69 25.46 28.75 25.47 28.94 25.47 C 29.14 25.47 29.2 25.46 29.32 25.38 C 29.71 25.12 29.71 24.51 29.32 24.26 C 29.24 24.21 29.13 24.17 29.01 24.16 z M 30.26 25.49 C 30.18 25.5 30.11 25.52 30.03 25.55 C 29.76 25.68 29.63 25.88 29.63 26.19 C 29.63 26.42 29.75 26.63 29.96 26.75 C 30.1 26.83 30.15 26.84 30.34 26.83 C 30.58 26.81 30.76 26.71 30.88 26.51 C 31.09 26.16 30.9 25.65 30.51 25.53 C 30.41 25.5 30.33 25.49 30.26 25.49 z M 27.68 25.5 C 27.48 25.47 27.27 25.54 27.11 25.7 C 26.82 25.99 26.86 26.44 27.2 26.71 C 27.3 26.8 27.37 26.82 27.55 26.83 C 27.74 26.84 27.79 26.83 27.92 26.75 C 28.02 26.69 28.12 26.6 28.17 26.5 C 28.25 26.37 28.26 26.32 28.25 26.13 C 28.24 25.95 28.22 25.88 28.13 25.78 C 28.07 25.7 27.96 25.61 27.88 25.56 C 27.81 25.53 27.74 25.51 27.68 25.5 z M 28.86 26.85 C 28.84 26.86 28.78 26.87 28.73 26.88 C 28.61 26.91 28.41 27.09 28.33 27.23 C 28.27 27.35 28.26 27.68 28.32 27.8 C 28.47 28.09 28.8 28.25 29.1 28.18 C 29.34 28.12 29.52 27.94 29.59 27.71 C 29.63 27.54 29.63 27.51 29.59 27.34 C 29.53 27.16 29.39 26.99 29.24 26.91 C 29.16 26.87 28.91 26.83 28.86 26.85 z"/>
    </g>
  </defs>
  <g id="acyl-visual">
    <use id="visible1" style="fill:url(#acyl-gradient)" xlink:href="#acyl-drawing"/>
  </g>
</svg>
