<svg xmlns="http://www.w3.org/2000/svg" xmlns:xlink="http://www.w3.org/1999/xlink" width="48" height="48">
  <defs id="acyl-settings">
    <linearGradient id="acyl-gradient" x1="0%" x2="0%" y1="0%" y2="100%">
      <stop offset="100%" style="stop-color:#A0A0A0;stop-opacity:1.000000"/>
    </linearGradient>
    <g id="acyl-filter">
  </g>
    <g id="acyl-drawing">
      <path d="m 4.5631,2.0001 c -1.41995,0 -2.56308,1.1431 -2.56308,2.5631 l 0,38.8736 c 0,1.42 1.14314,2.5631 2.56308,2.5631 l 38.8738,0 c 1.42,0 2.5631,-1.1431 2.5631,-2.5631 L 46,4.5632 c 0,-1.42 -1.1431,-2.5631 -2.5631,-2.5631 l -38.8738,0 z m 19.431,2.3495 c 1.89,0 3.4174,1.531 3.4174,3.4174 0,1.4234 -0.8947,2.5987 -2.1359,3.1104 l 0,1.1615 5.1262,0 c 0.2269,0 0.4272,0.1785 0.4272,0.4271 l 0,1.2816 c 0,0.256 -0.2297,0.4272 -0.4272,0.4272 l -5.1262,0 0,15.8057 c 0,0.3032 0.6249,0.5872 1.1481,0.4939 0.609,0 0.9792,-0.1591 1.5619,-0.3203 1.3158,-0.3848 2.572,-0.9181 3.7779,-1.5619 0.5077,-0.2815 1.0033,-0.5559 1.4551,-0.9211 0.1947,-0.1661 0.421,-0.4063 0.4005,-0.6808 -0.026,-0.2079 -0.1316,-0.4293 -0.3605,-0.4673 -0.2063,-0.032 -0.3916,0.078 -0.574,0.1469 -0.1573,0.068 -0.2655,-0.123 -0.2403,-0.2537 0.025,-0.3443 0.142,-0.6631 0.3204,-0.9612 0.3711,-0.6104 0.9423,-1.0646 1.5352,-1.455 0.6329,-0.4042 1.3077,-0.8487 1.7087,-1.4952 0.08,-0.1194 0.1684,-0.3171 0.3471,-0.2536 0.2484,0.081 0.3856,0.3241 0.5073,0.534 0.3424,0.6515 0.5131,1.3544 0.6674,2.0691 0.1269,0.5688 0.151,1.1694 0.1068,1.7488 -0.046,0.5798 -0.085,1.1674 -0.3203,1.7088 -0.1479,0.3558 -0.4083,0.6426 -0.6675,0.9211 -0.1655,-0.1749 -0.338,-0.3627 -0.5073,-0.534 -0.2193,-0.2202 -0.4934,-0.3631 -0.8143,-0.3204 -0.4369,0.056 -0.8315,0.321 -1.1747,0.5741 -0.4837,0.376 -0.9358,0.7695 -1.4285,1.1346 -0.7796,0.5959 -1.6396,1.032 -2.523,1.4551 -0.736,0.3418 -1.4923,0.6832 -2.2561,0.9612 -0.1368,0.06 -0.2879,0.057 -0.4272,0.1068 -1.3663,0.5682 -2.5356,1.2109 -3.4841,2.3895 -0.01,0.033 0.01,0.074 0,0.1068 -0.011,-0.014 -0.029,-0.026 -0.04,-0.04 -0.011,0.014 -0.029,0.026 -0.04,0.04 l 0,-0.067 c -0.9519,-1.1923 -2.11,-1.8576 -3.4846,-2.4293 -0.1392,-0.05 -0.2904,-0.047 -0.4272,-0.1068 -0.7638,-0.278 -1.52,-0.6194 -2.256,-0.9612 -0.8835,-0.4231 -1.7434,-0.8592 -2.5231,-1.4551 -0.4927,-0.3651 -0.9448,-0.7586 -1.4284,-1.1346 -0.3433,-0.2531 -0.7379,-0.5179 -1.1747,-0.5741 -0.321,-0.043 -0.595,0.1002 -0.8143,0.3204 -0.1693,0.1713 -0.3419,0.3591 -0.5073,0.534 -0.2593,-0.2785 -0.5196,-0.5653 -0.6675,-0.9211 -0.2348,-0.5415 -0.2745,-1.129 -0.3204,-1.7088 -0.044,-0.5794 -0.02,-1.18 0.1068,-1.7488 0.1544,-0.7147 0.3251,-1.4176 0.6675,-2.0691 0.1217,-0.2099 0.2588,-0.4534 0.5073,-0.534 0.1787,-0.063 0.2673,0.1342 0.3471,0.2536 0.4009,0.6465 1.0757,1.091 1.7087,1.4952 0.5928,0.3904 1.164,0.8446 1.5352,1.455 0.1784,0.2981 0.295,0.6169 0.3204,0.9612 0.025,0.1307 -0.083,0.3215 -0.2403,0.2537 -0.1825,-0.069 -0.3678,-0.1795 -0.5741,-0.1469 -0.2288,0.038 -0.3341,0.2594 -0.3604,0.4673 -0.021,0.2745 0.2058,0.5147 0.4005,0.6808 0.4518,0.3652 0.9474,0.6396 1.4551,0.9211 1.2059,0.6438 2.4621,1.1771 3.7779,1.5619 0.5826,0.1611 0.9529,0.3161 1.5619,0.3203 0.4156,-0.046 1.148,-0.055 1.148,-0.4939 l 0,-15.8057 -5.1262,0 c -0.2416,0 -0.4272,-0.1859 -0.4272,-0.4272 l 0,-1.2816 c 0,-0.2412 0.2003,-0.4271 0.4272,-0.4271 l 5.1262,0 0,-1.1615 C 21.4712,10.3657 20.576,9.1904 20.5764,7.767 c 0,-1.8864 1.5275,-3.4174 3.4175,-3.4174 z m -0.067,1.6686 c -0.9175,0 -1.6824,0.7263 -1.6821,1.642 -3e-4,0.9158 0.7646,1.6687 1.6821,1.6687 0.9174,0 1.6689,-0.7529 1.6686,-1.6687 3e-4,-0.9157 -0.7512,-1.642 -1.6686,-1.642 z m -15.82251,31.0075 4.45041,0 c 0.3071,0 0.5548,0.2477 0.5548,0.5549 l 0,4.4503 c 0,0.3072 -0.2477,0.555 -0.5548,0.555 l -4.45041,0 c -0.3071,0 -0.5548,-0.2478 -0.5548,-0.555 l 0,-4.4503 c 0,-0.3072 0.2477,-0.5549 0.5548,-0.5549 z m 8.97081,0 4.4504,0 c 0.3071,0 0.5548,0.2477 0.5548,0.5549 l 0,4.4503 c 0,0.3072 -0.2477,0.555 -0.5548,0.555 l -4.4504,0 c -0.3071,0 -0.5548,-0.2478 -0.5548,-0.555 l 0,-4.4503 c 0,-0.3072 0.2477,-0.5549 0.5548,-0.5549 z m 9.3981,0 4.4503,0 c 0.3071,0 0.5549,0.2477 0.5549,0.5549 l 0,4.4503 c 0,0.3072 -0.2478,0.555 -0.5549,0.555 l -4.4503,0 c -0.3071,0 -0.5549,-0.2478 -0.5549,-0.555 l 0,-4.4503 c 0,-0.3072 0.2478,-0.5549 0.5549,-0.5549 z m 8.9708,0 4.4512,0 c 0.3072,0 0.5541,0.2477 0.5541,0.5549 l 0,4.4503 c 0,0.3072 -0.2469,0.555 -0.5541,0.555 l -4.4512,0 c -0.3071,0 -0.5548,-0.2478 -0.5548,-0.555 l 0,-4.4503 c 0,-0.3072 0.2477,-0.5549 0.5548,-0.5549 z" id="path-main"/>
    </g>
  </defs>
  <g id="acyl-visual">
    <use id="visible1" style="fill:url(#acyl-gradient)" xlink:href="#acyl-drawing"/>
  </g>
</svg>
