<svg xmlns="http://www.w3.org/2000/svg" xmlns:xlink="http://www.w3.org/1999/xlink" width="48" height="48">
  <defs id="acyl-settings">
    <linearGradient id="acyl-gradient" x1="0%" x2="0%" y1="0%" y2="100%">
      <stop offset="100%" style="stop-color:#A0A0A0;stop-opacity:1.000000"/>
    </linearGradient>
    <g id="acyl-filter">
  </g>
    <g id="acyl-drawing">
      <path id="path-main" d="M 10 4 C 6.676 4 4 6.676 4 10 L 4 38 C 4 41.32 6.676 44 10 44 L 38 44 C 41.32 44 44 41.32 44 38 L 44 10 C 44 6.676 41.32 4 38 4 L 10 4 z M 32.31 7 C 32.26 7.385 31.85 9.781 32.75 10.46 C 34.45 11.34 38.16 14.3 38.06 19.57 C 37.83 24.33 35.15 26.97 32.11 29.02 C 30.28 30.3 26.69 30.97 26.69 30.97 C 26.69 30.97 26 34.04 25.19 35.43 C 23.39 38.82 21.2 40.56 16.81 41 C 13.01 41 9.938 37.92 9.938 34.13 C 9.938 30.97 12.03 28.34 14.91 27.52 C 13.8 25.66 13.2 23.53 13.2 21.36 C 13.2 14.7 18.61 9.281 25.28 9.281 C 26.78 9.195 30.51 9.62 32.31 7 z M 24.47 11.62 C 20.27 11.71 17.03 14.81 15.73 17.31 C 14.62 19.81 14.36 22.24 16.67 26.6 C 17.32 27.37 19.1 27.9 18.81 29.96 C 18.51 31.97 16.01 32.34 14.81 32.24 C 13.73 32.18 12.79 32.95 12.62 34.17 C 12.48 35.13 12.97 37.82 15.57 37.43 C 18.62 37.44 20.61 34.55 21.99 30.7 C 22.93 28.12 22.72 25.05 23.5 21.76 C 24.42 17.36 27.32 13.1 27.89 12.21 C 26.84 11.87 25.45 11.62 24.47 11.62 z M 29.78 13.04 C 28.37 15.18 26.98 20.95 27.17 26.58 C 27.25 27.95 29.32 28.11 30.42 27.12 C 35.1 22.74 34.23 15.91 29.78 13.04 z"/>
    </g>
  </defs>
  <g id="acyl-visual">
    <use id="visible1" style="fill:url(#acyl-gradient)" xlink:href="#acyl-drawing"/>
  </g>
</svg>
