<svg xmlns="http://www.w3.org/2000/svg" xmlns:xlink="http://www.w3.org/1999/xlink" width="48" height="48">
  <defs id="acyl-settings">
    <linearGradient id="acyl-gradient" x1="0%" x2="0%" y1="0%" y2="100%">
      <stop offset="100%" style="stop-color:#A0A0A0;stop-opacity:1.000000"/>
    </linearGradient>
    <g id="acyl-filter">
  </g>
    <g id="acyl-drawing">
      <path d="m 37.760745,2 a 8.1960784,8.1960784 0 0 0 -8.19608,8.196078 8.1960784,8.1960784 0 0 0 0.0971,1.218627 l -13.76618,6.670099 A 8.1960784,8.1960784 0 0 0 10.239212,15.803922 8.1960784,8.1960784 0 0 0 2.0431345,24 a 8.1960784,8.1960784 0 0 0 8.1960775,8.196078 8.1960784,8.1960784 0 0 0 5.688726,-2.30245 l 13.706867,6.918137 a 8.1960784,8.1960784 0 0 0 -0.0701,0.992157 8.1960784,8.1960784 0 0 0 8.19608,8.196078 8.1960784,8.1960784 0 0 0 8.19608,-8.196078 8.1960784,8.1960784 0 0 0 -8.19608,-8.196079 8.1960784,8.1960784 0 0 0 -5.59167,2.210784 L 18.392113,24.851961 A 8.1960784,8.1960784 0 0 0 18.435263,24 a 8.1960784,8.1960784 0 0 0 -0.0701,-0.975981 l 13.895592,-6.761763 a 8.1960784,8.1960784 0 0 0 5.5,2.129901 8.1960784,8.1960784 0 0 0 8.19608,-8.196079 A 8.1960784,8.1960784 0 0 0 37.760755,2 Z" id="path-main"/>
    </g>
  </defs>
  <g id="acyl-visual">
    <use id="visible1" style="fill:url(#acyl-gradient)" xlink:href="#acyl-drawing"/>
  </g>
</svg>
