<svg xmlns="http://www.w3.org/2000/svg" xmlns:xlink="http://www.w3.org/1999/xlink" width="48" height="48">
  <defs id="acyl-settings">
    <linearGradient id="acyl-gradient" x1="0%" x2="0%" y1="0%" y2="100%">
      <stop offset="100%" style="stop-color:#A0A0A0;stop-opacity:1.000000"/>
    </linearGradient>
    <g id="acyl-filter">
  </g>
    <g id="acyl-drawing">
      <path id="path-main" d="M 24 9.332 C 18.31 9.332 13.45 12.85 11.37 17.55 C 6.079 18.28 2 22.68 2 28.11 C 2 33.98 6.93 38.67 13 38.67 L 36.38 38.67 C 41.7 38.67 46 34.56 46 29.43 C 46 24.59 42.29 20.63 37.49 20.19 C 36.25 14.03 30.67 9.332 24 9.332 z M 17.18 18.16 L 21.52 18.16 C 21.89 18.16 22.3 18.25 22.75 18.43 C 23.19 18.62 23.55 18.84 23.81 19.11 L 31.29 26.57 C 31.54 26.84 31.67 27.16 31.67 27.52 C 31.67 27.89 31.54 28.2 31.29 28.46 L 26.15 33.6 C 25.88 33.86 25.57 33.99 25.2 33.99 C 24.83 33.99 24.52 33.86 24.26 33.6 L 16.79 26.12 C 16.53 25.86 16.3 25.51 16.12 25.06 C 15.93 24.62 15.84 24.21 15.84 23.84 L 15.84 19.49 C 15.84 19.13 15.97 18.82 16.24 18.55 C 16.5 18.29 16.82 18.16 17.18 18.16 z M 23.2 18.16 L 25.54 18.16 C 25.9 18.16 26.32 18.25 26.76 18.43 C 27.2 18.62 27.56 18.84 27.83 19.11 L 35.3 26.57 C 35.56 26.84 35.68 27.16 35.68 27.52 C 35.68 27.89 35.56 28.2 35.3 28.46 L 30.17 33.6 C 29.9 33.86 29.58 33.99 29.21 33.99 C 28.96 33.99 28.76 33.94 28.6 33.84 C 28.44 33.74 28.26 33.59 28.05 33.37 L 32.96 28.46 C 33.21 28.2 33.34 27.89 33.34 27.52 C 33.34 27.16 33.21 26.84 32.96 26.57 L 25.48 19.11 C 25.22 18.84 24.87 18.62 24.42 18.43 C 23.97 18.25 23.57 18.16 23.2 18.16 z M 19.18 20.16 C 18.81 20.16 18.5 20.29 18.24 20.55 C 17.98 20.82 17.85 21.13 17.85 21.5 C 17.85 21.87 17.98 22.19 18.24 22.45 C 18.5 22.71 18.81 22.84 19.18 22.84 C 19.55 22.84 19.87 22.71 20.13 22.45 C 20.39 22.19 20.52 21.87 20.52 21.5 C 20.52 21.13 20.39 20.82 20.13 20.55 C 19.87 20.29 19.55 20.16 19.18 20.16 z"/>
    </g>
  </defs>
  <g id="acyl-visual">
    <use id="visible1" style="fill:url(#acyl-gradient)" xlink:href="#acyl-drawing"/>
  </g>
</svg>
