<svg xmlns="http://www.w3.org/2000/svg" xmlns:xlink="http://www.w3.org/1999/xlink" width="48" height="48">
  <defs id="acyl-settings">
    <linearGradient id="acyl-gradient" x1="0%" x2="0%" y1="0%" y2="100%">
      <stop offset="100%" style="stop-color:#A0A0A0;stop-opacity:1.000000"/>
    </linearGradient>
    <g id="acyl-filter">
  </g>
    <g id="acyl-drawing">
      <path id="path-main" d="M 4.029 4 L 4.029 29.72 L 8 24.43 L 8 8 L 25.67 8 L 29.67 4 L 4.029 4 z M 32.47 4 L 28.47 8 L 35.09 8 L 34.47 4 L 32.47 4 z M 36.57 4 L 37.19 8 L 40 8 L 40 20.83 L 43.97 27.03 L 43.97 4 L 36.57 4 z M 10 10 L 10 38 L 38 38 L 38 10 L 10 10 z M 30.29 13.99 A 5.855 5.855 0 0 1 34.32 15.81 L 32.64 17.63 A 4.01 4.01 0 0 0 29.71 16.37 A 3.455 3.455 0 0 0 26.37 20 A 3.455 3.455 0 0 0 29.71 23.62 A 4.475 4.475 0 0 0 32.78 22.23 L 34.44 23.9 A 6.072 6.072 0 0 1 29.71 25.99 C 26.23 25.85 23.72 23.34 23.72 20 L 23.73 20 A 5.862 5.862 0 0 1 29.71 14 A 5.855 5.855 0 0 1 30.29 13.99 z M 13.56 14.14 L 18.28 14.14 C 21.07 14.14 22.75 15.81 22.75 18.19 C 22.75 20.84 20.65 22.23 18 22.23 L 16.05 22.23 L 16.05 25.71 L 13.56 25.71 L 13.56 14.14 z M 16.06 16.37 L 16.06 20 L 18.15 20 A 1.726 1.726 0 0 0 20.1 18.19 C 20.1 17.07 19.27 16.37 18.01 16.37 L 16.06 16.37 z M 40 24.55 L 40 40 L 14.33 40 L 14.25 40.35 L 24.55 44 L 43.97 44 L 43.97 30.64 L 40 24.55 z M 8 27.76 L 4.029 33.05 L 4.029 44 L 18.57 44 L 11.89 41.65 L 12.27 40 L 8 40 L 8 27.76 z M 13.31 31.5 L 23.31 31.5 L 23.31 34 L 13.31 34 L 13.31 31.5 z"/>
    </g>
  </defs>
  <g id="acyl-visual">
    <use id="visible1" style="fill:url(#acyl-gradient)" xlink:href="#acyl-drawing"/>
  </g>
</svg>
