<svg xmlns="http://www.w3.org/2000/svg" xmlns:xlink="http://www.w3.org/1999/xlink" width="48" height="48">
  <defs id="acyl-settings">
    <linearGradient id="acyl-gradient" x1="0%" x2="0%" y1="0%" y2="100%">
      <stop offset="100%" style="stop-color:#A0A0A0;stop-opacity:1.000000"/>
    </linearGradient>
    <g id="acyl-filter">
  </g>
    <g id="acyl-drawing">
      <path d="m 23.4,1.327 c -5.01,0 -10,1.1 -10,3.321 v 6.682 h 10.07 v 3.32 H 7.834 c -7.7803,0 -7.7803,18.91 0,18.91 h 3.346 v -4.44 c 0,-4.46 2.22,-6.68 6.66,-6.68 h 11.13 c 2.22,0 4.44,-2.22 4.44,-4.44 V 4.648 C 33.41,2.427 28.4,1.327 23.4,1.327 Z m -4.75,3.035 c 1.24,0 2.25,1.011 2.25,2.221 0,1.232 -1.01,2.221 -2.25,2.221 -1.21,0 -2.22,-0.989 -2.22,-2.221 0,-1.21 1.01,-2.221 2.22,-2.221 z M 36.8,14.43 v 4.45 c 0,4.46 -2.22,6.68 -6.67,6.68 h -11.1 c -2.22,0 -4.47,2.22 -4.47,4.44 v 13.35 c 0,2.22 5.04,3.32 10.03,3.32 5.02,0 9.99,-1.1 9.99,-3.32 V 36.66 H 24.5 v -3.32 h 15.64 c 7.81,0 7.81,-18.91 0,-18.91 z m -7.48,24.76 c 1.21,0 2.22,0.99 2.22,2.22 0,1.21 -1.01,2.23 -2.22,2.23 -1.23,0 -2.22,-1.02 -2.22,-2.23 0,-1.23 0.99,-2.22 2.22,-2.22 z" id="path-main"/>
    </g>
  </defs>
  <g id="acyl-visual">
    <use id="visible1" style="fill:url(#acyl-gradient)" xlink:href="#acyl-drawing"/>
  </g>
</svg>
