<svg xmlns="http://www.w3.org/2000/svg" xmlns:xlink="http://www.w3.org/1999/xlink" width="48" height="48">
  <defs id="acyl-settings">
    <linearGradient id="acyl-gradient" x1="0%" x2="0%" y1="0%" y2="100%">
      <stop offset="100%" style="stop-color:#A0A0A0;stop-opacity:1.000000"/>
    </linearGradient>
    <g id="acyl-filter">
  </g>
    <g id="acyl-drawing">
      <path id="path-main" d="M 13,2 6,9 v 37 h 28 l 8,-8 V 2 Z m 11,3.004 c 5.25,-0 9.5,4.25 9.5,9.496 0,5.25 -4.25,9.5 -9.5,9.5 -5.25,0 -9.5,-4.25 -9.5,-9.5 0,-5.246 4.25,-9.498 9.5,-9.496 z M 24,7.5 c -3.87,0 -7,3.13 -7,7 0,3.87 3.13,7 7,7 3.87,0 7,-3.13 7,-7 0,-3.87 -3.13,-7 -7,-7 z m -2.75,3 h 2 v 8 l -4,-3.5 h 2 z m 3.5,0 4,3.5 h -2 v 4.5 h -2 z m -4.68,16.25 c 1.17,0 2.4,0.21 3.35,0.94 0.72,0.43 1.17,1.24 1.45,2.02 0.52,1.31 0.67,2.7 0.67,4.07 0,1.38 -0.1,2.84 -0.52,4.13 -0.28,0.86 -0.88,1.67 -1.68,2.24 0.6,0.96 1.17,1.83 1.68,2.69 -0.65,0.36 -1.38,0.66 -2.11,1.03 -0.57,-1.03 -1.17,-1.97 -1.74,-3 -0.8,0.15 -1.67,0.15 -2.47,0 -1.03,-0.1 -1.96,-0.35 -2.76,-1 -0.6,-0.52 -0.95,-1.24 -1.17,-1.96 -0.43,-1.15 -0.5,-2.45 -0.5,-3.7 0,-1.37 0.1,-2.75 0.43,-4.07 0.37,-1 0.87,-1.95 1.74,-2.52 1.1,-0.71 2.4,-0.87 3.63,-0.87 z m 8.3,0.79 h 2.17 v 2.9 h 2.85 c 0,0.65 -0.1,1.24 -0.1,1.89 h -2.77 c 0,1.6 -0.1,3.18 0,4.79 0,0.43 0,0.85 0.15,1.3 0.14,0.28 0.5,0.35 0.87,0.35 0.58,0 1.16,0 1.67,-0.1 0.1,0.58 0.1,1.17 0.16,1.74 -1.17,0.23 -2.4,0.43 -3.5,0.11 -0.5,-0.15 -0.95,-0.44 -1.17,-0.94 -0.29,-0.81 -0.36,-1.67 -0.36,-2.52 v -4.72 h -1.53 v -1.89 h 1.53 z m -9.23,1.16 c -0.6,0.1 -1.17,0.29 -1.53,0.75 -0.44,0.41 -0.67,1.06 -0.87,1.72 -0.37,1.66 -0.3,3.33 0,5.01 0.1,0.57 0.2,1.08 0.43,1.57 0.22,0.38 0.57,0.75 0.94,0.95 0.66,0.3 1.46,0.37 2.19,0.3 0.72,0 1.44,-0.3 1.96,-0.8 0.44,-0.58 0.65,-1.3 0.73,-1.95 0.15,-1.23 0.22,-2.39 0.1,-3.56 -0.1,-0.87 -0.22,-1.8 -0.58,-2.6 -0.22,-0.52 -0.65,-0.95 -1.24,-1.16 -0.44,-0.22 -0.95,-0.22 -1.45,-0.22 l -0,-0 z"/>
    </g>
  </defs>
  <g id="acyl-visual">
    <use id="visible1" style="fill:url(#acyl-gradient)" xlink:href="#acyl-drawing"/>
  </g>
</svg>
