<svg xmlns="http://www.w3.org/2000/svg" xmlns:xlink="http://www.w3.org/1999/xlink" width="48" height="48">
  <defs id="acyl-settings">
    <linearGradient id="acyl-gradient" x1="0%" x2="0%" y1="0%" y2="100%">
      <stop offset="100%" style="stop-color:#A0A0A0;stop-opacity:1.000000"/>
    </linearGradient>
    <g id="acyl-filter">
  </g>
    <g id="acyl-drawing">
      <path id="path-main" d="M 24,2 A 22,22 0 0 0 2,24 22,22 0 0 0 24,46 22,22 0 0 0 46,24 22,22 0 0 0 24,2 Z m -1.840781,6.028516 1.167031,1.513359 0.702109,-0.818984 c 1.201003,0.395054 2.244162,1.6846 3.371328,2.073672 2.004742,0.708799 2.742812,1.558624 3.388516,2.820468 0.758965,2.365428 0.296223,2.66516 4.436953,4.728282 1.940312,1.094615 3.247526,1.588451 4.125,4.123281 -2.429979,-2.812538 -6.272743,-3.36206 -11.075625,-4.38711 -0.57313,-0.02139 -1.983308,0.431226 -2.121797,0.580079 5.858654,0.912334 10.320844,2.433055 11.033516,3.126406 0.289687,0.281833 0.781475,0.675952 0.940156,1.023515 -2.361554,-0.852431 -3.419487,-1.091505 -5.324687,-1.572656 -3.482891,-0.676993 -5.793951,-1.39324 -7.011641,0.715859 -1.251966,2.607513 6.508298,8.852777 6.728047,16.256797 H 17.931953 C 17.774644,34.541339 18.235661,34.205575 16.167656,30.082656 13.902572,25.279401 11.16478,15.20846 15.753437,11.258047 l 0.945313,0.149531 -0.04469,-1.2925 c 0,0 1.241969,0.669253 1.272734,0.662578 0.08601,0.04098 0.03524,-1.660312 0.03524,-1.660312 l 1.44375,1.226328 0.121172,-1.651719 1.203984,1.356094 0.109141,-1.67836 1.111172,1.359532 z m 4.268515,4.439531 a 2.1395097,1.3222896 24.177764 0 0 -1.162734,0.613594 2.1395097,1.3222896 24.177764 0 0 1.410234,2.082265 2.1395097,1.3222896 24.177764 0 0 2.493047,-0.33 2.1395097,1.3222896 24.177764 0 0 -1.410234,-2.082265 2.1395097,1.3222896 24.177764 0 0 -1.330313,-0.283594 z"/>
    </g>
  </defs>
  <g id="acyl-visual">
    <use id="visible1" style="fill:url(#acyl-gradient)" xlink:href="#acyl-drawing"/>
  </g>
</svg>
