<svg xmlns="http://www.w3.org/2000/svg" xmlns:xlink="http://www.w3.org/1999/xlink" width="48" height="48">
  <defs id="acyl-settings">
    <linearGradient id="acyl-gradient" x1="0%" x2="0%" y1="0%" y2="100%">
      <stop offset="100%" style="stop-color:#A0A0A0;stop-opacity:1.000000"/>
    </linearGradient>
    <g id="acyl-filter">
  </g>
    <g id="acyl-drawing">
      <path d="m 6.49,2.005 c -0.677,0 -1.236,0.559 -1.236,1.236 V 44.76 c 0,0.68 0.559,1.24 1.236,1.24 h 4.3 V 2.005 Z m 5.65,0 V 46 h 29.38 c 0.69,0 1.23,-0.55 1.23,-1.24 V 3.241 c 0,-0.688 -0.55,-1.236 -1.23,-1.236 z m 3.35,5.751 h 21.22 c 0.11,0 0.15,0 0.15,0.107 v 0.946 c 0,0 -0.1,0.108 -0.15,0.108 h -21.2 c -0.1,0 -0.15,0 -0.15,-0.108 V 7.874 c 0,0 0.11,-0.107 0.13,-0.107 z m 0,2.15 v 0 h 14.84 c 0.1,0 0.1,0 0.1,0.104 v 0.95 l -0.1,0.11 H 15.47 c -0.11,0 -0.11,0 -0.11,-0.11 v -0.95 c 0,0 0,-0.104 0.11,-0.104 z m 0.13,3.224 H 37.9 V 28.98 H 15.56 Z m 15.35,1.15 v 0.15 0.2 l -7.21,10.95 h 6.15 l 1.12,-10.69 c 0.34,1.51 1.44,6.71 0.48,8.85 -0.43,2.05 -1.75,2.48 -1.75,2.48 H 23 l 0.31,1.02 h 0.18 10.67 l 1.62,-1.02 h -3.51 c 0,0 3.21,-0.58 3.66,-4.23 0.43,-3.64 -4.98,-7.71 -4.98,-7.71 z m -9.66,1.22 c -1.58,0 -2.86,1.28 -2.86,2.86 0,1.58 1.28,2.86 2.86,2.86 1.58,0 2.86,-1.28 2.86,-2.86 0,-1.58 -1.28,-2.86 -2.86,-2.86 z m -5.83,15.91 h 21.2 c 0.11,0 0.14,0 0.15,0.11 v 0.94 c 0,0 -0.11,0.11 -0.15,0.11 H 15.51 c -0.1,0 -0.14,0 -0.15,-0.11 v -0.94 c 0,0 0.11,0 0.12,-0.11 z m 0,2.15 h 21.2 c 0.11,0 0.14,0 0.15,0.11 v 0.94 c 0,0 -0.11,0.11 -0.15,0.11 H 15.51 c -0.1,0 -0.14,0 -0.15,-0.11 v -0.94 c 0,0 0.11,-0.11 0.12,-0.11 z m 0,2.15 h 21.2 c 0.11,0 0.14,0 0.15,0.11 v 0.94 c 0,0 -0.11,0.11 -0.15,0.11 H 15.51 c -0.1,0 -0.14,0 -0.15,-0.11 v -0.94 c 0,0 0.11,-0.11 0.12,-0.11 z m 0,2.15 v 0 h 14.84 c 0.1,0 0.1,0 0.1,0.11 v 0.94 l -0.1,0.11 H 15.47 c -0.11,0 -0.11,0 -0.11,-0.11 v -0.94 c 0,0 0,-0.11 0.11,-0.11 z" id="path-main"/>
    </g>
  </defs>
  <g id="acyl-visual">
    <use id="visible1" style="fill:url(#acyl-gradient)" xlink:href="#acyl-drawing"/>
  </g>
</svg>
