<svg xmlns="http://www.w3.org/2000/svg" xmlns:xlink="http://www.w3.org/1999/xlink" width="48" height="48">
  <defs id="acyl-settings">
    <linearGradient id="acyl-gradient" x1="0%" x2="0%" y1="0%" y2="100%">
      <stop offset="100%" style="stop-color:#A0A0A0;stop-opacity:1.000000"/>
    </linearGradient>
    <g id="acyl-filter">
  </g>
    <g id="acyl-drawing">
      <path id="path-main" d="m 8,8 -6,6 0,26 H 40 l 6,-6 V 8 Z m 10.6,5.55 c 1.6,0 3.3,0.28 4.61,1.28 0.99,0.6 1.6,1.7 1.99,2.79 0.71,1.8 0.91,3.69 0.91,5.58 0,1.89 -0.13,3.9 -0.7,5.68 -0.4,1.2 -1.21,2.3 -2.31,3.08 0.81,1.32 1.6,2.51 2.31,3.69 -0.9,0.5 -1.91,0.91 -2.91,1.41 -0.79,-1.41 -1.6,-2.69 -2.39,-4.1 -1.1,0.21 -2.3,0.21 -3.4,0 -1.41,-0.12 -2.7,-0.5 -3.8,-1.38 -0.81,-0.71 -1.3,-1.7 -1.6,-2.7 -0.6,-1.59 -0.7,-3.38 -0.7,-5.07 0,-1.91 0.12,-3.79 0.6,-5.6 0.5,-1.38 1.2,-2.68 2.4,-3.48 1.5,-0.99 3.3,-1.18 4.99,-1.18 z m 11.41,1.08 H 33 v 3.99 h 3.91 c 0,0.9 -0.12,1.7 -0.12,2.59 h -3.8 c 0,2.2 -0.13,4.38 0,6.59 0,0.59 0,1.18 0.2,1.78 0.2,0.4 0.7,0.5 1.2,0.5 0.8,0 1.6,0 2.3,-0.11 0.12,0.79 0.12,1.6 0.21,2.38 -1.6,0.31 -3.3,0.6 -4.81,0.12 -0.69,-0.19 -1.3,-0.6 -1.6,-1.28 -0.4,-1.11 -0.5,-2.3 -0.5,-3.48 v -6.49 h -2.1 v -2.59 h 2.1 z m -11.8,1.6 h -0.9 c -0.81,0.13 -1.6,0.4 -2.1,1.02 -0.6,0.57 -0.91,1.46 -1.2,2.37 -0.5,2.29 -0.4,4.58 0,6.88 0.12,0.8 0.29,1.5 0.6,2.17 0.3,0.52 0.79,1.02 1.29,1.31 0.91,0.41 2.01,0.5 3.01,0.41 1,0 1.99,-0.41 2.7,-1.1 0.6,-0.81 0.89,-1.8 1,-2.69 0.2,-1.7 0.3,-3.29 0.12,-4.89 -0.12,-1.19 -0.3,-2.49 -0.8,-3.59 -0.3,-0.7 -0.89,-1.29 -1.7,-1.59 -0.6,-0.3 -1.3,-0.3 -1.99,-0.3 z"/>
    </g>
  </defs>
  <g id="acyl-visual">
    <use id="visible1" style="fill:url(#acyl-gradient)" xlink:href="#acyl-drawing"/>
  </g>
</svg>
