<svg xmlns="http://www.w3.org/2000/svg" xmlns:xlink="http://www.w3.org/1999/xlink" width="48" height="48">
  <defs id="acyl-settings">
    <linearGradient id="acyl-gradient" x1="0%" x2="0%" y1="0%" y2="100%">
      <stop offset="100%" style="stop-color:#A0A0A0;stop-opacity:1.000000"/>
    </linearGradient>
    <g id="acyl-filter">
  </g>
    <g id="acyl-drawing">
      <path id="path-main" d="M 13 2 L 6 9 L 6 46 L 34 46 L 42 38 L 42 2 L 13 2 z M 24 5.004 A 9.497 9.497 0 0 1 33.5 14.5 A 9.497 9.497 0 0 1 24 24 A 9.497 9.497 0 0 1 14.5 14.5 A 9.497 9.497 0 0 1 24 5.004 z M 24 7.5 A 7 7 0 0 0 17 14.5 A 7 7 0 0 0 24 21.5 A 7 7 0 0 0 31 14.5 A 7 7 0 0 0 24 7.5 z M 24.59 9.5 C 24.83 9.53 25.07 9.541 25.31 9.641 C 25.54 9.701 25.77 9.781 25.99 9.881 L 25.73 11.21 C 26.12 11.41 26.45 11.67 26.74 11.98 L 27.96 11.38 C 28.35 11.81 28.53 12.1 28.68 12.64 L 27.56 13.4 C 27.72 13.8 27.72 14.22 27.72 14.65 L 29 15.09 C 28.98 15.33 28.97 15.57 28.87 15.81 C 28.81 16.04 28.73 16.27 28.63 16.49 L 27.3 16.23 C 27.1 16.62 26.84 16.95 26.53 17.23 L 27.12 18.46 C 26.69 18.85 26.42 19.01 25.87 19.18 L 25.1 18.06 C 24.7 18.22 24.29 18.22 23.86 18.22 L 23.41 19.5 C 23.17 19.48 22.94 19.47 22.7 19.37 C 22.46 19.31 22.23 19.23 22.01 19.13 L 22.27 17.79 C 21.89 17.59 21.55 17.34 21.27 17.03 L 20.05 17.62 C 19.65 17.19 19.5 16.92 19.32 16.37 L 20.45 15.61 C 20.29 15.21 20.29 14.79 20.29 14.36 L 19 13.91 C 19.03 13.68 19.04 13.44 19.14 13.2 C 19.2 12.96 19.28 12.73 19.38 12.51 L 20.71 12.77 C 20.91 12.39 21.17 12.06 21.47 11.77 L 20.88 10.55 C 21.31 10.15 21.58 10 22.14 9.82 L 22.9 10.95 C 23.3 10.79 23.72 10.79 24.15 10.79 L 24.59 9.5 z M 24 12.75 A 1.755 1.755 0 0 0 22.25 14.5 A 1.755 1.755 0 0 0 24 16.26 A 1.755 1.755 0 0 0 25.76 14.5 A 1.755 1.755 0 0 0 24 12.75 z M 20.07 26.75 C 21.24 26.75 22.47 26.96 23.42 27.69 C 24.14 28.12 24.59 28.93 24.87 29.71 C 25.39 31.02 25.54 32.41 25.54 33.78 C 25.54 35.16 25.44 36.62 25.02 37.91 C 24.74 38.77 24.14 39.58 23.34 40.15 C 23.94 41.11 24.51 41.98 25.02 42.84 C 24.37 43.2 23.64 43.5 22.91 43.87 C 22.34 42.84 21.74 41.9 21.17 40.87 C 20.37 41.02 19.5 41.02 18.7 40.87 C 17.67 40.77 16.74 40.52 15.94 39.87 C 15.34 39.35 14.99 38.63 14.77 37.91 C 14.34 36.76 14.27 35.46 14.27 34.21 C 14.27 32.84 14.37 31.46 14.7 30.14 C 15.07 29.14 15.57 28.19 16.44 27.62 C 17.54 26.91 18.84 26.75 20.07 26.75 z M 28.37 27.54 L 30.54 27.54 L 30.54 30.44 L 33.39 30.44 C 33.39 31.09 33.29 31.68 33.29 32.33 L 30.52 32.33 C 30.52 33.93 30.42 35.51 30.52 37.12 C 30.52 37.55 30.52 37.97 30.67 38.42 C 30.81 38.7 31.17 38.77 31.54 38.77 C 32.12 38.77 32.7 38.77 33.21 38.67 C 33.31 39.25 33.31 39.84 33.37 40.41 C 32.2 40.64 30.97 40.84 29.87 40.52 C 29.37 40.37 28.92 40.08 28.7 39.58 C 28.41 38.77 28.34 37.91 28.34 37.06 L 28.34 32.34 L 26.81 32.34 L 26.81 30.45 L 28.34 30.45 L 28.37 27.54 z M 19.14 28.7 C 18.54 28.8 17.97 28.99 17.61 29.45 C 17.17 29.86 16.94 30.51 16.74 31.17 C 16.37 32.83 16.44 34.5 16.74 36.18 C 16.84 36.75 16.94 37.26 17.17 37.75 C 17.39 38.13 17.74 38.5 18.11 38.7 C 18.77 39 19.57 39.07 20.3 39 C 21.02 39 21.74 38.7 22.26 38.2 C 22.7 37.62 22.91 36.9 22.99 36.25 C 23.14 35.02 23.21 33.86 23.09 32.69 C 22.99 31.82 22.87 30.89 22.51 30.09 C 22.29 29.57 21.86 29.14 21.27 28.93 C 20.83 28.71 20.32 28.71 19.82 28.71 L 19.79 28.7 L 19.14 28.7 z"/>
    </g>
  </defs>
  <g id="acyl-visual">
    <use id="visible1" style="fill:url(#acyl-gradient)" xlink:href="#acyl-drawing"/>
  </g>
</svg>
