<svg xmlns="http://www.w3.org/2000/svg" xmlns:xlink="http://www.w3.org/1999/xlink" width="48" height="48">
  <defs id="acyl-settings">
    <linearGradient id="acyl-gradient" x1="0%" x2="0%" y1="0%" y2="100%">
      <stop offset="100%" style="stop-color:#A0A0A0;stop-opacity:1.000000"/>
    </linearGradient>
    <g id="acyl-filter">
  </g>
    <g id="acyl-drawing">
      <path id="path-main" d="m 24.02,1.996 c -5.33,0 -10.65,3.557 -10.65,10.674 v 5.14 h -2.74 c -3.074,0 -4.97,2.11 -4.97,5.14 v 17.83 c 0,3.1 2.047,5.12 5.14,5.14 L 37.2,46 c 3.08,0 5.14,-2.14 5.14,-5.22 V 22.95 c 0,-3.07 -2.07,-5.24 -5.14,-5.14 H 34.63 V 12.67 C 34.64,5.553 29.33,1.996 24.02,1.996 Z m 0,4.328 c 3.62,0 6.17,2.653 6.17,5.996 0,3.51 -1.37,6.86 -6.17,8.57 0.86,-1.37 1.2,-1.88 1.37,-3.25 -4.97,0.51 -7.54,-2.09 -7.54,-5.32 0,-3.219 2.55,-5.996 6.17,-5.996 z m 0,16.456 c 2.55,0 4.63,2.04 4.63,4.63 0,2.58 -2.06,4.11 -2.98,4.33 0,0 4.35,1.32 4.35,5.95 v 1.89 c 0,1.02 -0.69,1.71 -1.71,1.71 h -8.75 c -1.02,0 -1.71,-0.69 -1.71,-1.71 v -1.89 c 0,-4.63 4.52,-5.95 4.52,-5.95 -0.92,-0.22 -2.98,-1.76 -2.98,-4.33 0,-2.57 2.08,-4.63 4.63,-4.63 z"/>
    </g>
  </defs>
  <g id="acyl-visual">
    <use id="visible1" style="fill:url(#acyl-gradient)" xlink:href="#acyl-drawing"/>
  </g>
</svg>
