<svg xmlns="http://www.w3.org/2000/svg" xmlns:xlink="http://www.w3.org/1999/xlink" width="48" height="48">
  <defs id="acyl-settings">
    <linearGradient id="acyl-gradient" x1="0%" x2="0%" y1="0%" y2="100%">
      <stop offset="100%" style="stop-color:#A0A0A0;stop-opacity:1.000000"/>
    </linearGradient>
    <g id="acyl-filter">
  </g>
    <g id="acyl-drawing">
      <path d="M 5.668 3.002 C 3.631 3.002 1.99 4.641 1.99 6.678 L 1.99 35.33 C 1.99 37.37 3.631 39.01 5.668 39.01 L 42.32 39.01 C 44.36 39.01 46 37.37 46 35.33 L 46 6.678 C 46 4.641 44.36 3.002 42.32 3.002 L 5.668 3.002 z M 10.45 9 L 37.54 9 C 38.9 9 39.99 10.09 39.99 11.45 L 39.99 30.56 C 39.99 31.92 38.9 33.01 37.54 33.01 L 10.45 33.01 C 9.09 33.01 8 31.92 8 30.56 L 8 11.45 C 8 10.09 9.09 9 10.45 9 z M 34 14.29 L 27.96 17.52 L 27.86 24.48 L 34 27.8 L 34 14.29 z M 15.58 14.61 C 14.7 14.61 14 15.32 14 16.19 L 14 26.16 C 14 27.03 14.7 27.74 15.58 27.74 L 25.54 27.74 C 26.42 27.74 27.12 27.03 27.12 26.16 L 27.12 16.19 C 27.12 15.32 26.42 14.61 25.54 14.61 L 15.58 14.61 z M 16.1 15.54 C 16.73 15.54 17.24 16.06 17.24 16.71 C 17.24 17.36 16.73 17.87 16.1 17.87 C 15.45 17.87 14.92 17.36 14.92 16.71 C 14.92 16.06 15.45 15.54 16.1 15.54 z M 5.438 40.2 L 5.438 44.81 L 14.66 44.81 L 14.66 40.2 L 5.438 40.2 z M 33.11 40.2 L 33.11 44.81 L 42.33 44.81 L 42.33 40.2 L 33.11 40.2 z" id="path-main"/>
    </g>
  </defs>
  <g id="acyl-visual">
    <use id="visible1" style="fill:url(#acyl-gradient)" xlink:href="#acyl-drawing"/>
  </g>
</svg>
