<svg xmlns="http://www.w3.org/2000/svg" xmlns:xlink="http://www.w3.org/1999/xlink" width="48" height="48">
  <defs id="acyl-settings">
    <linearGradient id="acyl-gradient" x1="0%" x2="0%" y1="0%" y2="100%">
      <stop offset="100%" style="stop-color:#A0A0A0;stop-opacity:1.000000"/>
    </linearGradient>
    <g id="acyl-filter">
  </g>
    <g id="acyl-drawing">
      <path id="path-main" d="M 14.41 4.627 C 7.559 4.627 2.002 10.19 2.002 17.03 C 2.002 20.35 3.299 23.47 5.658 25.81 C 5.768 25.92 5.84 26.15 5.85 26.29 C 5.97 27.33 6.18 29.69 7.85 31.53 C 7.74 31.66 7.679 31.8 7.609 31.94 C 7.339 32.63 7.4 33.39 7.76 34 C 7.5 34.67 7.578 35.42 7.908 36 C 7.508 37 7.79 38.17 8.67 38.71 C 8.78 38.71 9.368 39.15 10.45 39.54 C 10.45 39.7 10.33 41.08 11.36 42.17 C 12.08 42.95 13.12 43.36 14.44 43.37 L 14.55 43.37 C 15.83 43.37 16.82 42.99 17.51 42.23 C 18.48 41.16 18.39 39.79 18.37 39.54 C 19.4 39.17 20.04 38.79 20.14 38.72 C 21 38.17 21.33 37 20.92 36 C 21.25 35.42 21.33 34.68 21.06 34.01 C 21.42 33.42 21.49 32.64 21.21 31.94 C 21.1 31.81 21.09 31.68 21 31.57 C 22.65 29.71 22.95 27.34 22.98 26.3 C 22.98 26.15 23.11 25.89 23.19 25.82 C 25.53 23.46 26.82 20.35 26.82 17.04 C 26.82 10.19 21.27 4.627 14.43 4.627 L 14.41 4.627 z M 33.78 6.164 C 30.76 6.164 28 7.267 25.87 9.086 A 11.19 12.51 0 0 1 26.38 9.793 C 28.36 8.08 30.95 7.037 33.78 7.037 C 40.05 7.037 45.14 12.12 45.14 18.39 C 45.14 24.66 40.05 29.74 33.78 29.74 C 30.45 29.74 27.47 28.31 25.4 26.03 A 11.19 12.51 0 0 1 24.79 26.65 C 27.03 29.08 30.22 30.61 33.78 30.61 C 40.53 30.61 46 25.14 46 18.39 C 46 11.64 40.53 6.164 33.78 6.164 z M 32.25 9.279 C 32.09 9.279 31.74 10.42 31.58 10.42 L 31.74 10.42 L 32.59 10.42 L 33.16 10.42 C 32.85 10.42 32.59 9.279 32.25 9.279 z M 27.31 10.42 C 27.21 10.68 27.17 10.86 27.1 11.02 A 11.19 12.51 0 0 1 27.66 12.23 C 27.84 11.59 28.01 11.56 28.29 11.56 L 28.83 11.56 L 28.94 11.56 L 29.19 11.56 C 29.02 11.56 28.85 12.7 28.68 12.7 L 28.27 12.7 C 28.17 13.11 28.15 13.34 28.08 13.51 A 11.19 12.51 0 0 1 28.61 17.27 A 11.19 12.51 0 0 1 26.56 24.48 C 26.66 24.65 26.73 24.86 26.81 25.23 L 27.48 25.23 L 27.6 25.23 L 28.1 25.23 C 28.1 24.09 27.93 24.09 27.93 24.09 L 28.26 22.95 L 28.42 22.95 L 28.53 22.95 L 29.3 22.95 C 29.3 22.95 29.18 22.95 29.18 24.09 L 29.3 24.09 C 29.41 24.09 29.48 25.23 29.64 25.23 L 29.8 25.23 C 29.97 26.37 29.97 25.23 30.23 25.23 L 30.35 25.23 L 30.84 25.23 L 30.95 25.23 L 31.69 25.23 L 32.36 25.23 C 32.52 25.23 32.71 25.23 32.52 24.09 L 32.3 24.09 C 32.41 24.09 32.42 22.95 32.54 22.95 L 32.4 22.95 C 32.28 21.81 32.18 21.81 32.07 21.81 C 31.9 21.81 31.78 21.81 31.9 20.67 L 32.13 20.67 C 32.35 20.67 32.59 19.53 32.91 19.53 C 33.15 19.53 33.49 20.67 33.74 19.53 L 34.05 19.53 L 34.3 19.53 L 34.42 19.53 L 34.99 19.53 L 35.8 19.53 C 35.97 19.53 36.31 18.39 35.97 18.39 C 35.64 18.39 34.7 17.26 34.27 17.26 C 33.94 17.26 33.69 18.39 33.33 18.39 L 33.22 18.39 L 32.38 18.39 L 32.06 18.39 C 32.23 17.26 32.31 17.26 32.38 17.26 L 32.73 17.26 C 32.98 17.26 33.3 17.26 33.65 16.12 L 34.23 16.12 L 34.35 16.12 C 34.46 16.12 34.6 14.98 34.77 14.98 C 34.88 14.98 34.77 14.98 34.77 13.84 L 34.66 13.84 L 34.47 13.84 C 34.29 13.84 34.1 13.84 33.95 12.7 L 33.8 12.7 L 33.46 12.7 C 33.28 12.7 33.2 12.7 32.96 11.56 L 32.36 11.56 L 32.25 11.56 L 31.67 11.56 L 31 11.56 L 30.88 11.56 L 30.3 11.56 L 30.19 11.56 L 29.67 11.56 L 29.56 11.56 L 29.45 11.56 C 29.65 10.42 29.79 10.42 29.94 10.42 L 29.82 10.42 L 29.24 10.42 L 28.39 10.42 L 27.31 10.42 z M 33.25 10.42 C 33.52 10.42 33.61 10.42 33.77 11.56 L 34.36 11.56 C 34.47 11.56 34.53 10.42 34.36 10.42 L 33.85 10.42 L 33.69 10.42 L 33.25 10.42 z M 35.28 10.42 C 35.02 10.42 35.02 10.42 35.02 11.56 L 35.47 11.56 L 36.05 11.56 C 36.5 11.56 36.29 12.7 36.39 12.7 L 36.9 12.7 C 37.06 13.84 37.32 13.84 37.67 13.84 L 36.31 13.84 L 35.64 13.84 L 35.52 13.84 C 35.35 14.98 35.26 14.98 35.26 14.98 C 35.15 16.12 35.26 16.12 35.26 16.12 C 35.37 16.12 35.44 17.26 35.52 17.26 L 35.87 17.26 L 36.71 17.26 L 37.39 17.26 C 37.72 17.26 37.72 17.26 37.72 18.39 C 37.72 18.39 37.21 18.39 37.04 19.53 L 37.21 19.53 L 37.56 19.53 C 37.72 20.67 38.15 19.53 38.33 20.67 L 38.44 20.67 L 38.78 20.67 L 39.38 20.67 C 39.56 20.67 39.64 20.67 39.8 19.53 L 40.31 19.53 L 41 19.53 L 41.41 19.53 C 41.29 20.67 41.24 20.67 41.29 20.67 C 41.29 20.67 41.41 20.67 41.56 21.81 L 42.05 21.81 L 42.81 21.81 C 43.23 22.95 42.64 22.95 42.55 22.95 L 41.95 22.95 C 41.78 24.09 42.14 24.09 42.31 24.09 C 42.47 24.09 42.81 22.95 42.89 22.95 L 43.23 22.95 L 43.35 21.81 L 43.46 21.81 C 43.57 20.67 43.71 20.67 43.89 20.67 C 44.06 20.67 44.06 20.67 44.01 19.53 L 43.74 19.53 L 43.33 19.53 L 42.65 19.53 L 42.25 19.53 L 41.92 19.53 L 41.81 18.39 L 41.22 18.39 L 40.12 18.39 C 39.95 18.39 39.54 17.26 39.35 17.26 L 39.09 17.26 C 38.98 17.26 39.09 16.12 38.98 16.12 C 38.86 16.12 38.98 16.12 38.73 14.98 L 38.37 14.98 C 38.26 14.98 38.12 13.84 37.95 13.84 L 38.26 13.84 L 39.02 13.84 L 39.54 13.84 C 39.35 13.84 39.09 12.7 38.76 12.7 C 38.6 12.7 38.2 13.84 38.09 12.7 C 38.2 11.56 38.42 11.56 38.09 11.56 L 38.35 11.56 C 38.84 10.42 37.75 10.42 37.59 10.42 L 36.47 10.42 L 35.64 10.42 L 35.28 10.42 z M 42.41 16.12 C 42.24 17.26 42.3 17.26 42.3 17.26 L 42.41 17.26 C 42.52 18.39 42.66 18.39 42.74 18.39 L 43.43 18.39 L 44.1 18.39 C 44.21 18.39 44.21 18.39 44.21 17.26 L 44.1 17.26 C 44.1 17.26 43.98 17.26 43.76 16.12 L 43.25 16.12 L 42.91 16.12 L 42.41 16.12 z M 9.996 17.6 C 10.07 17.6 10.13 17.62 10.19 17.67 C 10.37 17.82 14.7 21.26 19.09 17.67 L 19.12 17.67 C 19.22 17.57 19.38 17.57 19.5 17.67 C 19.57 17.74 19.67 17.88 19.67 18.02 L 17.88 27.48 C 17.85 27.65 17.7 27.76 17.55 27.76 L 17.45 27.76 C 17.28 27.73 17.08 27.55 17.18 27.36 L 18.12 19.44 C 14.59 21.76 12.52 20.19 11.1 19.34 L 11.71 27.38 C 11.73 27.57 11.6 27.77 11.42 27.77 C 11.23 27.8 11.03 27.67 11.03 27.48 L 9.633 18.02 C 9.612 17.89 9.682 17.77 9.797 17.67 C 9.857 17.62 9.926 17.6 9.996 17.6 z M 19 33.07 L 19 33.11 C 18.99 33.11 18.97 33.12 18.96 33.12 C 18.85 33.28 18.76 33.45 18.73 33.63 C 18.61 34.13 18.91 34.48 19.08 34.72 C 19.08 34.83 19.08 34.86 19.19 34.86 L 19.06 34.96 C 18.78 35.13 18.57 35.42 18.52 35.72 C 18.41 36.26 18.75 36.63 18.94 36.84 L 18.94 36.99 C 18.94 36.99 17.38 37.98 14.94 38.16 L 14.37 38.16 L 13.79 38.16 C 11.38 37.98 9.838 37.02 9.828 37.02 C 9.828 37.02 9.718 36.91 9.828 36.8 C 9.978 36.63 10.3 36.26 10.22 35.72 C 10.22 35.42 10.03 35.13 9.748 34.96 L 9.748 34.74 C 9.898 34.56 10.19 34.2 10.1 33.7 C 10.1 33.49 9.949 33.28 9.799 33.14 C 10.62 33.52 12.15 34.08 14.18 34.11 L 14.66 34.11 C 15.49 34.11 16.24 33.99 16.89 33.85 C 17.02 33.85 17.13 33.74 17.23 33.74 C 17.45 33.63 17.66 33.63 17.85 33.57 C 17.99 33.46 18.11 33.46 18.24 33.43 C 18.53 33.32 18.78 33.23 18.96 33.12 C 18.98 33.11 18.99 33.09 19 33.07 z M 12.59 40.1 L 12.64 40.1 C 12.64 40.1 12.64 40.11 12.64 40.11 C 12.97 40.2 13.31 40.21 13.66 40.22 L 14.37 40.22 L 15.08 40.22 C 15.47 40.22 15.83 40.11 16.17 40.1 C 16.17 40.31 16.06 40.61 15.87 40.83 L 15.97 40.83 C 15.7 41.14 15.19 41.28 14.52 41.27 C 13.81 41.27 13.29 41.1 12.98 40.77 C 12.79 40.55 12.7 40.31 12.64 40.11 C 12.63 40.1 12.61 40.11 12.59 40.1 z"/>
    </g>
  </defs>
  <g id="acyl-visual">
    <use id="visible1" style="fill:url(#acyl-gradient)" xlink:href="#acyl-drawing"/>
  </g>
</svg>
