<svg xmlns="http://www.w3.org/2000/svg" xmlns:xlink="http://www.w3.org/1999/xlink" width="48" height="48">
  <defs id="acyl-settings">
    <linearGradient id="acyl-gradient" x1="0%" x2="0%" y1="0%" y2="100%">
      <stop offset="100%" style="stop-color:#A0A0A0;stop-opacity:1.000000"/>
    </linearGradient>
    <g id="acyl-filter">
  </g>
    <g id="acyl-drawing">
      <path d="m 11.93,42.66 c -0.54,-0.55 -0.36,-1.28 0.65,-2.7 1.23,-1.77 1.48,-2.4 1.48,-3.75 l 0,-1.11 1.27,-0.69 c 0.69,-0.38 1.7,-1.02 2.24,-1.43 0.54,-0.39 1.02,-0.73 1.08,-0.73 0.1,0 0.1,1.13 0.1,2.49 0,2.99 0.19,3.7 1.37,5.48 0.49,0.73 0.88,1.48 0.88,1.7 0,0.85 -0.37,0.92 -4.69,0.98 -3.57,0.1 -4.11,0 -4.38,-0.24 z m 19.01,-0.1 c -1.78,-0.18 -3.68,-0.67 -4.45,-1.16 -1.51,-0.92 -0.16,-2.16 3,-2.76 0.98,-0.16 0.94,-0.18 1.17,0.79 0.2,1 2.19,1.56 3.52,1 0.83,-0.34 1.26,-0.81 1.26,-1.35 0,-0.4 0.1,-0.45 0.64,-0.45 1.06,0 3.13,0.73 3.71,1.33 0.45,0.43 0.5,0.6 0.35,0.9 -0.65,1.2 -5.45,2.1 -9.2,1.7 z m 0.95,-3.3 c -0.39,-0.28 -0.41,-0.41 -0.3,-1.31 0.1,-0.86 0.1,-1.01 -0.26,-1.18 -0.22,-0.13 -2.17,-0.21 -5.32,-0.21 -4.04,0 -5.01,-0.1 -5.18,-0.26 -0.13,-0.15 -0.28,-1.26 -0.34,-2.53 l -0.11,-2.25 0.81,-1.05 c 0.43,-0.56 0.88,-1.03 0.97,-1.03 0.11,0 0.11,0.86 0,2.21 -0.1,1.56 -0.1,2.34 0.1,2.63 l 0.23,0.41 10.48,0 c 9.9,0 10.5,-0 10.67,-0.34 0.28,-0.51 0,-15.17 -0.26,-15.41 -0.13,-0.12 -3.49,-0.21 -8.65,-0.24 l -8.42,-0 0,-0.77 c 0,-1.52 -0.82,-1.39 9.34,-1.39 8.57,0 9.09,0 9.51,0.35 l 0.43,0.35 -0.1,9.26 c -0,7.72 -0.1,9.33 -0.32,9.69 -0.26,0.41 -0.3,0.41 -5.25,0.41 -3.07,0 -5.12,0.1 -5.34,0.19 -0.32,0.17 -0.34,0.34 -0.25,1.2 0.12,0.9 0.1,1.03 -0.31,1.31 -0.57,0.4 -1.65,0.4 -2.22,0 z M 9,34.61 c 0,-0 0.358,-0.26 0.797,-0.48 1.273,-0.66 2.633,-1.79 4.493,-3.74 3.98,-4.14 7.38,-10.74 8.32,-16.14 0.3,-1.77 0.3,-5.113 -0,-5.859 -0.28,-0.687 0.28,-0.297 0.77,0.523 1.28,2.196 1.91,5.786 1.58,8.896 C 24.06,25.76 18.77,32.68 12.3,34.31 11,34.65 9,34.82 9,34.61 z M 5.186,33.71 C 3.439,33.24 2.393,31.22 2.402,28.31 2.413,24.88 3.322,21.6 5.437,17.34 8.07,12.06 11.8,7.826 15.27,6.169 c 3.99,-1.905 6.25,-0.548 6.61,3.971 0.49,6.19 -4.16,16.05 -9.82,20.89 -1.77,1.52 -3.017,2.23 -4.47,2.63 -1.241,0.31 -1.391,0.31 -2.404,0.1 z M 16.29,23.34 c 1.18,-1.29 2.43,-3.73 2.16,-4.18 -0.11,-0.17 -0.59,-0.52 -1.08,-0.76 -1.09,-0.55 -2.57,-0.61 -3.45,-0.15 -1.18,0.63 -1.72,2.62 -1.06,3.93 0.41,0.81 1.77,2.19 2.16,2.19 0.18,0 0.75,-0.46 1.27,-1.03 z m 8.01,8.5 c -0.1,-0.34 -0.13,-1.73 -0.19,-3.1 -0.1,-2.34 -0.1,-2.51 0.4,-3.65 0.28,-0.66 0.71,-1.93 0.99,-2.87 l 0.49,-1.69 7.97,0 7.95,0 -0,5.34 c -0,2.95 -0.1,5.63 -0.15,5.97 l -0.11,0.6 -8.61,0 -8.61,0 -0.1,-0.6 z " id="path-main"/>
    </g>
  </defs>
  <g id="acyl-visual">
    <use id="visible1" style="fill:url(#acyl-gradient)" xlink:href="#acyl-drawing"/>
  </g>
</svg>
