<svg xmlns="http://www.w3.org/2000/svg" xmlns:xlink="http://www.w3.org/1999/xlink" width="48" height="48">
  <defs id="acyl-settings">
    <linearGradient id="acyl-gradient" x1="0%" x2="0%" y1="0%" y2="100%">
      <stop offset="100%" style="stop-color:#A0A0A0;stop-opacity:1.000000"/>
    </linearGradient>
    <g id="acyl-filter">
  </g>
    <g id="acyl-drawing">
      <path d="M 20.51,44.1022 C 12.261,43.6412 5.245,41.5752 2.842,38.8982 2.227,38.2132 2,37.6882 2,36.9532 c 0,-0.873 0.305,-1.453 1.212,-2.306 1.128,-1.062 2.749,-1.928 5.138,-2.747 0.991,-0.339 3.843,-1.109 3.893,-1.051 0.01,0.01 0.122,0.228 0.248,0.478 1.692,3.368 4.88,6.183 8.113,7.162 1.595,0.483 3.609,0.62 5.186,0.351 3.775,-0.643 7.277,-3.312 9.386,-7.154 0.245,-0.448 0.458,-0.83 0.473,-0.849 0.05,-0.07 2.664,0.619 3.927,1.035 1.414,0.467 3.191,1.283 4.167,1.914 0.809,0.524 1.698,1.414 2.009,2.014 0.204,0.393 0.246,0.577 0.248,1.113 0,0.833 -0.282,1.446 -1.02,2.183 -3.429,3.429 -13.999,5.592 -24.47,5.006 z m 2.472,-6.165 c -5.175,-0.461 -9.675,-5.004 -11.156,-11.264 -0.383,-1.618 -0.486,-2.744 -0.486,-5.32 0,-1.914 0.03,-2.413 0.131,-2.667 0.647,-1.548 3.617,-3.022 7.388,-3.665 3.144,-0.537 7.295,-0.52 10.352,0.04 3.431,0.631 6.096,1.877 6.988,3.269 l 0.292,0.455 0,2.787 c 0,2.527 -0.02,2.89 -0.201,3.9 -0.936,5.258 -3.768,9.442 -7.722,11.406 -1.734,0.862 -3.67,1.229 -5.583,1.058 z m 3.44,-14.91 c 2.261,-0.204 4.163,-0.61 5.73,-1.222 0.953,-0.373 2.07,-1.064 2.361,-1.461 l 0.179,-0.245 -0.466,-0.418 c -3.167,-2.849 -13.746,-3.41 -19.09,-1.012 -0.738,0.331 -1.688,0.966 -1.908,1.274 l -0.173,0.243 0.47,0.43 c 0.507,0.464 1.825,1.154 2.786,1.46 1.366,0.434 3.201,0.793 4.841,0.946 1.129,0.105 4.133,0.108 5.27,0 z m 10.369,6.8 c -0.306,-0.07 -0.568,-0.141 -0.582,-0.154 -0.01,-0.01 0.128,-0.481 0.316,-1.04 0.28,-0.832 0.37,-1.013 0.497,-0.994 0.09,0.01 0.376,0.06 0.648,0.101 1.023,0.16 2.194,-0.186 2.881,-0.852 1.249,-1.213 1.243,-3.714 -0.01,-4.977 -0.617,-0.621 -1.76,-1.008 -2.61,-0.884 l -0.365,0.05 0,-1.136 0,-1.136 0.964,0.05 c 2.036,0.1 3.594,1.048 4.48,2.735 0.878,1.67 0.871,4.119 -0.02,5.717 -0.678,1.222 -2.084,2.24 -3.5,2.537 -0.76,0.159 -1.979,0.151 -2.699,-0.02 z m -33.249,-14.915 0,-10.98998 8.12,0 c 4.465,0 8.553,-0.03 9.083,-0.06 l 0.964,-0.06 0,4.941 0,4.93998 -0.278,0 c -0.153,0 -0.481,0.03 -0.729,0.06 l -0.45,0.05 0,-4.21698 0,-4.216 -7.648,0.06 c -4.206,0.03 -7.66,0.07 -7.676,0.08 -0.01,0.01 -0.05,3.459 -0.08,7.65798 l -0.05,7.635 2.755,0 2.756,0 0,1.349 c 0,0.743 0.06,1.865 0.133,2.495 0.07,0.63 0.122,1.156 0.108,1.17 -0.01,0.01 -1.598,0.04 -3.519,0.06 l -3.492,0.03 0,-10.99 z m 2.228,-1.767 0,-6.71498 0.398,-0.05 c 0.219,-0.03 3.265,-0.05 6.77,-0.05 l 6.372,0 0,3.79598 0,3.795 -1.012,0.187 c -4.736,0.872 -7.843,2.89 -7.972,5.177 l -0.03,0.584 -2.261,0 -2.262,0 0,-6.715 z m 31.501,5.018 c -0.635,-1.251 -2.261,-2.409 -4.537,-3.229 l -0.758,-0.273 1.822,-0.06 c 1.001,-0.03 3.646,-0.06 5.878,-0.06 l 4.056,0 0,-4.59898 0,-4.598 -3.278,0.06 c -1.802,0.03 -5.928,0.06 -9.169,0.06 l -5.891,0 0,4.07 0,4.07098 -0.686,0 -0.685,0 0,-4.78598 0,-4.786 0.835,-0.06 c 0.46,-0.03 5.164,-0.06 10.455,-0.06 l 9.619,0 0,7.28398 0,7.284 -3.46,0 c -1.903,0 -3.577,0.02 -3.721,0.05 -0.246,0.05 -0.275,0.03 -0.48,-0.378 z m -11.02,-8.1 0,-3.62798 4.049,-0.06 c 2.227,-0.03 5.948,-0.06 8.269,-0.06 l 4.221,0 0,3.63 0,3.62998 -0.527,0.06 c -0.29,0.03 -4.011,0.05 -8.27,0.05 l -7.742,0 0,-3.628 z" id="path-main"/>
    </g>
  </defs>
  <g id="acyl-visual">
    <use id="visible1" style="fill:url(#acyl-gradient)" xlink:href="#acyl-drawing"/>
  </g>
</svg>
