<svg xmlns="http://www.w3.org/2000/svg" xmlns:xlink="http://www.w3.org/1999/xlink" width="48" height="48">
  <defs id="acyl-settings">
    <linearGradient id="acyl-gradient" x1="0%" x2="0%" y1="0%" y2="100%">
      <stop offset="100%" style="stop-color:#A0A0A0;stop-opacity:1.000000"/>
    </linearGradient>
    <g id="acyl-filter">
  </g>
    <g id="acyl-drawing">
      <path id="path-main" d="m 33.43,1.963 c 0,0 -0.91,0.901 -1.99,1.801 -1.6,1.5 -1.97,1.798 -2.07,1.798 0,0.101 -0.44,0.102 -0.86,0.202 l -0.75,0.199 h -0.3 c -1.65,-0.2 -3.29,-0.1 -5.09,0.301 -0.24,0.1 -0.48,0.1 -0.48,0.1 0,0 -0.82,-0.501 -2.56,-1.701 -1.38,-1 -2.78,-1.999 -3.11,-2.199 -0.33,-0.2 -0.6,-0.401 -0.6,-0.401 v 0.1 c 0,0 0.15,2.1 0.35,4.5 0.2,2.5 0.37,4.497 0.37,4.597 0,0 0,0.1 -0.19,0.3 -0.91,1.3 -1.59,2.6 -2.01,3.9 -0.44,1.2 -1.07,4.9 0.86,7.4 0.8,1.2 1.79,2.2 3.06,3.1 0.16,0.1 0.29,0.3 0.29,0.3 0,0 -0.1,0 -0.18,0.1 -0.26,0.1 -0.48,0.2 -0.74,0.3 -0.42,0.3 -0.6,0.4 -1.72,1.3 -0.58,0.5 -0.67,0.6 -1.22,0.9 -0.52,0.3 -0.75,0.5 -0.97,0.8 -0.19,0.2 -0.28,0.3 -0.39,0.5 -0.22,0.4 -0.26,0.9 -0.11,1.5 0.1,0.3 0.24,0.9 0.35,1.2 0.1,0.1 0.1,0.3 0.1,0.3 0,0 -0.69,-0.3 -0.97,-0.5 -0.46,-0.3 -0.91,-0.8 -1.34,-1.3 -0.38,-0.4 -0.71,-0.9 -1.332,-2 -0.74,-1.2 -0.97,-1.6 -1.34,-1.9 -0.57,-0.6 -1.228,-0.7 -1.898,-0.4 -0.79,0.3 -1.32,1.2 -1.49,2.4 -0.1,0.4 -0.1,1.3 0,1.6 0.22,1.4 0.748,2.5 1.648,3.5 1.13,1.3 2.911,2.2 5.022,2.6 l 0.35,0.1 c 0,0 -0.69,0.2 -0.79,0.2 h -0.26 c -0.66,-0.3 -1.352,-0.3 -2.002,-0.1 -0.6,0.3 -0.949,0.6 -1.089,1.2 -0.1,0.3 -0.1,1 0,1.3 0.22,1.2 0.87,2.5 1.75,3.7 1.341,1.7 2.731,2.6 3.871,2.3 0.68,-0.2 1.26,-0.5 1.57,-0.9 0.61,-0.8 0.5,-1.9 -0.29,-3.3 l -0.11,-0.2 c 0,0 0.22,-0.1 0.46,-0.2 1.65,-0.5 3.72,-1.4 5.5,-2.5 0.15,-0.1 0.37,-0.2 0.37,-0.2 l 0.1,-0.1 0.72,0.7 c 0.38,0.4 1.02,1.1 1.42,1.5 0.98,1 2.2,2.2 3.65,3.5 1.01,0.9 1.38,1.3 1.48,1.3 0.11,0 1.07,0.1 1.65,0.2 1.21,0.1 2.36,0.3 3.22,0.3 h 0.46 c 0.1,0.1 0.51,0.1 0.99,0 0.93,0 1.26,0 1.74,-0.1 0.35,-0.1 0.62,-0.2 0.79,-0.4 0.25,-0.3 0.35,-0.6 0.35,-1.3 v -0.7 c -0.15,-0.5 -0.35,-0.9 -0.72,-1.3 -0.69,-0.7 -1.75,-1 -3.31,-1.2 -0.62,-0.1 -2.07,-0.1 -2.56,0 h -0.1 l -0.6,-0.5 c -1.58,-1.5 -1.94,-1.9 -2.73,-2.6 -0.93,-0.9 -1.85,-1.9 -1.85,-2 0,0 0.13,-0.1 0.24,-0.2 0.15,-0.2 0.32,-0.4 0.42,-0.5 0.24,-0.3 0.77,-1 0.93,-1.2 0.1,-0.2 0.17,-0.3 0.17,-0.3 0.1,0 0.58,0.5 1.15,1 0.61,0.7 0.9,0.9 1.32,1.1 0.68,0.4 1.34,0.5 2.13,0.2 0.27,-0.1 0.77,-0.2 1.31,-0.5 1.85,-0.9 3.17,-2 3.59,-3 0.13,-0.2 0.13,-0.4 0.13,-0.7 0,-0.4 0,-0.5 -0.18,-0.8 -0.35,-0.7 -1.15,-1.3 -1.85,-1.4 -0.24,-0.1 -0.64,0 -0.9,0 -0.42,0.2 -0.71,0.3 -1.44,0.9 -0.5,0.3 -0.74,0.5 -0.98,0.5 -0.34,0.2 -0.6,0.2 -0.84,0.1 -0.27,-0.2 -0.49,-0.4 -1.08,-1.2 -0.13,-0.2 -0.36,-0.5 -0.47,-0.6 -0.14,-0.1 -0.24,-0.2 -0.24,-0.3 h 0.44 c 3.6,-0.2 6.66,-1 8.95,-2.3 1.5,-0.8 2.68,-1.9 3.45,-3.2 1.9,-3.1 0.75,-6 -2.29,-7.6 -0.15,-0.1 -0.26,-0.1 -0.26,-0.2 v -0.3 c -0.17,-1.2 -0.54,-2.3 -1.16,-3.5 -0.22,-0.5 -0.38,-0.7 -0.64,-1.1 -0.59,-0.7 -1.56,-1.697 -2.64,-2.597 -0.16,-0.1 -0.33,-0.299 -0.33,-0.299 0,0 -0.27,-1.3 -0.6,-2.9 -0.6,-2.9 -0.6,-3 -0.7,-3 z m -0.35,7.441 c 0.28,-0.02 0.59,0.03 0.91,0.158 0.55,0.201 1.04,0.498 1.57,0.898 1.47,1.4 2.27,3.7 1.78,5.2 -0.22,0.6 -0.59,1 -1.14,1.2 -0.22,0 -0.69,0.1 -0.93,0 -0.57,-0.1 -1.16,-0.4 -1.67,-0.8 -1.12,-1 -1.94,-2.4 -2.12,-3.8 -0.1,-0.3 -0.1,-0.9 0,-1.2 0.15,-0.97 0.76,-1.609 1.6,-1.656 z m -10.3,1.166 c 0.45,0 0.93,0.13 1.41,0.39 0.95,0.4 1.77,1.3 2.29,2.3 0.34,0.8 0.51,1.4 0.51,2.2 0,0.4 0,0.7 -0.17,1.1 -0.12,0.4 -0.33,0.8 -0.67,1.1 -0.33,0.3 -0.72,0.5 -1.18,0.6 h -0.91 c -0.11,-0.1 -0.29,-0.1 -0.42,-0.2 -1.14,-0.3 -2.15,-1.3 -2.77,-2.5 -0.24,-0.5 -0.37,-0.9 -0.47,-1.5 -0.1,-0.3 -0.1,-1 0,-1.3 0.1,-0.5 0.25,-0.9 0.51,-1.3 0.46,-0.56 1.12,-0.89 1.87,-0.89 z m 12.62,3.39 c -0.17,0 -0.3,0 -0.41,0.1 -0.12,0.2 -0.22,0.3 -0.22,0.5 0,0.3 0.17,0.6 0.46,0.7 v 0 c 0.26,0 0.53,-0.1 0.68,-0.4 v -0.5 c -0.11,-0.3 -0.3,-0.4 -0.55,-0.4 z m -11,1 c -0.16,0 -0.27,0 -0.4,0.1 -0.22,0.3 -0.23,0.7 0,1 0.1,0.1 0.19,0.1 0.32,0.2 0.34,0.1 0.67,-0.31 0.67,-0.7 0,-0.3 -0.26,-0.6 -0.59,-0.6 z m 13.17,0.3 c 0,0 0.19,0.2 0.41,0.4 0.18,0.3 0.38,0.5 0.38,0.5 0,0 0.15,0.1 0.29,0.1 0.52,0.2 1.18,0.4 1.6,0.7 0.18,0.1 0.49,0.4 0.69,0.6 0.19,0.1 1.41,1.5 1.3,2.7 0.1,0.9 -0.33,3 -1.96,4.2 -0.76,0.7 -1.86,1.4 -3.15,2 -0.66,0.4 -0.86,0.4 -1.39,0.6 -1.83,0.6 -4.01,1 -6.33,1.1 h -0.1 c -0.52,0.1 -1.72,0.1 -1.82,0 -0.16,0 -0.88,-0.2 -1.3,-0.4 -1.55,-0.6 -2.93,-1.3 -3.97,-2.1 -1.83,-1.3 -2.77,-2.9 -2.77,-4.6 0,-0.6 0.11,-1 0.39,-1.4 0.53,-0.7 1.66,-1.3 3.11,-1.5 h 0.24 l 0.25,0.1 c 1.38,0.4 2.62,-0.1 3.23,-1.2 0,-0.1 0.11,-0.2 0.11,-0.2 0,0 0.16,0 0.33,0.1 1.73,0.59 3.1,1.64 4.61,2.2 0.15,0 0.2,0 0.3,-0.1 0.16,0 0.42,-0.3 0.6,-0.5 0.57,-0.95 0.52,-1.1 0.77,-2.2 0.1,-0.1 0.1,-0.2 0.1,-0.2 l 0.11,0.1 c 0.64,0.5 1.49,0.8 2.13,0.8 0.86,-0.1 1.5,-0.7 1.7,-1.6 z m -12.4,4.64 c -0.44,8.06 7.41,6.07 10.77,2.3 z M 7.033,27.64 h 0.276 c 0.18,0 0.24,0 0.39,0.1 0.27,0.1 0.45,0.3 0.93,1.1 0.33,0.5 0.81,1.3 1.521,2.3 0.49,0.8 0.59,1 0.59,1 0,0 -0.1,-0.1 -0.19,-0.1 h -0.49 c -1.03,-0.1 -1.831,0.2 -2.111,0.8 -0.18,0.3 -0.179,0.4 -0.179,1.1 0,0.5 0,0.5 -0.1,0.6 h 0.04 c -0.07,0.1 -0.14,0 -0.33,-0.1 -0.31,-0.2 -0.619,-0.7 -0.859,-1.1 -0.12,-0.3 -0.522,-1.5 -0.622,-1.8 -0.16,-0.6 -0.16,-0.8 -0.16,-1.4 0,-0.5 0.03,-0.8 0.141,-1.2 0.13,-0.4 0.299,-0.7 0.529,-1 0.18,-0.15 0.372,-0.3 0.625,-0.32 z m 17.157,2.72 c 0.53,0 1.17,0.1 1.83,0.5 0.69,0.4 1.17,0.8 1.34,1.3 0.1,0.3 0.1,0.3 -0.15,0.7 -0.26,0.5 -0.42,0.7 -0.77,1.2 -0.49,0.7 -0.9,1.1 -1.25,1.4 v 0 c -0.12,0.1 -0.23,0.2 -0.23,0.2 -1.32,-1.21 -2.36,-2.59 -2.94,-3.6 0,-0.2 0.12,-0.4 0.38,-0.7 0.7,-0.6 1.15,-0.9 1.78,-1 z"/>
    </g>
  </defs>
  <g id="acyl-visual">
    <use id="visible1" style="fill:url(#acyl-gradient)" xlink:href="#acyl-drawing"/>
  </g>
</svg>
