<svg xmlns="http://www.w3.org/2000/svg" xmlns:xlink="http://www.w3.org/1999/xlink" width="48" height="48">
  <defs id="acyl-settings">
    <linearGradient id="acyl-gradient" x1="0%" x2="0%" y1="0%" y2="100%">
      <stop offset="100%" style="stop-color:#A0A0A0;stop-opacity:1.000000"/>
    </linearGradient>
    <g id="acyl-filter">
  </g>
    <g id="acyl-drawing">
      <path d="M 24 2 A 22 22 0 0 0 2 24 A 22 22 0 0 0 24 46 A 22 22 0 0 0 46 24 A 22 22 0 0 0 24 2 z M 24.3535 9.37109 C 27.4785 9.37109 30.0241 10.2044 31.9902 11.8711 C 33.9564 13.5248 34.9069 15.569 34.8418 18.0039 L 34.8027 18.1211 L 29.2754 18.1211 C 29.2754 16.806 28.8327 15.7448 27.9473 14.9375 C 27.0749 14.1172 25.8445 13.707 24.2559 13.707 C 22.7325 13.707 21.554 14.0455 20.7207 14.7227 C 19.8874 15.3997 19.4707 16.2656 19.4707 17.3203 C 19.4707 18.2838 19.9134 19.0781 20.7988 19.7031 C 21.6973 20.3151 23.2403 20.9661 25.4277 21.6562 C 28.5658 22.5286 30.9421 23.6809 32.5566 25.1133 C 34.1712 26.5455 34.9785 28.4271 34.9785 30.7578 C 34.9785 33.1927 34.015 35.1133 32.0879 36.5195 C 30.1738 37.9258 27.6413 38.6289 24.4902 38.6289 C 21.3913 38.6289 18.6894 37.8346 16.3848 36.2461 C 14.08 34.6446 12.9603 32.405 13.0254 29.5273 L 13.0645 29.4102 L 18.6113 29.4102 C 18.6113 31.1028 19.1256 32.3464 20.1543 33.1406 C 21.196 33.9219 22.6413 34.3125 24.4902 34.3125 C 26.0397 34.3125 27.2246 33.9935 28.0449 33.3555 C 28.8653 32.7174 29.2754 31.8645 29.2754 30.7969 C 29.2754 29.7031 28.8848 28.8242 28.1035 28.1602 C 27.3353 27.4961 25.9811 26.8711 24.041 26.2852 C 20.6556 25.3086 18.097 24.1497 16.3652 22.8086 C 14.6335 21.4675 13.7676 19.6315 13.7676 17.3008 C 13.7676 14.97 14.7572 13.069 16.7363 11.5977 C 18.7285 10.1132 21.2676 9.37109 24.3535 9.37109 z " id="path-main"/>
    </g>
  </defs>
  <g id="acyl-visual">
    <use id="visible1" style="fill:url(#acyl-gradient)" xlink:href="#acyl-drawing"/>
  </g>
</svg>
