<svg xmlns="http://www.w3.org/2000/svg" xmlns:xlink="http://www.w3.org/1999/xlink" width="48" height="48">
  <defs id="acyl-settings">
    <linearGradient id="acyl-gradient" x1="0%" x2="0%" y1="0%" y2="100%">
      <stop offset="100%" style="stop-color:#A0A0A0;stop-opacity:1.000000"/>
    </linearGradient>
    <g id="acyl-filter">
  </g>
    <g id="acyl-drawing">
      <path id="path-main" d="m 17.39,45.95 c -1.92,0 -3.82,-0.41 -5.7,-0.7 -0.77,-0.53 -4.37,-0.88 -3.297,-1.85 1.867,-0.44 3.757,1.02 5.717,0.94 4.33,0.41 8.79,0.4 12.97,-0.95 5.04,-1.61 9.65,-4.76 12.62,-9.19 1.74,-2.52 2.85,-5.53 3.08,-8.58 0.13,-3.2 -0.12,-6.52 -1.69,-9.37 C 39.21,12.02 35.62,8.729 31.61,6.545 29.96,5.654 28.17,4.918 26.34,4.432 22.35,3.143 18.05,3.378 13.91,3.619 c -1.16,0.296 -2.9,0.02 -3.64,0.992 -0.1,3.812 -0.1,7.629 0,11.439 1.81,1.18 3.55,3.08 3.3,5.4 0.12,2.69 -2.07,5.31 -4.728,5.69 -1.511,0.1 -3.204,0.19 -4.375,-0.99 -1.523,-0.9 -2.255,-2.66 -2.488,-4.35 -0.07,-2.3 1.21,-4.61 3.335,-5.6 0.881,-2 0.908,-4.34 1.553,-6.45 0.551,-2.057 0.577,-4.297 1.6,-6.2 1.823,-1.38 4.243,-1.101 6.403,-1.4 3.58,-0.319 7.21,-0.06 10.74,0.6 2.19,0.572 4.43,1.102 6.48,2.109 2.52,1.115 4.92,2.566 6.94,4.455 3.01,2.396 5.01,5.896 6.24,9.456 0.77,2.93 0.99,6.04 0.27,9 -0.27,2.06 -1.25,3.94 -2.26,5.75 -1.53,2.8 -3.89,5.02 -6.4,6.94 -1.42,0.85 -2.75,1.94 -4.36,2.49 -1.52,0.93 -3.31,1.34 -4.97,1.9 -1.86,0.57 -3.82,0.83 -5.78,1 -1.45,0.16 -2.94,0.25 -4.4,0.1 z m -8.503,-22 c 2.203,-0.96 2.063,-4.51 -0.35,-5.07 -1.808,-0.6 -3.794,1.2 -3.338,3.08 0.267,1.71 2.128,2.49 3.688,1.99 z m 9.403,15.2 c -1.31,-0.15 -4.37,0.1 -2.14,-1.62 1.01,-1.67 1.94,-3.43 2.24,-5.36 0.63,-1.96 0.7,-4.09 0.66,-6.15 -0.16,-2.61 -1.02,-5.09 -2.22,-7.4 -0.58,-1.42 -2.4,-2.24 -2.84,-3.54 V 5.55 c 2,0.25 3.49,1.998 4.7,3.5 1.09,1.55 2.15,3.18 2.7,5 0.77,1.56 1.74,3.83 0.56,5.44 -1.24,1.67 1.06,3.11 1.65,4.59 0.63,1.23 3.34,3.55 0.77,4.08 -2.18,0 -1.6,2.43 -1.44,3.6 -1.25,0.97 0.46,2.06 -0.93,3.06 0.28,1.8 0.52,4.5 -2.13,4.26 -0.52,0.1 -1.05,0.13 -1.58,0.1 z m 7.6,-1.3 c -0.33,-2.15 0.81,-4.16 1,-6.3 1.29,-1.47 3.09,-3.55 2.06,-5.79 -0.77,-1.76 -1.99,-3.27 -3.07,-4.85 -0.1,-1.69 0.76,-3.68 -0.1,-5.5 C 25.04,12.6 24.24,10.88 22.55,8.472 21.76,7.555 21.33,6.499 23.73,7.266 39.87,14.89 41.16,32.6 25.92,37.85 Z"/>
    </g>
  </defs>
  <g id="acyl-visual">
    <use id="visible1" style="fill:url(#acyl-gradient)" xlink:href="#acyl-drawing"/>
  </g>
</svg>
