<svg xmlns="http://www.w3.org/2000/svg" xmlns:xlink="http://www.w3.org/1999/xlink" width="48" height="48">
  <defs id="acyl-settings">
    <linearGradient id="acyl-gradient" x1="0%" x2="0%" y1="0%" y2="100%">
      <stop offset="100%" style="stop-color:#A0A0A0;stop-opacity:1.000000"/>
    </linearGradient>
    <g id="acyl-filter">
  </g>
    <g id="acyl-drawing">
      <path d="M 24,2 A 22,22 0 0 0 2,24 22,22 0 0 0 24,46 22,22 0 0 0 46,24 22,22 0 0 0 24,2 Z m 9.8094,13.234 c 0.7398,-0.03 1.3002,0.642 1.0001,1.846 l -3.6091,17.006 c -0.2519,1.209 -0.9819,1.498 -1.9937,0.939 l -5.4978,-4.061 -2.6422,2.569 c -0.4455,0.433 -0.9933,0.768 -1.4903,0.315 -0.1536,-0.199 -0.2969,-0.467 -0.4086,-0.743 L 16.8733,26.861 11.822,25.284 c -1.1745,-0.359 -1.183,-1.167 0.2635,-1.747 7.2115,-2.781 14.5087,-5.707 21.7239,-8.303 z m -3.3608,3.614 c -0.1593,0 -0.3755,0.05 -0.5984,0.191 l -12.2346,7.718 c 0.7039,1.916 1.5287,4.284 2.4087,6.46 l 0.3169,-4.743 10.2012,-9.205 c 0.2798,-0.248 0.1718,-0.417 -0.094,-0.421 z" id="path-main"/>
    </g>
  </defs>
  <g id="acyl-visual">
    <use id="visible1" style="fill:url(#acyl-gradient)" xlink:href="#acyl-drawing"/>
  </g>
</svg>
