<svg xmlns="http://www.w3.org/2000/svg" xmlns:xlink="http://www.w3.org/1999/xlink" width="48" height="48">
  <defs id="acyl-settings">
    <linearGradient id="acyl-gradient" x1="0%" x2="0%" y1="0%" y2="100%">
      <stop offset="100%" style="stop-color:#A0A0A0;stop-opacity:1.000000"/>
    </linearGradient>
    <g id="acyl-filter">
  </g>
    <g id="acyl-drawing">
      <path d="m 24.0011,2.0015 c -12.132,0 -22.00105,9.869 -22.00105,21.999 0,12.13 9.86905,21.998 22.00105,21.998 C 36.1309,45.9985 46,36.1305 46,24.0005 46,11.8705 36.1308,2.0015 24.0011,2.0015 Z m 9.2052,36.541 0,-25.053 -5.2492,0 0,8.501 -11.848,-8.384 c -0.449,-0.274 -0.979,0.05 -0.988,0.51 l 0,19.652 c 0.04,0.521 0.598,0.76 0.988,0.513 l 11.848,-8.384 0,14.857 c -1.272,0.302 -2.594,0.471 -3.956,0.471 -9.5,0 -17.22605,-7.728 -17.22605,-17.225 0,-9.497 7.72505,-17.223 17.22605,-17.223 9.4975,0 17.2259,7.725 17.2259,17.223 0,6.115 -3.2068,11.484 -8.0208,14.542 z" id="path-main"/>
    </g>
  </defs>
  <g id="acyl-visual">
    <use id="visible1" style="fill:url(#acyl-gradient)" xlink:href="#acyl-drawing"/>
  </g>
</svg>
