<svg xmlns="http://www.w3.org/2000/svg" xmlns:xlink="http://www.w3.org/1999/xlink" width="48" height="48">
  <defs id="acyl-settings">
    <linearGradient id="acyl-gradient" x1="0%" x2="0%" y1="0%" y2="100%">
      <stop offset="100%" style="stop-color:#A0A0A0;stop-opacity:1.000000"/>
    </linearGradient>
    <g id="acyl-filter">
  </g>
    <g id="acyl-drawing">
      <path id="path-main" d="M 22.159477,2 C 11.435739,2.8846059 2.8887391,11.43609 2,22.159477 l 6.4705882,0 C 9.3080788,14.986234 14.986234,9.308079 22.159477,8.470588 l 0,-6.470588 z m 3.681046,0 0,6.470588 c 7.173242,0.837491 12.851398,6.515646 13.688889,13.688889 l 6.470588,0 C 45.111261,11.43609 36.564262,2.884606 25.840523,2 z m -7.362092,12.797386 0,17.484967 15.644445,-8.224837 -15.644445,-9.26013 z M 2,25.840523 C 2.8887392,36.563911 11.435739,45.115394 22.159477,46 l 0,-6.470588 C 14.986233,38.691921 9.3080787,33.013766 8.4705882,25.840523 L 2,25.840523 z m 37.529412,0 C 38.69192,33.013767 33.013766,38.691921 25.840523,39.529412 l 0,6.470588 C 36.564261,45.115394 45.111261,36.56391 46,25.840523 l -6.470588,0 z"/>
    </g>
  </defs>
  <g id="acyl-visual">
    <use id="visible1" style="fill:url(#acyl-gradient)" xlink:href="#acyl-drawing"/>
  </g>
</svg>
