<svg xmlns="http://www.w3.org/2000/svg" xmlns:xlink="http://www.w3.org/1999/xlink" width="48" height="48">
  <defs id="acyl-settings">
    <linearGradient id="acyl-gradient" x1="0%" x2="0%" y1="0%" y2="100%">
      <stop offset="100%" style="stop-color:#A0A0A0;stop-opacity:1.000000"/>
    </linearGradient>
    <g id="acyl-filter">
  </g>
    <g id="acyl-drawing">
      <path id="path-main" d="m 2,9.2867537 0,6.1588153 10.51144,0 0,25.434724 8.142665,0 -0.02961,-6.129206 -3.020188,0 0,-3.049798 3.020188,0 0.02961,-2.339165 -2.931359,0 0,-3.049798 2.931359,0 0,-6.514132 -1.95424,0 0,-3.049798 1.95424,0 0,-1.302827 10.48183,0 0,-1.983849 -2.783311,0 0,-3.049798 2.783311,0 0,-1.1251683 -29.135935,0 z m 35.679677,0.8882903 0,3.020189 3.049798,0 0,-3.020189 -3.049798,0 z m -22.592194,1.776582 3.049798,0 0,3.049798 -3.049798,0 0,-3.049798 z m 10.393002,5.152086 0,3.049798 3.049798,0 0,-3.049798 -3.049798,0 z m 5.981157,0.236878 0,3.049798 3.049798,0 0,-3.049798 -3.049798,0 z m 8.379542,2.161507 0,3.049798 3.049799,0 0,-3.049798 -3.049799,0 z m -18.535666,0.355316 0,3.049798 3.049798,0 0,-3.049798 -3.049798,0 z m 4.885599,0.829072 0,3.049798 3.049798,0 0,-3.049798 -3.049798,0 z m -12.080754,0.473755 3.049799,0 0,3.049798 -3.049799,0 0,-3.049798 z m 16.522208,0.858681 0,3.020188 3.049798,0 0,-3.020188 -3.049798,0 z m -4.79677,4.056527 0,3.049798 3.049798,0 0,-3.049798 -3.049798,0 z m -4.76716,0.355316 0,3.049799 3.049798,0 0,-3.049799 -3.049798,0 z m 14.242261,0.473756 0,3.049798 3.020188,0 0,-3.049798 -3.020188,0 z m -3.790041,4.174966 0,3.020188 3.049798,0 0,-3.020188 -3.049798,0 z m -8.794078,0.97712 0,3.049798 3.049798,0 0,-3.049798 -3.049798,0 z m 20.223419,5.152086 0,3.049798 3.049798,0 0,-3.049798 -3.049798,0 z m -16.492598,0.118439 0,3.049798 3.020189,0 0,-3.049798 -3.020189,0 z m -4.79677,0.829071 0,3.049798 3.049799,0 0,-3.049798 -3.049799,0 z"/>
    </g>
  </defs>
  <g id="acyl-visual">
    <use id="visible1" style="fill:url(#acyl-gradient)" xlink:href="#acyl-drawing"/>
  </g>
</svg>
