<svg xmlns="http://www.w3.org/2000/svg" xmlns:xlink="http://www.w3.org/1999/xlink" width="48" height="48">
  <defs id="acyl-settings">
    <linearGradient id="acyl-gradient" x1="0%" x2="0%" y1="0%" y2="100%">
      <stop offset="100%" style="stop-color:#A0A0A0;stop-opacity:1.000000"/>
    </linearGradient>
    <g id="acyl-filter">
  </g>
    <g id="acyl-drawing">
      <path d="m 7.2727273,2 0,44 32.8866047,0 0,-44 -32.8866047,0 z m 8.6185567,3.402063 4.536084,0 0,4.536083 -4.536084,0 0,-4.536083 z m 5.443303,0 4.536083,0 0,4.536083 -4.536083,0 0,-4.536083 z m 5.443302,0 4.536084,0 0,4.536083 -4.536084,0 0,-4.536083 z m -16.329901,5.443302 4.536083,0 0,4.536083 -4.536083,0 0,-4.536083 z m 21.773198,0 4.536083,0 0,4.536083 -4.536083,0 0,-4.536083 z m -16.329902,5.443297 4.536084,0 0,4.536083 -4.536084,0 0,-4.536083 z m 5.443303,0 4.536083,0 0,4.536083 -4.536083,0 0,-4.536083 z m 5.443302,0 4.536084,0 0,4.536083 -4.536084,0 0,-4.536083 z m -5.443302,5.443302 4.536083,0 0,4.536083 -4.536083,0 0,-4.536083 z m 0,5.443302 4.536083,0 0,4.536084 -4.536083,0 0,-4.536084 z m 0,5.443297 4.536083,0 0,4.536078 -4.536083,0 0,-4.536078 z m -5.443303,5.443291 4.536084,0 0,4.536083 -4.536084,0 0,-4.536083 z m 5.443303,0 4.536083,0 0,4.536083 -4.536083,0 0,-4.536083 z" id="path-main"/>
    </g>
  </defs>
  <g id="acyl-visual">
    <use id="visible1" style="fill:url(#acyl-gradient)" xlink:href="#acyl-drawing"/>
  </g>
</svg>
