<svg xmlns="http://www.w3.org/2000/svg" xmlns:xlink="http://www.w3.org/1999/xlink" width="48" height="48">
  <defs id="acyl-settings">
    <linearGradient id="acyl-gradient" x1="0%" x2="0%" y1="0%" y2="100%">
      <stop offset="100%" style="stop-color:#A0A0A0;stop-opacity:1.000000"/>
    </linearGradient>
    <g id="acyl-filter">
  </g>
    <g id="acyl-drawing">
      <path d="M 4.09524,4.61908 5.14286,7.01519 2,8.80955 2,32.9047 l 0,10.4762 44,0 0,-10.4762 0,-24.09515 -3.1429,-1.79436 1.0477,-2.39611 -19.9048,0 -19.90475,0 z m 2.61904,2.09523 17.28572,0 17.2857,0 -0.5238,0.72024 2.0952,1.375 -37.71425,0 2.09523,-1.375 -0.52381,-0.72024 z m 15.28662,10.51289 3.992,0 c 0.6066,1.3001 1.2057,2.637 1.7944,4.0104 0.5899,1.3546 1.1781,2.7922 1.7679,4.3092 0.2653,0.6636 0.5395,1.4184 0.8082,2.1198 l 0.9699,0 c 1.1608,0 2.0953,0.9345 2.0953,2.0953 0,0.9665 -0.6518,1.7674 -1.5387,2.0114 0.4848,1.3516 0.9701,2.7051 1.4957,4.2313 l -4.4728,0 C 28.7159,35.354 28.493,34.6877 28.2437,34.0015 28.0111,33.3152 27.7785,32.6282 27.546,31.941 l -7.2331,0 c -0.2315,0.6872 -0.472,1.3742 -0.7223,2.0605 -0.2326,0.6862 -0.4456,1.3525 -0.6425,2.0031 l -4.3398,0 c 0.5258,-1.5269 1.0108,-2.8812 1.4957,-4.2334 -0.8841,-0.2459 -1.5326,-1.0449 -1.5326,-2.0094 0,-1.1608 0.9345,-2.0953 2.0953,-2.0953 l 0.9494,0 c 0.2643,-0.7013 0.5381,-1.4562 0.7959,-2.1197 0.6066,-1.517 1.1969,-2.9546 1.7679,-4.3092 0.5898,-1.3734 1.1966,-2.7103 1.821,-4.0104 z m 1.9029,4.254 c -0.094,0.271 -0.225,0.6406 -0.4031,1.111 -0.1791,0.4693 -0.3842,1.0107 -0.6159,1.6246 -0.2324,0.6151 -0.4914,1.2932 -0.7774,2.0339 -0.1624,0.4499 -0.3341,0.939 -0.5034,1.4159 l 4.6263,0 c -0.1694,-0.477 -0.3425,-0.9659 -0.5054,-1.4159 -0.2671,-0.7407 -0.5261,-1.4188 -0.7754,-2.0339 -0.2326,-0.6139 -0.4399,-1.1553 -0.618,-1.6246 -0.1792,-0.4704 -0.3208,-0.84 -0.4277,-1.111 z m -7.2371,7.2329 c -0.5919,0 -1.0477,0.4557 -1.0477,1.0477 0,0.5919 0.4558,1.0477 1.0477,1.0477 l 9.4285,0 c 0.5919,0 1.0477,-0.4558 1.0477,-1.0476 0,-0.5921 -0.4558,-1.0477 -1.0477,-1.0477 l -9.4285,0 z" id="path-main"/>
    </g>
  </defs>
  <g id="acyl-visual">
    <use id="visible1" style="fill:url(#acyl-gradient)" xlink:href="#acyl-drawing"/>
  </g>
</svg>
