<svg xmlns="http://www.w3.org/2000/svg" xmlns:xlink="http://www.w3.org/1999/xlink" width="48" height="48">
  <defs id="acyl-settings">
    <linearGradient id="acyl-gradient" x1="0%" x2="0%" y1="0%" y2="100%">
      <stop offset="100%" style="stop-color:#A0A0A0;stop-opacity:1.000000"/>
    </linearGradient>
    <g id="acyl-filter">
  </g>
    <g id="acyl-drawing">
      <path d="M 5.142857,2.000001 C 3.401714,2.000001 2,3.401715 2,5.142858 v 37.714284 c 0,1.741143 1.401714,3.142857 3.142857,3.142857 H 42.857143 C 44.598286,45.999999 46,44.598285 46,42.857142 V 5.142858 C 46,3.401715 44.598286,2.000001 42.857143,2.000001 Z m 36.626768,6.796224 v 4.481027 4.480004 h -4.714287 -4.714285 v -3.142857 -3.142857 h -4.714286 -4.714286 v 6.547619 6.547619 h -2.362258 -2.363281 l 4.517857,5.892857 c 2.485063,3.241071 4.703757,5.892857 4.930153,5.892857 0.463236,0 8.874627,-10.781425 8.888392,-11.392857 0.0049,-0.216072 -0.934672,-0.392857 -2.087053,-0.392857 -2.095238,0 -2.095238,0 -2.095238,-2.095238 v -2.095238 h 4.754185 4.754184 l -0.170851,7.29241 c -0.162323,6.941388 -0.233943,7.360552 -1.480374,8.692988 -2.467668,2.637936 -3.500934,2.873743 -12.413878,2.837983 -4.551805,-0.01828 -8.748028,-0.22532 -9.324219,-0.46038 -1.211152,-0.494104 -3.928571,-3.10037 -3.928571,-3.767949 0,-0.24881 -1.372429,-0.452195 -3.050781,-0.452195 -2.512481,0 -3.252747,-0.214167 -4.190476,-1.212333 C 6.239788,32.188641 6.150578,31.558147 6.150578,25.18778 v -6.906715 h 2.619046 2.619048 v 5.5 5.5 h 1.309524 1.309523 l 0.01842,-7.72619 c 0.02001,-8.327215 0.232592,-9.164396 2.848214,-11.217913 1.509666,-1.185229 1.913581,-1.227181 13.22619,-1.381139 z" id="path-main"/>
    </g>
  </defs>
  <g id="acyl-visual">
    <use id="visible1" style="fill:url(#acyl-gradient)" xlink:href="#acyl-drawing"/>
  </g>
</svg>
