<svg xmlns="http://www.w3.org/2000/svg" xmlns:xlink="http://www.w3.org/1999/xlink" width="48" height="48">
  <defs id="acyl-settings">
    <linearGradient id="acyl-gradient" x1="0%" x2="0%" y1="0%" y2="100%">
      <stop offset="100%" style="stop-color:#A0A0A0;stop-opacity:1.000000"/>
    </linearGradient>
    <g id="acyl-filter">
  </g>
    <g id="acyl-drawing">
      <path id="path-main" d="m 19.74,2 c -0.93,0.01 -1.7,0.676 -1.7,1.484 V 38.29 c 0,0.41 0.18,0.78 0.5,1.05 0.3,0.27 0.72,0.43 1.2,0.43 h 0.1 v 5.72 c 0,0.28 0.23,0.51 0.51,0.51 h 7.33 c 0.28,0 0.5,-0.23 0.5,-0.51 v -5.72 h 0.1 c 0.95,0 1.71,-0.67 1.71,-1.48 V 3.498 C 29.97,3.071 29.76,2.702 29.46,2.441 29.13,2.18 28.72,2.014 28.26,2.014 Z m -4.14,8.38 c -0.29,0 -0.56,0.17 -0.7,0.43 L 3.831,32.27 c -0.06,0.13 -0.09,0.27 -0.08,0.41 0.02,0.45 0.38,0.8 0.828,0.81 H 15.65 c 0.46,0 0.84,-0.39 0.83,-0.85 V 11.21 c 0,-0.48 -0.4,-0.85 -0.88,-0.83 z m 16.71,0 c -0.44,0 -0.79,0.39 -0.79,0.83 v 21.43 c 0,0.46 0.37,0.84 0.83,0.85 h 11.07 c 0.45,0 0.81,-0.36 0.83,-0.81 0,-0.14 0,-0.28 -0.1,-0.41 L 33.1,10.81 C 32.94,10.53 32.63,10.36 32.31,10.38 Z M 20.84,39.77 h 6.32 v 5.22 h -6.32 z m 1.09,2.66 c -0.18,0 -0.33,0.15 -0.33,0.34 v 0.6 c 0,0.18 0.15,0.34 0.33,0.34 h 1.13 c 0.18,0 0.33,-0.16 0.33,-0.34 v -0.6 c 0,-0.19 -0.15,-0.34 -0.33,-0.34 z m 3.01,0 c -0.19,0 -0.34,0.15 -0.34,0.34 v 0.6 c 0,0.18 0.15,0.34 0.34,0.34 h 1.12 c 0.19,0 0.34,-0.16 0.34,-0.34 v -0.6 c 0,-0.19 -0.15,-0.34 -0.34,-0.34 z"/>
    </g>
  </defs>
  <g id="acyl-visual">
    <use id="visible1" style="fill:url(#acyl-gradient)" xlink:href="#acyl-drawing"/>
  </g>
</svg>
