<svg xmlns="http://www.w3.org/2000/svg" xmlns:xlink="http://www.w3.org/1999/xlink" width="48" height="48">
  <defs id="acyl-settings">
    <linearGradient id="acyl-gradient" x1="0%" x2="0%" y1="0%" y2="100%">
      <stop offset="100%" style="stop-color:#A0A0A0;stop-opacity:1.000000"/>
    </linearGradient>
    <g id="acyl-filter">
  </g>
    <g id="acyl-drawing">
      <path id="path-main" d="M 8,2.169 C 7.352,2.175 6.752,2.219 6.208,2.282 5.109,2.407 4.034,2.658 3.168,2.906 2.314,3.143 2.031,3.74 2.031,4.251 2.174,11.29 2.16,23.04 2.211,24.29 c 0.13,1.27 0.492,1.78 0.867,1.92 0.492,0.2 0.815,-0.13 1.242,-0.19 0.672,-0.29 4.7,-1.76 10.54,0.62 1.28,0.51 2.42,0.94 3.53,1.33 a 15.6,15.6 0 0 1 0.98,-2.16 C 18.66,25.57 17.92,25.3 17.13,25 l -0.11,-7.75 c 2.34,0.87 4.45,1.56 6.24,1.86 1.26,0.21 2.44,0.2 3.54,0 a 15.6,15.6 0 0 1 3.37,-1.03 V 17.29 17.16 16.75 L 30.03,6.232 C 30.03,5.809 29.78,5.423 29.38,5.224 29,5.023 28.53,5.05 28.15,5.349 26.65,6.321 25,6.306 23.26,6.144 21.14,5.845 18.44,4.961 15.07,3.59 13.28,2.868 11.6,2.457 10.11,2.282 9.36,2.194 8.65,2.163 8,2.169 Z m 0,2.336 c 0.55,0 1.14,0.03 1.78,0.107 v -0.02 c 1.27,0.149 2.73,0.485 4.32,1.133 0.13,0.124 0.17,0.126 0.28,0.126 l 0.18,8.019 C 10.06,12.34 6.492,12.91 4.552,13.45 L 4.425,5.11 C 4.864,4.948 5.524,4.761 6.533,4.612 6.979,4.549 7.477,4.51 8.02,4.505 Z m 8.85,2.213 c 2.21,0.809 4.27,1.46 6.06,1.708 1.72,0.237 3.3,0.162 4.71,-0.287 l 0.13,8.191 c -1.13,0.55 -2.33,0.77 -4.09,0.49 -1.73,-0.27 -4.02,-1.04 -6.7,-2.09 z M 8.48,15.11 c 1.67,0 3.72,0.28 6.09,1.24 l 0.13,7.8 C 10.23,22.63 6.648,23.08 4.682,23.56 L 4.552,15.8 c 0.452,-0.17 1.165,-0.44 2.381,-0.6 h 0.05 c 0.46,0 0.967,-0.1 1.517,-0.1 z m 22.39,5.09 c -0.12,0 -0.25,0 -0.39,0 h -0.1 c -0.17,0 -0.34,0.13 -0.56,0.13 -2.99,0.75 -0.48,2.52 -1.34,4.35 -0.84,0.44 -1.61,1.01 -2.3,1.64 -1.93,0.19 -2.86,-2.55 -4.4,0 -1.46,2.49 1.05,2.18 1.95,3.73 -0.33,0.96 -0.48,1.95 -0.47,3.02 v 0.24 c -1.29,1.18 -3.6,0.21 -2.87,2.97 0.72,2.81 2.3,0.72 4.03,1.21 0.51,0.9 1.17,1.69 1.96,2.4 0.19,1.93 -2.54,2.88 0.12,4.42 2.72,1.59 2.06,-1.59 4.12,-2.18 0.78,0.19 1.58,0.33 2.41,0.34 1.9,1.12 0.37,4.02 3.43,3.23 2.99,-0.78 0.48,-2.51 1.36,-4.35 0.79,-0.38 1.51,-0.92 2.17,-1.56 1.93,-0.18 2.91,2.52 4.44,-0.1 1.47,-2.49 -1.1,-2.15 -1.97,-3.69 0.32,-0.96 0.52,-2.01 0.51,-3.07 v -0.21 c 1.28,-1.16 3.59,-0.18 2.86,-2.96 -0.73,-2.83 -2.35,-0.72 -4.08,-1.24 -0.52,-0.91 -1.17,-1.7 -1.93,-2.39 -0.2,-1.92 2.54,-2.89 0,-4.42 -2.72,-1.6 -2.08,1.57 -4.17,2.15 -0.76,-0.2 -1.54,-0.27 -2.37,-0.28 -1.65,-0.99 -0.71,-3.36 -2.45,-3.43 z m 2.26,9.15 c 2.14,0 3.87,1.63 3.88,3.7 0,2.06 -1.67,3.75 -3.82,3.78 -2.14,0 -3.9,-1.65 -3.92,-3.73 0,-2.04 1.71,-3.74 3.86,-3.75 z"/>
    </g>
  </defs>
  <g id="acyl-visual">
    <use id="visible1" style="fill:url(#acyl-gradient)" xlink:href="#acyl-drawing"/>
  </g>
</svg>
