<svg xmlns="http://www.w3.org/2000/svg" xmlns:xlink="http://www.w3.org/1999/xlink" width="48" height="48">
  <defs id="acyl-settings">
    <linearGradient id="acyl-gradient" x1="0%" x2="0%" y1="0%" y2="100%">
      <stop offset="100%" style="stop-color:#A0A0A0;stop-opacity:1.000000"/>
    </linearGradient>
    <g id="acyl-filter">
  </g>
    <g id="acyl-drawing">
      <path id="path-main" d="M 16.97 2 L 16.97 12.77 L 28.85 12.77 L 28.85 2 L 16.97 2 z M 18.57 6.639 L 21.17 6.641 L 21.17 9.238 L 18.57 9.238 L 18.57 6.639 z M 24.65 6.641 L 27.25 6.641 L 27.25 9.236 L 24.65 9.238 L 24.65 6.641 z M 16.97 13.88 C 15.34 13.88 14 15.22 14 16.85 L 14 40.61 C 14 42.25 15.26 44 16.81 44.52 L 20.09 45.61 C 21.65 46.13 24.18 46.13 25.73 45.61 L 29.01 44.53 C 29.65 44.31 30.22 43.85 30.7 43.3 C 24.72 42.72 20 37.73 20 31.6 C 20 25.08 25.3 19.78 31.82 19.78 L 31.82 16.86 C 31.82 15.22 30.49 13.88 28.85 13.88 L 16.97 13.88 z M 31.92 21.44 C 26.33 21.44 21.8 25.97 21.8 31.56 C 21.8 37.15 26.33 41.69 31.92 41.69 C 37.51 41.69 42.04 37.15 42.04 31.56 C 42.04 25.97 37.51 21.44 31.92 21.44 z M 31.96 22.74 A 8.8 8.8 0 0 1 40.76 31.54 A 8.8 8.8 0 0 1 31.96 40.34 A 8.8 8.8 0 0 1 23.16 31.54 A 8.8 8.8 0 0 1 27.87 23.76 C 27.89 23.74 27.91 23.73 27.94 23.72 A 8.8 8.8 0 0 1 31.96 22.74 z M 37.07 26.46 L 31.21 27.28 L 31.21 31.36 L 37.07 31.36 L 37.07 26.46 z M 30.68 27.36 L 26.26 27.93 L 26.26 31.42 L 30.68 31.42 L 30.68 27.36 z M 26.26 31.85 L 26.26 35.36 L 30.68 35.94 L 30.68 31.89 L 26.26 31.85 z M 31.21 31.91 L 31.21 36.01 L 37.07 36.8 L 37.07 31.93 L 31.21 31.91 z"/>
    </g>
  </defs>
  <g id="acyl-visual">
    <use id="visible1" style="fill:url(#acyl-gradient)" xlink:href="#acyl-drawing"/>
  </g>
</svg>
