<svg xmlns="http://www.w3.org/2000/svg" xmlns:xlink="http://www.w3.org/1999/xlink" width="48" height="48">
  <defs id="acyl-settings">
    <linearGradient id="acyl-gradient" x1="0%" x2="0%" y1="0%" y2="100%">
      <stop offset="100%" style="stop-color:#A0A0A0;stop-opacity:1.000000"/>
    </linearGradient>
    <g id="acyl-filter">
  </g>
    <g id="acyl-drawing">
      <path d="M 4.357143,6.040098 C 3.05383,6.040098 2,7.080145 2,8.383456 L 2,40.14285 C 2,41.44617 3.05383,42.5 4.357143,42.5 l 39.285714,0 C 44.94617,42.5 46,41.44617 46,40.14285 L 46,8.383456 C 46,7.080145 44.94617,6.040098 43.642857,6.040098 z m 21.214286,2.577694 15.948621,0 c 0.74688,0 1.350877,0.603996 1.350877,1.350877 l 0,12.723058 -17.299498,0 z m -20.442356,17.230577 17.285714,0 0,14.060151 -15.948622,0 c -0.746879,0 -1.337092,-0.59021 -1.337092,-1.33709 z m 20.442356,0 17.299498,0 0,12.723061 c 0,0.74688 -0.603997,1.33709 -1.350877,1.33709 l -15.948621,0 z" id="path-main"/>
    </g>
  </defs>
  <g id="acyl-visual">
    <use id="visible1" style="fill:url(#acyl-gradient)" xlink:href="#acyl-drawing"/>
  </g>
</svg>
