<svg xmlns="http://www.w3.org/2000/svg" xmlns:xlink="http://www.w3.org/1999/xlink" width="48" height="48">
  <defs id="acyl-settings">
    <linearGradient id="acyl-gradient" x1="0%" x2="0%" y1="0%" y2="100%">
      <stop offset="100%" style="stop-color:#A0A0A0;stop-opacity:1.000000"/>
    </linearGradient>
    <g id="acyl-filter">
  </g>
    <g id="acyl-drawing">
      <path d="M 5.54913,41.2906 C 3.77419,41.2906 2,39.5164 2,37.7422 L 2,16.3228 c 0,-1.7742 1.77419,-3.5484 3.54839,-3.5484 7.84401,-0.016 22.65321,0 23.41931,0 1.7742,-2.1269 3.5484,-5.67526 4.2581,-8.06864 0.7097,2.39338 2.4839,5.94174 4.2581,8.07234 l 4.9677,0 c 1.7742,0 3.5484,1.7742 3.5484,3.5484 l 0,21.4193 c 0,1.7742 -1.7742,3.5484 -3.5484,3.5484 l -36.90396,0 z m 6.65597,-8.7905 c 1.4372,-0.3563 2.4069,-0.6789 3.4071,-1.1333 2.1778,-0.9894 3.8366,-2.0153 4.3528,-2.692 0.8362,-1.0963 -0.1647,-2.5335 -2.3043,-3.3086 -0.8478,-0.3072 -3.0679,-0.8104 -3.5846,-0.8127 -0.1752,0 -0.3651,-0.031 -0.4219,-0.067 -0.057,-0.036 -0.1286,-0.3649 -0.1593,-0.7306 -0.1216,-1.4465 -0.3211,-2.213 -0.6546,-2.5148 -0.2596,-0.2349 -0.8125,-0.2851 -1.16,-0.1054 -0.6366,0.3292 -0.6869,1.1032 -0.2093,3.2196 0.035,0.1527 0.01,0.1996 -0.1235,0.1996 -0.1266,0 -0.2863,-0.2425 -0.6423,-0.9756 C 9.97103,22.0681 9.3617,21.6458 8.76942,22.2381 8.31913,22.6883 8.25938,23.0956 8.48058,24.2063 L 8.6722,25.1689 8.39194,25.993 c -0.37804,1.1115 -0.53332,2.0503 -0.53346,3.2252 0,1.8589 0.53552,2.7781 1.88786,3.239 0.56686,0.1933 1.76786,0.2142 2.45876,0.043 z m 29.629,-1.0702 0,-0.8428 -8.0726,0 -8.0725,0 0,0.8428 0,0.8427 8.0725,0 8.0726,0 z m 0,-3.2823 0,-0.8427 -8.0726,0 -8.0725,0 0,0.8427 0,0.8427 8.0725,0 8.0726,0 z m 0,-3.1935 0,-0.8428 -8.0726,0 -8.0725,0 0,0.8428 0,0.8427 8.0725,0 8.0726,0 z m -23.4036,0.1995 c 0.5173,-0.4144 2.202,-3.6879 2.202,-4.2786 0,-0.3477 -0.4058,-0.4141 -0.8028,-0.1314 -0.2241,0.1594 -1.1965,1.6262 -1.6448,2.4806 -0.4325,0.8247 -0.5768,1.6086 -0.3436,1.8664 0.1809,0.1999 0.3904,0.2224 0.5892,0.063 z m -1.3924,-0.6769 c 0.2774,-0.4581 0.5747,-2.2261 0.5766,-3.4303 0,-1.0399 -0.051,-1.1931 -0.4129,-1.1931 -0.2603,0 -0.4128,0.2982 -0.59,1.1532 -0.4425,2.1355 -0.5033,3.3766 -0.177,3.6154 0.1789,0.1307 0.48,0.058 0.6033,-0.1452 z m 24.796,-2.8049 0,-0.8427 -8.1169,0 -8.1169,0 0,0.8427 0,0.8427 8.1169,0 8.1169,0 z" id="path-main"/>
    </g>
  </defs>
  <g id="acyl-visual">
    <use id="visible1" style="fill:url(#acyl-gradient)" xlink:href="#acyl-drawing"/>
  </g>
</svg>
