<svg xmlns="http://www.w3.org/2000/svg" xmlns:xlink="http://www.w3.org/1999/xlink" width="48" height="48">
  <defs id="acyl-settings">
    <linearGradient id="acyl-gradient" x1="0%" x2="0%" y1="0%" y2="100%">
      <stop offset="100%" style="stop-color:#A0A0A0;stop-opacity:1.000000"/>
    </linearGradient>
    <g id="acyl-filter">
  </g>
    <g id="acyl-drawing">
      <path d="M 25.2969 2 C 24.4234 2.0115 23.5806 2.33081 22.9199 2.90234 C 21.4918 4.13893 21.2225 6.25342 22.2949 7.80859 L 23.8418 19.1641 L 27.957 8.33203 C 29.3374 6.95929 29.4203 4.75155 28.1465 3.2793 C 27.4312 2.45331 26.3894 1.98523 25.2969 2 z M 16.0293 3.66406 C 15.1558 3.67556 14.315 3.99685 13.6543 4.56836 C 12.107 5.90765 11.938 8.24758 13.2773 9.79492 C 13.6863 10.2654 14.2081 10.6242 14.793 10.8398 L 21.4043 19.2539 L 19.5918 8.53125 C 20.0026 7.29355 19.7328 5.93076 18.8809 4.94336 C 18.1656 4.11744 17.1218 3.64929 16.0293 3.66406 z M 34.4043 5.1875 C 33.5315 5.1994 32.6913 5.52073 32.0312 6.0918 C 31.1568 6.85074 30.6887 7.9735 30.7637 9.12891 L 26.2852 19.7656 L 35.4297 12.4629 C 35.9641 12.3191 36.4589 12.0557 36.8789 11.6953 C 38.4262 10.356 38.5952 8.01605 37.2559 6.46875 C 36.541 5.64205 35.4971 5.17326 34.4043 5.1875 z M 8.76367 9.94922 C 7.89014 9.96064 7.04939 10.2801 6.38867 10.8516 C 4.84137 12.1909 4.67241 14.5328 6.01172 16.0801 C 6.76152 16.9437 7.86773 17.4115 9.00977 17.3496 L 20.1953 20.9121 L 12.4141 12.7891 C 12.2761 12.2129 12.0026 11.6768 11.6152 11.2285 C 10.8999 10.4026 9.85614 9.93446 8.76367 9.94922 z M 40.6895 12.4531 C 39.816 12.4641 38.9752 12.784 38.3145 13.3555 C 37.9074 13.7103 37.5827 14.1511 37.3633 14.6445 L 28.373 21.3477 L 39.7324 19.7227 C 40.9316 20.0621 42.2211 19.7756 43.1641 18.9609 C 44.7115 17.6216 44.8803 15.2818 43.541 13.7344 C 42.8261 12.9077 41.7823 12.4389 40.6895 12.4531 z M 5.69336 18.7754 C 4.81984 18.7874 3.97906 19.1062 3.31836 19.6777 C 1.77039 21.0164 1.60068 23.3564 2.93945 24.9043 C 4.16614 26.3189 6.25547 26.5966 7.80859 25.5508 L 7.80859 25.5723 L 19.4004 23.1738 L 8.30859 19.8125 C 7.60708 19.1363 6.66766 18.7639 5.69336 18.7754 z M 39.3672 22.8984 A 0.59751 3.57218 8.00721 0 0 38.3203 26.2891 A 0.59751 3.57218 8.00721 0 0 38.3984 29.9688 A 0.59751 3.57218 8.00721 0 0 39.4883 26.5781 A 0.59751 3.57218 8.00721 0 0 39.4102 22.8984 A 0.59751 3.57218 8.00721 0 0 39.3672 22.8984 z M 43.4961 23.873 A 0.66464 3.7085 26.7756 0 0 41.4277 26.6328 A 0.66464 3.7085 26.7756 0 0 40.1719 30.4727 A 0.66464 3.7085 26.7756 0 0 42.3438 27.7617 A 0.66464 3.7085 26.7756 0 0 43.5977 23.9199 A 0.66464 3.7085 26.7756 0 0 43.498 23.877 L 43.4961 23.873 z M 30.8926 24.4258 L 30.8926 24.4297 C 30.8256 24.4297 30.7447 24.4304 30.668 24.4414 C 28.2216 24.6969 29.9011 29.7258 29.9355 29.8613 C 29.9355 29.8613 29.48 30.0075 29.3965 29.9785 C 28.9753 29.7363 27.8743 24.9504 25.8848 26.0996 C 23.9842 27.1965 25.34 30.1875 25.459 30.9844 C 24.5554 33.4473 23.7903 36.2965 24.1504 38.9395 C 24.3538 40.59 25.5166 42.1467 27.166 42.6113 C 28.1873 42.9536 29.2867 42.932 30.3438 42.832 C 34.1038 42.1051 37.6345 40.4958 40.9199 38.5664 C 42.0202 37.8261 43.3337 37.0188 43.8438 35.7285 C 43.7437 31.8562 38.6825 30.9341 35.9551 30.4551 C 34.3146 30.1572 33.4308 29.8657 33.1074 29.5 C 33.0634 28.063 33.1408 24.3791 30.8926 24.4258 z M 19.5645 25.4141 L 8.19336 28.2109 C 7.08015 27.9974 5.93188 28.3055 5.07422 29.0469 C 3.52632 30.3856 3.35661 32.7255 4.69531 34.2734 C 6.03401 35.8215 8.37396 35.9912 9.92188 34.6523 C 10.339 34.2895 10.6687 33.8373 10.8887 33.3301 L 19.5645 25.4141 z M 20.5137 27.5 L 12.4922 35.627 C 11.9642 35.7719 11.476 36.0321 11.0605 36.3887 C 9.51258 37.7274 9.34287 40.0673 10.6816 41.6152 C 12.0203 43.1631 14.3603 43.3329 15.9082 41.9941 C 16.8108 41.2116 17.2801 40.041 17.1699 38.8516 C 17.1919 38.8616 17.2143 38.868 17.2363 38.875 L 20.5137 27.5 z " id="path-main"/>
    </g>
  </defs>
  <g id="acyl-visual">
    <use id="visible1" style="fill:url(#acyl-gradient)" xlink:href="#acyl-drawing"/>
  </g>
</svg>
