<svg xmlns="http://www.w3.org/2000/svg" xmlns:xlink="http://www.w3.org/1999/xlink" width="48" height="48">
  <defs id="acyl-settings">
    <linearGradient id="acyl-gradient" x1="0%" x2="0%" y1="0%" y2="100%">
      <stop offset="100%" style="stop-color:#A0A0A0;stop-opacity:1.000000"/>
    </linearGradient>
    <g id="acyl-filter">
  </g>
    <g id="acyl-drawing">
      <path d="m 22.49,45.92 c -1.7,-0.2 -3.1,-0.6 -4.7,-1.4 -3.8,-1.9 -6.5,-5.4 -7.4,-9.5 -0.405,-1.4 -0.505,-2.8 -0.3,-4.2 0.3,-3.5 1.7,-6.5 4.3,-8.9 1.2,-1.3 2.7,-2.2 4.1,-2.8 l 0.5,-0.2 v -3.3 -3.3 l -0.5,-0.1 c -1,-0.1 -2,-0.8 -2.5,-1.8 -0.3,-0.604 -0.3,-1.604 -0.1,-2.204 0.3,-1 1.2,-1.9 2.2,-2.1 0.3,0 0.5,-0.1 0.5,-0.1 0,0 -0.1,-0.8 -0.3,-1.6 -0.2,-1.7 -0.2,-1.9 0.1,-2.2 0.3,-0.2 0.4,-0.2 5.6,-0.2 6.7,0 6.1,-0.3 5.7,2.3 -0.2,0.9 -0.3,1.6 -0.3,1.6 0,0.1 0.2,0.1 0.3,0.2 2.3,0.4 3.4,3.2 1.9,5.004 -0.5,0.5 -1.3,1 -2,1.1 l -0.6,0.1 v 3.3 3.3 l 1.2,0.6 c 2.7,1.3 5,3.5 6.4,6.3 3.3,6.7 0.7,14.9 -6,18.5 -2.4,1.3 -5.4,1.9 -8.1,1.6 z m -8.6,-15.3 c 0.3,-0.1 0.8,-0.3 1.3,-0.5 2.2,-0.9 3.4,-0.9 7,-0.2 2.4,0.4 2.9,0.4 4,0 1.7,-0.7 2.3,-0.9 4,-0.8 0.9,0 1.5,0.1 2.2,0.3 1.4,0.3 2.4,0.5 2.9,0.5 l 0.3,-0.1 -0.1,-0.4 c -0.1,-0.7 -0.7,-2.3 -1.1,-3.1 -0.6,-1.2 -1.1,-1.9 -2.1,-2.9 -1.4,-1.4 -2.9,-2.4 -4.6,-2.9 -0.9,-0.4 -0.8,-0.1 -0.9,-4.5 v -3.7 h -2.8 -2.8 v 3.8 c -0.1,4.4 0,4.1 -1,4.4 -0.7,0.3 -1.8,0.8 -2.7,1.4 -0.8,0.5 -2.6,2.3 -3.1,3 -1.1,1.7 -1.8,3.6 -2.1,5.5 v 0.4 h 0.4 c 0.5,0.1 0.7,0 1.2,-0.2 z m 16,-20.4 c 0.8,-0.604 0.8,-1.804 -0.1,-2.204 -0.3,-0.2 -0.8,-0.2 -5.8,-0.2 -5,0 -5.4,0 -5.7,0.2 -0.5,0.2 -0.7,0.5 -0.8,1 0,0.6 0.2,1.004 0.8,1.304 l 0.4,0.2 h 5.5 l 5.4,-0.1 z m -2.1,-5.304 c 0.1,-0.6 0.2,-1.1 0.1,-1.2 0,0 -1.8,0 -3.9,0 h -3.9 v 0.2 c 0,0.3 0.3,1.8 0.3,2 0.1,0.1 0.8,0.1 3.6,0.1 h 3.6 z" id="path-main"/>
    </g>
  </defs>
  <g id="acyl-visual">
    <use id="visible1" style="fill:url(#acyl-gradient)" xlink:href="#acyl-drawing"/>
  </g>
</svg>
