<svg xmlns="http://www.w3.org/2000/svg" xmlns:xlink="http://www.w3.org/1999/xlink" width="48" height="48">
  <defs id="acyl-settings">
    <linearGradient id="acyl-gradient" x1="0%" x2="0%" y1="0%" y2="100%">
      <stop offset="100%" style="stop-color:#A0A0A0;stop-opacity:1.000000"/>
    </linearGradient>
    <g id="acyl-filter">
  </g>
    <g id="acyl-drawing">
      <path id="path-main" d="m 24,9.107 c -1.25,0 -2.49,0.139 -3.73,0.401 -2.44,0.522 -4.79,1.612 -6.99,2.952 -3.449,2.11 -6.602,5.01 -9.35,8.27 -0.506,0.61 -1.003,1.22 -1.461,1.88 -0.626,0.87 -0.626,1.9 0,2.77 1.4,1.99 3.072,3.75 4.76,5.38 3.661,3.48 7.831,6.4 12.451,7.58 1.43,0.37 2.87,0.55 4.31,0.55 1.45,0 2.88,-0.18 4.3,-0.55 4.62,-1.18 8.79,-4.1 12.49,-7.58 1.68,-1.62 3.34,-3.39 4.74,-5.38 0.64,-0.87 0.64,-1.9 0,-2.77 C 45.08,21.95 44.57,21.34 44.08,20.73 41.32,17.47 38.2,14.57 34.74,12.46 32.54,11.12 30.17,10.03 27.72,9.508 26.48,9.246 25.28,9.11 24,9.107 Z m 0,4.683 c 6.65,0 12.04,4.58 12.04,10.21 0,5.64 -5.4,10.22 -12.04,10.22 -6.66,0 -12.04,-4.58 -12.04,-10.22 0,-5.63 5.38,-10.21 12.04,-10.21 z m 0,4.26 c -3.29,0 -5.95,2.67 -5.95,5.95 0,3.28 2.66,5.95 5.95,5.95 3.28,0 5.95,-2.67 5.95,-5.95 0,-3.28 -2.67,-5.95 -5.95,-5.95 z m 2.09,2.21 a 1.44,1.361 0 0 1 1.44,1.36 1.44,1.361 0 0 1 -1.44,1.36 1.44,1.361 0 0 1 -1.44,-1.36 1.44,1.361 0 0 1 1.44,-1.36 z"/>
    </g>
  </defs>
  <g id="acyl-visual">
    <use id="visible1" style="fill:url(#acyl-gradient)" xlink:href="#acyl-drawing"/>
  </g>
</svg>
