<svg xmlns="http://www.w3.org/2000/svg" xmlns:xlink="http://www.w3.org/1999/xlink" width="48" height="48">
  <defs id="acyl-settings">
    <linearGradient id="acyl-gradient" x1="0%" x2="0%" y1="0%" y2="100%">
      <stop offset="100%" style="stop-color:#A0A0A0;stop-opacity:1.000000"/>
    </linearGradient>
    <g id="acyl-filter">
  </g>
    <g id="acyl-drawing">
      <path d="M 6.625 10 C 4.44376 10 2.71875 11.8552 2.71875 14.0625 L 2.71875 26.9062 C 2.71875 26.9808 2.74612 27.0513 2.75 27.125 C 2.74303 27.3045 2.71875 27.475 2.71875 27.6562 L 2.71875 40.5312 C 2.71878 40.8074 2.94262 41.0312 3.21875 41.0312 L 32.7812 41.0312 C 40.1236 41.0312 46.25 35.0023 46.25 27.6562 L 46.25 14.8125 C 46.25 14.5364 46.0261 14.3125 45.75 14.3125 L 43.375 14.3125 L 43.375 14.0625 C 43.375 11.8552 41.65 10 39.4688 10 L 6.625 10 z M 6.625 12 L 39.4688 12 C 40.5274 12 41.375 12.8815 41.375 14.0625 L 41.375 14.3125 L 15.8125 14.3125 C 11.069 14.3125 7.01245 16.8382 4.71875 20.5938 L 4.71875 14.0625 C 4.71875 12.8815 5.56633 12 6.625 12 z M 35.9941 20.7812 L 36 20.7812 L 35.9941 20.7832 L 35.4102 22.918 L 35.4395 22.9453 L 35.3887 22.9941 L 33.9336 28.3164 L 32.0977 27.8145 L 32.6738 25.709 L 27.8965 30.4863 L 26.3027 28.8926 L 31.0859 24.1094 L 28.9785 24.6914 L 28.4727 22.8555 L 33.8164 21.3809 L 33.8477 21.3516 L 33.8672 21.3691 L 35.9941 20.7832 L 35.9941 20.7812 z M 12 20.7969 L 14.1387 21.3809 L 14.1641 21.3535 L 14.2148 21.4023 L 19.5371 22.8574 L 19.0352 24.6934 L 16.9297 24.1172 L 21.707 28.8945 L 20.1133 30.4883 L 15.332 25.7051 L 15.9141 27.8125 L 14.0781 28.3184 L 12.6016 22.9746 L 12.5742 22.9473 L 12.5898 22.9316 L 12 20.7969 z M 24.0078 29.5566 C 24.8378 29.5566 25.6679 29.8718 26.2969 30.5 C 27.5529 31.7565 27.5529 33.8217 26.2969 35.0781 C 25.0399 36.3345 22.9748 36.3345 21.7188 35.0781 C 20.4617 33.8217 20.4617 31.7564 21.7188 30.5 C 22.3467 29.8718 23.1768 29.5566 24.0078 29.5566 z M 24.0078 31.4492 C 23.6678 31.4492 23.3304 31.5814 23.0664 31.8457 C 22.5384 32.3744 22.5384 33.2038 23.0664 33.7324 C 23.5954 34.2609 24.4222 34.2609 24.9512 33.7324 C 25.4802 33.2037 25.4802 32.3743 24.9512 31.8457 C 24.6872 31.5814 24.3468 31.4492 24.0078 31.4492 z " id="path-main"/>
    </g>
  </defs>
  <g id="acyl-visual">
    <use id="visible1" style="fill:url(#acyl-gradient)" xlink:href="#acyl-drawing"/>
  </g>
</svg>
