<svg xmlns="http://www.w3.org/2000/svg" xmlns:xlink="http://www.w3.org/1999/xlink" width="48" height="48">
  <defs id="acyl-settings">
    <linearGradient id="acyl-gradient" x1="0%" x2="0%" y1="0%" y2="100%">
      <stop offset="100%" style="stop-color:#A0A0A0;stop-opacity:1.000000"/>
    </linearGradient>
    <g id="acyl-filter">
  </g>
    <g id="acyl-drawing">
      <path d="M 6.625 10 C 4.44376 10 2.71875 11.8552 2.71875 14.0625 L 2.71875 26.9062 C 2.71875 26.9808 2.74612 27.0513 2.75 27.125 C 2.74303 27.3045 2.71875 27.475 2.71875 27.6562 L 2.71875 40.5312 C 2.71878 40.8074 2.94262 41.0312 3.21875 41.0312 L 32.7812 41.0312 C 40.1236 41.0312 46.25 35.0023 46.25 27.6562 L 46.25 14.8125 C 46.25 14.5364 46.0261 14.3125 45.75 14.3125 L 43.375 14.3125 L 43.375 14.0625 C 43.375 11.8552 41.65 10 39.4688 10 L 6.625 10 z M 6.625 12 L 39.4688 12 C 40.5274 12 41.375 12.8815 41.375 14.0625 L 41.375 14.3125 L 15.8125 14.3125 C 11.069 14.3125 7.01245 16.8382 4.71875 20.5938 L 4.71875 14.0625 C 4.71875 12.8815 5.56633 12 6.625 12 z M 18.1426 18.4004 L 19.1953 18.4004 L 27.2871 18.4004 L 30.457 21.5684 L 30.457 34.3477 L 30.457 35.4004 L 28.5176 35.4004 L 28.3516 35.4004 L 26.4121 35.4004 L 26.4121 33.2949 L 28.3516 33.2949 L 28.3516 22.4414 L 26.416 20.5059 L 20.248 20.5059 L 20.248 22.6113 L 18.1426 22.6113 L 18.1426 20.5059 L 18.1426 18.4004 z M 18.1426 24.7168 L 20.248 24.7168 L 20.248 26.8223 L 18.1426 26.8223 L 18.1426 24.7168 z M 18.1426 28.9277 L 20.248 28.9277 L 20.248 31.0352 L 18.1426 31.0352 L 18.1426 28.9277 z M 18.1426 33.1406 L 20.248 33.1406 C 20.248 33.8939 20.2481 34.6471 20.248 35.4004 L 19.1953 35.4004 L 18.1426 35.4004 L 18.1426 34.3477 L 18.1426 33.1406 z M 22.2012 33.2949 L 24.3066 33.2949 L 24.3066 35.4004 L 22.2012 35.4004 L 22.2012 33.2949 z" id="path-main"/>
    </g>
  </defs>
  <g id="acyl-visual">
    <use id="visible1" style="fill:url(#acyl-gradient)" xlink:href="#acyl-drawing"/>
  </g>
</svg>
