<svg xmlns="http://www.w3.org/2000/svg" xmlns:xlink="http://www.w3.org/1999/xlink" width="48" height="48">
  <defs id="acyl-settings">
    <linearGradient id="acyl-gradient" x1="0%" x2="0%" y1="0%" y2="100%">
      <stop offset="100%" style="stop-color:#A0A0A0;stop-opacity:1.000000"/>
    </linearGradient>
    <g id="acyl-filter">
  </g>
    <g id="acyl-drawing">
      <path id="path-main" d="M 24.43,2 C 19.03,2 7.83,3.142 3.161,7.791 3.265,7.678 11.01,3.158 24.48,3.158 37.93,3.158 44.84,7.791 44.84,7.791 40.18,3.138 29.84,2 24.43,2 Z M 3.161,8.949 8.34,43.29 c 0,0 3.47,2.71 16.14,2.71 12.65,0 16.38,-2.71 16.38,-2.71 L 44.84,8.949 c 0,0 -7.11,4.631 -20.36,4.631 C 11.21,13.58 3.261,9.054 3.161,8.949 Z M 22.84,17.41 c 0,0 1,0 2.13,0 1.15,0 2.42,0.12 2.9,0.19 0.96,0.25 2.28,3.44 2.28,3.44 l 3.11,-2.25 -2.64,6.55 -6.77,-0.51 2.83,-1.8 c 0,0 -1.15,-2.29 -1.56,-2.98 0,0 -0.98,-2.3 -2.28,-2.64 z m -1.22,0.22 c 1.65,0 2.39,1.47 3.1,2.64 l -2.27,4.41 -4.6,-2.99 c 0,0 2.12,-4.06 3.77,-4.06 z m -3.41,6.95 2.17,5.82 -2.68,-1.55 c 0,0 -1.57,2.63 -1.95,3.33 0,0 -1.51,2.04 -1.15,3.36 0,0 -1.39,-4.05 -1.63,-5.02 -0.25,-0.98 1.58,-3.55 1.58,-3.55 l -2.6,-1.96 z m 16.21,2.13 c 0,0 2.33,3.95 1.48,5.4 -0.84,1.45 -2.49,1.35 -3.83,1.37 l -2.53,-4.23 z m -6.4,4.02 v 3.3 c 0,0 3.07,0 3.83,0 0,0 2.47,0.32 3.4,-0.66 0,0 -2.95,3.6 -3.65,4.31 -0.7,0.71 -3.77,0.4 -3.77,0.4 l -0.11,3.47 -4.12,-5.53 4.37,-5.33 z m -7.13,1.89 -0.29,5.56 c 0,0 -4.48,0.12 -5.28,-1.37 -0.81,-1.49 0.11,-2.84 0.71,-4.06 z"/>
    </g>
  </defs>
  <g id="acyl-visual">
    <use id="visible1" style="fill:url(#acyl-gradient)" xlink:href="#acyl-drawing"/>
  </g>
</svg>
