<svg xmlns="http://www.w3.org/2000/svg" xmlns:xlink="http://www.w3.org/1999/xlink" width="48" height="48">
  <defs id="acyl-settings">
    <linearGradient id="acyl-gradient" x1="0%" x2="0%" y1="0%" y2="100%">
      <stop offset="100%" style="stop-color:#A0A0A0;stop-opacity:1.000000"/>
    </linearGradient>
    <g id="acyl-filter">
  </g>
    <g id="acyl-drawing">
      <path id="path-main" d="M 3 7 L 3 42 L 45 42 L 45 10.5 L 25.75 10.5 L 25.75 7 L 3 7 z M 4.75 8.75 L 24 8.75 L 24 12.25 L 43.25 12.25 L 43.25 15.75 L 20.5 15.75 L 20.5 12.25 L 4.75 12.25 L 4.75 8.75 z M 23.1875 18.75 C 24.159996 18.749418 25.275392 23.991352 26.0625 24.5625 C 26.849608 25.133648 32.198928 24.544031 32.5 25.46875 C 32.801072 26.393469 28.143714 29.074921 27.84375 30 C 27.543786 30.925079 29.723924 35.83416 28.9375 36.40625 C 28.151076 36.97834 24.191246 33.374418 23.21875 33.375 C 22.246254 33.375582 18.255858 36.977398 17.46875 36.40625 C 16.681642 35.835102 18.863572 30.924719 18.5625 30 C 18.261428 29.075281 13.606286 26.425079 13.90625 25.5 C 14.206214 24.574921 19.557326 25.13459 20.34375 24.5625 C 21.130174 23.99041 22.215004 18.750582 23.1875 18.75 z "/>
    </g>
  </defs>
  <g id="acyl-visual">
    <use id="visible1" style="fill:url(#acyl-gradient)" xlink:href="#acyl-drawing"/>
  </g>
</svg>
