<svg xmlns="http://www.w3.org/2000/svg" xmlns:xlink="http://www.w3.org/1999/xlink" width="48" height="48">
  <defs id="acyl-settings">
    <linearGradient id="acyl-gradient" x1="0%" x2="0%" y1="0%" y2="100%">
      <stop offset="100%" style="stop-color:#A0A0A0;stop-opacity:1.000000"/>
    </linearGradient>
    <g id="acyl-filter">
  </g>
    <g id="acyl-drawing">
      <path d="M 3 7 L 3 42 L 45 42 L 45 10.5 L 25.75 10.5 L 25.75 7 L 3 7 z M 4.75 8.75 L 24 8.75 L 24 12.25 L 43.25 12.25 L 43.25 15.75 L 20.5 15.75 L 20.5 12.25 L 4.75 12.25 L 4.75 8.75 z M 17.4805 19.1992 L 18.5957 19.1992 L 27.1641 19.1992 L 30.5195 22.5547 L 30.5195 36.0859 L 30.5195 37.1992 L 28.4648 37.1992 L 28.2891 37.1992 L 26.2363 37.1992 L 26.2363 34.9707 L 28.2891 34.9707 L 28.2891 23.4785 L 26.2402 21.4297 L 19.7109 21.4297 L 19.7109 23.6602 L 17.4805 23.6602 L 17.4805 21.4297 L 17.4805 19.1992 z M 17.4805 25.8887 L 19.7109 25.8887 L 19.7109 28.1191 L 17.4805 28.1191 L 17.4805 25.8887 z M 17.4805 30.3477 L 19.7109 30.3477 L 19.7109 32.5781 L 17.4805 32.5781 L 17.4805 30.3477 z M 17.4805 34.8066 L 19.7109 34.8066 C 19.7109 35.6042 19.711 36.4016 19.7109 37.1992 L 18.5957 37.1992 L 17.4805 37.1992 L 17.4805 36.0859 L 17.4805 34.8066 z M 21.7773 34.9707 L 24.0059 34.9707 L 24.0059 37.1992 L 21.7773 37.1992 L 21.7773 34.9707 z" id="path-main"/>
    </g>
  </defs>
  <g id="acyl-visual">
    <use id="visible1" style="fill:url(#acyl-gradient)" xlink:href="#acyl-drawing"/>
  </g>
</svg>
