<svg xmlns="http://www.w3.org/2000/svg" xmlns:xlink="http://www.w3.org/1999/xlink" width="48" height="48">
  <defs id="acyl-settings">
    <linearGradient id="acyl-gradient" x1="0%" x2="0%" y1="0%" y2="100%">
      <stop offset="100%" style="stop-color:#A0A0A0;stop-opacity:1.000000"/>
    </linearGradient>
    <g id="acyl-filter">
  </g>
    <g id="acyl-drawing">
      <path id="path-main" d="M 22 2 L 14.9 11.59 L 14.9 11.69 C 19.41 12.52 23.98 12.76 28.62 12.33 L 22 2 z M 11 3 L 3.516 8.33 C 6.637 9.565 9.787 10.55 12.96 11.25 L 11 3 z M 29.36 3.172 L 25.83 6.486 L 29.64 12.19 L 32.81 6.465 L 29.36 3.172 z M 35 4 L 30.8 12.04 C 35.13 11.44 39.52 10.26 44 8.385 L 35 4 z M 12.31 4.688 L 13.87 11.44 L 18.75 5.184 L 12.31 4.688 z M 3.16 8.949 L 8.34 43.29 C 8.34 43.29 11.81 46 24.48 46 C 37.13 46 40.86 43.29 40.86 43.29 L 44.84 8.949 C 44.84 8.949 37.73 13.58 24.48 13.58 C 11.21 13.58 3.26 9.054 3.16 8.949 z M 22.84 17.41 L 24.97 17.41 C 26.12 17.41 27.39 17.53 27.87 17.6 C 28.83 17.85 30.15 21.04 30.15 21.04 L 33.26 18.79 L 30.62 25.34 L 23.85 24.83 L 26.68 23.03 C 26.68 23.03 25.53 20.74 25.12 20.05 C 25.12 20.05 24.14 17.75 22.84 17.41 z M 21.62 17.63 C 23.27 17.63 24.01 19.1 24.72 20.27 L 22.45 24.68 L 17.85 21.69 C 17.85 21.69 19.97 17.63 21.62 17.63 z M 18.21 24.58 L 20.38 30.4 L 17.7 28.85 C 17.7 28.85 16.13 31.48 15.75 32.18 C 15.75 32.18 14.24 34.22 14.6 35.54 C 14.6 35.54 13.21 31.49 12.97 30.52 C 12.72 29.54 14.55 26.97 14.55 26.97 L 11.95 25.01 L 18.21 24.58 z M 34.42 26.71 C 34.42 26.71 36.75 30.66 35.9 32.11 C 35.06 33.56 33.41 33.46 32.07 33.48 L 29.54 29.25 L 34.42 26.71 z M 27.97 30.69 L 28.02 30.73 L 28.02 34.03 L 31.85 34.03 C 31.85 34.03 34.32 34.35 35.25 33.37 C 35.25 33.37 32.3 36.97 31.6 37.68 C 30.9 38.39 27.83 38.08 27.83 38.08 L 27.72 41.55 L 23.6 36.02 L 27.97 30.69 z M 20.89 32.62 L 20.6 38.18 C 20.6 38.18 16.12 38.3 15.32 36.81 C 14.51 35.32 15.43 33.97 16.03 32.75 L 20.89 32.62 z"/>
    </g>
  </defs>
  <g id="acyl-visual">
    <use id="visible1" style="fill:url(#acyl-gradient)" xlink:href="#acyl-drawing"/>
  </g>
</svg>
