<svg xmlns="http://www.w3.org/2000/svg" xmlns:xlink="http://www.w3.org/1999/xlink" width="48" height="48">
  <defs id="acyl-settings">
    <linearGradient id="acyl-gradient" x1="0%" x2="0%" y1="0%" y2="100%">
      <stop offset="100%" style="stop-color:#A0A0A0;stop-opacity:1.000000"/>
    </linearGradient>
    <g id="acyl-filter">
  </g>
    <g id="acyl-drawing">
      <path id="path-main" d="M 3.8062861,9.3818232 20.966004,26.541541 38.125722,9.3818232 l -34.3194359,0 z M 2,11.188109 2,32.863542 12.837716,22.025826 2,11.188109 z m 37.932008,0 -10.837717,10.837717 1.524054,1.524053 0,0.282233 0,3.33034 -3.33034,-3.33034 -6.322001,6.322001 -6.322001,-6.322001 -10.8377169,10.837716 23.8203979,0 7.987171,9.228993 0.197563,0.254009 0.225785,-0.282232 L 45.576652,32.835319 46,32.355524 l -0.649134,0 -4.261706,0 0,-8.523412 0,-0.282233 -0.310456,0 -0.846696,0 0,-12.36177 z m -8.749199,12.926235 9.313663,0 0,8.551635 0,0.282233 0.282232,0 3.951251,0 -8.918537,10.301475 -8.890315,-10.301475 3.979474,0 0.282232,0 0,-0.282233 0,-8.551635 z"/>
    </g>
  </defs>
  <g id="acyl-visual">
    <use id="visible1" style="fill:url(#acyl-gradient)" xlink:href="#acyl-drawing"/>
  </g>
</svg>
