<svg xmlns="http://www.w3.org/2000/svg" xmlns:xlink="http://www.w3.org/1999/xlink" width="64" height="64"><defs><linearGradient id="a"><stop offset="0" stop-color="#3daee9"/><stop offset="1" stop-color="#6cc1ef"/></linearGradient><linearGradient xlink:href="#a" id="b" gradientUnits="userSpaceOnUse" gradientTransform="matrix(.51054 0 0 .48036 424.235 516.492)" x1="65.965" y1="58.048" x2="65.965" y2="16.036"/></defs><path d="M6.306 6.79c-1.771 0-3.193 1.458-3.193 3.27v6.662c-1.36.466-2.335 1.692-2.382 3.157H.707v16.85c0 1.92 1.606 3.468 3.605 3.468h34.99c1.997 0 3.608-1.546 3.608-3.469v-20.01c0-1.514-1.006-2.781-2.406-3.258v-.423h-.02c-.053-1.762-1.441-3.173-3.177-3.173h-13.5L20.733 6.79zm1.503 2.126h12.217l2.69 2.694H35.805a2.863 2.863 0 0 1 2.869 2.782h.016v.371c1.264.418 2.174 1.527 2.174 2.854v17.54c0 1.686-1.453 3.042-3.257 3.042H6.01c-1.805 0-3.257-1.357-3.257-3.041V20.386h.02c.043-1.284.926-2.356 2.154-2.765v-5.84A2.865 2.865 0 0 1 7.81 8.917z" fill="#167b8d" fill-rule="evenodd"/><g fill-rule="evenodd" stroke-linejoin="round"><path d="M40.86 23.412H26.26c-1.792 0-3.232 1.476-3.232 3.308v19.061c0 1.832 1.441 3.307 3.232 3.307h31.365c1.792 0 3.233-1.475 3.233-3.307V29.73h-.02c-.054-1.783-1.457-3.21-3.213-3.21H43.968z" fill="#147eb8"/><path d="M40.709 29.865L38.617 30.9l-2.453 1.215h-11.14c-.474 0-.923.096-1.333.27-.248.106-.446.29-.662.45v1.105c.216-.16.414-.344.662-.45.41-.174.86-.27 1.333-.27H37.43z" fill-opacity=".235"/><path d="M40.86 23.412l.695 1.705.986 2.413h15.086a3.149 3.149 0 0 1 2.244.937 3.377 3.377 0 0 1 .97 2.272h.019v-1.01h-.02c-.055-1.782-1.458-3.208-3.214-3.208H43.968z" fill="#fff" fill-opacity=".235"/><path d="M439.634 524.279l-2.488 2.395h-9.413c-1.438 0-2.587 1.097-2.63 2.47h-.017v12.365c0 1.41 1.18 2.547 2.647 2.547h25.678c1.466 0 2.646-1.136 2.646-2.547v-14.683c0-1.41-1.18-2.547-2.646-2.547z" transform="translate(-565.432 -692.831) scale(1.37861)" fill="url(#b)"/><path d="M40.65 29.945l-3.428 3.302H24.245c-1.982 0-3.565 1.513-3.625 3.405h-.024v.903h.024c.013-.474.124-.924.311-1.332.19-.408.455-.772.78-1.08a3.602 3.602 0 0 1 1.14-.727 3.717 3.717 0 0 1 1.394-.268h14.197l1.25-2.375.453-.863v-.001l.01-.009z" fill="#fff" fill-opacity=".235"/><path d="M62.863 55.305H21.025c.487 1.057 1.609 1.905 3.22 1.905h35.4c1.613 0 2.733-.848 3.218-1.905z" opacity=".2"/></g></svg>