<svg xmlns="http://www.w3.org/2000/svg" xmlns:xlink="http://www.w3.org/1999/xlink" width="64" height="64"><defs><linearGradient id="a"><stop offset="0" stop-color="#3daee9"/><stop offset="1" stop-color="#6cc1ef"/></linearGradient><linearGradient xlink:href="#b" id="c" x1="65.965" y1="58.048" x2="65.965" y2="16.036" gradientUnits="userSpaceOnUse" gradientTransform="matrix(.51054 0 0 .48036 384.235 516.492)"/><linearGradient id="b"><stop stop-color="#21bbd7"/><stop offset="1" stop-color="#3dc8e1"/></linearGradient><linearGradient xlink:href="#a" id="d" gradientUnits="userSpaceOnUse" gradientTransform="matrix(.51054 0 0 .48036 424.235 516.492)" x1="65.965" y1="58.048" x2="65.965" y2="16.036"/></defs><g fill-rule="evenodd" stroke-linejoin="round"><path d="M20.735 6.79H6.305c-1.77 0-3.193 1.46-3.193 3.271v18.84c0 1.81 1.424 3.269 3.194 3.269h31.001c1.772 0 3.196-1.458 3.196-3.27V13.037h-.02c-.053-1.762-1.44-3.173-3.176-3.173h-13.5z" fill="#167b8d"/><path d="M20.586 13.17l-2.067 1.023-2.425 1.2H5.084c-.47 0-.914.095-1.318.267-.246.105-.442.286-.654.444v1.093c.212-.158.408-.34.654-.444a3.338 3.338 0 0 1 1.317-.267h12.261z" fill-opacity=".235"/><path d="M20.735 6.79l.688 1.686.974 2.385H37.31a3.112 3.112 0 0 1 2.218.926 3.338 3.338 0 0 1 .958 2.246h.019v-.997h-.02c-.054-1.762-1.44-3.173-3.177-3.173h-13.5z" fill="#fff" fill-opacity=".235"/><path d="M399.634 524.279l-2.488 2.395h-9.412c-1.438 0-2.587 1.097-2.631 2.47h-.017v12.365c0 1.41 1.18 2.547 2.647 2.547h25.678c1.466 0 2.646-1.136 2.646-2.547v-14.683c0-1.41-1.18-2.547-2.646-2.547z" transform="translate(-524.028 -701.156) scale(1.36264)" fill="url(#c)"/><path d="M20.529 13.248l-3.389 3.264H4.314c-1.96 0-3.524 1.496-3.584 3.365H.707v.893H.73a3.38 3.38 0 0 1 .308-1.316 3.5 3.5 0 0 1 .771-1.069 3.56 3.56 0 0 1 1.127-.718c.422-.17.887-.264 1.378-.264h14.032l1.235-2.348.448-.853v-.001l.01-.008z" fill="#fff" fill-opacity=".235"/><path d="M42.484 38.314H1.13c.481 1.045 1.59 1.883 3.184 1.883h34.99c1.594 0 2.7-.838 3.18-1.883z" opacity=".2"/></g><g fill-rule="evenodd" stroke-linejoin="round"><path d="M40.86 23.412H26.26c-1.792 0-3.231 1.476-3.231 3.308v19.06c0 1.833 1.44 3.308 3.231 3.308h31.365c1.792 0 3.233-1.475 3.233-3.307V29.73h-.02c-.053-1.783-1.457-3.21-3.213-3.21H43.968z" fill="#147eb8"/><path d="M40.71 29.865L38.617 30.9l-2.454 1.215h-11.14c-.473 0-.923.096-1.332.27-.248.106-.447.29-.662.45v1.105c.215-.16.414-.345.662-.45.41-.175.859-.27 1.333-.27h12.404z" fill-opacity=".235"/><path d="M40.86 23.412l.696 1.705.985 2.412h15.086a3.149 3.149 0 0 1 2.245.938 3.377 3.377 0 0 1 .97 2.272h.018v-1.01h-.02c-.054-1.782-1.458-3.209-3.214-3.209H43.968z" fill="#fff" fill-opacity=".235"/><path d="M439.634 524.279l-2.488 2.395h-9.413c-1.438 0-2.587 1.097-2.63 2.47h-.017v12.365c0 1.41 1.18 2.547 2.647 2.547h25.678c1.466 0 2.646-1.136 2.646-2.547v-14.683c0-1.41-1.18-2.547-2.646-2.547z" transform="translate(-565.427 -692.826) scale(1.3786)" fill="url(#d)"/><path d="M40.651 29.945l-3.428 3.301H24.246c-1.983 0-3.565 1.514-3.626 3.406h-.023v.903h.023c.014-.475.124-.924.312-1.332.189-.408.455-.772.78-1.08a3.602 3.602 0 0 1 1.14-.727 3.717 3.717 0 0 1 1.394-.268h14.197l1.249-2.375.453-.863v-.002l.01-.008z" fill="#fff" fill-opacity=".235"/><path d="M62.863 55.304H21.026c.486 1.057 1.608 1.905 3.22 1.905h35.4c1.613 0 2.732-.848 3.217-1.905z" opacity=".2"/></g></svg>