<svg xmlns="http://www.w3.org/2000/svg" xmlns:xlink="http://www.w3.org/1999/xlink" width="64" height="64"><defs><linearGradient xlink:href="#a" id="b" x1="65.965" y1="58.048" x2="65.965" y2="16.036" gradientUnits="userSpaceOnUse" gradientTransform="translate(384.571 483.798)"/><linearGradient id="a"><stop offset="0" stop-color="#3daee9"/><stop offset="1" stop-color="#6cc1ef"/></linearGradient></defs><g fill-rule="evenodd" stroke-linejoin="round"><path d="M30.388 6.618H8.69c-2.662 0-4.803 2.195-4.803 4.916v28.331c0 2.722 2.141 4.914 4.803 4.914h46.616c2.662 0 4.806-2.192 4.806-4.914V16.008h-.028c-.08-2.65-2.167-4.769-4.778-4.769H35.01z" fill="#147eb8"/><path d="M30.164 16.21l-3.108 1.538-3.646 1.806H6.853c-.704 0-1.373.142-1.981.4-.37.158-.665.431-.984.668v1.643c.32-.237.614-.51.984-.667a5.042 5.042 0 0 1 1.98-.401H25.29z" fill-opacity=".235"/><path d="M414.735 500.008l-4.874 4.986h-18.436c-2.817 0-5.067 2.285-5.154 5.143h-.031v25.741c0 2.936 2.313 5.302 5.185 5.302h50.296c2.871 0 5.183-2.366 5.183-5.302V505.31c0-2.936-2.312-5.302-5.183-5.302z" fill="url(#b)" transform="translate(-384.571 -483.798)"/><path d="M62.332 50.72a5.41 5.41 0 0 1-.406 2.067 5.299 5.299 0 0 1-1.11 1.684 5.165 5.165 0 0 1-1.647 1.134 5.084 5.084 0 0 1-2.02.416H6.852a5.095 5.095 0 0 1-2.022-.416 5.166 5.166 0 0 1-1.647-1.134 5.298 5.298 0 0 1-1.11-1.684 5.413 5.413 0 0 1-.405-2.068v1.361c0 2.936 2.313 5.302 5.184 5.302H57.15c2.872 0 5.183-2.366 5.183-5.302z" opacity=".4" fill-opacity=".235"/><path d="M30.162 16.211l-4.872 4.986H6.853c-2.817 0-5.066 2.285-5.152 5.143h-.033v1.361h.033a5.455 5.455 0 0 1 .444-2.009 5.294 5.294 0 0 1 1.108-1.632 5.117 5.117 0 0 1 1.619-1.099 5.044 5.044 0 0 1 1.98-.403h20.173l1.775-3.587.644-1.303.002-.002.01-.013zM30.388 6.618l1.033 2.534 1.466 3.587h22.42a4.67 4.67 0 0 1 1.836.373 4.74 4.74 0 0 1 1.502 1.019c.43.43.778.943 1.026 1.515.247.57.394 1.2.414 1.862h.028v-1.5h-.028c-.08-2.65-2.167-4.769-4.778-4.769H35.01z" fill="#fff" fill-opacity=".235"/></g><path d="M32 28.02c-5.65 0-10.23 4.579-10.228 10.227 0 4.522 2.935 8.357 6.996 9.718.511.081.675-.236.675-.512v-1.728c-2.834.613-3.437-1.371-3.437-1.371-.47-1.187-1.136-1.504-1.136-1.504-.93-.634.072-.613.072-.613 1.023.071 1.565 1.053 1.565 1.053.89 1.555 2.393 1.095 2.977.849.091-.665.357-1.115.644-1.37-2.271-.256-4.654-1.136-4.654-5.033 0-1.135.389-2.045 1.054-2.772-.103-.255-.46-1.32.102-2.7 0 0 .859-.276 2.813 1.043A9.653 9.653 0 0 1 32 32.97c.869 0 1.749.113 2.556.337 1.954-1.319 2.814-1.043 2.814-1.043.562 1.38.204 2.445.102 2.7.665.727 1.053 1.637 1.053 2.772 0 3.908-2.393 4.766-4.674 5.022.368.318.705.941.705 1.892v2.803c0 .276.164.604.686.512 4.06-1.371 6.986-5.196 6.986-9.718 0-5.648-4.58-10.228-10.228-10.228zm0 0" fill="#1272a5"/></svg>