<svg xmlns="http://www.w3.org/2000/svg" xmlns:xlink="http://www.w3.org/1999/xlink" width="64" height="64"><defs><linearGradient xlink:href="#a" id="b" x1="65.965" y1="58.048" x2="65.965" y2="16.036" gradientUnits="userSpaceOnUse" gradientTransform="translate(384.571 483.798)"/><linearGradient id="a"><stop offset="0" stop-color="#3daee9"/><stop offset="1" stop-color="#6cc1ef"/></linearGradient></defs><g fill-rule="evenodd" stroke-linejoin="round"><path d="M30.388 6.618H8.69c-2.662 0-4.803 2.195-4.803 4.916v28.331c0 2.722 2.141 4.914 4.803 4.914h46.616c2.662 0 4.806-2.192 4.806-4.914V16.008h-.028c-.08-2.65-2.167-4.769-4.778-4.769H35.01z" fill="#147eb8" stroke-width=".814"/><path d="M30.164 16.21l-3.108 1.538-3.646 1.806H6.853c-.704 0-1.373.142-1.981.4-.37.158-.665.431-.984.668v1.643c.32-.237.614-.51.984-.667a5.042 5.042 0 0 1 1.98-.401H25.29z" fill-opacity=".235" stroke-width=".814"/><path d="M414.735 500.008l-4.874 4.986h-18.436c-2.817 0-5.067 2.285-5.154 5.143h-.031v25.741c0 2.936 2.313 5.302 5.185 5.302h50.296c2.871 0 5.183-2.366 5.183-5.302V505.31c0-2.936-2.312-5.302-5.183-5.302z" fill="url(#b)" stroke-width=".878" transform="translate(-384.571 -483.798)"/><path d="M62.332 50.72c0 .733-.144 1.432-.406 2.067a5.299 5.299 0 0 1-1.11 1.684 5.165 5.165 0 0 1-1.647 1.134 5.084 5.084 0 0 1-2.02.416H6.852a5.095 5.095 0 0 1-2.022-.416 5.166 5.166 0 0 1-1.647-1.134 5.298 5.298 0 0 1-1.11-1.684 5.413 5.413 0 0 1-.405-2.068v1.361c0 2.936 2.313 5.302 5.184 5.302H57.15c2.872 0 5.183-2.366 5.183-5.302z" opacity=".4" fill-opacity=".235" stroke-width=".878"/><path d="M30.162 16.211l-4.872 4.986H6.853c-2.817 0-5.066 2.285-5.152 5.143h-.033v1.361h.033a5.455 5.455 0 0 1 .444-2.009 5.294 5.294 0 0 1 1.108-1.632 5.117 5.117 0 0 1 1.619-1.099 5.044 5.044 0 0 1 1.98-.403H27.025l1.775-3.587.644-1.303.002-.002.01-.013z" fill="#fff" fill-opacity=".235" stroke-width=".878"/><path d="M30.388 6.618l1.033 2.534 1.466 3.587H55.307a4.67 4.67 0 0 1 1.836.373c.564.24 1.073.588 1.502 1.019.43.43.778.943 1.026 1.515.247.57.394 1.2.414 1.862h.028v-1.5h-.028c-.08-2.65-2.167-4.769-4.778-4.769H35.01z" fill="#fff" fill-opacity=".235" stroke-width=".814"/></g><path d="M32 28c-.346 0-.694.029-1.031.063-.674.068-1.31.18-1.938.375a10.045 10.045 0 0 0-6.593 6.593 9.8 9.8 0 0 0-.375 1.938A10.32 10.32 0 0 0 22 38c0 .346.029.694.063 1.031.068.674.18 1.31.375 1.938a10.045 10.045 0 0 0 6.593 6.593 9.8 9.8 0 0 0 1.938.376c.337.033.685.062 1.031.062.346 0 .694-.029 1.031-.063a9.797 9.797 0 0 0 1.938-.374 10.215 10.215 0 0 0 1.812-.782 9.982 9.982 0 0 0 4.782-5.812 9.8 9.8 0 0 0 .374-1.938c.035-.337.063-.685.063-1.031 0-.345-.028-.695-.063-1.031a9.797 9.797 0 0 0-.374-1.938 10.07 10.07 0 0 0-1.844-3.406c-.204-.247-.43-.461-.657-.688-.903-.903-1.959-1.651-3.156-2.156-.299-.126-.624-.246-.937-.343a9.8 9.8 0 0 0-1.938-.375A10.32 10.32 0 0 0 32 28zm0 1c1.513 0 2.936.371 4.188 1.031.033.018.06.045.093.063.025.033.018.069.063.093.032.019.063.047.093.063.053.029.105.074.094.125-.014.074-.137.07-.187.125.007.105-.036.085-.063.156.016.046.055.04.063.094-.01.058-.085.065-.063.125.098.076.189.013.281 0 .204-.026.375.004.5-.094-.013-.078.061-.1.094-.156.066.046.123.108.188.156-.039.017-.122.04-.157.063-.05.034-.067.086-.125.125-.042.029-.144.125-.187.125-.053 0-.15-.044-.188-.032-.054.017-.032.104-.093.125-.12.044-.334-.117-.375.063.05.104.221.069.312.125.056.036.142.22.156.281a.733.733 0 0 1 0 .282c-.056.145-.207.128-.375.125-.045 0-.083.003-.125 0-.281-.019-.56-.108-.687.093.009.155.034.24 0 .375-.026.098-.13.165-.125.25.002.044.083.128.094.188.007.032-.015.096 0 .125.047.089.166-.015.25 0 .08.012.156.13.156.218a.571.571 0 0 1-.063.25c-.08.12-.229.091-.343.157-.095.054-.132.186-.188.28-.06.103-.117.137-.094.282a.675.675 0 0 1-.343.344.995.995 0 0 0-.157.094.796.796 0 0 0-.125.125c-.063.07-.153.101-.187.156-.026.042-.004.131-.031.187-.04.077-.106.143-.157.22-.023.036-.068.077-.093.124-.059.106-.136.189-.125.281.009.09.12.11.125.188.005.043-.033.078-.032.125.003.069.026.102.032.156.012.135-.069.189-.094.281-.013.044.01.09 0 .125-.022.068-.123.108-.125.188-.002.056.088.107.094.187.004.055-.042.106-.032.157.02.098.205.236.282.312.103.104.204.172.25.281.038.093.054.244.125.313.052.05.151.072.218.125.064.049.152.072.22.125.11.087.26.263.437.25.092-.007.177-.045.281-.063.107-.018.235-.073.344-.062.083.009.162.068.25.062.09-.005.209-.048.312-.093.18-.079.457-.226.719-.188.2.03.204.255.344.344.16.014.279-.031.406 0 .096.024.21.205.219.281.009.078-.052.139-.063.188-.025.105-.044.245-.062.312-.015.053-.033.104-.031.156 0 .048.075.157.125.22.06.076.146.134.218.218.133.153.189.36.282.562.023.051-.022.062 0 .125-.04.306-.144.506-.344.844-.095.11-.19.239-.188.375-.007.327.171.496.157.813-.033.425.002.491-.032.718.144.073.073.287.032.438-.062.18-.122.224-.157.344.075.032.137.04.22.03A8.993 8.993 0 0 1 32 47a8.983 8.983 0 0 1-3.376-.655c-.004-.001.003-.03 0-.032.095-.04.275.07.344-.062.034-.064-.046-.186 0-.25.033-.044.245-.083.312-.094.097-.016.196.003.25-.03a.285.285 0 0 0 .125-.25c-.005-.054-.052-.079-.093-.126-.035-.04-.008-.089-.032-.125-.043-.064-.106-.095-.125-.187.131-.026.311.146.5.093.09-.025.24-.197.282-.281.012-.025-.015-.125 0-.156.016-.035.057-.045.062-.063.013-.049-.01-.063 0-.093.033-.093.133-.152.188-.22.041-.05.086-.103.125-.155.043-.057.064-.076.093-.125.028-.166-.102-.293-.062-.438.043-.164.28-.27.437-.344.055-.025.111-.077.157-.093.109-.039.242-.027.343-.063.171-.062.23-.25.313-.406.04-.073.086-.135.094-.188.007-.047-.01-.101 0-.156a2 2 0 0 1 .03-.156c.02-.078.032-.225.032-.313 0-.072-.03-.09-.031-.156-.013-.236.069-.246.156-.375.044-.063.063-.173.094-.219.147-.218.393-.325.375-.656-.007-.109-.045-.34-.125-.375-.046-.02-.152-.006-.22-.031-.214-.08-.37-.326-.593-.344-.047-.002-.072.002-.125 0-.087-.002-.183-.083-.281-.094-.062-.007-.182.019-.219 0-.056-.027-.048-.125-.094-.156-.036-.025-.1-.042-.156-.062a.745.745 0 0 0-.25-.063c-.032-.002-.12.005-.156 0-.056-.009-.104-.06-.156-.093-.066-.04-.098-.07-.125-.125.06-.197-.148-.23-.188-.344-.018-.053.018-.14 0-.188-.023-.067-.081-.1-.156-.156-.13-.102-.25-.195-.438-.219-.083-.009-.18.007-.28 0a.487.487 0 0 1-.313-.156c-.077-.09-.09-.177-.157-.219-.063-.04-.175-.052-.218-.093-.02-.019-.013-.053-.031-.094-.033-.066-.103-.076-.063-.156-.073-.037-.047.045-.125.03-.07-.1-.121-.155-.281-.124-.073.014-.133.123-.219.125-.07.002-.126-.112-.219-.125-.07-.01-.17.073-.218.062-.079-.014-.086-.109-.157-.156-.052-.035-.158-.127-.187-.125-.091.002-.156.192-.281.125-.062-.078.104-.084.03-.156-.054-.055-.08.002-.124.031-.051.035-.1.074-.157.094-.125.047-.214.043-.312.093-.09.048-.104.126-.156.22-.042.076-.124.183-.188.187-.076.005-.15-.096-.218-.125-.21-.091-.328.06-.5.062-.16.002-.383-.255-.375-.406.005-.093.051-.23.062-.344.009-.09.092-.166.094-.25.002-.11-.178-.206-.25-.219-.171-.03-.4.077-.594 0-.036-.061.072-.096.094-.156.012-.034-.013-.055 0-.094.021-.058.097-.094.125-.156.02-.047.01-.13.03-.187.024-.066.089-.11.095-.157.007-.061-.045-.147-.094-.187a.974.974 0 0 0-.344.062c-.196.09-.145.345-.344.407-.067.022-.173.05-.25.062.13-.654.331-1.28.594-1.875.07.013.128.057.188.063.167.012.174-.115.312-.188.142.02.215-.014.344 0 .087.01.212.12.281.125.058.002.07-.071.125-.062.055.009.147.122.156.187.01.082-.055.16-.03.25.085.088.252.137.374.188.08-.066.013-.218 0-.313-.002-.042.005-.087 0-.125-.009-.065-.031-.131-.031-.187 0-.26.2-.367.375-.469.074-.044.153-.124.219-.156.092-.046.142-.05.218-.094.139-.078.268-.16.375-.25.05-.118-.005-.259 0-.375.05-.03.073.005.125 0 .084-.018.11-.14.157-.187.027-.028.123-.036.156-.063.084-.065.083-.158.156-.187.026-.01.085-.02.125-.032.055-.014.132-.063.219-.093.056-.02.197-.01.219-.032.027-.027-.007-.145 0-.187.043-.205.347-.212.53-.281.128-.05.265-.153.407-.125-.027.098-.148.069-.125.187.031.166.223-.039.281-.062.111-.048.324-.073.47-.125.126-.046.338-.134.218-.282-.1-.007-.132.089-.219.125-.06.01-.074-.027-.125-.03-.049-.003-.076.04-.125.03-.049-.009-.118-.098-.125-.156-.02-.153.157-.2.219-.312-.042-.138-.227-.008-.344-.063.013-.082.06-.171.156-.187a.618.618 0 0 1 .313.062c.027.024-.01.087.031.125.047.042.126.01.188 0 .021-.103-.144-.058-.125-.125.123-.08.349-.042.5-.062.087-.013.171-.084.25-.125.072-.042.142-.1.218-.032.022.075-.052.119-.093.157-.14.123-.266.262-.375.406.067.065.168.019.28.031.045.005.112.024.157.031.055.01.113-.009.156 0 .077.019.08.125.157.125.123 0 .133-.104.062-.187.022-.086.062-.159.031-.219-.056-.113-.27.019-.28-.125-.008-.09.091-.118.124-.187-.014-.175.143-.186.125-.344-.009-.066-.08-.063-.125-.125-.023-.033-.035-.102-.062-.125-.095-.08-.27-.066-.282-.219-.005-.09.013-.152 0-.25-.012-.093-.107-.357-.187-.375-.102-.022-.16.163-.281.219a.493.493 0 0 1-.25.031c-.044-.009-.12-.041-.125-.125-.005-.048.01-.065.03-.094.006-.007-.004-.024 0-.03A9.07 9.07 0 0 1 32 29zm-3.719.813c-.088.284-.345.446-.687.437-.084.08-.049.233-.094.344a.276.276 0 0 1-.25.156c-.067-.005-.187-.093-.187-.156 0-.052.05-.111.062-.157a8.925 8.925 0 0 1 1.156-.625zm7.657.312a.275.275 0 0 0-.094.031c-.07.042-.072.105-.125.125-.075.027-.177.027-.188.094-.009.056.065.074.063.125-.027.067-.08.074-.094.156.093.151.323.002.438-.031.05-.015.097.008.125-.031.03-.05.008-.15.03-.219.026-.076.104-.058.094-.125-.006-.067-.137-.136-.25-.125zm-9.907 1.156c.067.08.123.198 0 .25-.018.01-.237.04-.281.031-.013-.002-.02-.022-.031-.03.095-.094.213-.162.312-.25zm.25.313c.044.002.074.09.125.093.05.004.127-.04.157-.03.076.02.104.162.03.218-.06.007-.08-.072-.124-.063-.124.022-.158.258-.25.25-.088-.008-.152-.186-.063-.25.002-.054-.035-.07-.031-.125.027-.034.084-.099.156-.093zm-.406.062c.025 0 .022-.01.031 0-.013.097-.05.111-.125.157a.512.512 0 0 0-.25.343c-.013.05-.157.2-.219.188-.143-.031.061-.302.094-.344.037-.045.083-.074.125-.125.042-.05.054-.158.094-.188.043-.03.173-.034.25-.03zm12.313.25c.143-.009.215.163.28.25.055.071.224.17.313.219.051.027.1.068.157.094.059.026.148.06.218.125.07.064.123.16.125.218.002.059-.04.102-.03.157.062.01.095-.054.124-.125.236.336.436.695.625 1.062a.118.118 0 0 0-.062.094c-.019.102.058.232-.094.25-.096.013-.211-.096-.344-.125-.054-.013-.144.014-.187 0-.1-.035-.071-.159-.157-.219a.7.7 0 0 0-.25-.094c-.049-.005-.074.007-.125 0-.061-.007-.167 0-.218-.03-.05-.032-.175-.084-.188-.126-.02-.067.153-.162.156-.218.004-.044-.053-.06-.062-.126-.007-.04.009-.099 0-.124-.013-.048-.082-.092-.156-.094-.066 0-.132.031-.188.031-.08.002-.244-.04-.344-.031-.06.005-.1.027-.156.031-.158.013-.251-.009-.375 0-.089.005-.26.056-.344.094-.041.02-.07.066-.125.093-.025.013-.06.017-.093.032-.051.023-.139.08-.188.093-.07.018-.152-.005-.281 0-.093.005-.248-.014-.25-.125-.002-.169.309-.096.469-.125.06-.012.083-.083.156-.125.035-.02.06-.04.094-.062.054-.038.147-.113.156-.156.007-.04-.037-.096-.031-.125.007-.039.076-.076.125-.125.076-.077.124-.17.218-.22.064-.034.19-.042.22-.093.006-.058-.003-.072 0-.125.04-.036.029-.055.062-.062.098-.022.198.036.312.03.05-.001.104.005.156-.03.044-.03.082-.072.125-.094.048-.026.098-.09.157-.094zM26.718 32c.025-.004.065.003.094 0 .042-.002.08 0 .125 0 .046 0 .107-.018.125 0-.029.12-.311.075-.406.031.002-.023.039-.027.063-.031zm-.343.219c.03 0 .061-.013.094 0-.084.07-.199.11-.344.156-.07.022-.175.045-.188-.031-.014-.095.064-.085.125-.094.08-.009.22-.03.313-.031zm11.844 0c-.06.02-.09.14 0 .156.042-.025.042-.08.03-.156-.023-.026-.012-.007-.03 0zm-.031.25c-.03.009-.063-.002-.094.03.002.103.02.162 0 .25.058.114.19.046.219-.03.034-.19-.038-.274-.125-.25zm.78.5a.269.269 0 0 0-.187.062c.068.11.193.13.344.156.055-.04.037-.15.063-.218-.066 0-.108.004-.188 0zm-15.874 3.843c.064.082.133.177.219.22.045.023.098.018.156.03.047.01.08.048.125.063.096.033.236.028.312.062.117.051.182.255.282.313.005.058-.019.113 0 .156.047.064.142.083.218.125.093.051.132.179.22.219.03.013.077-.015.124 0 .12.036.146.218.25.187.067-.02.083-.122.094-.187.045-.05.085-.125.156-.125.113-.002.146.139.188.25.023.062.077.122.093.187a1.64 1.64 0 0 1 0 .5c-.029.084-.15.128-.219.22-.032.043-.068.095-.093.124-.044.055-.092.076-.125.125-.018.027-.015.087-.031.125-.055.116-.14.204-.094.344.018.056.094.12.094.187 0 .08-.175.1-.188.188-.009.063.074.196.094.281.014.064.118.115.156.156.064.071.13.16.188.25.114.177.168.39.28.563.06.089.18.155.22.25.02.047-.019.144 0 .187.065.148.383.303.53.375.07.035.125.058.188.094.097.055.295.165.344.25.044.076.072.253.094.375.027.16-.007.296 0 .469.005.094.03.155.03.25 0 .033.003.092 0 .125-.001.113.01.23 0 .344a1.302 1.302 0 0 0 0 .187c.006.056.06.076.063.125.004.053-.068.115-.062.156.013.115.134.207.156.313.018.083.042.275.031.375-.007.053-.024.13-.03.187-.006.046.006.084 0 .125C24.663 43.962 23 41.182 23 38c0-.408.041-.794.094-1.188zm3.437.907c.088-.04.071.114 0 .125-.067.009-.065-.094 0-.125z" color="#000" fill="#1272a5"/></svg>