<svg xmlns="http://www.w3.org/2000/svg" xmlns:xlink="http://www.w3.org/1999/xlink" width="64" height="64"><defs><linearGradient xlink:href="#a" id="b" x1="65.965" y1="58.048" x2="65.965" y2="16.036" gradientUnits="userSpaceOnUse" gradientTransform="translate(384.571 483.798)"/><linearGradient id="a"><stop stop-color="#3e3e3e"/><stop offset="1" stop-color="#494949"/></linearGradient></defs><path d="M30.388 6.618H8.69c-2.662 0-4.803 2.195-4.803 4.916v28.331c0 2.722 2.141 4.914 4.803 4.914h46.616c2.662 0 4.806-2.192 4.806-4.914V16.008h-.028c-.08-2.65-2.167-4.769-4.778-4.769H35.01z" fill="#2d2d2d" fill-rule="evenodd" stroke-width=".814" stroke-linejoin="round"/><path d="M30.164 16.21l-3.108 1.538-3.646 1.806H6.853c-.704 0-1.373.142-1.981.4-.37.158-.665.431-.984.668v1.643c.32-.237.614-.51.984-.667a5.042 5.042 0 0 1 1.98-.401H25.29z" fill-opacity=".235" fill-rule="evenodd" stroke-width=".814" stroke-linejoin="round"/><path d="M414.735 500.008l-4.874 4.986h-18.436c-2.817 0-5.067 2.285-5.154 5.143h-.031v25.741c0 2.936 2.313 5.302 5.185 5.302h50.296c2.871 0 5.183-2.366 5.183-5.302V505.31c0-2.936-2.312-5.302-5.183-5.302z" fill="url(#b)" fill-rule="evenodd" stroke-width=".878" stroke-linejoin="round" transform="translate(-384.571 -483.798)"/><path d="M62.332 50.72c0 .733-.144 1.432-.406 2.067a5.299 5.299 0 0 1-1.11 1.684 5.165 5.165 0 0 1-1.647 1.134 5.084 5.084 0 0 1-2.02.416H6.852a5.095 5.095 0 0 1-2.022-.416 5.166 5.166 0 0 1-1.647-1.134 5.298 5.298 0 0 1-1.11-1.684 5.413 5.413 0 0 1-.405-2.068v1.361c0 2.936 2.313 5.302 5.184 5.302H57.15c2.872 0 5.183-2.366 5.183-5.302z" opacity=".4" fill-opacity=".235" fill-rule="evenodd" stroke-width=".878" stroke-linejoin="round"/><path d="M30.388 6.618l1.033 2.534 1.466 3.587H55.307a4.67 4.67 0 0 1 1.836.373c.564.24 1.073.588 1.502 1.019.43.43.778.943 1.026 1.515.247.57.394 1.2.414 1.862h.028v-1.5h-.028c-.08-2.65-2.167-4.769-4.778-4.769H35.01z" fill="#fff" fill-opacity=".235" fill-rule="evenodd" stroke-width=".814" stroke-linejoin="round"/><path d="M30.164 16.21l-.25.257v3.885h4.172V16.21h-3.922zm3.922 4.142v4.171h4.172v-4.171h-4.172zm4.172 0h4.172V16.21h-4.172v4.14zm4.172 0v4.171h4.172v-4.171H42.43zm4.172 0h4.171V16.21h-4.171v4.14zm4.171 0v4.171h4.172v-4.171h-4.172zm4.172 0h4.172v-3.737a5.078 5.078 0 0 0-1.969-.404h-2.203v4.14zm4.172 0v4.171h3.13v-4.171h-3.13zm0 4.171h-4.172v4.172h4.172v-4.172zm-8.344 0h-4.171v4.172h4.171v-4.172zm-8.343 0h-4.172v4.172h4.172v-4.172zm-8.344 0h-4.172v4.172h4.172v-4.172zm-4.172 0v-4.171h-3.799l-.373.382v3.79h4.172zm-4.172 0H21.57v4.172h4.172v-4.172zm-4.172 0v-3.326h-4.172v3.326h4.172zm-4.172 0h-4.171v4.172h4.171v-4.172zm-4.171 0v-3.326H9.055v3.326h4.172zm-4.172 0H4.883v4.172h4.172v-4.172zm-4.172 0v-2.927c-.004.002-.008 0-.012.002a5.12 5.12 0 0 0-1.619 1.1 5.296 5.296 0 0 0-1.107 1.632c-.026.06-.02.133-.043.193h2.78z" opacity=".6" fill="#5f5f5f" stroke-width="2.086"/><path d="M30.162 16.211l-4.872 4.986H6.853c-2.817 0-5.066 2.285-5.152 5.143h-.033v1.361h.033a5.455 5.455 0 0 1 .444-2.009 5.294 5.294 0 0 1 1.108-1.632 5.117 5.117 0 0 1 1.619-1.099 5.044 5.044 0 0 1 1.98-.403H27.025l1.775-3.587.644-1.303.002-.002.01-.013z" fill="#fff" fill-opacity=".235" fill-rule="evenodd" stroke-width=".878" stroke-linejoin="round"/><path d="M32 29c-2.77 0-5 2.23-5 5h1c0-2.424 1.923-4 4-4 2.078 0 4 1.576 4 4v4H24v9h16v-9h-3v-4c0-2.77-2.23-5-5-5zm-7 10h14v7H25z" fill="#7a7a7a"/></svg>