<svg xmlns="http://www.w3.org/2000/svg" xmlns:xlink="http://www.w3.org/1999/xlink" width="64" height="64"><defs><linearGradient xlink:href="#a" id="b" x1="65.965" y1="58.048" x2="65.965" y2="16.036" gradientUnits="userSpaceOnUse" gradientTransform="translate(384.571 483.798)"/><linearGradient id="a"><stop offset="0" stop-color="#3daee9"/><stop offset="1" stop-color="#6cc1ef"/></linearGradient></defs><g stroke-linejoin="round" fill-rule="evenodd"><path d="M30.388 6.618H8.69c-2.662 0-4.803 2.195-4.803 4.916v28.331c0 2.722 2.141 4.914 4.803 4.914h46.616c2.662 0 4.806-2.192 4.806-4.914V16.008h-.028c-.08-2.65-2.167-4.769-4.778-4.769H35.01z" fill="#147eb8"/><path d="M30.164 16.21l-3.108 1.538-3.646 1.806H6.853c-.704 0-1.373.142-1.981.4-.37.158-.665.431-.984.668v1.643c.32-.237.614-.51.984-.667a5.042 5.042 0 0 1 1.98-.401H25.29z" fill-opacity=".235"/><path d="M414.735 500.008l-4.874 4.986h-18.436c-2.817 0-5.067 2.285-5.154 5.143h-.031v25.741c0 2.936 2.313 5.302 5.185 5.302h50.296c2.871 0 5.183-2.366 5.183-5.302V505.31c0-2.936-2.312-5.302-5.183-5.302z" transform="translate(-384.571 -483.798)" fill="url(#b)"/><path d="M62.332 50.72a5.41 5.41 0 0 1-.406 2.067 5.299 5.299 0 0 1-1.11 1.684 5.165 5.165 0 0 1-1.647 1.134 5.084 5.084 0 0 1-2.02.416H6.852a5.095 5.095 0 0 1-2.022-.416 5.166 5.166 0 0 1-1.647-1.134 5.298 5.298 0 0 1-1.11-1.684 5.413 5.413 0 0 1-.405-2.068v1.361c0 2.936 2.313 5.302 5.184 5.302H57.15c2.872 0 5.183-2.366 5.183-5.302z" fill-opacity=".235" opacity=".4"/><path d="M30.162 16.211l-4.872 4.986H6.853c-2.817 0-5.066 2.285-5.152 5.143h-.033v1.361h.033a5.455 5.455 0 0 1 .444-2.009 5.294 5.294 0 0 1 1.108-1.632 5.117 5.117 0 0 1 1.619-1.099 5.044 5.044 0 0 1 1.98-.403h20.173l1.775-3.587.644-1.303.002-.002.01-.013zM30.388 6.618l1.033 2.534 1.466 3.587h22.42a4.67 4.67 0 0 1 1.836.373 4.74 4.74 0 0 1 1.502 1.019c.43.43.778.943 1.026 1.515.247.57.394 1.2.414 1.862h.028v-1.5h-.028c-.08-2.65-2.167-4.769-4.778-4.769H35.01z" fill-opacity=".235" fill="#fff"/></g><path style="line-height:normal;font-variant-ligatures:normal;font-variant-position:normal;font-variant-caps:normal;font-variant-numeric:normal;font-variant-alternates:normal;font-feature-settings:normal;text-indent:0;text-align:start;text-decoration-line:none;text-decoration-style:solid;text-decoration-color:#000;text-transform:none;text-orientation:mixed;shape-padding:0;isolation:auto;mix-blend-mode:normal;marker:none" d="M28.592 28.032c-1.685.124-3.108 1.196-4.24 2.329-.906.907-1.744 2.005-2.136 3.263-.393 1.257-.155 2.867 1.081 3.853.378.302.813.384 1.231.536-.418.151-.853.234-1.232.537a3.75 3.75 0 0 0-.425.396c-.97 1.057-1 2.532-.577 3.69.423 1.159 1.209 2.179 2.058 3.028.906.907 2.005 1.744 3.263 2.136 1.257.394 2.867.156 3.853-1.081.301-.378.384-.813.536-1.23.151.418.234.852.536 1.23.985 1.237 2.595 1.475 3.853 1.082 1.257-.393 2.356-1.23 3.262-2.136.907-.907 1.744-2.005 2.136-3.263.393-1.258.155-2.868-1.081-3.853-.378-.302-.813-.385-1.23-.536.417-.152.852-.234 1.23-.537 1.237-.985 1.474-2.595 1.082-3.852-.393-1.258-1.23-2.356-2.137-3.263-.85-.85-1.87-1.636-3.028-2.058-1.158-.422-2.633-.394-3.69.578a3.77 3.77 0 0 0-.397.425c-.302.378-.385.813-.536 1.231-.152-.418-.235-.853-.537-1.23a3.404 3.404 0 0 0-2.875-1.275zm.081 1.109c.717-.053 1.39.184 1.926.858 1.43 1.794.293 5.095 1.405 8.014 1.111-2.918-.027-6.22 1.404-8.014.09-.113.183-.21.28-.3 1.448-1.33 3.645-.088 5.181 1.448 1.639 1.639 2.943 4.03 1.15 5.461-1.796 1.43-5.097.293-8.015 1.405 2.917 1.112 6.219-.027 8.014 1.405 1.794 1.43.49 3.822-1.149 5.461-1.638 1.639-4.03 2.943-5.461 1.148-1.43-1.795-.293-5.096-1.404-8.014-1.112 2.918.026 6.219-1.405 8.014-1.43 1.795-3.822.49-5.462-1.148-1.536-1.536-2.778-3.734-1.447-5.181.088-.098.187-.191.3-.28 1.794-1.432 5.095-.293 8.014-1.405-2.918-1.112-6.22.027-8.015-1.405-1.794-1.43-.49-3.822 1.149-5.461 1.024-1.024 2.342-1.918 3.535-2.006z" font-weight="400" overflow="visible" color="#000" font-family="sans-serif" white-space="normal" fill-rule="evenodd" fill="#1272a5"/></svg>