<svg xmlns="http://www.w3.org/2000/svg" xmlns:xlink="http://www.w3.org/1999/xlink" width="64" height="64"><defs><linearGradient id="c"><stop stop-color="#1abc9c"/><stop offset="1" stop-color="#2980b9"/></linearGradient><linearGradient id="b"><stop stop-color="#cc4a5e"/><stop offset="1" stop-color="#aa478a"/></linearGradient><linearGradient id="a"><stop stop-color="#334545"/><stop offset="1" stop-color="#536161"/></linearGradient><linearGradient xlink:href="#a" id="k" y1="577.362" x1="430.567" y2="591.328" x2="423.75" gradientUnits="userSpaceOnUse" gradientTransform="matrix(-1.20833 0 0 1.5507 936.845 -352.84)"/><linearGradient xlink:href="#a" id="j" y1="577.102" x1="431.313" y2="571.445" x2="440.632" gradientUnits="userSpaceOnUse" gradientTransform="matrix(-1.20833 0 0 1.5507 936.845 -352.84)"/><linearGradient xlink:href="#a" id="i" y1="581.87" x1="406.537" y2="572.678" x2="423.32" gradientUnits="userSpaceOnUse" gradientTransform="matrix(-1.20833 0 0 1.5507 936.845 -352.84)"/><linearGradient xlink:href="#a" id="h" y1="572.334" x1="423.054" y2="566.766" x2="431.225" gradientUnits="userSpaceOnUse" gradientTransform="matrix(-1.20833 0 0 1.5507 936.845 -352.84)"/><linearGradient xlink:href="#a" id="g" y1="568.798" x1="431.571" y2="562.798" x2="439.571" gradientUnits="userSpaceOnUse" gradientTransform="matrix(-1.20833 0 0 1.5507 936.845 -352.84)"/><linearGradient xlink:href="#a" id="f" gradientUnits="userSpaceOnUse" gradientTransform="matrix(1.20833 0 0 1.5507 -77.119 -290.812)" x1="398.092" y1="542.224" x2="394.003" y2="524.9"/><linearGradient xlink:href="#b" id="e" gradientUnits="userSpaceOnUse" gradientTransform="matrix(1.20833 0 0 1.5507 -77.119 -290.812)" x1="404.045" y1="521.633" x2="430.736" y2="528.35"/><linearGradient xlink:href="#c" id="d" x1="438" y1="520.73" x2="457.443" y2="539.215" gradientUnits="userSpaceOnUse" gradientTransform="matrix(1.8125 0 0 2.11457 -1215.108 -604.5)"/></defs><g transform="translate(-384.571 -483.798)"><rect width="58" height="50.75" x="-445.571" y="490.423" ry="6.649" transform="scale(-1 1)" fill="url(#d)" fill-rule="evenodd"/><path d="M434.236 541.173h4.687a6.637 6.637 0 0 0 6.648-6.648V497.07a6.637 6.637 0 0 0-1.943-4.705c-.102-.101-.25-.145-.358-.24l-37.616 27.87z" fill="url(#e)"/><path d="M445.571 504.87v-7.799a6.637 6.637 0 0 0-1.943-4.705c-.102-.101-.25-.145-.358-.24l-37.616 27.87z" fill="#aa478a"/><path d="M387.571 533.318v1.207c0 .92.185 1.795.52 2.591a6.637 6.637 0 0 0 6.129 4.057h40.285l-28.809-21.286z" fill="url(#f)"/><path d="M415.675 527.28l-9.979-7.394v14.788z" fill="url(#g)"/><path d="M415.675 527.28v13.893h1.208l8.771-6.5z" fill="url(#h)"/><path d="M425.654 534.67v6.503h8.775z" fill="url(#i)"/><path d="M405.696 534.674v6.499h8.772z" fill="url(#j)"/><path d="M425.654 534.67l-8.774 6.503h8.774z" fill="url(#k)"/><path d="M388.14 537.187a6.636 6.636 0 0 0 1.375 2.043 6.633 6.633 0 0 0 4.705 1.943h44.703a6.633 6.633 0 0 0 4.705-1.943 6.636 6.636 0 0 0 1.375-2.043z" fill="#fff" fill-opacity=".784"/><path d="M435.148 538.127a2.287 2.287 0 0 1-.352.195l.048.188c.092-.029.177-.08.28-.145v1.69h.23v-1.928h-.206zM435.772 538.256l.077.193a.596.596 0 0 1 .43-.158c.22 0 .341.121.341.335v.014c-.003.15-.1.298-.251.465l-.666.74.03.21h1.127l.016-.198h-.895l.544-.58c.211-.228.34-.413.343-.656v-.008c0-.317-.222-.526-.573-.526-.25 0-.415.069-.523.17zM437.214 540.087h.267v-.3h-.267zm0-1.183h.267v-.299h-.267zM438.723 539.525c0 .235-.171.364-.425.364a.666.666 0 0 1-.428-.14l-.074.188c.071.068.254.148.505.148.375 0 .65-.214.65-.558 0-.272-.15-.446-.386-.5.209-.063.338-.213.338-.461 0-.31-.267-.479-.552-.479-.267 0-.439.058-.555.148l.074.188a.693.693 0 0 1 .43-.138c.228 0 .355.096.355.31 0 .303-.28.338-.576.338v.19c.36 0 .644.055.644.402zM440.092 538.418v.972h-.644zm.436 1.16l.019-.188h-.238v-1.263h-.24l-.849 1.252v.198h.872v.479h.217v-.479h.22z"/><path d="M393.071 538.088a.167.167 0 0 0-.166.166.167.167 0 0 0 .166.167.167.167 0 0 0 .167-.167.167.167 0 0 0-.167-.166zm.834 0l-.323.26.432.537-.406.406.297.297.666-.667zm-1.084.666a.25.25 0 0 0-.25.25.25.25 0 0 0 .25.25.25.25 0 0 0 .25-.25.25.25 0 0 0-.25-.25zm.5.834a.25.25 0 0 0-.25.25.25.25 0 0 0 .25.25.25.25 0 0 0 .25-.25.25.25 0 0 0-.25-.25z" color="#000"/></g></svg>