<svg xmlns="http://www.w3.org/2000/svg" xmlns:xlink="http://www.w3.org/1999/xlink" width="64" height="64"><defs><linearGradient xlink:href="#a" id="b" x1="65.965" y1="58.048" x2="65.965" y2="16.036" gradientUnits="userSpaceOnUse" gradientTransform="translate(384.571 483.798)"/><linearGradient id="a"><stop offset="0" stop-color="#3daee9"/><stop offset="1" stop-color="#6cc1ef"/></linearGradient></defs><g stroke-linejoin="round"><g fill-rule="evenodd"><path d="M30.388 6.618H8.69c-2.662 0-4.803 2.195-4.803 4.916v28.331c0 2.722 2.141 4.914 4.803 4.914h46.616c2.662 0 4.806-2.192 4.806-4.914V16.008h-.028c-.08-2.65-2.167-4.769-4.778-4.769H35.01z" fill="#147eb8" stroke-width=".814"/><path d="M30.164 16.21l-3.108 1.538-3.646 1.806H6.853c-.704 0-1.373.142-1.981.4-.37.158-.665.431-.984.668v1.643c.32-.237.614-.51.984-.667a5.042 5.042 0 0 1 1.98-.401H25.29z" fill-opacity=".235" stroke-width=".814"/><path d="M414.735 500.008l-4.874 4.986h-18.436c-2.817 0-5.067 2.285-5.154 5.143h-.031v25.741c0 2.936 2.313 5.302 5.185 5.302h50.296c2.871 0 5.183-2.366 5.183-5.302V505.31c0-2.936-2.312-5.302-5.183-5.302z" fill="url(#b)" stroke-width=".878" transform="translate(-384.571 -483.798)"/><path d="M62.332 50.72c0 .733-.144 1.432-.406 2.067a5.299 5.299 0 0 1-1.11 1.684 5.165 5.165 0 0 1-1.647 1.134 5.084 5.084 0 0 1-2.02.416H6.852a5.095 5.095 0 0 1-2.022-.416 5.166 5.166 0 0 1-1.647-1.134 5.298 5.298 0 0 1-1.11-1.684 5.413 5.413 0 0 1-.405-2.068v1.361c0 2.936 2.313 5.302 5.184 5.302H57.15c2.872 0 5.183-2.366 5.183-5.302z" opacity=".4" fill-opacity=".235" stroke-width=".878"/><path d="M30.162 16.211l-4.872 4.986H6.853c-2.817 0-5.066 2.285-5.152 5.143h-.033v1.361h.033a5.455 5.455 0 0 1 .444-2.009 5.294 5.294 0 0 1 1.108-1.632 5.117 5.117 0 0 1 1.619-1.099 5.044 5.044 0 0 1 1.98-.403H27.025l1.775-3.587.644-1.303.002-.002.01-.013z" fill="#fff" fill-opacity=".235" stroke-width=".878"/><path d="M30.388 6.618l1.033 2.534 1.466 3.587H55.307a4.67 4.67 0 0 1 1.836.373c.564.24 1.073.588 1.502 1.019.43.43.778.943 1.026 1.515.247.57.394 1.2.414 1.862h.028v-1.5h-.028c-.08-2.65-2.167-4.769-4.778-4.769H35.01z" fill="#fff" fill-opacity=".235" stroke-width=".814"/></g><path d="M32 29a7 7 0 0 0-7 7 7 7 0 0 0 .08 1.002A5 5 0 0 0 25 37a5 5 0 0 0-5 5 5 5 0 0 0 5 5h13a6 6 0 0 0 6-6 6 6 0 0 0-5.068-5.922A7 7 0 0 0 32 29zm0 1a6 6 0 0 1 .6.03 6 6 0 0 1 2.787 1.019 6 6 0 0 1 .002 0 6 6 0 0 1 1.31 1.22 6 6 0 0 1 0 .003 6 6 0 0 1 1.215 2.732A6 6 0 0 1 38 36a5 5 0 0 1 .996.1 5 5 0 0 1 .483.123 5 5 0 0 1 .002 0 5 5 0 0 1 .466.172 5 5 0 0 1 .002 0 5 5 0 0 1 .448.216 5 5 0 0 1 .004.002 5 5 0 0 1 .421.26 5 5 0 0 1 .004.002 5 5 0 0 1 .395.3 5 5 0 0 1 .002.003 5 5 0 0 1 .363.338 5 5 0 0 1 .002.002 5 5 0 0 1 .62.781 5 5 0 0 1 .001.002 5 5 0 0 1 .247.432 5 5 0 0 1 .002.002 5 5 0 0 1 .203.453 5 5 0 0 1 .002.002 5 5 0 0 1 .156.472 5 5 0 0 1 0 .002 5 5 0 0 1 .11.487 5 5 0 0 1 0 .002 5 5 0 0 1 .06.494A5 5 0 0 1 43 41a5 5 0 0 1-5 5H25a4 4 0 0 1-4-4 4 4 0 0 1 .02-.398A4 4 0 0 1 25 38a4 4 0 0 1 .299.014 4 4 0 0 1 0 .002 4 4 0 0 1 1.156.261 6 6 0 0 1-.342-1.146 6 6 0 0 1-.074-.508 6 6 0 0 1-.013-.115A6 6 0 0 1 26 36a6 6 0 0 1 .03-.6A6 6 0 0 1 32 30z" fill="#1272a5"/></g></svg>