<svg xmlns="http://www.w3.org/2000/svg" xmlns:xlink="http://www.w3.org/1999/xlink" width="64" height="64"><defs><linearGradient xlink:href="#a" id="b" x1="65.965" y1="58.048" x2="65.965" y2="16.036" gradientUnits="userSpaceOnUse" gradientTransform="translate(384.571 483.798)"/><linearGradient id="a"><stop stop-color="#3e3e3e"/><stop offset="1" stop-color="#494949"/></linearGradient></defs><path d="M30.388 6.618H8.69c-2.662 0-4.803 2.195-4.803 4.916v28.331c0 2.722 2.141 4.914 4.803 4.914h46.616c2.662 0 4.806-2.192 4.806-4.914V16.008h-.028c-.08-2.65-2.167-4.769-4.778-4.769H35.01z" fill="#2d2d2d" fill-rule="evenodd" stroke-width=".814" stroke-linejoin="round"/><path d="M30.164 16.21l-3.108 1.538-3.646 1.806H6.853c-.704 0-1.373.142-1.981.4-.37.158-.665.431-.984.668v1.643c.32-.237.614-.51.984-.667a5.042 5.042 0 0 1 1.98-.401H25.29z" fill-opacity=".235" fill-rule="evenodd" stroke-width=".814" stroke-linejoin="round"/><path d="M414.735 500.008l-4.874 4.986h-18.436c-2.817 0-5.067 2.285-5.154 5.143h-.031v25.741c0 2.936 2.313 5.302 5.185 5.302h50.296c2.871 0 5.183-2.366 5.183-5.302V505.31c0-2.936-2.312-5.302-5.183-5.302z" fill="url(#b)" fill-rule="evenodd" stroke-width=".878" stroke-linejoin="round" transform="translate(-384.571 -483.798)"/><path d="M30.388 6.618l1.033 2.534 1.466 3.587H55.307a4.67 4.67 0 0 1 1.836.373c.564.24 1.073.588 1.502 1.019.43.43.778.943 1.026 1.515.247.57.394 1.2.414 1.862h.028v-1.5h-.028c-.08-2.65-2.167-4.769-4.778-4.769H35.01z" fill="#fff" fill-opacity=".235" fill-rule="evenodd" stroke-width=".814" stroke-linejoin="round"/><path d="M30.162 16.211l-4.872 4.986H6.853c-2.817 0-5.066 2.285-5.152 5.143h-.033v1.361h.033a5.455 5.455 0 0 1 .444-2.009 5.294 5.294 0 0 1 1.108-1.632 5.117 5.117 0 0 1 1.619-1.099 5.044 5.044 0 0 1 1.98-.403H27.025l1.775-3.587.644-1.303.002-.002.01-.013z" fill="#fff" fill-opacity=".235" fill-rule="evenodd" stroke-width=".878" stroke-linejoin="round"/><path d="M1.668 45.072v4.186h3.121v-4.186H1.668zm3.121 4.186v4.187h4.186v-4.187H4.789zm4.186 0h4.187v-4.186H8.975v4.186zm4.187 0v4.187h4.186v-4.187h-4.186zm4.186 0h4.185v-4.186h-4.185v4.186zm4.185 0v4.187h4.188v-4.187h-4.188zm4.188 0h4.185v-4.186h-4.185v4.186zm4.185 0v4.187h4.188v-4.187h-4.188zm4.188 0h4.185v-4.186h-4.185v4.186zm4.185 0v4.187h4.188v-4.187h-4.188zm4.188 0h4.185v-4.186h-4.185v4.186zm4.185 0v4.187h4.186v-4.187h-4.186zm4.186 0h4.187v-4.186h-4.187v4.186zm4.187 0v4.187h4.186v-4.187h-4.186zm4.186 0h3.121v-4.186h-3.121v4.186zm0 4.187v3.494a5.166 5.166 0 0 0 1.607-1.107 5.295 5.295 0 0 0 1.11-1.684c.089-.215.076-.473.136-.703h-2.853zm-4.186 0h-4.187v3.938h4.187v-3.938zm-8.373 0h-4.185v3.938h4.185v-3.938zm-8.373 0h-4.185v3.938h4.185v-3.938zm-8.373 0h-4.185v3.938h4.185v-3.938zm-8.373 0h-4.185v3.938h4.185v-3.938zm-8.37 0H8.974v3.938h4.187v-3.938zm-8.374 0H1.938c.06.23.05.488.138.703.262.635.64 1.205 1.11 1.684a5.167 5.167 0 0 0 1.603 1.105v-3.492z" opacity=".6" fill="#5f5f5f" stroke-width="2.093"/><path d="M62.332 50.72c0 .733-.144 1.432-.406 2.067a5.299 5.299 0 0 1-1.11 1.684 5.165 5.165 0 0 1-1.647 1.134 5.084 5.084 0 0 1-2.02.416H6.852a5.095 5.095 0 0 1-2.022-.416 5.166 5.166 0 0 1-1.647-1.134 5.298 5.298 0 0 1-1.11-1.684 5.413 5.413 0 0 1-.405-2.068v1.361c0 2.936 2.313 5.302 5.184 5.302H57.15c2.872 0 5.183-2.366 5.183-5.302z" opacity=".4" fill-opacity=".235" fill-rule="evenodd" stroke-width=".878" stroke-linejoin="round"/><path d="M32 29c-2.77 0-5 2.23-5 5v4h-3v9h16v-9h-3v-4c0-2.77-2.23-5-5-5zm0 1c2.078 0 4 1.576 4 4v4h-8v-4c0-2.424 1.923-4 4-4zm-7 9h14v7H25z" fill="#7a7a7a"/></svg>