<svg xmlns="http://www.w3.org/2000/svg" xmlns:xlink="http://www.w3.org/1999/xlink" width="64" height="64"><defs><linearGradient xlink:href="#a" id="b" x1="65.965" y1="58.048" x2="65.965" y2="16.036" gradientUnits="userSpaceOnUse" gradientTransform="matrix(1 0 0 .84187 384.571 492.872)"/><linearGradient id="a"><stop offset="0" stop-color="#3daee9"/><stop offset="1" stop-color="#6cc1ef"/></linearGradient></defs><g fill-rule="evenodd" stroke-linejoin="round"><path d="M30.388 6.618H8.69c-2.662 0-4.803 2.195-4.803 4.916v28.331c0 2.722 2.141 4.914 4.803 4.914h46.616c2.662 0 4.806-2.192 4.806-4.914V16.008h-.028c-.08-2.65-2.167-4.769-4.778-4.769H35.01z" fill="#147eb8" stroke-width=".814"/><path d="M30.164 22.72l-3.108 1.295-3.646 1.52H6.853c-.704 0-1.373.12-1.981.338-.37.132-.665.362-.984.562v1.383c.32-.2.614-.43.984-.562a5.869 5.869 0 0 1 1.98-.337H25.29z" fill-opacity=".235" stroke-width=".747"/><path d="M414.735 506.519l-4.874 4.197h-18.436c-2.817 0-5.067 1.924-5.154 4.33h-.031v21.67c0 2.473 2.313 4.464 5.185 4.464h50.296c2.871 0 5.183-1.991 5.183-4.463v-25.735c0-2.472-2.312-4.463-5.183-4.463z" fill="url(#b)" stroke-width=".806" transform="translate(-384.571 -483.798)"/><path d="M62.332 51.773c0 .618-.144 1.206-.406 1.74a4.482 4.482 0 0 1-1.11 1.418 5.286 5.286 0 0 1-1.647.955c-.62.225-1.302.35-2.02.35H6.852a5.927 5.927 0 0 1-2.022-.35 5.287 5.287 0 0 1-1.647-.955 4.481 4.481 0 0 1-1.11-1.418 3.939 3.939 0 0 1-.405-1.74v1.146c0 2.472 2.313 4.463 5.184 4.463H57.15c2.872 0 5.183-1.991 5.183-4.463z" opacity=".4" fill-opacity=".235" stroke-width=".806"/><path d="M30.162 22.722l-4.872 4.197H6.853c-2.817 0-5.066 1.924-5.152 4.33h-.033v1.146h.033a3.991 3.991 0 0 1 .444-1.692 4.508 4.508 0 0 1 1.108-1.374 5.252 5.252 0 0 1 1.619-.925 5.87 5.87 0 0 1 1.98-.34H27.025l1.775-3.02.644-1.096.002-.002.01-.011z" fill="#fff" fill-opacity=".235" stroke-width=".806"/><path d="M30.388 6.618l1.033 2.534 1.466 3.587H55.307a4.67 4.67 0 0 1 1.836.373c.564.24 1.073.588 1.502 1.019.43.43.778.943 1.026 1.515.247.57.394 1.2.414 1.862h.028v-1.5h-.028c-.08-2.65-2.167-4.769-4.778-4.769H35.01z" fill="#fff" fill-opacity=".235" stroke-width=".814"/></g></svg>