<svg xmlns="http://www.w3.org/2000/svg" xmlns:xlink="http://www.w3.org/1999/xlink" width="64" height="64"><defs><linearGradient xlink:href="#a" id="b" x1="65.965" y1="58.048" x2="65.965" y2="16.036" gradientUnits="userSpaceOnUse" gradientTransform="matrix(1 0 0 .6615 0 19.424)"/><linearGradient id="a"><stop offset="0" stop-color="#3daee9"/><stop offset="1" stop-color="#6cc1ef"/></linearGradient></defs><path d="M30.388 6.618H8.69c-2.662 0-4.803 2.195-4.803 4.916v28.331c0 2.722 2.141 4.914 4.803 4.914h46.616c2.662 0 4.806-2.192 4.806-4.914V16.008h-.028c-.08-2.65-2.167-4.769-4.778-4.769H35.01z" fill="#147eb8" fill-rule="evenodd"/><path d="M30.164 30.147l-3.108 1.017-3.646 1.195H6.853a7.35 7.35 0 0 0-1.981.264c-.37.105-.665.285-.984.442v1.087c.32-.157.614-.337.984-.441a5.042 3.335 0 0 1 1.98-.266H25.29z" fill-opacity=".235" fill-rule="evenodd"/><path d="M30.164 30.147l-4.874 3.298H6.854c-2.817 0-5.067 1.511-5.154 3.402h-.031v17.028c0 1.942 2.313 3.507 5.185 3.507H57.15c2.871 0 5.183-1.565 5.183-3.507V33.654c0-1.942-2.312-3.507-5.183-3.507z" fill="url(#b)" fill-rule="evenodd"/><path d="M62.332 52.975c0 .485-.144.947-.406 1.367a5.299 3.505 0 0 1-1.11 1.114 5.165 3.417 0 0 1-1.647.75 5.084 3.363 0 0 1-2.02.276H6.852a5.095 3.37 0 0 1-2.022-.275 5.166 3.417 0 0 1-1.647-.75 5.298 3.505 0 0 1-1.11-1.115 5.413 3.58 0 0 1-.405-1.368v.9c0 1.943 2.313 3.508 5.184 3.508H57.15c2.872 0 5.183-1.565 5.183-3.507z" opacity=".4" fill-opacity=".235" fill-rule="evenodd"/><path d="M30.162 30.147l-4.872 3.298H6.853c-2.817 0-5.066 1.512-5.152 3.403h-.033v.9h.033a5.455 3.609 0 0 1 .444-1.329 5.294 3.502 0 0 1 1.108-1.08 5.117 3.385 0 0 1 1.619-.727 5.044 3.337 0 0 1 1.98-.266h20.173l1.775-2.373.644-.862.002-.001.01-.009zM30.388 6.618l1.033 2.534 1.466 3.587h22.42a4.67 4.67 0 0 1 1.836.373 4.74 4.74 0 0 1 1.502 1.019c.43.43.778.943 1.026 1.515.247.57.394 1.2.414 1.862h.028v-1.5h-.028c-.08-2.65-2.167-4.769-4.778-4.769H35.01z" fill="#fff" fill-opacity=".235" fill-rule="evenodd"/></svg>