<?xml version="1.0" encoding="UTF-8" standalone="no"?>
<svg
   xmlns:dc="http://purl.org/dc/elements/1.1/"
   xmlns:cc="http://creativecommons.org/ns#"
   xmlns:rdf="http://www.w3.org/1999/02/22-rdf-syntax-ns#"
   xmlns:svg="http://www.w3.org/2000/svg"
   xmlns="http://www.w3.org/2000/svg"
   xmlns:xlink="http://www.w3.org/1999/xlink"
   xmlns:sodipodi="http://sodipodi.sourceforge.net/DTD/sodipodi-0.dtd"
   xmlns:inkscape="http://www.inkscape.org/namespaces/inkscape"
   version="1.1"
   viewBox="0 0 64 64"
   id="svg93"
   sodipodi:docname="user-trash-full.svg"
   inkscape:version="0.92.4 (5da689c313, 2019-01-14)">
  <metadata
     id="metadata97">
    <rdf:RDF>
      <cc:Work
         rdf:about="">
        <dc:format>image/svg+xml</dc:format>
        <dc:type
           rdf:resource="http://purl.org/dc/dcmitype/StillImage" />
        <dc:title></dc:title>
      </cc:Work>
    </rdf:RDF>
  </metadata>
  <sodipodi:namedview
     pagecolor="#ffffff"
     bordercolor="#666666"
     borderopacity="1"
     objecttolerance="10"
     gridtolerance="10"
     guidetolerance="10"
     inkscape:pageopacity="0"
     inkscape:pageshadow="2"
     inkscape:window-width="1366"
     inkscape:window-height="711"
     id="namedview95"
     showgrid="true"
     inkscape:zoom="1.3948786"
     inkscape:cx="32"
     inkscape:cy="32"
     inkscape:window-x="0"
     inkscape:window-y="25"
     inkscape:window-maximized="1"
     inkscape:current-layer="svg93">
    <inkscape:grid
       type="xygrid"
       id="grid904" />
  </sodipodi:namedview>
  <defs
     id="defs36">
    <linearGradient
       id="r"
       x1="394.57101"
       x2="399.57101"
       y1="517.79797"
       y2="522.79797"
       gradientTransform="matrix(2,0,0,2,-769.142,-1031.596)"
       gradientUnits="userSpaceOnUse">
      <stop
         stop-color="#d4ba94"
         offset="0"
         id="stop2" />
      <stop
         stop-color="#bb9d71"
         offset="1"
         id="stop4" />
    </linearGradient>
    <linearGradient
       id="s"
       x1="390.57101"
       x2="410.57101"
       y1="521.79797"
       y2="545.79797"
       gradientTransform="matrix(2,0,0,1.8333333,-769.142,-942.62968)"
       gradientUnits="userSpaceOnUse">
      <stop
         stop-color="#bdc3c7"
         offset="0"
         id="stop7" />
      <stop
         stop-color="#8a9696"
         offset="1"
         id="stop9" />
    </linearGradient>
    <linearGradient
       id="f"
       x1="395.57101"
       x2="395.57101"
       y1="520.79797"
       y2="516.79797"
       gradientTransform="matrix(.1681316 1.9929204 -1.9929204 .1681316 1025.8878 -851.8404)"
       gradientUnits="userSpaceOnUse">
      <stop
         stop-color="#afb0b3"
         offset="0"
         id="stop12" />
      <stop
         stop-color="#bdc3c7"
         offset="1"
         id="stop14" />
    </linearGradient>
    <radialGradient
       id="v"
       cx="16"
       cy="8.5"
       r="4"
       gradientTransform="matrix(.29423026 3.4876108 -2.9893806 .25219738 76.029512 -23.917134)"
       gradientUnits="userSpaceOnUse">
      <stop
         stop-color="#4f575f"
         stop-opacity=".25"
         offset="0"
         id="stop17" />
      <stop
         stop-color="#9da5ab"
         offset="1"
         id="stop19" />
    </radialGradient>
    <linearGradient
       id="d"
       x1="412.57101"
       x2="412.57101"
       y1="522.79797"
       y2="520.79797"
       gradientTransform="matrix(.1681316 1.9929204 -1.9929204 .1681316 1025.8878 -851.8404)"
       gradientUnits="userSpaceOnUse">
      <stop
         stop-color="#9da5ab"
         offset="0"
         id="stop22" />
      <stop
         stop-color="#bdc3c7"
         offset="1"
         id="stop24" />
    </linearGradient>
    <linearGradient
       id="h"
       x1="391.57101"
       x2="394.57101"
       y1="534.79797"
       y2="534.79797"
       gradientTransform="matrix(1.33334,0,0,1.8,-498.094,-926.63634)"
       gradientUnits="userSpaceOnUse"
       xlink:href="#a" />
    <linearGradient
       id="j"
       x1="391.57101"
       x2="394.57101"
       y1="534.79797"
       y2="534.79797"
       gradientTransform="matrix(1.33334,0,0,1.7999999,-508.096,-926.63626)"
       gradientUnits="userSpaceOnUse"
       xlink:href="#a" />
    <linearGradient
       id="k"
       x1="391.57101"
       x2="394.57101"
       y1="534.79797"
       y2="534.79797"
       gradientTransform="matrix(1.33334,0,0,1.8,-486.096,-926.63634)"
       gradientUnits="userSpaceOnUse"
       xlink:href="#a" />
    <linearGradient
       id="q"
       x1="391.57101"
       x2="394.57101"
       y1="534.79797"
       y2="534.79797"
       gradientTransform="matrix(1.33334,0,0,1.8,-476.094,-926.63634)"
       gradientUnits="userSpaceOnUse"
       xlink:href="#a" />
    <radialGradient
       id="t"
       cx="20.571428"
       cy="8.5"
       r="4"
       gradientTransform="matrix(.62911132 7.4570672 -2.9893806 .25219744 63.81406 -121.1292)"
       gradientUnits="userSpaceOnUse">
      <stop
         stop-color="#4f575f"
         stop-opacity=".25098041"
         offset="0"
         id="stop31" />
      <stop
         stop-color="#8a939a"
         offset="1"
         id="stop33" />
    </radialGradient>
    <radialGradient
       id="l"
       cx="20.571428"
       cy="8.5"
       r="4"
       gradientTransform="matrix(0.62914934,7.4570641,-1.4946897,0.12610637,51.108517,-120.05735)"
       gradientUnits="userSpaceOnUse">
      <stop
         stop-color="#4f575f"
         stop-opacity=".25098041"
         offset="0"
         id="stop2-3" />
      <stop
         stop-color="#8a939a"
         offset="1"
         id="stop4-6" />
    </radialGradient>
    <radialGradient
       id="b-7"
       cx="16"
       cy="8.5"
       r="4"
       gradientTransform="matrix(0.29424808,3.4876092,-2.9893793,0.25221264,76.029326,-23.917248)"
       gradientUnits="userSpaceOnUse">
      <stop
         stop-color="#4f575f"
         stop-opacity=".25"
         offset="0"
         id="stop21" />
      <stop
         stop-color="#9da5ab"
         offset="1"
         id="stop23" />
    </radialGradient>
    <linearGradient
       id="e-5"
       x1="395.57101"
       x2="395.57101"
       y1="520.79797"
       y2="516.79797"
       gradientTransform="matrix(0.16814176,1.9929196,-1.9929196,0.16814176,1025.8833,-851.84537)"
       gradientUnits="userSpaceOnUse">
      <stop
         stop-color="#afb0b3"
         offset="0"
         id="stop31-3" />
      <stop
         stop-color="#bdc3c7"
         offset="1"
         id="stop33-5" />
    </linearGradient>
    <linearGradient
       id="c-6"
       x1="412.57101"
       x2="412.57101"
       y1="522.79797"
       y2="520.79797"
       gradientTransform="matrix(0.16814176,1.9929196,-1.9929196,0.16814176,1025.8833,-851.84537)"
       gradientUnits="userSpaceOnUse">
      <stop
         stop-color="#9da5ab"
         offset="0"
         id="stop26" />
      <stop
         stop-color="#bdc3c7"
         offset="1"
         id="stop28" />
    </linearGradient>
    <linearGradient
       inkscape:collect="always"
       xlink:href="#s"
       id="linearGradient882"
       x1="52.039062"
       y1="14"
       x2="92.126732"
       y2="57.544556"
       gradientUnits="userSpaceOnUse"
       gradientTransform="translate(-40)" />
    <linearGradient
       id="j-9"
       x1="391.57101"
       x2="394.57101"
       y1="534.79797"
       y2="534.79797"
       gradientTransform="matrix(1.33334,0,0,1.5528713,-476.094,-796.94369)"
       gradientUnits="userSpaceOnUse"
       xlink:href="#a" />
    <linearGradient
       id="linearGradient940">
      <stop
         stop-color="#4f575f"
         stop-opacity=".4"
         offset="0"
         id="stop14-1" />
      <stop
         stop-color="#4f575f"
         stop-opacity=".6"
         offset=".5"
         id="stop16" />
      <stop
         stop-color="#4f575f"
         stop-opacity=".4"
         offset="1"
         id="stop18" />
    </linearGradient>
    <linearGradient
       id="i-2"
       x1="391.57101"
       x2="394.57101"
       y1="534.79797"
       y2="534.79797"
       gradientTransform="matrix(1.33334,0,0,1.8,-486.096,-926.63634)"
       gradientUnits="userSpaceOnUse"
       xlink:href="#a" />
    <linearGradient
       id="g-7"
       x1="391.57101"
       x2="394.57101"
       y1="534.79797"
       y2="534.79797"
       gradientTransform="matrix(1.33334,0,0,1.8,-498.094,-926.63634)"
       gradientUnits="userSpaceOnUse"
       xlink:href="#a" />
    <linearGradient
       id="h-0"
       x1="391.57101"
       x2="394.57101"
       y1="534.79797"
       y2="534.79797"
       gradientTransform="matrix(1.33334,0,0,1.5528712,-508.096,-796.94362)"
       gradientUnits="userSpaceOnUse"
       xlink:href="#a" />
  </defs>
  <linearGradient
     id="u"
     x1="393.57101"
     x2="396.07101"
     y1="521.79797"
     y2="524.29797"
     gradientTransform="matrix(2,0,0,2,-769.142,-1029.596)"
     gradientUnits="userSpaceOnUse"
     xlink:href="#b" />
  <linearGradient
     id="b">
    <stop
       stop-color="#fcfcfc"
       offset="0"
       id="stop39" />
    <stop
       stop-color="#eff0f1"
       offset="1"
       id="stop41" />
  </linearGradient>
  <linearGradient
     id="e"
     x1="399.57101"
     x2="400.57101"
     y1="521.79797"
     y2="523.79797"
     gradientTransform="matrix(2,0,0,2,-769.142,-1029.596)"
     gradientUnits="userSpaceOnUse"
     xlink:href="#c" />
  <linearGradient
     id="c">
    <stop
       stop-color="#292c2f"
       offset="0"
       id="stop45" />
    <stop
       stop-color="#292c2f"
       stop-opacity="0"
       offset="1"
       id="stop47" />
  </linearGradient>
  <linearGradient
     id="g"
     x1="409.57101"
     x2="405.57101"
     y1="521.79797"
     y2="525.79797"
     gradientTransform="matrix(-2,0,0,2,849.144,-1029.596)"
     gradientUnits="userSpaceOnUse"
     xlink:href="#b" />
  <linearGradient
     id="i"
     x1="407.57101"
     x2="408.57101"
     y1="521.79797"
     y2="523.79797"
     gradientTransform="matrix(2,0,0,2,-769.142,-1029.596)"
     gradientUnits="userSpaceOnUse"
     xlink:href="#c" />
  <linearGradient
     id="a">
    <stop
       stop-color="#4f575f"
       stop-opacity=".4"
       offset="0"
       id="stop52" />
    <stop
       stop-color="#4f575f"
       stop-opacity=".6"
       offset=".5"
       id="stop54" />
    <stop
       stop-color="#4f575f"
       stop-opacity=".4"
       offset="1"
       id="stop56" />
  </linearGradient>
  <path
     d="m42 8-14 6-6-6-8 6v2l6 16 28-18z"
     fill="url(#r)"
     stroke-width="2"
     id="path59" />
  <path
     style="opacity:1;fill:url(#linearGradient882);fill-opacity:1;fill-rule:nonzero;stroke:none;stroke-width:1.97765291;stroke-linejoin:miter;stroke-miterlimit:4;stroke-dasharray:none;stroke-opacity:1"
     d="m 12.039062,14 v 11.152344 3.707031 17.988281 C 12.039062,53.026128 17.012935,58 23.191406,58 H 40.84766 C 47.02613,58 52,53.026128 52,46.847656 V 27.832031 25.152344 14 H 40.84766 23.191406 Z"
     id="rect851"
     inkscape:connector-curvature="0" />
  <path
     inkscape:connector-curvature="0"
     style="opacity:0.2;fill:url(#e);stroke-width:2"
     id="path73"
     d="M 26,30 38,22 30,14 H 18 Z" />
  <path
     inkscape:connector-curvature="0"
     style="fill:url(#g-7);stroke-width:1.89736652"
     id="path55"
     d="m 26.00002,18 c 1.108,0 2,0.8028 2,1.8 v 32.4 c 0,0.9972 -0.892,1.8 -2,1.8 -1.108,0 -2,-0.8028 -2,-1.8 V 19.8 c 0,-0.9972 0.892,-1.8 2,-1.8 z" />
  <path
     inkscape:connector-curvature="0"
     style="fill:url(#u);stroke-width:2"
     id="path75"
     d="m 18,14 4,8 12,-4 -4,-4 z" />
  <path
     inkscape:connector-curvature="0"
     style="fill:url(#h-0);stroke-width:1.7623117"
     id="path57"
     d="m 16.00002,18 c 1.108,0 2,0.69258 2,1.552871 v 27.951683 c 0,0.860292 -0.892,1.552872 -2,1.552872 -1.108,0 -2,-0.69258 -2,-1.552872 V 19.552871 c 0,-0.860291 0.892,-1.552871 2,-1.552871 z" />
  <path
     inkscape:connector-curvature="0"
     style="fill:url(#i-2);stroke-width:1.89736652"
     id="path59-9"
     d="m 38.00002,18 c 1.108,0 2,0.8028 2,1.8 v 32.4 c 0,0.9972 -0.892,1.8 -2,1.8 -1.108,0 -2,-0.8028 -2,-1.8 V 19.8 c 0,-0.9972 0.892,-1.8 2,-1.8 z" />
  <path
     inkscape:connector-curvature="0"
     style="fill:url(#g);stroke-width:2"
     id="path77"
     d="m 46,14 -8,8 -8,-8 z" />
  <path
     inkscape:connector-curvature="0"
     style="opacity:0.2;fill:url(#i);stroke-width:2"
     id="path79"
     d="M 38,22 52,36 V 14 h -6 z" />
  <path
     inkscape:connector-curvature="0"
     style="fill:url(#j-9);stroke-width:1.7623117"
     id="path61-3"
     d="m 48.00002,18 c 1.108,0 2,0.69258 2,1.552871 v 27.951683 c 0,0.860292 -0.892,1.552872 -2,1.552872 -1.108,0 -2,-0.69258 -2,-1.552872 V 19.552871 c 0,-0.860291 0.892,-1.552871 2,-1.552871 z" />
  <path
     inkscape:connector-curvature="0"
     style="fill:url(#c-6)"
     d="m 53.478012,12.106192 c -0.09315,-1.104078 -1.056984,-1.917929 -2.161061,-1.824778 l -1.99292,0.168142 4.035402,47.830069 1.99292,-0.168142 c 1.104077,-0.09315 1.917928,-1.056984 1.824778,-2.161061 z"
     id="path51" />
  <path
     style="opacity:0.2;fill:#000000;fill-opacity:1;fill-rule:nonzero;stroke:none;stroke-width:1.97765291;stroke-linejoin:miter;stroke-miterlimit:4;stroke-dasharray:none;stroke-opacity:1"
     d="m 52,44.847656 c 0,1.544618 -0.31021,3.014461 -0.87305,4.34961 -0.56284,1.335148 -1.37883,2.53508 -2.38672,3.542968 -1.00788,1.007889 -2.20782,1.82388 -3.54296,2.386719 C 43.86212,55.689792 42.39227,56 40.84766,56 H 23.191406 c -1.544618,0 -3.014461,-0.310208 -4.349609,-0.873047 -1.335148,-0.562839 -2.53508,-1.37883 -3.542969,-2.386719 -1.007888,-1.007888 -1.823879,-2.20782 -2.386719,-3.542968 -0.562839,-1.335149 -0.873047,-2.804992 -0.873047,-4.34961 v 2 C 12.039062,53.026128 17.012935,58 23.191406,58 H 40.84766 C 47.02613,58 52,53.026128 52,46.847656 Z"
     id="path903"
     inkscape:connector-curvature="0" />
  <path
     d="m 60.633763,25.552203 c -0.09315,-1.104077 -1.056984,-1.917928 -2.161061,-1.824777 l -3.98584,0.336283 0.336284,3.985839 1.49469,-0.126106 c 0.262408,-0.02275 0.497468,0.161968 0.537407,0.422315 l 0.930664,11.030809 c 0.0032,0.262656 -0.19742,0.48299 -0.459221,0.504393 l -1.494689,0.126107 0.336283,3.985839 3.985839,-0.336284 c 1.104078,-0.09315 1.917928,-1.056984 1.824778,-2.161061 z"
     id="path47"
     inkscape:connector-curvature="0"
     style="fill:url(#e-5)"
     sodipodi:nodetypes="ssccccccccsss" />
  <path
     d="m 57.812525,27.797336 c -0.04658,-0.552039 -0.528492,-0.958965 -1.08053,-0.912389 l -1.99292,0.168141 0.08407,0.99646 1.49469,-0.126106 c 0.262408,-0.02275 0.497468,0.161968 0.537407,0.422315 l 0.930664,11.030809 c 0.0032,0.262656 -0.19742,0.48299 -0.459221,0.504393 l -1.494689,0.126107 0.08407,0.996459 1.99292,-0.168141 c 0.552039,-0.04658 0.958964,-0.528492 0.912389,-1.080531 z"
     id="path49"
     inkscape:connector-curvature="0"
     style="fill:url(#b-7)"
     sodipodi:nodetypes="ssccccccccsss" />
  <path
     d="m 49.324031,10.449556 4.035402,47.830069 0.99646,-0.08407 -4.026555,-47.725206 z"
     id="path67-2"
     style="fill:url(#l);stroke-width:1.41266239"
     inkscape:connector-curvature="0" />
</svg>
