<svg xmlns="http://www.w3.org/2000/svg" xmlns:xlink="http://www.w3.org/1999/xlink" width="48" height="48">
  <defs id="acyl-settings">
    <linearGradient id="acyl-gradient" x1="0%" x2="0%" y1="0%" y2="100%">
      <stop offset="100%" style="stop-color:#A0A0A0;stop-opacity:1.000000"/>
    </linearGradient>
    <g id="acyl-filter">
  </g>
    <g id="acyl-drawing">
      <path id="path-main" d="M 10.23 2.898 C 8.993 2.898 8 3.918 8 5.188 L 8 42.6 C 8 43.87 8.993 44.89 10.23 44.89 L 37.77 44.89 C 39.01 44.89 40 43.87 40 42.6 L 40 14 L 29.16 2.898 L 10.23 2.898 z M 20.59 13.42 C 20.92 13.42 21.2 13.48 21.44 13.6 C 21.66 13.72 21.83 13.87 21.96 14.07 C 22.11 14.31 22.19 14.6 22.19 14.93 L 22.19 16.9 C 22.19 17.24 22.11 17.52 21.96 17.76 C 21.83 17.96 21.66 18.12 21.44 18.23 C 21.2 18.35 20.92 18.42 20.59 18.42 C 20.25 18.42 19.97 18.35 19.73 18.23 C 19.51 18.11 19.34 17.96 19.21 17.76 C 19.06 17.52 18.98 17.24 18.98 16.9 L 18.98 14.93 C 18.98 14.6 19.06 14.31 19.21 14.07 C 19.34 13.87 19.51 13.71 19.73 13.6 C 19.97 13.48 20.25 13.42 20.59 13.42 z M 16.57 13.47 L 17.61 13.47 L 17.61 18.36 L 16.57 18.36 L 16.57 14.6 L 16.17 14.89 L 15.51 14.24 L 16.57 13.47 z M 20.59 14.25 C 20.49 14.25 20.4 14.27 20.33 14.31 C 20.25 14.35 20.19 14.41 20.13 14.49 C 20.06 14.61 20.02 14.76 20.02 14.93 L 20.02 16.06 L 21.13 14.71 C 21.11 14.63 21.08 14.56 21.04 14.49 C 20.99 14.41 20.92 14.35 20.84 14.31 C 20.77 14.27 20.69 14.25 20.59 14.25 z M 21.15 15.77 L 20.04 17.12 C 20.06 17.2 20.09 17.27 20.13 17.34 C 20.18 17.42 20.25 17.48 20.33 17.52 C 20.41 17.56 20.49 17.58 20.59 17.58 C 20.69 17.58 20.77 17.56 20.84 17.52 C 20.92 17.48 20.98 17.42 21.04 17.34 C 21.11 17.22 21.15 17.08 21.15 16.9 L 21.15 15.77 z M 20.59 20.14 C 20.92 20.14 21.2 20.2 21.44 20.33 C 21.66 20.44 21.83 20.6 21.96 20.79 C 22.11 21.03 22.19 21.32 22.19 21.66 L 22.19 23.62 C 22.19 23.96 22.11 24.25 21.96 24.49 C 21.83 24.69 21.66 24.84 21.44 24.96 C 21.2 25.08 20.92 25.14 20.59 25.14 C 20.25 25.14 19.97 25.08 19.73 24.96 C 19.51 24.84 19.34 24.68 19.21 24.49 C 19.06 24.25 18.98 23.96 18.98 23.62 L 18.98 21.66 C 18.98 21.32 19.06 21.03 19.21 20.79 C 19.34 20.6 19.51 20.44 19.73 20.33 C 19.97 20.2 20.25 20.14 20.59 20.14 z M 16.57 20.2 L 17.61 20.2 L 17.61 25.09 L 16.57 25.09 L 16.57 21.33 L 16.17 21.62 L 15.51 20.97 L 16.57 20.2 z M 24.01 20.2 L 25.05 20.2 L 25.05 25.09 L 24.01 25.09 L 24.01 21.33 L 23.61 21.62 L 22.95 20.97 L 24.01 20.2 z M 20.59 20.98 C 20.49 20.98 20.4 21 20.33 21.04 C 20.25 21.08 20.19 21.14 20.13 21.22 C 20.06 21.34 20.02 21.48 20.02 21.66 L 20.02 22.79 L 21.13 21.43 C 21.11 21.35 21.08 21.28 21.04 21.22 C 20.99 21.14 20.92 21.08 20.84 21.04 C 20.77 21 20.69 20.98 20.59 20.98 z M 21.15 22.5 L 20.04 23.85 C 20.06 23.93 20.09 24 20.13 24.06 C 20.18 24.14 20.25 24.2 20.33 24.24 C 20.41 24.28 20.49 24.3 20.59 24.3 C 20.69 24.3 20.77 24.28 20.84 24.24 C 20.92 24.2 20.98 24.14 21.04 24.06 C 21.11 23.95 21.15 23.8 21.15 23.62 L 21.15 22.5 z M 20.59 26.86 C 20.92 26.86 21.2 26.92 21.44 27.04 C 21.66 27.16 21.83 27.32 21.96 27.51 C 22.11 27.75 22.19 28.04 22.19 28.38 L 22.19 30.34 C 22.19 30.68 22.11 30.97 21.96 31.21 C 21.83 31.4 21.66 31.56 21.44 31.67 C 21.2 31.8 20.92 31.86 20.59 31.86 C 20.25 31.86 19.97 31.8 19.73 31.67 C 19.51 31.56 19.34 31.4 19.21 31.21 C 19.06 30.97 18.98 30.68 18.98 30.34 L 18.98 28.38 C 18.98 28.04 19.06 27.75 19.21 27.51 C 19.34 27.31 19.51 27.16 19.73 27.04 C 19.97 26.92 20.25 26.86 20.59 26.86 z M 28.02 26.86 C 28.35 26.86 28.64 26.92 28.88 27.04 C 29.1 27.16 29.27 27.32 29.4 27.51 C 29.55 27.75 29.63 28.04 29.63 28.38 L 29.63 30.34 C 29.63 30.68 29.55 30.97 29.4 31.21 C 29.27 31.4 29.1 31.56 28.88 31.67 C 28.64 31.8 28.35 31.86 28.02 31.86 C 27.69 31.86 27.4 31.8 27.17 31.67 C 26.95 31.56 26.78 31.4 26.65 31.21 C 26.49 30.97 26.42 30.68 26.42 30.34 L 26.42 28.38 C 26.42 28.04 26.49 27.75 26.65 27.51 C 26.78 27.31 26.95 27.16 27.17 27.04 C 27.4 26.92 27.69 26.86 28.02 26.86 z M 16.57 26.91 L 17.61 26.91 L 17.61 31.8 L 16.57 31.8 L 16.57 28.04 L 16.17 28.34 L 15.51 27.68 L 16.57 26.91 z M 24.01 26.91 L 25.05 26.91 L 25.05 31.8 L 24.01 31.8 L 24.01 28.04 L 23.61 28.34 L 22.95 27.68 L 24.01 26.91 z M 20.59 27.7 C 20.49 27.7 20.4 27.72 20.33 27.76 C 20.25 27.8 20.19 27.86 20.13 27.94 C 20.06 28.05 20.02 28.2 20.02 28.38 L 20.02 29.5 L 21.13 28.15 C 21.11 28.07 21.08 28 21.04 27.94 C 20.99 27.86 20.92 27.8 20.84 27.76 C 20.77 27.72 20.69 27.7 20.59 27.7 z M 28.02 27.7 C 27.92 27.7 27.84 27.72 27.77 27.76 C 27.69 27.8 27.62 27.86 27.57 27.94 C 27.49 28.05 27.46 28.2 27.46 28.38 L 27.46 29.5 L 28.56 28.15 C 28.54 28.07 28.52 28 28.48 27.94 C 28.43 27.86 28.36 27.8 28.28 27.76 C 28.21 27.72 28.12 27.7 28.02 27.7 z M 21.15 29.21 L 20.04 30.57 C 20.06 30.65 20.09 30.72 20.13 30.78 C 20.18 30.86 20.25 30.92 20.33 30.96 C 20.41 31 20.49 31.02 20.59 31.02 C 20.69 31.02 20.77 31 20.84 30.96 C 20.92 30.92 20.98 30.86 21.04 30.78 C 21.11 30.66 21.15 30.52 21.15 30.34 L 21.15 29.21 z M 28.59 29.21 L 27.48 30.57 C 27.5 30.65 27.53 30.72 27.57 30.78 C 27.62 30.86 27.69 30.92 27.77 30.96 C 27.84 31 27.93 31.02 28.02 31.02 C 28.12 31.02 28.21 31 28.28 30.96 C 28.35 30.92 28.42 30.86 28.48 30.78 C 28.55 30.66 28.59 30.52 28.59 30.34 L 28.59 29.21 z M 20.59 33.58 C 20.92 33.58 21.2 33.65 21.44 33.77 C 21.66 33.89 21.83 34.04 21.96 34.24 C 22.12 34.48 22.19 34.76 22.19 35.1 L 22.19 37.07 C 22.19 37.4 22.12 37.69 21.96 37.93 C 21.83 38.13 21.66 38.29 21.44 38.4 C 21.2 38.52 20.92 38.58 20.59 38.58 C 20.25 38.58 19.97 38.52 19.73 38.4 C 19.51 38.28 19.34 38.13 19.21 37.93 C 19.06 37.69 18.98 37.4 18.98 37.07 L 18.98 35.1 C 18.98 34.76 19.06 34.48 19.21 34.24 C 19.34 34.04 19.51 33.88 19.73 33.77 C 19.97 33.65 20.25 33.58 20.59 33.58 z M 28.02 33.58 C 28.36 33.58 28.64 33.65 28.88 33.77 C 29.1 33.89 29.27 34.04 29.4 34.24 C 29.55 34.48 29.63 34.76 29.63 35.1 L 29.63 37.07 C 29.63 37.4 29.55 37.69 29.4 37.93 C 29.27 38.13 29.1 38.29 28.88 38.4 C 28.64 38.52 28.36 38.58 28.02 38.58 C 27.69 38.58 27.41 38.52 27.17 38.4 C 26.95 38.28 26.78 38.13 26.65 37.93 C 26.49 37.69 26.42 37.4 26.42 37.07 L 26.42 35.1 C 26.42 34.76 26.49 34.48 26.65 34.24 C 26.78 34.04 26.95 33.88 27.17 33.77 C 27.41 33.65 27.69 33.58 28.02 33.58 z M 16.57 33.64 L 17.61 33.64 L 17.61 38.53 L 16.57 38.53 L 16.57 34.77 L 16.17 35.06 L 15.51 34.41 L 16.57 33.64 z M 24.01 33.64 L 25.05 33.64 L 25.05 38.53 L 24.01 38.53 L 24.01 34.77 L 23.61 35.06 L 22.95 34.41 L 24.01 33.64 z M 31.45 33.64 L 32.49 33.64 L 32.49 38.53 L 31.45 38.53 L 31.45 34.77 L 31.04 35.06 L 30.39 34.41 L 31.45 33.64 z M 20.59 34.42 C 20.49 34.42 20.4 34.44 20.33 34.48 C 20.25 34.52 20.19 34.58 20.13 34.66 C 20.06 34.78 20.02 34.92 20.02 35.1 L 20.02 36.23 L 21.13 34.88 C 21.11 34.8 21.08 34.72 21.04 34.66 C 20.99 34.58 20.92 34.52 20.84 34.48 C 20.77 34.44 20.69 34.42 20.59 34.42 z M 28.02 34.42 C 27.92 34.42 27.84 34.44 27.77 34.48 C 27.69 34.52 27.62 34.58 27.57 34.66 C 27.5 34.78 27.46 34.92 27.46 35.1 L 27.46 36.23 L 28.57 34.88 C 28.55 34.8 28.52 34.72 28.48 34.66 C 28.43 34.58 28.36 34.52 28.28 34.48 C 28.21 34.44 28.12 34.42 28.02 34.42 z M 21.15 35.94 L 20.04 37.29 C 20.06 37.37 20.09 37.44 20.13 37.51 C 20.18 37.59 20.25 37.65 20.33 37.69 C 20.41 37.73 20.49 37.74 20.59 37.74 C 20.69 37.74 20.77 37.73 20.84 37.69 C 20.92 37.65 20.98 37.59 21.04 37.51 C 21.11 37.39 21.15 37.24 21.15 37.07 L 21.15 35.94 z M 28.59 35.94 L 27.48 37.29 C 27.5 37.37 27.53 37.44 27.57 37.51 C 27.62 37.59 27.69 37.65 27.77 37.69 C 27.85 37.73 27.93 37.74 28.02 37.74 C 28.12 37.74 28.21 37.73 28.28 37.69 C 28.36 37.65 28.42 37.59 28.48 37.51 C 28.55 37.39 28.59 37.24 28.59 37.07 L 28.59 35.94 z"/>
    </g>
  </defs>
  <g id="acyl-visual">
    <use id="visible1" style="fill:url(#acyl-gradient)" xlink:href="#acyl-drawing"/>
  </g>
</svg>
