<svg xmlns="http://www.w3.org/2000/svg" xmlns:xlink="http://www.w3.org/1999/xlink" width="48" height="48">
  <defs id="acyl-settings">
    <linearGradient id="acyl-gradient" x1="0%" x2="0%" y1="0%" y2="100%">
      <stop offset="100%" style="stop-color:#A0A0A0;stop-opacity:1.000000"/>
    </linearGradient>
    <g id="acyl-filter">
  </g>
    <g id="acyl-drawing">
      <path id="path-main" d="M 10.23 2.898 C 8.993 2.898 8 3.918 8 5.188 L 8 42.6 C 8 43.87 8.993 44.89 10.23 44.89 L 37.77 44.89 C 39.01 44.89 40 43.87 40 42.6 L 40 14 L 29.16 2.898 L 10.23 2.898 z M 16.47 13.95 C 16.81 13.95 17.11 14.02 17.37 14.12 C 17.6 14.24 17.79 14.4 17.93 14.6 C 18.07 14.83 18.17 15.12 18.17 15.46 L 18.17 17.43 C 18.17 17.77 18.09 18.07 17.93 18.3 C 17.79 18.5 17.6 18.66 17.37 18.77 C 17.11 18.85 16.81 18.95 16.47 18.95 L 16.22 18.95 C 15.98 18.95 15.76 18.9 15.57 18.79 C 15.34 18.68 15.15 18.52 15.01 18.32 C 14.86 18.08 14.76 17.79 14.76 17.45 L 14.76 15.48 C 14.76 15.14 14.84 14.85 15.01 14.62 C 15.15 14.43 15.34 14.26 15.57 14.14 C 15.82 14.07 16.12 13.97 16.47 13.97 L 16.47 13.95 z M 28.47 13.95 C 28.81 13.95 29.11 14.02 29.36 14.12 C 29.59 14.24 29.78 14.4 29.92 14.6 C 30.07 14.83 30.17 15.12 30.17 15.46 L 30.17 17.43 C 30.17 17.77 30.08 18.07 29.92 18.3 C 29.78 18.5 29.59 18.66 29.36 18.77 C 29.11 18.85 28.81 18.95 28.47 18.95 L 28.22 18.95 C 27.98 18.95 27.76 18.9 27.57 18.79 C 27.34 18.68 27.15 18.52 27.01 18.32 C 26.86 18.08 26.76 17.79 26.76 17.45 L 26.76 15.48 C 26.76 15.14 26.84 14.85 27.01 14.62 C 27.15 14.43 27.34 14.26 27.57 14.14 C 27.82 14.07 28.12 13.97 28.47 13.97 L 28.47 13.95 z M 20.23 14.07 L 21.18 14.07 L 21.18 18.96 L 20.23 18.96 L 20.23 15.01 L 19.59 15.41 L 19.01 14.83 L 20.23 14.07 z M 24.23 14.07 L 25.18 14.07 L 25.18 18.96 L 24.23 18.96 L 24.23 15.01 L 23.58 15.41 L 23.01 14.83 L 24.23 14.07 z M 32.23 14.07 L 33.18 14.07 L 33.18 18.96 L 32.23 18.96 L 32.23 15.01 L 31.58 15.41 L 31.01 14.83 L 32.23 14.07 z M 16.46 14.71 C 16.34 14.71 16.23 14.72 16.13 14.81 C 16.02 14.87 15.95 14.93 15.85 15.03 C 15.82 15.17 15.72 15.33 15.72 15.53 L 15.72 16.83 L 17.17 15.24 C 17.17 15.16 17.16 15.13 17.06 15.03 C 16.99 14.94 16.9 14.81 16.8 14.81 C 16.7 14.72 16.6 14.71 16.47 14.71 L 16.46 14.71 z M 28.47 14.71 C 28.34 14.71 28.23 14.72 28.13 14.81 C 28.03 14.87 27.97 14.93 27.87 15.03 C 27.73 15.17 27.73 15.33 27.73 15.53 L 27.73 16.83 L 29.17 15.24 C 29.17 15.16 29.16 15.13 29.06 15.03 C 28.99 14.94 28.9 14.81 28.8 14.81 C 28.7 14.72 28.6 14.71 28.47 14.71 z M 17.19 16.2 L 15.72 17.79 C 15.72 17.87 15.73 17.9 15.83 18 C 15.91 18.09 16 18.12 16.11 18.22 C 16.2 18.32 16.32 18.32 16.45 18.32 C 16.58 18.32 16.69 18.32 16.79 18.22 C 16.9 18.16 16.95 18.1 17.05 18 C 17.09 17.86 17.19 17.69 17.19 17.49 L 17.19 16.2 z M 29.18 16.2 L 27.73 17.79 C 27.73 17.87 27.73 17.9 27.83 18 C 27.91 18.09 28 18.12 28.1 18.22 C 28.2 18.32 28.32 18.32 28.45 18.32 C 28.58 18.32 28.69 18.32 28.79 18.22 C 28.9 18.16 28.95 18.1 29.05 18 C 29.18 17.86 29.18 17.69 29.18 17.49 L 29.18 16.2 z M 16.47 20.58 C 16.82 20.58 17.12 20.64 17.37 20.76 C 17.6 20.87 17.79 21.02 17.93 21.23 C 18.08 21.46 18.18 21.75 18.18 22.09 L 18.18 24.05 C 18.18 24.4 18.09 24.69 17.93 24.93 C 17.79 25.13 17.6 25.29 17.37 25.4 C 17.12 25.48 16.82 25.58 16.47 25.58 L 16.23 25.58 C 15.99 25.58 15.77 25.52 15.58 25.41 C 15.35 25.3 15.16 25.15 15.02 24.95 C 14.87 24.71 14.77 24.42 14.77 24.07 L 14.77 22.11 C 14.77 21.77 14.85 21.48 15.02 21.25 C 15.16 21.04 15.35 20.89 15.58 20.78 C 15.83 20.7 16.13 20.6 16.47 20.6 L 16.47 20.58 z M 20.47 20.58 C 20.82 20.58 21.12 20.64 21.37 20.76 C 21.6 20.87 21.79 21.02 21.93 21.23 C 22.08 21.46 22.18 21.75 22.18 22.09 L 22.18 24.05 C 22.18 24.4 22.09 24.69 21.93 24.93 C 21.79 25.13 21.6 25.29 21.37 25.4 C 21.12 25.48 20.82 25.58 20.47 25.58 L 20.23 25.58 C 19.99 25.58 19.77 25.52 19.58 25.41 C 19.34 25.3 19.15 25.15 19.01 24.95 C 18.87 24.71 18.77 24.42 18.77 24.07 L 18.77 22.11 C 18.77 21.77 18.85 21.48 19.01 21.25 C 19.15 21.04 19.34 20.89 19.58 20.78 C 19.83 20.7 20.13 20.6 20.47 20.6 L 20.47 20.58 z M 28.47 20.58 C 28.81 20.58 29.11 20.64 29.37 20.76 C 29.6 20.87 29.79 21.02 29.93 21.23 C 30.07 21.46 30.17 21.75 30.17 22.09 L 30.17 24.05 C 30.17 24.4 30.09 24.69 29.93 24.93 C 29.79 25.13 29.6 25.29 29.37 25.4 C 29.11 25.48 28.81 25.58 28.47 25.58 L 28.22 25.58 C 27.98 25.58 27.77 25.52 27.57 25.41 C 27.34 25.3 27.15 25.15 27.01 24.95 C 26.87 24.71 26.77 24.42 26.77 24.07 L 26.77 22.11 C 26.77 21.77 26.85 21.48 27.01 21.25 C 27.15 21.04 27.34 20.89 27.57 20.78 C 27.83 20.7 28.13 20.6 28.47 20.6 L 28.47 20.58 z M 24.23 20.7 L 25.19 20.7 L 25.19 25.59 L 24.23 25.59 L 24.23 21.64 L 23.59 22.04 L 23.01 21.47 L 24.23 20.7 z M 32.23 20.7 L 33.19 20.7 L 33.19 25.59 L 32.23 25.59 L 32.23 21.64 L 31.59 22.04 L 31.01 21.47 L 32.23 20.7 z M 16.46 21.35 C 16.34 21.35 16.23 21.36 16.13 21.45 C 16.02 21.51 15.97 21.57 15.87 21.67 C 15.83 21.8 15.73 21.97 15.73 22.17 L 15.73 23.47 L 17.18 21.88 C 17.18 21.8 17.17 21.77 17.07 21.67 C 17 21.57 16.91 21.55 16.81 21.45 C 16.71 21.36 16.61 21.35 16.47 21.35 L 16.46 21.35 z M 20.46 21.35 C 20.34 21.35 20.23 21.36 20.13 21.45 C 20.02 21.51 19.97 21.57 19.87 21.67 C 19.72 21.8 19.72 21.97 19.72 22.17 L 19.72 23.47 L 21.18 21.88 C 21.18 21.8 21.17 21.77 21.07 21.67 C 21 21.57 20.91 21.55 20.81 21.45 C 20.71 21.36 20.61 21.35 20.47 21.35 L 20.46 21.35 z M 28.47 21.35 C 28.35 21.35 28.24 21.36 28.14 21.45 C 28.03 21.51 27.98 21.57 27.88 21.67 C 27.73 21.8 27.73 21.97 27.73 22.17 L 27.73 23.47 L 29.17 21.88 C 29.17 21.8 29.16 21.77 29.06 21.67 C 28.99 21.57 28.9 21.55 28.8 21.45 C 28.7 21.36 28.6 21.35 28.47 21.35 z M 17.19 22.84 L 15.73 24.43 C 15.73 24.51 15.74 24.54 15.84 24.64 C 15.92 24.73 16.01 24.85 16.11 24.85 C 16.21 24.95 16.32 24.95 16.45 24.95 C 16.59 24.95 16.7 24.95 16.8 24.85 C 16.9 24.79 16.96 24.74 17.06 24.64 C 17.19 24.5 17.19 24.33 17.19 24.12 L 17.19 22.84 z M 21.18 22.84 L 19.72 24.43 C 19.72 24.51 19.73 24.54 19.83 24.64 C 19.91 24.73 19.99 24.85 20.1 24.85 C 20.2 24.95 20.31 24.95 20.44 24.95 C 20.57 24.95 20.69 24.95 20.79 24.85 C 20.89 24.79 20.95 24.74 21.05 24.64 C 21.18 24.5 21.18 24.33 21.18 24.12 L 21.18 22.84 z M 29.18 22.84 L 27.73 24.43 C 27.73 24.51 27.73 24.54 27.83 24.64 C 27.91 24.73 28 24.85 28.1 24.85 C 28.19 24.95 28.31 24.95 28.44 24.95 C 28.57 24.95 28.68 24.95 28.78 24.85 C 28.89 24.79 28.94 24.74 29.04 24.64 C 29.08 24.5 29.18 24.33 29.18 24.12 L 29.18 22.84 z M 22.94 28.3 L 24.95 28.3 C 25.21 28.3 25.31 28.3 26.29 30.75 L 26.34 30.85 L 27.22 31.2 L 27.32 31.16 C 29.43 30.2 29.64 30.2 29.74 30.2 C 29.85 30.2 29.95 30.25 30 30.3 L 31.44 31.7 C 31.6 31.88 31.65 31.94 30.62 34.37 L 30.57 34.46 L 30.93 35.3 L 30.98 35.33 C 33.5 36.24 33.5 36.34 33.5 36.6 L 33.5 38.04 L 27.22 38.04 C 27.22 37.91 27.27 37.77 27.27 37.62 C 27.27 35.86 25.83 34.42 24.03 34.42 C 22.22 34.42 20.73 35.86 20.73 37.62 C 20.73 37.77 20.73 37.91 20.78 38.04 L 14.5 38.04 L 14.5 36.68 C 14.5 36.43 14.5 36.32 17.02 35.35 L 17.07 35.32 L 17.43 34.47 L 17.38 34.39 C 16.25 32.01 16.35 31.94 16.51 31.76 L 17.95 30.36 C 18 30.3 18.1 30.27 18.21 30.27 C 18.41 30.27 19.24 30.56 20.68 31.17 L 20.78 31.21 L 21.66 30.86 L 21.66 30.76 C 22.58 28.3 22.69 28.3 22.94 28.3 z"/>
    </g>
  </defs>
  <g id="acyl-visual">
    <use id="visible1" style="fill:url(#acyl-gradient)" xlink:href="#acyl-drawing"/>
  </g>
</svg>
