<svg xmlns="http://www.w3.org/2000/svg" xmlns:xlink="http://www.w3.org/1999/xlink" width="48" height="48">
  <defs id="acyl-settings">
    <linearGradient id="acyl-gradient" x1="0%" x2="0%" y1="0%" y2="100%">
      <stop offset="100%" style="stop-color:#A0A0A0;stop-opacity:1.000000"/>
    </linearGradient>
    <g id="acyl-filter">
  </g>
    <g id="acyl-drawing">
      <path id="path-main" d="M 29.16 3 L 10.23 3.008 C 8.993 3.008 8 4.03 8 5.299 L 8 42.71 C 8 43.98 8.993 45 10.23 45 L 37.73 45 C 38.97 45 39.96 43.98 39.96 42.71 L 40 14.11 L 29.16 3 z M 24 14.96 C 25.62 14.96 26.94 15.98 26.94 17.25 C 26.94 17.73 26.75 18.17 26.43 18.54 C 25.99 19.25 26.47 19.54 26.94 19.54 L 30.54 19.54 C 31.62 19.54 32.5 20.42 32.5 21.5 L 32.5 23.79 C 32.5 24.26 32.21 24.74 31.49 24.3 C 31.13 23.98 30.68 23.79 30.21 23.79 C 28.94 23.79 27.92 25.11 27.92 26.73 C 27.92 28.35 28.94 29.68 30.21 29.68 C 30.6 29.68 30.97 29.56 31.28 29.36 C 32.17 28.68 32.5 29.17 32.5 29.68 L 32.5 33.27 C 32.5 34.36 31.62 35.23 30.54 35.23 L 26.94 35.23 C 26.47 35.23 25.99 34.95 26.43 34.23 C 26.75 33.86 26.94 33.43 26.94 32.95 C 26.94 31.68 25.62 30.66 24 30.66 C 22.37 30.66 21.05 31.68 21.05 32.95 C 21.05 33.34 21.18 33.7 21.37 34.02 C 22.05 34.91 21.57 35.23 21.05 35.23 L 17.46 35.23 C 16.38 35.23 15.49 34.36 15.49 33.27 L 15.49 29.68 C 15.49 29.2 15.78 28.73 16.5 29.16 C 16.86 29.49 17.31 29.68 17.78 29.68 C 19.05 29.68 20.07 28.35 20.07 26.73 C 20.07 25.11 19.05 23.79 17.78 23.79 C 17.39 23.79 17.03 23.91 16.71 24.11 C 15.83 24.78 15.49 24.3 15.49 23.79 L 15.49 21.5 C 15.49 20.42 16.38 19.54 17.46 19.54 L 21.05 19.54 C 21.57 19.54 22.05 19.21 21.39 18.33 C 21.18 18 21.05 17.64 21.05 17.25 C 21.05 15.98 22.37 14.96 24 14.96 z"/>
    </g>
  </defs>
  <g id="acyl-visual">
    <use id="visible1" style="fill:url(#acyl-gradient)" xlink:href="#acyl-drawing"/>
  </g>
</svg>
