<svg xmlns="http://www.w3.org/2000/svg" xmlns:xlink="http://www.w3.org/1999/xlink" width="48" height="48">
  <defs id="acyl-settings">
    <linearGradient id="acyl-gradient" x1="0%" x2="0%" y1="0%" y2="100%">
      <stop offset="100%" style="stop-color:#A0A0A0;stop-opacity:1.000000"/>
    </linearGradient>
    <g id="acyl-filter">
  </g>
    <g id="acyl-drawing">
      <path id="path-main" d="M 10.23 2.898 C 8.993 2.898 8 3.918 8 5.188 L 8 42.6 C 8 43.87 8.993 44.89 10.23 44.89 L 37.77 44.89 C 39.01 44.89 40 43.87 40 42.6 L 40 14 L 29.16 2.898 L 10.23 2.898 z M 19.68 13.71 C 19.68 13.71 19.67 14.32 23.36 16.89 C 25.24 18.35 25.24 20.33 25.24 20.33 C 22.78 16.48 20.27 16.62 20.27 16.62 L 20.27 28.14 L 20.23 28.1 C 20.22 29.07 19.35 30.03 18.09 30.33 C 16.66 30.69 15.17 30.01 15.01 29 C 14.74 27.9 15.67 26.71 17.1 26.36 C 17.75 26.24 18.38 26.27 18.9 26.46 L 18.9 14.32 C 18.9 14.32 18.98 13.81 19.68 13.71 z M 32.9 22.09 L 32.9 34.53 C 32.9 35.56 32.14 36.39 30.93 36.68 C 29.62 37 28.35 36.45 28.1 35.45 C 27.85 34.43 28.71 33.36 30.02 33.03 C 30.61 32.88 31.2 32.91 31.69 33.14 L 31.69 25.65 L 24.97 26.88 L 24.97 36.19 C 24.97 37.08 24.16 37.95 23.02 38.23 C 21.69 38.5 20.33 37.88 20.18 36.96 C 19.93 35.95 20.78 34.88 22.09 34.56 C 22.67 34.41 23.25 34.45 23.72 34.56 L 23.72 23.58 L 32.9 22.09 z"/>
    </g>
  </defs>
  <g id="acyl-visual">
    <use id="visible1" style="fill:url(#acyl-gradient)" xlink:href="#acyl-drawing"/>
  </g>
</svg>
