<svg xmlns="http://www.w3.org/2000/svg" xmlns:xlink="http://www.w3.org/1999/xlink" width="48" height="48">
  <defs id="acyl-settings">
    <linearGradient id="acyl-gradient" x1="0%" x2="0%" y1="0%" y2="100%">
      <stop offset="100%" style="stop-color:#A0A0A0;stop-opacity:1.000000"/>
    </linearGradient>
    <g id="acyl-filter">
  </g>
    <g id="acyl-drawing">
      <path id="path-main" d="M 10.23 2.898 C 8.993 2.898 8 3.918 8 5.188 L 8 42.6 C 8 43.87 8.993 44.89 10.23 44.89 L 37.77 44.89 C 39.01 44.89 40 43.87 40 42.6 L 40 14 L 29.16 2.898 L 10.23 2.898 z M 15.77 19.65 L 15.81 19.65 L 19.01 19.65 C 19.32 19.65 19.56 19.91 19.56 20.21 L 19.56 20.82 L 32.88 20.82 C 33.5 20.82 34 21.32 34 21.94 L 34 31.23 C 34 31.85 33.5 32.35 32.88 32.35 L 15.12 32.35 C 14.5 32.35 14 31.85 14 31.23 L 14 21.94 C 14 21.33 14.48 20.82 15.08 20.82 L 15.23 20.82 L 15.23 20.21 C 15.23 19.92 15.47 19.65 15.77 19.65 z M 29.79 21.6 C 29.67 21.6 29.56 21.73 29.56 21.86 L 29.56 23.24 C 29.56 23.38 29.68 23.5 29.82 23.5 L 32.61 23.5 C 32.75 23.5 32.87 23.38 32.87 23.24 L 32.87 21.86 C 32.87 21.72 32.75 21.6 32.61 21.6 L 29.82 21.6 L 29.79 21.6 z M 23.9 22.53 C 21.7 22.61 19.94 24.38 19.94 26.59 C 19.94 28.83 21.76 30.66 24 30.66 C 26.25 30.66 28.07 28.83 28.07 26.59 C 28.07 24.35 26.25 22.53 24 22.53 L 23.9 22.53 z M 24.01 23.98 C 25.45 23.98 26.62 25.14 26.62 26.59 C 26.62 28.03 25.45 29.2 24.01 29.2 C 22.56 29.2 21.4 28.03 21.4 26.59 C 21.4 25.14 22.56 23.98 24.01 23.98 z"/>
    </g>
  </defs>
  <g id="acyl-visual">
    <use id="visible1" style="fill:url(#acyl-gradient)" xlink:href="#acyl-drawing"/>
  </g>
</svg>
