<svg xmlns="http://www.w3.org/2000/svg" xmlns:xlink="http://www.w3.org/1999/xlink" width="48" height="48">
  <defs id="acyl-settings">
    <linearGradient id="acyl-gradient" x1="0%" x2="0%" y1="0%" y2="100%">
      <stop offset="100%" style="stop-color:#A0A0A0;stop-opacity:1.000000"/>
    </linearGradient>
    <g id="acyl-filter">
  </g>
    <g id="acyl-drawing">
      <path id="path-main" d="M 10.23 2.898 C 8.993 2.898 8 3.918 8 5.188 L 8 42.6 C 8 43.87 8.993 44.89 10.23 44.89 L 37.77 44.89 C 39.01 44.89 40 43.87 40 42.6 L 40 14 L 29.16 2.898 L 10.23 2.898 z M 20.79 12.99 L 24.35 12.99 L 24.35 15.13 L 27.2 15.13 L 27.2 17.26 L 24.35 17.26 L 24.35 19.4 L 27.2 19.4 L 27.2 21.54 L 24.35 21.54 L 24.35 23.67 L 27.2 23.67 L 27.2 25.81 L 24.35 25.81 L 24.35 27.52 L 28.83 27.52 L 30.16 36.37 L 24 39.01 L 17.84 36.37 L 19.16 27.52 L 20.79 27.52 L 20.79 25.81 L 23.64 25.81 L 23.64 23.67 L 20.79 23.67 L 20.79 21.54 L 23.64 21.54 L 23.64 19.4 L 20.79 19.4 L 20.79 17.26 L 23.64 17.26 L 23.64 15.13 L 20.79 15.13 L 20.79 12.99 z M 21 29.66 L 20.2 35.06 L 24 36.69 L 27.81 35.06 L 26.99 29.66 L 21 29.66 z"/>
    </g>
  </defs>
  <g id="acyl-visual">
    <use id="visible1" style="fill:url(#acyl-gradient)" xlink:href="#acyl-drawing"/>
  </g>
</svg>
