<svg xmlns="http://www.w3.org/2000/svg" xmlns:xlink="http://www.w3.org/1999/xlink" width="48" height="48">
  <defs id="acyl-settings">
    <linearGradient id="acyl-gradient" x1="0%" x2="0%" y1="0%" y2="100%">
      <stop offset="100%" style="stop-color:#A0A0A0;stop-opacity:1.000000"/>
    </linearGradient>
    <g id="acyl-filter">
  </g>
    <g id="acyl-drawing">
      <path id="path-main" d="M 29.16 3 L 10.23 3.008 C 8.993 3.008 8 4.03 8 5.299 L 8 42.71 C 8 43.98 8.993 45 10.23 45 L 37.73 45 C 38.97 45 39.96 43.98 39.96 42.71 L 40 14.11 L 29.16 3 z M 15.42 18 L 32.58 18 C 32.82 18 33 18.22 33 18.47 L 33 21.19 C 33 21.45 32.82 21.67 32.58 21.67 L 15.42 21.67 C 15.18 21.67 15 21.45 15 21.19 L 15 18.47 C 15 18.22 15.18 18 15.42 18 z M 15.42 24.1 L 23.22 24.1 C 23.46 24.1 23.66 24.31 23.66 24.56 L 23.66 33.53 C 23.66 33.79 23.46 34 23.22 34 L 15.42 34 C 15.18 34 15 33.79 15 33.53 L 15 24.56 C 15 24.31 15.18 24.1 15.42 24.1 z M 26.57 24.1 L 32.58 24.1 C 32.82 24.1 33 24.31 33 24.56 L 33 27.31 C 33 27.57 32.82 27.77 32.58 27.77 L 26.57 27.77 C 26.34 27.77 26.14 27.57 26.14 27.31 L 26.14 24.56 C 26.14 24.31 26.34 24.1 26.57 24.1 z M 26.57 30.2 L 32.58 30.2 C 32.82 30.2 33 30.41 33 30.66 L 33 33.41 C 33 33.67 32.82 33.88 32.58 33.88 L 26.57 33.88 C 26.34 33.88 26.14 33.67 26.14 33.41 L 26.14 30.66 C 26.14 30.41 26.34 30.2 26.57 30.2 z"/>
    </g>
  </defs>
  <g id="acyl-visual">
    <use id="visible1" style="fill:url(#acyl-gradient)" xlink:href="#acyl-drawing"/>
  </g>
</svg>
