<svg xmlns="http://www.w3.org/2000/svg" xmlns:xlink="http://www.w3.org/1999/xlink" width="48" height="48">
  <defs id="acyl-settings">
    <linearGradient id="acyl-gradient" x1="0%" x2="0%" y1="0%" y2="100%">
      <stop offset="100%" style="stop-color:#A0A0A0;stop-opacity:1.000000"/>
    </linearGradient>
    <g id="acyl-filter">
  </g>
    <g id="acyl-drawing">
      <path id="path-main" d="M 10.23 2.898 C 8.993 2.898 8 3.918 8 5.188 L 8 42.6 C 8 43.87 8.993 44.89 10.23 44.89 L 37.77 44.89 C 39.01 44.89 40 43.87 40 42.6 L 40 14 L 29.16 2.898 L 10.23 2.898 z M 22.18 16 L 25.82 16 C 26.32 16 26.73 16.41 26.73 16.91 L 26.73 18.28 C 27 18.38 27.27 18.49 27.53 18.62 L 28.5 17.64 C 28.85 17.29 29.43 17.29 29.79 17.64 L 32.36 20.21 C 32.71 20.57 32.71 21.14 32.36 21.5 L 31.38 22.47 C 31.51 22.73 31.61 23 31.71 23.27 L 33.09 23.27 C 33.59 23.27 34 23.68 34 24.18 L 34 27.82 C 34 28.32 33.59 28.73 33.09 28.73 L 31.71 28.73 C 31.62 29 31.51 29.27 31.38 29.53 L 32.36 30.5 C 32.71 30.85 32.71 31.43 32.36 31.79 L 29.79 34.36 C 29.43 34.71 28.85 34.71 28.5 34.36 L 27.53 33.38 C 27.27 33.51 27 33.61 26.73 33.71 L 26.73 35.09 C 26.73 35.59 26.32 36 25.82 36 L 22.18 36 C 21.68 36 21.27 35.59 21.27 35.09 L 21.27 33.71 C 21 33.62 20.73 33.51 20.47 33.38 L 19.5 34.36 C 19.14 34.71 18.57 34.71 18.21 34.36 L 15.64 31.79 C 15.27 31.31 15.23 31.02 15.64 30.5 L 16.62 29.53 C 16.49 29.27 16.38 29 16.28 28.73 L 14.91 28.73 C 14.41 28.73 14 28.32 14 27.82 L 14 24.18 C 14 23.68 14.41 23.27 14.91 23.27 L 16.28 23.27 C 16.38 23 16.49 22.73 16.62 22.47 L 15.64 21.5 C 15.48 21.33 15.38 21.1 15.38 20.86 C 15.38 20.62 15.47 20.38 15.64 20.21 L 18.21 17.64 C 18.57 17.29 19.14 17.29 19.5 17.64 L 20.47 18.62 C 20.73 18.49 21 18.38 21.27 18.28 L 21.27 16.91 C 21.27 16.41 21.68 16 22.18 16 z M 23.09 17.82 L 23.09 18.96 C 23.09 19.37 22.81 19.73 22.41 19.84 C 21.84 19.98 21.28 20.21 20.77 20.52 C 20.41 20.73 19.96 20.67 19.66 20.38 L 18.86 19.57 L 17.57 20.86 L 18.38 21.66 C 18.67 21.96 18.73 22.41 18.52 22.77 C 18.21 23.28 17.98 23.84 17.84 24.41 C 17.73 24.81 17.37 25.09 16.96 25.09 L 15.82 25.09 L 15.82 26.91 L 16.96 26.91 C 17.37 26.91 17.73 27.19 17.84 27.59 C 17.98 28.16 18.21 28.71 18.52 29.23 C 18.73 29.59 18.67 30.04 18.38 30.34 L 17.57 31.14 L 18.86 32.43 L 19.66 31.62 C 19.96 31.33 20.41 31.27 20.77 31.48 C 21.28 31.79 21.84 32.02 22.41 32.16 C 22.81 32.27 23.09 32.63 23.09 33.04 L 23.09 34.18 L 24.91 34.18 L 24.91 33.04 C 24.91 32.63 25.19 32.27 25.59 32.16 C 26.16 32.02 26.71 31.79 27.23 31.48 C 27.59 31.27 28.04 31.33 28.34 31.62 L 29.14 32.43 L 30.43 31.14 L 29.62 30.34 C 29.33 30.04 29.27 29.59 29.48 29.23 C 29.79 28.71 30.02 28.16 30.16 27.59 C 30.27 27.19 30.63 26.91 31.04 26.91 L 32.18 26.91 L 32.18 25.09 L 31.04 25.09 C 30.63 25.09 30.27 24.81 30.16 24.41 C 30.02 23.84 29.79 23.28 29.48 22.77 C 29.27 22.41 29.33 21.96 29.62 21.66 L 30.43 20.86 L 29.14 19.57 L 28.34 20.38 C 28.04 20.67 27.59 20.73 27.23 20.52 C 26.71 20.21 26.16 19.98 25.59 19.84 C 25.19 19.73 24.91 19.37 24.91 18.96 L 24.91 17.82 L 23.09 17.82 z M 22.57 22.47 C 22.78 22.48 22.98 22.54 23.16 22.65 L 26.93 25 L 26.93 25.03 C 27.27 25.23 27.49 25.61 27.49 26.02 C 27.49 26.42 27.27 26.8 26.93 27.02 L 23.16 29.37 C 22.97 29.43 22.76 29.55 22.54 29.55 C 22.35 29.55 22.15 29.53 21.97 29.4 C 21.6 29.19 21.36 28.8 21.36 28.38 L 21.36 23.67 C 21.36 23.24 21.6 22.84 21.97 22.65 C 22.16 22.53 22.37 22.47 22.57 22.47 z"/>
    </g>
  </defs>
  <g id="acyl-visual">
    <use id="visible1" style="fill:url(#acyl-gradient)" xlink:href="#acyl-drawing"/>
  </g>
</svg>
