<svg xmlns="http://www.w3.org/2000/svg" xmlns:xlink="http://www.w3.org/1999/xlink" width="48" height="48">
  <defs id="acyl-settings">
    <linearGradient id="acyl-gradient" x1="0%" x2="0%" y1="0%" y2="100%">
      <stop offset="100%" style="stop-color:#A0A0A0;stop-opacity:1.000000"/>
    </linearGradient>
    <g id="acyl-filter">
  </g>
    <g id="acyl-drawing">
      <path id="path-main" d="M 10.23 2.898 C 8.993 2.898 8 3.918 8 5.188 L 8 42.6 C 8 43.87 8.993 44.89 10.23 44.89 L 37.77 44.89 C 39.01 44.89 40 43.87 40 42.6 L 40 14 L 29.16 2.898 L 10.23 2.898 z M 26.45 13.07 C 26.45 13.07 28.98 15.76 24.04 19.89 C 20.08 23.21 23.14 25.1 24.04 27.26 C 21.73 25.04 20.03 23.1 21.17 21.29 C 22.84 18.63 27.47 17.34 26.45 13.07 z M 29.5 18.35 C 24.18 21.62 25.17 22.57 26.45 24.48 C 27.82 26.53 24.83 28.16 24.83 28.16 C 24.83 28.16 26.32 26.87 25.14 25.43 C 21.15 20.56 29.5 18.35 29.5 18.35 z M 31.11 27.06 C 33.41 27.17 34.46 30.65 29.12 32.14 C 29.12 32.14 29.19 32.08 29.21 32.01 C 33.79 29.49 31.67 27.07 30.19 27.4 C 29.83 27.48 29.67 27.55 29.67 27.55 C 29.67 27.55 29.8 27.32 30.06 27.23 C 30.42 27.09 30.78 27.04 31.11 27.06 z M 20.95 27.3 C 21.14 27.3 21.25 27.3 21.25 27.3 C 21.25 27.3 16.82 28.42 19.68 28.83 C 20.89 29 23.3 28.96 25.55 28.76 C 27.39 28.6 29.22 28.25 29.22 28.25 C 29.22 28.25 28.58 28.54 28.11 28.88 C 23.61 30.13 14.91 29.55 17.41 28.27 C 19 27.45 20.37 27.32 20.95 27.3 z M 20.22 30.24 C 20.22 30.24 19.18 31.06 20.77 31.23 C 22.84 31.46 24.47 31.48 27.29 30.9 C 27.29 30.9 27.68 31.32 28.3 31.55 C 22.52 33.34 16.09 31.69 20.22 30.24 z M 20.8 33.07 C 20.8 33.07 19.87 33.64 21.47 33.84 C 23.4 34.07 24.39 34.04 26.52 33.61 C 26.52 33.61 27.08 33.98 27.86 34.3 C 23.09 36.47 17.05 34.18 20.8 33.07 z M 18.38 34.96 C 18.61 34.96 18.8 35.01 18.92 35.1 C 18.92 35.1 18.61 35.08 18.08 35.2 C 17.56 35.32 15.93 35.87 16.8 36.27 C 19.22 37.38 27.94 37.11 30.7 36.23 C 32.07 35.79 31.54 35.25 31.48 35.19 C 31.47 35.18 31.47 35.18 31.46 35.17 L 31.46 35.16 C 31.46 35.16 31.47 35.18 31.48 35.19 C 33.92 36.4 25.94 38.8 16.23 37.13 C 13.1 36.59 16.76 34.89 18.38 34.96 z M 33 36.48 C 32.85 38.68 26.09 39.15 21.7 38.85 C 18.82 38.65 18.25 38.16 18.25 38.16 C 21 38.64 25.62 38.73 29.38 37.98 C 32.7 37.31 33 36.48 33 36.48 z"/>
    </g>
  </defs>
  <g id="acyl-visual">
    <use id="visible1" style="fill:url(#acyl-gradient)" xlink:href="#acyl-drawing"/>
  </g>
</svg>
