<svg xmlns="http://www.w3.org/2000/svg" xmlns:xlink="http://www.w3.org/1999/xlink" width="48" height="48">
  <defs id="acyl-settings">
    <linearGradient id="acyl-gradient" x1="0%" x2="0%" y1="0%" y2="100%">
      <stop offset="100%" style="stop-color:#A0A0A0;stop-opacity:1.000000"/>
    </linearGradient>
    <g id="acyl-filter">
  </g>
    <g id="acyl-drawing">
      <path id="path-main" d="M 29.16 3 L 10.23 3.008 C 8.993 3.008 8 4.03 8 5.299 L 8 42.71 C 8 43.98 8.993 45 10.23 45 L 37.73 45 C 38.97 45 39.96 43.98 39.96 42.71 L 40 14.11 L 29.16 3 z M 15 14 L 33 14 L 33 16 L 15 16 L 15 14 z M 15 18.4 L 19 18.4 L 19 20.4 L 15 20.4 L 15 18.4 z M 25.93 18.41 C 26.19 18.4 26.44 18.4 26.69 18.42 C 28.37 18.55 29.99 19.43 30.86 20.88 C 32.15 23.05 31.59 25.75 29.67 27.3 L 32.84 32.48 L 31.34 33.33 L 28.17 28.14 C 25.83 28.99 23.15 28.12 21.86 25.95 C 20.42 23.53 21.27 20.43 23.76 19.04 C 24.43 18.66 25.18 18.46 25.93 18.41 z M 26.32 20.02 A 3.348 3.348 4.232 0 0 22.97 23.37 A 3.348 3.348 4.232 0 0 26.32 26.72 A 3.348 3.348 4.232 0 0 29.67 23.37 A 3.348 3.348 4.232 0 0 26.32 20.02 z M 15 22.8 L 19 22.8 L 19 24.8 L 15 24.8 L 15 22.8 z M 15 27.2 L 19 27.2 L 19 29.2 L 15 29.2 L 15 27.2 z M 15 31.6 L 27 31.6 L 27 33.6 L 15 33.6 L 15 31.6 z M 15 36 L 33 36 L 33 38 L 15 38 L 15 36 z"/>
    </g>
  </defs>
  <g id="acyl-visual">
    <use id="visible1" style="fill:url(#acyl-gradient)" xlink:href="#acyl-drawing"/>
  </g>
</svg>
