<svg xmlns="http://www.w3.org/2000/svg" xmlns:xlink="http://www.w3.org/1999/xlink" width="48" height="48">
  <defs id="acyl-settings">
    <linearGradient id="acyl-gradient" x1="0%" x2="0%" y1="0%" y2="100%">
      <stop offset="100%" style="stop-color:#A0A0A0;stop-opacity:1.000000"/>
    </linearGradient>
    <g id="acyl-filter">
  </g>
    <g id="acyl-drawing">
      <path id="path-main" d="M 10.23 2.898 C 8.993 2.898 8 3.918 8 5.188 L 8 42.6 C 8 43.87 8.993 44.89 10.23 44.89 L 37.77 44.89 C 39.01 44.89 40 43.87 40 42.6 L 40 14 L 29.16 2.898 L 10.23 2.898 z M 31.07 16.48 A 2.429 2.429 0 0 1 33.5 18.91 A 2.429 2.429 0 0 1 31.07 21.33 A 2.429 2.429 0 0 1 28.63 18.91 A 2.429 2.429 0 0 1 31.07 16.48 z M 22.79 18.95 A 8.288 8.288 0 0 1 31.07 27.23 A 8.288 8.288 0 0 1 22.79 35.52 A 8.288 8.288 0 0 1 14.5 27.23 A 8.288 8.288 0 0 1 22.79 18.95 z M 25.72 21.84 A 2.427 2.427 0 0 0 23.29 24.27 A 2.427 2.427 0 0 0 25.72 26.71 A 2.427 2.427 0 0 0 28.15 24.27 A 2.427 2.427 0 0 0 25.72 21.84 z"/>
    </g>
  </defs>
  <g id="acyl-visual">
    <use id="visible1" style="fill:url(#acyl-gradient)" xlink:href="#acyl-drawing"/>
  </g>
</svg>
