<svg xmlns="http://www.w3.org/2000/svg" xmlns:xlink="http://www.w3.org/1999/xlink" width="48" height="48">
  <defs id="acyl-settings">
    <linearGradient id="acyl-gradient" x1="0%" x2="0%" y1="0%" y2="100%">
      <stop offset="100%" style="stop-color:#A0A0A0;stop-opacity:1.000000"/>
    </linearGradient>
    <g id="acyl-filter">
  </g>
    <g id="acyl-drawing">
      <path id="path-main" d="M 10.23 2.898 C 8.993 2.898 8 3.918 8 5.188 L 8 42.6 C 8 43.87 8.993 44.89 10.23 44.89 L 37.77 44.89 C 39.01 44.89 40 43.87 40 42.6 L 40 14 L 29.16 2.898 L 10.23 2.898 z M 23.73 15.69 C 26 15.69 28.28 16.19 28.28 17.21 L 28.28 23.27 C 28.28 24.28 27.27 25.29 26.26 25.29 L 21.2 25.29 C 19.18 25.29 18.17 26.3 18.17 28.33 L 18.17 30.35 L 16.65 30.35 C 13.11 30.35 13.11 21.75 16.65 21.75 L 23.76 21.75 L 23.76 20.24 L 19.18 20.24 L 19.18 17.21 C 19.18 16.19 21.45 15.69 23.73 15.69 z M 21.57 17.07 C 21.02 17.07 20.56 17.53 20.56 18.08 C 20.56 18.64 21.02 19.1 21.57 19.1 C 22.13 19.1 22.59 18.64 22.59 18.08 C 22.59 17.53 22.13 17.07 21.57 17.07 z M 29.82 21.65 L 31.34 21.65 C 34.89 21.65 34.89 30.25 31.34 30.25 L 24.23 30.25 L 24.23 31.76 L 28.81 31.76 L 28.81 34.79 C 28.81 35.8 26.54 36.31 24.27 36.31 C 22 36.31 19.71 35.81 19.71 34.79 L 19.71 28.73 C 19.71 27.72 20.73 26.71 21.74 26.71 L 26.79 26.71 C 28.81 26.71 29.82 25.7 29.82 23.67 L 29.82 21.65 z M 26.42 32.9 C 25.86 32.9 25.41 33.36 25.41 33.92 C 25.41 34.47 25.86 34.93 26.42 34.93 C 26.97 34.93 27.43 34.47 27.43 33.92 C 27.43 33.36 26.97 32.9 26.42 32.9 z"/>
    </g>
  </defs>
  <g id="acyl-visual">
    <use id="visible1" style="fill:url(#acyl-gradient)" xlink:href="#acyl-drawing"/>
  </g>
</svg>
