<svg xmlns="http://www.w3.org/2000/svg" xmlns:xlink="http://www.w3.org/1999/xlink" width="48" height="48">
  <defs id="acyl-settings">
    <linearGradient id="acyl-gradient" x1="0%" x2="0%" y1="0%" y2="100%">
      <stop offset="100%" style="stop-color:#A0A0A0;stop-opacity:1.000000"/>
    </linearGradient>
    <g id="acyl-filter">
  </g>
    <g id="acyl-drawing">
      <path id="path-main" d="M 10.23 2.898 C 8.993 2.898 8 3.918 8 5.188 L 8 42.6 C 8 43.87 8.993 44.89 10.23 44.89 L 37.77 44.89 C 39.01 44.89 40 43.87 40 42.6 L 40 14 L 29.16 2.898 L 10.23 2.898 z M 15 13.71 L 16.28 13.71 L 16.28 15.25 C 16.28 15.67 16.57 16.02 16.93 16.02 L 17.57 16.02 C 17.92 16.02 18.21 15.67 18.21 15.25 L 18.21 13.71 L 19.5 13.71 L 19.5 17.55 C 19.5 17.98 19.79 18.32 20.14 18.32 L 27.86 18.32 C 28.22 18.32 28.51 17.98 28.51 17.55 L 28.51 13.71 L 29.79 13.71 L 29.79 15.25 C 29.79 15.67 30.08 16.02 30.43 16.02 L 31.08 16.02 C 31.43 16.02 31.72 15.67 31.72 15.25 L 31.72 13.71 L 33 13.71 L 33 38.29 L 31.72 38.29 L 31.72 36.76 C 31.72 36.34 31.43 35.99 31.08 35.99 L 30.43 35.99 C 30.08 35.99 29.79 36.34 29.79 36.76 L 29.79 38.29 L 28.51 38.29 L 28.51 34.46 C 28.51 34.04 28.22 33.68 27.86 33.68 L 20.14 33.68 C 19.79 33.68 19.5 34.03 19.5 34.46 L 19.5 38.29 L 18.21 38.29 L 18.21 36.76 C 18.21 36.34 17.93 35.99 17.57 35.99 L 16.93 35.99 C 16.57 35.99 16.28 36.34 16.28 36.76 L 16.28 38.29 L 15 38.29 L 15 13.71 z M 16.93 17.55 C 16.57 17.55 16.28 17.9 16.28 18.32 L 16.28 19.86 C 16.28 20.28 16.57 20.63 16.93 20.62 L 17.57 20.62 C 17.92 20.63 18.21 20.28 18.21 19.86 L 18.21 18.32 C 18.21 17.9 17.92 17.55 17.57 17.55 L 16.93 17.55 z M 30.43 17.55 C 30.08 17.55 29.79 17.9 29.79 18.32 L 29.79 19.86 C 29.79 20.28 30.08 20.62 30.43 20.62 L 31.08 20.62 C 31.43 20.63 31.72 20.28 31.72 19.86 L 31.72 18.32 C 31.72 17.9 31.43 17.55 31.08 17.55 L 30.43 17.55 z M 20.14 19.86 C 19.79 19.86 19.5 20.2 19.5 20.63 L 19.5 31.38 C 19.5 31.81 19.79 32.15 20.14 32.15 L 27.86 32.15 C 28.22 32.15 28.51 31.81 28.51 31.38 L 28.51 20.62 C 28.51 20.2 28.22 19.86 27.86 19.86 L 20.14 19.86 z M 16.93 22.16 C 16.57 22.16 16.28 22.51 16.28 22.93 L 16.28 24.46 C 16.28 24.9 16.57 25.24 16.93 25.24 L 17.57 25.24 C 17.92 25.24 18.21 24.9 18.21 24.46 L 18.21 22.93 C 18.21 22.51 17.92 22.16 17.57 22.16 L 16.93 22.16 z M 30.43 22.16 C 30.08 22.16 29.79 22.51 29.79 22.93 L 29.79 24.46 C 29.79 24.9 30.08 25.24 30.43 25.24 L 31.08 25.24 C 31.43 25.24 31.72 24.9 31.72 24.46 L 31.72 22.93 C 31.72 22.51 31.43 22.16 31.08 22.16 L 30.43 22.16 z M 16.93 26.78 C 16.57 26.78 16.28 27.12 16.28 27.54 L 16.28 29.07 C 16.28 29.5 16.57 29.85 16.93 29.85 L 17.57 29.85 C 17.92 29.85 18.21 29.5 18.21 29.07 L 18.21 27.54 C 18.21 27.12 17.92 26.78 17.57 26.78 L 16.93 26.78 z M 30.43 26.78 C 30.08 26.78 29.79 27.12 29.79 27.54 L 29.79 29.07 C 29.79 29.5 30.08 29.85 30.43 29.85 L 31.08 29.85 C 31.43 29.85 31.72 29.5 31.72 29.07 L 31.72 27.54 C 31.72 27.12 31.43 26.78 31.08 26.78 L 30.43 26.78 z M 16.93 31.38 C 16.57 31.38 16.28 31.73 16.28 32.15 L 16.28 33.68 C 16.28 34.11 16.57 34.46 16.93 34.46 L 17.57 34.46 C 17.92 34.46 18.21 34.11 18.21 33.68 L 18.21 32.15 C 18.21 31.73 17.92 31.38 17.57 31.38 L 16.93 31.38 z M 30.43 31.38 C 30.08 31.38 29.79 31.73 29.79 32.15 L 29.79 33.68 C 29.79 34.11 30.08 34.46 30.43 34.46 L 31.08 34.46 C 31.43 34.46 31.72 34.11 31.72 33.68 L 31.72 32.15 C 31.72 31.73 31.43 31.38 31.08 31.38 L 30.43 31.38 z"/>
    </g>
  </defs>
  <g id="acyl-visual">
    <use id="visible1" style="fill:url(#acyl-gradient)" xlink:href="#acyl-drawing"/>
  </g>
</svg>
