<svg xmlns="http://www.w3.org/2000/svg" xmlns:xlink="http://www.w3.org/1999/xlink" width="48" height="48">
  <defs id="acyl-settings">
    <linearGradient id="acyl-gradient" x1="0%" x2="0%" y1="0%" y2="100%">
      <stop offset="100%" style="stop-color:#A0A0A0;stop-opacity:1.000000"/>
    </linearGradient>
    <g id="acyl-filter">
  </g>
    <g id="acyl-drawing">
      <path id="path-main" d="M 29.16 3 L 10.23 3.008 C 8.993 3.008 8 4.03 8 5.299 L 8 42.71 C 8 43.98 8.993 45 10.23 45 L 37.73 45 C 38.97 45 39.96 43.98 39.96 42.71 L 40 14.11 L 29.16 3 z M 18.42 16.51 L 19.56 16.51 C 19.9 16.51 20.19 16.8 20.19 17.16 L 20.19 20.92 C 20.19 21.28 19.9 21.56 19.56 21.56 L 18.42 21.56 C 18.08 21.56 17.8 21.28 17.8 20.92 L 17.8 17.16 C 17.8 16.8 18.08 16.51 18.42 16.51 z M 28.41 16.51 L 29.55 16.51 C 29.89 16.51 30.17 16.8 30.17 17.16 L 30.17 20.92 C 30.17 21.28 29.89 21.56 29.55 21.56 L 28.41 21.56 C 28.07 21.56 27.79 21.28 27.79 20.92 L 27.79 17.16 C 27.79 16.8 28.07 16.51 28.41 16.51 z M 16.61 18.62 L 16.61 20.92 C 16.61 21.94 17.42 22.8 18.43 22.8 L 19.58 22.8 C 20.58 22.8 21.41 21.96 21.41 20.92 L 21.41 18.62 L 26.59 18.62 L 26.59 20.92 C 26.59 21.94 27.42 22.8 28.42 22.8 L 29.57 22.8 C 30.58 22.8 31.4 21.96 31.4 20.92 L 31.4 18.62 C 32.28 18.62 33 19.39 33 20.33 L 33 33.78 C 33 34.73 32.26 35.5 31.35 35.5 L 16.65 35.5 C 15.74 35.5 15 34.73 15 33.79 L 15 20.33 C 15 19.39 15.73 18.62 16.61 18.62 z M 17.82 25.26 C 17.43 25.26 17.11 25.59 17.11 25.99 L 17.11 32.95 C 17.11 33.35 17.43 33.68 17.82 33.68 L 30.15 33.68 C 30.54 33.68 30.86 33.35 30.86 32.95 L 30.86 25.99 C 30.86 25.59 30.54 25.26 30.15 25.26 L 17.82 25.26 z M 19.63 26.55 L 21.09 26.55 C 21.32 26.55 21.51 26.75 21.51 26.99 L 21.51 28.49 C 21.51 28.73 21.32 28.92 21.09 28.92 L 19.63 28.92 C 19.4 28.92 19.21 28.73 19.21 28.49 L 19.21 26.99 C 19.21 26.75 19.4 26.55 19.63 26.55 z M 23.27 26.55 L 24.73 26.55 C 24.96 26.55 25.15 26.75 25.15 26.99 L 25.15 28.49 C 25.15 28.73 24.96 28.92 24.73 28.92 L 23.27 28.92 C 23.04 28.92 22.86 28.73 22.86 28.49 L 22.86 26.99 C 22.86 26.75 23.04 26.55 23.27 26.55 z M 26.92 26.55 L 28.37 26.55 C 28.6 26.55 28.79 26.75 28.79 26.99 L 28.79 28.49 C 28.79 28.73 28.6 28.92 28.37 28.92 L 26.92 28.92 C 26.69 28.92 26.5 28.73 26.5 28.49 L 26.5 26.99 C 26.5 26.75 26.69 26.55 26.92 26.55 z M 19.63 30.11 L 21.09 30.11 C 21.32 30.11 21.51 30.3 21.51 30.55 L 21.51 32.05 C 21.51 32.28 21.32 32.48 21.09 32.48 L 19.63 32.48 C 19.4 32.48 19.21 32.28 19.21 32.05 L 19.21 30.55 C 19.21 30.3 19.4 30.11 19.63 30.11 z M 23.27 30.11 L 24.73 30.11 C 24.96 30.11 25.15 30.3 25.15 30.55 L 25.15 32.05 C 25.15 32.28 24.96 32.48 24.73 32.48 L 23.27 32.48 C 23.04 32.48 22.86 32.28 22.86 32.05 L 22.86 30.55 C 22.86 30.3 23.04 30.11 23.27 30.11 z M 26.92 30.11 L 28.37 30.11 C 28.6 30.11 28.79 30.3 28.79 30.55 L 28.79 32.05 C 28.79 32.28 28.6 32.48 28.37 32.48 L 26.92 32.48 C 26.69 32.48 26.5 32.28 26.5 32.05 L 26.5 30.55 C 26.5 30.3 26.69 30.11 26.92 30.11 z"/>
    </g>
  </defs>
  <g id="acyl-visual">
    <use id="visible1" style="fill:url(#acyl-gradient)" xlink:href="#acyl-drawing"/>
  </g>
</svg>
