<svg xmlns="http://www.w3.org/2000/svg" xmlns:xlink="http://www.w3.org/1999/xlink" width="48" height="48">
  <defs id="acyl-settings">
    <linearGradient id="acyl-gradient" x1="0%" x2="0%" y1="0%" y2="100%">
      <stop offset="100%" style="stop-color:#A0A0A0;stop-opacity:1.000000"/>
    </linearGradient>
    <g id="acyl-filter">
  </g>
    <g id="acyl-drawing">
      <path id="path-main" d="M 29.16 3 L 10.23 3.008 C 8.993 3.008 8 4.03 8 5.299 L 8 42.71 C 8 43.98 8.993 45 10.23 45 L 37.73 45 C 38.97 45 39.96 43.98 39.96 42.71 L 40 14.11 L 29.16 3 z M 24.44 13 C 26.67 13 28.38 13.67 29.57 15.01 C 30.76 16.34 31.31 18.18 31.22 20.5 C 31.17 21.74 30.79 22.81 30.08 23.71 C 29.38 24.61 28.33 25.06 26.94 25.06 C 26.47 25.06 26.07 24.93 25.73 24.68 C 25.4 24.42 25.16 24.06 25.02 23.59 C 24.79 24.07 24.49 24.43 24.13 24.67 C 23.77 24.91 23.36 25.03 22.88 25.03 C 22.02 25.03 21.37 24.7 20.92 24.03 C 20.47 23.36 20.3 22.48 20.42 21.38 C 20.57 19.97 20.99 18.84 21.68 17.99 C 22.37 17.14 23.21 16.72 24.19 16.72 C 24.88 16.72 25.44 16.79 25.85 16.94 C 26.28 17.08 26.74 17.31 27.24 17.61 L 27.22 17.64 L 27.26 17.64 L 26.82 22.41 C 26.8 22.9 26.83 23.24 26.92 23.43 C 27.02 23.61 27.14 23.7 27.3 23.7 C 27.95 23.7 28.46 23.4 28.84 22.79 C 29.23 22.19 29.45 21.42 29.49 20.5 C 29.58 18.6 29.2 17.11 28.35 16.05 C 27.5 14.99 26.18 14.45 24.4 14.45 C 22.68 14.45 21.3 15.02 20.29 16.17 C 19.27 17.32 18.71 18.88 18.63 20.86 C 18.53 22.78 18.94 24.31 19.87 25.42 C 20.79 26.54 22.12 27.1 23.85 27.1 C 24.33 27.1 24.83 27.05 25.34 26.94 C 25.86 26.84 26.31 26.71 26.69 26.55 L 27.01 27.95 C 26.63 28.19 26.14 28.37 25.54 28.5 C 24.96 28.63 24.38 28.7 23.81 28.7 C 21.5 28.7 19.72 28 18.47 26.6 C 17.23 25.2 16.65 23.29 16.75 20.86 C 16.85 18.45 17.59 16.54 18.96 15.12 C 20.34 13.71 22.16 13 24.44 13 z M 24.52 18.33 C 23.93 18.33 23.47 18.58 23.16 19.09 C 22.85 19.6 22.65 20.36 22.55 21.38 C 22.5 22.05 22.55 22.56 22.7 22.91 C 22.85 23.25 23.1 23.43 23.44 23.43 C 23.75 23.43 24.03 23.34 24.27 23.17 C 24.51 23.01 24.73 22.69 24.91 22.24 L 25.25 18.43 C 25.13 18.4 25 18.38 24.88 18.36 C 24.76 18.34 24.64 18.33 24.52 18.33 z M 15 31.6 L 33 31.6 L 33 33.6 L 15 33.6 L 15 31.6 z M 15 36 L 33 36 L 33 38 L 15 38 L 15 36 z"/>
    </g>
  </defs>
  <g id="acyl-visual">
    <use id="visible1" style="fill:url(#acyl-gradient)" xlink:href="#acyl-drawing"/>
  </g>
</svg>
