<svg xmlns="http://www.w3.org/2000/svg" xmlns:xlink="http://www.w3.org/1999/xlink" width="48" height="48">
  <defs id="acyl-settings">
    <linearGradient id="acyl-gradient" x1="0%" x2="0%" y1="0%" y2="100%">
      <stop offset="100%" style="stop-color:#A0A0A0;stop-opacity:1.000000"/>
    </linearGradient>
    <g id="acyl-filter">
  </g>
    <g id="acyl-drawing">
      <path id="path-main" d="M 29.16 3 L 10.23 3.008 C 8.993 3.008 8 4.03 8 5.299 L 8 42.71 C 8 43.98 8.993 45 10.23 45 L 37.73 45 C 38.97 45 39.96 43.98 39.96 42.71 L 40 14.11 L 29.16 3 z M 24 13 L 24 21 L 32 21 C 32 25.42 28.42 29 24 29 C 19.58 29 16 25.42 16 21 C 16 16.58 19.58 13 24 13 z M 15 31.6 L 33 31.6 L 33 33.6 L 15 33.6 L 15 31.6 z M 15 36 L 33 36 L 33 38 L 15 38 L 15 36 z"/>
    </g>
  </defs>
  <g id="acyl-visual">
    <use id="visible1" style="fill:url(#acyl-gradient)" xlink:href="#acyl-drawing"/>
  </g>
</svg>
