<svg xmlns="http://www.w3.org/2000/svg" xmlns:xlink="http://www.w3.org/1999/xlink" width="48" height="48">
  <defs id="acyl-settings">
    <linearGradient id="acyl-gradient" x1="0%" x2="0%" y1="0%" y2="100%">
      <stop offset="100%" style="stop-color:#A0A0A0;stop-opacity:1.000000"/>
    </linearGradient>
    <g id="acyl-filter">
  </g>
    <g id="acyl-drawing">
      <path id="path-main" d="M 29.16 3 L 10.23 3.008 C 8.993 3.008 8 4.03 8 5.299 L 8 42.71 C 8 43.98 8.993 45 10.23 45 L 37.73 45 C 38.97 45 39.96 43.98 39.96 42.71 L 40 14.11 L 29.16 3 z M 23.94 15.04 L 31.91 16.47 C 32 16.49 32.08 16.55 32.12 16.63 L 33.97 20.69 C 34.06 20.88 33.9 21.1 33.69 21.08 L 26.6 20.51 C 26.49 20.5 26.4 20.44 26.36 20.35 L 23.94 15.04 z M 23.94 15.04 L 21.65 20.19 C 21.61 20.28 21.52 20.34 21.43 20.35 L 14.32 21.07 C 14.1 21.09 13.94 20.87 14.03 20.67 L 15.93 16.63 C 15.96 16.55 16.04 16.49 16.13 16.47 L 23.94 15.04 z M 23.74 19.05 C 23.86 19.07 23.97 19.17 23.97 19.32 L 23.97 27.56 L 30.53 26.31 L 30.53 22.3 C 30.53 22.13 30.67 22 30.84 22.03 L 31.65 22.15 C 31.79 22.17 31.89 22.28 31.89 22.43 L 31.89 27.09 C 31.89 27.22 31.8 27.34 31.67 27.37 L 24.49 28.91 C 24.15 28.98 23.79 28.99 23.44 28.91 L 16.34 27.42 C 16.21 27.39 16.12 27.28 16.12 27.15 L 15.99 22.41 C 15.99 22.27 16.1 22.14 16.25 22.13 L 22.28 21.6 C 22.39 21.59 22.48 21.52 22.52 21.42 L 23.43 19.21 C 23.49 19.07 23.62 19.02 23.74 19.05 z M 17 32.96 A 2 2 0 0 1 19 34.96 A 2 2 0 0 1 17 36.96 A 2 2 0 0 1 15 34.96 A 2 2 0 0 1 17 32.96 z M 24 32.96 A 2 2 0 0 1 26 34.96 A 2 2 0 0 1 24 36.96 A 2 2 0 0 1 22 34.96 A 2 2 0 0 1 24 32.96 z M 31 32.96 A 2 2 0 0 1 33 34.96 A 2 2 0 0 1 31 36.96 A 2 2 0 0 1 29 34.96 A 2 2 0 0 1 31 32.96 z"/>
    </g>
  </defs>
  <g id="acyl-visual">
    <use id="visible1" style="fill:url(#acyl-gradient)" xlink:href="#acyl-drawing"/>
  </g>
</svg>
